G04 #@! TF.GenerationSoftware,KiCad,Pcbnew,8.0.6*
G04 #@! TF.CreationDate,2026-01-15T10:01:28-08:00*
G04 #@! TF.ProjectId,LoRa_Board,4c6f5261-5f42-46f6-9172-642e6b696361,rev?*
G04 #@! TF.SameCoordinates,Original*
G04 #@! TF.FileFunction,Copper,L2,Inr*
G04 #@! TF.FilePolarity,Positive*
%FSLAX46Y46*%
G04 Gerber Fmt 4.6, Leading zero omitted, Abs format (unit mm)*
G04 Created by KiCad (PCBNEW 8.0.6) date 2026-01-15 10:01:28*
%MOMM*%
%LPD*%
G01*
G04 APERTURE LIST*
G04 #@! TA.AperFunction,ComponentPad*
%ADD10C,6.400000*%
G04 #@! TD*
G04 #@! TA.AperFunction,ComponentPad*
%ADD11C,1.650000*%
G04 #@! TD*
G04 #@! TA.AperFunction,ComponentPad*
%ADD12R,1.700000X1.700000*%
G04 #@! TD*
G04 #@! TA.AperFunction,ComponentPad*
%ADD13O,1.700000X1.700000*%
G04 #@! TD*
G04 #@! TA.AperFunction,ComponentPad*
%ADD14O,2.100000X1.000000*%
G04 #@! TD*
G04 #@! TA.AperFunction,ComponentPad*
%ADD15O,1.600000X1.000000*%
G04 #@! TD*
G04 #@! TA.AperFunction,ViaPad*
%ADD16C,0.700000*%
G04 #@! TD*
G04 #@! TA.AperFunction,ViaPad*
%ADD17C,0.800000*%
G04 #@! TD*
G04 APERTURE END LIST*
D10*
X197000000Y-72000000D03*
X197000000Y-115000000D03*
D11*
X116500000Y-76500000D03*
D12*
X143500000Y-114400000D03*
D13*
X143500000Y-116940000D03*
X140960000Y-116940000D03*
X138420000Y-114400000D03*
X138420000Y-116940000D03*
D14*
X107870000Y-100180000D03*
D15*
X103690000Y-100180000D03*
D14*
X107870000Y-108820000D03*
D15*
X103690000Y-108820000D03*
D13*
X157000000Y-116940000D03*
X154460000Y-114400000D03*
X154460000Y-116940000D03*
X151920000Y-116940000D03*
D10*
X105000000Y-72000000D03*
X105000000Y-115000000D03*
D13*
X124100000Y-91045000D03*
D12*
X108540000Y-86080000D03*
D13*
X108540000Y-83540000D03*
X108540000Y-81000000D03*
X108540000Y-78460000D03*
X127460000Y-114400000D03*
X124920000Y-114400000D03*
X183000000Y-116940000D03*
X180460000Y-114400000D03*
X180460000Y-116940000D03*
X177920000Y-116940000D03*
D16*
X169100000Y-113300000D03*
X157000000Y-105900000D03*
X177000000Y-88500000D03*
X177300000Y-75900000D03*
X171800000Y-99000000D03*
X116800000Y-93500000D03*
X173100000Y-100200000D03*
X141100000Y-96700000D03*
X188100000Y-82800000D03*
X180200000Y-95800000D03*
X165900000Y-88300000D03*
X167800000Y-77300000D03*
X156500000Y-96000000D03*
X174500000Y-77800000D03*
X163000000Y-70000000D03*
X180200000Y-74000000D03*
X162400000Y-87000000D03*
X193900000Y-90200000D03*
X156700000Y-78800000D03*
X131500000Y-84100000D03*
X184200000Y-79000000D03*
X163600000Y-80700000D03*
X174300000Y-101500000D03*
X186700000Y-104300000D03*
X130100000Y-106000000D03*
X175700000Y-81900000D03*
X119000000Y-90500000D03*
X156700000Y-80800000D03*
X177500000Y-104100000D03*
X136450000Y-81700000D03*
X169100000Y-101000000D03*
X188100000Y-92700000D03*
X152500000Y-106100000D03*
X188700000Y-100700000D03*
X153200000Y-82700000D03*
X171300000Y-114900000D03*
X170500000Y-74500000D03*
X184500000Y-87200000D03*
X122400000Y-114400000D03*
X187400000Y-77600000D03*
X154700000Y-78000000D03*
X120500000Y-90800000D03*
X164000000Y-75500000D03*
X115400000Y-111700000D03*
X125000000Y-105400000D03*
X146300000Y-88100000D03*
X157300000Y-100300000D03*
X190300000Y-70000000D03*
X186900000Y-89800000D03*
X162400000Y-76500000D03*
X153200000Y-80900000D03*
X176300000Y-77200000D03*
X168500000Y-104400000D03*
X170700000Y-104400000D03*
X185500000Y-103000000D03*
X193300000Y-87400000D03*
X168600000Y-79000000D03*
X135800000Y-92500000D03*
X173600000Y-76400000D03*
X182700000Y-94100000D03*
X159900000Y-76500000D03*
X191600000Y-90200000D03*
X192400000Y-96200000D03*
X158500000Y-69000000D03*
X127400000Y-111800000D03*
X169900000Y-77600000D03*
X154900000Y-81200000D03*
X184600000Y-84200000D03*
X165600000Y-113300000D03*
X136300000Y-105900000D03*
X193000000Y-99000000D03*
X185700000Y-82200000D03*
X146400000Y-118000000D03*
X194400000Y-83400000D03*
X146900000Y-101900000D03*
X148800000Y-121100000D03*
X134100000Y-114200000D03*
X179400000Y-85100000D03*
X185700000Y-74700000D03*
X166300000Y-78500000D03*
X186900000Y-84200000D03*
X166100000Y-96000000D03*
X188500000Y-76200000D03*
X183800000Y-104300000D03*
X185200000Y-105700000D03*
X178000000Y-83600000D03*
X167100000Y-98900000D03*
X174500000Y-96000000D03*
X161500000Y-69000000D03*
X183200000Y-81000000D03*
X162500000Y-101600000D03*
X194600000Y-86300000D03*
X159300000Y-90800000D03*
X123600000Y-73800000D03*
X199400000Y-83500000D03*
X155700000Y-104900000D03*
X186300000Y-98300000D03*
X176000000Y-94300000D03*
X183900000Y-70100000D03*
X187400000Y-99500000D03*
X156400000Y-74200000D03*
X157000000Y-70000000D03*
X167200000Y-89400000D03*
X165900000Y-100700000D03*
X158100000Y-79700000D03*
X161300000Y-78000000D03*
X164500000Y-69000000D03*
X167500000Y-69000000D03*
X182200000Y-87200000D03*
X179200000Y-94500000D03*
X181200000Y-81900000D03*
X152100000Y-88100000D03*
X137800000Y-100400000D03*
X197000000Y-83400000D03*
X185500000Y-69000000D03*
X132550000Y-90100000D03*
X176700000Y-80600000D03*
X173500000Y-69000000D03*
X171600000Y-86900000D03*
X145800000Y-69900000D03*
X132400000Y-102500000D03*
X151000000Y-102300000D03*
X176400000Y-83600000D03*
X158300000Y-83800000D03*
X146200000Y-121100000D03*
X179100000Y-99000000D03*
X181100000Y-85800000D03*
X171300000Y-113100000D03*
X129950000Y-80050000D03*
X167100000Y-87000000D03*
X179100000Y-86700000D03*
X165800000Y-80700000D03*
X153200000Y-76800000D03*
X183200000Y-85500000D03*
X163300000Y-105400000D03*
X179200000Y-88500000D03*
X173000000Y-102600000D03*
X174600000Y-80500000D03*
X151000000Y-100800000D03*
X131200000Y-94000000D03*
X170600000Y-100200000D03*
X164500000Y-89000000D03*
X177000000Y-101700000D03*
X163800000Y-87900000D03*
X182500000Y-69000000D03*
X197400000Y-96400000D03*
X179100000Y-96900000D03*
X195700000Y-84900000D03*
X191600000Y-94700000D03*
X145100000Y-106100000D03*
X165400000Y-105400000D03*
X154000000Y-103600000D03*
X125400000Y-68900000D03*
X163900000Y-95900000D03*
X185000000Y-99300000D03*
X184800000Y-76100000D03*
X172000000Y-82400000D03*
X197000000Y-86200000D03*
X193500000Y-95000000D03*
X192700000Y-89000000D03*
X183400000Y-98100000D03*
X194800000Y-93800000D03*
X177800000Y-85200000D03*
X188000000Y-95400000D03*
X164700000Y-101600000D03*
X166400000Y-104400000D03*
X153400000Y-89300000D03*
X182400000Y-79600000D03*
X194700000Y-88500000D03*
X105100000Y-101800000D03*
X155500000Y-69000000D03*
X198300000Y-85000000D03*
X166000000Y-70000000D03*
X198700000Y-97700000D03*
X144200000Y-81000000D03*
X181200000Y-103700000D03*
X159900000Y-70000000D03*
X170100000Y-82500000D03*
X164900000Y-87000000D03*
X140900000Y-79500000D03*
X189300000Y-87400000D03*
X159400000Y-80700000D03*
X164700000Y-82000000D03*
X176500000Y-69000000D03*
X176100000Y-98500000D03*
X133800000Y-74000000D03*
X163600000Y-102600000D03*
X188000000Y-88600000D03*
X178800000Y-102900000D03*
X142600000Y-88100000D03*
X163500000Y-100600000D03*
X183700000Y-74500000D03*
X188700000Y-103800000D03*
X180200000Y-89800000D03*
X116300000Y-81400000D03*
X119800000Y-98700000D03*
X144500000Y-69000000D03*
X179100000Y-101000000D03*
X185700000Y-88600000D03*
X168300000Y-96100000D03*
X180700000Y-94100000D03*
X168300000Y-88200000D03*
X183400000Y-88600000D03*
X187100000Y-94100000D03*
X181300000Y-88600000D03*
X154100000Y-69900000D03*
X154600000Y-75600000D03*
X164300000Y-104400000D03*
X183500000Y-96200000D03*
X179500000Y-69000000D03*
X142700000Y-91800000D03*
X162600000Y-79400000D03*
X130400000Y-69000000D03*
X159300000Y-105900000D03*
X124700000Y-109700000D03*
X179700000Y-78600000D03*
X134900000Y-69000000D03*
X159800000Y-95900000D03*
X149700000Y-69000000D03*
X162500000Y-82000000D03*
X135800000Y-100000000D03*
X179800000Y-83500000D03*
X171400000Y-76000000D03*
X155400000Y-100500000D03*
X133100000Y-79600000D03*
X161500000Y-102600000D03*
X182800000Y-76000000D03*
X159900000Y-74400000D03*
X186000000Y-95700000D03*
X169200000Y-75900000D03*
X158400000Y-98900000D03*
X194100000Y-97400000D03*
X159900000Y-79200000D03*
X185900000Y-100800000D03*
X147100000Y-69000000D03*
X151300000Y-98700000D03*
X181300000Y-75100000D03*
X170500000Y-69000000D03*
X105700000Y-107900000D03*
X154900000Y-82700000D03*
X103400000Y-106600000D03*
X181000000Y-70100000D03*
X176200000Y-74400000D03*
X179200000Y-81900000D03*
X154500000Y-90600000D03*
X187500000Y-80700000D03*
X176100000Y-86800000D03*
X192000000Y-69000000D03*
X181600000Y-97100000D03*
X188100000Y-85700000D03*
X122800000Y-68900000D03*
X191700000Y-92200000D03*
X183500000Y-100200000D03*
X169300000Y-83900000D03*
X167800000Y-100200000D03*
X159700000Y-113200000D03*
X187200000Y-96900000D03*
X134100000Y-116200000D03*
X139500000Y-69000000D03*
X182000000Y-105200000D03*
X180500000Y-87600000D03*
X161500000Y-88000000D03*
X180300000Y-105900000D03*
X155300000Y-79700000D03*
X176000000Y-95900000D03*
X172600000Y-74400000D03*
X182000000Y-101200000D03*
X182500000Y-92700000D03*
X152500000Y-102100000D03*
X182900000Y-102700000D03*
X169000000Y-70000000D03*
X143200000Y-106200000D03*
X177200000Y-97600000D03*
X148400000Y-69900000D03*
X155000000Y-106100000D03*
X195000000Y-99400000D03*
X128100000Y-69000000D03*
X178500000Y-77200000D03*
X163600000Y-78000000D03*
X160500000Y-82000000D03*
X172000000Y-70000000D03*
X186600000Y-76100000D03*
X175900000Y-100600000D03*
X167200000Y-101700000D03*
X137200000Y-69000000D03*
X178000000Y-70000000D03*
X199600000Y-96400000D03*
X164700000Y-79400000D03*
X143200000Y-70000000D03*
X193100000Y-84900000D03*
X155100000Y-89400000D03*
X137900000Y-101900000D03*
X183200000Y-82900000D03*
X156300000Y-76600000D03*
X123000000Y-103400000D03*
X162300000Y-104400000D03*
X178700000Y-80100000D03*
X136800000Y-110000000D03*
X174900000Y-75500000D03*
X153600000Y-87700000D03*
X169700000Y-105300000D03*
X151000000Y-75200000D03*
X182400000Y-89800000D03*
X129800000Y-102500000D03*
X170800000Y-81000000D03*
X154100000Y-98700000D03*
X160500000Y-104900000D03*
X169000000Y-80800000D03*
X177500000Y-82100000D03*
X180600000Y-102200000D03*
X169400000Y-86900000D03*
X162400000Y-74300000D03*
X172400000Y-80800000D03*
X180400000Y-100100000D03*
X185500000Y-77700000D03*
X163900000Y-93300000D03*
X165400000Y-77000000D03*
X180200000Y-92700000D03*
X167500000Y-105300000D03*
X161200000Y-75400000D03*
X185100000Y-80600000D03*
X196100000Y-97700000D03*
X185000000Y-97200000D03*
X171800000Y-101300000D03*
X158400000Y-77900000D03*
X131100000Y-96000000D03*
X169300000Y-99000000D03*
X165400000Y-74500000D03*
X190700000Y-88900000D03*
X127700000Y-109700000D03*
X161500000Y-80700000D03*
X192800000Y-93500000D03*
X187400000Y-102100000D03*
X186500000Y-79200000D03*
X161800000Y-95900000D03*
X180400000Y-76400000D03*
X189300000Y-89800000D03*
X102300000Y-104100000D03*
X177200000Y-99700000D03*
D17*
X138300000Y-78200000D03*
D16*
X102400000Y-101900000D03*
X183700000Y-77600000D03*
X153700000Y-105000000D03*
X147100000Y-106100000D03*
X184400000Y-101800000D03*
X184600000Y-89800000D03*
X171900000Y-105300000D03*
X150500000Y-110000000D03*
X151200000Y-69800000D03*
X141400000Y-106200000D03*
X117300000Y-110100000D03*
X184500000Y-94600000D03*
X166800000Y-75600000D03*
X170100000Y-79300000D03*
X173800000Y-86900000D03*
X199900000Y-99500000D03*
X135100000Y-75300000D03*
X172100000Y-77600000D03*
X161400000Y-100500000D03*
X135800000Y-101900000D03*
X118700000Y-78700000D03*
X158000000Y-104900000D03*
X155800000Y-98700000D03*
X189700000Y-94700000D03*
X167000000Y-112900000D03*
X171800000Y-110700000D03*
X136400000Y-74000000D03*
X187100000Y-70100000D03*
X179400000Y-104400000D03*
X174300000Y-105300000D03*
X167200000Y-83800000D03*
X116600000Y-104600000D03*
X177400000Y-78600000D03*
X174400000Y-88800000D03*
X158300000Y-82000000D03*
X186200000Y-92700000D03*
X171100000Y-83800000D03*
X175400000Y-87900000D03*
X150000000Y-92000000D03*
X181800000Y-95400000D03*
X175200000Y-104400000D03*
X167400000Y-80200000D03*
X138375000Y-94000000D03*
X173000000Y-104400000D03*
X149100000Y-106100000D03*
X134900000Y-120600000D03*
X153200000Y-79000000D03*
X188600000Y-79200000D03*
X152200000Y-103800000D03*
X144200000Y-76300000D03*
X155100000Y-87900000D03*
X186800000Y-87200000D03*
X166900000Y-82000000D03*
X176300000Y-105300000D03*
X187600000Y-74800000D03*
X180200000Y-97900000D03*
X112400000Y-77600000D03*
X172900000Y-83800000D03*
X112200000Y-110600000D03*
X133900000Y-105800000D03*
X153200000Y-74400000D03*
X168500000Y-82300000D03*
X173600000Y-81900000D03*
X121300000Y-99000000D03*
X144500000Y-78700000D03*
X185600000Y-85600000D03*
X160100000Y-87100000D03*
X181600000Y-77800000D03*
X180600000Y-80000000D03*
X158900000Y-100400000D03*
X138400000Y-106200000D03*
X199400000Y-86200000D03*
X141900000Y-69000000D03*
X197600000Y-99400000D03*
X193900000Y-92200000D03*
X174900000Y-70000000D03*
X158000000Y-75400000D03*
X188600000Y-98200000D03*
X142600000Y-76300000D03*
X161500000Y-105900000D03*
X152500000Y-69000000D03*
X171700000Y-79300000D03*
X178800000Y-75100000D03*
X191600000Y-87400000D03*
X181600000Y-99000000D03*
X194800000Y-95900000D03*
X146000000Y-114000000D03*
X114500000Y-81400000D03*
X175700000Y-79200000D03*
X178100000Y-105800000D03*
X124300000Y-108600000D03*
X190700000Y-96200000D03*
X175300000Y-102600000D03*
X188500000Y-69000000D03*
X121600000Y-105100000D03*
X131400000Y-82000000D03*
X132500000Y-99900000D03*
X187900000Y-105700000D03*
X165800000Y-102600000D03*
X181500000Y-84200000D03*
X170700000Y-102600000D03*
X151800000Y-84200000D03*
X132600000Y-69000000D03*
X168200000Y-74300000D03*
X173200000Y-79200000D03*
X168300000Y-102600000D03*
G04 #@! TA.AperFunction,Conductor*
G36*
X140494075Y-116747007D02*
G01*
X140460000Y-116874174D01*
X140460000Y-117005826D01*
X140494075Y-117132993D01*
X140526988Y-117190000D01*
X138853012Y-117190000D01*
X138885925Y-117132993D01*
X138920000Y-117005826D01*
X138920000Y-116874174D01*
X138885925Y-116747007D01*
X138853012Y-116690000D01*
X140526988Y-116690000D01*
X140494075Y-116747007D01*
G37*
G04 #@! TD.AperFunction*
G04 #@! TA.AperFunction,Conductor*
G36*
X143034075Y-116747007D02*
G01*
X143000000Y-116874174D01*
X143000000Y-117005826D01*
X143034075Y-117132993D01*
X143066988Y-117190000D01*
X141393012Y-117190000D01*
X141425925Y-117132993D01*
X141460000Y-117005826D01*
X141460000Y-116874174D01*
X141425925Y-116747007D01*
X141393012Y-116690000D01*
X143066988Y-116690000D01*
X143034075Y-116747007D01*
G37*
G04 #@! TD.AperFunction*
G04 #@! TA.AperFunction,Conductor*
G36*
X138670000Y-116506988D02*
G01*
X138612993Y-116474075D01*
X138485826Y-116440000D01*
X138354174Y-116440000D01*
X138227007Y-116474075D01*
X138170000Y-116506988D01*
X138170000Y-114833012D01*
X138227007Y-114865925D01*
X138354174Y-114900000D01*
X138485826Y-114900000D01*
X138612993Y-114865925D01*
X138670000Y-114833012D01*
X138670000Y-116506988D01*
G37*
G04 #@! TD.AperFunction*
G04 #@! TA.AperFunction,Conductor*
G36*
X143750000Y-116506988D02*
G01*
X143692993Y-116474075D01*
X143565826Y-116440000D01*
X143434174Y-116440000D01*
X143307007Y-116474075D01*
X143250000Y-116506988D01*
X143250000Y-114833012D01*
X143307007Y-114865925D01*
X143434174Y-114900000D01*
X143565826Y-114900000D01*
X143692993Y-114865925D01*
X143750000Y-114833012D01*
X143750000Y-116506988D01*
G37*
G04 #@! TD.AperFunction*
G04 #@! TA.AperFunction,Conductor*
G36*
X153994075Y-116747007D02*
G01*
X153960000Y-116874174D01*
X153960000Y-117005826D01*
X153994075Y-117132993D01*
X154026988Y-117190000D01*
X152353012Y-117190000D01*
X152385925Y-117132993D01*
X152420000Y-117005826D01*
X152420000Y-116874174D01*
X152385925Y-116747007D01*
X152353012Y-116690000D01*
X154026988Y-116690000D01*
X153994075Y-116747007D01*
G37*
G04 #@! TD.AperFunction*
G04 #@! TA.AperFunction,Conductor*
G36*
X156534075Y-116747007D02*
G01*
X156500000Y-116874174D01*
X156500000Y-117005826D01*
X156534075Y-117132993D01*
X156566988Y-117190000D01*
X154893012Y-117190000D01*
X154925925Y-117132993D01*
X154960000Y-117005826D01*
X154960000Y-116874174D01*
X154925925Y-116747007D01*
X154893012Y-116690000D01*
X156566988Y-116690000D01*
X156534075Y-116747007D01*
G37*
G04 #@! TD.AperFunction*
G04 #@! TA.AperFunction,Conductor*
G36*
X154710000Y-116506988D02*
G01*
X154652993Y-116474075D01*
X154525826Y-116440000D01*
X154394174Y-116440000D01*
X154267007Y-116474075D01*
X154210000Y-116506988D01*
X154210000Y-114833012D01*
X154267007Y-114865925D01*
X154394174Y-114900000D01*
X154525826Y-114900000D01*
X154652993Y-114865925D01*
X154710000Y-114833012D01*
X154710000Y-116506988D01*
G37*
G04 #@! TD.AperFunction*
G04 #@! TA.AperFunction,Conductor*
G36*
X179994075Y-116747007D02*
G01*
X179960000Y-116874174D01*
X179960000Y-117005826D01*
X179994075Y-117132993D01*
X180026988Y-117190000D01*
X178353012Y-117190000D01*
X178385925Y-117132993D01*
X178420000Y-117005826D01*
X178420000Y-116874174D01*
X178385925Y-116747007D01*
X178353012Y-116690000D01*
X180026988Y-116690000D01*
X179994075Y-116747007D01*
G37*
G04 #@! TD.AperFunction*
G04 #@! TA.AperFunction,Conductor*
G36*
X182534075Y-116747007D02*
G01*
X182500000Y-116874174D01*
X182500000Y-117005826D01*
X182534075Y-117132993D01*
X182566988Y-117190000D01*
X180893012Y-117190000D01*
X180925925Y-117132993D01*
X180960000Y-117005826D01*
X180960000Y-116874174D01*
X180925925Y-116747007D01*
X180893012Y-116690000D01*
X182566988Y-116690000D01*
X182534075Y-116747007D01*
G37*
G04 #@! TD.AperFunction*
G04 #@! TA.AperFunction,Conductor*
G36*
X180710000Y-116506988D02*
G01*
X180652993Y-116474075D01*
X180525826Y-116440000D01*
X180394174Y-116440000D01*
X180267007Y-116474075D01*
X180210000Y-116506988D01*
X180210000Y-114833012D01*
X180267007Y-114865925D01*
X180394174Y-114900000D01*
X180525826Y-114900000D01*
X180652993Y-114865925D01*
X180710000Y-114833012D01*
X180710000Y-116506988D01*
G37*
G04 #@! TD.AperFunction*
G04 #@! TA.AperFunction,Conductor*
G36*
X126994075Y-114207007D02*
G01*
X126960000Y-114334174D01*
X126960000Y-114465826D01*
X126994075Y-114592993D01*
X127026988Y-114650000D01*
X125353012Y-114650000D01*
X125385925Y-114592993D01*
X125420000Y-114465826D01*
X125420000Y-114334174D01*
X125385925Y-114207007D01*
X125353012Y-114150000D01*
X127026988Y-114150000D01*
X126994075Y-114207007D01*
G37*
G04 #@! TD.AperFunction*
G04 #@! TA.AperFunction,Conductor*
G36*
X108790000Y-85646988D02*
G01*
X108732993Y-85614075D01*
X108605826Y-85580000D01*
X108474174Y-85580000D01*
X108347007Y-85614075D01*
X108290000Y-85646988D01*
X108290000Y-83973012D01*
X108347007Y-84005925D01*
X108474174Y-84040000D01*
X108605826Y-84040000D01*
X108732993Y-84005925D01*
X108790000Y-83973012D01*
X108790000Y-85646988D01*
G37*
G04 #@! TD.AperFunction*
G04 #@! TA.AperFunction,Conductor*
G36*
X108790000Y-83106988D02*
G01*
X108732993Y-83074075D01*
X108605826Y-83040000D01*
X108474174Y-83040000D01*
X108347007Y-83074075D01*
X108290000Y-83106988D01*
X108290000Y-81433012D01*
X108347007Y-81465925D01*
X108474174Y-81500000D01*
X108605826Y-81500000D01*
X108732993Y-81465925D01*
X108790000Y-81433012D01*
X108790000Y-83106988D01*
G37*
G04 #@! TD.AperFunction*
G04 #@! TA.AperFunction,Conductor*
G36*
X108790000Y-80566988D02*
G01*
X108732993Y-80534075D01*
X108605826Y-80500000D01*
X108474174Y-80500000D01*
X108347007Y-80534075D01*
X108290000Y-80566988D01*
X108290000Y-78893012D01*
X108347007Y-78925925D01*
X108474174Y-78960000D01*
X108605826Y-78960000D01*
X108732993Y-78925925D01*
X108790000Y-78893012D01*
X108790000Y-80566988D01*
G37*
G04 #@! TD.AperFunction*
G04 #@! TA.AperFunction,Conductor*
G36*
X195710937Y-68320185D02*
G01*
X195756692Y-68372989D01*
X195766636Y-68442147D01*
X195737611Y-68505703D01*
X195688336Y-68540264D01*
X195493005Y-68615244D01*
X195147456Y-68791310D01*
X194822206Y-69002531D01*
X194564648Y-69211095D01*
X194564648Y-69211096D01*
X196059301Y-70705748D01*
X195957670Y-70779588D01*
X195779588Y-70957670D01*
X195705748Y-71059300D01*
X194211096Y-69564648D01*
X194211095Y-69564648D01*
X194002531Y-69822206D01*
X193791310Y-70147456D01*
X193615244Y-70493005D01*
X193476262Y-70855063D01*
X193375887Y-71229669D01*
X193375886Y-71229676D01*
X193315219Y-71612712D01*
X193294922Y-71999999D01*
X193294922Y-72000000D01*
X193315219Y-72387287D01*
X193375886Y-72770323D01*
X193375887Y-72770330D01*
X193476262Y-73144936D01*
X193615244Y-73506994D01*
X193791310Y-73852543D01*
X194002531Y-74177793D01*
X194211095Y-74435350D01*
X194211096Y-74435350D01*
X195705748Y-72940698D01*
X195779588Y-73042330D01*
X195957670Y-73220412D01*
X196059300Y-73294251D01*
X194564648Y-74788903D01*
X194564649Y-74788904D01*
X194822206Y-74997468D01*
X195147456Y-75208689D01*
X195493005Y-75384755D01*
X195855063Y-75523737D01*
X196229669Y-75624112D01*
X196229676Y-75624113D01*
X196612712Y-75684780D01*
X196999999Y-75705078D01*
X197000001Y-75705078D01*
X197387287Y-75684780D01*
X197770323Y-75624113D01*
X197770330Y-75624112D01*
X198144936Y-75523737D01*
X198506994Y-75384755D01*
X198852543Y-75208689D01*
X199177783Y-74997476D01*
X199177785Y-74997475D01*
X199435349Y-74788902D01*
X197940698Y-73294251D01*
X198042330Y-73220412D01*
X198220412Y-73042330D01*
X198294251Y-72940698D01*
X199788902Y-74435349D01*
X199997475Y-74177785D01*
X199997476Y-74177783D01*
X200208689Y-73852543D01*
X200384755Y-73506994D01*
X200459736Y-73311664D01*
X200502138Y-73256132D01*
X200567832Y-73232339D01*
X200635960Y-73247841D01*
X200684893Y-73297714D01*
X200699500Y-73356102D01*
X200699500Y-113643897D01*
X200679815Y-113710936D01*
X200627011Y-113756691D01*
X200557853Y-113766635D01*
X200494297Y-113737610D01*
X200459736Y-113688335D01*
X200384755Y-113493005D01*
X200208689Y-113147456D01*
X199997468Y-112822206D01*
X199788904Y-112564649D01*
X199788903Y-112564648D01*
X198294251Y-114059300D01*
X198220412Y-113957670D01*
X198042330Y-113779588D01*
X197940698Y-113705748D01*
X199435350Y-112211096D01*
X199435350Y-112211095D01*
X199177793Y-112002531D01*
X198852543Y-111791310D01*
X198506994Y-111615244D01*
X198144936Y-111476262D01*
X197770330Y-111375887D01*
X197770323Y-111375886D01*
X197387287Y-111315219D01*
X197000001Y-111294922D01*
X196999999Y-111294922D01*
X196612712Y-111315219D01*
X196229676Y-111375886D01*
X196229669Y-111375887D01*
X195855063Y-111476262D01*
X195493005Y-111615244D01*
X195147456Y-111791310D01*
X194822206Y-112002531D01*
X194564648Y-112211095D01*
X194564648Y-112211096D01*
X196059301Y-113705748D01*
X195957670Y-113779588D01*
X195779588Y-113957670D01*
X195705748Y-114059300D01*
X194211096Y-112564648D01*
X194211095Y-112564648D01*
X194002531Y-112822206D01*
X193791310Y-113147456D01*
X193615244Y-113493005D01*
X193476262Y-113855063D01*
X193375887Y-114229669D01*
X193375886Y-114229676D01*
X193315219Y-114612712D01*
X193294922Y-114999999D01*
X193294922Y-115000000D01*
X193315219Y-115387287D01*
X193375886Y-115770323D01*
X193375887Y-115770330D01*
X193476262Y-116144936D01*
X193615244Y-116506994D01*
X193791310Y-116852543D01*
X194002531Y-117177793D01*
X194211095Y-117435350D01*
X194211096Y-117435350D01*
X195705748Y-115940698D01*
X195779588Y-116042330D01*
X195957670Y-116220412D01*
X196059300Y-116294251D01*
X194564648Y-117788903D01*
X194564649Y-117788904D01*
X194822206Y-117997468D01*
X195147456Y-118208689D01*
X195493005Y-118384755D01*
X195855063Y-118523737D01*
X196229669Y-118624112D01*
X196229676Y-118624113D01*
X196612712Y-118684780D01*
X196999999Y-118705078D01*
X197000001Y-118705078D01*
X197387287Y-118684780D01*
X197770323Y-118624113D01*
X197770330Y-118624112D01*
X198144936Y-118523737D01*
X198506994Y-118384755D01*
X198852543Y-118208689D01*
X199177783Y-117997476D01*
X199177785Y-117997475D01*
X199435349Y-117788902D01*
X197940698Y-116294251D01*
X198042330Y-116220412D01*
X198220412Y-116042330D01*
X198294251Y-115940698D01*
X199788902Y-117435349D01*
X199997475Y-117177785D01*
X199997476Y-117177783D01*
X200208689Y-116852543D01*
X200384755Y-116506994D01*
X200459736Y-116311664D01*
X200502138Y-116256132D01*
X200567832Y-116232339D01*
X200635960Y-116247841D01*
X200684893Y-116297714D01*
X200699500Y-116356102D01*
X200699500Y-118796519D01*
X200699305Y-118803472D01*
X200681659Y-119117688D01*
X200680102Y-119131506D01*
X200627969Y-119438333D01*
X200624875Y-119451889D01*
X200538717Y-119750952D01*
X200534124Y-119764078D01*
X200415024Y-120051611D01*
X200408991Y-120064139D01*
X200258442Y-120336538D01*
X200251043Y-120348312D01*
X200070954Y-120602123D01*
X200062285Y-120612995D01*
X199854896Y-120845063D01*
X199845063Y-120854896D01*
X199612995Y-121062285D01*
X199602123Y-121070954D01*
X199348312Y-121251043D01*
X199336538Y-121258442D01*
X199064139Y-121408991D01*
X199051611Y-121415024D01*
X198764078Y-121534124D01*
X198750952Y-121538717D01*
X198451889Y-121624875D01*
X198438333Y-121627969D01*
X198131506Y-121680102D01*
X198117688Y-121681659D01*
X197803472Y-121699305D01*
X197796519Y-121699500D01*
X104203481Y-121699500D01*
X104196528Y-121699305D01*
X103882311Y-121681659D01*
X103868493Y-121680102D01*
X103561666Y-121627969D01*
X103548110Y-121624875D01*
X103249047Y-121538717D01*
X103235921Y-121534124D01*
X102948388Y-121415024D01*
X102935860Y-121408991D01*
X102913853Y-121396828D01*
X102663457Y-121258439D01*
X102651692Y-121251046D01*
X102397872Y-121070951D01*
X102387004Y-121062285D01*
X102154936Y-120854896D01*
X102145103Y-120845063D01*
X102088874Y-120782143D01*
X101937709Y-120612989D01*
X101929050Y-120602129D01*
X101785631Y-120400000D01*
X135794353Y-120400000D01*
X135814834Y-120542456D01*
X135847049Y-120612995D01*
X135874623Y-120673373D01*
X135968872Y-120782143D01*
X136089947Y-120859953D01*
X136089950Y-120859954D01*
X136089949Y-120859954D01*
X136228036Y-120900499D01*
X136228038Y-120900500D01*
X136228039Y-120900500D01*
X136371962Y-120900500D01*
X136371962Y-120900499D01*
X136510053Y-120859953D01*
X136631128Y-120782143D01*
X136725377Y-120673373D01*
X136785165Y-120542457D01*
X136805647Y-120400000D01*
X147094353Y-120400000D01*
X147114834Y-120542456D01*
X147147049Y-120612995D01*
X147174623Y-120673373D01*
X147268872Y-120782143D01*
X147389947Y-120859953D01*
X147389950Y-120859954D01*
X147389949Y-120859954D01*
X147528036Y-120900499D01*
X147528038Y-120900500D01*
X147528039Y-120900500D01*
X147671962Y-120900500D01*
X147671962Y-120900499D01*
X147810053Y-120859953D01*
X147931128Y-120782143D01*
X148025377Y-120673373D01*
X148085165Y-120542457D01*
X148105647Y-120400000D01*
X148085165Y-120257543D01*
X148025377Y-120126627D01*
X147931128Y-120017857D01*
X147810053Y-119940047D01*
X147810051Y-119940046D01*
X147810049Y-119940045D01*
X147810050Y-119940045D01*
X147671963Y-119899500D01*
X147671961Y-119899500D01*
X147528039Y-119899500D01*
X147528036Y-119899500D01*
X147389949Y-119940045D01*
X147268873Y-120017856D01*
X147174623Y-120126626D01*
X147174622Y-120126628D01*
X147114834Y-120257543D01*
X147094353Y-120400000D01*
X136805647Y-120400000D01*
X136785165Y-120257543D01*
X136725377Y-120126627D01*
X136631128Y-120017857D01*
X136510053Y-119940047D01*
X136510051Y-119940046D01*
X136510049Y-119940045D01*
X136510050Y-119940045D01*
X136371963Y-119899500D01*
X136371961Y-119899500D01*
X136228039Y-119899500D01*
X136228036Y-119899500D01*
X136089949Y-119940045D01*
X135968873Y-120017856D01*
X135874623Y-120126626D01*
X135874622Y-120126628D01*
X135814834Y-120257543D01*
X135794353Y-120400000D01*
X101785631Y-120400000D01*
X101748950Y-120348303D01*
X101741563Y-120336547D01*
X101591004Y-120064132D01*
X101584978Y-120051618D01*
X101465874Y-119764077D01*
X101461282Y-119750952D01*
X101375124Y-119451889D01*
X101372030Y-119438333D01*
X101348526Y-119300000D01*
X145594353Y-119300000D01*
X145614834Y-119442456D01*
X145616087Y-119445199D01*
X145674623Y-119573373D01*
X145768872Y-119682143D01*
X145889947Y-119759953D01*
X145889950Y-119759954D01*
X145889949Y-119759954D01*
X146028036Y-119800499D01*
X146028038Y-119800500D01*
X146028039Y-119800500D01*
X146171962Y-119800500D01*
X146171962Y-119800499D01*
X146279121Y-119769035D01*
X146310050Y-119759954D01*
X146310050Y-119759953D01*
X146310053Y-119759953D01*
X146431128Y-119682143D01*
X146525377Y-119573373D01*
X146585165Y-119442457D01*
X146605647Y-119300000D01*
X146585165Y-119157543D01*
X146525377Y-119026627D01*
X146431128Y-118917857D01*
X146310053Y-118840047D01*
X146310051Y-118840046D01*
X146310049Y-118840045D01*
X146310050Y-118840045D01*
X146171963Y-118799500D01*
X146171961Y-118799500D01*
X146028039Y-118799500D01*
X146028036Y-118799500D01*
X145889949Y-118840045D01*
X145768873Y-118917856D01*
X145674623Y-119026626D01*
X145674622Y-119026628D01*
X145614834Y-119157543D01*
X145594353Y-119300000D01*
X101348526Y-119300000D01*
X101319897Y-119131506D01*
X101318340Y-119117695D01*
X101300695Y-118803471D01*
X101300500Y-118796519D01*
X101300500Y-116356102D01*
X101320185Y-116289063D01*
X101372989Y-116243308D01*
X101442147Y-116233364D01*
X101505703Y-116262389D01*
X101540264Y-116311664D01*
X101615244Y-116506994D01*
X101791310Y-116852543D01*
X102002531Y-117177793D01*
X102211095Y-117435350D01*
X102211096Y-117435350D01*
X103705748Y-115940698D01*
X103779588Y-116042330D01*
X103957670Y-116220412D01*
X104059300Y-116294251D01*
X102564648Y-117788903D01*
X102564649Y-117788904D01*
X102822206Y-117997468D01*
X103147456Y-118208689D01*
X103493005Y-118384755D01*
X103855063Y-118523737D01*
X104229669Y-118624112D01*
X104229676Y-118624113D01*
X104612712Y-118684780D01*
X104999999Y-118705078D01*
X105000001Y-118705078D01*
X105387287Y-118684780D01*
X105770323Y-118624113D01*
X105770330Y-118624112D01*
X106144936Y-118523737D01*
X106506994Y-118384755D01*
X106852543Y-118208689D01*
X107177783Y-117997476D01*
X107177785Y-117997475D01*
X107435349Y-117788902D01*
X105940698Y-116294251D01*
X106042330Y-116220412D01*
X106220412Y-116042330D01*
X106294251Y-115940698D01*
X107788902Y-117435349D01*
X107997475Y-117177785D01*
X107997476Y-117177783D01*
X108206296Y-116856228D01*
X124069500Y-116856228D01*
X124069500Y-117023771D01*
X124102182Y-117188074D01*
X124102184Y-117188082D01*
X124166295Y-117342860D01*
X124259373Y-117482162D01*
X124377837Y-117600626D01*
X124403208Y-117617578D01*
X124517137Y-117693703D01*
X124671918Y-117757816D01*
X124828199Y-117788902D01*
X124836228Y-117790499D01*
X124836232Y-117790500D01*
X124836233Y-117790500D01*
X125003768Y-117790500D01*
X125003769Y-117790499D01*
X125168082Y-117757816D01*
X125322863Y-117693703D01*
X125462162Y-117600626D01*
X125580626Y-117482162D01*
X125673703Y-117342863D01*
X125737816Y-117188082D01*
X125770500Y-117023767D01*
X125770500Y-116856233D01*
X125770499Y-116856228D01*
X126609500Y-116856228D01*
X126609500Y-117023771D01*
X126642182Y-117188074D01*
X126642184Y-117188082D01*
X126706295Y-117342860D01*
X126799373Y-117482162D01*
X126917837Y-117600626D01*
X126943208Y-117617578D01*
X127057137Y-117693703D01*
X127211918Y-117757816D01*
X127368199Y-117788902D01*
X127376228Y-117790499D01*
X127376232Y-117790500D01*
X127376233Y-117790500D01*
X127543768Y-117790500D01*
X127543769Y-117790499D01*
X127708082Y-117757816D01*
X127862863Y-117693703D01*
X128002162Y-117600626D01*
X128120626Y-117482162D01*
X128213703Y-117342863D01*
X128277816Y-117188082D01*
X128310500Y-117023767D01*
X128310500Y-116856233D01*
X128310499Y-116856228D01*
X129149500Y-116856228D01*
X129149500Y-117023771D01*
X129182182Y-117188074D01*
X129182184Y-117188082D01*
X129246295Y-117342860D01*
X129339373Y-117482162D01*
X129457837Y-117600626D01*
X129483208Y-117617578D01*
X129597137Y-117693703D01*
X129751918Y-117757816D01*
X129908199Y-117788902D01*
X129916228Y-117790499D01*
X129916232Y-117790500D01*
X129916233Y-117790500D01*
X130083768Y-117790500D01*
X130083769Y-117790499D01*
X130248082Y-117757816D01*
X130402863Y-117693703D01*
X130542162Y-117600626D01*
X130660626Y-117482162D01*
X130753703Y-117342863D01*
X130817816Y-117188082D01*
X130850500Y-117023767D01*
X130850500Y-116856233D01*
X130817816Y-116691918D01*
X130753703Y-116537137D01*
X130688798Y-116440000D01*
X130660626Y-116397837D01*
X130542162Y-116279373D01*
X130402860Y-116186295D01*
X130248082Y-116122184D01*
X130248074Y-116122182D01*
X130083771Y-116089500D01*
X130083767Y-116089500D01*
X129916233Y-116089500D01*
X129916228Y-116089500D01*
X129751925Y-116122182D01*
X129751917Y-116122184D01*
X129597139Y-116186295D01*
X129457837Y-116279373D01*
X129339373Y-116397837D01*
X129246295Y-116537139D01*
X129182184Y-116691917D01*
X129182182Y-116691925D01*
X129149500Y-116856228D01*
X128310499Y-116856228D01*
X128277816Y-116691918D01*
X128213703Y-116537137D01*
X128148798Y-116440000D01*
X128120626Y-116397837D01*
X128002162Y-116279373D01*
X127862860Y-116186295D01*
X127708082Y-116122184D01*
X127708074Y-116122182D01*
X127543771Y-116089500D01*
X127543767Y-116089500D01*
X127376233Y-116089500D01*
X127376228Y-116089500D01*
X127211925Y-116122182D01*
X127211917Y-116122184D01*
X127057139Y-116186295D01*
X126917837Y-116279373D01*
X126799373Y-116397837D01*
X126706295Y-116537139D01*
X126642184Y-116691917D01*
X126642182Y-116691925D01*
X126609500Y-116856228D01*
X125770499Y-116856228D01*
X125737816Y-116691918D01*
X125673703Y-116537137D01*
X125608798Y-116440000D01*
X125580626Y-116397837D01*
X125462162Y-116279373D01*
X125322860Y-116186295D01*
X125168082Y-116122184D01*
X125168074Y-116122182D01*
X125003771Y-116089500D01*
X125003767Y-116089500D01*
X124836233Y-116089500D01*
X124836228Y-116089500D01*
X124671925Y-116122182D01*
X124671917Y-116122184D01*
X124517139Y-116186295D01*
X124377837Y-116279373D01*
X124259373Y-116397837D01*
X124166295Y-116537139D01*
X124102184Y-116691917D01*
X124102182Y-116691925D01*
X124069500Y-116856228D01*
X108206296Y-116856228D01*
X108208689Y-116852543D01*
X108384755Y-116506994D01*
X108523737Y-116144936D01*
X108624112Y-115770330D01*
X108624113Y-115770323D01*
X108684780Y-115387287D01*
X108705078Y-115000000D01*
X108705078Y-114999999D01*
X108684780Y-114612712D01*
X108624113Y-114229676D01*
X108624112Y-114229669D01*
X108602765Y-114149999D01*
X123589364Y-114149999D01*
X123589364Y-114150000D01*
X124486988Y-114150000D01*
X124454075Y-114207007D01*
X124420000Y-114334174D01*
X124420000Y-114465826D01*
X124454075Y-114592993D01*
X124486988Y-114650000D01*
X123589364Y-114650000D01*
X123646567Y-114863486D01*
X123646570Y-114863492D01*
X123746399Y-115077578D01*
X123881894Y-115271082D01*
X124048917Y-115438105D01*
X124242421Y-115573600D01*
X124456507Y-115673429D01*
X124456516Y-115673433D01*
X124670000Y-115730634D01*
X124670000Y-114833012D01*
X124727007Y-114865925D01*
X124854174Y-114900000D01*
X124985826Y-114900000D01*
X125112993Y-114865925D01*
X125170000Y-114833012D01*
X125170000Y-115730633D01*
X125383483Y-115673433D01*
X125383492Y-115673429D01*
X125597578Y-115573600D01*
X125791082Y-115438105D01*
X125958105Y-115271082D01*
X126088425Y-115084968D01*
X126143002Y-115041344D01*
X126212501Y-115034151D01*
X126274855Y-115065673D01*
X126291575Y-115084968D01*
X126421894Y-115271082D01*
X126588917Y-115438105D01*
X126782421Y-115573600D01*
X126996507Y-115673429D01*
X126996516Y-115673433D01*
X127210000Y-115730634D01*
X127210000Y-114833012D01*
X127267007Y-114865925D01*
X127394174Y-114900000D01*
X127525826Y-114900000D01*
X127652993Y-114865925D01*
X127710000Y-114833012D01*
X127710000Y-115730633D01*
X127923483Y-115673433D01*
X127923492Y-115673429D01*
X128137578Y-115573600D01*
X128331082Y-115438105D01*
X128498105Y-115271082D01*
X128633600Y-115077578D01*
X128733429Y-114863492D01*
X128733432Y-114863486D01*
X128790636Y-114650000D01*
X127893012Y-114650000D01*
X127925925Y-114592993D01*
X127960000Y-114465826D01*
X127960000Y-114334174D01*
X127955191Y-114316228D01*
X129149500Y-114316228D01*
X129149500Y-114483771D01*
X129182182Y-114648074D01*
X129182184Y-114648082D01*
X129246295Y-114802860D01*
X129339373Y-114942162D01*
X129457837Y-115060626D01*
X129483208Y-115077578D01*
X129597137Y-115153703D01*
X129751918Y-115217816D01*
X129916228Y-115250499D01*
X129916232Y-115250500D01*
X129916233Y-115250500D01*
X130083768Y-115250500D01*
X130083769Y-115250499D01*
X130248082Y-115217816D01*
X130291093Y-115200000D01*
X134494353Y-115200000D01*
X134514834Y-115342456D01*
X134529545Y-115374668D01*
X134574623Y-115473373D01*
X134668872Y-115582143D01*
X134789947Y-115659953D01*
X134789950Y-115659954D01*
X134789949Y-115659954D01*
X134928036Y-115700499D01*
X134928038Y-115700500D01*
X134928039Y-115700500D01*
X135071962Y-115700500D01*
X135071962Y-115700499D01*
X135210053Y-115659953D01*
X135331128Y-115582143D01*
X135425377Y-115473373D01*
X135485165Y-115342457D01*
X135505647Y-115200000D01*
X135485165Y-115057543D01*
X135425377Y-114926627D01*
X135331128Y-114817857D01*
X135210053Y-114740047D01*
X135210051Y-114740046D01*
X135210049Y-114740045D01*
X135210050Y-114740045D01*
X135071963Y-114699500D01*
X135071961Y-114699500D01*
X134928039Y-114699500D01*
X134928036Y-114699500D01*
X134789949Y-114740045D01*
X134668873Y-114817856D01*
X134574623Y-114926626D01*
X134574622Y-114926628D01*
X134514834Y-115057543D01*
X134494353Y-115200000D01*
X130291093Y-115200000D01*
X130402863Y-115153703D01*
X130542162Y-115060626D01*
X130660626Y-114942162D01*
X130753703Y-114802863D01*
X130817816Y-114648082D01*
X130850500Y-114483767D01*
X130850500Y-114316233D01*
X130817816Y-114151918D01*
X130817021Y-114149999D01*
X137089364Y-114149999D01*
X137089364Y-114150000D01*
X137986988Y-114150000D01*
X137954075Y-114207007D01*
X137920000Y-114334174D01*
X137920000Y-114465826D01*
X137954075Y-114592993D01*
X137986988Y-114650000D01*
X137089364Y-114650000D01*
X137146567Y-114863486D01*
X137146570Y-114863492D01*
X137246399Y-115077578D01*
X137381894Y-115271082D01*
X137548917Y-115438105D01*
X137735031Y-115568425D01*
X137778656Y-115623003D01*
X137785848Y-115692501D01*
X137754326Y-115754856D01*
X137735031Y-115771575D01*
X137548922Y-115901890D01*
X137548920Y-115901891D01*
X137381891Y-116068920D01*
X137381886Y-116068926D01*
X137246400Y-116262420D01*
X137246399Y-116262422D01*
X137146570Y-116476507D01*
X137146567Y-116476513D01*
X137089364Y-116689999D01*
X137089364Y-116690000D01*
X137986988Y-116690000D01*
X137954075Y-116747007D01*
X137920000Y-116874174D01*
X137920000Y-117005826D01*
X137954075Y-117132993D01*
X137986988Y-117190000D01*
X137089364Y-117190000D01*
X137146567Y-117403486D01*
X137146570Y-117403492D01*
X137246399Y-117617578D01*
X137381894Y-117811082D01*
X137548917Y-117978105D01*
X137742421Y-118113600D01*
X137956507Y-118213429D01*
X137956516Y-118213433D01*
X138170000Y-118270634D01*
X138170000Y-117373012D01*
X138227007Y-117405925D01*
X138354174Y-117440000D01*
X138485826Y-117440000D01*
X138612993Y-117405925D01*
X138670000Y-117373012D01*
X138670000Y-118270633D01*
X138883483Y-118213433D01*
X138883492Y-118213429D01*
X139097578Y-118113600D01*
X139291082Y-117978105D01*
X139458105Y-117811082D01*
X139588425Y-117624968D01*
X139643002Y-117581344D01*
X139712501Y-117574151D01*
X139774855Y-117605673D01*
X139791575Y-117624968D01*
X139921894Y-117811082D01*
X140088917Y-117978105D01*
X140282421Y-118113600D01*
X140496507Y-118213429D01*
X140496516Y-118213433D01*
X140710000Y-118270634D01*
X140710000Y-117373012D01*
X140767007Y-117405925D01*
X140894174Y-117440000D01*
X141025826Y-117440000D01*
X141152993Y-117405925D01*
X141210000Y-117373012D01*
X141210000Y-118270633D01*
X141423483Y-118213433D01*
X141423492Y-118213429D01*
X141637578Y-118113600D01*
X141831082Y-117978105D01*
X141998105Y-117811082D01*
X142128425Y-117624968D01*
X142183002Y-117581344D01*
X142252501Y-117574151D01*
X142314855Y-117605673D01*
X142331575Y-117624968D01*
X142461894Y-117811082D01*
X142628917Y-117978105D01*
X142822421Y-118113600D01*
X143036507Y-118213429D01*
X143036516Y-118213433D01*
X143250000Y-118270634D01*
X143250000Y-117373012D01*
X143307007Y-117405925D01*
X143434174Y-117440000D01*
X143565826Y-117440000D01*
X143692993Y-117405925D01*
X143750000Y-117373012D01*
X143750000Y-118270633D01*
X143963483Y-118213433D01*
X143963492Y-118213429D01*
X144177578Y-118113600D01*
X144371082Y-117978105D01*
X144538105Y-117811082D01*
X144673600Y-117617578D01*
X144773429Y-117403492D01*
X144773432Y-117403486D01*
X144830636Y-117190000D01*
X143933012Y-117190000D01*
X143965925Y-117132993D01*
X144000000Y-117005826D01*
X144000000Y-116874174D01*
X143965925Y-116747007D01*
X143933012Y-116690000D01*
X144830636Y-116690000D01*
X144830635Y-116689999D01*
X150589364Y-116689999D01*
X150589364Y-116690000D01*
X151486988Y-116690000D01*
X151454075Y-116747007D01*
X151420000Y-116874174D01*
X151420000Y-117005826D01*
X151454075Y-117132993D01*
X151486988Y-117190000D01*
X150589364Y-117190000D01*
X150646567Y-117403486D01*
X150646570Y-117403492D01*
X150746399Y-117617578D01*
X150881894Y-117811082D01*
X151048917Y-117978105D01*
X151242421Y-118113600D01*
X151456507Y-118213429D01*
X151456516Y-118213433D01*
X151670000Y-118270634D01*
X151670000Y-117373012D01*
X151727007Y-117405925D01*
X151854174Y-117440000D01*
X151985826Y-117440000D01*
X152112993Y-117405925D01*
X152170000Y-117373012D01*
X152170000Y-118270634D01*
X152383483Y-118213433D01*
X152383492Y-118213429D01*
X152597578Y-118113600D01*
X152791082Y-117978105D01*
X152958105Y-117811082D01*
X153088425Y-117624968D01*
X153143002Y-117581344D01*
X153212501Y-117574151D01*
X153274855Y-117605673D01*
X153291575Y-117624968D01*
X153421894Y-117811082D01*
X153588917Y-117978105D01*
X153782421Y-118113600D01*
X153996507Y-118213429D01*
X153996516Y-118213433D01*
X154210000Y-118270634D01*
X154210000Y-117373012D01*
X154267007Y-117405925D01*
X154394174Y-117440000D01*
X154525826Y-117440000D01*
X154652993Y-117405925D01*
X154710000Y-117373012D01*
X154710000Y-118270634D01*
X154923483Y-118213433D01*
X154923492Y-118213429D01*
X155137578Y-118113600D01*
X155331082Y-117978105D01*
X155498105Y-117811082D01*
X155628425Y-117624968D01*
X155683002Y-117581344D01*
X155752501Y-117574151D01*
X155814855Y-117605673D01*
X155831575Y-117624968D01*
X155961894Y-117811082D01*
X156128917Y-117978105D01*
X156322421Y-118113600D01*
X156536507Y-118213429D01*
X156536516Y-118213433D01*
X156750000Y-118270634D01*
X156750000Y-117373012D01*
X156807007Y-117405925D01*
X156934174Y-117440000D01*
X157065826Y-117440000D01*
X157192993Y-117405925D01*
X157250000Y-117373012D01*
X157250000Y-118270634D01*
X157463483Y-118213433D01*
X157463492Y-118213429D01*
X157677578Y-118113600D01*
X157871082Y-117978105D01*
X158038105Y-117811082D01*
X158173600Y-117617578D01*
X158273429Y-117403492D01*
X158273432Y-117403486D01*
X158330636Y-117190000D01*
X157433012Y-117190000D01*
X157465925Y-117132993D01*
X157500000Y-117005826D01*
X157500000Y-116874174D01*
X157465925Y-116747007D01*
X157433012Y-116690000D01*
X158330636Y-116690000D01*
X158330635Y-116689999D01*
X176589364Y-116689999D01*
X176589364Y-116690000D01*
X177486988Y-116690000D01*
X177454075Y-116747007D01*
X177420000Y-116874174D01*
X177420000Y-117005826D01*
X177454075Y-117132993D01*
X177486988Y-117190000D01*
X176589364Y-117190000D01*
X176646567Y-117403486D01*
X176646570Y-117403492D01*
X176746399Y-117617578D01*
X176881894Y-117811082D01*
X177048917Y-117978105D01*
X177242421Y-118113600D01*
X177456507Y-118213429D01*
X177456516Y-118213433D01*
X177670000Y-118270634D01*
X177670000Y-117373012D01*
X177727007Y-117405925D01*
X177854174Y-117440000D01*
X177985826Y-117440000D01*
X178112993Y-117405925D01*
X178170000Y-117373012D01*
X178170000Y-118270633D01*
X178383483Y-118213433D01*
X178383492Y-118213429D01*
X178597578Y-118113600D01*
X178791082Y-117978105D01*
X178958105Y-117811082D01*
X179088425Y-117624968D01*
X179143002Y-117581344D01*
X179212501Y-117574151D01*
X179274855Y-117605673D01*
X179291575Y-117624968D01*
X179421894Y-117811082D01*
X179588917Y-117978105D01*
X179782421Y-118113600D01*
X179996507Y-118213429D01*
X179996516Y-118213433D01*
X180210000Y-118270634D01*
X180210000Y-117373012D01*
X180267007Y-117405925D01*
X180394174Y-117440000D01*
X180525826Y-117440000D01*
X180652993Y-117405925D01*
X180710000Y-117373012D01*
X180710000Y-118270634D01*
X180923483Y-118213433D01*
X180923492Y-118213429D01*
X181137578Y-118113600D01*
X181331082Y-117978105D01*
X181498105Y-117811082D01*
X181628425Y-117624968D01*
X181683002Y-117581344D01*
X181752501Y-117574151D01*
X181814855Y-117605673D01*
X181831575Y-117624968D01*
X181961894Y-117811082D01*
X182128917Y-117978105D01*
X182322421Y-118113600D01*
X182536507Y-118213429D01*
X182536516Y-118213433D01*
X182750000Y-118270634D01*
X182750000Y-117373012D01*
X182807007Y-117405925D01*
X182934174Y-117440000D01*
X183065826Y-117440000D01*
X183192993Y-117405925D01*
X183250000Y-117373012D01*
X183250000Y-118270634D01*
X183463483Y-118213433D01*
X183463492Y-118213429D01*
X183677578Y-118113600D01*
X183871082Y-117978105D01*
X184038105Y-117811082D01*
X184173600Y-117617578D01*
X184273429Y-117403492D01*
X184273432Y-117403486D01*
X184330636Y-117190000D01*
X183433012Y-117190000D01*
X183465925Y-117132993D01*
X183500000Y-117005826D01*
X183500000Y-116874174D01*
X183465925Y-116747007D01*
X183433012Y-116690000D01*
X184330636Y-116690000D01*
X184330635Y-116689999D01*
X184273432Y-116476513D01*
X184273429Y-116476507D01*
X184173600Y-116262422D01*
X184173599Y-116262420D01*
X184038113Y-116068926D01*
X184038108Y-116068920D01*
X183871082Y-115901894D01*
X183677578Y-115766399D01*
X183463492Y-115666570D01*
X183463486Y-115666567D01*
X183250000Y-115609364D01*
X183250000Y-116506988D01*
X183192993Y-116474075D01*
X183065826Y-116440000D01*
X182934174Y-116440000D01*
X182807007Y-116474075D01*
X182750000Y-116506988D01*
X182750000Y-115609364D01*
X182749999Y-115609364D01*
X182536513Y-115666567D01*
X182536507Y-115666570D01*
X182322422Y-115766399D01*
X182322420Y-115766400D01*
X182128926Y-115901886D01*
X182128920Y-115901891D01*
X181961891Y-116068920D01*
X181961890Y-116068922D01*
X181831575Y-116255031D01*
X181776998Y-116298655D01*
X181707499Y-116305848D01*
X181645145Y-116274326D01*
X181628425Y-116255031D01*
X181498109Y-116068922D01*
X181498108Y-116068920D01*
X181331082Y-115901894D01*
X181144968Y-115771575D01*
X181101344Y-115716998D01*
X181094151Y-115647499D01*
X181125673Y-115585145D01*
X181144968Y-115568425D01*
X181331082Y-115438105D01*
X181498105Y-115271082D01*
X181633600Y-115077578D01*
X181733429Y-114863492D01*
X181733432Y-114863486D01*
X181790636Y-114650000D01*
X180893012Y-114650000D01*
X180925925Y-114592993D01*
X180960000Y-114465826D01*
X180960000Y-114334174D01*
X180955191Y-114316228D01*
X182149500Y-114316228D01*
X182149500Y-114483771D01*
X182182182Y-114648074D01*
X182182184Y-114648082D01*
X182246295Y-114802860D01*
X182339373Y-114942162D01*
X182457837Y-115060626D01*
X182483208Y-115077578D01*
X182597137Y-115153703D01*
X182751918Y-115217816D01*
X182916228Y-115250499D01*
X182916232Y-115250500D01*
X182916233Y-115250500D01*
X183083768Y-115250500D01*
X183083769Y-115250499D01*
X183248082Y-115217816D01*
X183402863Y-115153703D01*
X183542162Y-115060626D01*
X183660626Y-114942162D01*
X183753703Y-114802863D01*
X183817816Y-114648082D01*
X183850500Y-114483767D01*
X183850500Y-114316233D01*
X183817816Y-114151918D01*
X183754889Y-114000000D01*
X183753704Y-113997139D01*
X183660626Y-113857837D01*
X183542162Y-113739373D01*
X183402860Y-113646295D01*
X183248082Y-113582184D01*
X183248074Y-113582182D01*
X183083771Y-113549500D01*
X183083767Y-113549500D01*
X182916233Y-113549500D01*
X182916228Y-113549500D01*
X182751925Y-113582182D01*
X182751917Y-113582184D01*
X182597139Y-113646295D01*
X182457837Y-113739373D01*
X182339373Y-113857837D01*
X182246295Y-113997139D01*
X182182184Y-114151917D01*
X182182182Y-114151925D01*
X182149500Y-114316228D01*
X180955191Y-114316228D01*
X180925925Y-114207007D01*
X180893012Y-114150000D01*
X181790636Y-114150000D01*
X181790635Y-114149999D01*
X181733432Y-113936513D01*
X181733429Y-113936507D01*
X181633600Y-113722422D01*
X181633599Y-113722420D01*
X181498113Y-113528926D01*
X181498108Y-113528920D01*
X181331082Y-113361894D01*
X181137578Y-113226399D01*
X180923492Y-113126570D01*
X180923486Y-113126567D01*
X180710000Y-113069364D01*
X180710000Y-113966988D01*
X180652993Y-113934075D01*
X180525826Y-113900000D01*
X180394174Y-113900000D01*
X180267007Y-113934075D01*
X180210000Y-113966988D01*
X180210000Y-113069364D01*
X180209999Y-113069364D01*
X179996513Y-113126567D01*
X179996507Y-113126570D01*
X179782422Y-113226399D01*
X179782420Y-113226400D01*
X179588926Y-113361886D01*
X179588920Y-113361891D01*
X179421891Y-113528920D01*
X179421886Y-113528926D01*
X179286400Y-113722420D01*
X179286399Y-113722422D01*
X179186570Y-113936507D01*
X179186567Y-113936513D01*
X179129364Y-114149999D01*
X179129364Y-114150000D01*
X180026988Y-114150000D01*
X179994075Y-114207007D01*
X179960000Y-114334174D01*
X179960000Y-114465826D01*
X179994075Y-114592993D01*
X180026988Y-114650000D01*
X179129364Y-114650000D01*
X179186567Y-114863486D01*
X179186570Y-114863492D01*
X179286399Y-115077578D01*
X179421894Y-115271082D01*
X179588917Y-115438105D01*
X179775031Y-115568425D01*
X179818656Y-115623003D01*
X179825848Y-115692501D01*
X179794326Y-115754856D01*
X179775031Y-115771575D01*
X179588922Y-115901890D01*
X179588920Y-115901891D01*
X179421891Y-116068920D01*
X179421890Y-116068922D01*
X179291575Y-116255031D01*
X179236998Y-116298655D01*
X179167499Y-116305848D01*
X179105145Y-116274326D01*
X179088425Y-116255031D01*
X178958109Y-116068922D01*
X178958108Y-116068920D01*
X178791082Y-115901894D01*
X178597578Y-115766399D01*
X178383492Y-115666570D01*
X178383486Y-115666567D01*
X178170000Y-115609364D01*
X178170000Y-116506988D01*
X178112993Y-116474075D01*
X177985826Y-116440000D01*
X177854174Y-116440000D01*
X177727007Y-116474075D01*
X177670000Y-116506988D01*
X177670000Y-115609364D01*
X177669999Y-115609364D01*
X177456513Y-115666567D01*
X177456507Y-115666570D01*
X177242422Y-115766399D01*
X177242420Y-115766400D01*
X177048926Y-115901886D01*
X177048920Y-115901891D01*
X176881891Y-116068920D01*
X176881886Y-116068926D01*
X176746400Y-116262420D01*
X176746399Y-116262422D01*
X176646570Y-116476507D01*
X176646567Y-116476513D01*
X176589364Y-116689999D01*
X158330635Y-116689999D01*
X158273432Y-116476513D01*
X158273429Y-116476507D01*
X158173600Y-116262422D01*
X158173599Y-116262420D01*
X158038113Y-116068926D01*
X158038108Y-116068920D01*
X157871082Y-115901894D01*
X157677578Y-115766399D01*
X157463492Y-115666570D01*
X157463486Y-115666567D01*
X157250000Y-115609364D01*
X157250000Y-116506988D01*
X157192993Y-116474075D01*
X157065826Y-116440000D01*
X156934174Y-116440000D01*
X156807007Y-116474075D01*
X156750000Y-116506988D01*
X156750000Y-115609364D01*
X156749999Y-115609364D01*
X156536513Y-115666567D01*
X156536507Y-115666570D01*
X156322422Y-115766399D01*
X156322420Y-115766400D01*
X156128926Y-115901886D01*
X156128920Y-115901891D01*
X155961891Y-116068920D01*
X155961890Y-116068922D01*
X155831575Y-116255031D01*
X155776998Y-116298655D01*
X155707499Y-116305848D01*
X155645145Y-116274326D01*
X155628425Y-116255031D01*
X155498109Y-116068922D01*
X155498108Y-116068920D01*
X155331082Y-115901894D01*
X155144968Y-115771575D01*
X155101344Y-115716998D01*
X155094151Y-115647499D01*
X155125673Y-115585145D01*
X155144968Y-115568425D01*
X155331082Y-115438105D01*
X155498105Y-115271082D01*
X155633600Y-115077578D01*
X155733429Y-114863492D01*
X155733432Y-114863486D01*
X155790636Y-114650000D01*
X154893012Y-114650000D01*
X154925925Y-114592993D01*
X154960000Y-114465826D01*
X154960000Y-114334174D01*
X154955191Y-114316228D01*
X156149500Y-114316228D01*
X156149500Y-114483771D01*
X156182182Y-114648074D01*
X156182184Y-114648082D01*
X156246295Y-114802860D01*
X156339373Y-114942162D01*
X156457837Y-115060626D01*
X156483208Y-115077578D01*
X156597137Y-115153703D01*
X156751918Y-115217816D01*
X156916228Y-115250499D01*
X156916232Y-115250500D01*
X156916233Y-115250500D01*
X157083768Y-115250500D01*
X157083769Y-115250499D01*
X157248082Y-115217816D01*
X157402863Y-115153703D01*
X157542162Y-115060626D01*
X157660626Y-114942162D01*
X157753703Y-114802863D01*
X157817816Y-114648082D01*
X157847271Y-114500000D01*
X165394353Y-114500000D01*
X165414834Y-114642456D01*
X165440886Y-114699500D01*
X165474623Y-114773373D01*
X165568872Y-114882143D01*
X165689947Y-114959953D01*
X165689950Y-114959954D01*
X165689949Y-114959954D01*
X165797107Y-114991417D01*
X165826336Y-115000000D01*
X165828036Y-115000499D01*
X165828038Y-115000500D01*
X165828039Y-115000500D01*
X165971962Y-115000500D01*
X165971962Y-115000499D01*
X166110053Y-114959953D01*
X166231128Y-114882143D01*
X166325377Y-114773373D01*
X166385165Y-114642457D01*
X166405647Y-114500000D01*
X166385165Y-114357543D01*
X166325377Y-114226627D01*
X166231128Y-114117857D01*
X166110053Y-114040047D01*
X166110051Y-114040046D01*
X166110049Y-114040045D01*
X166110050Y-114040045D01*
X165971963Y-113999500D01*
X165971961Y-113999500D01*
X165828039Y-113999500D01*
X165828036Y-113999500D01*
X165689949Y-114040045D01*
X165568873Y-114117856D01*
X165474623Y-114226626D01*
X165474622Y-114226628D01*
X165414834Y-114357543D01*
X165394353Y-114500000D01*
X157847271Y-114500000D01*
X157850500Y-114483767D01*
X157850500Y-114316233D01*
X157817816Y-114151918D01*
X157754889Y-114000000D01*
X157753704Y-113997139D01*
X157705503Y-113925000D01*
X167494353Y-113925000D01*
X167514834Y-114067456D01*
X167574622Y-114198371D01*
X167574623Y-114198373D01*
X167668872Y-114307143D01*
X167789947Y-114384953D01*
X167789950Y-114384954D01*
X167789949Y-114384954D01*
X167928036Y-114425499D01*
X167928038Y-114425500D01*
X167928039Y-114425500D01*
X168071962Y-114425500D01*
X168071962Y-114425499D01*
X168210053Y-114384953D01*
X168331128Y-114307143D01*
X168425377Y-114198373D01*
X168485165Y-114067457D01*
X168494864Y-114000000D01*
X169744750Y-114000000D01*
X169760266Y-114117857D01*
X169763670Y-114143708D01*
X169763671Y-114143712D01*
X169819137Y-114277622D01*
X169819138Y-114277624D01*
X169819139Y-114277625D01*
X169907379Y-114392621D01*
X170022375Y-114480861D01*
X170022376Y-114480861D01*
X170022377Y-114480862D01*
X170029393Y-114483768D01*
X170156291Y-114536330D01*
X170283280Y-114553048D01*
X170299999Y-114555250D01*
X170300000Y-114555250D01*
X170300001Y-114555250D01*
X170314977Y-114553278D01*
X170443709Y-114536330D01*
X170577625Y-114480861D01*
X170692621Y-114392621D01*
X170751240Y-114316228D01*
X177069500Y-114316228D01*
X177069500Y-114483771D01*
X177102182Y-114648074D01*
X177102184Y-114648082D01*
X177166295Y-114802860D01*
X177259373Y-114942162D01*
X177377837Y-115060626D01*
X177403208Y-115077578D01*
X177517137Y-115153703D01*
X177671918Y-115217816D01*
X177836228Y-115250499D01*
X177836232Y-115250500D01*
X177836233Y-115250500D01*
X178003768Y-115250500D01*
X178003769Y-115250499D01*
X178168082Y-115217816D01*
X178322863Y-115153703D01*
X178462162Y-115060626D01*
X178580626Y-114942162D01*
X178673703Y-114802863D01*
X178737816Y-114648082D01*
X178770500Y-114483767D01*
X178770500Y-114316233D01*
X178737816Y-114151918D01*
X178674889Y-114000000D01*
X178673704Y-113997139D01*
X178580626Y-113857837D01*
X178462162Y-113739373D01*
X178322860Y-113646295D01*
X178168082Y-113582184D01*
X178168074Y-113582182D01*
X178003771Y-113549500D01*
X178003767Y-113549500D01*
X177836233Y-113549500D01*
X177836228Y-113549500D01*
X177671925Y-113582182D01*
X177671917Y-113582184D01*
X177517139Y-113646295D01*
X177377837Y-113739373D01*
X177259373Y-113857837D01*
X177166295Y-113997139D01*
X177102184Y-114151917D01*
X177102182Y-114151925D01*
X177069500Y-114316228D01*
X170751240Y-114316228D01*
X170780861Y-114277625D01*
X170836330Y-114143709D01*
X170855250Y-114000000D01*
X170836330Y-113856291D01*
X170787902Y-113739373D01*
X170780862Y-113722377D01*
X170780861Y-113722376D01*
X170780861Y-113722375D01*
X170692621Y-113607379D01*
X170577625Y-113519139D01*
X170577624Y-113519138D01*
X170577622Y-113519137D01*
X170443712Y-113463671D01*
X170443710Y-113463670D01*
X170443709Y-113463670D01*
X170371854Y-113454210D01*
X170300001Y-113444750D01*
X170299999Y-113444750D01*
X170156291Y-113463670D01*
X170156287Y-113463671D01*
X170022377Y-113519137D01*
X169907379Y-113607379D01*
X169819137Y-113722377D01*
X169763671Y-113856287D01*
X169763670Y-113856291D01*
X169744750Y-114000000D01*
X168494864Y-114000000D01*
X168505647Y-113925000D01*
X168485165Y-113782543D01*
X168425377Y-113651627D01*
X168331128Y-113542857D01*
X168210053Y-113465047D01*
X168210051Y-113465046D01*
X168210049Y-113465045D01*
X168210050Y-113465045D01*
X168071963Y-113424500D01*
X168071961Y-113424500D01*
X167928039Y-113424500D01*
X167928036Y-113424500D01*
X167789949Y-113465045D01*
X167668873Y-113542856D01*
X167574623Y-113651626D01*
X167574622Y-113651628D01*
X167514834Y-113782543D01*
X167494353Y-113925000D01*
X157705503Y-113925000D01*
X157660626Y-113857837D01*
X157542162Y-113739373D01*
X157402860Y-113646295D01*
X157248082Y-113582184D01*
X157248074Y-113582182D01*
X157083771Y-113549500D01*
X157083767Y-113549500D01*
X156916233Y-113549500D01*
X156916228Y-113549500D01*
X156751925Y-113582182D01*
X156751917Y-113582184D01*
X156597139Y-113646295D01*
X156457837Y-113739373D01*
X156339373Y-113857837D01*
X156246295Y-113997139D01*
X156182184Y-114151917D01*
X156182182Y-114151925D01*
X156149500Y-114316228D01*
X154955191Y-114316228D01*
X154925925Y-114207007D01*
X154893012Y-114150000D01*
X155790636Y-114150000D01*
X155790635Y-114149999D01*
X155733432Y-113936513D01*
X155733429Y-113936507D01*
X155633600Y-113722422D01*
X155633599Y-113722420D01*
X155498113Y-113528926D01*
X155498108Y-113528920D01*
X155331082Y-113361894D01*
X155137578Y-113226399D01*
X155080965Y-113200000D01*
X163794353Y-113200000D01*
X163814834Y-113342456D01*
X163874622Y-113473371D01*
X163874623Y-113473373D01*
X163968872Y-113582143D01*
X164089947Y-113659953D01*
X164089950Y-113659954D01*
X164089949Y-113659954D01*
X164228036Y-113700499D01*
X164228038Y-113700500D01*
X164228039Y-113700500D01*
X164371962Y-113700500D01*
X164371962Y-113700499D01*
X164510053Y-113659953D01*
X164631128Y-113582143D01*
X164725377Y-113473373D01*
X164785165Y-113342457D01*
X164805647Y-113200000D01*
X164785165Y-113057543D01*
X164725377Y-112926627D01*
X164631128Y-112817857D01*
X164510053Y-112740047D01*
X164510051Y-112740046D01*
X164510049Y-112740045D01*
X164510050Y-112740045D01*
X164371963Y-112699500D01*
X164371961Y-112699500D01*
X164228039Y-112699500D01*
X164228036Y-112699500D01*
X164089949Y-112740045D01*
X163968873Y-112817856D01*
X163874623Y-112926626D01*
X163874622Y-112926628D01*
X163814834Y-113057543D01*
X163794353Y-113200000D01*
X155080965Y-113200000D01*
X154923492Y-113126570D01*
X154923486Y-113126567D01*
X154710000Y-113069364D01*
X154710000Y-113966988D01*
X154652993Y-113934075D01*
X154525826Y-113900000D01*
X154394174Y-113900000D01*
X154267007Y-113934075D01*
X154210000Y-113966988D01*
X154210000Y-113069364D01*
X154209999Y-113069364D01*
X153996513Y-113126567D01*
X153996507Y-113126570D01*
X153782422Y-113226399D01*
X153782420Y-113226400D01*
X153588926Y-113361886D01*
X153588920Y-113361891D01*
X153421891Y-113528920D01*
X153421886Y-113528926D01*
X153286400Y-113722420D01*
X153286399Y-113722422D01*
X153186570Y-113936507D01*
X153186567Y-113936513D01*
X153129364Y-114149999D01*
X153129364Y-114150000D01*
X154026988Y-114150000D01*
X153994075Y-114207007D01*
X153960000Y-114334174D01*
X153960000Y-114465826D01*
X153994075Y-114592993D01*
X154026988Y-114650000D01*
X153129364Y-114650000D01*
X153186567Y-114863486D01*
X153186570Y-114863492D01*
X153286399Y-115077578D01*
X153421894Y-115271082D01*
X153588917Y-115438105D01*
X153775031Y-115568425D01*
X153818656Y-115623003D01*
X153825848Y-115692501D01*
X153794326Y-115754856D01*
X153775031Y-115771575D01*
X153588922Y-115901890D01*
X153588920Y-115901891D01*
X153421891Y-116068920D01*
X153421890Y-116068922D01*
X153291575Y-116255031D01*
X153236998Y-116298655D01*
X153167499Y-116305848D01*
X153105145Y-116274326D01*
X153088425Y-116255031D01*
X152958109Y-116068922D01*
X152958108Y-116068920D01*
X152791082Y-115901894D01*
X152597578Y-115766399D01*
X152383492Y-115666570D01*
X152383486Y-115666567D01*
X152170000Y-115609364D01*
X152170000Y-116506988D01*
X152112993Y-116474075D01*
X151985826Y-116440000D01*
X151854174Y-116440000D01*
X151727007Y-116474075D01*
X151670000Y-116506988D01*
X151670000Y-115609364D01*
X151669999Y-115609364D01*
X151456513Y-115666567D01*
X151456507Y-115666570D01*
X151242422Y-115766399D01*
X151242420Y-115766400D01*
X151048926Y-115901886D01*
X151048920Y-115901891D01*
X150881891Y-116068920D01*
X150881886Y-116068926D01*
X150746400Y-116262420D01*
X150746399Y-116262422D01*
X150646570Y-116476507D01*
X150646567Y-116476513D01*
X150589364Y-116689999D01*
X144830635Y-116689999D01*
X144773432Y-116476513D01*
X144773429Y-116476507D01*
X144673600Y-116262422D01*
X144673599Y-116262420D01*
X144538113Y-116068926D01*
X144538108Y-116068920D01*
X144415665Y-115946477D01*
X144382180Y-115885154D01*
X144387164Y-115815462D01*
X144429036Y-115759529D01*
X144460013Y-115742614D01*
X144592086Y-115693354D01*
X144592093Y-115693350D01*
X144707187Y-115607190D01*
X144707190Y-115607187D01*
X144793350Y-115492093D01*
X144793354Y-115492086D01*
X144843596Y-115357379D01*
X144843598Y-115357372D01*
X144849999Y-115297844D01*
X144850000Y-115297827D01*
X144850000Y-114650000D01*
X143933012Y-114650000D01*
X143965925Y-114592993D01*
X144000000Y-114465826D01*
X144000000Y-114334174D01*
X143995191Y-114316228D01*
X151069500Y-114316228D01*
X151069500Y-114483771D01*
X151102182Y-114648074D01*
X151102184Y-114648082D01*
X151166295Y-114802860D01*
X151259373Y-114942162D01*
X151377837Y-115060626D01*
X151403208Y-115077578D01*
X151517137Y-115153703D01*
X151671918Y-115217816D01*
X151836228Y-115250499D01*
X151836232Y-115250500D01*
X151836233Y-115250500D01*
X152003768Y-115250500D01*
X152003769Y-115250499D01*
X152168082Y-115217816D01*
X152322863Y-115153703D01*
X152462162Y-115060626D01*
X152580626Y-114942162D01*
X152673703Y-114802863D01*
X152737816Y-114648082D01*
X152770500Y-114483767D01*
X152770500Y-114316233D01*
X152737816Y-114151918D01*
X152674889Y-114000000D01*
X152673704Y-113997139D01*
X152580626Y-113857837D01*
X152462162Y-113739373D01*
X152322860Y-113646295D01*
X152168082Y-113582184D01*
X152168074Y-113582182D01*
X152003771Y-113549500D01*
X152003767Y-113549500D01*
X151836233Y-113549500D01*
X151836228Y-113549500D01*
X151671925Y-113582182D01*
X151671917Y-113582184D01*
X151517139Y-113646295D01*
X151377837Y-113739373D01*
X151259373Y-113857837D01*
X151166295Y-113997139D01*
X151102184Y-114151917D01*
X151102182Y-114151925D01*
X151069500Y-114316228D01*
X143995191Y-114316228D01*
X143965925Y-114207007D01*
X143933012Y-114150000D01*
X144850000Y-114150000D01*
X144850000Y-113502172D01*
X144849999Y-113502155D01*
X144843598Y-113442627D01*
X144843596Y-113442620D01*
X144793354Y-113307913D01*
X144793350Y-113307906D01*
X144707190Y-113192812D01*
X144707187Y-113192809D01*
X144592093Y-113106649D01*
X144592086Y-113106645D01*
X144457379Y-113056403D01*
X144457372Y-113056401D01*
X144397844Y-113050000D01*
X143750000Y-113050000D01*
X143750000Y-113966988D01*
X143692993Y-113934075D01*
X143565826Y-113900000D01*
X143434174Y-113900000D01*
X143307007Y-113934075D01*
X143250000Y-113966988D01*
X143250000Y-113050000D01*
X142602155Y-113050000D01*
X142542627Y-113056401D01*
X142542620Y-113056403D01*
X142407913Y-113106645D01*
X142407906Y-113106649D01*
X142292812Y-113192809D01*
X142292809Y-113192812D01*
X142206649Y-113307906D01*
X142206645Y-113307913D01*
X142156403Y-113442620D01*
X142156401Y-113442627D01*
X142150000Y-113502155D01*
X142150000Y-114150000D01*
X143066988Y-114150000D01*
X143034075Y-114207007D01*
X143000000Y-114334174D01*
X143000000Y-114465826D01*
X143034075Y-114592993D01*
X143066988Y-114650000D01*
X142150000Y-114650000D01*
X142150000Y-115297844D01*
X142156401Y-115357372D01*
X142156403Y-115357379D01*
X142206645Y-115492086D01*
X142206649Y-115492093D01*
X142292809Y-115607187D01*
X142292812Y-115607190D01*
X142407906Y-115693350D01*
X142407913Y-115693354D01*
X142539986Y-115742614D01*
X142595920Y-115784485D01*
X142620337Y-115849949D01*
X142605486Y-115918222D01*
X142584335Y-115946477D01*
X142461888Y-116068924D01*
X142331575Y-116255031D01*
X142276998Y-116298655D01*
X142207499Y-116305848D01*
X142145145Y-116274326D01*
X142128425Y-116255031D01*
X141998109Y-116068922D01*
X141998108Y-116068920D01*
X141831082Y-115901894D01*
X141637578Y-115766399D01*
X141423492Y-115666570D01*
X141423486Y-115666567D01*
X141210000Y-115609364D01*
X141210000Y-116506988D01*
X141152993Y-116474075D01*
X141025826Y-116440000D01*
X140894174Y-116440000D01*
X140767007Y-116474075D01*
X140710000Y-116506988D01*
X140710000Y-115609364D01*
X140709999Y-115609364D01*
X140496513Y-115666567D01*
X140496507Y-115666570D01*
X140282422Y-115766399D01*
X140282420Y-115766400D01*
X140088926Y-115901886D01*
X140088920Y-115901891D01*
X139921891Y-116068920D01*
X139921890Y-116068922D01*
X139791575Y-116255031D01*
X139736998Y-116298655D01*
X139667499Y-116305848D01*
X139605145Y-116274326D01*
X139588425Y-116255031D01*
X139458109Y-116068922D01*
X139458108Y-116068920D01*
X139291082Y-115901894D01*
X139104968Y-115771575D01*
X139061344Y-115716998D01*
X139054151Y-115647499D01*
X139085673Y-115585145D01*
X139104968Y-115568425D01*
X139291082Y-115438105D01*
X139458105Y-115271082D01*
X139593600Y-115077578D01*
X139693429Y-114863492D01*
X139693432Y-114863486D01*
X139750636Y-114650000D01*
X138853012Y-114650000D01*
X138885925Y-114592993D01*
X138920000Y-114465826D01*
X138920000Y-114334174D01*
X138915191Y-114316228D01*
X140109500Y-114316228D01*
X140109500Y-114483771D01*
X140142182Y-114648074D01*
X140142184Y-114648082D01*
X140206295Y-114802860D01*
X140299373Y-114942162D01*
X140417837Y-115060626D01*
X140443208Y-115077578D01*
X140557137Y-115153703D01*
X140711918Y-115217816D01*
X140876228Y-115250499D01*
X140876232Y-115250500D01*
X140876233Y-115250500D01*
X141043768Y-115250500D01*
X141043769Y-115250499D01*
X141208082Y-115217816D01*
X141362863Y-115153703D01*
X141502162Y-115060626D01*
X141620626Y-114942162D01*
X141713703Y-114802863D01*
X141777816Y-114648082D01*
X141810500Y-114483767D01*
X141810500Y-114316233D01*
X141777816Y-114151918D01*
X141714889Y-114000000D01*
X141713704Y-113997139D01*
X141620626Y-113857837D01*
X141502162Y-113739373D01*
X141362860Y-113646295D01*
X141208082Y-113582184D01*
X141208074Y-113582182D01*
X141043771Y-113549500D01*
X141043767Y-113549500D01*
X140876233Y-113549500D01*
X140876228Y-113549500D01*
X140711925Y-113582182D01*
X140711917Y-113582184D01*
X140557139Y-113646295D01*
X140417837Y-113739373D01*
X140299373Y-113857837D01*
X140206295Y-113997139D01*
X140142184Y-114151917D01*
X140142182Y-114151925D01*
X140109500Y-114316228D01*
X138915191Y-114316228D01*
X138885925Y-114207007D01*
X138853012Y-114150000D01*
X139750636Y-114150000D01*
X139750635Y-114149999D01*
X139693432Y-113936513D01*
X139693429Y-113936507D01*
X139593600Y-113722422D01*
X139593599Y-113722420D01*
X139458113Y-113528926D01*
X139458108Y-113528920D01*
X139291082Y-113361894D01*
X139097578Y-113226399D01*
X138883492Y-113126570D01*
X138883486Y-113126567D01*
X138670000Y-113069364D01*
X138670000Y-113966988D01*
X138612993Y-113934075D01*
X138485826Y-113900000D01*
X138354174Y-113900000D01*
X138227007Y-113934075D01*
X138170000Y-113966988D01*
X138170000Y-113069364D01*
X138169999Y-113069364D01*
X137956513Y-113126567D01*
X137956507Y-113126570D01*
X137742422Y-113226399D01*
X137742420Y-113226400D01*
X137548926Y-113361886D01*
X137548920Y-113361891D01*
X137381891Y-113528920D01*
X137381886Y-113528926D01*
X137246400Y-113722420D01*
X137246399Y-113722422D01*
X137146570Y-113936507D01*
X137146567Y-113936513D01*
X137089364Y-114149999D01*
X130817021Y-114149999D01*
X130754889Y-114000000D01*
X130753704Y-113997139D01*
X130660626Y-113857837D01*
X130542162Y-113739373D01*
X130402860Y-113646295D01*
X130248082Y-113582184D01*
X130248074Y-113582182D01*
X130083771Y-113549500D01*
X130083767Y-113549500D01*
X129916233Y-113549500D01*
X129916228Y-113549500D01*
X129751925Y-113582182D01*
X129751917Y-113582184D01*
X129597139Y-113646295D01*
X129457837Y-113739373D01*
X129339373Y-113857837D01*
X129246295Y-113997139D01*
X129182184Y-114151917D01*
X129182182Y-114151925D01*
X129149500Y-114316228D01*
X127955191Y-114316228D01*
X127925925Y-114207007D01*
X127893012Y-114150000D01*
X128790636Y-114150000D01*
X128790635Y-114149999D01*
X128733432Y-113936513D01*
X128733429Y-113936507D01*
X128633600Y-113722422D01*
X128633599Y-113722420D01*
X128498113Y-113528926D01*
X128498108Y-113528920D01*
X128331082Y-113361894D01*
X128137578Y-113226399D01*
X127923492Y-113126570D01*
X127923486Y-113126567D01*
X127710000Y-113069364D01*
X127710000Y-113966988D01*
X127652993Y-113934075D01*
X127525826Y-113900000D01*
X127394174Y-113900000D01*
X127267007Y-113934075D01*
X127210000Y-113966988D01*
X127210000Y-113069364D01*
X127209999Y-113069364D01*
X126996513Y-113126567D01*
X126996507Y-113126570D01*
X126782422Y-113226399D01*
X126782420Y-113226400D01*
X126588926Y-113361886D01*
X126588920Y-113361891D01*
X126421891Y-113528920D01*
X126421890Y-113528922D01*
X126291575Y-113715031D01*
X126236998Y-113758655D01*
X126167499Y-113765848D01*
X126105145Y-113734326D01*
X126088425Y-113715031D01*
X125958109Y-113528922D01*
X125958108Y-113528920D01*
X125791082Y-113361894D01*
X125597578Y-113226399D01*
X125383492Y-113126570D01*
X125383486Y-113126567D01*
X125170000Y-113069364D01*
X125170000Y-113966988D01*
X125112993Y-113934075D01*
X124985826Y-113900000D01*
X124854174Y-113900000D01*
X124727007Y-113934075D01*
X124670000Y-113966988D01*
X124670000Y-113069364D01*
X124669999Y-113069364D01*
X124456513Y-113126567D01*
X124456507Y-113126570D01*
X124242422Y-113226399D01*
X124242420Y-113226400D01*
X124048926Y-113361886D01*
X124048920Y-113361891D01*
X123881891Y-113528920D01*
X123881886Y-113528926D01*
X123746400Y-113722420D01*
X123746399Y-113722422D01*
X123646570Y-113936507D01*
X123646567Y-113936513D01*
X123589364Y-114149999D01*
X108602765Y-114149999D01*
X108523737Y-113855063D01*
X108384755Y-113493005D01*
X108208689Y-113147456D01*
X107997468Y-112822206D01*
X107788904Y-112564649D01*
X107788903Y-112564648D01*
X106294251Y-114059300D01*
X106220412Y-113957670D01*
X106042330Y-113779588D01*
X105940698Y-113705748D01*
X107435350Y-112211096D01*
X107435350Y-112211095D01*
X107177793Y-112002531D01*
X107173896Y-112000000D01*
X170094353Y-112000000D01*
X170114834Y-112142456D01*
X170174622Y-112273371D01*
X170174623Y-112273373D01*
X170268872Y-112382143D01*
X170389947Y-112459953D01*
X170389950Y-112459954D01*
X170389949Y-112459954D01*
X170528036Y-112500499D01*
X170528038Y-112500500D01*
X170528039Y-112500500D01*
X170671962Y-112500500D01*
X170671962Y-112500499D01*
X170810053Y-112459953D01*
X170931128Y-112382143D01*
X171025377Y-112273373D01*
X171085165Y-112142457D01*
X171105647Y-112000000D01*
X171085165Y-111857543D01*
X171025377Y-111726627D01*
X170931128Y-111617857D01*
X170810053Y-111540047D01*
X170810051Y-111540046D01*
X170810049Y-111540045D01*
X170810050Y-111540045D01*
X170671963Y-111499500D01*
X170671961Y-111499500D01*
X170528039Y-111499500D01*
X170528036Y-111499500D01*
X170389949Y-111540045D01*
X170268873Y-111617856D01*
X170174623Y-111726626D01*
X170174622Y-111726628D01*
X170114834Y-111857543D01*
X170094353Y-112000000D01*
X107173896Y-112000000D01*
X106852543Y-111791310D01*
X106506994Y-111615244D01*
X106144936Y-111476262D01*
X105860321Y-111400000D01*
X116294353Y-111400000D01*
X116314834Y-111542456D01*
X116348076Y-111615244D01*
X116374623Y-111673373D01*
X116468872Y-111782143D01*
X116589947Y-111859953D01*
X116589950Y-111859954D01*
X116589949Y-111859954D01*
X116728036Y-111900499D01*
X116728038Y-111900500D01*
X116728039Y-111900500D01*
X116871962Y-111900500D01*
X116871962Y-111900499D01*
X117010053Y-111859953D01*
X117131128Y-111782143D01*
X117225377Y-111673373D01*
X117285165Y-111542457D01*
X117305647Y-111400000D01*
X117285165Y-111257543D01*
X117225377Y-111126627D01*
X117131128Y-111017857D01*
X117010053Y-110940047D01*
X117010051Y-110940046D01*
X117010049Y-110940045D01*
X117010050Y-110940045D01*
X116871963Y-110899500D01*
X116871961Y-110899500D01*
X116728039Y-110899500D01*
X116728036Y-110899500D01*
X116589949Y-110940045D01*
X116468873Y-111017856D01*
X116374623Y-111126626D01*
X116374622Y-111126628D01*
X116314834Y-111257543D01*
X116294353Y-111400000D01*
X105860321Y-111400000D01*
X105770330Y-111375887D01*
X105770323Y-111375886D01*
X105387287Y-111315219D01*
X105000001Y-111294922D01*
X104999999Y-111294922D01*
X104612712Y-111315219D01*
X104229676Y-111375886D01*
X104229669Y-111375887D01*
X103855063Y-111476262D01*
X103493005Y-111615244D01*
X103147456Y-111791310D01*
X102822206Y-112002531D01*
X102564648Y-112211095D01*
X102564648Y-112211096D01*
X104059301Y-113705748D01*
X103957670Y-113779588D01*
X103779588Y-113957670D01*
X103705748Y-114059300D01*
X102211096Y-112564648D01*
X102211095Y-112564648D01*
X102002531Y-112822206D01*
X101791310Y-113147456D01*
X101615244Y-113493005D01*
X101540264Y-113688335D01*
X101497862Y-113743867D01*
X101432168Y-113767660D01*
X101364039Y-113752158D01*
X101315107Y-113702285D01*
X101300500Y-113643897D01*
X101300500Y-110700000D01*
X126294353Y-110700000D01*
X126314834Y-110842456D01*
X126340886Y-110899500D01*
X126374623Y-110973373D01*
X126468872Y-111082143D01*
X126589947Y-111159953D01*
X126589950Y-111159954D01*
X126589949Y-111159954D01*
X126728036Y-111200499D01*
X126728038Y-111200500D01*
X126728039Y-111200500D01*
X126871962Y-111200500D01*
X126871962Y-111200499D01*
X127010053Y-111159953D01*
X127131128Y-111082143D01*
X127225377Y-110973373D01*
X127285165Y-110842457D01*
X127305647Y-110700000D01*
X127285165Y-110557543D01*
X127225377Y-110426627D01*
X127131128Y-110317857D01*
X127010053Y-110240047D01*
X127010051Y-110240046D01*
X127010049Y-110240045D01*
X127010050Y-110240045D01*
X126871963Y-110199500D01*
X126871961Y-110199500D01*
X126728039Y-110199500D01*
X126728036Y-110199500D01*
X126589949Y-110240045D01*
X126468873Y-110317856D01*
X126374623Y-110426626D01*
X126374622Y-110426628D01*
X126314834Y-110557543D01*
X126294353Y-110700000D01*
X101300500Y-110700000D01*
X101300500Y-108570000D01*
X102420138Y-108570000D01*
X103223012Y-108570000D01*
X103205795Y-108579940D01*
X103149940Y-108635795D01*
X103110444Y-108704204D01*
X103090000Y-108780504D01*
X103090000Y-108859496D01*
X103110444Y-108935796D01*
X103149940Y-109004205D01*
X103205795Y-109060060D01*
X103223012Y-109070000D01*
X102420138Y-109070000D01*
X102428430Y-109111690D01*
X102428430Y-109111692D01*
X102503807Y-109293671D01*
X102503814Y-109293684D01*
X102613248Y-109457462D01*
X102613251Y-109457466D01*
X102752533Y-109596748D01*
X102752537Y-109596751D01*
X102916315Y-109706185D01*
X102916328Y-109706192D01*
X103098306Y-109781569D01*
X103098318Y-109781572D01*
X103291504Y-109819999D01*
X103291508Y-109820000D01*
X103440000Y-109820000D01*
X103440000Y-109120000D01*
X103940000Y-109120000D01*
X103940000Y-109820000D01*
X104088492Y-109820000D01*
X104088495Y-109819999D01*
X104281681Y-109781572D01*
X104281693Y-109781569D01*
X104463671Y-109706192D01*
X104463684Y-109706185D01*
X104627462Y-109596751D01*
X104627466Y-109596748D01*
X104766748Y-109457466D01*
X104766751Y-109457462D01*
X104876185Y-109293684D01*
X104876192Y-109293671D01*
X104951569Y-109111692D01*
X104951569Y-109111690D01*
X104959862Y-109070000D01*
X104156988Y-109070000D01*
X104174205Y-109060060D01*
X104230060Y-109004205D01*
X104269556Y-108935796D01*
X104290000Y-108859496D01*
X104290000Y-108780504D01*
X104269556Y-108704204D01*
X104230060Y-108635795D01*
X104174205Y-108579940D01*
X104156988Y-108570000D01*
X104959862Y-108570000D01*
X106350138Y-108570000D01*
X107153012Y-108570000D01*
X107135795Y-108579940D01*
X107079940Y-108635795D01*
X107040444Y-108704204D01*
X107020000Y-108780504D01*
X107020000Y-108859496D01*
X107040444Y-108935796D01*
X107079940Y-109004205D01*
X107135795Y-109060060D01*
X107153012Y-109070000D01*
X106350138Y-109070000D01*
X106358430Y-109111690D01*
X106358430Y-109111692D01*
X106433807Y-109293671D01*
X106433814Y-109293684D01*
X106543248Y-109457462D01*
X106543251Y-109457466D01*
X106682533Y-109596748D01*
X106682537Y-109596751D01*
X106846315Y-109706185D01*
X106846328Y-109706192D01*
X107028306Y-109781569D01*
X107028318Y-109781572D01*
X107221504Y-109819999D01*
X107221508Y-109820000D01*
X107620000Y-109820000D01*
X107620000Y-109120000D01*
X108120000Y-109120000D01*
X108120000Y-109820000D01*
X108518492Y-109820000D01*
X108518495Y-109819999D01*
X108711681Y-109781572D01*
X108711693Y-109781569D01*
X108893671Y-109706192D01*
X108893684Y-109706185D01*
X109052600Y-109600000D01*
X122894353Y-109600000D01*
X122914834Y-109742456D01*
X122974622Y-109873371D01*
X122974623Y-109873373D01*
X123068872Y-109982143D01*
X123189947Y-110059953D01*
X123189950Y-110059954D01*
X123189949Y-110059954D01*
X123328036Y-110100499D01*
X123328038Y-110100500D01*
X123328039Y-110100500D01*
X123471962Y-110100500D01*
X123471962Y-110100499D01*
X123610053Y-110059953D01*
X123703342Y-110000000D01*
X148594353Y-110000000D01*
X148614834Y-110142456D01*
X148640886Y-110199500D01*
X148674623Y-110273373D01*
X148768872Y-110382143D01*
X148889947Y-110459953D01*
X148889950Y-110459954D01*
X148889949Y-110459954D01*
X149028036Y-110500499D01*
X149028038Y-110500500D01*
X149028039Y-110500500D01*
X149171962Y-110500500D01*
X149171962Y-110500499D01*
X149310053Y-110459953D01*
X149431128Y-110382143D01*
X149525377Y-110273373D01*
X149558886Y-110200000D01*
X169994353Y-110200000D01*
X170014834Y-110342456D01*
X170053275Y-110426628D01*
X170074623Y-110473373D01*
X170168872Y-110582143D01*
X170289947Y-110659953D01*
X170289950Y-110659954D01*
X170289949Y-110659954D01*
X170397107Y-110691417D01*
X170426336Y-110700000D01*
X170428036Y-110700499D01*
X170428038Y-110700500D01*
X170428039Y-110700500D01*
X170571962Y-110700500D01*
X170571962Y-110700499D01*
X170710053Y-110659953D01*
X170831128Y-110582143D01*
X170925377Y-110473373D01*
X170985165Y-110342457D01*
X171005647Y-110200000D01*
X170985165Y-110057543D01*
X170925377Y-109926627D01*
X170831128Y-109817857D01*
X170710053Y-109740047D01*
X170710051Y-109740046D01*
X170710049Y-109740045D01*
X170710050Y-109740045D01*
X170571963Y-109699500D01*
X170571961Y-109699500D01*
X170428039Y-109699500D01*
X170428036Y-109699500D01*
X170289949Y-109740045D01*
X170168873Y-109817856D01*
X170074623Y-109926626D01*
X170074622Y-109926628D01*
X170014834Y-110057543D01*
X169994353Y-110200000D01*
X149558886Y-110200000D01*
X149585165Y-110142457D01*
X149605647Y-110000000D01*
X149585165Y-109857543D01*
X149525377Y-109726627D01*
X149431128Y-109617857D01*
X149310053Y-109540047D01*
X149310051Y-109540046D01*
X149310049Y-109540045D01*
X149310050Y-109540045D01*
X149171963Y-109499500D01*
X149171961Y-109499500D01*
X149028039Y-109499500D01*
X149028036Y-109499500D01*
X148889949Y-109540045D01*
X148768873Y-109617856D01*
X148674623Y-109726626D01*
X148674622Y-109726628D01*
X148614834Y-109857543D01*
X148594353Y-110000000D01*
X123703342Y-110000000D01*
X123731128Y-109982143D01*
X123825377Y-109873373D01*
X123885165Y-109742457D01*
X123905647Y-109600000D01*
X123885165Y-109457543D01*
X123825377Y-109326627D01*
X123731128Y-109217857D01*
X123610053Y-109140047D01*
X123610051Y-109140046D01*
X123610049Y-109140045D01*
X123610050Y-109140045D01*
X123471963Y-109099500D01*
X123471961Y-109099500D01*
X123328039Y-109099500D01*
X123328036Y-109099500D01*
X123189949Y-109140045D01*
X123068873Y-109217856D01*
X122974623Y-109326626D01*
X122974622Y-109326628D01*
X122914834Y-109457543D01*
X122894353Y-109600000D01*
X109052600Y-109600000D01*
X109057462Y-109596751D01*
X109057466Y-109596748D01*
X109196748Y-109457466D01*
X109196751Y-109457462D01*
X109306185Y-109293684D01*
X109306192Y-109293671D01*
X109381569Y-109111692D01*
X109381569Y-109111690D01*
X109389862Y-109070000D01*
X108586988Y-109070000D01*
X108604205Y-109060060D01*
X108660060Y-109004205D01*
X108699556Y-108935796D01*
X108720000Y-108859496D01*
X108720000Y-108780504D01*
X108699556Y-108704204D01*
X108660060Y-108635795D01*
X108604205Y-108579940D01*
X108586988Y-108570000D01*
X109389862Y-108570000D01*
X109381569Y-108528309D01*
X109381569Y-108528307D01*
X109306192Y-108346328D01*
X109306185Y-108346315D01*
X109196751Y-108182537D01*
X109196748Y-108182533D01*
X109057466Y-108043251D01*
X109057462Y-108043248D01*
X108893684Y-107933814D01*
X108893671Y-107933807D01*
X108812050Y-107899999D01*
X110144750Y-107899999D01*
X110144750Y-107900000D01*
X110163670Y-108043708D01*
X110163671Y-108043712D01*
X110219137Y-108177622D01*
X110219138Y-108177624D01*
X110219139Y-108177625D01*
X110307379Y-108292621D01*
X110422375Y-108380861D01*
X110556291Y-108436330D01*
X110683280Y-108453048D01*
X110699999Y-108455250D01*
X110700000Y-108455250D01*
X110700001Y-108455250D01*
X110714977Y-108453278D01*
X110843709Y-108436330D01*
X110977625Y-108380861D01*
X111092621Y-108292621D01*
X111180861Y-108177625D01*
X111236330Y-108043709D01*
X111255250Y-107900000D01*
X111236330Y-107756291D01*
X111180861Y-107622375D01*
X111092621Y-107507379D01*
X110977625Y-107419139D01*
X110977624Y-107419138D01*
X110977622Y-107419137D01*
X110843712Y-107363671D01*
X110843710Y-107363670D01*
X110843709Y-107363670D01*
X110771854Y-107354210D01*
X110700001Y-107344750D01*
X110699999Y-107344750D01*
X110556291Y-107363670D01*
X110556287Y-107363671D01*
X110422377Y-107419137D01*
X110307379Y-107507379D01*
X110219137Y-107622377D01*
X110163671Y-107756287D01*
X110163670Y-107756291D01*
X110144750Y-107899999D01*
X108812050Y-107899999D01*
X108711693Y-107858430D01*
X108711681Y-107858427D01*
X108518495Y-107820000D01*
X108120000Y-107820000D01*
X108120000Y-108520000D01*
X107620000Y-108520000D01*
X107620000Y-107904392D01*
X107639685Y-107837353D01*
X107658059Y-107817393D01*
X107656918Y-107816252D01*
X107695465Y-107777705D01*
X107760505Y-107712665D01*
X107829688Y-107592836D01*
X107865500Y-107459183D01*
X107865500Y-107320817D01*
X107829688Y-107187164D01*
X107760505Y-107067335D01*
X107662665Y-106969495D01*
X107662664Y-106969494D01*
X107662661Y-106969492D01*
X107542838Y-106900313D01*
X107542837Y-106900312D01*
X107542836Y-106900312D01*
X107409183Y-106864500D01*
X107270817Y-106864500D01*
X107137164Y-106900312D01*
X107137161Y-106900313D01*
X107017338Y-106969492D01*
X107017333Y-106969496D01*
X106919496Y-107067333D01*
X106919492Y-107067338D01*
X106850313Y-107187161D01*
X106850312Y-107187164D01*
X106814500Y-107320817D01*
X106814500Y-107459182D01*
X106850312Y-107592835D01*
X106850313Y-107592838D01*
X106919492Y-107712661D01*
X106919496Y-107712666D01*
X106923212Y-107716382D01*
X106956697Y-107777705D01*
X106951713Y-107847397D01*
X106909841Y-107903330D01*
X106882986Y-107918623D01*
X106846327Y-107933808D01*
X106846315Y-107933814D01*
X106682537Y-108043248D01*
X106682533Y-108043251D01*
X106543251Y-108182533D01*
X106543248Y-108182537D01*
X106433814Y-108346315D01*
X106433807Y-108346328D01*
X106358430Y-108528307D01*
X106358430Y-108528309D01*
X106350138Y-108570000D01*
X104959862Y-108570000D01*
X104951569Y-108528309D01*
X104951569Y-108528307D01*
X104876192Y-108346328D01*
X104876185Y-108346315D01*
X104766751Y-108182537D01*
X104766748Y-108182533D01*
X104627466Y-108043251D01*
X104627462Y-108043248D01*
X104463684Y-107933814D01*
X104463671Y-107933807D01*
X104281693Y-107858430D01*
X104281681Y-107858427D01*
X104088495Y-107820000D01*
X103940000Y-107820000D01*
X103940000Y-108520000D01*
X103440000Y-108520000D01*
X103440000Y-107820000D01*
X103291504Y-107820000D01*
X103098318Y-107858427D01*
X103098306Y-107858430D01*
X102916328Y-107933807D01*
X102916315Y-107933814D01*
X102752537Y-108043248D01*
X102752533Y-108043251D01*
X102613251Y-108182533D01*
X102613248Y-108182537D01*
X102503814Y-108346315D01*
X102503807Y-108346328D01*
X102428430Y-108528307D01*
X102428430Y-108528309D01*
X102420138Y-108570000D01*
X101300500Y-108570000D01*
X101300500Y-106000000D01*
X105894353Y-106000000D01*
X105914834Y-106142456D01*
X105974622Y-106273371D01*
X105974623Y-106273373D01*
X106068872Y-106382143D01*
X106189947Y-106459953D01*
X106189950Y-106459954D01*
X106189949Y-106459954D01*
X106328036Y-106500499D01*
X106328038Y-106500500D01*
X106328039Y-106500500D01*
X106471962Y-106500500D01*
X106471962Y-106500499D01*
X106610053Y-106459953D01*
X106731128Y-106382143D01*
X106825377Y-106273373D01*
X106885165Y-106142457D01*
X106905647Y-106000000D01*
X106885165Y-105857543D01*
X106825377Y-105726627D01*
X106731128Y-105617857D01*
X106703342Y-105600000D01*
X116794353Y-105600000D01*
X116814834Y-105742456D01*
X116868494Y-105859953D01*
X116874623Y-105873373D01*
X116968872Y-105982143D01*
X117089947Y-106059953D01*
X117089950Y-106059954D01*
X117089949Y-106059954D01*
X117228036Y-106100499D01*
X117228038Y-106100500D01*
X117228039Y-106100500D01*
X117371962Y-106100500D01*
X117371962Y-106100499D01*
X117510053Y-106059953D01*
X117631128Y-105982143D01*
X117725377Y-105873373D01*
X117785165Y-105742457D01*
X117805647Y-105600000D01*
X130794353Y-105600000D01*
X130814834Y-105742456D01*
X130868494Y-105859953D01*
X130874623Y-105873373D01*
X130968872Y-105982143D01*
X131089947Y-106059953D01*
X131089950Y-106059954D01*
X131089949Y-106059954D01*
X131228036Y-106100499D01*
X131228038Y-106100500D01*
X131228039Y-106100500D01*
X131371962Y-106100500D01*
X131371962Y-106100499D01*
X131510053Y-106059953D01*
X131631128Y-105982143D01*
X131725377Y-105873373D01*
X131785165Y-105742457D01*
X131805647Y-105600000D01*
X131791269Y-105500000D01*
X134694353Y-105500000D01*
X134714834Y-105642456D01*
X134760504Y-105742457D01*
X134774623Y-105773373D01*
X134868872Y-105882143D01*
X134989947Y-105959953D01*
X134989950Y-105959954D01*
X134989949Y-105959954D01*
X135065520Y-105982143D01*
X135126336Y-106000000D01*
X135128036Y-106000499D01*
X135128038Y-106000500D01*
X135128039Y-106000500D01*
X135271962Y-106000500D01*
X135271962Y-106000499D01*
X135410053Y-105959953D01*
X135531128Y-105882143D01*
X135625377Y-105773373D01*
X135685165Y-105642457D01*
X135705647Y-105500000D01*
X136894353Y-105500000D01*
X136914834Y-105642456D01*
X136960504Y-105742457D01*
X136974623Y-105773373D01*
X137068872Y-105882143D01*
X137189947Y-105959953D01*
X137189950Y-105959954D01*
X137189949Y-105959954D01*
X137265520Y-105982143D01*
X137326336Y-106000000D01*
X137328036Y-106000499D01*
X137328038Y-106000500D01*
X137328039Y-106000500D01*
X137471962Y-106000500D01*
X137471962Y-106000499D01*
X137610053Y-105959953D01*
X137731128Y-105882143D01*
X137825377Y-105773373D01*
X137885165Y-105642457D01*
X137905647Y-105500000D01*
X138894353Y-105500000D01*
X138914834Y-105642456D01*
X138960504Y-105742457D01*
X138974623Y-105773373D01*
X139068872Y-105882143D01*
X139189947Y-105959953D01*
X139189950Y-105959954D01*
X139189949Y-105959954D01*
X139265520Y-105982143D01*
X139326336Y-106000000D01*
X139328036Y-106000499D01*
X139328038Y-106000500D01*
X139328039Y-106000500D01*
X139471962Y-106000500D01*
X139471962Y-106000499D01*
X139610053Y-105959953D01*
X139731128Y-105882143D01*
X139825377Y-105773373D01*
X139885165Y-105642457D01*
X139905647Y-105500000D01*
X141794353Y-105500000D01*
X141814834Y-105642456D01*
X141860504Y-105742457D01*
X141874623Y-105773373D01*
X141968872Y-105882143D01*
X142089947Y-105959953D01*
X142089950Y-105959954D01*
X142089949Y-105959954D01*
X142165520Y-105982143D01*
X142226336Y-106000000D01*
X142228036Y-106000499D01*
X142228038Y-106000500D01*
X142228039Y-106000500D01*
X142371962Y-106000500D01*
X142371962Y-106000499D01*
X142510053Y-105959953D01*
X142631128Y-105882143D01*
X142725377Y-105773373D01*
X142785165Y-105642457D01*
X142805647Y-105500000D01*
X143594353Y-105500000D01*
X143614834Y-105642456D01*
X143660504Y-105742457D01*
X143674623Y-105773373D01*
X143768872Y-105882143D01*
X143889947Y-105959953D01*
X143889950Y-105959954D01*
X143889949Y-105959954D01*
X143965520Y-105982143D01*
X144026336Y-106000000D01*
X144028036Y-106000499D01*
X144028038Y-106000500D01*
X144028039Y-106000500D01*
X144171962Y-106000500D01*
X144171962Y-106000499D01*
X144310053Y-105959953D01*
X144431128Y-105882143D01*
X144525377Y-105773373D01*
X144585165Y-105642457D01*
X144605647Y-105500000D01*
X145594353Y-105500000D01*
X145614834Y-105642456D01*
X145660504Y-105742457D01*
X145674623Y-105773373D01*
X145768872Y-105882143D01*
X145889947Y-105959953D01*
X145889950Y-105959954D01*
X145889949Y-105959954D01*
X145965520Y-105982143D01*
X146026336Y-106000000D01*
X146028036Y-106000499D01*
X146028038Y-106000500D01*
X146028039Y-106000500D01*
X146171962Y-106000500D01*
X146171962Y-106000499D01*
X146310053Y-105959953D01*
X146431128Y-105882143D01*
X146525377Y-105773373D01*
X146585165Y-105642457D01*
X146605647Y-105500000D01*
X147594353Y-105500000D01*
X147614834Y-105642456D01*
X147660504Y-105742457D01*
X147674623Y-105773373D01*
X147768872Y-105882143D01*
X147889947Y-105959953D01*
X147889950Y-105959954D01*
X147889949Y-105959954D01*
X147965520Y-105982143D01*
X148026336Y-106000000D01*
X148028036Y-106000499D01*
X148028038Y-106000500D01*
X148028039Y-106000500D01*
X148171962Y-106000500D01*
X148171962Y-106000499D01*
X148310053Y-105959953D01*
X148431128Y-105882143D01*
X148525377Y-105773373D01*
X148585165Y-105642457D01*
X148605647Y-105500000D01*
X148591269Y-105400000D01*
X149594353Y-105400000D01*
X149614834Y-105542456D01*
X149660504Y-105642457D01*
X149674623Y-105673373D01*
X149768872Y-105782143D01*
X149889947Y-105859953D01*
X149889950Y-105859954D01*
X149889949Y-105859954D01*
X150028036Y-105900499D01*
X150028038Y-105900500D01*
X150028039Y-105900500D01*
X150171962Y-105900500D01*
X150171962Y-105900499D01*
X150310053Y-105859953D01*
X150431128Y-105782143D01*
X150525377Y-105673373D01*
X150585165Y-105542457D01*
X150605647Y-105400000D01*
X150585165Y-105257543D01*
X150525377Y-105126627D01*
X150431128Y-105017857D01*
X150310053Y-104940047D01*
X150310051Y-104940046D01*
X150310049Y-104940045D01*
X150310050Y-104940045D01*
X150171963Y-104899500D01*
X150171961Y-104899500D01*
X150028039Y-104899500D01*
X150028036Y-104899500D01*
X149889949Y-104940045D01*
X149768873Y-105017856D01*
X149674623Y-105126626D01*
X149674622Y-105126628D01*
X149614834Y-105257543D01*
X149594353Y-105400000D01*
X148591269Y-105400000D01*
X148585165Y-105357543D01*
X148525377Y-105226627D01*
X148431128Y-105117857D01*
X148310053Y-105040047D01*
X148310051Y-105040046D01*
X148310049Y-105040045D01*
X148310050Y-105040045D01*
X148171963Y-104999500D01*
X148171961Y-104999500D01*
X148028039Y-104999500D01*
X148028036Y-104999500D01*
X147889949Y-105040045D01*
X147768873Y-105117856D01*
X147674623Y-105226626D01*
X147674622Y-105226628D01*
X147614834Y-105357543D01*
X147594353Y-105500000D01*
X146605647Y-105500000D01*
X146585165Y-105357543D01*
X146525377Y-105226627D01*
X146431128Y-105117857D01*
X146310053Y-105040047D01*
X146310051Y-105040046D01*
X146310049Y-105040045D01*
X146310050Y-105040045D01*
X146171963Y-104999500D01*
X146171961Y-104999500D01*
X146028039Y-104999500D01*
X146028036Y-104999500D01*
X145889949Y-105040045D01*
X145768873Y-105117856D01*
X145674623Y-105226626D01*
X145674622Y-105226628D01*
X145614834Y-105357543D01*
X145594353Y-105500000D01*
X144605647Y-105500000D01*
X144585165Y-105357543D01*
X144525377Y-105226627D01*
X144431128Y-105117857D01*
X144310053Y-105040047D01*
X144310051Y-105040046D01*
X144310049Y-105040045D01*
X144310050Y-105040045D01*
X144171963Y-104999500D01*
X144171961Y-104999500D01*
X144028039Y-104999500D01*
X144028036Y-104999500D01*
X143889949Y-105040045D01*
X143768873Y-105117856D01*
X143674623Y-105226626D01*
X143674622Y-105226628D01*
X143614834Y-105357543D01*
X143594353Y-105500000D01*
X142805647Y-105500000D01*
X142785165Y-105357543D01*
X142725377Y-105226627D01*
X142631128Y-105117857D01*
X142510053Y-105040047D01*
X142510051Y-105040046D01*
X142510049Y-105040045D01*
X142510050Y-105040045D01*
X142371963Y-104999500D01*
X142371961Y-104999500D01*
X142228039Y-104999500D01*
X142228036Y-104999500D01*
X142089949Y-105040045D01*
X141968873Y-105117856D01*
X141874623Y-105226626D01*
X141874622Y-105226628D01*
X141814834Y-105357543D01*
X141794353Y-105500000D01*
X139905647Y-105500000D01*
X139885165Y-105357543D01*
X139825377Y-105226627D01*
X139731128Y-105117857D01*
X139610053Y-105040047D01*
X139610051Y-105040046D01*
X139610049Y-105040045D01*
X139610050Y-105040045D01*
X139471963Y-104999500D01*
X139471961Y-104999500D01*
X139328039Y-104999500D01*
X139328036Y-104999500D01*
X139189949Y-105040045D01*
X139068873Y-105117856D01*
X138974623Y-105226626D01*
X138974622Y-105226628D01*
X138914834Y-105357543D01*
X138894353Y-105500000D01*
X137905647Y-105500000D01*
X137885165Y-105357543D01*
X137825377Y-105226627D01*
X137731128Y-105117857D01*
X137610053Y-105040047D01*
X137610051Y-105040046D01*
X137610049Y-105040045D01*
X137610050Y-105040045D01*
X137471963Y-104999500D01*
X137471961Y-104999500D01*
X137328039Y-104999500D01*
X137328036Y-104999500D01*
X137189949Y-105040045D01*
X137068873Y-105117856D01*
X136974623Y-105226626D01*
X136974622Y-105226628D01*
X136914834Y-105357543D01*
X136894353Y-105500000D01*
X135705647Y-105500000D01*
X135685165Y-105357543D01*
X135625377Y-105226627D01*
X135531128Y-105117857D01*
X135410053Y-105040047D01*
X135410051Y-105040046D01*
X135410049Y-105040045D01*
X135410050Y-105040045D01*
X135271963Y-104999500D01*
X135271961Y-104999500D01*
X135128039Y-104999500D01*
X135128036Y-104999500D01*
X134989949Y-105040045D01*
X134868873Y-105117856D01*
X134774623Y-105226626D01*
X134774622Y-105226628D01*
X134714834Y-105357543D01*
X134694353Y-105500000D01*
X131791269Y-105500000D01*
X131785165Y-105457543D01*
X131725377Y-105326627D01*
X131631128Y-105217857D01*
X131510053Y-105140047D01*
X131510051Y-105140046D01*
X131510049Y-105140045D01*
X131510050Y-105140045D01*
X131371963Y-105099500D01*
X131371961Y-105099500D01*
X131228039Y-105099500D01*
X131228036Y-105099500D01*
X131089949Y-105140045D01*
X130968873Y-105217856D01*
X130874623Y-105326626D01*
X130874622Y-105326628D01*
X130814834Y-105457543D01*
X130794353Y-105600000D01*
X117805647Y-105600000D01*
X117785165Y-105457543D01*
X117725377Y-105326627D01*
X117631128Y-105217857D01*
X117510053Y-105140047D01*
X117510051Y-105140046D01*
X117510049Y-105140045D01*
X117510050Y-105140045D01*
X117371963Y-105099500D01*
X117371961Y-105099500D01*
X117228039Y-105099500D01*
X117228036Y-105099500D01*
X117089949Y-105140045D01*
X116968873Y-105217856D01*
X116874623Y-105326626D01*
X116874622Y-105326628D01*
X116814834Y-105457543D01*
X116794353Y-105600000D01*
X106703342Y-105600000D01*
X106610053Y-105540047D01*
X106610051Y-105540046D01*
X106610049Y-105540045D01*
X106610050Y-105540045D01*
X106471963Y-105499500D01*
X106471961Y-105499500D01*
X106328039Y-105499500D01*
X106328036Y-105499500D01*
X106189949Y-105540045D01*
X106068873Y-105617856D01*
X105974623Y-105726626D01*
X105974622Y-105726628D01*
X105914834Y-105857543D01*
X105894353Y-106000000D01*
X101300500Y-106000000D01*
X101300500Y-104200000D01*
X104594353Y-104200000D01*
X104614834Y-104342456D01*
X104674622Y-104473371D01*
X104674623Y-104473373D01*
X104768872Y-104582143D01*
X104889947Y-104659953D01*
X104889950Y-104659954D01*
X104889949Y-104659954D01*
X105028036Y-104700499D01*
X105028038Y-104700500D01*
X105028039Y-104700500D01*
X105171962Y-104700500D01*
X105171962Y-104700499D01*
X105310053Y-104659953D01*
X105431128Y-104582143D01*
X105502306Y-104499999D01*
X110544750Y-104499999D01*
X110544750Y-104500000D01*
X110563670Y-104643708D01*
X110563671Y-104643712D01*
X110619137Y-104777622D01*
X110619138Y-104777624D01*
X110619139Y-104777625D01*
X110707379Y-104892621D01*
X110822375Y-104980861D01*
X110956291Y-105036330D01*
X111083280Y-105053048D01*
X111099999Y-105055250D01*
X111100000Y-105055250D01*
X111100001Y-105055250D01*
X111114977Y-105053278D01*
X111243709Y-105036330D01*
X111377625Y-104980861D01*
X111492621Y-104892621D01*
X111580861Y-104777625D01*
X111636330Y-104643709D01*
X111655250Y-104500000D01*
X111636330Y-104356291D01*
X111580861Y-104222375D01*
X111492621Y-104107379D01*
X111377625Y-104019139D01*
X111377624Y-104019138D01*
X111377622Y-104019137D01*
X111243712Y-103963671D01*
X111243710Y-103963670D01*
X111243709Y-103963670D01*
X111171854Y-103954210D01*
X111100001Y-103944750D01*
X111099999Y-103944750D01*
X110956291Y-103963670D01*
X110956287Y-103963671D01*
X110822377Y-104019137D01*
X110707379Y-104107379D01*
X110619137Y-104222377D01*
X110563671Y-104356287D01*
X110563670Y-104356291D01*
X110544750Y-104499999D01*
X105502306Y-104499999D01*
X105525377Y-104473373D01*
X105585165Y-104342457D01*
X105605647Y-104200000D01*
X105585165Y-104057543D01*
X105525377Y-103926627D01*
X105502305Y-103900000D01*
X121194353Y-103900000D01*
X121214834Y-104042456D01*
X121245660Y-104109954D01*
X121274623Y-104173373D01*
X121368872Y-104282143D01*
X121489947Y-104359953D01*
X121489950Y-104359954D01*
X121489949Y-104359954D01*
X121628036Y-104400499D01*
X121628038Y-104400500D01*
X121628039Y-104400500D01*
X121771962Y-104400500D01*
X121771962Y-104400499D01*
X121910053Y-104359953D01*
X122031128Y-104282143D01*
X122125377Y-104173373D01*
X122185165Y-104042457D01*
X122205647Y-103900000D01*
X122185165Y-103757543D01*
X122136051Y-103650000D01*
X149944353Y-103650000D01*
X149964834Y-103792456D01*
X150013949Y-103900000D01*
X150024623Y-103923373D01*
X150118872Y-104032143D01*
X150239947Y-104109953D01*
X150239950Y-104109954D01*
X150239949Y-104109954D01*
X150378036Y-104150499D01*
X150378038Y-104150500D01*
X150378039Y-104150500D01*
X150521962Y-104150500D01*
X150521962Y-104150499D01*
X150660053Y-104109953D01*
X150781128Y-104032143D01*
X150875377Y-103923373D01*
X150935165Y-103792457D01*
X150955647Y-103650000D01*
X150935165Y-103507543D01*
X150875377Y-103376627D01*
X150781128Y-103267857D01*
X150660053Y-103190047D01*
X150660051Y-103190046D01*
X150660049Y-103190045D01*
X150660050Y-103190045D01*
X150521963Y-103149500D01*
X150521961Y-103149500D01*
X150378039Y-103149500D01*
X150378036Y-103149500D01*
X150239949Y-103190045D01*
X150118873Y-103267856D01*
X150024623Y-103376626D01*
X150024622Y-103376628D01*
X149964834Y-103507543D01*
X149944353Y-103650000D01*
X122136051Y-103650000D01*
X122125377Y-103626627D01*
X122031128Y-103517857D01*
X121910053Y-103440047D01*
X121910051Y-103440046D01*
X121910049Y-103440045D01*
X121910050Y-103440045D01*
X121771963Y-103399500D01*
X121771961Y-103399500D01*
X121628039Y-103399500D01*
X121628036Y-103399500D01*
X121489949Y-103440045D01*
X121368873Y-103517856D01*
X121274623Y-103626626D01*
X121274622Y-103626628D01*
X121214834Y-103757543D01*
X121194353Y-103900000D01*
X105502305Y-103900000D01*
X105431128Y-103817857D01*
X105310053Y-103740047D01*
X105310051Y-103740046D01*
X105310049Y-103740045D01*
X105310050Y-103740045D01*
X105171963Y-103699500D01*
X105171961Y-103699500D01*
X105028039Y-103699500D01*
X105028036Y-103699500D01*
X104889949Y-103740045D01*
X104768873Y-103817856D01*
X104674623Y-103926626D01*
X104674622Y-103926628D01*
X104614834Y-104057543D01*
X104594353Y-104200000D01*
X101300500Y-104200000D01*
X101300500Y-102800000D01*
X130594353Y-102800000D01*
X130614834Y-102942456D01*
X130674622Y-103073371D01*
X130674623Y-103073373D01*
X130768872Y-103182143D01*
X130889947Y-103259953D01*
X130889950Y-103259954D01*
X130889949Y-103259954D01*
X131028036Y-103300499D01*
X131028038Y-103300500D01*
X131028039Y-103300500D01*
X131171962Y-103300500D01*
X131171962Y-103300499D01*
X131310053Y-103259953D01*
X131431128Y-103182143D01*
X131525377Y-103073373D01*
X131585165Y-102942457D01*
X131605647Y-102800000D01*
X131585165Y-102657543D01*
X131525377Y-102526627D01*
X131431128Y-102417857D01*
X131310053Y-102340047D01*
X131310051Y-102340046D01*
X131310049Y-102340045D01*
X131310050Y-102340045D01*
X131171963Y-102299500D01*
X131171961Y-102299500D01*
X131028039Y-102299500D01*
X131028036Y-102299500D01*
X130889949Y-102340045D01*
X130768873Y-102417856D01*
X130674623Y-102526626D01*
X130674622Y-102526628D01*
X130614834Y-102657543D01*
X130594353Y-102800000D01*
X101300500Y-102800000D01*
X101300500Y-99930000D01*
X102420138Y-99930000D01*
X103223012Y-99930000D01*
X103205795Y-99939940D01*
X103149940Y-99995795D01*
X103110444Y-100064204D01*
X103090000Y-100140504D01*
X103090000Y-100219496D01*
X103110444Y-100295796D01*
X103149940Y-100364205D01*
X103205795Y-100420060D01*
X103223012Y-100430000D01*
X102420138Y-100430000D01*
X102428430Y-100471690D01*
X102428430Y-100471692D01*
X102503807Y-100653671D01*
X102503814Y-100653684D01*
X102613248Y-100817462D01*
X102613251Y-100817466D01*
X102752533Y-100956748D01*
X102752537Y-100956751D01*
X102916315Y-101066185D01*
X102916328Y-101066192D01*
X103098306Y-101141569D01*
X103098318Y-101141572D01*
X103291504Y-101179999D01*
X103291508Y-101180000D01*
X103440000Y-101180000D01*
X103440000Y-100480000D01*
X103940000Y-100480000D01*
X103940000Y-101180000D01*
X104088492Y-101180000D01*
X104088495Y-101179999D01*
X104281681Y-101141572D01*
X104281693Y-101141569D01*
X104463671Y-101066192D01*
X104463684Y-101066185D01*
X104627462Y-100956751D01*
X104627466Y-100956748D01*
X104766748Y-100817466D01*
X104766751Y-100817462D01*
X104876185Y-100653684D01*
X104876192Y-100653671D01*
X104951569Y-100471692D01*
X104951569Y-100471690D01*
X104959862Y-100430000D01*
X104156988Y-100430000D01*
X104174205Y-100420060D01*
X104230060Y-100364205D01*
X104269556Y-100295796D01*
X104290000Y-100219496D01*
X104290000Y-100140504D01*
X104269556Y-100064204D01*
X104230060Y-99995795D01*
X104174205Y-99939940D01*
X104156988Y-99930000D01*
X104959862Y-99930000D01*
X106350138Y-99930000D01*
X107153012Y-99930000D01*
X107135795Y-99939940D01*
X107079940Y-99995795D01*
X107040444Y-100064204D01*
X107020000Y-100140504D01*
X107020000Y-100219496D01*
X107040444Y-100295796D01*
X107079940Y-100364205D01*
X107135795Y-100420060D01*
X107153012Y-100430000D01*
X106350138Y-100430000D01*
X106358430Y-100471690D01*
X106358430Y-100471692D01*
X106433807Y-100653671D01*
X106433814Y-100653684D01*
X106543248Y-100817462D01*
X106543251Y-100817466D01*
X106682533Y-100956748D01*
X106682537Y-100956751D01*
X106846315Y-101066185D01*
X106846324Y-101066190D01*
X106882984Y-101081375D01*
X106937387Y-101125216D01*
X106959452Y-101191510D01*
X106942173Y-101259209D01*
X106923217Y-101283613D01*
X106919492Y-101287338D01*
X106850313Y-101407161D01*
X106850312Y-101407164D01*
X106814500Y-101540817D01*
X106814500Y-101679183D01*
X106846873Y-101799999D01*
X106850312Y-101812835D01*
X106850313Y-101812838D01*
X106919492Y-101932661D01*
X106919494Y-101932664D01*
X106919495Y-101932665D01*
X107017335Y-102030505D01*
X107137164Y-102099688D01*
X107270817Y-102135500D01*
X107270819Y-102135500D01*
X107409181Y-102135500D01*
X107409183Y-102135500D01*
X107542836Y-102099688D01*
X107662665Y-102030505D01*
X107760505Y-101932665D01*
X107829688Y-101812836D01*
X107833127Y-101800000D01*
X109944750Y-101800000D01*
X109962215Y-101932661D01*
X109963670Y-101943708D01*
X109963671Y-101943712D01*
X110019137Y-102077622D01*
X110019138Y-102077624D01*
X110019139Y-102077625D01*
X110107379Y-102192621D01*
X110222375Y-102280861D01*
X110356291Y-102336330D01*
X110483280Y-102353048D01*
X110499999Y-102355250D01*
X110500000Y-102355250D01*
X110500001Y-102355250D01*
X110514977Y-102353278D01*
X110643709Y-102336330D01*
X110777625Y-102280861D01*
X110892621Y-102192621D01*
X110980861Y-102077625D01*
X111036330Y-101943709D01*
X111055250Y-101800000D01*
X111036330Y-101656291D01*
X110980861Y-101522375D01*
X110892621Y-101407379D01*
X110777625Y-101319139D01*
X110777624Y-101319138D01*
X110777622Y-101319137D01*
X110643712Y-101263671D01*
X110643710Y-101263670D01*
X110643709Y-101263670D01*
X110571854Y-101254210D01*
X110500001Y-101244750D01*
X110499999Y-101244750D01*
X110356291Y-101263670D01*
X110356287Y-101263671D01*
X110222377Y-101319137D01*
X110107379Y-101407379D01*
X110019137Y-101522377D01*
X109963671Y-101656287D01*
X109963670Y-101656291D01*
X109944750Y-101800000D01*
X107833127Y-101800000D01*
X107865500Y-101679183D01*
X107865500Y-101540817D01*
X107829688Y-101407164D01*
X107760505Y-101287335D01*
X107662665Y-101189495D01*
X107656918Y-101183748D01*
X107659295Y-101181370D01*
X107627294Y-101137509D01*
X107620000Y-101095607D01*
X107620000Y-100480000D01*
X108120000Y-100480000D01*
X108120000Y-101180000D01*
X108518492Y-101180000D01*
X108518495Y-101179999D01*
X108711681Y-101141572D01*
X108711693Y-101141569D01*
X108812050Y-101100000D01*
X134194353Y-101100000D01*
X134214834Y-101242456D01*
X134260504Y-101342457D01*
X134274623Y-101373373D01*
X134368872Y-101482143D01*
X134489947Y-101559953D01*
X134489950Y-101559954D01*
X134489949Y-101559954D01*
X134628036Y-101600499D01*
X134628038Y-101600500D01*
X134628039Y-101600500D01*
X134771962Y-101600500D01*
X134771962Y-101600499D01*
X134910053Y-101559953D01*
X135031128Y-101482143D01*
X135125377Y-101373373D01*
X135185165Y-101242457D01*
X135191269Y-101200000D01*
X136294353Y-101200000D01*
X136314834Y-101342456D01*
X136344386Y-101407164D01*
X136374623Y-101473373D01*
X136468872Y-101582143D01*
X136589947Y-101659953D01*
X136589950Y-101659954D01*
X136589949Y-101659954D01*
X136728036Y-101700499D01*
X136728038Y-101700500D01*
X136728039Y-101700500D01*
X136871962Y-101700500D01*
X136871962Y-101700499D01*
X137010053Y-101659953D01*
X137131128Y-101582143D01*
X137225377Y-101473373D01*
X137285165Y-101342457D01*
X137305647Y-101200000D01*
X137285165Y-101057543D01*
X137225377Y-100926627D01*
X137131128Y-100817857D01*
X137103342Y-100800000D01*
X146494353Y-100800000D01*
X146514834Y-100942456D01*
X146574622Y-101073371D01*
X146574623Y-101073373D01*
X146668872Y-101182143D01*
X146789947Y-101259953D01*
X146789950Y-101259954D01*
X146789949Y-101259954D01*
X146928036Y-101300499D01*
X146928038Y-101300500D01*
X146928039Y-101300500D01*
X147071962Y-101300500D01*
X147071962Y-101300499D01*
X147210053Y-101259953D01*
X147331128Y-101182143D01*
X147425377Y-101073373D01*
X147485165Y-100942457D01*
X147505647Y-100800000D01*
X147485165Y-100657543D01*
X147425377Y-100526627D01*
X147331128Y-100417857D01*
X147210053Y-100340047D01*
X147210051Y-100340046D01*
X147210049Y-100340045D01*
X147210050Y-100340045D01*
X147071963Y-100299500D01*
X147071961Y-100299500D01*
X146928039Y-100299500D01*
X146928036Y-100299500D01*
X146789949Y-100340045D01*
X146668873Y-100417856D01*
X146574623Y-100526626D01*
X146574622Y-100526628D01*
X146514834Y-100657543D01*
X146494353Y-100800000D01*
X137103342Y-100800000D01*
X137010053Y-100740047D01*
X137010051Y-100740046D01*
X137010049Y-100740045D01*
X137010050Y-100740045D01*
X136871963Y-100699500D01*
X136871961Y-100699500D01*
X136728039Y-100699500D01*
X136728036Y-100699500D01*
X136589949Y-100740045D01*
X136468873Y-100817856D01*
X136374623Y-100926626D01*
X136374622Y-100926628D01*
X136314834Y-101057543D01*
X136294353Y-101200000D01*
X135191269Y-101200000D01*
X135205647Y-101100000D01*
X135185165Y-100957543D01*
X135125377Y-100826627D01*
X135031128Y-100717857D01*
X134910053Y-100640047D01*
X134910051Y-100640046D01*
X134910049Y-100640045D01*
X134910050Y-100640045D01*
X134771963Y-100599500D01*
X134771961Y-100599500D01*
X134628039Y-100599500D01*
X134628036Y-100599500D01*
X134489949Y-100640045D01*
X134368873Y-100717856D01*
X134274623Y-100826626D01*
X134274622Y-100826628D01*
X134214834Y-100957543D01*
X134194353Y-101100000D01*
X108812050Y-101100000D01*
X108893671Y-101066192D01*
X108893684Y-101066185D01*
X109057462Y-100956751D01*
X109057466Y-100956748D01*
X109196748Y-100817466D01*
X109196751Y-100817462D01*
X109306185Y-100653684D01*
X109306192Y-100653671D01*
X109381569Y-100471692D01*
X109381569Y-100471690D01*
X109389862Y-100430000D01*
X108586988Y-100430000D01*
X108604205Y-100420060D01*
X108660060Y-100364205D01*
X108699556Y-100295796D01*
X108720000Y-100219496D01*
X108720000Y-100140504D01*
X108699556Y-100064204D01*
X108660060Y-99995795D01*
X108604205Y-99939940D01*
X108586988Y-99930000D01*
X109389862Y-99930000D01*
X109383895Y-99900000D01*
X119794353Y-99900000D01*
X119814834Y-100042456D01*
X119860504Y-100142457D01*
X119874623Y-100173373D01*
X119968872Y-100282143D01*
X120089947Y-100359953D01*
X120089950Y-100359954D01*
X120089949Y-100359954D01*
X120228036Y-100400499D01*
X120228038Y-100400500D01*
X120228039Y-100400500D01*
X120371962Y-100400500D01*
X120371962Y-100400499D01*
X120510053Y-100359953D01*
X120631128Y-100282143D01*
X120725377Y-100173373D01*
X120785165Y-100042457D01*
X120805647Y-99900000D01*
X120791269Y-99800000D01*
X121794353Y-99800000D01*
X121814834Y-99942456D01*
X121874622Y-100073371D01*
X121874623Y-100073373D01*
X121968872Y-100182143D01*
X122089947Y-100259953D01*
X122089950Y-100259954D01*
X122089949Y-100259954D01*
X122165520Y-100282143D01*
X122224633Y-100299500D01*
X122228036Y-100300499D01*
X122228038Y-100300500D01*
X122228039Y-100300500D01*
X122371962Y-100300500D01*
X122371962Y-100300499D01*
X122510053Y-100259953D01*
X122603342Y-100200000D01*
X123594353Y-100200000D01*
X123614834Y-100342456D01*
X123649269Y-100417856D01*
X123674623Y-100473373D01*
X123768872Y-100582143D01*
X123889947Y-100659953D01*
X123889950Y-100659954D01*
X123889949Y-100659954D01*
X123997107Y-100691417D01*
X124024633Y-100699500D01*
X124028036Y-100700499D01*
X124028038Y-100700500D01*
X124028039Y-100700500D01*
X124171962Y-100700500D01*
X124171962Y-100700499D01*
X124310053Y-100659953D01*
X124431128Y-100582143D01*
X124525377Y-100473373D01*
X124585165Y-100342457D01*
X124605647Y-100200000D01*
X124585165Y-100057543D01*
X124558886Y-100000000D01*
X130594353Y-100000000D01*
X130614834Y-100142456D01*
X130628953Y-100173371D01*
X130674623Y-100273373D01*
X130768872Y-100382143D01*
X130889947Y-100459953D01*
X130889950Y-100459954D01*
X130889949Y-100459954D01*
X131028036Y-100500499D01*
X131028038Y-100500500D01*
X131028039Y-100500500D01*
X131171962Y-100500500D01*
X131171962Y-100500499D01*
X131310053Y-100459953D01*
X131431128Y-100382143D01*
X131525377Y-100273373D01*
X131585165Y-100142457D01*
X131605647Y-100000000D01*
X131585165Y-99857543D01*
X131525377Y-99726627D01*
X131431128Y-99617857D01*
X131310053Y-99540047D01*
X131310051Y-99540046D01*
X131310049Y-99540045D01*
X131310050Y-99540045D01*
X131171963Y-99499500D01*
X131171961Y-99499500D01*
X131028039Y-99499500D01*
X131028036Y-99499500D01*
X130889949Y-99540045D01*
X130768873Y-99617856D01*
X130674623Y-99726626D01*
X130674622Y-99726628D01*
X130614834Y-99857543D01*
X130594353Y-100000000D01*
X124558886Y-100000000D01*
X124525377Y-99926627D01*
X124431128Y-99817857D01*
X124310053Y-99740047D01*
X124310051Y-99740046D01*
X124310049Y-99740045D01*
X124310050Y-99740045D01*
X124171963Y-99699500D01*
X124171961Y-99699500D01*
X124028039Y-99699500D01*
X124028036Y-99699500D01*
X123889949Y-99740045D01*
X123768873Y-99817856D01*
X123674623Y-99926626D01*
X123674622Y-99926628D01*
X123614834Y-100057543D01*
X123594353Y-100200000D01*
X122603342Y-100200000D01*
X122631128Y-100182143D01*
X122725377Y-100073373D01*
X122785165Y-99942457D01*
X122805647Y-99800000D01*
X122785165Y-99657543D01*
X122725377Y-99526627D01*
X122631128Y-99417857D01*
X122510053Y-99340047D01*
X122510051Y-99340046D01*
X122510049Y-99340045D01*
X122510050Y-99340045D01*
X122371963Y-99299500D01*
X122371961Y-99299500D01*
X122228039Y-99299500D01*
X122228036Y-99299500D01*
X122089949Y-99340045D01*
X121968873Y-99417856D01*
X121874623Y-99526626D01*
X121874622Y-99526628D01*
X121814834Y-99657543D01*
X121794353Y-99800000D01*
X120791269Y-99800000D01*
X120785165Y-99757543D01*
X120725377Y-99626627D01*
X120631128Y-99517857D01*
X120510053Y-99440047D01*
X120510051Y-99440046D01*
X120510049Y-99440045D01*
X120510050Y-99440045D01*
X120371963Y-99399500D01*
X120371961Y-99399500D01*
X120228039Y-99399500D01*
X120228036Y-99399500D01*
X120089949Y-99440045D01*
X119968873Y-99517856D01*
X119874623Y-99626626D01*
X119874622Y-99626628D01*
X119814834Y-99757543D01*
X119794353Y-99900000D01*
X109383895Y-99900000D01*
X109381569Y-99888309D01*
X109381569Y-99888307D01*
X109306192Y-99706328D01*
X109306185Y-99706315D01*
X109196751Y-99542537D01*
X109196748Y-99542533D01*
X109057466Y-99403251D01*
X109057462Y-99403248D01*
X108893684Y-99293814D01*
X108893671Y-99293807D01*
X108711693Y-99218430D01*
X108711681Y-99218427D01*
X108518495Y-99180000D01*
X108120000Y-99180000D01*
X108120000Y-99880000D01*
X107620000Y-99880000D01*
X107620000Y-99180000D01*
X107221504Y-99180000D01*
X107028318Y-99218427D01*
X107028306Y-99218430D01*
X106846328Y-99293807D01*
X106846315Y-99293814D01*
X106682537Y-99403248D01*
X106682533Y-99403251D01*
X106543251Y-99542533D01*
X106543248Y-99542537D01*
X106433814Y-99706315D01*
X106433807Y-99706328D01*
X106358430Y-99888307D01*
X106358430Y-99888309D01*
X106350138Y-99930000D01*
X104959862Y-99930000D01*
X104951569Y-99888309D01*
X104951569Y-99888307D01*
X104876192Y-99706328D01*
X104876185Y-99706315D01*
X104766751Y-99542537D01*
X104766748Y-99542533D01*
X104627466Y-99403251D01*
X104627462Y-99403248D01*
X104463684Y-99293814D01*
X104463671Y-99293807D01*
X104281693Y-99218430D01*
X104281681Y-99218427D01*
X104088495Y-99180000D01*
X103940000Y-99180000D01*
X103940000Y-99880000D01*
X103440000Y-99880000D01*
X103440000Y-99180000D01*
X103291504Y-99180000D01*
X103098318Y-99218427D01*
X103098306Y-99218430D01*
X102916328Y-99293807D01*
X102916315Y-99293814D01*
X102752537Y-99403248D01*
X102752533Y-99403251D01*
X102613251Y-99542533D01*
X102613248Y-99542537D01*
X102503814Y-99706315D01*
X102503807Y-99706328D01*
X102428430Y-99888307D01*
X102428430Y-99888309D01*
X102420138Y-99930000D01*
X101300500Y-99930000D01*
X101300500Y-98850000D01*
X124744353Y-98850000D01*
X124764834Y-98992456D01*
X124813720Y-99099500D01*
X124824623Y-99123373D01*
X124918872Y-99232143D01*
X125039947Y-99309953D01*
X125039950Y-99309954D01*
X125039949Y-99309954D01*
X125178036Y-99350499D01*
X125178038Y-99350500D01*
X125178039Y-99350500D01*
X125321962Y-99350500D01*
X125321962Y-99350499D01*
X125460053Y-99309953D01*
X125475540Y-99300000D01*
X145594353Y-99300000D01*
X145614834Y-99442456D01*
X145674622Y-99573371D01*
X145674623Y-99573373D01*
X145768872Y-99682143D01*
X145889947Y-99759953D01*
X145889950Y-99759954D01*
X145889949Y-99759954D01*
X145997107Y-99791417D01*
X146026336Y-99800000D01*
X146028036Y-99800499D01*
X146028038Y-99800500D01*
X146028039Y-99800500D01*
X146171962Y-99800500D01*
X146171962Y-99800499D01*
X146310053Y-99759953D01*
X146431128Y-99682143D01*
X146502305Y-99600000D01*
X147894353Y-99600000D01*
X147914834Y-99742456D01*
X147974622Y-99873371D01*
X147974623Y-99873373D01*
X148068872Y-99982143D01*
X148189947Y-100059953D01*
X148189950Y-100059954D01*
X148189949Y-100059954D01*
X148328036Y-100100499D01*
X148328038Y-100100500D01*
X148328039Y-100100500D01*
X148471962Y-100100500D01*
X148471962Y-100100499D01*
X148610053Y-100059953D01*
X148731128Y-99982143D01*
X148825377Y-99873373D01*
X148885165Y-99742457D01*
X148905647Y-99600000D01*
X148885165Y-99457543D01*
X148825377Y-99326627D01*
X148731128Y-99217857D01*
X148610053Y-99140047D01*
X148610051Y-99140046D01*
X148610049Y-99140045D01*
X148610050Y-99140045D01*
X148471963Y-99099500D01*
X148471961Y-99099500D01*
X148328039Y-99099500D01*
X148328036Y-99099500D01*
X148189949Y-99140045D01*
X148068873Y-99217856D01*
X148068872Y-99217856D01*
X148068872Y-99217857D01*
X148056493Y-99232143D01*
X147974623Y-99326626D01*
X147974622Y-99326628D01*
X147914834Y-99457543D01*
X147894353Y-99600000D01*
X146502305Y-99600000D01*
X146525377Y-99573373D01*
X146585165Y-99442457D01*
X146605647Y-99300000D01*
X146585165Y-99157543D01*
X146525377Y-99026627D01*
X146431128Y-98917857D01*
X146310053Y-98840047D01*
X146310051Y-98840046D01*
X146310049Y-98840045D01*
X146310050Y-98840045D01*
X146171963Y-98799500D01*
X146171961Y-98799500D01*
X146028039Y-98799500D01*
X146028036Y-98799500D01*
X145889949Y-98840045D01*
X145768873Y-98917856D01*
X145674623Y-99026626D01*
X145674622Y-99026628D01*
X145614834Y-99157543D01*
X145594353Y-99300000D01*
X125475540Y-99300000D01*
X125581128Y-99232143D01*
X125675377Y-99123373D01*
X125735165Y-98992457D01*
X125755647Y-98850000D01*
X125735165Y-98707543D01*
X125675377Y-98576627D01*
X125581128Y-98467857D01*
X125460053Y-98390047D01*
X125460051Y-98390046D01*
X125460049Y-98390045D01*
X125460050Y-98390045D01*
X125321963Y-98349500D01*
X125321961Y-98349500D01*
X125178039Y-98349500D01*
X125178036Y-98349500D01*
X125039949Y-98390045D01*
X124918873Y-98467856D01*
X124824623Y-98576626D01*
X124824622Y-98576628D01*
X124764834Y-98707543D01*
X124744353Y-98850000D01*
X101300500Y-98850000D01*
X101300500Y-97300000D01*
X130594353Y-97300000D01*
X130614834Y-97442456D01*
X130674622Y-97573371D01*
X130674623Y-97573373D01*
X130768872Y-97682143D01*
X130889947Y-97759953D01*
X130889950Y-97759954D01*
X130889949Y-97759954D01*
X131028036Y-97800499D01*
X131028038Y-97800500D01*
X131028039Y-97800500D01*
X131171962Y-97800500D01*
X131171962Y-97800499D01*
X131310053Y-97759953D01*
X131431128Y-97682143D01*
X131502305Y-97600000D01*
X150494353Y-97600000D01*
X150514834Y-97742456D01*
X150574622Y-97873371D01*
X150574623Y-97873373D01*
X150668872Y-97982143D01*
X150789947Y-98059953D01*
X150789950Y-98059954D01*
X150789949Y-98059954D01*
X150928036Y-98100499D01*
X150928038Y-98100500D01*
X150928039Y-98100500D01*
X151071962Y-98100500D01*
X151071962Y-98100499D01*
X151210053Y-98059953D01*
X151331128Y-97982143D01*
X151425377Y-97873373D01*
X151485165Y-97742457D01*
X151505647Y-97600000D01*
X151485165Y-97457543D01*
X151425377Y-97326627D01*
X151331128Y-97217857D01*
X151210053Y-97140047D01*
X151210051Y-97140046D01*
X151210049Y-97140045D01*
X151210050Y-97140045D01*
X151071963Y-97099500D01*
X151071961Y-97099500D01*
X150928039Y-97099500D01*
X150928036Y-97099500D01*
X150789949Y-97140045D01*
X150668873Y-97217856D01*
X150574623Y-97326626D01*
X150574622Y-97326628D01*
X150514834Y-97457543D01*
X150494353Y-97600000D01*
X131502305Y-97600000D01*
X131525377Y-97573373D01*
X131585165Y-97442457D01*
X131605647Y-97300000D01*
X131585165Y-97157543D01*
X131525377Y-97026627D01*
X131431128Y-96917857D01*
X131310053Y-96840047D01*
X131310051Y-96840046D01*
X131310049Y-96840045D01*
X131310050Y-96840045D01*
X131171963Y-96799500D01*
X131171961Y-96799500D01*
X131028039Y-96799500D01*
X131028036Y-96799500D01*
X130889949Y-96840045D01*
X130768873Y-96917856D01*
X130674623Y-97026626D01*
X130674622Y-97026628D01*
X130614834Y-97157543D01*
X130594353Y-97300000D01*
X101300500Y-97300000D01*
X101300500Y-96041228D01*
X123249500Y-96041228D01*
X123249500Y-96208771D01*
X123282182Y-96373074D01*
X123282184Y-96373082D01*
X123346295Y-96527860D01*
X123439373Y-96667162D01*
X123557837Y-96785626D01*
X123639281Y-96840045D01*
X123697137Y-96878703D01*
X123851918Y-96942816D01*
X124016228Y-96975499D01*
X124016232Y-96975500D01*
X124016233Y-96975500D01*
X124183768Y-96975500D01*
X124183769Y-96975499D01*
X124348082Y-96942816D01*
X124502863Y-96878703D01*
X124642162Y-96785626D01*
X124760626Y-96667162D01*
X124853703Y-96527863D01*
X124917816Y-96373082D01*
X124950500Y-96208767D01*
X124950500Y-96041233D01*
X124917816Y-95876918D01*
X124885955Y-95800000D01*
X150694353Y-95800000D01*
X150714834Y-95942456D01*
X150759945Y-96041233D01*
X150774623Y-96073373D01*
X150868872Y-96182143D01*
X150989947Y-96259953D01*
X150989950Y-96259954D01*
X150989949Y-96259954D01*
X151128036Y-96300499D01*
X151128038Y-96300500D01*
X151128039Y-96300500D01*
X151271962Y-96300500D01*
X151271962Y-96300499D01*
X151410053Y-96259953D01*
X151531128Y-96182143D01*
X151625377Y-96073373D01*
X151685165Y-95942457D01*
X151705647Y-95800000D01*
X151685165Y-95657543D01*
X151625377Y-95526627D01*
X151531128Y-95417857D01*
X151410053Y-95340047D01*
X151410051Y-95340046D01*
X151410049Y-95340045D01*
X151410050Y-95340045D01*
X151271963Y-95299500D01*
X151271961Y-95299500D01*
X151128039Y-95299500D01*
X151128036Y-95299500D01*
X150989949Y-95340045D01*
X150868873Y-95417856D01*
X150774623Y-95526626D01*
X150774622Y-95526628D01*
X150714834Y-95657543D01*
X150694353Y-95800000D01*
X124885955Y-95800000D01*
X124853703Y-95722137D01*
X124822537Y-95675494D01*
X124760626Y-95582837D01*
X124642162Y-95464373D01*
X124502860Y-95371295D01*
X124348082Y-95307184D01*
X124348074Y-95307182D01*
X124183771Y-95274500D01*
X124183767Y-95274500D01*
X124016233Y-95274500D01*
X124016228Y-95274500D01*
X123851925Y-95307182D01*
X123851917Y-95307184D01*
X123697139Y-95371295D01*
X123557837Y-95464373D01*
X123439373Y-95582837D01*
X123346295Y-95722139D01*
X123282184Y-95876917D01*
X123282182Y-95876925D01*
X123249500Y-96041228D01*
X101300500Y-96041228D01*
X101300500Y-95250000D01*
X140544353Y-95250000D01*
X140564834Y-95392456D01*
X140624622Y-95523371D01*
X140624623Y-95523373D01*
X140718872Y-95632143D01*
X140839947Y-95709953D01*
X140839950Y-95709954D01*
X140839949Y-95709954D01*
X140978036Y-95750499D01*
X140978038Y-95750500D01*
X140978039Y-95750500D01*
X141121962Y-95750500D01*
X141121962Y-95750499D01*
X141260053Y-95709953D01*
X141381128Y-95632143D01*
X141475377Y-95523373D01*
X141535165Y-95392457D01*
X141555647Y-95250000D01*
X141535165Y-95107543D01*
X141475377Y-94976627D01*
X141381128Y-94867857D01*
X141275540Y-94800000D01*
X156094353Y-94800000D01*
X156114834Y-94942456D01*
X156174622Y-95073371D01*
X156174623Y-95073373D01*
X156268872Y-95182143D01*
X156389947Y-95259953D01*
X156389950Y-95259954D01*
X156389949Y-95259954D01*
X156497107Y-95291417D01*
X156524633Y-95299500D01*
X156528036Y-95300499D01*
X156528038Y-95300500D01*
X156528039Y-95300500D01*
X156671962Y-95300500D01*
X156671962Y-95300499D01*
X156810053Y-95259953D01*
X156931128Y-95182143D01*
X157025377Y-95073373D01*
X157085165Y-94942457D01*
X157105647Y-94800000D01*
X157085165Y-94657543D01*
X157025377Y-94526627D01*
X156931128Y-94417857D01*
X156810053Y-94340047D01*
X156810051Y-94340046D01*
X156810049Y-94340045D01*
X156810050Y-94340045D01*
X156671963Y-94299500D01*
X156671961Y-94299500D01*
X156528039Y-94299500D01*
X156528036Y-94299500D01*
X156389949Y-94340045D01*
X156268873Y-94417856D01*
X156174623Y-94526626D01*
X156174622Y-94526628D01*
X156114834Y-94657543D01*
X156094353Y-94800000D01*
X141275540Y-94800000D01*
X141260053Y-94790047D01*
X141260051Y-94790046D01*
X141260049Y-94790045D01*
X141260050Y-94790045D01*
X141121963Y-94749500D01*
X141121961Y-94749500D01*
X140978039Y-94749500D01*
X140978036Y-94749500D01*
X140839949Y-94790045D01*
X140718873Y-94867856D01*
X140624623Y-94976626D01*
X140624622Y-94976628D01*
X140564834Y-95107543D01*
X140544353Y-95250000D01*
X101300500Y-95250000D01*
X101300500Y-93501228D01*
X123249500Y-93501228D01*
X123249500Y-93668771D01*
X123282182Y-93833074D01*
X123282184Y-93833082D01*
X123346295Y-93987860D01*
X123439373Y-94127162D01*
X123557837Y-94245626D01*
X123616696Y-94284954D01*
X123697137Y-94338703D01*
X123697138Y-94338703D01*
X123697139Y-94338704D01*
X123732201Y-94353227D01*
X123851918Y-94402816D01*
X124016228Y-94435499D01*
X124016232Y-94435500D01*
X124016233Y-94435500D01*
X124183768Y-94435500D01*
X124183769Y-94435499D01*
X124348082Y-94402816D01*
X124502863Y-94338703D01*
X124642162Y-94245626D01*
X124760626Y-94127162D01*
X124853703Y-93987863D01*
X124917816Y-93833082D01*
X124924396Y-93800000D01*
X136594353Y-93800000D01*
X136614834Y-93942456D01*
X136626252Y-93967457D01*
X136674623Y-94073373D01*
X136768872Y-94182143D01*
X136889947Y-94259953D01*
X136889950Y-94259954D01*
X136889949Y-94259954D01*
X136997107Y-94291417D01*
X137024633Y-94299500D01*
X137028036Y-94300499D01*
X137028038Y-94300500D01*
X137028039Y-94300500D01*
X137171962Y-94300500D01*
X137171962Y-94300499D01*
X137310053Y-94259953D01*
X137431128Y-94182143D01*
X137525377Y-94073373D01*
X137585165Y-93942457D01*
X137605647Y-93800000D01*
X137585165Y-93657543D01*
X137558886Y-93600000D01*
X150294353Y-93600000D01*
X150314834Y-93742456D01*
X150374622Y-93873371D01*
X150374623Y-93873373D01*
X150468872Y-93982143D01*
X150589947Y-94059953D01*
X150589950Y-94059954D01*
X150589949Y-94059954D01*
X150697107Y-94091417D01*
X150720788Y-94098371D01*
X150728036Y-94100499D01*
X150728038Y-94100500D01*
X150728039Y-94100500D01*
X150871962Y-94100500D01*
X150871962Y-94100499D01*
X151010053Y-94059953D01*
X151131128Y-93982143D01*
X151225377Y-93873373D01*
X151247468Y-93825000D01*
X173969353Y-93825000D01*
X173989834Y-93967456D01*
X173999154Y-93987863D01*
X174049623Y-94098373D01*
X174143872Y-94207143D01*
X174264947Y-94284953D01*
X174264950Y-94284954D01*
X174264949Y-94284954D01*
X174403036Y-94325499D01*
X174403038Y-94325500D01*
X174403039Y-94325500D01*
X174546962Y-94325500D01*
X174546962Y-94325499D01*
X174685053Y-94284953D01*
X174806128Y-94207143D01*
X174900377Y-94098373D01*
X174960165Y-93967457D01*
X174980647Y-93825000D01*
X174960165Y-93682543D01*
X174900377Y-93551627D01*
X174806128Y-93442857D01*
X174685053Y-93365047D01*
X174685051Y-93365046D01*
X174685049Y-93365045D01*
X174685050Y-93365045D01*
X174546963Y-93324500D01*
X174546961Y-93324500D01*
X174403039Y-93324500D01*
X174403036Y-93324500D01*
X174264949Y-93365045D01*
X174143873Y-93442856D01*
X174049623Y-93551626D01*
X174049622Y-93551628D01*
X173989834Y-93682543D01*
X173969353Y-93825000D01*
X151247468Y-93825000D01*
X151285165Y-93742457D01*
X151305647Y-93600000D01*
X151285165Y-93457543D01*
X151225377Y-93326627D01*
X151131128Y-93217857D01*
X151010053Y-93140047D01*
X151010051Y-93140046D01*
X151010049Y-93140045D01*
X151010050Y-93140045D01*
X150871963Y-93099500D01*
X150871961Y-93099500D01*
X150728039Y-93099500D01*
X150728036Y-93099500D01*
X150589949Y-93140045D01*
X150468873Y-93217856D01*
X150374623Y-93326626D01*
X150374622Y-93326628D01*
X150314834Y-93457543D01*
X150294353Y-93600000D01*
X137558886Y-93600000D01*
X137525377Y-93526627D01*
X137431128Y-93417857D01*
X137310053Y-93340047D01*
X137310051Y-93340046D01*
X137310049Y-93340045D01*
X137310050Y-93340045D01*
X137171963Y-93299500D01*
X137171961Y-93299500D01*
X137028039Y-93299500D01*
X137028036Y-93299500D01*
X136889949Y-93340045D01*
X136768873Y-93417856D01*
X136674623Y-93526626D01*
X136674622Y-93526628D01*
X136614834Y-93657543D01*
X136594353Y-93800000D01*
X124924396Y-93800000D01*
X124950500Y-93668767D01*
X124950500Y-93501233D01*
X124917816Y-93336918D01*
X124855440Y-93186330D01*
X124853704Y-93182139D01*
X124760626Y-93042837D01*
X124642162Y-92924373D01*
X124502860Y-92831295D01*
X124348082Y-92767184D01*
X124348074Y-92767182D01*
X124183771Y-92734500D01*
X124183767Y-92734500D01*
X124016233Y-92734500D01*
X124016228Y-92734500D01*
X123851925Y-92767182D01*
X123851917Y-92767184D01*
X123697139Y-92831295D01*
X123557837Y-92924373D01*
X123439373Y-93042837D01*
X123346295Y-93182139D01*
X123282184Y-93336917D01*
X123282182Y-93336925D01*
X123249500Y-93501228D01*
X101300500Y-93501228D01*
X101300500Y-92649999D01*
X131194750Y-92649999D01*
X131194750Y-92650000D01*
X131213670Y-92793708D01*
X131213671Y-92793712D01*
X131269137Y-92927622D01*
X131269138Y-92927624D01*
X131269139Y-92927625D01*
X131357379Y-93042621D01*
X131472375Y-93130861D01*
X131606291Y-93186330D01*
X131733280Y-93203048D01*
X131749999Y-93205250D01*
X131750000Y-93205250D01*
X131750001Y-93205250D01*
X131764977Y-93203278D01*
X131893709Y-93186330D01*
X132027625Y-93130861D01*
X132142621Y-93042621D01*
X132230861Y-92927625D01*
X132286330Y-92793709D01*
X132305250Y-92650000D01*
X132286330Y-92506291D01*
X132232211Y-92375634D01*
X132230862Y-92372377D01*
X132230861Y-92372376D01*
X132230861Y-92372375D01*
X132142621Y-92257379D01*
X132027625Y-92169139D01*
X132027624Y-92169138D01*
X132027622Y-92169137D01*
X131893712Y-92113671D01*
X131893710Y-92113670D01*
X131893709Y-92113670D01*
X131789877Y-92100000D01*
X131750001Y-92094750D01*
X131749999Y-92094750D01*
X131606291Y-92113670D01*
X131606287Y-92113671D01*
X131472377Y-92169137D01*
X131357379Y-92257379D01*
X131269137Y-92372377D01*
X131213671Y-92506287D01*
X131213670Y-92506291D01*
X131194750Y-92649999D01*
X101300500Y-92649999D01*
X101300500Y-91700000D01*
X118894353Y-91700000D01*
X118914834Y-91842456D01*
X118974622Y-91973371D01*
X118974623Y-91973373D01*
X119068872Y-92082143D01*
X119189947Y-92159953D01*
X119189950Y-92159954D01*
X119189949Y-92159954D01*
X119328036Y-92200499D01*
X119328038Y-92200500D01*
X119328039Y-92200500D01*
X119471962Y-92200500D01*
X119471962Y-92200499D01*
X119610053Y-92159953D01*
X119731128Y-92082143D01*
X119825377Y-91973373D01*
X119885165Y-91842457D01*
X119905647Y-91700000D01*
X119885165Y-91557543D01*
X119825377Y-91426627D01*
X119731128Y-91317857D01*
X119610053Y-91240047D01*
X119610051Y-91240046D01*
X119610049Y-91240045D01*
X119610050Y-91240045D01*
X119471963Y-91199500D01*
X119471961Y-91199500D01*
X119328039Y-91199500D01*
X119328036Y-91199500D01*
X119189949Y-91240045D01*
X119068873Y-91317856D01*
X118974623Y-91426626D01*
X118974622Y-91426628D01*
X118914834Y-91557543D01*
X118894353Y-91700000D01*
X101300500Y-91700000D01*
X101300500Y-90500000D01*
X115344750Y-90500000D01*
X115350674Y-90545000D01*
X115363670Y-90643708D01*
X115363671Y-90643712D01*
X115419137Y-90777622D01*
X115419138Y-90777624D01*
X115419139Y-90777625D01*
X115507379Y-90892621D01*
X115622375Y-90980861D01*
X115756291Y-91036330D01*
X115883280Y-91053048D01*
X115899999Y-91055250D01*
X115900000Y-91055250D01*
X115900001Y-91055250D01*
X115914977Y-91053278D01*
X116043709Y-91036330D01*
X116177625Y-90980861D01*
X116292621Y-90892621D01*
X116367529Y-90794999D01*
X122769364Y-90794999D01*
X122769364Y-90795000D01*
X123666988Y-90795000D01*
X123634075Y-90852007D01*
X123600000Y-90979174D01*
X123600000Y-91110826D01*
X123634075Y-91237993D01*
X123666988Y-91295000D01*
X122769364Y-91295000D01*
X122826567Y-91508486D01*
X122826570Y-91508492D01*
X122926399Y-91722578D01*
X123061894Y-91916082D01*
X123228917Y-92083105D01*
X123422421Y-92218600D01*
X123636507Y-92318429D01*
X123636516Y-92318433D01*
X123850000Y-92375634D01*
X123850000Y-91478012D01*
X123907007Y-91510925D01*
X124034174Y-91545000D01*
X124165826Y-91545000D01*
X124292993Y-91510925D01*
X124350000Y-91478012D01*
X124350000Y-92375633D01*
X124563483Y-92318433D01*
X124563492Y-92318429D01*
X124777578Y-92218600D01*
X124971082Y-92083105D01*
X125138105Y-91916082D01*
X125219388Y-91800000D01*
X136594353Y-91800000D01*
X136614834Y-91942456D01*
X136660504Y-92042457D01*
X136674623Y-92073373D01*
X136768872Y-92182143D01*
X136889947Y-92259953D01*
X136889950Y-92259954D01*
X136889949Y-92259954D01*
X137028036Y-92300499D01*
X137028038Y-92300500D01*
X137028039Y-92300500D01*
X137171962Y-92300500D01*
X137171962Y-92300499D01*
X137310053Y-92259953D01*
X137431128Y-92182143D01*
X137525377Y-92073373D01*
X137585165Y-91942457D01*
X137591269Y-91900000D01*
X150594353Y-91900000D01*
X150614834Y-92042456D01*
X150668494Y-92159953D01*
X150674623Y-92173373D01*
X150768872Y-92282143D01*
X150889947Y-92359953D01*
X150889950Y-92359954D01*
X150889949Y-92359954D01*
X151028036Y-92400499D01*
X151028038Y-92400500D01*
X151028039Y-92400500D01*
X151171962Y-92400500D01*
X151171962Y-92400499D01*
X151310053Y-92359953D01*
X151431128Y-92282143D01*
X151525377Y-92173373D01*
X151585165Y-92042457D01*
X151605647Y-91900000D01*
X151591269Y-91800000D01*
X154494353Y-91800000D01*
X154514834Y-91942456D01*
X154560504Y-92042457D01*
X154574623Y-92073373D01*
X154668872Y-92182143D01*
X154789947Y-92259953D01*
X154789950Y-92259954D01*
X154789949Y-92259954D01*
X154928036Y-92300499D01*
X154928038Y-92300500D01*
X154928039Y-92300500D01*
X155071962Y-92300500D01*
X155071962Y-92300499D01*
X155210053Y-92259953D01*
X155331128Y-92182143D01*
X155402305Y-92100000D01*
X173894353Y-92100000D01*
X173914834Y-92242456D01*
X173949532Y-92318433D01*
X173974623Y-92373373D01*
X174068872Y-92482143D01*
X174189947Y-92559953D01*
X174189950Y-92559954D01*
X174189949Y-92559954D01*
X174328036Y-92600499D01*
X174328038Y-92600500D01*
X174328039Y-92600500D01*
X174471962Y-92600500D01*
X174471962Y-92600499D01*
X174610053Y-92559953D01*
X174731128Y-92482143D01*
X174825377Y-92373373D01*
X174885165Y-92242457D01*
X174905647Y-92100000D01*
X174885165Y-91957543D01*
X174825377Y-91826627D01*
X174731128Y-91717857D01*
X174610053Y-91640047D01*
X174610051Y-91640046D01*
X174610049Y-91640045D01*
X174610050Y-91640045D01*
X174471963Y-91599500D01*
X174471961Y-91599500D01*
X174328039Y-91599500D01*
X174328036Y-91599500D01*
X174189949Y-91640045D01*
X174068873Y-91717856D01*
X173974623Y-91826626D01*
X173974622Y-91826628D01*
X173914834Y-91957543D01*
X173894353Y-92100000D01*
X155402305Y-92100000D01*
X155425377Y-92073373D01*
X155485165Y-91942457D01*
X155505647Y-91800000D01*
X155485165Y-91657543D01*
X155425377Y-91526627D01*
X155331128Y-91417857D01*
X155210053Y-91340047D01*
X155210051Y-91340046D01*
X155210049Y-91340045D01*
X155210050Y-91340045D01*
X155071963Y-91299500D01*
X155071961Y-91299500D01*
X154928039Y-91299500D01*
X154928036Y-91299500D01*
X154789949Y-91340045D01*
X154668873Y-91417856D01*
X154574623Y-91526626D01*
X154574622Y-91526628D01*
X154514834Y-91657543D01*
X154494353Y-91800000D01*
X151591269Y-91800000D01*
X151585165Y-91757543D01*
X151525377Y-91626627D01*
X151431128Y-91517857D01*
X151310053Y-91440047D01*
X151310051Y-91440046D01*
X151310049Y-91440045D01*
X151310050Y-91440045D01*
X151171963Y-91399500D01*
X151171961Y-91399500D01*
X151028039Y-91399500D01*
X151028036Y-91399500D01*
X150889949Y-91440045D01*
X150768873Y-91517856D01*
X150674623Y-91626626D01*
X150674622Y-91626628D01*
X150614834Y-91757543D01*
X150594353Y-91900000D01*
X137591269Y-91900000D01*
X137605647Y-91800000D01*
X137585165Y-91657543D01*
X137525377Y-91526627D01*
X137431128Y-91417857D01*
X137310053Y-91340047D01*
X137310051Y-91340046D01*
X137310049Y-91340045D01*
X137310050Y-91340045D01*
X137171963Y-91299500D01*
X137171961Y-91299500D01*
X137028039Y-91299500D01*
X137028036Y-91299500D01*
X136889949Y-91340045D01*
X136768873Y-91417856D01*
X136674623Y-91526626D01*
X136674622Y-91526628D01*
X136614834Y-91657543D01*
X136594353Y-91800000D01*
X125219388Y-91800000D01*
X125273600Y-91722578D01*
X125373429Y-91508492D01*
X125373432Y-91508486D01*
X125430636Y-91295000D01*
X124533012Y-91295000D01*
X124565925Y-91237993D01*
X124600000Y-91110826D01*
X124600000Y-91050000D01*
X148744353Y-91050000D01*
X148764834Y-91192456D01*
X148811665Y-91295000D01*
X148824623Y-91323373D01*
X148918872Y-91432143D01*
X149039947Y-91509953D01*
X149039950Y-91509954D01*
X149039949Y-91509954D01*
X149178036Y-91550499D01*
X149178038Y-91550500D01*
X149178039Y-91550500D01*
X149321962Y-91550500D01*
X149321962Y-91550499D01*
X149460053Y-91509953D01*
X149581128Y-91432143D01*
X149675377Y-91323373D01*
X149735165Y-91192457D01*
X149755647Y-91050000D01*
X149735165Y-90907543D01*
X149675377Y-90776627D01*
X149581128Y-90667857D01*
X149460053Y-90590047D01*
X149460051Y-90590046D01*
X149460049Y-90590045D01*
X149460050Y-90590045D01*
X149321963Y-90549500D01*
X149321961Y-90549500D01*
X149178039Y-90549500D01*
X149178036Y-90549500D01*
X149039949Y-90590045D01*
X148918873Y-90667856D01*
X148824623Y-90776626D01*
X148824622Y-90776628D01*
X148764834Y-90907543D01*
X148744353Y-91050000D01*
X124600000Y-91050000D01*
X124600000Y-90979174D01*
X124565925Y-90852007D01*
X124533012Y-90795000D01*
X125430636Y-90795000D01*
X125430635Y-90794999D01*
X125373432Y-90581513D01*
X125373429Y-90581507D01*
X125335422Y-90500000D01*
X155694353Y-90500000D01*
X155714834Y-90642456D01*
X155728953Y-90673371D01*
X155774623Y-90773373D01*
X155868872Y-90882143D01*
X155989947Y-90959953D01*
X155989950Y-90959954D01*
X155989949Y-90959954D01*
X156128036Y-91000499D01*
X156128038Y-91000500D01*
X156128039Y-91000500D01*
X156271962Y-91000500D01*
X156271962Y-91000499D01*
X156410053Y-90959953D01*
X156531128Y-90882143D01*
X156625377Y-90773373D01*
X156685165Y-90642457D01*
X156705647Y-90500000D01*
X156691269Y-90400000D01*
X173869353Y-90400000D01*
X173889834Y-90542456D01*
X173935504Y-90642457D01*
X173949623Y-90673373D01*
X174043872Y-90782143D01*
X174164947Y-90859953D01*
X174164950Y-90859954D01*
X174164949Y-90859954D01*
X174303036Y-90900499D01*
X174303038Y-90900500D01*
X174303039Y-90900500D01*
X174446962Y-90900500D01*
X174446962Y-90900499D01*
X174585053Y-90859953D01*
X174706128Y-90782143D01*
X174800377Y-90673373D01*
X174860165Y-90542457D01*
X174880647Y-90400000D01*
X174860165Y-90257543D01*
X174800377Y-90126627D01*
X174706128Y-90017857D01*
X174585053Y-89940047D01*
X174585051Y-89940046D01*
X174585049Y-89940045D01*
X174585050Y-89940045D01*
X174446963Y-89899500D01*
X174446961Y-89899500D01*
X174303039Y-89899500D01*
X174303036Y-89899500D01*
X174164949Y-89940045D01*
X174043873Y-90017856D01*
X173949623Y-90126626D01*
X173949622Y-90126628D01*
X173889834Y-90257543D01*
X173869353Y-90400000D01*
X156691269Y-90400000D01*
X156685165Y-90357543D01*
X156625377Y-90226627D01*
X156531128Y-90117857D01*
X156410053Y-90040047D01*
X156410051Y-90040046D01*
X156410049Y-90040045D01*
X156410050Y-90040045D01*
X156271963Y-89999500D01*
X156271961Y-89999500D01*
X156128039Y-89999500D01*
X156128036Y-89999500D01*
X155989949Y-90040045D01*
X155868873Y-90117856D01*
X155774623Y-90226626D01*
X155774622Y-90226628D01*
X155714834Y-90357543D01*
X155694353Y-90500000D01*
X125335422Y-90500000D01*
X125273600Y-90367422D01*
X125273599Y-90367420D01*
X125138113Y-90173926D01*
X125138108Y-90173920D01*
X124971082Y-90006894D01*
X124818424Y-89900000D01*
X133394353Y-89900000D01*
X133414834Y-90042456D01*
X133453275Y-90126628D01*
X133474623Y-90173373D01*
X133568872Y-90282143D01*
X133689947Y-90359953D01*
X133689950Y-90359954D01*
X133689949Y-90359954D01*
X133797107Y-90391417D01*
X133826336Y-90400000D01*
X133828036Y-90400499D01*
X133828038Y-90400500D01*
X133828039Y-90400500D01*
X133971962Y-90400500D01*
X133971962Y-90400499D01*
X134084616Y-90367422D01*
X134110050Y-90359954D01*
X134110050Y-90359953D01*
X134110053Y-90359953D01*
X134231128Y-90282143D01*
X134325377Y-90173373D01*
X134385165Y-90042457D01*
X134405647Y-89900000D01*
X134385165Y-89757543D01*
X134325377Y-89626627D01*
X134231128Y-89517857D01*
X134110053Y-89440047D01*
X134110051Y-89440046D01*
X134110049Y-89440045D01*
X134110050Y-89440045D01*
X133971963Y-89399500D01*
X133971961Y-89399500D01*
X133828039Y-89399500D01*
X133828036Y-89399500D01*
X133689949Y-89440045D01*
X133568873Y-89517856D01*
X133474623Y-89626626D01*
X133474622Y-89626628D01*
X133414834Y-89757543D01*
X133394353Y-89900000D01*
X124818424Y-89900000D01*
X124777578Y-89871399D01*
X124563492Y-89771570D01*
X124563486Y-89771567D01*
X124350000Y-89714364D01*
X124350000Y-90611988D01*
X124292993Y-90579075D01*
X124165826Y-90545000D01*
X124034174Y-90545000D01*
X123907007Y-90579075D01*
X123850000Y-90611988D01*
X123850000Y-89714364D01*
X123849999Y-89714364D01*
X123636513Y-89771567D01*
X123636507Y-89771570D01*
X123422422Y-89871399D01*
X123422420Y-89871400D01*
X123228926Y-90006886D01*
X123228920Y-90006891D01*
X123061891Y-90173920D01*
X123061886Y-90173926D01*
X122926400Y-90367420D01*
X122926399Y-90367422D01*
X122826570Y-90581507D01*
X122826567Y-90581513D01*
X122769364Y-90794999D01*
X116367529Y-90794999D01*
X116380861Y-90777625D01*
X116436330Y-90643709D01*
X116455250Y-90500000D01*
X116436330Y-90356291D01*
X116380861Y-90222375D01*
X116292621Y-90107379D01*
X116177625Y-90019139D01*
X116177624Y-90019138D01*
X116177622Y-90019137D01*
X116043712Y-89963671D01*
X116043710Y-89963670D01*
X116043709Y-89963670D01*
X115971854Y-89954210D01*
X115900001Y-89944750D01*
X115899999Y-89944750D01*
X115756291Y-89963670D01*
X115756287Y-89963671D01*
X115622377Y-90019137D01*
X115507379Y-90107379D01*
X115419137Y-90222377D01*
X115363671Y-90356287D01*
X115363670Y-90356291D01*
X115344750Y-90500000D01*
X101300500Y-90500000D01*
X101300500Y-89099999D01*
X115344750Y-89099999D01*
X115344750Y-89100000D01*
X115363670Y-89243708D01*
X115363671Y-89243712D01*
X115419137Y-89377622D01*
X115419138Y-89377624D01*
X115419139Y-89377625D01*
X115507379Y-89492621D01*
X115622375Y-89580861D01*
X115756291Y-89636330D01*
X115883280Y-89653048D01*
X115899999Y-89655250D01*
X115900000Y-89655250D01*
X115900001Y-89655250D01*
X115914977Y-89653278D01*
X116043709Y-89636330D01*
X116177625Y-89580861D01*
X116292621Y-89492621D01*
X116380861Y-89377625D01*
X116436330Y-89243709D01*
X116455250Y-89100000D01*
X116436330Y-88956291D01*
X116380861Y-88822375D01*
X116292621Y-88707379D01*
X116283005Y-88700000D01*
X136894353Y-88700000D01*
X136914834Y-88842456D01*
X136932959Y-88882143D01*
X136974623Y-88973373D01*
X137068872Y-89082143D01*
X137189947Y-89159953D01*
X137189950Y-89159954D01*
X137189949Y-89159954D01*
X137328036Y-89200499D01*
X137328038Y-89200500D01*
X137328039Y-89200500D01*
X137471962Y-89200500D01*
X137471962Y-89200499D01*
X137610053Y-89159953D01*
X137731128Y-89082143D01*
X137825377Y-88973373D01*
X137885165Y-88842457D01*
X137905647Y-88700000D01*
X137885165Y-88557543D01*
X137858886Y-88500000D01*
X138694353Y-88500000D01*
X138714834Y-88642456D01*
X138741114Y-88700000D01*
X138774623Y-88773373D01*
X138868872Y-88882143D01*
X138989947Y-88959953D01*
X138989950Y-88959954D01*
X138989949Y-88959954D01*
X139128036Y-89000499D01*
X139128038Y-89000500D01*
X139128039Y-89000500D01*
X139271962Y-89000500D01*
X139271962Y-89000499D01*
X139410053Y-88959953D01*
X139531128Y-88882143D01*
X139625377Y-88773373D01*
X139685165Y-88642457D01*
X139705647Y-88500000D01*
X139685165Y-88357543D01*
X139625377Y-88226627D01*
X139531128Y-88117857D01*
X139410053Y-88040047D01*
X139410051Y-88040046D01*
X139410049Y-88040045D01*
X139410050Y-88040045D01*
X139271963Y-87999500D01*
X139271961Y-87999500D01*
X139128039Y-87999500D01*
X139128036Y-87999500D01*
X138989949Y-88040045D01*
X138868873Y-88117856D01*
X138774623Y-88226626D01*
X138774622Y-88226628D01*
X138714834Y-88357543D01*
X138694353Y-88500000D01*
X137858886Y-88500000D01*
X137825377Y-88426627D01*
X137731128Y-88317857D01*
X137610053Y-88240047D01*
X137610051Y-88240046D01*
X137610049Y-88240045D01*
X137610050Y-88240045D01*
X137471963Y-88199500D01*
X137471961Y-88199500D01*
X137328039Y-88199500D01*
X137328036Y-88199500D01*
X137189949Y-88240045D01*
X137068873Y-88317856D01*
X136974623Y-88426626D01*
X136974622Y-88426628D01*
X136914834Y-88557543D01*
X136894353Y-88700000D01*
X116283005Y-88700000D01*
X116177625Y-88619139D01*
X116177624Y-88619138D01*
X116177622Y-88619137D01*
X116043712Y-88563671D01*
X116043710Y-88563670D01*
X116043709Y-88563670D01*
X115971854Y-88554210D01*
X115900001Y-88544750D01*
X115899999Y-88544750D01*
X115756291Y-88563670D01*
X115756287Y-88563671D01*
X115622377Y-88619137D01*
X115507379Y-88707379D01*
X115419137Y-88822377D01*
X115363671Y-88956287D01*
X115363670Y-88956291D01*
X115344750Y-89099999D01*
X101300500Y-89099999D01*
X101300500Y-85996228D01*
X105149500Y-85996228D01*
X105149500Y-86163771D01*
X105182182Y-86328074D01*
X105182184Y-86328082D01*
X105246295Y-86482860D01*
X105339373Y-86622162D01*
X105457837Y-86740626D01*
X105546697Y-86800000D01*
X105597137Y-86833703D01*
X105751918Y-86897816D01*
X105916228Y-86930499D01*
X105916232Y-86930500D01*
X105916233Y-86930500D01*
X106083768Y-86930500D01*
X106083769Y-86930499D01*
X106248082Y-86897816D01*
X106402863Y-86833703D01*
X106542162Y-86740626D01*
X106660626Y-86622162D01*
X106753703Y-86482863D01*
X106817816Y-86328082D01*
X106850500Y-86163767D01*
X106850500Y-85996233D01*
X106817816Y-85831918D01*
X106753703Y-85677137D01*
X106711566Y-85614075D01*
X106660626Y-85537837D01*
X106542162Y-85419373D01*
X106402860Y-85326295D01*
X106248082Y-85262184D01*
X106248074Y-85262182D01*
X106083771Y-85229500D01*
X106083767Y-85229500D01*
X105916233Y-85229500D01*
X105916228Y-85229500D01*
X105751925Y-85262182D01*
X105751917Y-85262184D01*
X105597139Y-85326295D01*
X105457837Y-85419373D01*
X105339373Y-85537837D01*
X105246295Y-85677139D01*
X105182184Y-85831917D01*
X105182182Y-85831925D01*
X105149500Y-85996228D01*
X101300500Y-85996228D01*
X101300500Y-85182155D01*
X107190000Y-85182155D01*
X107190000Y-85830000D01*
X108106988Y-85830000D01*
X108074075Y-85887007D01*
X108040000Y-86014174D01*
X108040000Y-86145826D01*
X108074075Y-86272993D01*
X108106988Y-86330000D01*
X107190000Y-86330000D01*
X107190000Y-86977844D01*
X107196401Y-87037372D01*
X107196403Y-87037379D01*
X107246645Y-87172086D01*
X107246649Y-87172093D01*
X107332809Y-87287187D01*
X107332812Y-87287190D01*
X107447906Y-87373350D01*
X107447913Y-87373354D01*
X107582620Y-87423596D01*
X107582627Y-87423598D01*
X107642155Y-87429999D01*
X107642172Y-87430000D01*
X108290000Y-87430000D01*
X108290000Y-86513012D01*
X108347007Y-86545925D01*
X108474174Y-86580000D01*
X108605826Y-86580000D01*
X108732993Y-86545925D01*
X108790000Y-86513012D01*
X108790000Y-87430000D01*
X109437828Y-87430000D01*
X109437844Y-87429999D01*
X109497372Y-87423598D01*
X109497379Y-87423596D01*
X109632086Y-87373354D01*
X109632093Y-87373350D01*
X109747187Y-87287190D01*
X109747190Y-87287187D01*
X109833350Y-87172093D01*
X109833354Y-87172086D01*
X109883596Y-87037379D01*
X109883598Y-87037372D01*
X109889999Y-86977844D01*
X109890000Y-86977827D01*
X109890000Y-86816228D01*
X112594500Y-86816228D01*
X112594500Y-86983771D01*
X112627182Y-87148074D01*
X112627184Y-87148082D01*
X112691295Y-87302860D01*
X112784373Y-87442162D01*
X112902837Y-87560626D01*
X112995494Y-87622537D01*
X113042137Y-87653703D01*
X113196918Y-87717816D01*
X113361228Y-87750499D01*
X113361232Y-87750500D01*
X113361233Y-87750500D01*
X113528768Y-87750500D01*
X113528769Y-87750499D01*
X113693082Y-87717816D01*
X113847863Y-87653703D01*
X113987162Y-87560626D01*
X114105626Y-87442162D01*
X114198703Y-87302863D01*
X114262816Y-87148082D01*
X114295500Y-86983767D01*
X114295500Y-86816233D01*
X114295499Y-86816228D01*
X115134500Y-86816228D01*
X115134500Y-86983771D01*
X115167182Y-87148074D01*
X115167184Y-87148082D01*
X115231295Y-87302860D01*
X115324373Y-87442162D01*
X115442837Y-87560626D01*
X115535494Y-87622537D01*
X115582137Y-87653703D01*
X115736918Y-87717816D01*
X115901228Y-87750499D01*
X115901232Y-87750500D01*
X115901233Y-87750500D01*
X116068768Y-87750500D01*
X116068769Y-87750499D01*
X116233082Y-87717816D01*
X116387863Y-87653703D01*
X116527162Y-87560626D01*
X116645626Y-87442162D01*
X116738703Y-87302863D01*
X116802816Y-87148082D01*
X116835500Y-86983767D01*
X116835500Y-86816233D01*
X116835499Y-86816228D01*
X117674500Y-86816228D01*
X117674500Y-86983771D01*
X117707182Y-87148074D01*
X117707184Y-87148082D01*
X117771295Y-87302860D01*
X117864373Y-87442162D01*
X117982837Y-87560626D01*
X118075494Y-87622537D01*
X118122137Y-87653703D01*
X118276918Y-87717816D01*
X118441228Y-87750499D01*
X118441232Y-87750500D01*
X118441233Y-87750500D01*
X118608768Y-87750500D01*
X118608769Y-87750499D01*
X118773082Y-87717816D01*
X118927863Y-87653703D01*
X119067162Y-87560626D01*
X119185626Y-87442162D01*
X119278703Y-87302863D01*
X119342816Y-87148082D01*
X119375500Y-86983767D01*
X119375500Y-86816233D01*
X119372271Y-86800000D01*
X130794353Y-86800000D01*
X130814834Y-86942456D01*
X130858185Y-87037379D01*
X130874623Y-87073373D01*
X130968872Y-87182143D01*
X131089947Y-87259953D01*
X131089950Y-87259954D01*
X131089949Y-87259954D01*
X131228036Y-87300499D01*
X131228038Y-87300500D01*
X131228039Y-87300500D01*
X131371962Y-87300500D01*
X131371962Y-87300499D01*
X131510053Y-87259953D01*
X131631128Y-87182143D01*
X131725377Y-87073373D01*
X131785165Y-86942457D01*
X131805647Y-86800000D01*
X131785165Y-86657543D01*
X131725377Y-86526627D01*
X131702304Y-86499999D01*
X148944750Y-86499999D01*
X148944750Y-86500000D01*
X148963670Y-86643708D01*
X148963671Y-86643712D01*
X149019137Y-86777622D01*
X149019138Y-86777624D01*
X149019139Y-86777625D01*
X149107379Y-86892621D01*
X149222375Y-86980861D01*
X149222376Y-86980861D01*
X149222377Y-86980862D01*
X149229393Y-86983768D01*
X149356291Y-87036330D01*
X149483280Y-87053048D01*
X149499999Y-87055250D01*
X149500000Y-87055250D01*
X149500001Y-87055250D01*
X149514977Y-87053278D01*
X149643709Y-87036330D01*
X149777625Y-86980861D01*
X149892621Y-86892621D01*
X149980861Y-86777625D01*
X150036330Y-86643709D01*
X150055250Y-86500000D01*
X150036330Y-86356291D01*
X149980861Y-86222375D01*
X149892621Y-86107379D01*
X149777625Y-86019139D01*
X149777624Y-86019138D01*
X149777622Y-86019137D01*
X149643712Y-85963671D01*
X149643710Y-85963670D01*
X149643709Y-85963670D01*
X149571854Y-85954210D01*
X149500001Y-85944750D01*
X149499999Y-85944750D01*
X149356291Y-85963670D01*
X149356287Y-85963671D01*
X149222377Y-86019137D01*
X149107379Y-86107379D01*
X149019137Y-86222377D01*
X148963671Y-86356287D01*
X148963670Y-86356291D01*
X148944750Y-86499999D01*
X131702304Y-86499999D01*
X131631128Y-86417857D01*
X131510053Y-86340047D01*
X131510051Y-86340046D01*
X131510049Y-86340045D01*
X131510050Y-86340045D01*
X131371963Y-86299500D01*
X131371961Y-86299500D01*
X131228039Y-86299500D01*
X131228036Y-86299500D01*
X131089949Y-86340045D01*
X130968873Y-86417856D01*
X130874623Y-86526626D01*
X130874622Y-86526628D01*
X130814834Y-86657543D01*
X130794353Y-86800000D01*
X119372271Y-86800000D01*
X119342816Y-86651918D01*
X119279889Y-86500000D01*
X119278704Y-86497139D01*
X119267318Y-86480099D01*
X119225729Y-86417856D01*
X119185626Y-86357837D01*
X119067162Y-86239373D01*
X118927860Y-86146295D01*
X118773082Y-86082184D01*
X118773074Y-86082182D01*
X118608771Y-86049500D01*
X118608767Y-86049500D01*
X118441233Y-86049500D01*
X118441228Y-86049500D01*
X118276925Y-86082182D01*
X118276917Y-86082184D01*
X118122139Y-86146295D01*
X117982837Y-86239373D01*
X117864373Y-86357837D01*
X117771295Y-86497139D01*
X117707184Y-86651917D01*
X117707182Y-86651925D01*
X117674500Y-86816228D01*
X116835499Y-86816228D01*
X116802816Y-86651918D01*
X116739889Y-86500000D01*
X116738704Y-86497139D01*
X116727318Y-86480099D01*
X116685729Y-86417856D01*
X116645626Y-86357837D01*
X116527162Y-86239373D01*
X116387860Y-86146295D01*
X116233082Y-86082184D01*
X116233074Y-86082182D01*
X116068771Y-86049500D01*
X116068767Y-86049500D01*
X115901233Y-86049500D01*
X115901228Y-86049500D01*
X115736925Y-86082182D01*
X115736917Y-86082184D01*
X115582139Y-86146295D01*
X115442837Y-86239373D01*
X115324373Y-86357837D01*
X115231295Y-86497139D01*
X115167184Y-86651917D01*
X115167182Y-86651925D01*
X115134500Y-86816228D01*
X114295499Y-86816228D01*
X114262816Y-86651918D01*
X114199889Y-86500000D01*
X114198704Y-86497139D01*
X114187318Y-86480099D01*
X114145729Y-86417856D01*
X114105626Y-86357837D01*
X113987162Y-86239373D01*
X113847860Y-86146295D01*
X113693082Y-86082184D01*
X113693074Y-86082182D01*
X113528771Y-86049500D01*
X113528767Y-86049500D01*
X113361233Y-86049500D01*
X113361228Y-86049500D01*
X113196925Y-86082182D01*
X113196917Y-86082184D01*
X113042139Y-86146295D01*
X112902837Y-86239373D01*
X112784373Y-86357837D01*
X112691295Y-86497139D01*
X112627184Y-86651917D01*
X112627182Y-86651925D01*
X112594500Y-86816228D01*
X109890000Y-86816228D01*
X109890000Y-86330000D01*
X108973012Y-86330000D01*
X109005925Y-86272993D01*
X109040000Y-86145826D01*
X109040000Y-86014174D01*
X109005925Y-85887007D01*
X108973012Y-85830000D01*
X109890000Y-85830000D01*
X109890000Y-85600000D01*
X151244750Y-85600000D01*
X151254905Y-85677137D01*
X151263670Y-85743708D01*
X151263671Y-85743712D01*
X151319137Y-85877622D01*
X151319138Y-85877624D01*
X151319139Y-85877625D01*
X151407379Y-85992621D01*
X151522375Y-86080861D01*
X151656291Y-86136330D01*
X151783280Y-86153048D01*
X151799999Y-86155250D01*
X151800000Y-86155250D01*
X151800001Y-86155250D01*
X151814977Y-86153278D01*
X151943709Y-86136330D01*
X152077625Y-86080861D01*
X152192621Y-85992621D01*
X152280861Y-85877625D01*
X152336330Y-85743709D01*
X152355250Y-85600000D01*
X152336330Y-85456291D01*
X152280861Y-85322375D01*
X152192621Y-85207379D01*
X152077625Y-85119139D01*
X152077624Y-85119138D01*
X152077622Y-85119137D01*
X151943712Y-85063671D01*
X151943710Y-85063670D01*
X151943709Y-85063670D01*
X151843675Y-85050500D01*
X151800001Y-85044750D01*
X151799999Y-85044750D01*
X151656291Y-85063670D01*
X151656287Y-85063671D01*
X151522377Y-85119137D01*
X151407379Y-85207379D01*
X151319137Y-85322377D01*
X151263671Y-85456287D01*
X151263670Y-85456291D01*
X151244750Y-85600000D01*
X109890000Y-85600000D01*
X109890000Y-85182172D01*
X109889999Y-85182155D01*
X109883598Y-85122627D01*
X109883596Y-85122620D01*
X109833354Y-84987913D01*
X109833350Y-84987906D01*
X109747190Y-84872812D01*
X109747187Y-84872809D01*
X109632093Y-84786649D01*
X109632086Y-84786645D01*
X109500013Y-84737385D01*
X109444079Y-84695514D01*
X109419662Y-84630049D01*
X109434514Y-84561776D01*
X109443329Y-84550000D01*
X144644353Y-84550000D01*
X144664834Y-84692456D01*
X144724622Y-84823371D01*
X144724623Y-84823373D01*
X144818872Y-84932143D01*
X144939947Y-85009953D01*
X144939950Y-85009954D01*
X144939949Y-85009954D01*
X145078036Y-85050499D01*
X145078038Y-85050500D01*
X145078039Y-85050500D01*
X145221962Y-85050500D01*
X145221962Y-85050499D01*
X145360053Y-85009953D01*
X145481128Y-84932143D01*
X145575377Y-84823373D01*
X145635165Y-84692457D01*
X145655647Y-84550000D01*
X145635165Y-84407543D01*
X145575377Y-84276627D01*
X145481128Y-84167857D01*
X145360053Y-84090047D01*
X145360051Y-84090046D01*
X145360049Y-84090045D01*
X145360050Y-84090045D01*
X145221963Y-84049500D01*
X145221961Y-84049500D01*
X145078039Y-84049500D01*
X145078036Y-84049500D01*
X144939949Y-84090045D01*
X144818873Y-84167856D01*
X144724623Y-84276626D01*
X144724622Y-84276628D01*
X144664834Y-84407543D01*
X144644353Y-84550000D01*
X109443329Y-84550000D01*
X109455665Y-84533521D01*
X109578108Y-84411078D01*
X109713600Y-84217578D01*
X109813429Y-84003492D01*
X109813432Y-84003486D01*
X109870636Y-83790000D01*
X108973012Y-83790000D01*
X109005925Y-83732993D01*
X109040000Y-83605826D01*
X109040000Y-83474174D01*
X109005925Y-83347007D01*
X108973012Y-83290000D01*
X109870636Y-83290000D01*
X109870635Y-83289999D01*
X109813432Y-83076513D01*
X109813429Y-83076507D01*
X109731122Y-82899999D01*
X136544750Y-82899999D01*
X136544750Y-82900000D01*
X136563670Y-83043708D01*
X136563671Y-83043712D01*
X136619137Y-83177622D01*
X136619138Y-83177624D01*
X136619139Y-83177625D01*
X136707379Y-83292621D01*
X136822375Y-83380861D01*
X136956291Y-83436330D01*
X137083280Y-83453048D01*
X137099999Y-83455250D01*
X137100000Y-83455250D01*
X137100001Y-83455250D01*
X137114977Y-83453278D01*
X137243709Y-83436330D01*
X137377625Y-83380861D01*
X137492621Y-83292621D01*
X137580861Y-83177625D01*
X137636330Y-83043709D01*
X137655250Y-82900000D01*
X137636330Y-82756291D01*
X137580861Y-82622375D01*
X137492621Y-82507379D01*
X137377625Y-82419139D01*
X137377624Y-82419138D01*
X137377622Y-82419137D01*
X137243712Y-82363671D01*
X137243710Y-82363670D01*
X137243709Y-82363670D01*
X137171854Y-82354210D01*
X137100001Y-82344750D01*
X137099999Y-82344750D01*
X136956291Y-82363670D01*
X136956287Y-82363671D01*
X136822377Y-82419137D01*
X136707379Y-82507379D01*
X136619137Y-82622377D01*
X136563671Y-82756287D01*
X136563670Y-82756291D01*
X136544750Y-82899999D01*
X109731122Y-82899999D01*
X109713600Y-82862422D01*
X109713599Y-82862420D01*
X109578113Y-82668926D01*
X109578108Y-82668920D01*
X109411082Y-82501894D01*
X109224968Y-82371575D01*
X109181344Y-82316998D01*
X109174151Y-82247499D01*
X109205673Y-82185145D01*
X109224968Y-82168425D01*
X109411082Y-82038105D01*
X109578105Y-81871082D01*
X109713600Y-81677578D01*
X109813429Y-81463492D01*
X109813432Y-81463486D01*
X109830443Y-81400000D01*
X117294353Y-81400000D01*
X117314834Y-81542456D01*
X117374622Y-81673371D01*
X117374623Y-81673373D01*
X117468872Y-81782143D01*
X117589947Y-81859953D01*
X117589950Y-81859954D01*
X117589949Y-81859954D01*
X117728036Y-81900499D01*
X117728038Y-81900500D01*
X117728039Y-81900500D01*
X117871962Y-81900500D01*
X117871962Y-81900499D01*
X118010053Y-81859953D01*
X118131128Y-81782143D01*
X118225377Y-81673373D01*
X118285165Y-81542457D01*
X118305647Y-81400000D01*
X118285165Y-81257543D01*
X118225377Y-81126627D01*
X118131128Y-81017857D01*
X118010053Y-80940047D01*
X118010051Y-80940046D01*
X118010049Y-80940045D01*
X118010050Y-80940045D01*
X117871963Y-80899500D01*
X117871961Y-80899500D01*
X117728039Y-80899500D01*
X117728036Y-80899500D01*
X117589949Y-80940045D01*
X117468873Y-81017856D01*
X117374623Y-81126626D01*
X117374622Y-81126628D01*
X117314834Y-81257543D01*
X117294353Y-81400000D01*
X109830443Y-81400000D01*
X109870636Y-81250000D01*
X108973012Y-81250000D01*
X109005925Y-81192993D01*
X109040000Y-81065826D01*
X109040000Y-80934174D01*
X109005925Y-80807007D01*
X108973012Y-80750000D01*
X109870636Y-80750000D01*
X109870635Y-80749999D01*
X109813432Y-80536513D01*
X109813429Y-80536507D01*
X109713600Y-80322422D01*
X109713599Y-80322420D01*
X109627880Y-80200000D01*
X113594353Y-80200000D01*
X113614834Y-80342456D01*
X113640886Y-80399500D01*
X113674623Y-80473373D01*
X113768872Y-80582143D01*
X113889947Y-80659953D01*
X113889950Y-80659954D01*
X113889949Y-80659954D01*
X114028036Y-80700499D01*
X114028038Y-80700500D01*
X114028039Y-80700500D01*
X114171962Y-80700500D01*
X114171962Y-80700499D01*
X114310053Y-80659953D01*
X114431128Y-80582143D01*
X114502305Y-80500000D01*
X133994353Y-80500000D01*
X134014834Y-80642456D01*
X134074622Y-80773371D01*
X134074623Y-80773373D01*
X134168872Y-80882143D01*
X134289947Y-80959953D01*
X134289950Y-80959954D01*
X134289949Y-80959954D01*
X134428036Y-81000499D01*
X134428038Y-81000500D01*
X134428039Y-81000500D01*
X134571962Y-81000500D01*
X134571962Y-81000499D01*
X134710053Y-80959953D01*
X134831128Y-80882143D01*
X134902305Y-80800000D01*
X140394353Y-80800000D01*
X140414834Y-80942456D01*
X140460504Y-81042457D01*
X140474623Y-81073373D01*
X140568872Y-81182143D01*
X140689947Y-81259953D01*
X140689950Y-81259954D01*
X140689949Y-81259954D01*
X140828036Y-81300499D01*
X140828038Y-81300500D01*
X140828039Y-81300500D01*
X140971962Y-81300500D01*
X140971962Y-81300499D01*
X141110053Y-81259953D01*
X141231128Y-81182143D01*
X141325377Y-81073373D01*
X141385165Y-80942457D01*
X141391269Y-80900000D01*
X145394353Y-80900000D01*
X145414834Y-81042456D01*
X145453275Y-81126628D01*
X145474623Y-81173373D01*
X145568872Y-81282143D01*
X145689947Y-81359953D01*
X145689950Y-81359954D01*
X145689949Y-81359954D01*
X145797107Y-81391417D01*
X145826673Y-81400099D01*
X145828036Y-81400499D01*
X145828038Y-81400500D01*
X145828039Y-81400500D01*
X145971962Y-81400500D01*
X145971962Y-81400499D01*
X146110053Y-81359953D01*
X146231128Y-81282143D01*
X146325377Y-81173373D01*
X146385165Y-81042457D01*
X146405647Y-80900000D01*
X146385165Y-80757543D01*
X146325377Y-80626627D01*
X146231128Y-80517857D01*
X146110053Y-80440047D01*
X146110051Y-80440046D01*
X146110049Y-80440045D01*
X146110050Y-80440045D01*
X145971963Y-80399500D01*
X145971961Y-80399500D01*
X145828039Y-80399500D01*
X145828036Y-80399500D01*
X145689949Y-80440045D01*
X145568873Y-80517856D01*
X145474623Y-80626626D01*
X145474622Y-80626628D01*
X145414834Y-80757543D01*
X145394353Y-80900000D01*
X141391269Y-80900000D01*
X141405647Y-80800000D01*
X141385165Y-80657543D01*
X141325377Y-80526627D01*
X141231128Y-80417857D01*
X141110053Y-80340047D01*
X141110051Y-80340046D01*
X141110049Y-80340045D01*
X141110050Y-80340045D01*
X140971963Y-80299500D01*
X140971961Y-80299500D01*
X140828039Y-80299500D01*
X140828036Y-80299500D01*
X140689949Y-80340045D01*
X140568873Y-80417856D01*
X140474623Y-80526626D01*
X140474622Y-80526628D01*
X140414834Y-80657543D01*
X140394353Y-80800000D01*
X134902305Y-80800000D01*
X134925377Y-80773373D01*
X134985165Y-80642457D01*
X135005647Y-80500000D01*
X134985165Y-80357543D01*
X134925377Y-80226627D01*
X134831128Y-80117857D01*
X134710053Y-80040047D01*
X134710051Y-80040046D01*
X134710049Y-80040045D01*
X134710050Y-80040045D01*
X134571963Y-79999500D01*
X134571961Y-79999500D01*
X134428039Y-79999500D01*
X134428036Y-79999500D01*
X134289949Y-80040045D01*
X134168873Y-80117856D01*
X134074623Y-80226626D01*
X134074622Y-80226628D01*
X134014834Y-80357543D01*
X133994353Y-80500000D01*
X114502305Y-80500000D01*
X114525377Y-80473373D01*
X114585165Y-80342457D01*
X114605647Y-80200000D01*
X114585165Y-80057543D01*
X114525377Y-79926627D01*
X114431128Y-79817857D01*
X114310053Y-79740047D01*
X114310051Y-79740046D01*
X114310049Y-79740045D01*
X114310050Y-79740045D01*
X114171963Y-79699500D01*
X114171961Y-79699500D01*
X114028039Y-79699500D01*
X114028036Y-79699500D01*
X113889949Y-79740045D01*
X113768873Y-79817856D01*
X113674623Y-79926626D01*
X113674622Y-79926628D01*
X113614834Y-80057543D01*
X113594353Y-80200000D01*
X109627880Y-80200000D01*
X109578113Y-80128926D01*
X109578108Y-80128920D01*
X109411082Y-79961894D01*
X109224968Y-79831575D01*
X109181344Y-79776998D01*
X109174151Y-79707499D01*
X109205673Y-79645145D01*
X109224968Y-79628425D01*
X109411082Y-79498105D01*
X109578105Y-79331082D01*
X109713600Y-79137578D01*
X109813429Y-78923492D01*
X109813432Y-78923486D01*
X109819725Y-78900000D01*
X112294353Y-78900000D01*
X112314834Y-79042456D01*
X112360504Y-79142457D01*
X112374623Y-79173373D01*
X112468872Y-79282143D01*
X112589947Y-79359953D01*
X112589950Y-79359954D01*
X112589949Y-79359954D01*
X112728036Y-79400499D01*
X112728038Y-79400500D01*
X112728039Y-79400500D01*
X112871962Y-79400500D01*
X112871962Y-79400499D01*
X113010053Y-79359953D01*
X113131128Y-79282143D01*
X113225377Y-79173373D01*
X113285165Y-79042457D01*
X113291269Y-79000000D01*
X119494353Y-79000000D01*
X119514834Y-79142456D01*
X119568494Y-79259953D01*
X119574623Y-79273373D01*
X119668872Y-79382143D01*
X119789947Y-79459953D01*
X119789950Y-79459954D01*
X119789949Y-79459954D01*
X119897107Y-79491417D01*
X119919882Y-79498105D01*
X119928036Y-79500499D01*
X119928038Y-79500500D01*
X119928039Y-79500500D01*
X120071962Y-79500500D01*
X120071962Y-79500499D01*
X120210053Y-79459953D01*
X120331128Y-79382143D01*
X120425377Y-79273373D01*
X120485165Y-79142457D01*
X120505647Y-79000000D01*
X120485165Y-78857543D01*
X120458886Y-78800000D01*
X129394353Y-78800000D01*
X129414834Y-78942456D01*
X129460504Y-79042457D01*
X129474623Y-79073373D01*
X129568872Y-79182143D01*
X129689947Y-79259953D01*
X129689950Y-79259954D01*
X129689949Y-79259954D01*
X129828036Y-79300499D01*
X129828038Y-79300500D01*
X129828039Y-79300500D01*
X129971962Y-79300500D01*
X129971962Y-79300499D01*
X130110053Y-79259953D01*
X130231128Y-79182143D01*
X130325377Y-79073373D01*
X130385165Y-78942457D01*
X130405647Y-78800000D01*
X130385165Y-78657543D01*
X130325377Y-78526627D01*
X130231128Y-78417857D01*
X130110053Y-78340047D01*
X130110051Y-78340046D01*
X130110049Y-78340045D01*
X130110050Y-78340045D01*
X129971963Y-78299500D01*
X129971961Y-78299500D01*
X129828039Y-78299500D01*
X129828036Y-78299500D01*
X129689949Y-78340045D01*
X129568873Y-78417856D01*
X129474623Y-78526626D01*
X129474622Y-78526628D01*
X129414834Y-78657543D01*
X129394353Y-78800000D01*
X120458886Y-78800000D01*
X120425377Y-78726627D01*
X120331128Y-78617857D01*
X120210053Y-78540047D01*
X120210051Y-78540046D01*
X120210049Y-78540045D01*
X120210050Y-78540045D01*
X120071963Y-78499500D01*
X120071961Y-78499500D01*
X119928039Y-78499500D01*
X119928036Y-78499500D01*
X119789949Y-78540045D01*
X119668873Y-78617856D01*
X119574623Y-78726626D01*
X119574622Y-78726628D01*
X119514834Y-78857543D01*
X119494353Y-79000000D01*
X113291269Y-79000000D01*
X113305647Y-78900000D01*
X113285165Y-78757543D01*
X113225377Y-78626627D01*
X113131128Y-78517857D01*
X113010053Y-78440047D01*
X113010051Y-78440046D01*
X113010049Y-78440045D01*
X113010050Y-78440045D01*
X112871963Y-78399500D01*
X112871961Y-78399500D01*
X112728039Y-78399500D01*
X112728036Y-78399500D01*
X112589949Y-78440045D01*
X112468873Y-78517856D01*
X112374623Y-78626626D01*
X112374622Y-78626628D01*
X112314834Y-78757543D01*
X112294353Y-78900000D01*
X109819725Y-78900000D01*
X109870636Y-78710000D01*
X108973012Y-78710000D01*
X109005925Y-78652993D01*
X109040000Y-78525826D01*
X109040000Y-78394174D01*
X109005925Y-78267007D01*
X108973012Y-78210000D01*
X109870636Y-78210000D01*
X109870635Y-78209999D01*
X109813432Y-77996513D01*
X109813429Y-77996507D01*
X109713600Y-77782422D01*
X109713599Y-77782420D01*
X109578113Y-77588926D01*
X109578108Y-77588920D01*
X109411082Y-77421894D01*
X109217578Y-77286399D01*
X109003492Y-77186570D01*
X109003486Y-77186567D01*
X108790000Y-77129364D01*
X108790000Y-78026988D01*
X108732993Y-77994075D01*
X108605826Y-77960000D01*
X108474174Y-77960000D01*
X108347007Y-77994075D01*
X108290000Y-78026988D01*
X108290000Y-77129364D01*
X108289999Y-77129364D01*
X108076513Y-77186567D01*
X108076507Y-77186570D01*
X107862422Y-77286399D01*
X107862420Y-77286400D01*
X107668926Y-77421886D01*
X107668920Y-77421891D01*
X107501891Y-77588920D01*
X107501886Y-77588926D01*
X107366400Y-77782420D01*
X107366399Y-77782422D01*
X107266570Y-77996507D01*
X107266567Y-77996513D01*
X107209364Y-78209999D01*
X107209364Y-78210000D01*
X108106988Y-78210000D01*
X108074075Y-78267007D01*
X108040000Y-78394174D01*
X108040000Y-78525826D01*
X108074075Y-78652993D01*
X108106988Y-78710000D01*
X107209364Y-78710000D01*
X107266567Y-78923486D01*
X107266570Y-78923492D01*
X107366399Y-79137578D01*
X107501894Y-79331082D01*
X107668917Y-79498105D01*
X107855031Y-79628425D01*
X107898656Y-79683003D01*
X107905848Y-79752501D01*
X107874326Y-79814856D01*
X107855031Y-79831575D01*
X107668922Y-79961890D01*
X107668920Y-79961891D01*
X107501891Y-80128920D01*
X107501886Y-80128926D01*
X107366400Y-80322420D01*
X107366399Y-80322422D01*
X107266570Y-80536507D01*
X107266567Y-80536513D01*
X107209364Y-80749999D01*
X107209364Y-80750000D01*
X108106988Y-80750000D01*
X108074075Y-80807007D01*
X108040000Y-80934174D01*
X108040000Y-81065826D01*
X108074075Y-81192993D01*
X108106988Y-81250000D01*
X107209364Y-81250000D01*
X107266567Y-81463486D01*
X107266570Y-81463492D01*
X107366399Y-81677578D01*
X107501894Y-81871082D01*
X107668917Y-82038105D01*
X107855031Y-82168425D01*
X107898656Y-82223003D01*
X107905848Y-82292501D01*
X107874326Y-82354856D01*
X107855031Y-82371575D01*
X107668922Y-82501890D01*
X107668920Y-82501891D01*
X107501891Y-82668920D01*
X107501886Y-82668926D01*
X107366400Y-82862420D01*
X107366399Y-82862422D01*
X107266570Y-83076507D01*
X107266567Y-83076513D01*
X107209364Y-83289999D01*
X107209364Y-83290000D01*
X108106988Y-83290000D01*
X108074075Y-83347007D01*
X108040000Y-83474174D01*
X108040000Y-83605826D01*
X108074075Y-83732993D01*
X108106988Y-83790000D01*
X107209364Y-83790000D01*
X107266567Y-84003486D01*
X107266570Y-84003492D01*
X107366399Y-84217578D01*
X107501894Y-84411082D01*
X107624334Y-84533522D01*
X107657819Y-84594845D01*
X107652835Y-84664537D01*
X107610963Y-84720470D01*
X107579987Y-84737385D01*
X107447911Y-84786646D01*
X107447906Y-84786649D01*
X107332812Y-84872809D01*
X107332809Y-84872812D01*
X107246649Y-84987906D01*
X107246645Y-84987913D01*
X107196403Y-85122620D01*
X107196401Y-85122627D01*
X107190000Y-85182155D01*
X101300500Y-85182155D01*
X101300500Y-83456228D01*
X105149500Y-83456228D01*
X105149500Y-83623771D01*
X105182182Y-83788074D01*
X105182184Y-83788082D01*
X105246295Y-83942860D01*
X105339373Y-84082162D01*
X105457837Y-84200626D01*
X105483208Y-84217578D01*
X105597137Y-84293703D01*
X105751918Y-84357816D01*
X105916228Y-84390499D01*
X105916232Y-84390500D01*
X105916233Y-84390500D01*
X106083768Y-84390500D01*
X106083769Y-84390499D01*
X106248082Y-84357816D01*
X106402863Y-84293703D01*
X106542162Y-84200626D01*
X106660626Y-84082162D01*
X106753703Y-83942863D01*
X106817816Y-83788082D01*
X106850500Y-83623767D01*
X106850500Y-83456233D01*
X106817816Y-83291918D01*
X106753703Y-83137137D01*
X106691276Y-83043709D01*
X106660626Y-82997837D01*
X106542162Y-82879373D01*
X106402860Y-82786295D01*
X106248082Y-82722184D01*
X106248074Y-82722182D01*
X106083771Y-82689500D01*
X106083767Y-82689500D01*
X105916233Y-82689500D01*
X105916228Y-82689500D01*
X105751925Y-82722182D01*
X105751917Y-82722184D01*
X105597139Y-82786295D01*
X105457837Y-82879373D01*
X105339373Y-82997837D01*
X105246295Y-83137139D01*
X105182184Y-83291917D01*
X105182182Y-83291925D01*
X105149500Y-83456228D01*
X101300500Y-83456228D01*
X101300500Y-80916228D01*
X105149500Y-80916228D01*
X105149500Y-81083771D01*
X105182182Y-81248074D01*
X105182184Y-81248082D01*
X105246295Y-81402860D01*
X105339373Y-81542162D01*
X105457837Y-81660626D01*
X105483208Y-81677578D01*
X105597137Y-81753703D01*
X105751918Y-81817816D01*
X105916228Y-81850499D01*
X105916232Y-81850500D01*
X105916233Y-81850500D01*
X106083768Y-81850500D01*
X106083769Y-81850499D01*
X106248082Y-81817816D01*
X106402863Y-81753703D01*
X106542162Y-81660626D01*
X106660626Y-81542162D01*
X106753703Y-81402863D01*
X106817816Y-81248082D01*
X106850500Y-81083767D01*
X106850500Y-80916233D01*
X106817816Y-80751918D01*
X106753703Y-80597137D01*
X106688798Y-80500000D01*
X106660626Y-80457837D01*
X106542162Y-80339373D01*
X106402860Y-80246295D01*
X106248082Y-80182184D01*
X106248074Y-80182182D01*
X106083771Y-80149500D01*
X106083767Y-80149500D01*
X105916233Y-80149500D01*
X105916228Y-80149500D01*
X105751925Y-80182182D01*
X105751917Y-80182184D01*
X105597139Y-80246295D01*
X105457837Y-80339373D01*
X105339373Y-80457837D01*
X105246295Y-80597139D01*
X105182184Y-80751917D01*
X105182182Y-80751925D01*
X105149500Y-80916228D01*
X101300500Y-80916228D01*
X101300500Y-78376228D01*
X105149500Y-78376228D01*
X105149500Y-78543771D01*
X105182182Y-78708074D01*
X105182184Y-78708082D01*
X105246295Y-78862860D01*
X105339373Y-79002162D01*
X105457837Y-79120626D01*
X105490510Y-79142457D01*
X105597137Y-79213703D01*
X105751918Y-79277816D01*
X105916228Y-79310499D01*
X105916232Y-79310500D01*
X105916233Y-79310500D01*
X106083768Y-79310500D01*
X106083769Y-79310499D01*
X106248082Y-79277816D01*
X106402863Y-79213703D01*
X106542162Y-79120626D01*
X106660626Y-79002162D01*
X106753703Y-78862863D01*
X106817816Y-78708082D01*
X106850500Y-78543767D01*
X106850500Y-78376233D01*
X106817816Y-78211918D01*
X106754870Y-78059954D01*
X106753704Y-78057139D01*
X106731142Y-78023373D01*
X106711566Y-77994075D01*
X106660626Y-77917837D01*
X106542162Y-77799373D01*
X106402860Y-77706295D01*
X106248082Y-77642184D01*
X106248074Y-77642182D01*
X106083771Y-77609500D01*
X106083767Y-77609500D01*
X105916233Y-77609500D01*
X105916228Y-77609500D01*
X105751925Y-77642182D01*
X105751917Y-77642184D01*
X105597139Y-77706295D01*
X105457837Y-77799373D01*
X105339373Y-77917837D01*
X105246295Y-78057139D01*
X105182184Y-78211917D01*
X105182182Y-78211925D01*
X105149500Y-78376228D01*
X101300500Y-78376228D01*
X101300500Y-76411304D01*
X113099500Y-76411304D01*
X113099500Y-76588695D01*
X113134103Y-76762658D01*
X113134106Y-76762667D01*
X113201983Y-76926540D01*
X113201990Y-76926553D01*
X113300535Y-77074034D01*
X113300538Y-77074038D01*
X113425961Y-77199461D01*
X113425965Y-77199464D01*
X113573446Y-77298009D01*
X113573459Y-77298016D01*
X113642534Y-77326627D01*
X113737334Y-77365894D01*
X113737336Y-77365894D01*
X113737341Y-77365896D01*
X113911304Y-77400499D01*
X113911307Y-77400500D01*
X113911309Y-77400500D01*
X114088693Y-77400500D01*
X114088694Y-77400499D01*
X114146682Y-77388964D01*
X114262658Y-77365896D01*
X114262661Y-77365894D01*
X114262666Y-77365894D01*
X114426547Y-77298013D01*
X114574035Y-77199464D01*
X114699464Y-77074035D01*
X114798013Y-76926547D01*
X114865894Y-76762666D01*
X114900500Y-76588691D01*
X114900500Y-76499999D01*
X115169939Y-76499999D01*
X115169939Y-76500000D01*
X115190145Y-76730958D01*
X115190147Y-76730968D01*
X115250148Y-76954900D01*
X115250152Y-76954909D01*
X115348133Y-77165030D01*
X115403023Y-77243422D01*
X115976212Y-76670233D01*
X115987482Y-76712292D01*
X116059890Y-76837708D01*
X116162292Y-76940110D01*
X116287708Y-77012518D01*
X116329765Y-77023787D01*
X115756576Y-77596975D01*
X115834969Y-77651867D01*
X116045090Y-77749847D01*
X116045099Y-77749851D01*
X116269031Y-77809852D01*
X116269041Y-77809854D01*
X116499999Y-77830061D01*
X116500001Y-77830061D01*
X116730958Y-77809854D01*
X116730968Y-77809852D01*
X116954344Y-77750000D01*
X132694353Y-77750000D01*
X132714834Y-77892456D01*
X132762356Y-77996513D01*
X132774623Y-78023373D01*
X132868872Y-78132143D01*
X132989947Y-78209953D01*
X132989950Y-78209954D01*
X132989949Y-78209954D01*
X133128036Y-78250499D01*
X133128038Y-78250500D01*
X133128039Y-78250500D01*
X133271962Y-78250500D01*
X133271962Y-78250499D01*
X133409893Y-78210000D01*
X133410050Y-78209954D01*
X133410050Y-78209953D01*
X133410053Y-78209953D01*
X133531128Y-78132143D01*
X133625377Y-78023373D01*
X133685165Y-77892457D01*
X133705647Y-77750000D01*
X133685165Y-77607543D01*
X133636051Y-77500000D01*
X141794353Y-77500000D01*
X141814834Y-77642456D01*
X141860504Y-77742457D01*
X141874623Y-77773373D01*
X141968872Y-77882143D01*
X142089947Y-77959953D01*
X142089950Y-77959954D01*
X142089949Y-77959954D01*
X142165520Y-77982143D01*
X142214460Y-77996513D01*
X142228036Y-78000499D01*
X142228038Y-78000500D01*
X142228039Y-78000500D01*
X142371962Y-78000500D01*
X142371962Y-78000499D01*
X142510053Y-77959953D01*
X142631128Y-77882143D01*
X142725377Y-77773373D01*
X142785165Y-77642457D01*
X142791269Y-77600000D01*
X143694353Y-77600000D01*
X143714834Y-77742456D01*
X143754843Y-77830061D01*
X143774623Y-77873373D01*
X143868872Y-77982143D01*
X143989947Y-78059953D01*
X143989950Y-78059954D01*
X143989949Y-78059954D01*
X144128036Y-78100499D01*
X144128038Y-78100500D01*
X144128039Y-78100500D01*
X144271962Y-78100500D01*
X144271962Y-78100499D01*
X144410053Y-78059953D01*
X144531128Y-77982143D01*
X144625377Y-77873373D01*
X144685165Y-77742457D01*
X144705647Y-77600000D01*
X144685165Y-77457543D01*
X144625377Y-77326627D01*
X144531128Y-77217857D01*
X144410053Y-77140047D01*
X144410051Y-77140046D01*
X144410049Y-77140045D01*
X144410050Y-77140045D01*
X144271963Y-77099500D01*
X144271961Y-77099500D01*
X144128039Y-77099500D01*
X144128036Y-77099500D01*
X143989949Y-77140045D01*
X143868873Y-77217856D01*
X143774623Y-77326626D01*
X143774622Y-77326628D01*
X143714834Y-77457543D01*
X143694353Y-77600000D01*
X142791269Y-77600000D01*
X142805647Y-77500000D01*
X142785165Y-77357543D01*
X142725377Y-77226627D01*
X142631128Y-77117857D01*
X142510053Y-77040047D01*
X142510051Y-77040046D01*
X142510049Y-77040045D01*
X142510050Y-77040045D01*
X142371963Y-76999500D01*
X142371961Y-76999500D01*
X142228039Y-76999500D01*
X142228036Y-76999500D01*
X142089949Y-77040045D01*
X141968873Y-77117856D01*
X141874623Y-77226626D01*
X141874622Y-77226628D01*
X141814834Y-77357543D01*
X141794353Y-77500000D01*
X133636051Y-77500000D01*
X133625377Y-77476627D01*
X133531128Y-77367857D01*
X133410053Y-77290047D01*
X133410051Y-77290046D01*
X133410049Y-77290045D01*
X133410050Y-77290045D01*
X133271963Y-77249500D01*
X133271961Y-77249500D01*
X133128039Y-77249500D01*
X133128036Y-77249500D01*
X132989949Y-77290045D01*
X132868873Y-77367856D01*
X132774623Y-77476626D01*
X132774622Y-77476628D01*
X132714834Y-77607543D01*
X132694353Y-77750000D01*
X116954344Y-77750000D01*
X116954900Y-77749851D01*
X116954909Y-77749847D01*
X117165030Y-77651867D01*
X117165034Y-77651865D01*
X117243422Y-77596976D01*
X117243422Y-77596975D01*
X116670235Y-77023787D01*
X116712292Y-77012518D01*
X116837708Y-76940110D01*
X116940110Y-76837708D01*
X117012518Y-76712292D01*
X117023787Y-76670234D01*
X117596975Y-77243422D01*
X117596976Y-77243422D01*
X117651865Y-77165034D01*
X117651867Y-77165030D01*
X117749847Y-76954909D01*
X117749851Y-76954900D01*
X117809852Y-76730968D01*
X117809854Y-76730958D01*
X117830061Y-76500000D01*
X117830061Y-76499999D01*
X117822301Y-76411304D01*
X118099500Y-76411304D01*
X118099500Y-76588695D01*
X118134103Y-76762658D01*
X118134106Y-76762667D01*
X118201983Y-76926540D01*
X118201990Y-76926553D01*
X118300535Y-77074034D01*
X118300538Y-77074038D01*
X118425961Y-77199461D01*
X118425965Y-77199464D01*
X118573446Y-77298009D01*
X118573459Y-77298016D01*
X118642534Y-77326627D01*
X118737334Y-77365894D01*
X118737336Y-77365894D01*
X118737341Y-77365896D01*
X118911304Y-77400499D01*
X118911307Y-77400500D01*
X118911309Y-77400500D01*
X119088693Y-77400500D01*
X119088694Y-77400499D01*
X119146682Y-77388964D01*
X119262658Y-77365896D01*
X119262661Y-77365894D01*
X119262666Y-77365894D01*
X119426547Y-77298013D01*
X119574035Y-77199464D01*
X119699464Y-77074035D01*
X119798013Y-76926547D01*
X119865894Y-76762666D01*
X119900500Y-76588691D01*
X119900500Y-76500000D01*
X131194353Y-76500000D01*
X131214834Y-76642456D01*
X131269733Y-76762666D01*
X131274623Y-76773373D01*
X131368872Y-76882143D01*
X131489947Y-76959953D01*
X131489950Y-76959954D01*
X131489949Y-76959954D01*
X131597107Y-76991417D01*
X131624633Y-76999500D01*
X131628036Y-77000499D01*
X131628038Y-77000500D01*
X131628039Y-77000500D01*
X131771962Y-77000500D01*
X131771962Y-77000499D01*
X131910053Y-76959953D01*
X132031128Y-76882143D01*
X132125377Y-76773373D01*
X132185165Y-76642457D01*
X132205647Y-76500000D01*
X132185165Y-76357543D01*
X132125377Y-76226627D01*
X132031128Y-76117857D01*
X131910053Y-76040047D01*
X131910051Y-76040046D01*
X131910049Y-76040045D01*
X131910050Y-76040045D01*
X131771963Y-75999500D01*
X131771961Y-75999500D01*
X131628039Y-75999500D01*
X131628036Y-75999500D01*
X131489949Y-76040045D01*
X131368873Y-76117856D01*
X131274623Y-76226626D01*
X131274622Y-76226628D01*
X131214834Y-76357543D01*
X131194353Y-76500000D01*
X119900500Y-76500000D01*
X119900500Y-76411309D01*
X119900500Y-76411306D01*
X119900499Y-76411304D01*
X119865896Y-76237341D01*
X119865893Y-76237332D01*
X119798016Y-76073459D01*
X119798009Y-76073446D01*
X119699464Y-75925965D01*
X119699461Y-75925961D01*
X119574038Y-75800538D01*
X119574034Y-75800535D01*
X119426553Y-75701990D01*
X119426540Y-75701983D01*
X119262667Y-75634106D01*
X119262658Y-75634103D01*
X119088694Y-75599500D01*
X119088691Y-75599500D01*
X118911309Y-75599500D01*
X118911306Y-75599500D01*
X118737341Y-75634103D01*
X118737332Y-75634106D01*
X118573459Y-75701983D01*
X118573446Y-75701990D01*
X118425965Y-75800535D01*
X118425961Y-75800538D01*
X118300538Y-75925961D01*
X118300535Y-75925965D01*
X118201990Y-76073446D01*
X118201983Y-76073459D01*
X118134106Y-76237332D01*
X118134103Y-76237341D01*
X118099500Y-76411304D01*
X117822301Y-76411304D01*
X117809854Y-76269041D01*
X117809852Y-76269031D01*
X117749851Y-76045099D01*
X117749847Y-76045090D01*
X117651867Y-75834971D01*
X117651866Y-75834969D01*
X117596975Y-75756577D01*
X117596975Y-75756576D01*
X117023787Y-76329764D01*
X117012518Y-76287708D01*
X116940110Y-76162292D01*
X116837708Y-76059890D01*
X116712292Y-75987482D01*
X116670234Y-75976212D01*
X117243422Y-75403023D01*
X117165030Y-75348133D01*
X117061808Y-75300000D01*
X129594353Y-75300000D01*
X129614834Y-75442456D01*
X129674622Y-75573371D01*
X129674623Y-75573373D01*
X129768872Y-75682143D01*
X129889947Y-75759953D01*
X129889950Y-75759954D01*
X129889949Y-75759954D01*
X130028036Y-75800499D01*
X130028038Y-75800500D01*
X130028039Y-75800500D01*
X130171962Y-75800500D01*
X130171962Y-75800499D01*
X130310053Y-75759953D01*
X130431128Y-75682143D01*
X130525377Y-75573373D01*
X130585165Y-75442457D01*
X130605647Y-75300000D01*
X130598458Y-75250000D01*
X135894353Y-75250000D01*
X135914834Y-75392456D01*
X135919660Y-75403023D01*
X135974623Y-75523373D01*
X136068872Y-75632143D01*
X136189947Y-75709953D01*
X136189950Y-75709954D01*
X136189949Y-75709954D01*
X136328036Y-75750499D01*
X136328038Y-75750500D01*
X136328039Y-75750500D01*
X136471962Y-75750500D01*
X136471962Y-75750499D01*
X136610053Y-75709953D01*
X136731128Y-75632143D01*
X136825377Y-75523373D01*
X136885165Y-75392457D01*
X136905647Y-75250000D01*
X136885165Y-75107543D01*
X136825377Y-74976627D01*
X136731128Y-74867857D01*
X136610053Y-74790047D01*
X136610051Y-74790046D01*
X136610049Y-74790045D01*
X136610050Y-74790045D01*
X136471963Y-74749500D01*
X136471961Y-74749500D01*
X136328039Y-74749500D01*
X136328036Y-74749500D01*
X136189949Y-74790045D01*
X136068873Y-74867856D01*
X135974623Y-74976626D01*
X135974622Y-74976628D01*
X135914834Y-75107543D01*
X135894353Y-75250000D01*
X130598458Y-75250000D01*
X130585165Y-75157543D01*
X130525377Y-75026627D01*
X130431128Y-74917857D01*
X130310053Y-74840047D01*
X130310051Y-74840046D01*
X130310049Y-74840045D01*
X130310050Y-74840045D01*
X130171963Y-74799500D01*
X130171961Y-74799500D01*
X130028039Y-74799500D01*
X130028036Y-74799500D01*
X129889949Y-74840045D01*
X129768873Y-74917856D01*
X129674623Y-75026626D01*
X129674622Y-75026628D01*
X129614834Y-75157543D01*
X129594353Y-75300000D01*
X117061808Y-75300000D01*
X116954909Y-75250152D01*
X116954900Y-75250148D01*
X116730968Y-75190147D01*
X116730958Y-75190145D01*
X116500001Y-75169939D01*
X116499999Y-75169939D01*
X116269041Y-75190145D01*
X116269031Y-75190147D01*
X116045099Y-75250148D01*
X116045090Y-75250152D01*
X115834967Y-75348134D01*
X115756576Y-75403022D01*
X116329766Y-75976212D01*
X116287708Y-75987482D01*
X116162292Y-76059890D01*
X116059890Y-76162292D01*
X115987482Y-76287708D01*
X115976212Y-76329766D01*
X115403022Y-75756576D01*
X115348134Y-75834967D01*
X115250152Y-76045090D01*
X115250148Y-76045099D01*
X115190147Y-76269031D01*
X115190145Y-76269041D01*
X115169939Y-76499999D01*
X114900500Y-76499999D01*
X114900500Y-76411309D01*
X114900500Y-76411306D01*
X114900499Y-76411304D01*
X114865896Y-76237341D01*
X114865893Y-76237332D01*
X114798016Y-76073459D01*
X114798009Y-76073446D01*
X114699464Y-75925965D01*
X114699461Y-75925961D01*
X114574038Y-75800538D01*
X114574034Y-75800535D01*
X114426553Y-75701990D01*
X114426540Y-75701983D01*
X114262667Y-75634106D01*
X114262658Y-75634103D01*
X114088694Y-75599500D01*
X114088691Y-75599500D01*
X113911309Y-75599500D01*
X113911306Y-75599500D01*
X113737341Y-75634103D01*
X113737332Y-75634106D01*
X113573459Y-75701983D01*
X113573446Y-75701990D01*
X113425965Y-75800535D01*
X113425961Y-75800538D01*
X113300538Y-75925961D01*
X113300535Y-75925965D01*
X113201990Y-76073446D01*
X113201983Y-76073459D01*
X113134106Y-76237332D01*
X113134103Y-76237341D01*
X113099500Y-76411304D01*
X101300500Y-76411304D01*
X101300500Y-73356102D01*
X101320185Y-73289063D01*
X101372989Y-73243308D01*
X101442147Y-73233364D01*
X101505703Y-73262389D01*
X101540264Y-73311664D01*
X101615244Y-73506994D01*
X101791310Y-73852543D01*
X102002531Y-74177793D01*
X102211095Y-74435350D01*
X102211096Y-74435350D01*
X103705748Y-72940698D01*
X103779588Y-73042330D01*
X103957670Y-73220412D01*
X104059300Y-73294251D01*
X102564648Y-74788903D01*
X102564649Y-74788904D01*
X102822206Y-74997468D01*
X103147456Y-75208689D01*
X103493005Y-75384755D01*
X103855063Y-75523737D01*
X104229669Y-75624112D01*
X104229676Y-75624113D01*
X104612712Y-75684780D01*
X104999999Y-75705078D01*
X105000001Y-75705078D01*
X105387287Y-75684780D01*
X105770323Y-75624113D01*
X105770330Y-75624112D01*
X106144936Y-75523737D01*
X106506994Y-75384755D01*
X106852543Y-75208689D01*
X107177783Y-74997476D01*
X107177785Y-74997475D01*
X107435349Y-74788902D01*
X105940698Y-73294251D01*
X106042330Y-73220412D01*
X106220412Y-73042330D01*
X106294251Y-72940698D01*
X107788902Y-74435349D01*
X107997475Y-74177785D01*
X107997476Y-74177783D01*
X108208689Y-73852543D01*
X108235461Y-73800000D01*
X124394353Y-73800000D01*
X124414834Y-73942456D01*
X124474622Y-74073371D01*
X124474623Y-74073373D01*
X124568872Y-74182143D01*
X124689947Y-74259953D01*
X124689950Y-74259954D01*
X124689949Y-74259954D01*
X124828036Y-74300499D01*
X124828038Y-74300500D01*
X124828039Y-74300500D01*
X124971962Y-74300500D01*
X124971962Y-74300499D01*
X125110053Y-74259953D01*
X125203342Y-74200000D01*
X131194353Y-74200000D01*
X131214834Y-74342456D01*
X131257258Y-74435349D01*
X131274623Y-74473373D01*
X131368872Y-74582143D01*
X131489947Y-74659953D01*
X131489950Y-74659954D01*
X131489949Y-74659954D01*
X131628036Y-74700499D01*
X131628038Y-74700500D01*
X131628039Y-74700500D01*
X131771962Y-74700500D01*
X131771962Y-74700499D01*
X131910053Y-74659953D01*
X132031128Y-74582143D01*
X132125377Y-74473373D01*
X132185165Y-74342457D01*
X132205647Y-74200000D01*
X132185165Y-74057543D01*
X132125377Y-73926627D01*
X132031128Y-73817857D01*
X131910053Y-73740047D01*
X131910051Y-73740046D01*
X131910049Y-73740045D01*
X131910050Y-73740045D01*
X131771963Y-73699500D01*
X131771961Y-73699500D01*
X131628039Y-73699500D01*
X131628036Y-73699500D01*
X131489949Y-73740045D01*
X131368873Y-73817856D01*
X131274623Y-73926626D01*
X131274622Y-73926628D01*
X131214834Y-74057543D01*
X131194353Y-74200000D01*
X125203342Y-74200000D01*
X125231128Y-74182143D01*
X125325377Y-74073373D01*
X125385165Y-73942457D01*
X125405647Y-73800000D01*
X125385165Y-73657543D01*
X125325377Y-73526627D01*
X125231128Y-73417857D01*
X125110053Y-73340047D01*
X125110051Y-73340046D01*
X125110049Y-73340045D01*
X125110050Y-73340045D01*
X124971963Y-73299500D01*
X124971961Y-73299500D01*
X124828039Y-73299500D01*
X124828036Y-73299500D01*
X124689949Y-73340045D01*
X124568873Y-73417856D01*
X124474623Y-73526626D01*
X124474622Y-73526628D01*
X124414834Y-73657543D01*
X124394353Y-73800000D01*
X108235461Y-73800000D01*
X108384755Y-73506994D01*
X108523737Y-73144936D01*
X108624112Y-72770330D01*
X108624113Y-72770323D01*
X108684780Y-72387287D01*
X108705078Y-72000000D01*
X108705078Y-71999999D01*
X108684780Y-71612712D01*
X108624113Y-71229676D01*
X108624112Y-71229669D01*
X108523737Y-70855063D01*
X108384755Y-70493005D01*
X108208689Y-70147456D01*
X107997468Y-69822206D01*
X107979486Y-69800000D01*
X126494353Y-69800000D01*
X126514834Y-69942456D01*
X126549926Y-70019295D01*
X126574623Y-70073373D01*
X126668872Y-70182143D01*
X126789947Y-70259953D01*
X126789950Y-70259954D01*
X126789949Y-70259954D01*
X126928036Y-70300499D01*
X126928038Y-70300500D01*
X126928039Y-70300500D01*
X127071962Y-70300500D01*
X127071962Y-70300499D01*
X127179121Y-70269035D01*
X127210050Y-70259954D01*
X127210050Y-70259953D01*
X127210053Y-70259953D01*
X127331128Y-70182143D01*
X127425377Y-70073373D01*
X127485165Y-69942457D01*
X127505647Y-69800000D01*
X127485165Y-69657543D01*
X127425377Y-69526627D01*
X127331128Y-69417857D01*
X127210053Y-69340047D01*
X127210051Y-69340046D01*
X127210049Y-69340045D01*
X127210050Y-69340045D01*
X127071963Y-69299500D01*
X127071961Y-69299500D01*
X126928039Y-69299500D01*
X126928036Y-69299500D01*
X126789949Y-69340045D01*
X126668873Y-69417856D01*
X126574623Y-69526626D01*
X126574622Y-69526628D01*
X126514834Y-69657543D01*
X126494353Y-69800000D01*
X107979486Y-69800000D01*
X107788904Y-69564649D01*
X107788903Y-69564648D01*
X106294251Y-71059300D01*
X106220412Y-70957670D01*
X106042330Y-70779588D01*
X105940698Y-70705748D01*
X107435350Y-69211096D01*
X107435350Y-69211095D01*
X107177793Y-69002531D01*
X106852543Y-68791310D01*
X106506994Y-68615244D01*
X106311664Y-68540264D01*
X106256132Y-68497862D01*
X106232339Y-68432168D01*
X106247841Y-68364040D01*
X106297714Y-68315107D01*
X106356102Y-68300500D01*
X195643898Y-68300500D01*
X195710937Y-68320185D01*
G37*
G04 #@! TD.AperFunction*
G04 #@! TA.AperFunction,Conductor*
G36*
X103329989Y-68458449D02*
G01*
X103388573Y-68496523D01*
X103417273Y-68560226D01*
X103406977Y-68629333D01*
X103360953Y-68681902D01*
X103350742Y-68687731D01*
X103147456Y-68791310D01*
X102822206Y-69002531D01*
X102564648Y-69211095D01*
X102564648Y-69211096D01*
X104059301Y-70705748D01*
X103957670Y-70779588D01*
X103779588Y-70957670D01*
X103705748Y-71059300D01*
X102211096Y-69564648D01*
X102211095Y-69564648D01*
X102002531Y-69822206D01*
X101791310Y-70147456D01*
X101687731Y-70350742D01*
X101639756Y-70401538D01*
X101571935Y-70418333D01*
X101505801Y-70395796D01*
X101462349Y-70341081D01*
X101455377Y-70271560D01*
X101458092Y-70260120D01*
X101461282Y-70249047D01*
X101465875Y-70235921D01*
X101488151Y-70182143D01*
X101584981Y-69948374D01*
X101591001Y-69935874D01*
X101741567Y-69663443D01*
X101748944Y-69651704D01*
X101929056Y-69397861D01*
X101937702Y-69387018D01*
X102145113Y-69154925D01*
X102154925Y-69145113D01*
X102387018Y-68937702D01*
X102397861Y-68929056D01*
X102651704Y-68748944D01*
X102663443Y-68741567D01*
X102935874Y-68591001D01*
X102948374Y-68584981D01*
X103235928Y-68465872D01*
X103249040Y-68461284D01*
X103260121Y-68458092D01*
X103329989Y-68458449D01*
G37*
G04 #@! TD.AperFunction*
G04 #@! TA.AperFunction,Conductor*
G36*
X198739879Y-68458092D02*
G01*
X198750952Y-68461282D01*
X198764077Y-68465874D01*
X199051618Y-68584978D01*
X199064132Y-68591004D01*
X199336547Y-68741563D01*
X199348303Y-68748950D01*
X199602129Y-68929050D01*
X199612989Y-68937709D01*
X199685525Y-69002531D01*
X199845063Y-69145103D01*
X199854894Y-69154934D01*
X200020321Y-69340047D01*
X200062285Y-69387004D01*
X200070951Y-69397872D01*
X200162308Y-69526628D01*
X200251043Y-69651687D01*
X200258442Y-69663461D01*
X200408991Y-69935860D01*
X200415024Y-69948388D01*
X200534124Y-70235921D01*
X200538717Y-70249047D01*
X200541907Y-70260120D01*
X200541550Y-70329989D01*
X200503476Y-70388573D01*
X200439773Y-70417273D01*
X200370666Y-70406977D01*
X200318097Y-70360953D01*
X200312268Y-70350741D01*
X200208692Y-70147461D01*
X200208691Y-70147458D01*
X199997468Y-69822206D01*
X199788904Y-69564649D01*
X199788903Y-69564648D01*
X198294251Y-71059300D01*
X198220412Y-70957670D01*
X198042330Y-70779588D01*
X197940698Y-70705748D01*
X199435350Y-69211096D01*
X199435350Y-69211095D01*
X199177793Y-69002531D01*
X198852543Y-68791310D01*
X198649257Y-68687731D01*
X198598461Y-68639757D01*
X198581666Y-68571936D01*
X198604203Y-68505801D01*
X198658918Y-68462349D01*
X198728439Y-68455376D01*
X198739879Y-68458092D01*
G37*
G04 #@! TD.AperFunction*
M02*
