G04 #@! TF.GenerationSoftware,KiCad,Pcbnew,8.0.6*
G04 #@! TF.CreationDate,2026-01-15T10:01:28-08:00*
G04 #@! TF.ProjectId,LoRa_Board,4c6f5261-5f42-46f6-9172-642e6b696361,rev?*
G04 #@! TF.SameCoordinates,Original*
G04 #@! TF.FileFunction,Legend,Bot*
G04 #@! TF.FilePolarity,Positive*
%FSLAX46Y46*%
G04 Gerber Fmt 4.6, Leading zero omitted, Abs format (unit mm)*
G04 Created by KiCad (PCBNEW 8.0.6) date 2026-01-15 10:01:28*
%MOMM*%
%LPD*%
G01*
G04 APERTURE LIST*
G04 Aperture macros list*
%AMRoundRect*
0 Rectangle with rounded corners*
0 $1 Rounding radius*
0 $2 $3 $4 $5 $6 $7 $8 $9 X,Y pos of 4 corners*
0 Add a 4 corners polygon primitive as box body*
4,1,4,$2,$3,$4,$5,$6,$7,$8,$9,$2,$3,0*
0 Add four circle primitives for the rounded corners*
1,1,$1+$1,$2,$3*
1,1,$1+$1,$4,$5*
1,1,$1+$1,$6,$7*
1,1,$1+$1,$8,$9*
0 Add four rect primitives between the rounded corners*
20,1,$1+$1,$2,$3,$4,$5,0*
20,1,$1+$1,$4,$5,$6,$7,0*
20,1,$1+$1,$6,$7,$8,$9,0*
20,1,$1+$1,$8,$9,$2,$3,0*%
G04 Aperture macros list end*
%ADD10C,0.100000*%
%ADD11C,0.153000*%
%ADD12C,0.150000*%
%ADD13C,0.120000*%
%ADD14C,0.000000*%
%ADD15C,0.200000*%
%ADD16C,6.400000*%
%ADD17R,1.650000X1.650000*%
%ADD18C,1.650000*%
%ADD19R,1.700000X1.700000*%
%ADD20O,1.700000X1.700000*%
%ADD21C,0.650000*%
%ADD22O,2.100000X1.000000*%
%ADD23O,1.600000X1.000000*%
%ADD24RoundRect,0.150000X-0.512500X-0.150000X0.512500X-0.150000X0.512500X0.150000X-0.512500X0.150000X0*%
%ADD25RoundRect,0.250000X-0.262500X-0.450000X0.262500X-0.450000X0.262500X0.450000X-0.262500X0.450000X0*%
%ADD26RoundRect,0.250000X-0.475000X0.250000X-0.475000X-0.250000X0.475000X-0.250000X0.475000X0.250000X0*%
%ADD27RoundRect,0.250000X-0.250000X-0.475000X0.250000X-0.475000X0.250000X0.475000X-0.250000X0.475000X0*%
%ADD28RoundRect,0.075000X0.075000X-0.325000X0.075000X0.325000X-0.075000X0.325000X-0.075000X-0.325000X0*%
%ADD29R,2.050000X1.700000*%
%ADD30RoundRect,0.250000X0.250000X0.475000X-0.250000X0.475000X-0.250000X-0.475000X0.250000X-0.475000X0*%
%ADD31RoundRect,0.237500X-0.237500X0.300000X-0.237500X-0.300000X0.237500X-0.300000X0.237500X0.300000X0*%
%ADD32RoundRect,0.250000X-0.450000X0.262500X-0.450000X-0.262500X0.450000X-0.262500X0.450000X0.262500X0*%
%ADD33R,1.300000X0.600000*%
%ADD34RoundRect,0.250000X0.475000X-0.250000X0.475000X0.250000X-0.475000X0.250000X-0.475000X-0.250000X0*%
%ADD35RoundRect,0.250000X0.450000X-0.262500X0.450000X0.262500X-0.450000X0.262500X-0.450000X-0.262500X0*%
%ADD36RoundRect,0.150000X0.150000X-0.587500X0.150000X0.587500X-0.150000X0.587500X-0.150000X-0.587500X0*%
%ADD37RoundRect,0.237500X-0.237500X0.287500X-0.237500X-0.287500X0.237500X-0.287500X0.237500X0.287500X0*%
%ADD38RoundRect,0.237500X0.237500X-0.300000X0.237500X0.300000X-0.237500X0.300000X-0.237500X-0.300000X0*%
%ADD39RoundRect,0.150000X-0.587500X-0.150000X0.587500X-0.150000X0.587500X0.150000X-0.587500X0.150000X0*%
G04 APERTURE END LIST*
D10*
X135700000Y-115700000D02*
X135700000Y-118500000D01*
X102500000Y-84900000D02*
X104300000Y-84900000D01*
X118700000Y-80800000D02*
X119000000Y-80800000D01*
X102500000Y-87700000D02*
X102500000Y-76800000D01*
X145200000Y-118500000D02*
X146100000Y-118500000D01*
X128700000Y-115700000D02*
X128700000Y-113000000D01*
X159600000Y-118300000D02*
X159600000Y-115500000D01*
X123400000Y-113000000D02*
X123400000Y-115700000D01*
X149200000Y-118300000D02*
X150100000Y-118300000D01*
X102500000Y-76800000D02*
X104300000Y-76800000D01*
X175200000Y-115600000D02*
X175200000Y-118400000D01*
X104300000Y-76800000D02*
X104300000Y-87700000D01*
X158700000Y-118300000D02*
X159600000Y-118300000D01*
X146100000Y-118500000D02*
X146100000Y-115700000D01*
X164100000Y-116100000D02*
X165500000Y-116100000D01*
X123400000Y-115700000D02*
X128700000Y-115700000D01*
X146100000Y-115700000D02*
X145200000Y-115700000D01*
X118700000Y-84900000D02*
X118300000Y-83700000D01*
X102500000Y-82200000D02*
X104300000Y-82200000D01*
X150100000Y-115500000D02*
X149200000Y-115500000D01*
X104300000Y-87700000D02*
X102500000Y-87700000D01*
X184700000Y-118400000D02*
X185600000Y-118400000D01*
X149200000Y-115500000D02*
X149200000Y-118300000D01*
X169000000Y-119000000D02*
X169000000Y-116400000D01*
X175200000Y-118400000D02*
X176100000Y-118400000D01*
X119000000Y-80800000D02*
X119000000Y-77900000D01*
X185600000Y-118400000D02*
X185600000Y-115600000D01*
X159600000Y-115500000D02*
X158700000Y-115500000D01*
X185600000Y-115600000D02*
X184700000Y-115600000D01*
X118700000Y-84900000D02*
X119100000Y-83700000D01*
X118700000Y-80800000D02*
X118700000Y-84900000D01*
X168000000Y-117500000D02*
X168000000Y-116400000D01*
X165500000Y-116100000D02*
X165500000Y-116800000D01*
X102500000Y-79400000D02*
X104300000Y-79400000D01*
X135700000Y-118500000D02*
X136600000Y-118500000D01*
X128700000Y-113000000D02*
X123400000Y-113000000D01*
X164100000Y-114600000D02*
X166500000Y-114600000D01*
X136600000Y-115700000D02*
X135700000Y-115700000D01*
X176100000Y-115600000D02*
X175200000Y-115600000D01*
X166500000Y-114600000D02*
X166500000Y-116800000D01*
D11*
X125042856Y-119654663D02*
X125042856Y-118654663D01*
X125042856Y-118654663D02*
X124661904Y-118654663D01*
X124661904Y-118654663D02*
X124566666Y-118702282D01*
X124566666Y-118702282D02*
X124519047Y-118749901D01*
X124519047Y-118749901D02*
X124471428Y-118845139D01*
X124471428Y-118845139D02*
X124471428Y-118987996D01*
X124471428Y-118987996D02*
X124519047Y-119083234D01*
X124519047Y-119083234D02*
X124566666Y-119130853D01*
X124566666Y-119130853D02*
X124661904Y-119178472D01*
X124661904Y-119178472D02*
X125042856Y-119178472D01*
X124090475Y-119368948D02*
X123614285Y-119368948D01*
X124185713Y-119654663D02*
X123852380Y-118654663D01*
X123852380Y-118654663D02*
X123519047Y-119654663D01*
X122661904Y-119654663D02*
X123233332Y-119654663D01*
X122947618Y-119654663D02*
X122947618Y-118654663D01*
X122947618Y-118654663D02*
X123042856Y-118797520D01*
X123042856Y-118797520D02*
X123138094Y-118892758D01*
X123138094Y-118892758D02*
X123233332Y-118940377D01*
X122042856Y-118654663D02*
X121947618Y-118654663D01*
X121947618Y-118654663D02*
X121852380Y-118702282D01*
X121852380Y-118702282D02*
X121804761Y-118749901D01*
X121804761Y-118749901D02*
X121757142Y-118845139D01*
X121757142Y-118845139D02*
X121709523Y-119035615D01*
X121709523Y-119035615D02*
X121709523Y-119273710D01*
X121709523Y-119273710D02*
X121757142Y-119464186D01*
X121757142Y-119464186D02*
X121804761Y-119559424D01*
X121804761Y-119559424D02*
X121852380Y-119607044D01*
X121852380Y-119607044D02*
X121947618Y-119654663D01*
X121947618Y-119654663D02*
X122042856Y-119654663D01*
X122042856Y-119654663D02*
X122138094Y-119607044D01*
X122138094Y-119607044D02*
X122185713Y-119559424D01*
X122185713Y-119559424D02*
X122233332Y-119464186D01*
X122233332Y-119464186D02*
X122280951Y-119273710D01*
X122280951Y-119273710D02*
X122280951Y-119035615D01*
X122280951Y-119035615D02*
X122233332Y-118845139D01*
X122233332Y-118845139D02*
X122185713Y-118749901D01*
X122185713Y-118749901D02*
X122138094Y-118702282D01*
X122138094Y-118702282D02*
X122042856Y-118654663D01*
X178385057Y-74629803D02*
X178861247Y-74629803D01*
X178861247Y-74629803D02*
X178861247Y-73629803D01*
X177861247Y-73629803D02*
X177670771Y-73629803D01*
X177670771Y-73629803D02*
X177575533Y-73677422D01*
X177575533Y-73677422D02*
X177480295Y-73772660D01*
X177480295Y-73772660D02*
X177432676Y-73963136D01*
X177432676Y-73963136D02*
X177432676Y-74296469D01*
X177432676Y-74296469D02*
X177480295Y-74486945D01*
X177480295Y-74486945D02*
X177575533Y-74582184D01*
X177575533Y-74582184D02*
X177670771Y-74629803D01*
X177670771Y-74629803D02*
X177861247Y-74629803D01*
X177861247Y-74629803D02*
X177956485Y-74582184D01*
X177956485Y-74582184D02*
X178051723Y-74486945D01*
X178051723Y-74486945D02*
X178099342Y-74296469D01*
X178099342Y-74296469D02*
X178099342Y-73963136D01*
X178099342Y-73963136D02*
X178051723Y-73772660D01*
X178051723Y-73772660D02*
X177956485Y-73677422D01*
X177956485Y-73677422D02*
X177861247Y-73629803D01*
X176432676Y-74629803D02*
X176766009Y-74153612D01*
X177004104Y-74629803D02*
X177004104Y-73629803D01*
X177004104Y-73629803D02*
X176623152Y-73629803D01*
X176623152Y-73629803D02*
X176527914Y-73677422D01*
X176527914Y-73677422D02*
X176480295Y-73725041D01*
X176480295Y-73725041D02*
X176432676Y-73820279D01*
X176432676Y-73820279D02*
X176432676Y-73963136D01*
X176432676Y-73963136D02*
X176480295Y-74058374D01*
X176480295Y-74058374D02*
X176527914Y-74105993D01*
X176527914Y-74105993D02*
X176623152Y-74153612D01*
X176623152Y-74153612D02*
X177004104Y-74153612D01*
X176051723Y-74344088D02*
X175575533Y-74344088D01*
X176146961Y-74629803D02*
X175813628Y-73629803D01*
X175813628Y-73629803D02*
X175480295Y-74629803D01*
X174051723Y-74105993D02*
X173908866Y-74153612D01*
X173908866Y-74153612D02*
X173861247Y-74201231D01*
X173861247Y-74201231D02*
X173813628Y-74296469D01*
X173813628Y-74296469D02*
X173813628Y-74439326D01*
X173813628Y-74439326D02*
X173861247Y-74534564D01*
X173861247Y-74534564D02*
X173908866Y-74582184D01*
X173908866Y-74582184D02*
X174004104Y-74629803D01*
X174004104Y-74629803D02*
X174385056Y-74629803D01*
X174385056Y-74629803D02*
X174385056Y-73629803D01*
X174385056Y-73629803D02*
X174051723Y-73629803D01*
X174051723Y-73629803D02*
X173956485Y-73677422D01*
X173956485Y-73677422D02*
X173908866Y-73725041D01*
X173908866Y-73725041D02*
X173861247Y-73820279D01*
X173861247Y-73820279D02*
X173861247Y-73915517D01*
X173861247Y-73915517D02*
X173908866Y-74010755D01*
X173908866Y-74010755D02*
X173956485Y-74058374D01*
X173956485Y-74058374D02*
X174051723Y-74105993D01*
X174051723Y-74105993D02*
X174385056Y-74105993D01*
X173194580Y-73629803D02*
X173004104Y-73629803D01*
X173004104Y-73629803D02*
X172908866Y-73677422D01*
X172908866Y-73677422D02*
X172813628Y-73772660D01*
X172813628Y-73772660D02*
X172766009Y-73963136D01*
X172766009Y-73963136D02*
X172766009Y-74296469D01*
X172766009Y-74296469D02*
X172813628Y-74486945D01*
X172813628Y-74486945D02*
X172908866Y-74582184D01*
X172908866Y-74582184D02*
X173004104Y-74629803D01*
X173004104Y-74629803D02*
X173194580Y-74629803D01*
X173194580Y-74629803D02*
X173289818Y-74582184D01*
X173289818Y-74582184D02*
X173385056Y-74486945D01*
X173385056Y-74486945D02*
X173432675Y-74296469D01*
X173432675Y-74296469D02*
X173432675Y-73963136D01*
X173432675Y-73963136D02*
X173385056Y-73772660D01*
X173385056Y-73772660D02*
X173289818Y-73677422D01*
X173289818Y-73677422D02*
X173194580Y-73629803D01*
X172385056Y-74344088D02*
X171908866Y-74344088D01*
X172480294Y-74629803D02*
X172146961Y-73629803D01*
X172146961Y-73629803D02*
X171813628Y-74629803D01*
X170908866Y-74629803D02*
X171242199Y-74153612D01*
X171480294Y-74629803D02*
X171480294Y-73629803D01*
X171480294Y-73629803D02*
X171099342Y-73629803D01*
X171099342Y-73629803D02*
X171004104Y-73677422D01*
X171004104Y-73677422D02*
X170956485Y-73725041D01*
X170956485Y-73725041D02*
X170908866Y-73820279D01*
X170908866Y-73820279D02*
X170908866Y-73963136D01*
X170908866Y-73963136D02*
X170956485Y-74058374D01*
X170956485Y-74058374D02*
X171004104Y-74105993D01*
X171004104Y-74105993D02*
X171099342Y-74153612D01*
X171099342Y-74153612D02*
X171480294Y-74153612D01*
X170480294Y-74629803D02*
X170480294Y-73629803D01*
X170480294Y-73629803D02*
X170242199Y-73629803D01*
X170242199Y-73629803D02*
X170099342Y-73677422D01*
X170099342Y-73677422D02*
X170004104Y-73772660D01*
X170004104Y-73772660D02*
X169956485Y-73867898D01*
X169956485Y-73867898D02*
X169908866Y-74058374D01*
X169908866Y-74058374D02*
X169908866Y-74201231D01*
X169908866Y-74201231D02*
X169956485Y-74391707D01*
X169956485Y-74391707D02*
X170004104Y-74486945D01*
X170004104Y-74486945D02*
X170099342Y-74582184D01*
X170099342Y-74582184D02*
X170242199Y-74629803D01*
X170242199Y-74629803D02*
X170480294Y-74629803D01*
X178289819Y-76239747D02*
X178623152Y-75763556D01*
X178861247Y-76239747D02*
X178861247Y-75239747D01*
X178861247Y-75239747D02*
X178480295Y-75239747D01*
X178480295Y-75239747D02*
X178385057Y-75287366D01*
X178385057Y-75287366D02*
X178337438Y-75334985D01*
X178337438Y-75334985D02*
X178289819Y-75430223D01*
X178289819Y-75430223D02*
X178289819Y-75573080D01*
X178289819Y-75573080D02*
X178337438Y-75668318D01*
X178337438Y-75668318D02*
X178385057Y-75715937D01*
X178385057Y-75715937D02*
X178480295Y-75763556D01*
X178480295Y-75763556D02*
X178861247Y-75763556D01*
X177480295Y-76192128D02*
X177575533Y-76239747D01*
X177575533Y-76239747D02*
X177766009Y-76239747D01*
X177766009Y-76239747D02*
X177861247Y-76192128D01*
X177861247Y-76192128D02*
X177908866Y-76096889D01*
X177908866Y-76096889D02*
X177908866Y-75715937D01*
X177908866Y-75715937D02*
X177861247Y-75620699D01*
X177861247Y-75620699D02*
X177766009Y-75573080D01*
X177766009Y-75573080D02*
X177575533Y-75573080D01*
X177575533Y-75573080D02*
X177480295Y-75620699D01*
X177480295Y-75620699D02*
X177432676Y-75715937D01*
X177432676Y-75715937D02*
X177432676Y-75811175D01*
X177432676Y-75811175D02*
X177908866Y-75906413D01*
X177099342Y-75573080D02*
X176861247Y-76239747D01*
X176861247Y-76239747D02*
X176623152Y-75573080D01*
X176242199Y-76239747D02*
X176242199Y-75573080D01*
X176242199Y-75239747D02*
X176289818Y-75287366D01*
X176289818Y-75287366D02*
X176242199Y-75334985D01*
X176242199Y-75334985D02*
X176194580Y-75287366D01*
X176194580Y-75287366D02*
X176242199Y-75239747D01*
X176242199Y-75239747D02*
X176242199Y-75334985D01*
X175813628Y-76192128D02*
X175718390Y-76239747D01*
X175718390Y-76239747D02*
X175527914Y-76239747D01*
X175527914Y-76239747D02*
X175432676Y-76192128D01*
X175432676Y-76192128D02*
X175385057Y-76096889D01*
X175385057Y-76096889D02*
X175385057Y-76049270D01*
X175385057Y-76049270D02*
X175432676Y-75954032D01*
X175432676Y-75954032D02*
X175527914Y-75906413D01*
X175527914Y-75906413D02*
X175670771Y-75906413D01*
X175670771Y-75906413D02*
X175766009Y-75858794D01*
X175766009Y-75858794D02*
X175813628Y-75763556D01*
X175813628Y-75763556D02*
X175813628Y-75715937D01*
X175813628Y-75715937D02*
X175766009Y-75620699D01*
X175766009Y-75620699D02*
X175670771Y-75573080D01*
X175670771Y-75573080D02*
X175527914Y-75573080D01*
X175527914Y-75573080D02*
X175432676Y-75620699D01*
X174956485Y-76239747D02*
X174956485Y-75573080D01*
X174956485Y-75239747D02*
X175004104Y-75287366D01*
X175004104Y-75287366D02*
X174956485Y-75334985D01*
X174956485Y-75334985D02*
X174908866Y-75287366D01*
X174908866Y-75287366D02*
X174956485Y-75239747D01*
X174956485Y-75239747D02*
X174956485Y-75334985D01*
X174337438Y-76239747D02*
X174432676Y-76192128D01*
X174432676Y-76192128D02*
X174480295Y-76144508D01*
X174480295Y-76144508D02*
X174527914Y-76049270D01*
X174527914Y-76049270D02*
X174527914Y-75763556D01*
X174527914Y-75763556D02*
X174480295Y-75668318D01*
X174480295Y-75668318D02*
X174432676Y-75620699D01*
X174432676Y-75620699D02*
X174337438Y-75573080D01*
X174337438Y-75573080D02*
X174194581Y-75573080D01*
X174194581Y-75573080D02*
X174099343Y-75620699D01*
X174099343Y-75620699D02*
X174051724Y-75668318D01*
X174051724Y-75668318D02*
X174004105Y-75763556D01*
X174004105Y-75763556D02*
X174004105Y-76049270D01*
X174004105Y-76049270D02*
X174051724Y-76144508D01*
X174051724Y-76144508D02*
X174099343Y-76192128D01*
X174099343Y-76192128D02*
X174194581Y-76239747D01*
X174194581Y-76239747D02*
X174337438Y-76239747D01*
X173575533Y-75573080D02*
X173575533Y-76239747D01*
X173575533Y-75668318D02*
X173527914Y-75620699D01*
X173527914Y-75620699D02*
X173432676Y-75573080D01*
X173432676Y-75573080D02*
X173289819Y-75573080D01*
X173289819Y-75573080D02*
X173194581Y-75620699D01*
X173194581Y-75620699D02*
X173146962Y-75715937D01*
X173146962Y-75715937D02*
X173146962Y-76239747D01*
X172670771Y-76144508D02*
X172623152Y-76192128D01*
X172623152Y-76192128D02*
X172670771Y-76239747D01*
X172670771Y-76239747D02*
X172718390Y-76192128D01*
X172718390Y-76192128D02*
X172670771Y-76144508D01*
X172670771Y-76144508D02*
X172670771Y-76239747D01*
X172670771Y-75620699D02*
X172623152Y-75668318D01*
X172623152Y-75668318D02*
X172670771Y-75715937D01*
X172670771Y-75715937D02*
X172718390Y-75668318D01*
X172718390Y-75668318D02*
X172670771Y-75620699D01*
X172670771Y-75620699D02*
X172670771Y-75715937D01*
X170861248Y-76239747D02*
X171194581Y-75763556D01*
X171432676Y-76239747D02*
X171432676Y-75239747D01*
X171432676Y-75239747D02*
X171051724Y-75239747D01*
X171051724Y-75239747D02*
X170956486Y-75287366D01*
X170956486Y-75287366D02*
X170908867Y-75334985D01*
X170908867Y-75334985D02*
X170861248Y-75430223D01*
X170861248Y-75430223D02*
X170861248Y-75573080D01*
X170861248Y-75573080D02*
X170908867Y-75668318D01*
X170908867Y-75668318D02*
X170956486Y-75715937D01*
X170956486Y-75715937D02*
X171051724Y-75763556D01*
X171051724Y-75763556D02*
X171432676Y-75763556D01*
X170432676Y-75715937D02*
X170099343Y-75715937D01*
X169956486Y-76239747D02*
X170432676Y-76239747D01*
X170432676Y-76239747D02*
X170432676Y-75239747D01*
X170432676Y-75239747D02*
X169956486Y-75239747D01*
X169670771Y-75239747D02*
X169337438Y-76239747D01*
X169337438Y-76239747D02*
X169004105Y-75239747D01*
X167575533Y-75715937D02*
X167432676Y-75763556D01*
X167432676Y-75763556D02*
X167385057Y-75811175D01*
X167385057Y-75811175D02*
X167337438Y-75906413D01*
X167337438Y-75906413D02*
X167337438Y-76049270D01*
X167337438Y-76049270D02*
X167385057Y-76144508D01*
X167385057Y-76144508D02*
X167432676Y-76192128D01*
X167432676Y-76192128D02*
X167527914Y-76239747D01*
X167527914Y-76239747D02*
X167908866Y-76239747D01*
X167908866Y-76239747D02*
X167908866Y-75239747D01*
X167908866Y-75239747D02*
X167575533Y-75239747D01*
X167575533Y-75239747D02*
X167480295Y-75287366D01*
X167480295Y-75287366D02*
X167432676Y-75334985D01*
X167432676Y-75334985D02*
X167385057Y-75430223D01*
X167385057Y-75430223D02*
X167385057Y-75525461D01*
X167385057Y-75525461D02*
X167432676Y-75620699D01*
X167432676Y-75620699D02*
X167480295Y-75668318D01*
X167480295Y-75668318D02*
X167575533Y-75715937D01*
X167575533Y-75715937D02*
X167908866Y-75715937D01*
X178861247Y-77849691D02*
X178861247Y-76849691D01*
X178861247Y-76849691D02*
X178623152Y-76849691D01*
X178623152Y-76849691D02*
X178480295Y-76897310D01*
X178480295Y-76897310D02*
X178385057Y-76992548D01*
X178385057Y-76992548D02*
X178337438Y-77087786D01*
X178337438Y-77087786D02*
X178289819Y-77278262D01*
X178289819Y-77278262D02*
X178289819Y-77421119D01*
X178289819Y-77421119D02*
X178337438Y-77611595D01*
X178337438Y-77611595D02*
X178385057Y-77706833D01*
X178385057Y-77706833D02*
X178480295Y-77802072D01*
X178480295Y-77802072D02*
X178623152Y-77849691D01*
X178623152Y-77849691D02*
X178861247Y-77849691D01*
X177480295Y-77802072D02*
X177575533Y-77849691D01*
X177575533Y-77849691D02*
X177766009Y-77849691D01*
X177766009Y-77849691D02*
X177861247Y-77802072D01*
X177861247Y-77802072D02*
X177908866Y-77706833D01*
X177908866Y-77706833D02*
X177908866Y-77325881D01*
X177908866Y-77325881D02*
X177861247Y-77230643D01*
X177861247Y-77230643D02*
X177766009Y-77183024D01*
X177766009Y-77183024D02*
X177575533Y-77183024D01*
X177575533Y-77183024D02*
X177480295Y-77230643D01*
X177480295Y-77230643D02*
X177432676Y-77325881D01*
X177432676Y-77325881D02*
X177432676Y-77421119D01*
X177432676Y-77421119D02*
X177908866Y-77516357D01*
X177051723Y-77802072D02*
X176956485Y-77849691D01*
X176956485Y-77849691D02*
X176766009Y-77849691D01*
X176766009Y-77849691D02*
X176670771Y-77802072D01*
X176670771Y-77802072D02*
X176623152Y-77706833D01*
X176623152Y-77706833D02*
X176623152Y-77659214D01*
X176623152Y-77659214D02*
X176670771Y-77563976D01*
X176670771Y-77563976D02*
X176766009Y-77516357D01*
X176766009Y-77516357D02*
X176908866Y-77516357D01*
X176908866Y-77516357D02*
X177004104Y-77468738D01*
X177004104Y-77468738D02*
X177051723Y-77373500D01*
X177051723Y-77373500D02*
X177051723Y-77325881D01*
X177051723Y-77325881D02*
X177004104Y-77230643D01*
X177004104Y-77230643D02*
X176908866Y-77183024D01*
X176908866Y-77183024D02*
X176766009Y-77183024D01*
X176766009Y-77183024D02*
X176670771Y-77230643D01*
X176194580Y-77849691D02*
X176194580Y-77183024D01*
X176194580Y-76849691D02*
X176242199Y-76897310D01*
X176242199Y-76897310D02*
X176194580Y-76944929D01*
X176194580Y-76944929D02*
X176146961Y-76897310D01*
X176146961Y-76897310D02*
X176194580Y-76849691D01*
X176194580Y-76849691D02*
X176194580Y-76944929D01*
X175289819Y-77183024D02*
X175289819Y-77992548D01*
X175289819Y-77992548D02*
X175337438Y-78087786D01*
X175337438Y-78087786D02*
X175385057Y-78135405D01*
X175385057Y-78135405D02*
X175480295Y-78183024D01*
X175480295Y-78183024D02*
X175623152Y-78183024D01*
X175623152Y-78183024D02*
X175718390Y-78135405D01*
X175289819Y-77802072D02*
X175385057Y-77849691D01*
X175385057Y-77849691D02*
X175575533Y-77849691D01*
X175575533Y-77849691D02*
X175670771Y-77802072D01*
X175670771Y-77802072D02*
X175718390Y-77754452D01*
X175718390Y-77754452D02*
X175766009Y-77659214D01*
X175766009Y-77659214D02*
X175766009Y-77373500D01*
X175766009Y-77373500D02*
X175718390Y-77278262D01*
X175718390Y-77278262D02*
X175670771Y-77230643D01*
X175670771Y-77230643D02*
X175575533Y-77183024D01*
X175575533Y-77183024D02*
X175385057Y-77183024D01*
X175385057Y-77183024D02*
X175289819Y-77230643D01*
X174813628Y-77183024D02*
X174813628Y-77849691D01*
X174813628Y-77278262D02*
X174766009Y-77230643D01*
X174766009Y-77230643D02*
X174670771Y-77183024D01*
X174670771Y-77183024D02*
X174527914Y-77183024D01*
X174527914Y-77183024D02*
X174432676Y-77230643D01*
X174432676Y-77230643D02*
X174385057Y-77325881D01*
X174385057Y-77325881D02*
X174385057Y-77849691D01*
X173527914Y-77802072D02*
X173623152Y-77849691D01*
X173623152Y-77849691D02*
X173813628Y-77849691D01*
X173813628Y-77849691D02*
X173908866Y-77802072D01*
X173908866Y-77802072D02*
X173956485Y-77706833D01*
X173956485Y-77706833D02*
X173956485Y-77325881D01*
X173956485Y-77325881D02*
X173908866Y-77230643D01*
X173908866Y-77230643D02*
X173813628Y-77183024D01*
X173813628Y-77183024D02*
X173623152Y-77183024D01*
X173623152Y-77183024D02*
X173527914Y-77230643D01*
X173527914Y-77230643D02*
X173480295Y-77325881D01*
X173480295Y-77325881D02*
X173480295Y-77421119D01*
X173480295Y-77421119D02*
X173956485Y-77516357D01*
X173051723Y-77849691D02*
X173051723Y-77183024D01*
X173051723Y-77373500D02*
X173004104Y-77278262D01*
X173004104Y-77278262D02*
X172956485Y-77230643D01*
X172956485Y-77230643D02*
X172861247Y-77183024D01*
X172861247Y-77183024D02*
X172766009Y-77183024D01*
X172432675Y-77754452D02*
X172385056Y-77802072D01*
X172385056Y-77802072D02*
X172432675Y-77849691D01*
X172432675Y-77849691D02*
X172480294Y-77802072D01*
X172480294Y-77802072D02*
X172432675Y-77754452D01*
X172432675Y-77754452D02*
X172432675Y-77849691D01*
X172432675Y-77230643D02*
X172385056Y-77278262D01*
X172385056Y-77278262D02*
X172432675Y-77325881D01*
X172432675Y-77325881D02*
X172480294Y-77278262D01*
X172480294Y-77278262D02*
X172432675Y-77230643D01*
X172432675Y-77230643D02*
X172432675Y-77325881D01*
X171194580Y-77849691D02*
X171194580Y-76849691D01*
X171194580Y-76849691D02*
X170813628Y-76849691D01*
X170813628Y-76849691D02*
X170718390Y-76897310D01*
X170718390Y-76897310D02*
X170670771Y-76944929D01*
X170670771Y-76944929D02*
X170623152Y-77040167D01*
X170623152Y-77040167D02*
X170623152Y-77183024D01*
X170623152Y-77183024D02*
X170670771Y-77278262D01*
X170670771Y-77278262D02*
X170718390Y-77325881D01*
X170718390Y-77325881D02*
X170813628Y-77373500D01*
X170813628Y-77373500D02*
X171194580Y-77373500D01*
X169813628Y-77802072D02*
X169908866Y-77849691D01*
X169908866Y-77849691D02*
X170099342Y-77849691D01*
X170099342Y-77849691D02*
X170194580Y-77802072D01*
X170194580Y-77802072D02*
X170242199Y-77706833D01*
X170242199Y-77706833D02*
X170242199Y-77325881D01*
X170242199Y-77325881D02*
X170194580Y-77230643D01*
X170194580Y-77230643D02*
X170099342Y-77183024D01*
X170099342Y-77183024D02*
X169908866Y-77183024D01*
X169908866Y-77183024D02*
X169813628Y-77230643D01*
X169813628Y-77230643D02*
X169766009Y-77325881D01*
X169766009Y-77325881D02*
X169766009Y-77421119D01*
X169766009Y-77421119D02*
X170242199Y-77516357D01*
X169480294Y-77183024D02*
X169099342Y-77183024D01*
X169337437Y-76849691D02*
X169337437Y-77706833D01*
X169337437Y-77706833D02*
X169289818Y-77802072D01*
X169289818Y-77802072D02*
X169194580Y-77849691D01*
X169194580Y-77849691D02*
X169099342Y-77849691D01*
X168385056Y-77802072D02*
X168480294Y-77849691D01*
X168480294Y-77849691D02*
X168670770Y-77849691D01*
X168670770Y-77849691D02*
X168766008Y-77802072D01*
X168766008Y-77802072D02*
X168813627Y-77706833D01*
X168813627Y-77706833D02*
X168813627Y-77325881D01*
X168813627Y-77325881D02*
X168766008Y-77230643D01*
X168766008Y-77230643D02*
X168670770Y-77183024D01*
X168670770Y-77183024D02*
X168480294Y-77183024D01*
X168480294Y-77183024D02*
X168385056Y-77230643D01*
X168385056Y-77230643D02*
X168337437Y-77325881D01*
X168337437Y-77325881D02*
X168337437Y-77421119D01*
X168337437Y-77421119D02*
X168813627Y-77516357D01*
X167908865Y-77849691D02*
X167908865Y-77183024D01*
X167908865Y-77373500D02*
X167861246Y-77278262D01*
X167861246Y-77278262D02*
X167813627Y-77230643D01*
X167813627Y-77230643D02*
X167718389Y-77183024D01*
X167718389Y-77183024D02*
X167623151Y-77183024D01*
X166527912Y-77849691D02*
X166527912Y-76849691D01*
X166527912Y-77325881D02*
X165956484Y-77325881D01*
X165956484Y-77849691D02*
X165956484Y-76849691D01*
X165051722Y-77849691D02*
X165051722Y-77325881D01*
X165051722Y-77325881D02*
X165099341Y-77230643D01*
X165099341Y-77230643D02*
X165194579Y-77183024D01*
X165194579Y-77183024D02*
X165385055Y-77183024D01*
X165385055Y-77183024D02*
X165480293Y-77230643D01*
X165051722Y-77802072D02*
X165146960Y-77849691D01*
X165146960Y-77849691D02*
X165385055Y-77849691D01*
X165385055Y-77849691D02*
X165480293Y-77802072D01*
X165480293Y-77802072D02*
X165527912Y-77706833D01*
X165527912Y-77706833D02*
X165527912Y-77611595D01*
X165527912Y-77611595D02*
X165480293Y-77516357D01*
X165480293Y-77516357D02*
X165385055Y-77468738D01*
X165385055Y-77468738D02*
X165146960Y-77468738D01*
X165146960Y-77468738D02*
X165051722Y-77421119D01*
X164575531Y-77183024D02*
X164575531Y-77849691D01*
X164575531Y-77278262D02*
X164527912Y-77230643D01*
X164527912Y-77230643D02*
X164432674Y-77183024D01*
X164432674Y-77183024D02*
X164289817Y-77183024D01*
X164289817Y-77183024D02*
X164194579Y-77230643D01*
X164194579Y-77230643D02*
X164146960Y-77325881D01*
X164146960Y-77325881D02*
X164146960Y-77849691D01*
X163242198Y-77802072D02*
X163337436Y-77849691D01*
X163337436Y-77849691D02*
X163527912Y-77849691D01*
X163527912Y-77849691D02*
X163623150Y-77802072D01*
X163623150Y-77802072D02*
X163670769Y-77754452D01*
X163670769Y-77754452D02*
X163718388Y-77659214D01*
X163718388Y-77659214D02*
X163718388Y-77373500D01*
X163718388Y-77373500D02*
X163670769Y-77278262D01*
X163670769Y-77278262D02*
X163623150Y-77230643D01*
X163623150Y-77230643D02*
X163527912Y-77183024D01*
X163527912Y-77183024D02*
X163337436Y-77183024D01*
X163337436Y-77183024D02*
X163242198Y-77230643D01*
X162385055Y-77849691D02*
X162385055Y-77325881D01*
X162385055Y-77325881D02*
X162432674Y-77230643D01*
X162432674Y-77230643D02*
X162527912Y-77183024D01*
X162527912Y-77183024D02*
X162718388Y-77183024D01*
X162718388Y-77183024D02*
X162813626Y-77230643D01*
X162385055Y-77802072D02*
X162480293Y-77849691D01*
X162480293Y-77849691D02*
X162718388Y-77849691D01*
X162718388Y-77849691D02*
X162813626Y-77802072D01*
X162813626Y-77802072D02*
X162861245Y-77706833D01*
X162861245Y-77706833D02*
X162861245Y-77611595D01*
X162861245Y-77611595D02*
X162813626Y-77516357D01*
X162813626Y-77516357D02*
X162718388Y-77468738D01*
X162718388Y-77468738D02*
X162480293Y-77468738D01*
X162480293Y-77468738D02*
X162385055Y-77421119D01*
X161908864Y-77849691D02*
X161908864Y-76849691D01*
X161813626Y-77468738D02*
X161527912Y-77849691D01*
X161527912Y-77183024D02*
X161908864Y-77563976D01*
X178861247Y-79459635D02*
X178861247Y-78459635D01*
X178861247Y-78459635D02*
X178527914Y-79173920D01*
X178527914Y-79173920D02*
X178194581Y-78459635D01*
X178194581Y-78459635D02*
X178194581Y-79459635D01*
X177146962Y-79364396D02*
X177194581Y-79412016D01*
X177194581Y-79412016D02*
X177337438Y-79459635D01*
X177337438Y-79459635D02*
X177432676Y-79459635D01*
X177432676Y-79459635D02*
X177575533Y-79412016D01*
X177575533Y-79412016D02*
X177670771Y-79316777D01*
X177670771Y-79316777D02*
X177718390Y-79221539D01*
X177718390Y-79221539D02*
X177766009Y-79031063D01*
X177766009Y-79031063D02*
X177766009Y-78888206D01*
X177766009Y-78888206D02*
X177718390Y-78697730D01*
X177718390Y-78697730D02*
X177670771Y-78602492D01*
X177670771Y-78602492D02*
X177575533Y-78507254D01*
X177575533Y-78507254D02*
X177432676Y-78459635D01*
X177432676Y-78459635D02*
X177337438Y-78459635D01*
X177337438Y-78459635D02*
X177194581Y-78507254D01*
X177194581Y-78507254D02*
X177146962Y-78554873D01*
X176718390Y-78459635D02*
X176718390Y-79269158D01*
X176718390Y-79269158D02*
X176670771Y-79364396D01*
X176670771Y-79364396D02*
X176623152Y-79412016D01*
X176623152Y-79412016D02*
X176527914Y-79459635D01*
X176527914Y-79459635D02*
X176337438Y-79459635D01*
X176337438Y-79459635D02*
X176242200Y-79412016D01*
X176242200Y-79412016D02*
X176194581Y-79364396D01*
X176194581Y-79364396D02*
X176146962Y-79269158D01*
X176146962Y-79269158D02*
X176146962Y-78459635D01*
X175670771Y-79364396D02*
X175623152Y-79412016D01*
X175623152Y-79412016D02*
X175670771Y-79459635D01*
X175670771Y-79459635D02*
X175718390Y-79412016D01*
X175718390Y-79412016D02*
X175670771Y-79364396D01*
X175670771Y-79364396D02*
X175670771Y-79459635D01*
X175670771Y-78840587D02*
X175623152Y-78888206D01*
X175623152Y-78888206D02*
X175670771Y-78935825D01*
X175670771Y-78935825D02*
X175718390Y-78888206D01*
X175718390Y-78888206D02*
X175670771Y-78840587D01*
X175670771Y-78840587D02*
X175670771Y-78935825D01*
X174480295Y-79412016D02*
X174337438Y-79459635D01*
X174337438Y-79459635D02*
X174099343Y-79459635D01*
X174099343Y-79459635D02*
X174004105Y-79412016D01*
X174004105Y-79412016D02*
X173956486Y-79364396D01*
X173956486Y-79364396D02*
X173908867Y-79269158D01*
X173908867Y-79269158D02*
X173908867Y-79173920D01*
X173908867Y-79173920D02*
X173956486Y-79078682D01*
X173956486Y-79078682D02*
X174004105Y-79031063D01*
X174004105Y-79031063D02*
X174099343Y-78983444D01*
X174099343Y-78983444D02*
X174289819Y-78935825D01*
X174289819Y-78935825D02*
X174385057Y-78888206D01*
X174385057Y-78888206D02*
X174432676Y-78840587D01*
X174432676Y-78840587D02*
X174480295Y-78745349D01*
X174480295Y-78745349D02*
X174480295Y-78650111D01*
X174480295Y-78650111D02*
X174432676Y-78554873D01*
X174432676Y-78554873D02*
X174385057Y-78507254D01*
X174385057Y-78507254D02*
X174289819Y-78459635D01*
X174289819Y-78459635D02*
X174051724Y-78459635D01*
X174051724Y-78459635D02*
X173908867Y-78507254D01*
X173623152Y-78459635D02*
X173051724Y-78459635D01*
X173337438Y-79459635D02*
X173337438Y-78459635D01*
X172718390Y-79459635D02*
X172718390Y-78459635D01*
X172718390Y-78459635D02*
X172385057Y-79173920D01*
X172385057Y-79173920D02*
X172051724Y-78459635D01*
X172051724Y-78459635D02*
X172051724Y-79459635D01*
X171670771Y-78459635D02*
X171051724Y-78459635D01*
X171051724Y-78459635D02*
X171385057Y-78840587D01*
X171385057Y-78840587D02*
X171242200Y-78840587D01*
X171242200Y-78840587D02*
X171146962Y-78888206D01*
X171146962Y-78888206D02*
X171099343Y-78935825D01*
X171099343Y-78935825D02*
X171051724Y-79031063D01*
X171051724Y-79031063D02*
X171051724Y-79269158D01*
X171051724Y-79269158D02*
X171099343Y-79364396D01*
X171099343Y-79364396D02*
X171146962Y-79412016D01*
X171146962Y-79412016D02*
X171242200Y-79459635D01*
X171242200Y-79459635D02*
X171527914Y-79459635D01*
X171527914Y-79459635D02*
X171623152Y-79412016D01*
X171623152Y-79412016D02*
X171670771Y-79364396D01*
X170670771Y-78554873D02*
X170623152Y-78507254D01*
X170623152Y-78507254D02*
X170527914Y-78459635D01*
X170527914Y-78459635D02*
X170289819Y-78459635D01*
X170289819Y-78459635D02*
X170194581Y-78507254D01*
X170194581Y-78507254D02*
X170146962Y-78554873D01*
X170146962Y-78554873D02*
X170099343Y-78650111D01*
X170099343Y-78650111D02*
X170099343Y-78745349D01*
X170099343Y-78745349D02*
X170146962Y-78888206D01*
X170146962Y-78888206D02*
X170718390Y-79459635D01*
X170718390Y-79459635D02*
X170099343Y-79459635D01*
X169766009Y-78459635D02*
X169527914Y-79459635D01*
X169527914Y-79459635D02*
X169337438Y-78745349D01*
X169337438Y-78745349D02*
X169146962Y-79459635D01*
X169146962Y-79459635D02*
X168908867Y-78459635D01*
X168051724Y-79459635D02*
X168527914Y-79459635D01*
X168527914Y-79459635D02*
X168527914Y-78459635D01*
X167242200Y-78459635D02*
X167718390Y-78459635D01*
X167718390Y-78459635D02*
X167766009Y-78935825D01*
X167766009Y-78935825D02*
X167718390Y-78888206D01*
X167718390Y-78888206D02*
X167623152Y-78840587D01*
X167623152Y-78840587D02*
X167385057Y-78840587D01*
X167385057Y-78840587D02*
X167289819Y-78888206D01*
X167289819Y-78888206D02*
X167242200Y-78935825D01*
X167242200Y-78935825D02*
X167194581Y-79031063D01*
X167194581Y-79031063D02*
X167194581Y-79269158D01*
X167194581Y-79269158D02*
X167242200Y-79364396D01*
X167242200Y-79364396D02*
X167289819Y-79412016D01*
X167289819Y-79412016D02*
X167385057Y-79459635D01*
X167385057Y-79459635D02*
X167623152Y-79459635D01*
X167623152Y-79459635D02*
X167718390Y-79412016D01*
X167718390Y-79412016D02*
X167766009Y-79364396D01*
X166289819Y-78459635D02*
X166766009Y-78459635D01*
X166766009Y-78459635D02*
X166813628Y-78935825D01*
X166813628Y-78935825D02*
X166766009Y-78888206D01*
X166766009Y-78888206D02*
X166670771Y-78840587D01*
X166670771Y-78840587D02*
X166432676Y-78840587D01*
X166432676Y-78840587D02*
X166337438Y-78888206D01*
X166337438Y-78888206D02*
X166289819Y-78935825D01*
X166289819Y-78935825D02*
X166242200Y-79031063D01*
X166242200Y-79031063D02*
X166242200Y-79269158D01*
X166242200Y-79269158D02*
X166289819Y-79364396D01*
X166289819Y-79364396D02*
X166337438Y-79412016D01*
X166337438Y-79412016D02*
X166432676Y-79459635D01*
X166432676Y-79459635D02*
X166670771Y-79459635D01*
X166670771Y-79459635D02*
X166766009Y-79412016D01*
X166766009Y-79412016D02*
X166813628Y-79364396D01*
X165242200Y-79364396D02*
X165289819Y-79412016D01*
X165289819Y-79412016D02*
X165432676Y-79459635D01*
X165432676Y-79459635D02*
X165527914Y-79459635D01*
X165527914Y-79459635D02*
X165670771Y-79412016D01*
X165670771Y-79412016D02*
X165766009Y-79316777D01*
X165766009Y-79316777D02*
X165813628Y-79221539D01*
X165813628Y-79221539D02*
X165861247Y-79031063D01*
X165861247Y-79031063D02*
X165861247Y-78888206D01*
X165861247Y-78888206D02*
X165813628Y-78697730D01*
X165813628Y-78697730D02*
X165766009Y-78602492D01*
X165766009Y-78602492D02*
X165670771Y-78507254D01*
X165670771Y-78507254D02*
X165527914Y-78459635D01*
X165527914Y-78459635D02*
X165432676Y-78459635D01*
X165432676Y-78459635D02*
X165289819Y-78507254D01*
X165289819Y-78507254D02*
X165242200Y-78554873D01*
X164242200Y-79364396D02*
X164289819Y-79412016D01*
X164289819Y-79412016D02*
X164432676Y-79459635D01*
X164432676Y-79459635D02*
X164527914Y-79459635D01*
X164527914Y-79459635D02*
X164670771Y-79412016D01*
X164670771Y-79412016D02*
X164766009Y-79316777D01*
X164766009Y-79316777D02*
X164813628Y-79221539D01*
X164813628Y-79221539D02*
X164861247Y-79031063D01*
X164861247Y-79031063D02*
X164861247Y-78888206D01*
X164861247Y-78888206D02*
X164813628Y-78697730D01*
X164813628Y-78697730D02*
X164766009Y-78602492D01*
X164766009Y-78602492D02*
X164670771Y-78507254D01*
X164670771Y-78507254D02*
X164527914Y-78459635D01*
X164527914Y-78459635D02*
X164432676Y-78459635D01*
X164432676Y-78459635D02*
X164289819Y-78507254D01*
X164289819Y-78507254D02*
X164242200Y-78554873D01*
X163813628Y-78459635D02*
X163813628Y-79269158D01*
X163813628Y-79269158D02*
X163766009Y-79364396D01*
X163766009Y-79364396D02*
X163718390Y-79412016D01*
X163718390Y-79412016D02*
X163623152Y-79459635D01*
X163623152Y-79459635D02*
X163432676Y-79459635D01*
X163432676Y-79459635D02*
X163337438Y-79412016D01*
X163337438Y-79412016D02*
X163289819Y-79364396D01*
X163289819Y-79364396D02*
X163242200Y-79269158D01*
X163242200Y-79269158D02*
X163242200Y-78459635D01*
X162337438Y-78459635D02*
X162527914Y-78459635D01*
X162527914Y-78459635D02*
X162623152Y-78507254D01*
X162623152Y-78507254D02*
X162670771Y-78554873D01*
X162670771Y-78554873D02*
X162766009Y-78697730D01*
X162766009Y-78697730D02*
X162813628Y-78888206D01*
X162813628Y-78888206D02*
X162813628Y-79269158D01*
X162813628Y-79269158D02*
X162766009Y-79364396D01*
X162766009Y-79364396D02*
X162718390Y-79412016D01*
X162718390Y-79412016D02*
X162623152Y-79459635D01*
X162623152Y-79459635D02*
X162432676Y-79459635D01*
X162432676Y-79459635D02*
X162337438Y-79412016D01*
X162337438Y-79412016D02*
X162289819Y-79364396D01*
X162289819Y-79364396D02*
X162242200Y-79269158D01*
X162242200Y-79269158D02*
X162242200Y-79031063D01*
X162242200Y-79031063D02*
X162289819Y-78935825D01*
X162289819Y-78935825D02*
X162337438Y-78888206D01*
X162337438Y-78888206D02*
X162432676Y-78840587D01*
X162432676Y-78840587D02*
X162623152Y-78840587D01*
X162623152Y-78840587D02*
X162718390Y-78888206D01*
X162718390Y-78888206D02*
X162766009Y-78935825D01*
X162766009Y-78935825D02*
X162813628Y-79031063D01*
X178385057Y-81069579D02*
X178861247Y-81069579D01*
X178861247Y-81069579D02*
X178861247Y-80069579D01*
X178051723Y-81069579D02*
X178051723Y-80069579D01*
X178051723Y-80069579D02*
X177813628Y-80069579D01*
X177813628Y-80069579D02*
X177670771Y-80117198D01*
X177670771Y-80117198D02*
X177575533Y-80212436D01*
X177575533Y-80212436D02*
X177527914Y-80307674D01*
X177527914Y-80307674D02*
X177480295Y-80498150D01*
X177480295Y-80498150D02*
X177480295Y-80641007D01*
X177480295Y-80641007D02*
X177527914Y-80831483D01*
X177527914Y-80831483D02*
X177575533Y-80926721D01*
X177575533Y-80926721D02*
X177670771Y-81021960D01*
X177670771Y-81021960D02*
X177813628Y-81069579D01*
X177813628Y-81069579D02*
X178051723Y-81069579D01*
X176861247Y-80069579D02*
X176670771Y-80069579D01*
X176670771Y-80069579D02*
X176575533Y-80117198D01*
X176575533Y-80117198D02*
X176480295Y-80212436D01*
X176480295Y-80212436D02*
X176432676Y-80402912D01*
X176432676Y-80402912D02*
X176432676Y-80736245D01*
X176432676Y-80736245D02*
X176480295Y-80926721D01*
X176480295Y-80926721D02*
X176575533Y-81021960D01*
X176575533Y-81021960D02*
X176670771Y-81069579D01*
X176670771Y-81069579D02*
X176861247Y-81069579D01*
X176861247Y-81069579D02*
X176956485Y-81021960D01*
X176956485Y-81021960D02*
X177051723Y-80926721D01*
X177051723Y-80926721D02*
X177099342Y-80736245D01*
X177099342Y-80736245D02*
X177099342Y-80402912D01*
X177099342Y-80402912D02*
X177051723Y-80212436D01*
X177051723Y-80212436D02*
X176956485Y-80117198D01*
X176956485Y-80117198D02*
X176861247Y-80069579D01*
X176004104Y-80974340D02*
X175956485Y-81021960D01*
X175956485Y-81021960D02*
X176004104Y-81069579D01*
X176004104Y-81069579D02*
X176051723Y-81021960D01*
X176051723Y-81021960D02*
X176004104Y-80974340D01*
X176004104Y-80974340D02*
X176004104Y-81069579D01*
X176004104Y-80450531D02*
X175956485Y-80498150D01*
X175956485Y-80498150D02*
X176004104Y-80545769D01*
X176004104Y-80545769D02*
X176051723Y-80498150D01*
X176051723Y-80498150D02*
X176004104Y-80450531D01*
X176004104Y-80450531D02*
X176004104Y-80545769D01*
X174289819Y-81069579D02*
X174766009Y-81069579D01*
X174766009Y-81069579D02*
X174766009Y-80069579D01*
X173956485Y-81069579D02*
X173956485Y-80069579D01*
X173956485Y-80069579D02*
X173718390Y-80069579D01*
X173718390Y-80069579D02*
X173575533Y-80117198D01*
X173575533Y-80117198D02*
X173480295Y-80212436D01*
X173480295Y-80212436D02*
X173432676Y-80307674D01*
X173432676Y-80307674D02*
X173385057Y-80498150D01*
X173385057Y-80498150D02*
X173385057Y-80641007D01*
X173385057Y-80641007D02*
X173432676Y-80831483D01*
X173432676Y-80831483D02*
X173480295Y-80926721D01*
X173480295Y-80926721D02*
X173575533Y-81021960D01*
X173575533Y-81021960D02*
X173718390Y-81069579D01*
X173718390Y-81069579D02*
X173956485Y-81069579D01*
X172480295Y-81069579D02*
X172956485Y-81069579D01*
X172956485Y-81069579D02*
X172956485Y-80069579D01*
X172146961Y-81069579D02*
X172146961Y-80069579D01*
X172146961Y-80069579D02*
X171575533Y-81069579D01*
X171575533Y-81069579D02*
X171575533Y-80069579D01*
X170908866Y-80069579D02*
X170813628Y-80069579D01*
X170813628Y-80069579D02*
X170718390Y-80117198D01*
X170718390Y-80117198D02*
X170670771Y-80164817D01*
X170670771Y-80164817D02*
X170623152Y-80260055D01*
X170623152Y-80260055D02*
X170575533Y-80450531D01*
X170575533Y-80450531D02*
X170575533Y-80688626D01*
X170575533Y-80688626D02*
X170623152Y-80879102D01*
X170623152Y-80879102D02*
X170670771Y-80974340D01*
X170670771Y-80974340D02*
X170718390Y-81021960D01*
X170718390Y-81021960D02*
X170813628Y-81069579D01*
X170813628Y-81069579D02*
X170908866Y-81069579D01*
X170908866Y-81069579D02*
X171004104Y-81021960D01*
X171004104Y-81021960D02*
X171051723Y-80974340D01*
X171051723Y-80974340D02*
X171099342Y-80879102D01*
X171099342Y-80879102D02*
X171146961Y-80688626D01*
X171146961Y-80688626D02*
X171146961Y-80450531D01*
X171146961Y-80450531D02*
X171099342Y-80260055D01*
X171099342Y-80260055D02*
X171051723Y-80164817D01*
X171051723Y-80164817D02*
X171004104Y-80117198D01*
X171004104Y-80117198D02*
X170908866Y-80069579D01*
X169670771Y-80069579D02*
X170146961Y-80069579D01*
X170146961Y-80069579D02*
X170194580Y-80545769D01*
X170194580Y-80545769D02*
X170146961Y-80498150D01*
X170146961Y-80498150D02*
X170051723Y-80450531D01*
X170051723Y-80450531D02*
X169813628Y-80450531D01*
X169813628Y-80450531D02*
X169718390Y-80498150D01*
X169718390Y-80498150D02*
X169670771Y-80545769D01*
X169670771Y-80545769D02*
X169623152Y-80641007D01*
X169623152Y-80641007D02*
X169623152Y-80879102D01*
X169623152Y-80879102D02*
X169670771Y-80974340D01*
X169670771Y-80974340D02*
X169718390Y-81021960D01*
X169718390Y-81021960D02*
X169813628Y-81069579D01*
X169813628Y-81069579D02*
X170051723Y-81069579D01*
X170051723Y-81069579D02*
X170146961Y-81021960D01*
X170146961Y-81021960D02*
X170194580Y-80974340D01*
X169004104Y-80069579D02*
X168908866Y-80069579D01*
X168908866Y-80069579D02*
X168813628Y-80117198D01*
X168813628Y-80117198D02*
X168766009Y-80164817D01*
X168766009Y-80164817D02*
X168718390Y-80260055D01*
X168718390Y-80260055D02*
X168670771Y-80450531D01*
X168670771Y-80450531D02*
X168670771Y-80688626D01*
X168670771Y-80688626D02*
X168718390Y-80879102D01*
X168718390Y-80879102D02*
X168766009Y-80974340D01*
X168766009Y-80974340D02*
X168813628Y-81021960D01*
X168813628Y-81021960D02*
X168908866Y-81069579D01*
X168908866Y-81069579D02*
X169004104Y-81069579D01*
X169004104Y-81069579D02*
X169099342Y-81021960D01*
X169099342Y-81021960D02*
X169146961Y-80974340D01*
X169146961Y-80974340D02*
X169194580Y-80879102D01*
X169194580Y-80879102D02*
X169242199Y-80688626D01*
X169242199Y-80688626D02*
X169242199Y-80450531D01*
X169242199Y-80450531D02*
X169194580Y-80260055D01*
X169194580Y-80260055D02*
X169146961Y-80164817D01*
X169146961Y-80164817D02*
X169099342Y-80117198D01*
X169099342Y-80117198D02*
X169004104Y-80069579D01*
X168242199Y-81069579D02*
X168242199Y-80069579D01*
X168242199Y-80069579D02*
X167861247Y-80069579D01*
X167861247Y-80069579D02*
X167766009Y-80117198D01*
X167766009Y-80117198D02*
X167718390Y-80164817D01*
X167718390Y-80164817D02*
X167670771Y-80260055D01*
X167670771Y-80260055D02*
X167670771Y-80402912D01*
X167670771Y-80402912D02*
X167718390Y-80498150D01*
X167718390Y-80498150D02*
X167766009Y-80545769D01*
X167766009Y-80545769D02*
X167861247Y-80593388D01*
X167861247Y-80593388D02*
X168242199Y-80593388D01*
X167242199Y-80069579D02*
X167242199Y-80879102D01*
X167242199Y-80879102D02*
X167194580Y-80974340D01*
X167194580Y-80974340D02*
X167146961Y-81021960D01*
X167146961Y-81021960D02*
X167051723Y-81069579D01*
X167051723Y-81069579D02*
X166861247Y-81069579D01*
X166861247Y-81069579D02*
X166766009Y-81021960D01*
X166766009Y-81021960D02*
X166718390Y-80974340D01*
X166718390Y-80974340D02*
X166670771Y-80879102D01*
X166670771Y-80879102D02*
X166670771Y-80069579D01*
X166289818Y-80069579D02*
X165670771Y-80069579D01*
X165670771Y-80069579D02*
X166004104Y-80450531D01*
X166004104Y-80450531D02*
X165861247Y-80450531D01*
X165861247Y-80450531D02*
X165766009Y-80498150D01*
X165766009Y-80498150D02*
X165718390Y-80545769D01*
X165718390Y-80545769D02*
X165670771Y-80641007D01*
X165670771Y-80641007D02*
X165670771Y-80879102D01*
X165670771Y-80879102D02*
X165718390Y-80974340D01*
X165718390Y-80974340D02*
X165766009Y-81021960D01*
X165766009Y-81021960D02*
X165861247Y-81069579D01*
X165861247Y-81069579D02*
X166146961Y-81069579D01*
X166146961Y-81069579D02*
X166242199Y-81021960D01*
X166242199Y-81021960D02*
X166289818Y-80974340D01*
X165337437Y-80069579D02*
X164718390Y-80069579D01*
X164718390Y-80069579D02*
X165051723Y-80450531D01*
X165051723Y-80450531D02*
X164908866Y-80450531D01*
X164908866Y-80450531D02*
X164813628Y-80498150D01*
X164813628Y-80498150D02*
X164766009Y-80545769D01*
X164766009Y-80545769D02*
X164718390Y-80641007D01*
X164718390Y-80641007D02*
X164718390Y-80879102D01*
X164718390Y-80879102D02*
X164766009Y-80974340D01*
X164766009Y-80974340D02*
X164813628Y-81021960D01*
X164813628Y-81021960D02*
X164908866Y-81069579D01*
X164908866Y-81069579D02*
X165194580Y-81069579D01*
X165194580Y-81069579D02*
X165289818Y-81021960D01*
X165289818Y-81021960D02*
X165337437Y-80974340D01*
X163718390Y-81069579D02*
X164051723Y-80593388D01*
X164289818Y-81069579D02*
X164289818Y-80069579D01*
X164289818Y-80069579D02*
X163908866Y-80069579D01*
X163908866Y-80069579D02*
X163813628Y-80117198D01*
X163813628Y-80117198D02*
X163766009Y-80164817D01*
X163766009Y-80164817D02*
X163718390Y-80260055D01*
X163718390Y-80260055D02*
X163718390Y-80402912D01*
X163718390Y-80402912D02*
X163766009Y-80498150D01*
X163766009Y-80498150D02*
X163813628Y-80545769D01*
X163813628Y-80545769D02*
X163908866Y-80593388D01*
X163908866Y-80593388D02*
X164289818Y-80593388D01*
X179004104Y-81679523D02*
X178670771Y-82679523D01*
X178670771Y-82679523D02*
X178337438Y-81679523D01*
X178004104Y-82679523D02*
X178004104Y-81679523D01*
X177527914Y-82679523D02*
X177527914Y-81679523D01*
X177527914Y-81679523D02*
X176956486Y-82679523D01*
X176956486Y-82679523D02*
X176956486Y-81679523D01*
X176480295Y-82584284D02*
X176432676Y-82631904D01*
X176432676Y-82631904D02*
X176480295Y-82679523D01*
X176480295Y-82679523D02*
X176527914Y-82631904D01*
X176527914Y-82631904D02*
X176480295Y-82584284D01*
X176480295Y-82584284D02*
X176480295Y-82679523D01*
X176480295Y-82060475D02*
X176432676Y-82108094D01*
X176432676Y-82108094D02*
X176480295Y-82155713D01*
X176480295Y-82155713D02*
X176527914Y-82108094D01*
X176527914Y-82108094D02*
X176480295Y-82060475D01*
X176480295Y-82060475D02*
X176480295Y-82155713D01*
X175289819Y-81774761D02*
X175242200Y-81727142D01*
X175242200Y-81727142D02*
X175146962Y-81679523D01*
X175146962Y-81679523D02*
X174908867Y-81679523D01*
X174908867Y-81679523D02*
X174813629Y-81727142D01*
X174813629Y-81727142D02*
X174766010Y-81774761D01*
X174766010Y-81774761D02*
X174718391Y-81869999D01*
X174718391Y-81869999D02*
X174718391Y-81965237D01*
X174718391Y-81965237D02*
X174766010Y-82108094D01*
X174766010Y-82108094D02*
X175337438Y-82679523D01*
X175337438Y-82679523D02*
X174718391Y-82679523D01*
X174289819Y-82584284D02*
X174242200Y-82631904D01*
X174242200Y-82631904D02*
X174289819Y-82679523D01*
X174289819Y-82679523D02*
X174337438Y-82631904D01*
X174337438Y-82631904D02*
X174289819Y-82584284D01*
X174289819Y-82584284D02*
X174289819Y-82679523D01*
X173908867Y-81679523D02*
X173242201Y-81679523D01*
X173242201Y-81679523D02*
X173670772Y-82679523D01*
X172242200Y-82012856D02*
X171861248Y-82012856D01*
X172099343Y-81679523D02*
X172099343Y-82536665D01*
X172099343Y-82536665D02*
X172051724Y-82631904D01*
X172051724Y-82631904D02*
X171956486Y-82679523D01*
X171956486Y-82679523D02*
X171861248Y-82679523D01*
X171385057Y-82679523D02*
X171480295Y-82631904D01*
X171480295Y-82631904D02*
X171527914Y-82584284D01*
X171527914Y-82584284D02*
X171575533Y-82489046D01*
X171575533Y-82489046D02*
X171575533Y-82203332D01*
X171575533Y-82203332D02*
X171527914Y-82108094D01*
X171527914Y-82108094D02*
X171480295Y-82060475D01*
X171480295Y-82060475D02*
X171385057Y-82012856D01*
X171385057Y-82012856D02*
X171242200Y-82012856D01*
X171242200Y-82012856D02*
X171146962Y-82060475D01*
X171146962Y-82060475D02*
X171099343Y-82108094D01*
X171099343Y-82108094D02*
X171051724Y-82203332D01*
X171051724Y-82203332D02*
X171051724Y-82489046D01*
X171051724Y-82489046D02*
X171099343Y-82584284D01*
X171099343Y-82584284D02*
X171146962Y-82631904D01*
X171146962Y-82631904D02*
X171242200Y-82679523D01*
X171242200Y-82679523D02*
X171385057Y-82679523D01*
X169432676Y-81679523D02*
X169623152Y-81679523D01*
X169623152Y-81679523D02*
X169718390Y-81727142D01*
X169718390Y-81727142D02*
X169766009Y-81774761D01*
X169766009Y-81774761D02*
X169861247Y-81917618D01*
X169861247Y-81917618D02*
X169908866Y-82108094D01*
X169908866Y-82108094D02*
X169908866Y-82489046D01*
X169908866Y-82489046D02*
X169861247Y-82584284D01*
X169861247Y-82584284D02*
X169813628Y-82631904D01*
X169813628Y-82631904D02*
X169718390Y-82679523D01*
X169718390Y-82679523D02*
X169527914Y-82679523D01*
X169527914Y-82679523D02*
X169432676Y-82631904D01*
X169432676Y-82631904D02*
X169385057Y-82584284D01*
X169385057Y-82584284D02*
X169337438Y-82489046D01*
X169337438Y-82489046D02*
X169337438Y-82250951D01*
X169337438Y-82250951D02*
X169385057Y-82155713D01*
X169385057Y-82155713D02*
X169432676Y-82108094D01*
X169432676Y-82108094D02*
X169527914Y-82060475D01*
X169527914Y-82060475D02*
X169718390Y-82060475D01*
X169718390Y-82060475D02*
X169813628Y-82108094D01*
X169813628Y-82108094D02*
X169861247Y-82155713D01*
X169861247Y-82155713D02*
X169908866Y-82250951D01*
X168908866Y-82584284D02*
X168861247Y-82631904D01*
X168861247Y-82631904D02*
X168908866Y-82679523D01*
X168908866Y-82679523D02*
X168956485Y-82631904D01*
X168956485Y-82631904D02*
X168908866Y-82584284D01*
X168908866Y-82584284D02*
X168908866Y-82679523D01*
X167956486Y-81679523D02*
X168432676Y-81679523D01*
X168432676Y-81679523D02*
X168480295Y-82155713D01*
X168480295Y-82155713D02*
X168432676Y-82108094D01*
X168432676Y-82108094D02*
X168337438Y-82060475D01*
X168337438Y-82060475D02*
X168099343Y-82060475D01*
X168099343Y-82060475D02*
X168004105Y-82108094D01*
X168004105Y-82108094D02*
X167956486Y-82155713D01*
X167956486Y-82155713D02*
X167908867Y-82250951D01*
X167908867Y-82250951D02*
X167908867Y-82489046D01*
X167908867Y-82489046D02*
X167956486Y-82584284D01*
X167956486Y-82584284D02*
X168004105Y-82631904D01*
X168004105Y-82631904D02*
X168099343Y-82679523D01*
X168099343Y-82679523D02*
X168337438Y-82679523D01*
X168337438Y-82679523D02*
X168432676Y-82631904D01*
X168432676Y-82631904D02*
X168480295Y-82584284D01*
X167623152Y-81679523D02*
X167289819Y-82679523D01*
X167289819Y-82679523D02*
X166956486Y-81679523D01*
X154897717Y-111661904D02*
X154945336Y-111757142D01*
X154945336Y-111757142D02*
X154945336Y-111899999D01*
X154945336Y-111899999D02*
X154897717Y-112042856D01*
X154897717Y-112042856D02*
X154802479Y-112138094D01*
X154802479Y-112138094D02*
X154707241Y-112185713D01*
X154707241Y-112185713D02*
X154516765Y-112233332D01*
X154516765Y-112233332D02*
X154373908Y-112233332D01*
X154373908Y-112233332D02*
X154183432Y-112185713D01*
X154183432Y-112185713D02*
X154088194Y-112138094D01*
X154088194Y-112138094D02*
X153992956Y-112042856D01*
X153992956Y-112042856D02*
X153945336Y-111899999D01*
X153945336Y-111899999D02*
X153945336Y-111804761D01*
X153945336Y-111804761D02*
X153992956Y-111661904D01*
X153992956Y-111661904D02*
X154040575Y-111614285D01*
X154040575Y-111614285D02*
X154373908Y-111614285D01*
X154373908Y-111614285D02*
X154373908Y-111804761D01*
X153945336Y-111185713D02*
X154945336Y-111185713D01*
X154945336Y-111185713D02*
X153945336Y-110614285D01*
X153945336Y-110614285D02*
X154945336Y-110614285D01*
X153945336Y-110138094D02*
X154945336Y-110138094D01*
X154945336Y-110138094D02*
X154945336Y-109899999D01*
X154945336Y-109899999D02*
X154897717Y-109757142D01*
X154897717Y-109757142D02*
X154802479Y-109661904D01*
X154802479Y-109661904D02*
X154707241Y-109614285D01*
X154707241Y-109614285D02*
X154516765Y-109566666D01*
X154516765Y-109566666D02*
X154373908Y-109566666D01*
X154373908Y-109566666D02*
X154183432Y-109614285D01*
X154183432Y-109614285D02*
X154088194Y-109661904D01*
X154088194Y-109661904D02*
X153992956Y-109757142D01*
X153992956Y-109757142D02*
X153945336Y-109899999D01*
X153945336Y-109899999D02*
X153945336Y-110138094D01*
X182392956Y-112414285D02*
X182345336Y-112271428D01*
X182345336Y-112271428D02*
X182345336Y-112033333D01*
X182345336Y-112033333D02*
X182392956Y-111938095D01*
X182392956Y-111938095D02*
X182440575Y-111890476D01*
X182440575Y-111890476D02*
X182535813Y-111842857D01*
X182535813Y-111842857D02*
X182631051Y-111842857D01*
X182631051Y-111842857D02*
X182726289Y-111890476D01*
X182726289Y-111890476D02*
X182773908Y-111938095D01*
X182773908Y-111938095D02*
X182821527Y-112033333D01*
X182821527Y-112033333D02*
X182869146Y-112223809D01*
X182869146Y-112223809D02*
X182916765Y-112319047D01*
X182916765Y-112319047D02*
X182964384Y-112366666D01*
X182964384Y-112366666D02*
X183059622Y-112414285D01*
X183059622Y-112414285D02*
X183154860Y-112414285D01*
X183154860Y-112414285D02*
X183250098Y-112366666D01*
X183250098Y-112366666D02*
X183297717Y-112319047D01*
X183297717Y-112319047D02*
X183345336Y-112223809D01*
X183345336Y-112223809D02*
X183345336Y-111985714D01*
X183345336Y-111985714D02*
X183297717Y-111842857D01*
X182345336Y-111414285D02*
X183345336Y-111414285D01*
X183345336Y-111414285D02*
X183345336Y-111176190D01*
X183345336Y-111176190D02*
X183297717Y-111033333D01*
X183297717Y-111033333D02*
X183202479Y-110938095D01*
X183202479Y-110938095D02*
X183107241Y-110890476D01*
X183107241Y-110890476D02*
X182916765Y-110842857D01*
X182916765Y-110842857D02*
X182773908Y-110842857D01*
X182773908Y-110842857D02*
X182583432Y-110890476D01*
X182583432Y-110890476D02*
X182488194Y-110938095D01*
X182488194Y-110938095D02*
X182392956Y-111033333D01*
X182392956Y-111033333D02*
X182345336Y-111176190D01*
X182345336Y-111176190D02*
X182345336Y-111414285D01*
X182631051Y-110461904D02*
X182631051Y-109985714D01*
X182345336Y-110557142D02*
X183345336Y-110223809D01*
X183345336Y-110223809D02*
X182345336Y-109890476D01*
X103807044Y-77271428D02*
X103854663Y-77414285D01*
X103854663Y-77414285D02*
X103854663Y-77652380D01*
X103854663Y-77652380D02*
X103807044Y-77747618D01*
X103807044Y-77747618D02*
X103759424Y-77795237D01*
X103759424Y-77795237D02*
X103664186Y-77842856D01*
X103664186Y-77842856D02*
X103568948Y-77842856D01*
X103568948Y-77842856D02*
X103473710Y-77795237D01*
X103473710Y-77795237D02*
X103426091Y-77747618D01*
X103426091Y-77747618D02*
X103378472Y-77652380D01*
X103378472Y-77652380D02*
X103330853Y-77461904D01*
X103330853Y-77461904D02*
X103283234Y-77366666D01*
X103283234Y-77366666D02*
X103235615Y-77319047D01*
X103235615Y-77319047D02*
X103140377Y-77271428D01*
X103140377Y-77271428D02*
X103045139Y-77271428D01*
X103045139Y-77271428D02*
X102949901Y-77319047D01*
X102949901Y-77319047D02*
X102902282Y-77366666D01*
X102902282Y-77366666D02*
X102854663Y-77461904D01*
X102854663Y-77461904D02*
X102854663Y-77699999D01*
X102854663Y-77699999D02*
X102902282Y-77842856D01*
X103854663Y-78271428D02*
X102854663Y-78271428D01*
X102854663Y-78271428D02*
X102854663Y-78509523D01*
X102854663Y-78509523D02*
X102902282Y-78652380D01*
X102902282Y-78652380D02*
X102997520Y-78747618D01*
X102997520Y-78747618D02*
X103092758Y-78795237D01*
X103092758Y-78795237D02*
X103283234Y-78842856D01*
X103283234Y-78842856D02*
X103426091Y-78842856D01*
X103426091Y-78842856D02*
X103616567Y-78795237D01*
X103616567Y-78795237D02*
X103711805Y-78747618D01*
X103711805Y-78747618D02*
X103807044Y-78652380D01*
X103807044Y-78652380D02*
X103854663Y-78509523D01*
X103854663Y-78509523D02*
X103854663Y-78271428D01*
X103854663Y-80033333D02*
X102854663Y-80033333D01*
X102854663Y-80033333D02*
X103854663Y-80604761D01*
X103854663Y-80604761D02*
X102854663Y-80604761D01*
X103854663Y-81652380D02*
X103378472Y-81319047D01*
X103854663Y-81080952D02*
X102854663Y-81080952D01*
X102854663Y-81080952D02*
X102854663Y-81461904D01*
X102854663Y-81461904D02*
X102902282Y-81557142D01*
X102902282Y-81557142D02*
X102949901Y-81604761D01*
X102949901Y-81604761D02*
X103045139Y-81652380D01*
X103045139Y-81652380D02*
X103187996Y-81652380D01*
X103187996Y-81652380D02*
X103283234Y-81604761D01*
X103283234Y-81604761D02*
X103330853Y-81557142D01*
X103330853Y-81557142D02*
X103378472Y-81461904D01*
X103378472Y-81461904D02*
X103378472Y-81080952D01*
X103807044Y-82795238D02*
X103854663Y-82938095D01*
X103854663Y-82938095D02*
X103854663Y-83176190D01*
X103854663Y-83176190D02*
X103807044Y-83271428D01*
X103807044Y-83271428D02*
X103759424Y-83319047D01*
X103759424Y-83319047D02*
X103664186Y-83366666D01*
X103664186Y-83366666D02*
X103568948Y-83366666D01*
X103568948Y-83366666D02*
X103473710Y-83319047D01*
X103473710Y-83319047D02*
X103426091Y-83271428D01*
X103426091Y-83271428D02*
X103378472Y-83176190D01*
X103378472Y-83176190D02*
X103330853Y-82985714D01*
X103330853Y-82985714D02*
X103283234Y-82890476D01*
X103283234Y-82890476D02*
X103235615Y-82842857D01*
X103235615Y-82842857D02*
X103140377Y-82795238D01*
X103140377Y-82795238D02*
X103045139Y-82795238D01*
X103045139Y-82795238D02*
X102949901Y-82842857D01*
X102949901Y-82842857D02*
X102902282Y-82890476D01*
X102902282Y-82890476D02*
X102854663Y-82985714D01*
X102854663Y-82985714D02*
X102854663Y-83223809D01*
X102854663Y-83223809D02*
X102902282Y-83366666D01*
X102854663Y-83985714D02*
X102854663Y-84176190D01*
X102854663Y-84176190D02*
X102902282Y-84271428D01*
X102902282Y-84271428D02*
X102997520Y-84366666D01*
X102997520Y-84366666D02*
X103187996Y-84414285D01*
X103187996Y-84414285D02*
X103521329Y-84414285D01*
X103521329Y-84414285D02*
X103711805Y-84366666D01*
X103711805Y-84366666D02*
X103807044Y-84271428D01*
X103807044Y-84271428D02*
X103854663Y-84176190D01*
X103854663Y-84176190D02*
X103854663Y-83985714D01*
X103854663Y-83985714D02*
X103807044Y-83890476D01*
X103807044Y-83890476D02*
X103711805Y-83795238D01*
X103711805Y-83795238D02*
X103521329Y-83747619D01*
X103521329Y-83747619D02*
X103187996Y-83747619D01*
X103187996Y-83747619D02*
X102997520Y-83795238D01*
X102997520Y-83795238D02*
X102902282Y-83890476D01*
X102902282Y-83890476D02*
X102854663Y-83985714D01*
X103807044Y-85557143D02*
X103854663Y-85700000D01*
X103854663Y-85700000D02*
X103854663Y-85938095D01*
X103854663Y-85938095D02*
X103807044Y-86033333D01*
X103807044Y-86033333D02*
X103759424Y-86080952D01*
X103759424Y-86080952D02*
X103664186Y-86128571D01*
X103664186Y-86128571D02*
X103568948Y-86128571D01*
X103568948Y-86128571D02*
X103473710Y-86080952D01*
X103473710Y-86080952D02*
X103426091Y-86033333D01*
X103426091Y-86033333D02*
X103378472Y-85938095D01*
X103378472Y-85938095D02*
X103330853Y-85747619D01*
X103330853Y-85747619D02*
X103283234Y-85652381D01*
X103283234Y-85652381D02*
X103235615Y-85604762D01*
X103235615Y-85604762D02*
X103140377Y-85557143D01*
X103140377Y-85557143D02*
X103045139Y-85557143D01*
X103045139Y-85557143D02*
X102949901Y-85604762D01*
X102949901Y-85604762D02*
X102902282Y-85652381D01*
X102902282Y-85652381D02*
X102854663Y-85747619D01*
X102854663Y-85747619D02*
X102854663Y-85985714D01*
X102854663Y-85985714D02*
X102902282Y-86128571D01*
X103759424Y-87128571D02*
X103807044Y-87080952D01*
X103807044Y-87080952D02*
X103854663Y-86938095D01*
X103854663Y-86938095D02*
X103854663Y-86842857D01*
X103854663Y-86842857D02*
X103807044Y-86700000D01*
X103807044Y-86700000D02*
X103711805Y-86604762D01*
X103711805Y-86604762D02*
X103616567Y-86557143D01*
X103616567Y-86557143D02*
X103426091Y-86509524D01*
X103426091Y-86509524D02*
X103283234Y-86509524D01*
X103283234Y-86509524D02*
X103092758Y-86557143D01*
X103092758Y-86557143D02*
X102997520Y-86604762D01*
X102997520Y-86604762D02*
X102902282Y-86700000D01*
X102902282Y-86700000D02*
X102854663Y-86842857D01*
X102854663Y-86842857D02*
X102854663Y-86938095D01*
X102854663Y-86938095D02*
X102902282Y-87080952D01*
X102902282Y-87080952D02*
X102949901Y-87128571D01*
X124452380Y-76854663D02*
X124452380Y-75854663D01*
X124452380Y-75854663D02*
X124071428Y-75854663D01*
X124071428Y-75854663D02*
X123976190Y-75902282D01*
X123976190Y-75902282D02*
X123928571Y-75949901D01*
X123928571Y-75949901D02*
X123880952Y-76045139D01*
X123880952Y-76045139D02*
X123880952Y-76187996D01*
X123880952Y-76187996D02*
X123928571Y-76283234D01*
X123928571Y-76283234D02*
X123976190Y-76330853D01*
X123976190Y-76330853D02*
X124071428Y-76378472D01*
X124071428Y-76378472D02*
X124452380Y-76378472D01*
X123547618Y-75854663D02*
X123309523Y-76854663D01*
X123309523Y-76854663D02*
X123119047Y-76140377D01*
X123119047Y-76140377D02*
X122928571Y-76854663D01*
X122928571Y-76854663D02*
X122690476Y-75854663D01*
X121738095Y-76854663D02*
X122071428Y-76378472D01*
X122309523Y-76854663D02*
X122309523Y-75854663D01*
X122309523Y-75854663D02*
X121928571Y-75854663D01*
X121928571Y-75854663D02*
X121833333Y-75902282D01*
X121833333Y-75902282D02*
X121785714Y-75949901D01*
X121785714Y-75949901D02*
X121738095Y-76045139D01*
X121738095Y-76045139D02*
X121738095Y-76187996D01*
X121738095Y-76187996D02*
X121785714Y-76283234D01*
X121785714Y-76283234D02*
X121833333Y-76330853D01*
X121833333Y-76330853D02*
X121928571Y-76378472D01*
X121928571Y-76378472D02*
X122309523Y-76378472D01*
X121309523Y-76473710D02*
X120547619Y-76473710D01*
X120928571Y-76854663D02*
X120928571Y-76092758D01*
X163771427Y-115154663D02*
X163771427Y-114154663D01*
X163771427Y-114154663D02*
X163438094Y-114868948D01*
X163438094Y-114868948D02*
X163104761Y-114154663D01*
X163104761Y-114154663D02*
X163104761Y-115154663D01*
X162628570Y-115154663D02*
X162628570Y-114154663D01*
X162199999Y-115107044D02*
X162057142Y-115154663D01*
X162057142Y-115154663D02*
X161819047Y-115154663D01*
X161819047Y-115154663D02*
X161723809Y-115107044D01*
X161723809Y-115107044D02*
X161676190Y-115059424D01*
X161676190Y-115059424D02*
X161628571Y-114964186D01*
X161628571Y-114964186D02*
X161628571Y-114868948D01*
X161628571Y-114868948D02*
X161676190Y-114773710D01*
X161676190Y-114773710D02*
X161723809Y-114726091D01*
X161723809Y-114726091D02*
X161819047Y-114678472D01*
X161819047Y-114678472D02*
X162009523Y-114630853D01*
X162009523Y-114630853D02*
X162104761Y-114583234D01*
X162104761Y-114583234D02*
X162152380Y-114535615D01*
X162152380Y-114535615D02*
X162199999Y-114440377D01*
X162199999Y-114440377D02*
X162199999Y-114345139D01*
X162199999Y-114345139D02*
X162152380Y-114249901D01*
X162152380Y-114249901D02*
X162104761Y-114202282D01*
X162104761Y-114202282D02*
X162009523Y-114154663D01*
X162009523Y-114154663D02*
X161771428Y-114154663D01*
X161771428Y-114154663D02*
X161628571Y-114202282D01*
X161009523Y-114154663D02*
X160819047Y-114154663D01*
X160819047Y-114154663D02*
X160723809Y-114202282D01*
X160723809Y-114202282D02*
X160628571Y-114297520D01*
X160628571Y-114297520D02*
X160580952Y-114487996D01*
X160580952Y-114487996D02*
X160580952Y-114821329D01*
X160580952Y-114821329D02*
X160628571Y-115011805D01*
X160628571Y-115011805D02*
X160723809Y-115107044D01*
X160723809Y-115107044D02*
X160819047Y-115154663D01*
X160819047Y-115154663D02*
X161009523Y-115154663D01*
X161009523Y-115154663D02*
X161104761Y-115107044D01*
X161104761Y-115107044D02*
X161199999Y-115011805D01*
X161199999Y-115011805D02*
X161247618Y-114821329D01*
X161247618Y-114821329D02*
X161247618Y-114487996D01*
X161247618Y-114487996D02*
X161199999Y-114297520D01*
X161199999Y-114297520D02*
X161104761Y-114202282D01*
X161104761Y-114202282D02*
X161009523Y-114154663D01*
X151392956Y-112190475D02*
X151345336Y-112047618D01*
X151345336Y-112047618D02*
X151345336Y-111809523D01*
X151345336Y-111809523D02*
X151392956Y-111714285D01*
X151392956Y-111714285D02*
X151440575Y-111666666D01*
X151440575Y-111666666D02*
X151535813Y-111619047D01*
X151535813Y-111619047D02*
X151631051Y-111619047D01*
X151631051Y-111619047D02*
X151726289Y-111666666D01*
X151726289Y-111666666D02*
X151773908Y-111714285D01*
X151773908Y-111714285D02*
X151821527Y-111809523D01*
X151821527Y-111809523D02*
X151869146Y-111999999D01*
X151869146Y-111999999D02*
X151916765Y-112095237D01*
X151916765Y-112095237D02*
X151964384Y-112142856D01*
X151964384Y-112142856D02*
X152059622Y-112190475D01*
X152059622Y-112190475D02*
X152154860Y-112190475D01*
X152154860Y-112190475D02*
X152250098Y-112142856D01*
X152250098Y-112142856D02*
X152297717Y-112095237D01*
X152297717Y-112095237D02*
X152345336Y-111999999D01*
X152345336Y-111999999D02*
X152345336Y-111761904D01*
X152345336Y-111761904D02*
X152297717Y-111619047D01*
X151440575Y-110619047D02*
X151392956Y-110666666D01*
X151392956Y-110666666D02*
X151345336Y-110809523D01*
X151345336Y-110809523D02*
X151345336Y-110904761D01*
X151345336Y-110904761D02*
X151392956Y-111047618D01*
X151392956Y-111047618D02*
X151488194Y-111142856D01*
X151488194Y-111142856D02*
X151583432Y-111190475D01*
X151583432Y-111190475D02*
X151773908Y-111238094D01*
X151773908Y-111238094D02*
X151916765Y-111238094D01*
X151916765Y-111238094D02*
X152107241Y-111190475D01*
X152107241Y-111190475D02*
X152202479Y-111142856D01*
X152202479Y-111142856D02*
X152297717Y-111047618D01*
X152297717Y-111047618D02*
X152345336Y-110904761D01*
X152345336Y-110904761D02*
X152345336Y-110809523D01*
X152345336Y-110809523D02*
X152297717Y-110666666D01*
X152297717Y-110666666D02*
X152250098Y-110619047D01*
X151345336Y-109714285D02*
X151345336Y-110190475D01*
X151345336Y-110190475D02*
X152345336Y-110190475D01*
X141445336Y-112209523D02*
X141445336Y-111638095D01*
X140445336Y-111923809D02*
X141445336Y-111923809D01*
X141492956Y-110590476D02*
X140207241Y-111447618D01*
X140445336Y-109685714D02*
X140921527Y-110019047D01*
X140445336Y-110257142D02*
X141445336Y-110257142D01*
X141445336Y-110257142D02*
X141445336Y-109876190D01*
X141445336Y-109876190D02*
X141397717Y-109780952D01*
X141397717Y-109780952D02*
X141350098Y-109733333D01*
X141350098Y-109733333D02*
X141254860Y-109685714D01*
X141254860Y-109685714D02*
X141112003Y-109685714D01*
X141112003Y-109685714D02*
X141016765Y-109733333D01*
X141016765Y-109733333D02*
X140969146Y-109780952D01*
X140969146Y-109780952D02*
X140921527Y-109876190D01*
X140921527Y-109876190D02*
X140921527Y-110257142D01*
X188361904Y-116502282D02*
X188457142Y-116454663D01*
X188457142Y-116454663D02*
X188599999Y-116454663D01*
X188599999Y-116454663D02*
X188742856Y-116502282D01*
X188742856Y-116502282D02*
X188838094Y-116597520D01*
X188838094Y-116597520D02*
X188885713Y-116692758D01*
X188885713Y-116692758D02*
X188933332Y-116883234D01*
X188933332Y-116883234D02*
X188933332Y-117026091D01*
X188933332Y-117026091D02*
X188885713Y-117216567D01*
X188885713Y-117216567D02*
X188838094Y-117311805D01*
X188838094Y-117311805D02*
X188742856Y-117407044D01*
X188742856Y-117407044D02*
X188599999Y-117454663D01*
X188599999Y-117454663D02*
X188504761Y-117454663D01*
X188504761Y-117454663D02*
X188361904Y-117407044D01*
X188361904Y-117407044D02*
X188314285Y-117359424D01*
X188314285Y-117359424D02*
X188314285Y-117026091D01*
X188314285Y-117026091D02*
X188504761Y-117026091D01*
X187885713Y-117454663D02*
X187885713Y-116454663D01*
X187885713Y-116454663D02*
X187314285Y-117454663D01*
X187314285Y-117454663D02*
X187314285Y-116454663D01*
X186838094Y-117454663D02*
X186838094Y-116454663D01*
X186838094Y-116454663D02*
X186599999Y-116454663D01*
X186599999Y-116454663D02*
X186457142Y-116502282D01*
X186457142Y-116502282D02*
X186361904Y-116597520D01*
X186361904Y-116597520D02*
X186314285Y-116692758D01*
X186314285Y-116692758D02*
X186266666Y-116883234D01*
X186266666Y-116883234D02*
X186266666Y-117026091D01*
X186266666Y-117026091D02*
X186314285Y-117216567D01*
X186314285Y-117216567D02*
X186361904Y-117311805D01*
X186361904Y-117311805D02*
X186457142Y-117407044D01*
X186457142Y-117407044D02*
X186599999Y-117454663D01*
X186599999Y-117454663D02*
X186838094Y-117454663D01*
X180897717Y-111761904D02*
X180945336Y-111857142D01*
X180945336Y-111857142D02*
X180945336Y-111999999D01*
X180945336Y-111999999D02*
X180897717Y-112142856D01*
X180897717Y-112142856D02*
X180802479Y-112238094D01*
X180802479Y-112238094D02*
X180707241Y-112285713D01*
X180707241Y-112285713D02*
X180516765Y-112333332D01*
X180516765Y-112333332D02*
X180373908Y-112333332D01*
X180373908Y-112333332D02*
X180183432Y-112285713D01*
X180183432Y-112285713D02*
X180088194Y-112238094D01*
X180088194Y-112238094D02*
X179992956Y-112142856D01*
X179992956Y-112142856D02*
X179945336Y-111999999D01*
X179945336Y-111999999D02*
X179945336Y-111904761D01*
X179945336Y-111904761D02*
X179992956Y-111761904D01*
X179992956Y-111761904D02*
X180040575Y-111714285D01*
X180040575Y-111714285D02*
X180373908Y-111714285D01*
X180373908Y-111714285D02*
X180373908Y-111904761D01*
X179945336Y-111285713D02*
X180945336Y-111285713D01*
X180945336Y-111285713D02*
X179945336Y-110714285D01*
X179945336Y-110714285D02*
X180945336Y-110714285D01*
X179945336Y-110238094D02*
X180945336Y-110238094D01*
X180945336Y-110238094D02*
X180945336Y-109999999D01*
X180945336Y-109999999D02*
X180897717Y-109857142D01*
X180897717Y-109857142D02*
X180802479Y-109761904D01*
X180802479Y-109761904D02*
X180707241Y-109714285D01*
X180707241Y-109714285D02*
X180516765Y-109666666D01*
X180516765Y-109666666D02*
X180373908Y-109666666D01*
X180373908Y-109666666D02*
X180183432Y-109714285D01*
X180183432Y-109714285D02*
X180088194Y-109761904D01*
X180088194Y-109761904D02*
X179992956Y-109857142D01*
X179992956Y-109857142D02*
X179945336Y-109999999D01*
X179945336Y-109999999D02*
X179945336Y-110238094D01*
X163195238Y-117859424D02*
X163242857Y-117907044D01*
X163242857Y-117907044D02*
X163385714Y-117954663D01*
X163385714Y-117954663D02*
X163480952Y-117954663D01*
X163480952Y-117954663D02*
X163623809Y-117907044D01*
X163623809Y-117907044D02*
X163719047Y-117811805D01*
X163719047Y-117811805D02*
X163766666Y-117716567D01*
X163766666Y-117716567D02*
X163814285Y-117526091D01*
X163814285Y-117526091D02*
X163814285Y-117383234D01*
X163814285Y-117383234D02*
X163766666Y-117192758D01*
X163766666Y-117192758D02*
X163719047Y-117097520D01*
X163719047Y-117097520D02*
X163623809Y-117002282D01*
X163623809Y-117002282D02*
X163480952Y-116954663D01*
X163480952Y-116954663D02*
X163385714Y-116954663D01*
X163385714Y-116954663D02*
X163242857Y-117002282D01*
X163242857Y-117002282D02*
X163195238Y-117049901D01*
X162290476Y-117954663D02*
X162766666Y-117954663D01*
X162766666Y-117954663D02*
X162766666Y-116954663D01*
X161957142Y-117954663D02*
X161957142Y-116954663D01*
X161385714Y-117954663D02*
X161814285Y-117383234D01*
X161385714Y-116954663D02*
X161957142Y-117526091D01*
X163771427Y-116554663D02*
X163771427Y-115554663D01*
X163771427Y-115554663D02*
X163438094Y-116268948D01*
X163438094Y-116268948D02*
X163104761Y-115554663D01*
X163104761Y-115554663D02*
X163104761Y-116554663D01*
X162438094Y-115554663D02*
X162247618Y-115554663D01*
X162247618Y-115554663D02*
X162152380Y-115602282D01*
X162152380Y-115602282D02*
X162057142Y-115697520D01*
X162057142Y-115697520D02*
X162009523Y-115887996D01*
X162009523Y-115887996D02*
X162009523Y-116221329D01*
X162009523Y-116221329D02*
X162057142Y-116411805D01*
X162057142Y-116411805D02*
X162152380Y-116507044D01*
X162152380Y-116507044D02*
X162247618Y-116554663D01*
X162247618Y-116554663D02*
X162438094Y-116554663D01*
X162438094Y-116554663D02*
X162533332Y-116507044D01*
X162533332Y-116507044D02*
X162628570Y-116411805D01*
X162628570Y-116411805D02*
X162676189Y-116221329D01*
X162676189Y-116221329D02*
X162676189Y-115887996D01*
X162676189Y-115887996D02*
X162628570Y-115697520D01*
X162628570Y-115697520D02*
X162533332Y-115602282D01*
X162533332Y-115602282D02*
X162438094Y-115554663D01*
X161628570Y-116507044D02*
X161485713Y-116554663D01*
X161485713Y-116554663D02*
X161247618Y-116554663D01*
X161247618Y-116554663D02*
X161152380Y-116507044D01*
X161152380Y-116507044D02*
X161104761Y-116459424D01*
X161104761Y-116459424D02*
X161057142Y-116364186D01*
X161057142Y-116364186D02*
X161057142Y-116268948D01*
X161057142Y-116268948D02*
X161104761Y-116173710D01*
X161104761Y-116173710D02*
X161152380Y-116126091D01*
X161152380Y-116126091D02*
X161247618Y-116078472D01*
X161247618Y-116078472D02*
X161438094Y-116030853D01*
X161438094Y-116030853D02*
X161533332Y-115983234D01*
X161533332Y-115983234D02*
X161580951Y-115935615D01*
X161580951Y-115935615D02*
X161628570Y-115840377D01*
X161628570Y-115840377D02*
X161628570Y-115745139D01*
X161628570Y-115745139D02*
X161580951Y-115649901D01*
X161580951Y-115649901D02*
X161533332Y-115602282D01*
X161533332Y-115602282D02*
X161438094Y-115554663D01*
X161438094Y-115554663D02*
X161199999Y-115554663D01*
X161199999Y-115554663D02*
X161057142Y-115602282D01*
X160628570Y-116554663D02*
X160628570Y-115554663D01*
X129740575Y-120742857D02*
X129692956Y-120790476D01*
X129692956Y-120790476D02*
X129645336Y-120933333D01*
X129645336Y-120933333D02*
X129645336Y-121028571D01*
X129645336Y-121028571D02*
X129692956Y-121171428D01*
X129692956Y-121171428D02*
X129788194Y-121266666D01*
X129788194Y-121266666D02*
X129883432Y-121314285D01*
X129883432Y-121314285D02*
X130073908Y-121361904D01*
X130073908Y-121361904D02*
X130216765Y-121361904D01*
X130216765Y-121361904D02*
X130407241Y-121314285D01*
X130407241Y-121314285D02*
X130502479Y-121266666D01*
X130502479Y-121266666D02*
X130597717Y-121171428D01*
X130597717Y-121171428D02*
X130645336Y-121028571D01*
X130645336Y-121028571D02*
X130645336Y-120933333D01*
X130645336Y-120933333D02*
X130597717Y-120790476D01*
X130597717Y-120790476D02*
X130550098Y-120742857D01*
X129645336Y-119790476D02*
X129645336Y-120361904D01*
X129645336Y-120076190D02*
X130645336Y-120076190D01*
X130645336Y-120076190D02*
X130502479Y-120171428D01*
X130502479Y-120171428D02*
X130407241Y-120266666D01*
X130407241Y-120266666D02*
X130359622Y-120361904D01*
X130645336Y-118885714D02*
X130645336Y-119361904D01*
X130645336Y-119361904D02*
X130169146Y-119409523D01*
X130169146Y-119409523D02*
X130216765Y-119361904D01*
X130216765Y-119361904D02*
X130264384Y-119266666D01*
X130264384Y-119266666D02*
X130264384Y-119028571D01*
X130264384Y-119028571D02*
X130216765Y-118933333D01*
X130216765Y-118933333D02*
X130169146Y-118885714D01*
X130169146Y-118885714D02*
X130073908Y-118838095D01*
X130073908Y-118838095D02*
X129835813Y-118838095D01*
X129835813Y-118838095D02*
X129740575Y-118885714D01*
X129740575Y-118885714D02*
X129692956Y-118933333D01*
X129692956Y-118933333D02*
X129645336Y-119028571D01*
X129645336Y-119028571D02*
X129645336Y-119266666D01*
X129645336Y-119266666D02*
X129692956Y-119361904D01*
X129692956Y-119361904D02*
X129740575Y-119409523D01*
X158961904Y-119002282D02*
X159057142Y-118954663D01*
X159057142Y-118954663D02*
X159199999Y-118954663D01*
X159199999Y-118954663D02*
X159342856Y-119002282D01*
X159342856Y-119002282D02*
X159438094Y-119097520D01*
X159438094Y-119097520D02*
X159485713Y-119192758D01*
X159485713Y-119192758D02*
X159533332Y-119383234D01*
X159533332Y-119383234D02*
X159533332Y-119526091D01*
X159533332Y-119526091D02*
X159485713Y-119716567D01*
X159485713Y-119716567D02*
X159438094Y-119811805D01*
X159438094Y-119811805D02*
X159342856Y-119907044D01*
X159342856Y-119907044D02*
X159199999Y-119954663D01*
X159199999Y-119954663D02*
X159104761Y-119954663D01*
X159104761Y-119954663D02*
X158961904Y-119907044D01*
X158961904Y-119907044D02*
X158914285Y-119859424D01*
X158914285Y-119859424D02*
X158914285Y-119526091D01*
X158914285Y-119526091D02*
X159104761Y-119526091D01*
X158485713Y-119954663D02*
X158485713Y-118954663D01*
X158485713Y-118954663D02*
X157914285Y-119954663D01*
X157914285Y-119954663D02*
X157914285Y-118954663D01*
X157438094Y-119954663D02*
X157438094Y-118954663D01*
X157438094Y-118954663D02*
X157199999Y-118954663D01*
X157199999Y-118954663D02*
X157057142Y-119002282D01*
X157057142Y-119002282D02*
X156961904Y-119097520D01*
X156961904Y-119097520D02*
X156914285Y-119192758D01*
X156914285Y-119192758D02*
X156866666Y-119383234D01*
X156866666Y-119383234D02*
X156866666Y-119526091D01*
X156866666Y-119526091D02*
X156914285Y-119716567D01*
X156914285Y-119716567D02*
X156961904Y-119811805D01*
X156961904Y-119811805D02*
X157057142Y-119907044D01*
X157057142Y-119907044D02*
X157199999Y-119954663D01*
X157199999Y-119954663D02*
X157438094Y-119954663D01*
X113445336Y-73947619D02*
X113921527Y-74280952D01*
X113445336Y-74519047D02*
X114445336Y-74519047D01*
X114445336Y-74519047D02*
X114445336Y-74138095D01*
X114445336Y-74138095D02*
X114397717Y-74042857D01*
X114397717Y-74042857D02*
X114350098Y-73995238D01*
X114350098Y-73995238D02*
X114254860Y-73947619D01*
X114254860Y-73947619D02*
X114112003Y-73947619D01*
X114112003Y-73947619D02*
X114016765Y-73995238D01*
X114016765Y-73995238D02*
X113969146Y-74042857D01*
X113969146Y-74042857D02*
X113921527Y-74138095D01*
X113921527Y-74138095D02*
X113921527Y-74519047D01*
X113492956Y-73566666D02*
X113445336Y-73423809D01*
X113445336Y-73423809D02*
X113445336Y-73185714D01*
X113445336Y-73185714D02*
X113492956Y-73090476D01*
X113492956Y-73090476D02*
X113540575Y-73042857D01*
X113540575Y-73042857D02*
X113635813Y-72995238D01*
X113635813Y-72995238D02*
X113731051Y-72995238D01*
X113731051Y-72995238D02*
X113826289Y-73042857D01*
X113826289Y-73042857D02*
X113873908Y-73090476D01*
X113873908Y-73090476D02*
X113921527Y-73185714D01*
X113921527Y-73185714D02*
X113969146Y-73376190D01*
X113969146Y-73376190D02*
X114016765Y-73471428D01*
X114016765Y-73471428D02*
X114064384Y-73519047D01*
X114064384Y-73519047D02*
X114159622Y-73566666D01*
X114159622Y-73566666D02*
X114254860Y-73566666D01*
X114254860Y-73566666D02*
X114350098Y-73519047D01*
X114350098Y-73519047D02*
X114397717Y-73471428D01*
X114397717Y-73471428D02*
X114445336Y-73376190D01*
X114445336Y-73376190D02*
X114445336Y-73138095D01*
X114445336Y-73138095D02*
X114397717Y-72995238D01*
X114445336Y-72709523D02*
X114445336Y-72138095D01*
X113445336Y-72423809D02*
X114445336Y-72423809D01*
X132154663Y-112861905D02*
X132154663Y-113480952D01*
X132154663Y-113480952D02*
X132535615Y-113147619D01*
X132535615Y-113147619D02*
X132535615Y-113290476D01*
X132535615Y-113290476D02*
X132583234Y-113385714D01*
X132583234Y-113385714D02*
X132630853Y-113433333D01*
X132630853Y-113433333D02*
X132726091Y-113480952D01*
X132726091Y-113480952D02*
X132964186Y-113480952D01*
X132964186Y-113480952D02*
X133059424Y-113433333D01*
X133059424Y-113433333D02*
X133107044Y-113385714D01*
X133107044Y-113385714D02*
X133154663Y-113290476D01*
X133154663Y-113290476D02*
X133154663Y-113004762D01*
X133154663Y-113004762D02*
X133107044Y-112909524D01*
X133107044Y-112909524D02*
X133059424Y-112861905D01*
X132154663Y-113766667D02*
X133154663Y-114100000D01*
X133154663Y-114100000D02*
X132154663Y-114433333D01*
X132154663Y-114671429D02*
X132154663Y-115290476D01*
X132154663Y-115290476D02*
X132535615Y-114957143D01*
X132535615Y-114957143D02*
X132535615Y-115100000D01*
X132535615Y-115100000D02*
X132583234Y-115195238D01*
X132583234Y-115195238D02*
X132630853Y-115242857D01*
X132630853Y-115242857D02*
X132726091Y-115290476D01*
X132726091Y-115290476D02*
X132964186Y-115290476D01*
X132964186Y-115290476D02*
X133059424Y-115242857D01*
X133059424Y-115242857D02*
X133107044Y-115195238D01*
X133107044Y-115195238D02*
X133154663Y-115100000D01*
X133154663Y-115100000D02*
X133154663Y-114814286D01*
X133154663Y-114814286D02*
X133107044Y-114719048D01*
X133107044Y-114719048D02*
X133059424Y-114671429D01*
X163166666Y-119359424D02*
X163214285Y-119407044D01*
X163214285Y-119407044D02*
X163357142Y-119454663D01*
X163357142Y-119454663D02*
X163452380Y-119454663D01*
X163452380Y-119454663D02*
X163595237Y-119407044D01*
X163595237Y-119407044D02*
X163690475Y-119311805D01*
X163690475Y-119311805D02*
X163738094Y-119216567D01*
X163738094Y-119216567D02*
X163785713Y-119026091D01*
X163785713Y-119026091D02*
X163785713Y-118883234D01*
X163785713Y-118883234D02*
X163738094Y-118692758D01*
X163738094Y-118692758D02*
X163690475Y-118597520D01*
X163690475Y-118597520D02*
X163595237Y-118502282D01*
X163595237Y-118502282D02*
X163452380Y-118454663D01*
X163452380Y-118454663D02*
X163357142Y-118454663D01*
X163357142Y-118454663D02*
X163214285Y-118502282D01*
X163214285Y-118502282D02*
X163166666Y-118549901D01*
X162785713Y-119407044D02*
X162642856Y-119454663D01*
X162642856Y-119454663D02*
X162404761Y-119454663D01*
X162404761Y-119454663D02*
X162309523Y-119407044D01*
X162309523Y-119407044D02*
X162261904Y-119359424D01*
X162261904Y-119359424D02*
X162214285Y-119264186D01*
X162214285Y-119264186D02*
X162214285Y-119168948D01*
X162214285Y-119168948D02*
X162261904Y-119073710D01*
X162261904Y-119073710D02*
X162309523Y-119026091D01*
X162309523Y-119026091D02*
X162404761Y-118978472D01*
X162404761Y-118978472D02*
X162595237Y-118930853D01*
X162595237Y-118930853D02*
X162690475Y-118883234D01*
X162690475Y-118883234D02*
X162738094Y-118835615D01*
X162738094Y-118835615D02*
X162785713Y-118740377D01*
X162785713Y-118740377D02*
X162785713Y-118645139D01*
X162785713Y-118645139D02*
X162738094Y-118549901D01*
X162738094Y-118549901D02*
X162690475Y-118502282D01*
X162690475Y-118502282D02*
X162595237Y-118454663D01*
X162595237Y-118454663D02*
X162357142Y-118454663D01*
X162357142Y-118454663D02*
X162214285Y-118502282D01*
X156392956Y-112314285D02*
X156345336Y-112171428D01*
X156345336Y-112171428D02*
X156345336Y-111933333D01*
X156345336Y-111933333D02*
X156392956Y-111838095D01*
X156392956Y-111838095D02*
X156440575Y-111790476D01*
X156440575Y-111790476D02*
X156535813Y-111742857D01*
X156535813Y-111742857D02*
X156631051Y-111742857D01*
X156631051Y-111742857D02*
X156726289Y-111790476D01*
X156726289Y-111790476D02*
X156773908Y-111838095D01*
X156773908Y-111838095D02*
X156821527Y-111933333D01*
X156821527Y-111933333D02*
X156869146Y-112123809D01*
X156869146Y-112123809D02*
X156916765Y-112219047D01*
X156916765Y-112219047D02*
X156964384Y-112266666D01*
X156964384Y-112266666D02*
X157059622Y-112314285D01*
X157059622Y-112314285D02*
X157154860Y-112314285D01*
X157154860Y-112314285D02*
X157250098Y-112266666D01*
X157250098Y-112266666D02*
X157297717Y-112219047D01*
X157297717Y-112219047D02*
X157345336Y-112123809D01*
X157345336Y-112123809D02*
X157345336Y-111885714D01*
X157345336Y-111885714D02*
X157297717Y-111742857D01*
X156345336Y-111314285D02*
X157345336Y-111314285D01*
X157345336Y-111314285D02*
X157345336Y-111076190D01*
X157345336Y-111076190D02*
X157297717Y-110933333D01*
X157297717Y-110933333D02*
X157202479Y-110838095D01*
X157202479Y-110838095D02*
X157107241Y-110790476D01*
X157107241Y-110790476D02*
X156916765Y-110742857D01*
X156916765Y-110742857D02*
X156773908Y-110742857D01*
X156773908Y-110742857D02*
X156583432Y-110790476D01*
X156583432Y-110790476D02*
X156488194Y-110838095D01*
X156488194Y-110838095D02*
X156392956Y-110933333D01*
X156392956Y-110933333D02*
X156345336Y-111076190D01*
X156345336Y-111076190D02*
X156345336Y-111314285D01*
X156631051Y-110361904D02*
X156631051Y-109885714D01*
X156345336Y-110457142D02*
X157345336Y-110123809D01*
X157345336Y-110123809D02*
X156345336Y-109790476D01*
X177392956Y-112290475D02*
X177345336Y-112147618D01*
X177345336Y-112147618D02*
X177345336Y-111909523D01*
X177345336Y-111909523D02*
X177392956Y-111814285D01*
X177392956Y-111814285D02*
X177440575Y-111766666D01*
X177440575Y-111766666D02*
X177535813Y-111719047D01*
X177535813Y-111719047D02*
X177631051Y-111719047D01*
X177631051Y-111719047D02*
X177726289Y-111766666D01*
X177726289Y-111766666D02*
X177773908Y-111814285D01*
X177773908Y-111814285D02*
X177821527Y-111909523D01*
X177821527Y-111909523D02*
X177869146Y-112099999D01*
X177869146Y-112099999D02*
X177916765Y-112195237D01*
X177916765Y-112195237D02*
X177964384Y-112242856D01*
X177964384Y-112242856D02*
X178059622Y-112290475D01*
X178059622Y-112290475D02*
X178154860Y-112290475D01*
X178154860Y-112290475D02*
X178250098Y-112242856D01*
X178250098Y-112242856D02*
X178297717Y-112195237D01*
X178297717Y-112195237D02*
X178345336Y-112099999D01*
X178345336Y-112099999D02*
X178345336Y-111861904D01*
X178345336Y-111861904D02*
X178297717Y-111719047D01*
X177440575Y-110719047D02*
X177392956Y-110766666D01*
X177392956Y-110766666D02*
X177345336Y-110909523D01*
X177345336Y-110909523D02*
X177345336Y-111004761D01*
X177345336Y-111004761D02*
X177392956Y-111147618D01*
X177392956Y-111147618D02*
X177488194Y-111242856D01*
X177488194Y-111242856D02*
X177583432Y-111290475D01*
X177583432Y-111290475D02*
X177773908Y-111338094D01*
X177773908Y-111338094D02*
X177916765Y-111338094D01*
X177916765Y-111338094D02*
X178107241Y-111290475D01*
X178107241Y-111290475D02*
X178202479Y-111242856D01*
X178202479Y-111242856D02*
X178297717Y-111147618D01*
X178297717Y-111147618D02*
X178345336Y-111004761D01*
X178345336Y-111004761D02*
X178345336Y-110909523D01*
X178345336Y-110909523D02*
X178297717Y-110766666D01*
X178297717Y-110766666D02*
X178250098Y-110719047D01*
X177345336Y-109814285D02*
X177345336Y-110290475D01*
X177345336Y-110290475D02*
X178345336Y-110290475D01*
X122461904Y-114002282D02*
X122557142Y-113954663D01*
X122557142Y-113954663D02*
X122699999Y-113954663D01*
X122699999Y-113954663D02*
X122842856Y-114002282D01*
X122842856Y-114002282D02*
X122938094Y-114097520D01*
X122938094Y-114097520D02*
X122985713Y-114192758D01*
X122985713Y-114192758D02*
X123033332Y-114383234D01*
X123033332Y-114383234D02*
X123033332Y-114526091D01*
X123033332Y-114526091D02*
X122985713Y-114716567D01*
X122985713Y-114716567D02*
X122938094Y-114811805D01*
X122938094Y-114811805D02*
X122842856Y-114907044D01*
X122842856Y-114907044D02*
X122699999Y-114954663D01*
X122699999Y-114954663D02*
X122604761Y-114954663D01*
X122604761Y-114954663D02*
X122461904Y-114907044D01*
X122461904Y-114907044D02*
X122414285Y-114859424D01*
X122414285Y-114859424D02*
X122414285Y-114526091D01*
X122414285Y-114526091D02*
X122604761Y-114526091D01*
X121985713Y-114954663D02*
X121985713Y-113954663D01*
X121985713Y-113954663D02*
X121414285Y-114954663D01*
X121414285Y-114954663D02*
X121414285Y-113954663D01*
X120938094Y-114954663D02*
X120938094Y-113954663D01*
X120938094Y-113954663D02*
X120699999Y-113954663D01*
X120699999Y-113954663D02*
X120557142Y-114002282D01*
X120557142Y-114002282D02*
X120461904Y-114097520D01*
X120461904Y-114097520D02*
X120414285Y-114192758D01*
X120414285Y-114192758D02*
X120366666Y-114383234D01*
X120366666Y-114383234D02*
X120366666Y-114526091D01*
X120366666Y-114526091D02*
X120414285Y-114716567D01*
X120414285Y-114716567D02*
X120461904Y-114811805D01*
X120461904Y-114811805D02*
X120557142Y-114907044D01*
X120557142Y-114907044D02*
X120699999Y-114954663D01*
X120699999Y-114954663D02*
X120938094Y-114954663D01*
X116997717Y-74061904D02*
X117045336Y-74157142D01*
X117045336Y-74157142D02*
X117045336Y-74299999D01*
X117045336Y-74299999D02*
X116997717Y-74442856D01*
X116997717Y-74442856D02*
X116902479Y-74538094D01*
X116902479Y-74538094D02*
X116807241Y-74585713D01*
X116807241Y-74585713D02*
X116616765Y-74633332D01*
X116616765Y-74633332D02*
X116473908Y-74633332D01*
X116473908Y-74633332D02*
X116283432Y-74585713D01*
X116283432Y-74585713D02*
X116188194Y-74538094D01*
X116188194Y-74538094D02*
X116092956Y-74442856D01*
X116092956Y-74442856D02*
X116045336Y-74299999D01*
X116045336Y-74299999D02*
X116045336Y-74204761D01*
X116045336Y-74204761D02*
X116092956Y-74061904D01*
X116092956Y-74061904D02*
X116140575Y-74014285D01*
X116140575Y-74014285D02*
X116473908Y-74014285D01*
X116473908Y-74014285D02*
X116473908Y-74204761D01*
X116045336Y-73585713D02*
X117045336Y-73585713D01*
X117045336Y-73585713D02*
X116045336Y-73014285D01*
X116045336Y-73014285D02*
X117045336Y-73014285D01*
X116045336Y-72538094D02*
X117045336Y-72538094D01*
X117045336Y-72538094D02*
X117045336Y-72299999D01*
X117045336Y-72299999D02*
X116997717Y-72157142D01*
X116997717Y-72157142D02*
X116902479Y-72061904D01*
X116902479Y-72061904D02*
X116807241Y-72014285D01*
X116807241Y-72014285D02*
X116616765Y-71966666D01*
X116616765Y-71966666D02*
X116473908Y-71966666D01*
X116473908Y-71966666D02*
X116283432Y-72014285D01*
X116283432Y-72014285D02*
X116188194Y-72061904D01*
X116188194Y-72061904D02*
X116092956Y-72157142D01*
X116092956Y-72157142D02*
X116045336Y-72299999D01*
X116045336Y-72299999D02*
X116045336Y-72538094D01*
X127331051Y-121090475D02*
X127331051Y-120614285D01*
X127045336Y-121185713D02*
X128045336Y-120852380D01*
X128045336Y-120852380D02*
X127045336Y-120519047D01*
X127045336Y-119661904D02*
X127045336Y-120233332D01*
X127045336Y-119947618D02*
X128045336Y-119947618D01*
X128045336Y-119947618D02*
X127902479Y-120042856D01*
X127902479Y-120042856D02*
X127807241Y-120138094D01*
X127807241Y-120138094D02*
X127759622Y-120233332D01*
X127045336Y-118709523D02*
X127045336Y-119280951D01*
X127045336Y-118995237D02*
X128045336Y-118995237D01*
X128045336Y-118995237D02*
X127902479Y-119090475D01*
X127902479Y-119090475D02*
X127807241Y-119185713D01*
X127807241Y-119185713D02*
X127759622Y-119280951D01*
D12*
X126154819Y-71138095D02*
X126964342Y-71138095D01*
X126964342Y-71138095D02*
X127059580Y-71185714D01*
X127059580Y-71185714D02*
X127107200Y-71233333D01*
X127107200Y-71233333D02*
X127154819Y-71328571D01*
X127154819Y-71328571D02*
X127154819Y-71519047D01*
X127154819Y-71519047D02*
X127107200Y-71614285D01*
X127107200Y-71614285D02*
X127059580Y-71661904D01*
X127059580Y-71661904D02*
X126964342Y-71709523D01*
X126964342Y-71709523D02*
X126154819Y-71709523D01*
X126154819Y-72090476D02*
X126154819Y-72709523D01*
X126154819Y-72709523D02*
X126535771Y-72376190D01*
X126535771Y-72376190D02*
X126535771Y-72519047D01*
X126535771Y-72519047D02*
X126583390Y-72614285D01*
X126583390Y-72614285D02*
X126631009Y-72661904D01*
X126631009Y-72661904D02*
X126726247Y-72709523D01*
X126726247Y-72709523D02*
X126964342Y-72709523D01*
X126964342Y-72709523D02*
X127059580Y-72661904D01*
X127059580Y-72661904D02*
X127107200Y-72614285D01*
X127107200Y-72614285D02*
X127154819Y-72519047D01*
X127154819Y-72519047D02*
X127154819Y-72233333D01*
X127154819Y-72233333D02*
X127107200Y-72138095D01*
X127107200Y-72138095D02*
X127059580Y-72090476D01*
X158866666Y-90254819D02*
X159199999Y-89778628D01*
X159438094Y-90254819D02*
X159438094Y-89254819D01*
X159438094Y-89254819D02*
X159057142Y-89254819D01*
X159057142Y-89254819D02*
X158961904Y-89302438D01*
X158961904Y-89302438D02*
X158914285Y-89350057D01*
X158914285Y-89350057D02*
X158866666Y-89445295D01*
X158866666Y-89445295D02*
X158866666Y-89588152D01*
X158866666Y-89588152D02*
X158914285Y-89683390D01*
X158914285Y-89683390D02*
X158961904Y-89731009D01*
X158961904Y-89731009D02*
X159057142Y-89778628D01*
X159057142Y-89778628D02*
X159438094Y-89778628D01*
X157914285Y-90254819D02*
X158485713Y-90254819D01*
X158199999Y-90254819D02*
X158199999Y-89254819D01*
X158199999Y-89254819D02*
X158295237Y-89397676D01*
X158295237Y-89397676D02*
X158390475Y-89492914D01*
X158390475Y-89492914D02*
X158485713Y-89540533D01*
X166359580Y-88557142D02*
X166407200Y-88509523D01*
X166407200Y-88509523D02*
X166454819Y-88366666D01*
X166454819Y-88366666D02*
X166454819Y-88271428D01*
X166454819Y-88271428D02*
X166407200Y-88128571D01*
X166407200Y-88128571D02*
X166311961Y-88033333D01*
X166311961Y-88033333D02*
X166216723Y-87985714D01*
X166216723Y-87985714D02*
X166026247Y-87938095D01*
X166026247Y-87938095D02*
X165883390Y-87938095D01*
X165883390Y-87938095D02*
X165692914Y-87985714D01*
X165692914Y-87985714D02*
X165597676Y-88033333D01*
X165597676Y-88033333D02*
X165502438Y-88128571D01*
X165502438Y-88128571D02*
X165454819Y-88271428D01*
X165454819Y-88271428D02*
X165454819Y-88366666D01*
X165454819Y-88366666D02*
X165502438Y-88509523D01*
X165502438Y-88509523D02*
X165550057Y-88557142D01*
X165454819Y-88890476D02*
X165454819Y-89557142D01*
X165454819Y-89557142D02*
X166454819Y-89128571D01*
X165454819Y-90366666D02*
X165454819Y-90176190D01*
X165454819Y-90176190D02*
X165502438Y-90080952D01*
X165502438Y-90080952D02*
X165550057Y-90033333D01*
X165550057Y-90033333D02*
X165692914Y-89938095D01*
X165692914Y-89938095D02*
X165883390Y-89890476D01*
X165883390Y-89890476D02*
X166264342Y-89890476D01*
X166264342Y-89890476D02*
X166359580Y-89938095D01*
X166359580Y-89938095D02*
X166407200Y-89985714D01*
X166407200Y-89985714D02*
X166454819Y-90080952D01*
X166454819Y-90080952D02*
X166454819Y-90271428D01*
X166454819Y-90271428D02*
X166407200Y-90366666D01*
X166407200Y-90366666D02*
X166359580Y-90414285D01*
X166359580Y-90414285D02*
X166264342Y-90461904D01*
X166264342Y-90461904D02*
X166026247Y-90461904D01*
X166026247Y-90461904D02*
X165931009Y-90414285D01*
X165931009Y-90414285D02*
X165883390Y-90366666D01*
X165883390Y-90366666D02*
X165835771Y-90271428D01*
X165835771Y-90271428D02*
X165835771Y-90080952D01*
X165835771Y-90080952D02*
X165883390Y-89985714D01*
X165883390Y-89985714D02*
X165931009Y-89938095D01*
X165931009Y-89938095D02*
X166026247Y-89890476D01*
X129442857Y-98459580D02*
X129490476Y-98507200D01*
X129490476Y-98507200D02*
X129633333Y-98554819D01*
X129633333Y-98554819D02*
X129728571Y-98554819D01*
X129728571Y-98554819D02*
X129871428Y-98507200D01*
X129871428Y-98507200D02*
X129966666Y-98411961D01*
X129966666Y-98411961D02*
X130014285Y-98316723D01*
X130014285Y-98316723D02*
X130061904Y-98126247D01*
X130061904Y-98126247D02*
X130061904Y-97983390D01*
X130061904Y-97983390D02*
X130014285Y-97792914D01*
X130014285Y-97792914D02*
X129966666Y-97697676D01*
X129966666Y-97697676D02*
X129871428Y-97602438D01*
X129871428Y-97602438D02*
X129728571Y-97554819D01*
X129728571Y-97554819D02*
X129633333Y-97554819D01*
X129633333Y-97554819D02*
X129490476Y-97602438D01*
X129490476Y-97602438D02*
X129442857Y-97650057D01*
X129061904Y-97650057D02*
X129014285Y-97602438D01*
X129014285Y-97602438D02*
X128919047Y-97554819D01*
X128919047Y-97554819D02*
X128680952Y-97554819D01*
X128680952Y-97554819D02*
X128585714Y-97602438D01*
X128585714Y-97602438D02*
X128538095Y-97650057D01*
X128538095Y-97650057D02*
X128490476Y-97745295D01*
X128490476Y-97745295D02*
X128490476Y-97840533D01*
X128490476Y-97840533D02*
X128538095Y-97983390D01*
X128538095Y-97983390D02*
X129109523Y-98554819D01*
X129109523Y-98554819D02*
X128490476Y-98554819D01*
X127633333Y-97554819D02*
X127823809Y-97554819D01*
X127823809Y-97554819D02*
X127919047Y-97602438D01*
X127919047Y-97602438D02*
X127966666Y-97650057D01*
X127966666Y-97650057D02*
X128061904Y-97792914D01*
X128061904Y-97792914D02*
X128109523Y-97983390D01*
X128109523Y-97983390D02*
X128109523Y-98364342D01*
X128109523Y-98364342D02*
X128061904Y-98459580D01*
X128061904Y-98459580D02*
X128014285Y-98507200D01*
X128014285Y-98507200D02*
X127919047Y-98554819D01*
X127919047Y-98554819D02*
X127728571Y-98554819D01*
X127728571Y-98554819D02*
X127633333Y-98507200D01*
X127633333Y-98507200D02*
X127585714Y-98459580D01*
X127585714Y-98459580D02*
X127538095Y-98364342D01*
X127538095Y-98364342D02*
X127538095Y-98126247D01*
X127538095Y-98126247D02*
X127585714Y-98031009D01*
X127585714Y-98031009D02*
X127633333Y-97983390D01*
X127633333Y-97983390D02*
X127728571Y-97935771D01*
X127728571Y-97935771D02*
X127919047Y-97935771D01*
X127919047Y-97935771D02*
X128014285Y-97983390D01*
X128014285Y-97983390D02*
X128061904Y-98031009D01*
X128061904Y-98031009D02*
X128109523Y-98126247D01*
X172859580Y-97557142D02*
X172907200Y-97509523D01*
X172907200Y-97509523D02*
X172954819Y-97366666D01*
X172954819Y-97366666D02*
X172954819Y-97271428D01*
X172954819Y-97271428D02*
X172907200Y-97128571D01*
X172907200Y-97128571D02*
X172811961Y-97033333D01*
X172811961Y-97033333D02*
X172716723Y-96985714D01*
X172716723Y-96985714D02*
X172526247Y-96938095D01*
X172526247Y-96938095D02*
X172383390Y-96938095D01*
X172383390Y-96938095D02*
X172192914Y-96985714D01*
X172192914Y-96985714D02*
X172097676Y-97033333D01*
X172097676Y-97033333D02*
X172002438Y-97128571D01*
X172002438Y-97128571D02*
X171954819Y-97271428D01*
X171954819Y-97271428D02*
X171954819Y-97366666D01*
X171954819Y-97366666D02*
X172002438Y-97509523D01*
X172002438Y-97509523D02*
X172050057Y-97557142D01*
X172383390Y-98128571D02*
X172335771Y-98033333D01*
X172335771Y-98033333D02*
X172288152Y-97985714D01*
X172288152Y-97985714D02*
X172192914Y-97938095D01*
X172192914Y-97938095D02*
X172145295Y-97938095D01*
X172145295Y-97938095D02*
X172050057Y-97985714D01*
X172050057Y-97985714D02*
X172002438Y-98033333D01*
X172002438Y-98033333D02*
X171954819Y-98128571D01*
X171954819Y-98128571D02*
X171954819Y-98319047D01*
X171954819Y-98319047D02*
X172002438Y-98414285D01*
X172002438Y-98414285D02*
X172050057Y-98461904D01*
X172050057Y-98461904D02*
X172145295Y-98509523D01*
X172145295Y-98509523D02*
X172192914Y-98509523D01*
X172192914Y-98509523D02*
X172288152Y-98461904D01*
X172288152Y-98461904D02*
X172335771Y-98414285D01*
X172335771Y-98414285D02*
X172383390Y-98319047D01*
X172383390Y-98319047D02*
X172383390Y-98128571D01*
X172383390Y-98128571D02*
X172431009Y-98033333D01*
X172431009Y-98033333D02*
X172478628Y-97985714D01*
X172478628Y-97985714D02*
X172573866Y-97938095D01*
X172573866Y-97938095D02*
X172764342Y-97938095D01*
X172764342Y-97938095D02*
X172859580Y-97985714D01*
X172859580Y-97985714D02*
X172907200Y-98033333D01*
X172907200Y-98033333D02*
X172954819Y-98128571D01*
X172954819Y-98128571D02*
X172954819Y-98319047D01*
X172954819Y-98319047D02*
X172907200Y-98414285D01*
X172907200Y-98414285D02*
X172859580Y-98461904D01*
X172859580Y-98461904D02*
X172764342Y-98509523D01*
X172764342Y-98509523D02*
X172573866Y-98509523D01*
X172573866Y-98509523D02*
X172478628Y-98461904D01*
X172478628Y-98461904D02*
X172431009Y-98414285D01*
X172431009Y-98414285D02*
X172383390Y-98319047D01*
X171954819Y-99128571D02*
X171954819Y-99223809D01*
X171954819Y-99223809D02*
X172002438Y-99319047D01*
X172002438Y-99319047D02*
X172050057Y-99366666D01*
X172050057Y-99366666D02*
X172145295Y-99414285D01*
X172145295Y-99414285D02*
X172335771Y-99461904D01*
X172335771Y-99461904D02*
X172573866Y-99461904D01*
X172573866Y-99461904D02*
X172764342Y-99414285D01*
X172764342Y-99414285D02*
X172859580Y-99366666D01*
X172859580Y-99366666D02*
X172907200Y-99319047D01*
X172907200Y-99319047D02*
X172954819Y-99223809D01*
X172954819Y-99223809D02*
X172954819Y-99128571D01*
X172954819Y-99128571D02*
X172907200Y-99033333D01*
X172907200Y-99033333D02*
X172859580Y-98985714D01*
X172859580Y-98985714D02*
X172764342Y-98938095D01*
X172764342Y-98938095D02*
X172573866Y-98890476D01*
X172573866Y-98890476D02*
X172335771Y-98890476D01*
X172335771Y-98890476D02*
X172145295Y-98938095D01*
X172145295Y-98938095D02*
X172050057Y-98985714D01*
X172050057Y-98985714D02*
X172002438Y-99033333D01*
X172002438Y-99033333D02*
X171954819Y-99128571D01*
X158666666Y-94854819D02*
X158999999Y-94378628D01*
X159238094Y-94854819D02*
X159238094Y-93854819D01*
X159238094Y-93854819D02*
X158857142Y-93854819D01*
X158857142Y-93854819D02*
X158761904Y-93902438D01*
X158761904Y-93902438D02*
X158714285Y-93950057D01*
X158714285Y-93950057D02*
X158666666Y-94045295D01*
X158666666Y-94045295D02*
X158666666Y-94188152D01*
X158666666Y-94188152D02*
X158714285Y-94283390D01*
X158714285Y-94283390D02*
X158761904Y-94331009D01*
X158761904Y-94331009D02*
X158857142Y-94378628D01*
X158857142Y-94378628D02*
X159238094Y-94378628D01*
X158095237Y-94283390D02*
X158190475Y-94235771D01*
X158190475Y-94235771D02*
X158238094Y-94188152D01*
X158238094Y-94188152D02*
X158285713Y-94092914D01*
X158285713Y-94092914D02*
X158285713Y-94045295D01*
X158285713Y-94045295D02*
X158238094Y-93950057D01*
X158238094Y-93950057D02*
X158190475Y-93902438D01*
X158190475Y-93902438D02*
X158095237Y-93854819D01*
X158095237Y-93854819D02*
X157904761Y-93854819D01*
X157904761Y-93854819D02*
X157809523Y-93902438D01*
X157809523Y-93902438D02*
X157761904Y-93950057D01*
X157761904Y-93950057D02*
X157714285Y-94045295D01*
X157714285Y-94045295D02*
X157714285Y-94092914D01*
X157714285Y-94092914D02*
X157761904Y-94188152D01*
X157761904Y-94188152D02*
X157809523Y-94235771D01*
X157809523Y-94235771D02*
X157904761Y-94283390D01*
X157904761Y-94283390D02*
X158095237Y-94283390D01*
X158095237Y-94283390D02*
X158190475Y-94331009D01*
X158190475Y-94331009D02*
X158238094Y-94378628D01*
X158238094Y-94378628D02*
X158285713Y-94473866D01*
X158285713Y-94473866D02*
X158285713Y-94664342D01*
X158285713Y-94664342D02*
X158238094Y-94759580D01*
X158238094Y-94759580D02*
X158190475Y-94807200D01*
X158190475Y-94807200D02*
X158095237Y-94854819D01*
X158095237Y-94854819D02*
X157904761Y-94854819D01*
X157904761Y-94854819D02*
X157809523Y-94807200D01*
X157809523Y-94807200D02*
X157761904Y-94759580D01*
X157761904Y-94759580D02*
X157714285Y-94664342D01*
X157714285Y-94664342D02*
X157714285Y-94473866D01*
X157714285Y-94473866D02*
X157761904Y-94378628D01*
X157761904Y-94378628D02*
X157809523Y-94331009D01*
X157809523Y-94331009D02*
X157904761Y-94283390D01*
X118859580Y-70457142D02*
X118907200Y-70409523D01*
X118907200Y-70409523D02*
X118954819Y-70266666D01*
X118954819Y-70266666D02*
X118954819Y-70171428D01*
X118954819Y-70171428D02*
X118907200Y-70028571D01*
X118907200Y-70028571D02*
X118811961Y-69933333D01*
X118811961Y-69933333D02*
X118716723Y-69885714D01*
X118716723Y-69885714D02*
X118526247Y-69838095D01*
X118526247Y-69838095D02*
X118383390Y-69838095D01*
X118383390Y-69838095D02*
X118192914Y-69885714D01*
X118192914Y-69885714D02*
X118097676Y-69933333D01*
X118097676Y-69933333D02*
X118002438Y-70028571D01*
X118002438Y-70028571D02*
X117954819Y-70171428D01*
X117954819Y-70171428D02*
X117954819Y-70266666D01*
X117954819Y-70266666D02*
X118002438Y-70409523D01*
X118002438Y-70409523D02*
X118050057Y-70457142D01*
X117954819Y-70790476D02*
X117954819Y-71409523D01*
X117954819Y-71409523D02*
X118335771Y-71076190D01*
X118335771Y-71076190D02*
X118335771Y-71219047D01*
X118335771Y-71219047D02*
X118383390Y-71314285D01*
X118383390Y-71314285D02*
X118431009Y-71361904D01*
X118431009Y-71361904D02*
X118526247Y-71409523D01*
X118526247Y-71409523D02*
X118764342Y-71409523D01*
X118764342Y-71409523D02*
X118859580Y-71361904D01*
X118859580Y-71361904D02*
X118907200Y-71314285D01*
X118907200Y-71314285D02*
X118954819Y-71219047D01*
X118954819Y-71219047D02*
X118954819Y-70933333D01*
X118954819Y-70933333D02*
X118907200Y-70838095D01*
X118907200Y-70838095D02*
X118859580Y-70790476D01*
X118288152Y-72266666D02*
X118954819Y-72266666D01*
X117907200Y-72028571D02*
X118621485Y-71790476D01*
X118621485Y-71790476D02*
X118621485Y-72409523D01*
D11*
X109954663Y-93109523D02*
X109954663Y-92633333D01*
X109954663Y-92633333D02*
X108954663Y-92633333D01*
X109954663Y-93442857D02*
X108954663Y-93442857D01*
X108954663Y-93442857D02*
X108954663Y-93680952D01*
X108954663Y-93680952D02*
X109002282Y-93823809D01*
X109002282Y-93823809D02*
X109097520Y-93919047D01*
X109097520Y-93919047D02*
X109192758Y-93966666D01*
X109192758Y-93966666D02*
X109383234Y-94014285D01*
X109383234Y-94014285D02*
X109526091Y-94014285D01*
X109526091Y-94014285D02*
X109716567Y-93966666D01*
X109716567Y-93966666D02*
X109811805Y-93919047D01*
X109811805Y-93919047D02*
X109907044Y-93823809D01*
X109907044Y-93823809D02*
X109954663Y-93680952D01*
X109954663Y-93680952D02*
X109954663Y-93442857D01*
X108954663Y-94633333D02*
X108954663Y-94823809D01*
X108954663Y-94823809D02*
X109002282Y-94919047D01*
X109002282Y-94919047D02*
X109097520Y-95014285D01*
X109097520Y-95014285D02*
X109287996Y-95061904D01*
X109287996Y-95061904D02*
X109621329Y-95061904D01*
X109621329Y-95061904D02*
X109811805Y-95014285D01*
X109811805Y-95014285D02*
X109907044Y-94919047D01*
X109907044Y-94919047D02*
X109954663Y-94823809D01*
X109954663Y-94823809D02*
X109954663Y-94633333D01*
X109954663Y-94633333D02*
X109907044Y-94538095D01*
X109907044Y-94538095D02*
X109811805Y-94442857D01*
X109811805Y-94442857D02*
X109621329Y-94395238D01*
X109621329Y-94395238D02*
X109287996Y-94395238D01*
X109287996Y-94395238D02*
X109097520Y-94442857D01*
X109097520Y-94442857D02*
X109002282Y-94538095D01*
X109002282Y-94538095D02*
X108954663Y-94633333D01*
X109049901Y-95442857D02*
X109002282Y-95490476D01*
X109002282Y-95490476D02*
X108954663Y-95585714D01*
X108954663Y-95585714D02*
X108954663Y-95823809D01*
X108954663Y-95823809D02*
X109002282Y-95919047D01*
X109002282Y-95919047D02*
X109049901Y-95966666D01*
X109049901Y-95966666D02*
X109145139Y-96014285D01*
X109145139Y-96014285D02*
X109240377Y-96014285D01*
X109240377Y-96014285D02*
X109383234Y-95966666D01*
X109383234Y-95966666D02*
X109954663Y-95395238D01*
X109954663Y-95395238D02*
X109954663Y-96014285D01*
D12*
X107642857Y-98259580D02*
X107690476Y-98307200D01*
X107690476Y-98307200D02*
X107833333Y-98354819D01*
X107833333Y-98354819D02*
X107928571Y-98354819D01*
X107928571Y-98354819D02*
X108071428Y-98307200D01*
X108071428Y-98307200D02*
X108166666Y-98211961D01*
X108166666Y-98211961D02*
X108214285Y-98116723D01*
X108214285Y-98116723D02*
X108261904Y-97926247D01*
X108261904Y-97926247D02*
X108261904Y-97783390D01*
X108261904Y-97783390D02*
X108214285Y-97592914D01*
X108214285Y-97592914D02*
X108166666Y-97497676D01*
X108166666Y-97497676D02*
X108071428Y-97402438D01*
X108071428Y-97402438D02*
X107928571Y-97354819D01*
X107928571Y-97354819D02*
X107833333Y-97354819D01*
X107833333Y-97354819D02*
X107690476Y-97402438D01*
X107690476Y-97402438D02*
X107642857Y-97450057D01*
X106690476Y-98354819D02*
X107261904Y-98354819D01*
X106976190Y-98354819D02*
X106976190Y-97354819D01*
X106976190Y-97354819D02*
X107071428Y-97497676D01*
X107071428Y-97497676D02*
X107166666Y-97592914D01*
X107166666Y-97592914D02*
X107261904Y-97640533D01*
X106357142Y-97354819D02*
X105690476Y-97354819D01*
X105690476Y-97354819D02*
X106119047Y-98354819D01*
X153659580Y-82233333D02*
X153707200Y-82185714D01*
X153707200Y-82185714D02*
X153754819Y-82042857D01*
X153754819Y-82042857D02*
X153754819Y-81947619D01*
X153754819Y-81947619D02*
X153707200Y-81804762D01*
X153707200Y-81804762D02*
X153611961Y-81709524D01*
X153611961Y-81709524D02*
X153516723Y-81661905D01*
X153516723Y-81661905D02*
X153326247Y-81614286D01*
X153326247Y-81614286D02*
X153183390Y-81614286D01*
X153183390Y-81614286D02*
X152992914Y-81661905D01*
X152992914Y-81661905D02*
X152897676Y-81709524D01*
X152897676Y-81709524D02*
X152802438Y-81804762D01*
X152802438Y-81804762D02*
X152754819Y-81947619D01*
X152754819Y-81947619D02*
X152754819Y-82042857D01*
X152754819Y-82042857D02*
X152802438Y-82185714D01*
X152802438Y-82185714D02*
X152850057Y-82233333D01*
X152754819Y-83090476D02*
X152754819Y-82900000D01*
X152754819Y-82900000D02*
X152802438Y-82804762D01*
X152802438Y-82804762D02*
X152850057Y-82757143D01*
X152850057Y-82757143D02*
X152992914Y-82661905D01*
X152992914Y-82661905D02*
X153183390Y-82614286D01*
X153183390Y-82614286D02*
X153564342Y-82614286D01*
X153564342Y-82614286D02*
X153659580Y-82661905D01*
X153659580Y-82661905D02*
X153707200Y-82709524D01*
X153707200Y-82709524D02*
X153754819Y-82804762D01*
X153754819Y-82804762D02*
X153754819Y-82995238D01*
X153754819Y-82995238D02*
X153707200Y-83090476D01*
X153707200Y-83090476D02*
X153659580Y-83138095D01*
X153659580Y-83138095D02*
X153564342Y-83185714D01*
X153564342Y-83185714D02*
X153326247Y-83185714D01*
X153326247Y-83185714D02*
X153231009Y-83138095D01*
X153231009Y-83138095D02*
X153183390Y-83090476D01*
X153183390Y-83090476D02*
X153135771Y-82995238D01*
X153135771Y-82995238D02*
X153135771Y-82804762D01*
X153135771Y-82804762D02*
X153183390Y-82709524D01*
X153183390Y-82709524D02*
X153231009Y-82661905D01*
X153231009Y-82661905D02*
X153326247Y-82614286D01*
X129854819Y-108057142D02*
X129378628Y-107723809D01*
X129854819Y-107485714D02*
X128854819Y-107485714D01*
X128854819Y-107485714D02*
X128854819Y-107866666D01*
X128854819Y-107866666D02*
X128902438Y-107961904D01*
X128902438Y-107961904D02*
X128950057Y-108009523D01*
X128950057Y-108009523D02*
X129045295Y-108057142D01*
X129045295Y-108057142D02*
X129188152Y-108057142D01*
X129188152Y-108057142D02*
X129283390Y-108009523D01*
X129283390Y-108009523D02*
X129331009Y-107961904D01*
X129331009Y-107961904D02*
X129378628Y-107866666D01*
X129378628Y-107866666D02*
X129378628Y-107485714D01*
X128950057Y-108438095D02*
X128902438Y-108485714D01*
X128902438Y-108485714D02*
X128854819Y-108580952D01*
X128854819Y-108580952D02*
X128854819Y-108819047D01*
X128854819Y-108819047D02*
X128902438Y-108914285D01*
X128902438Y-108914285D02*
X128950057Y-108961904D01*
X128950057Y-108961904D02*
X129045295Y-109009523D01*
X129045295Y-109009523D02*
X129140533Y-109009523D01*
X129140533Y-109009523D02*
X129283390Y-108961904D01*
X129283390Y-108961904D02*
X129854819Y-108390476D01*
X129854819Y-108390476D02*
X129854819Y-109009523D01*
X128950057Y-109390476D02*
X128902438Y-109438095D01*
X128902438Y-109438095D02*
X128854819Y-109533333D01*
X128854819Y-109533333D02*
X128854819Y-109771428D01*
X128854819Y-109771428D02*
X128902438Y-109866666D01*
X128902438Y-109866666D02*
X128950057Y-109914285D01*
X128950057Y-109914285D02*
X129045295Y-109961904D01*
X129045295Y-109961904D02*
X129140533Y-109961904D01*
X129140533Y-109961904D02*
X129283390Y-109914285D01*
X129283390Y-109914285D02*
X129854819Y-109342857D01*
X129854819Y-109342857D02*
X129854819Y-109961904D01*
X170759580Y-97557142D02*
X170807200Y-97509523D01*
X170807200Y-97509523D02*
X170854819Y-97366666D01*
X170854819Y-97366666D02*
X170854819Y-97271428D01*
X170854819Y-97271428D02*
X170807200Y-97128571D01*
X170807200Y-97128571D02*
X170711961Y-97033333D01*
X170711961Y-97033333D02*
X170616723Y-96985714D01*
X170616723Y-96985714D02*
X170426247Y-96938095D01*
X170426247Y-96938095D02*
X170283390Y-96938095D01*
X170283390Y-96938095D02*
X170092914Y-96985714D01*
X170092914Y-96985714D02*
X169997676Y-97033333D01*
X169997676Y-97033333D02*
X169902438Y-97128571D01*
X169902438Y-97128571D02*
X169854819Y-97271428D01*
X169854819Y-97271428D02*
X169854819Y-97366666D01*
X169854819Y-97366666D02*
X169902438Y-97509523D01*
X169902438Y-97509523D02*
X169950057Y-97557142D01*
X170283390Y-98128571D02*
X170235771Y-98033333D01*
X170235771Y-98033333D02*
X170188152Y-97985714D01*
X170188152Y-97985714D02*
X170092914Y-97938095D01*
X170092914Y-97938095D02*
X170045295Y-97938095D01*
X170045295Y-97938095D02*
X169950057Y-97985714D01*
X169950057Y-97985714D02*
X169902438Y-98033333D01*
X169902438Y-98033333D02*
X169854819Y-98128571D01*
X169854819Y-98128571D02*
X169854819Y-98319047D01*
X169854819Y-98319047D02*
X169902438Y-98414285D01*
X169902438Y-98414285D02*
X169950057Y-98461904D01*
X169950057Y-98461904D02*
X170045295Y-98509523D01*
X170045295Y-98509523D02*
X170092914Y-98509523D01*
X170092914Y-98509523D02*
X170188152Y-98461904D01*
X170188152Y-98461904D02*
X170235771Y-98414285D01*
X170235771Y-98414285D02*
X170283390Y-98319047D01*
X170283390Y-98319047D02*
X170283390Y-98128571D01*
X170283390Y-98128571D02*
X170331009Y-98033333D01*
X170331009Y-98033333D02*
X170378628Y-97985714D01*
X170378628Y-97985714D02*
X170473866Y-97938095D01*
X170473866Y-97938095D02*
X170664342Y-97938095D01*
X170664342Y-97938095D02*
X170759580Y-97985714D01*
X170759580Y-97985714D02*
X170807200Y-98033333D01*
X170807200Y-98033333D02*
X170854819Y-98128571D01*
X170854819Y-98128571D02*
X170854819Y-98319047D01*
X170854819Y-98319047D02*
X170807200Y-98414285D01*
X170807200Y-98414285D02*
X170759580Y-98461904D01*
X170759580Y-98461904D02*
X170664342Y-98509523D01*
X170664342Y-98509523D02*
X170473866Y-98509523D01*
X170473866Y-98509523D02*
X170378628Y-98461904D01*
X170378628Y-98461904D02*
X170331009Y-98414285D01*
X170331009Y-98414285D02*
X170283390Y-98319047D01*
X170854819Y-99461904D02*
X170854819Y-98890476D01*
X170854819Y-99176190D02*
X169854819Y-99176190D01*
X169854819Y-99176190D02*
X169997676Y-99080952D01*
X169997676Y-99080952D02*
X170092914Y-98985714D01*
X170092914Y-98985714D02*
X170140533Y-98890476D01*
X168359580Y-88457142D02*
X168407200Y-88409523D01*
X168407200Y-88409523D02*
X168454819Y-88266666D01*
X168454819Y-88266666D02*
X168454819Y-88171428D01*
X168454819Y-88171428D02*
X168407200Y-88028571D01*
X168407200Y-88028571D02*
X168311961Y-87933333D01*
X168311961Y-87933333D02*
X168216723Y-87885714D01*
X168216723Y-87885714D02*
X168026247Y-87838095D01*
X168026247Y-87838095D02*
X167883390Y-87838095D01*
X167883390Y-87838095D02*
X167692914Y-87885714D01*
X167692914Y-87885714D02*
X167597676Y-87933333D01*
X167597676Y-87933333D02*
X167502438Y-88028571D01*
X167502438Y-88028571D02*
X167454819Y-88171428D01*
X167454819Y-88171428D02*
X167454819Y-88266666D01*
X167454819Y-88266666D02*
X167502438Y-88409523D01*
X167502438Y-88409523D02*
X167550057Y-88457142D01*
X167454819Y-88790476D02*
X167454819Y-89457142D01*
X167454819Y-89457142D02*
X168454819Y-89028571D01*
X167454819Y-89742857D02*
X167454819Y-90409523D01*
X167454819Y-90409523D02*
X168454819Y-89980952D01*
X158766666Y-92454819D02*
X159099999Y-91978628D01*
X159338094Y-92454819D02*
X159338094Y-91454819D01*
X159338094Y-91454819D02*
X158957142Y-91454819D01*
X158957142Y-91454819D02*
X158861904Y-91502438D01*
X158861904Y-91502438D02*
X158814285Y-91550057D01*
X158814285Y-91550057D02*
X158766666Y-91645295D01*
X158766666Y-91645295D02*
X158766666Y-91788152D01*
X158766666Y-91788152D02*
X158814285Y-91883390D01*
X158814285Y-91883390D02*
X158861904Y-91931009D01*
X158861904Y-91931009D02*
X158957142Y-91978628D01*
X158957142Y-91978628D02*
X159338094Y-91978628D01*
X158385713Y-91550057D02*
X158338094Y-91502438D01*
X158338094Y-91502438D02*
X158242856Y-91454819D01*
X158242856Y-91454819D02*
X158004761Y-91454819D01*
X158004761Y-91454819D02*
X157909523Y-91502438D01*
X157909523Y-91502438D02*
X157861904Y-91550057D01*
X157861904Y-91550057D02*
X157814285Y-91645295D01*
X157814285Y-91645295D02*
X157814285Y-91740533D01*
X157814285Y-91740533D02*
X157861904Y-91883390D01*
X157861904Y-91883390D02*
X158433332Y-92454819D01*
X158433332Y-92454819D02*
X157814285Y-92454819D01*
X138242857Y-107954819D02*
X138576190Y-107478628D01*
X138814285Y-107954819D02*
X138814285Y-106954819D01*
X138814285Y-106954819D02*
X138433333Y-106954819D01*
X138433333Y-106954819D02*
X138338095Y-107002438D01*
X138338095Y-107002438D02*
X138290476Y-107050057D01*
X138290476Y-107050057D02*
X138242857Y-107145295D01*
X138242857Y-107145295D02*
X138242857Y-107288152D01*
X138242857Y-107288152D02*
X138290476Y-107383390D01*
X138290476Y-107383390D02*
X138338095Y-107431009D01*
X138338095Y-107431009D02*
X138433333Y-107478628D01*
X138433333Y-107478628D02*
X138814285Y-107478628D01*
X137861904Y-107050057D02*
X137814285Y-107002438D01*
X137814285Y-107002438D02*
X137719047Y-106954819D01*
X137719047Y-106954819D02*
X137480952Y-106954819D01*
X137480952Y-106954819D02*
X137385714Y-107002438D01*
X137385714Y-107002438D02*
X137338095Y-107050057D01*
X137338095Y-107050057D02*
X137290476Y-107145295D01*
X137290476Y-107145295D02*
X137290476Y-107240533D01*
X137290476Y-107240533D02*
X137338095Y-107383390D01*
X137338095Y-107383390D02*
X137909523Y-107954819D01*
X137909523Y-107954819D02*
X137290476Y-107954819D01*
X136338095Y-107954819D02*
X136909523Y-107954819D01*
X136623809Y-107954819D02*
X136623809Y-106954819D01*
X136623809Y-106954819D02*
X136719047Y-107097676D01*
X136719047Y-107097676D02*
X136814285Y-107192914D01*
X136814285Y-107192914D02*
X136909523Y-107240533D01*
X155359580Y-82133333D02*
X155407200Y-82085714D01*
X155407200Y-82085714D02*
X155454819Y-81942857D01*
X155454819Y-81942857D02*
X155454819Y-81847619D01*
X155454819Y-81847619D02*
X155407200Y-81704762D01*
X155407200Y-81704762D02*
X155311961Y-81609524D01*
X155311961Y-81609524D02*
X155216723Y-81561905D01*
X155216723Y-81561905D02*
X155026247Y-81514286D01*
X155026247Y-81514286D02*
X154883390Y-81514286D01*
X154883390Y-81514286D02*
X154692914Y-81561905D01*
X154692914Y-81561905D02*
X154597676Y-81609524D01*
X154597676Y-81609524D02*
X154502438Y-81704762D01*
X154502438Y-81704762D02*
X154454819Y-81847619D01*
X154454819Y-81847619D02*
X154454819Y-81942857D01*
X154454819Y-81942857D02*
X154502438Y-82085714D01*
X154502438Y-82085714D02*
X154550057Y-82133333D01*
X154788152Y-82990476D02*
X155454819Y-82990476D01*
X154407200Y-82752381D02*
X155121485Y-82514286D01*
X155121485Y-82514286D02*
X155121485Y-83133333D01*
D11*
X118785713Y-102054663D02*
X118452380Y-103054663D01*
X118452380Y-103054663D02*
X118119047Y-102054663D01*
X117833332Y-103007044D02*
X117690475Y-103054663D01*
X117690475Y-103054663D02*
X117452380Y-103054663D01*
X117452380Y-103054663D02*
X117357142Y-103007044D01*
X117357142Y-103007044D02*
X117309523Y-102959424D01*
X117309523Y-102959424D02*
X117261904Y-102864186D01*
X117261904Y-102864186D02*
X117261904Y-102768948D01*
X117261904Y-102768948D02*
X117309523Y-102673710D01*
X117309523Y-102673710D02*
X117357142Y-102626091D01*
X117357142Y-102626091D02*
X117452380Y-102578472D01*
X117452380Y-102578472D02*
X117642856Y-102530853D01*
X117642856Y-102530853D02*
X117738094Y-102483234D01*
X117738094Y-102483234D02*
X117785713Y-102435615D01*
X117785713Y-102435615D02*
X117833332Y-102340377D01*
X117833332Y-102340377D02*
X117833332Y-102245139D01*
X117833332Y-102245139D02*
X117785713Y-102149901D01*
X117785713Y-102149901D02*
X117738094Y-102102282D01*
X117738094Y-102102282D02*
X117642856Y-102054663D01*
X117642856Y-102054663D02*
X117404761Y-102054663D01*
X117404761Y-102054663D02*
X117261904Y-102102282D01*
X116309523Y-103054663D02*
X116880951Y-103054663D01*
X116595237Y-103054663D02*
X116595237Y-102054663D01*
X116595237Y-102054663D02*
X116690475Y-102197520D01*
X116690475Y-102197520D02*
X116785713Y-102292758D01*
X116785713Y-102292758D02*
X116880951Y-102340377D01*
D12*
X170559580Y-85257142D02*
X170607200Y-85209523D01*
X170607200Y-85209523D02*
X170654819Y-85066666D01*
X170654819Y-85066666D02*
X170654819Y-84971428D01*
X170654819Y-84971428D02*
X170607200Y-84828571D01*
X170607200Y-84828571D02*
X170511961Y-84733333D01*
X170511961Y-84733333D02*
X170416723Y-84685714D01*
X170416723Y-84685714D02*
X170226247Y-84638095D01*
X170226247Y-84638095D02*
X170083390Y-84638095D01*
X170083390Y-84638095D02*
X169892914Y-84685714D01*
X169892914Y-84685714D02*
X169797676Y-84733333D01*
X169797676Y-84733333D02*
X169702438Y-84828571D01*
X169702438Y-84828571D02*
X169654819Y-84971428D01*
X169654819Y-84971428D02*
X169654819Y-85066666D01*
X169654819Y-85066666D02*
X169702438Y-85209523D01*
X169702438Y-85209523D02*
X169750057Y-85257142D01*
X169654819Y-85590476D02*
X169654819Y-86257142D01*
X169654819Y-86257142D02*
X170654819Y-85828571D01*
X169988152Y-87066666D02*
X170654819Y-87066666D01*
X169607200Y-86828571D02*
X170321485Y-86590476D01*
X170321485Y-86590476D02*
X170321485Y-87209523D01*
X144554819Y-104457142D02*
X144078628Y-104123809D01*
X144554819Y-103885714D02*
X143554819Y-103885714D01*
X143554819Y-103885714D02*
X143554819Y-104266666D01*
X143554819Y-104266666D02*
X143602438Y-104361904D01*
X143602438Y-104361904D02*
X143650057Y-104409523D01*
X143650057Y-104409523D02*
X143745295Y-104457142D01*
X143745295Y-104457142D02*
X143888152Y-104457142D01*
X143888152Y-104457142D02*
X143983390Y-104409523D01*
X143983390Y-104409523D02*
X144031009Y-104361904D01*
X144031009Y-104361904D02*
X144078628Y-104266666D01*
X144078628Y-104266666D02*
X144078628Y-103885714D01*
X144554819Y-105409523D02*
X144554819Y-104838095D01*
X144554819Y-105123809D02*
X143554819Y-105123809D01*
X143554819Y-105123809D02*
X143697676Y-105028571D01*
X143697676Y-105028571D02*
X143792914Y-104933333D01*
X143792914Y-104933333D02*
X143840533Y-104838095D01*
X143983390Y-105980952D02*
X143935771Y-105885714D01*
X143935771Y-105885714D02*
X143888152Y-105838095D01*
X143888152Y-105838095D02*
X143792914Y-105790476D01*
X143792914Y-105790476D02*
X143745295Y-105790476D01*
X143745295Y-105790476D02*
X143650057Y-105838095D01*
X143650057Y-105838095D02*
X143602438Y-105885714D01*
X143602438Y-105885714D02*
X143554819Y-105980952D01*
X143554819Y-105980952D02*
X143554819Y-106171428D01*
X143554819Y-106171428D02*
X143602438Y-106266666D01*
X143602438Y-106266666D02*
X143650057Y-106314285D01*
X143650057Y-106314285D02*
X143745295Y-106361904D01*
X143745295Y-106361904D02*
X143792914Y-106361904D01*
X143792914Y-106361904D02*
X143888152Y-106314285D01*
X143888152Y-106314285D02*
X143935771Y-106266666D01*
X143935771Y-106266666D02*
X143983390Y-106171428D01*
X143983390Y-106171428D02*
X143983390Y-105980952D01*
X143983390Y-105980952D02*
X144031009Y-105885714D01*
X144031009Y-105885714D02*
X144078628Y-105838095D01*
X144078628Y-105838095D02*
X144173866Y-105790476D01*
X144173866Y-105790476D02*
X144364342Y-105790476D01*
X144364342Y-105790476D02*
X144459580Y-105838095D01*
X144459580Y-105838095D02*
X144507200Y-105885714D01*
X144507200Y-105885714D02*
X144554819Y-105980952D01*
X144554819Y-105980952D02*
X144554819Y-106171428D01*
X144554819Y-106171428D02*
X144507200Y-106266666D01*
X144507200Y-106266666D02*
X144459580Y-106314285D01*
X144459580Y-106314285D02*
X144364342Y-106361904D01*
X144364342Y-106361904D02*
X144173866Y-106361904D01*
X144173866Y-106361904D02*
X144078628Y-106314285D01*
X144078628Y-106314285D02*
X144031009Y-106266666D01*
X144031009Y-106266666D02*
X143983390Y-106171428D01*
X137454819Y-109123810D02*
X136454819Y-109123810D01*
X136454819Y-109123810D02*
X136454819Y-109361905D01*
X136454819Y-109361905D02*
X136502438Y-109504762D01*
X136502438Y-109504762D02*
X136597676Y-109600000D01*
X136597676Y-109600000D02*
X136692914Y-109647619D01*
X136692914Y-109647619D02*
X136883390Y-109695238D01*
X136883390Y-109695238D02*
X137026247Y-109695238D01*
X137026247Y-109695238D02*
X137216723Y-109647619D01*
X137216723Y-109647619D02*
X137311961Y-109600000D01*
X137311961Y-109600000D02*
X137407200Y-109504762D01*
X137407200Y-109504762D02*
X137454819Y-109361905D01*
X137454819Y-109361905D02*
X137454819Y-109123810D01*
X137454819Y-110123810D02*
X136454819Y-110123810D01*
X136550057Y-110552381D02*
X136502438Y-110600000D01*
X136502438Y-110600000D02*
X136454819Y-110695238D01*
X136454819Y-110695238D02*
X136454819Y-110933333D01*
X136454819Y-110933333D02*
X136502438Y-111028571D01*
X136502438Y-111028571D02*
X136550057Y-111076190D01*
X136550057Y-111076190D02*
X136645295Y-111123809D01*
X136645295Y-111123809D02*
X136740533Y-111123809D01*
X136740533Y-111123809D02*
X136883390Y-111076190D01*
X136883390Y-111076190D02*
X137454819Y-110504762D01*
X137454819Y-110504762D02*
X137454819Y-111123809D01*
X148354819Y-107757142D02*
X147878628Y-107423809D01*
X148354819Y-107185714D02*
X147354819Y-107185714D01*
X147354819Y-107185714D02*
X147354819Y-107566666D01*
X147354819Y-107566666D02*
X147402438Y-107661904D01*
X147402438Y-107661904D02*
X147450057Y-107709523D01*
X147450057Y-107709523D02*
X147545295Y-107757142D01*
X147545295Y-107757142D02*
X147688152Y-107757142D01*
X147688152Y-107757142D02*
X147783390Y-107709523D01*
X147783390Y-107709523D02*
X147831009Y-107661904D01*
X147831009Y-107661904D02*
X147878628Y-107566666D01*
X147878628Y-107566666D02*
X147878628Y-107185714D01*
X147450057Y-108138095D02*
X147402438Y-108185714D01*
X147402438Y-108185714D02*
X147354819Y-108280952D01*
X147354819Y-108280952D02*
X147354819Y-108519047D01*
X147354819Y-108519047D02*
X147402438Y-108614285D01*
X147402438Y-108614285D02*
X147450057Y-108661904D01*
X147450057Y-108661904D02*
X147545295Y-108709523D01*
X147545295Y-108709523D02*
X147640533Y-108709523D01*
X147640533Y-108709523D02*
X147783390Y-108661904D01*
X147783390Y-108661904D02*
X148354819Y-108090476D01*
X148354819Y-108090476D02*
X148354819Y-108709523D01*
X147354819Y-109328571D02*
X147354819Y-109423809D01*
X147354819Y-109423809D02*
X147402438Y-109519047D01*
X147402438Y-109519047D02*
X147450057Y-109566666D01*
X147450057Y-109566666D02*
X147545295Y-109614285D01*
X147545295Y-109614285D02*
X147735771Y-109661904D01*
X147735771Y-109661904D02*
X147973866Y-109661904D01*
X147973866Y-109661904D02*
X148164342Y-109614285D01*
X148164342Y-109614285D02*
X148259580Y-109566666D01*
X148259580Y-109566666D02*
X148307200Y-109519047D01*
X148307200Y-109519047D02*
X148354819Y-109423809D01*
X148354819Y-109423809D02*
X148354819Y-109328571D01*
X148354819Y-109328571D02*
X148307200Y-109233333D01*
X148307200Y-109233333D02*
X148259580Y-109185714D01*
X148259580Y-109185714D02*
X148164342Y-109138095D01*
X148164342Y-109138095D02*
X147973866Y-109090476D01*
X147973866Y-109090476D02*
X147735771Y-109090476D01*
X147735771Y-109090476D02*
X147545295Y-109138095D01*
X147545295Y-109138095D02*
X147450057Y-109185714D01*
X147450057Y-109185714D02*
X147402438Y-109233333D01*
X147402438Y-109233333D02*
X147354819Y-109328571D01*
X129131009Y-92666666D02*
X129131009Y-92333333D01*
X129654819Y-92333333D02*
X128654819Y-92333333D01*
X128654819Y-92333333D02*
X128654819Y-92809523D01*
X129131009Y-93523809D02*
X129178628Y-93666666D01*
X129178628Y-93666666D02*
X129226247Y-93714285D01*
X129226247Y-93714285D02*
X129321485Y-93761904D01*
X129321485Y-93761904D02*
X129464342Y-93761904D01*
X129464342Y-93761904D02*
X129559580Y-93714285D01*
X129559580Y-93714285D02*
X129607200Y-93666666D01*
X129607200Y-93666666D02*
X129654819Y-93571428D01*
X129654819Y-93571428D02*
X129654819Y-93190476D01*
X129654819Y-93190476D02*
X128654819Y-93190476D01*
X128654819Y-93190476D02*
X128654819Y-93523809D01*
X128654819Y-93523809D02*
X128702438Y-93619047D01*
X128702438Y-93619047D02*
X128750057Y-93666666D01*
X128750057Y-93666666D02*
X128845295Y-93714285D01*
X128845295Y-93714285D02*
X128940533Y-93714285D01*
X128940533Y-93714285D02*
X129035771Y-93666666D01*
X129035771Y-93666666D02*
X129083390Y-93619047D01*
X129083390Y-93619047D02*
X129131009Y-93523809D01*
X129131009Y-93523809D02*
X129131009Y-93190476D01*
X128750057Y-94142857D02*
X128702438Y-94190476D01*
X128702438Y-94190476D02*
X128654819Y-94285714D01*
X128654819Y-94285714D02*
X128654819Y-94523809D01*
X128654819Y-94523809D02*
X128702438Y-94619047D01*
X128702438Y-94619047D02*
X128750057Y-94666666D01*
X128750057Y-94666666D02*
X128845295Y-94714285D01*
X128845295Y-94714285D02*
X128940533Y-94714285D01*
X128940533Y-94714285D02*
X129083390Y-94666666D01*
X129083390Y-94666666D02*
X129654819Y-94095238D01*
X129654819Y-94095238D02*
X129654819Y-94714285D01*
X127659580Y-85457142D02*
X127707200Y-85409523D01*
X127707200Y-85409523D02*
X127754819Y-85266666D01*
X127754819Y-85266666D02*
X127754819Y-85171428D01*
X127754819Y-85171428D02*
X127707200Y-85028571D01*
X127707200Y-85028571D02*
X127611961Y-84933333D01*
X127611961Y-84933333D02*
X127516723Y-84885714D01*
X127516723Y-84885714D02*
X127326247Y-84838095D01*
X127326247Y-84838095D02*
X127183390Y-84838095D01*
X127183390Y-84838095D02*
X126992914Y-84885714D01*
X126992914Y-84885714D02*
X126897676Y-84933333D01*
X126897676Y-84933333D02*
X126802438Y-85028571D01*
X126802438Y-85028571D02*
X126754819Y-85171428D01*
X126754819Y-85171428D02*
X126754819Y-85266666D01*
X126754819Y-85266666D02*
X126802438Y-85409523D01*
X126802438Y-85409523D02*
X126850057Y-85457142D01*
X127088152Y-86314285D02*
X127754819Y-86314285D01*
X126707200Y-86076190D02*
X127421485Y-85838095D01*
X127421485Y-85838095D02*
X127421485Y-86457142D01*
X126754819Y-87314285D02*
X126754819Y-86838095D01*
X126754819Y-86838095D02*
X127231009Y-86790476D01*
X127231009Y-86790476D02*
X127183390Y-86838095D01*
X127183390Y-86838095D02*
X127135771Y-86933333D01*
X127135771Y-86933333D02*
X127135771Y-87171428D01*
X127135771Y-87171428D02*
X127183390Y-87266666D01*
X127183390Y-87266666D02*
X127231009Y-87314285D01*
X127231009Y-87314285D02*
X127326247Y-87361904D01*
X127326247Y-87361904D02*
X127564342Y-87361904D01*
X127564342Y-87361904D02*
X127659580Y-87314285D01*
X127659580Y-87314285D02*
X127707200Y-87266666D01*
X127707200Y-87266666D02*
X127754819Y-87171428D01*
X127754819Y-87171428D02*
X127754819Y-86933333D01*
X127754819Y-86933333D02*
X127707200Y-86838095D01*
X127707200Y-86838095D02*
X127659580Y-86790476D01*
X114159580Y-102457142D02*
X114207200Y-102409523D01*
X114207200Y-102409523D02*
X114254819Y-102266666D01*
X114254819Y-102266666D02*
X114254819Y-102171428D01*
X114254819Y-102171428D02*
X114207200Y-102028571D01*
X114207200Y-102028571D02*
X114111961Y-101933333D01*
X114111961Y-101933333D02*
X114016723Y-101885714D01*
X114016723Y-101885714D02*
X113826247Y-101838095D01*
X113826247Y-101838095D02*
X113683390Y-101838095D01*
X113683390Y-101838095D02*
X113492914Y-101885714D01*
X113492914Y-101885714D02*
X113397676Y-101933333D01*
X113397676Y-101933333D02*
X113302438Y-102028571D01*
X113302438Y-102028571D02*
X113254819Y-102171428D01*
X113254819Y-102171428D02*
X113254819Y-102266666D01*
X113254819Y-102266666D02*
X113302438Y-102409523D01*
X113302438Y-102409523D02*
X113350057Y-102457142D01*
X113254819Y-102790476D02*
X113254819Y-103409523D01*
X113254819Y-103409523D02*
X113635771Y-103076190D01*
X113635771Y-103076190D02*
X113635771Y-103219047D01*
X113635771Y-103219047D02*
X113683390Y-103314285D01*
X113683390Y-103314285D02*
X113731009Y-103361904D01*
X113731009Y-103361904D02*
X113826247Y-103409523D01*
X113826247Y-103409523D02*
X114064342Y-103409523D01*
X114064342Y-103409523D02*
X114159580Y-103361904D01*
X114159580Y-103361904D02*
X114207200Y-103314285D01*
X114207200Y-103314285D02*
X114254819Y-103219047D01*
X114254819Y-103219047D02*
X114254819Y-102933333D01*
X114254819Y-102933333D02*
X114207200Y-102838095D01*
X114207200Y-102838095D02*
X114159580Y-102790476D01*
X113254819Y-103742857D02*
X113254819Y-104361904D01*
X113254819Y-104361904D02*
X113635771Y-104028571D01*
X113635771Y-104028571D02*
X113635771Y-104171428D01*
X113635771Y-104171428D02*
X113683390Y-104266666D01*
X113683390Y-104266666D02*
X113731009Y-104314285D01*
X113731009Y-104314285D02*
X113826247Y-104361904D01*
X113826247Y-104361904D02*
X114064342Y-104361904D01*
X114064342Y-104361904D02*
X114159580Y-104314285D01*
X114159580Y-104314285D02*
X114207200Y-104266666D01*
X114207200Y-104266666D02*
X114254819Y-104171428D01*
X114254819Y-104171428D02*
X114254819Y-103885714D01*
X114254819Y-103885714D02*
X114207200Y-103790476D01*
X114207200Y-103790476D02*
X114159580Y-103742857D01*
X158854819Y-86257142D02*
X158854819Y-85780952D01*
X158854819Y-85780952D02*
X157854819Y-85780952D01*
X158854819Y-87114285D02*
X158854819Y-86542857D01*
X158854819Y-86828571D02*
X157854819Y-86828571D01*
X157854819Y-86828571D02*
X157997676Y-86733333D01*
X157997676Y-86733333D02*
X158092914Y-86638095D01*
X158092914Y-86638095D02*
X158140533Y-86542857D01*
X158854819Y-88066666D02*
X158854819Y-87495238D01*
X158854819Y-87780952D02*
X157854819Y-87780952D01*
X157854819Y-87780952D02*
X157997676Y-87685714D01*
X157997676Y-87685714D02*
X158092914Y-87590476D01*
X158092914Y-87590476D02*
X158140533Y-87495238D01*
X172959580Y-85257142D02*
X173007200Y-85209523D01*
X173007200Y-85209523D02*
X173054819Y-85066666D01*
X173054819Y-85066666D02*
X173054819Y-84971428D01*
X173054819Y-84971428D02*
X173007200Y-84828571D01*
X173007200Y-84828571D02*
X172911961Y-84733333D01*
X172911961Y-84733333D02*
X172816723Y-84685714D01*
X172816723Y-84685714D02*
X172626247Y-84638095D01*
X172626247Y-84638095D02*
X172483390Y-84638095D01*
X172483390Y-84638095D02*
X172292914Y-84685714D01*
X172292914Y-84685714D02*
X172197676Y-84733333D01*
X172197676Y-84733333D02*
X172102438Y-84828571D01*
X172102438Y-84828571D02*
X172054819Y-84971428D01*
X172054819Y-84971428D02*
X172054819Y-85066666D01*
X172054819Y-85066666D02*
X172102438Y-85209523D01*
X172102438Y-85209523D02*
X172150057Y-85257142D01*
X172054819Y-85590476D02*
X172054819Y-86257142D01*
X172054819Y-86257142D02*
X173054819Y-85828571D01*
X172054819Y-87114285D02*
X172054819Y-86638095D01*
X172054819Y-86638095D02*
X172531009Y-86590476D01*
X172531009Y-86590476D02*
X172483390Y-86638095D01*
X172483390Y-86638095D02*
X172435771Y-86733333D01*
X172435771Y-86733333D02*
X172435771Y-86971428D01*
X172435771Y-86971428D02*
X172483390Y-87066666D01*
X172483390Y-87066666D02*
X172531009Y-87114285D01*
X172531009Y-87114285D02*
X172626247Y-87161904D01*
X172626247Y-87161904D02*
X172864342Y-87161904D01*
X172864342Y-87161904D02*
X172959580Y-87114285D01*
X172959580Y-87114285D02*
X173007200Y-87066666D01*
X173007200Y-87066666D02*
X173054819Y-86971428D01*
X173054819Y-86971428D02*
X173054819Y-86733333D01*
X173054819Y-86733333D02*
X173007200Y-86638095D01*
X173007200Y-86638095D02*
X172959580Y-86590476D01*
X158759580Y-82657142D02*
X158807200Y-82609523D01*
X158807200Y-82609523D02*
X158854819Y-82466666D01*
X158854819Y-82466666D02*
X158854819Y-82371428D01*
X158854819Y-82371428D02*
X158807200Y-82228571D01*
X158807200Y-82228571D02*
X158711961Y-82133333D01*
X158711961Y-82133333D02*
X158616723Y-82085714D01*
X158616723Y-82085714D02*
X158426247Y-82038095D01*
X158426247Y-82038095D02*
X158283390Y-82038095D01*
X158283390Y-82038095D02*
X158092914Y-82085714D01*
X158092914Y-82085714D02*
X157997676Y-82133333D01*
X157997676Y-82133333D02*
X157902438Y-82228571D01*
X157902438Y-82228571D02*
X157854819Y-82371428D01*
X157854819Y-82371428D02*
X157854819Y-82466666D01*
X157854819Y-82466666D02*
X157902438Y-82609523D01*
X157902438Y-82609523D02*
X157950057Y-82657142D01*
X158854819Y-83609523D02*
X158854819Y-83038095D01*
X158854819Y-83323809D02*
X157854819Y-83323809D01*
X157854819Y-83323809D02*
X157997676Y-83228571D01*
X157997676Y-83228571D02*
X158092914Y-83133333D01*
X158092914Y-83133333D02*
X158140533Y-83038095D01*
X157854819Y-84228571D02*
X157854819Y-84323809D01*
X157854819Y-84323809D02*
X157902438Y-84419047D01*
X157902438Y-84419047D02*
X157950057Y-84466666D01*
X157950057Y-84466666D02*
X158045295Y-84514285D01*
X158045295Y-84514285D02*
X158235771Y-84561904D01*
X158235771Y-84561904D02*
X158473866Y-84561904D01*
X158473866Y-84561904D02*
X158664342Y-84514285D01*
X158664342Y-84514285D02*
X158759580Y-84466666D01*
X158759580Y-84466666D02*
X158807200Y-84419047D01*
X158807200Y-84419047D02*
X158854819Y-84323809D01*
X158854819Y-84323809D02*
X158854819Y-84228571D01*
X158854819Y-84228571D02*
X158807200Y-84133333D01*
X158807200Y-84133333D02*
X158759580Y-84085714D01*
X158759580Y-84085714D02*
X158664342Y-84038095D01*
X158664342Y-84038095D02*
X158473866Y-83990476D01*
X158473866Y-83990476D02*
X158235771Y-83990476D01*
X158235771Y-83990476D02*
X158045295Y-84038095D01*
X158045295Y-84038095D02*
X157950057Y-84085714D01*
X157950057Y-84085714D02*
X157902438Y-84133333D01*
X157902438Y-84133333D02*
X157854819Y-84228571D01*
X174776189Y-113854819D02*
X174776189Y-112854819D01*
X174776189Y-112854819D02*
X174538094Y-112854819D01*
X174538094Y-112854819D02*
X174395237Y-112902438D01*
X174395237Y-112902438D02*
X174299999Y-112997676D01*
X174299999Y-112997676D02*
X174252380Y-113092914D01*
X174252380Y-113092914D02*
X174204761Y-113283390D01*
X174204761Y-113283390D02*
X174204761Y-113426247D01*
X174204761Y-113426247D02*
X174252380Y-113616723D01*
X174252380Y-113616723D02*
X174299999Y-113711961D01*
X174299999Y-113711961D02*
X174395237Y-113807200D01*
X174395237Y-113807200D02*
X174538094Y-113854819D01*
X174538094Y-113854819D02*
X174776189Y-113854819D01*
X173776189Y-113854819D02*
X173776189Y-112854819D01*
X172776190Y-113854819D02*
X173347618Y-113854819D01*
X173061904Y-113854819D02*
X173061904Y-112854819D01*
X173061904Y-112854819D02*
X173157142Y-112997676D01*
X173157142Y-112997676D02*
X173252380Y-113092914D01*
X173252380Y-113092914D02*
X173347618Y-113140533D01*
X130159580Y-85444642D02*
X130207200Y-85397023D01*
X130207200Y-85397023D02*
X130254819Y-85254166D01*
X130254819Y-85254166D02*
X130254819Y-85158928D01*
X130254819Y-85158928D02*
X130207200Y-85016071D01*
X130207200Y-85016071D02*
X130111961Y-84920833D01*
X130111961Y-84920833D02*
X130016723Y-84873214D01*
X130016723Y-84873214D02*
X129826247Y-84825595D01*
X129826247Y-84825595D02*
X129683390Y-84825595D01*
X129683390Y-84825595D02*
X129492914Y-84873214D01*
X129492914Y-84873214D02*
X129397676Y-84920833D01*
X129397676Y-84920833D02*
X129302438Y-85016071D01*
X129302438Y-85016071D02*
X129254819Y-85158928D01*
X129254819Y-85158928D02*
X129254819Y-85254166D01*
X129254819Y-85254166D02*
X129302438Y-85397023D01*
X129302438Y-85397023D02*
X129350057Y-85444642D01*
X129254819Y-85777976D02*
X129254819Y-86397023D01*
X129254819Y-86397023D02*
X129635771Y-86063690D01*
X129635771Y-86063690D02*
X129635771Y-86206547D01*
X129635771Y-86206547D02*
X129683390Y-86301785D01*
X129683390Y-86301785D02*
X129731009Y-86349404D01*
X129731009Y-86349404D02*
X129826247Y-86397023D01*
X129826247Y-86397023D02*
X130064342Y-86397023D01*
X130064342Y-86397023D02*
X130159580Y-86349404D01*
X130159580Y-86349404D02*
X130207200Y-86301785D01*
X130207200Y-86301785D02*
X130254819Y-86206547D01*
X130254819Y-86206547D02*
X130254819Y-85920833D01*
X130254819Y-85920833D02*
X130207200Y-85825595D01*
X130207200Y-85825595D02*
X130159580Y-85777976D01*
X130254819Y-86873214D02*
X130254819Y-87063690D01*
X130254819Y-87063690D02*
X130207200Y-87158928D01*
X130207200Y-87158928D02*
X130159580Y-87206547D01*
X130159580Y-87206547D02*
X130016723Y-87301785D01*
X130016723Y-87301785D02*
X129826247Y-87349404D01*
X129826247Y-87349404D02*
X129445295Y-87349404D01*
X129445295Y-87349404D02*
X129350057Y-87301785D01*
X129350057Y-87301785D02*
X129302438Y-87254166D01*
X129302438Y-87254166D02*
X129254819Y-87158928D01*
X129254819Y-87158928D02*
X129254819Y-86968452D01*
X129254819Y-86968452D02*
X129302438Y-86873214D01*
X129302438Y-86873214D02*
X129350057Y-86825595D01*
X129350057Y-86825595D02*
X129445295Y-86777976D01*
X129445295Y-86777976D02*
X129683390Y-86777976D01*
X129683390Y-86777976D02*
X129778628Y-86825595D01*
X129778628Y-86825595D02*
X129826247Y-86873214D01*
X129826247Y-86873214D02*
X129873866Y-86968452D01*
X129873866Y-86968452D02*
X129873866Y-87158928D01*
X129873866Y-87158928D02*
X129826247Y-87254166D01*
X129826247Y-87254166D02*
X129778628Y-87301785D01*
X129778628Y-87301785D02*
X129683390Y-87349404D01*
X111209580Y-88033333D02*
X111257200Y-87985714D01*
X111257200Y-87985714D02*
X111304819Y-87842857D01*
X111304819Y-87842857D02*
X111304819Y-87747619D01*
X111304819Y-87747619D02*
X111257200Y-87604762D01*
X111257200Y-87604762D02*
X111161961Y-87509524D01*
X111161961Y-87509524D02*
X111066723Y-87461905D01*
X111066723Y-87461905D02*
X110876247Y-87414286D01*
X110876247Y-87414286D02*
X110733390Y-87414286D01*
X110733390Y-87414286D02*
X110542914Y-87461905D01*
X110542914Y-87461905D02*
X110447676Y-87509524D01*
X110447676Y-87509524D02*
X110352438Y-87604762D01*
X110352438Y-87604762D02*
X110304819Y-87747619D01*
X110304819Y-87747619D02*
X110304819Y-87842857D01*
X110304819Y-87842857D02*
X110352438Y-87985714D01*
X110352438Y-87985714D02*
X110400057Y-88033333D01*
X110400057Y-88414286D02*
X110352438Y-88461905D01*
X110352438Y-88461905D02*
X110304819Y-88557143D01*
X110304819Y-88557143D02*
X110304819Y-88795238D01*
X110304819Y-88795238D02*
X110352438Y-88890476D01*
X110352438Y-88890476D02*
X110400057Y-88938095D01*
X110400057Y-88938095D02*
X110495295Y-88985714D01*
X110495295Y-88985714D02*
X110590533Y-88985714D01*
X110590533Y-88985714D02*
X110733390Y-88938095D01*
X110733390Y-88938095D02*
X111304819Y-88366667D01*
X111304819Y-88366667D02*
X111304819Y-88985714D01*
D13*
X122937500Y-69690000D02*
X123737500Y-69690000D01*
X122937500Y-72810000D02*
X123737500Y-72810000D01*
X124537500Y-69690000D02*
X123737500Y-69690000D01*
X124537500Y-72810000D02*
X123737500Y-72810000D01*
X122677500Y-73090000D02*
X122197500Y-73090000D01*
X122437500Y-72760000D01*
X122677500Y-73090000D01*
G36*
X122677500Y-73090000D02*
G01*
X122197500Y-73090000D01*
X122437500Y-72760000D01*
X122677500Y-73090000D01*
G37*
X161727064Y-88965000D02*
X161272936Y-88965000D01*
X161727064Y-90435000D02*
X161272936Y-90435000D01*
X165065000Y-92961252D02*
X165065000Y-92438748D01*
X166535000Y-92961252D02*
X166535000Y-92438748D01*
X128661252Y-95465000D02*
X128138748Y-95465000D01*
X128661252Y-96935000D02*
X128138748Y-96935000D01*
X171865000Y-95061252D02*
X171865000Y-94538748D01*
X173335000Y-95061252D02*
X173335000Y-94538748D01*
X161727064Y-93565000D02*
X161272936Y-93565000D01*
X161727064Y-95035000D02*
X161272936Y-95035000D01*
X119565000Y-71561252D02*
X119565000Y-71038748D01*
X121035000Y-71561252D02*
X121035000Y-71038748D01*
X110580000Y-92925000D02*
X110580000Y-95925000D01*
X113800000Y-92925000D02*
X113800000Y-95925000D01*
X113480000Y-96925000D02*
X113480000Y-96445000D01*
X113960000Y-96445000D01*
X113480000Y-96925000D01*
G36*
X113480000Y-96925000D02*
G01*
X113480000Y-96445000D01*
X113960000Y-96445000D01*
X113480000Y-96925000D01*
G37*
X110038748Y-97165000D02*
X110561252Y-97165000D01*
X110038748Y-98635000D02*
X110561252Y-98635000D01*
X152790000Y-85471267D02*
X152790000Y-85178733D01*
X153810000Y-85471267D02*
X153810000Y-85178733D01*
X130465000Y-109127064D02*
X130465000Y-108672936D01*
X131935000Y-109127064D02*
X131935000Y-108672936D01*
D14*
G36*
X189096826Y-77005482D02*
G01*
X189096826Y-78610386D01*
X188745067Y-78610386D01*
X188393307Y-78610386D01*
X188393307Y-78120691D01*
X188393307Y-77630996D01*
X187957271Y-77624828D01*
X187918323Y-77624266D01*
X187798028Y-77622274D01*
X187701844Y-77620066D01*
X187625716Y-77617359D01*
X187565589Y-77613875D01*
X187517407Y-77609333D01*
X187477115Y-77603451D01*
X187440659Y-77595950D01*
X187403982Y-77586548D01*
X187333070Y-77565199D01*
X187162348Y-77495431D01*
X187012382Y-77405677D01*
X186883781Y-77296509D01*
X186777152Y-77168500D01*
X186693101Y-77022225D01*
X186632237Y-76858254D01*
X186614838Y-76775313D01*
X186602896Y-76668086D01*
X186597838Y-76550483D01*
X186598305Y-76521812D01*
X187287129Y-76521812D01*
X187288596Y-76595798D01*
X187293551Y-76652210D01*
X187303278Y-76696540D01*
X187319070Y-76737517D01*
X187339041Y-76775652D01*
X187403332Y-76862050D01*
X187485206Y-76937083D01*
X187576427Y-76992591D01*
X187667802Y-77034795D01*
X188030554Y-77039176D01*
X188393307Y-77043556D01*
X188393307Y-76521614D01*
X188393307Y-75999671D01*
X188023226Y-76004250D01*
X187653145Y-76008828D01*
X187574875Y-76050051D01*
X187473584Y-76116201D01*
X187388571Y-76199104D01*
X187327334Y-76292559D01*
X187313597Y-76321802D01*
X187299430Y-76360004D01*
X187291370Y-76399953D01*
X187287806Y-76450829D01*
X187287129Y-76521812D01*
X186598305Y-76521812D01*
X186599771Y-76431871D01*
X186608802Y-76321616D01*
X186625039Y-76229083D01*
X186629620Y-76211228D01*
X186686822Y-76051362D01*
X186768978Y-75902240D01*
X186873118Y-75767215D01*
X186996275Y-75649642D01*
X187135480Y-75552875D01*
X187287764Y-75480268D01*
X187330916Y-75464648D01*
X187376597Y-75450074D01*
X187423548Y-75437871D01*
X187474571Y-75427833D01*
X187532472Y-75419752D01*
X187600056Y-75413421D01*
X187680125Y-75408633D01*
X187775485Y-75405180D01*
X187888939Y-75402855D01*
X188023292Y-75401451D01*
X188181349Y-75400761D01*
X188365913Y-75400577D01*
X189096826Y-75400577D01*
X189096826Y-76521614D01*
X189096826Y-77005482D01*
G37*
G36*
X190459896Y-77342423D02*
G01*
X190459896Y-77978769D01*
X190983872Y-77983124D01*
X191030944Y-77983516D01*
X191159889Y-77984662D01*
X191263601Y-77985846D01*
X191345170Y-77987276D01*
X191407689Y-77989161D01*
X191454247Y-77991709D01*
X191487936Y-77995128D01*
X191511846Y-77999628D01*
X191529069Y-78005415D01*
X191542694Y-78012700D01*
X191555814Y-78021690D01*
X191577841Y-78040211D01*
X191620128Y-78092893D01*
X191650258Y-78153676D01*
X191661743Y-78210967D01*
X191652694Y-78259127D01*
X191627608Y-78317555D01*
X191592754Y-78372327D01*
X191554432Y-78411663D01*
X191543367Y-78419057D01*
X191529557Y-78425609D01*
X191510852Y-78430844D01*
X191484201Y-78434947D01*
X191446551Y-78438104D01*
X191394850Y-78440500D01*
X191326045Y-78442321D01*
X191237085Y-78443753D01*
X191124916Y-78444980D01*
X190986487Y-78446189D01*
X190459896Y-78450544D01*
X190459896Y-79079562D01*
X190459896Y-79708580D01*
X190985035Y-79712772D01*
X191510173Y-79716965D01*
X191562664Y-79757018D01*
X191585696Y-79776973D01*
X191630702Y-79838598D01*
X191652979Y-79908315D01*
X191653080Y-79980213D01*
X191631559Y-80048378D01*
X191588970Y-80106900D01*
X191525866Y-80149867D01*
X191521030Y-80152016D01*
X191502148Y-80159214D01*
X191480103Y-80164959D01*
X191451625Y-80169414D01*
X191413446Y-80172746D01*
X191362298Y-80175119D01*
X191294910Y-80176698D01*
X191208016Y-80177649D01*
X191098345Y-80178138D01*
X190962631Y-80178328D01*
X190461384Y-80178650D01*
X190456976Y-80790565D01*
X190452568Y-81402481D01*
X190413300Y-81509982D01*
X190385341Y-81580599D01*
X190328567Y-81692289D01*
X190257749Y-81793094D01*
X190166139Y-81893479D01*
X190075117Y-81976873D01*
X189982393Y-82044358D01*
X189880835Y-82099259D01*
X189760205Y-82147996D01*
X189631795Y-82193941D01*
X188997894Y-82198457D01*
X188363993Y-82202972D01*
X188363993Y-82720600D01*
X188363818Y-82823533D01*
X188363184Y-82939523D01*
X188362142Y-83044659D01*
X188360751Y-83135249D01*
X188359071Y-83207601D01*
X188357159Y-83258024D01*
X188355074Y-83282826D01*
X188351310Y-83297381D01*
X188320466Y-83355642D01*
X188270679Y-83406294D01*
X188210098Y-83440475D01*
X188181101Y-83449211D01*
X188100296Y-83455421D01*
X188024967Y-83436160D01*
X187960653Y-83393496D01*
X187912893Y-83329497D01*
X187909335Y-83322469D01*
X187901295Y-83305319D01*
X187894895Y-83287298D01*
X187889987Y-83265246D01*
X187886424Y-83236004D01*
X187884057Y-83196410D01*
X187882739Y-83143305D01*
X187882322Y-83073530D01*
X187882660Y-82983922D01*
X187883603Y-82871324D01*
X187885006Y-82732573D01*
X187890504Y-82201269D01*
X187262505Y-82201269D01*
X186634507Y-82201269D01*
X186634507Y-82744150D01*
X186634463Y-82851344D01*
X186634195Y-82973071D01*
X186633554Y-83070820D01*
X186632397Y-83147660D01*
X186630580Y-83206659D01*
X186627961Y-83250884D01*
X186624396Y-83283403D01*
X186619741Y-83307285D01*
X186613853Y-83325598D01*
X186606588Y-83341409D01*
X186599470Y-83354149D01*
X186551718Y-83408082D01*
X186490192Y-83441855D01*
X186420881Y-83455782D01*
X186349776Y-83450176D01*
X186282867Y-83425353D01*
X186226141Y-83381626D01*
X186185590Y-83319311D01*
X186181145Y-83305171D01*
X186176444Y-83277428D01*
X186172717Y-83236282D01*
X186169873Y-83179082D01*
X186167820Y-83103175D01*
X186166466Y-83005911D01*
X186165721Y-82884639D01*
X186165494Y-82736708D01*
X186165494Y-82201269D01*
X185543089Y-82201269D01*
X184920685Y-82201269D01*
X184916517Y-82757168D01*
X184916146Y-82806192D01*
X184915043Y-82939811D01*
X184913878Y-83048030D01*
X184912477Y-83133808D01*
X184910668Y-83200104D01*
X184908275Y-83249876D01*
X184905127Y-83286082D01*
X184901049Y-83311682D01*
X184895868Y-83329634D01*
X184889410Y-83342896D01*
X184881503Y-83354427D01*
X184838805Y-83398841D01*
X184767237Y-83438775D01*
X184685170Y-83452723D01*
X184623877Y-83445072D01*
X184548997Y-83411686D01*
X184488837Y-83354427D01*
X184486117Y-83350715D01*
X184478697Y-83338948D01*
X184472670Y-83324496D01*
X184467864Y-83304400D01*
X184464105Y-83275701D01*
X184461219Y-83235440D01*
X184459034Y-83180660D01*
X184457375Y-83108401D01*
X184456069Y-83015706D01*
X184454944Y-82899614D01*
X184453824Y-82757168D01*
X184449656Y-82201269D01*
X183863275Y-82201269D01*
X183797721Y-82201239D01*
X183652633Y-82200861D01*
X183532537Y-82199972D01*
X183434346Y-82198469D01*
X183354973Y-82196250D01*
X183291331Y-82193214D01*
X183240334Y-82189258D01*
X183198894Y-82184280D01*
X183163924Y-82178180D01*
X183090569Y-82160521D01*
X182927967Y-82100739D01*
X182779675Y-82016634D01*
X182647874Y-81910144D01*
X182534748Y-81783210D01*
X182442481Y-81637770D01*
X182373256Y-81475764D01*
X182333874Y-81358511D01*
X182328627Y-80768580D01*
X182323379Y-80178650D01*
X181825616Y-80178650D01*
X181743144Y-80178623D01*
X181614368Y-80178256D01*
X181510116Y-80177082D01*
X181427300Y-80174639D01*
X181362831Y-80170464D01*
X181313621Y-80164094D01*
X181276581Y-80155064D01*
X181248622Y-80142913D01*
X181226656Y-80127178D01*
X181207594Y-80107394D01*
X181188347Y-80083099D01*
X181173854Y-80061359D01*
X181154880Y-80009055D01*
X182795201Y-80009055D01*
X182795359Y-80208647D01*
X182795752Y-80387753D01*
X182796417Y-80547564D01*
X182797386Y-80689271D01*
X182798696Y-80814065D01*
X182800380Y-80923137D01*
X182802474Y-81017679D01*
X182805012Y-81098880D01*
X182808029Y-81167933D01*
X182811559Y-81226029D01*
X182815638Y-81274357D01*
X182820300Y-81314110D01*
X182825580Y-81346479D01*
X182831512Y-81372654D01*
X182838132Y-81393827D01*
X182845473Y-81411188D01*
X182853571Y-81425929D01*
X182862461Y-81439241D01*
X182872176Y-81452315D01*
X182882752Y-81466341D01*
X182894224Y-81482511D01*
X182906540Y-81500029D01*
X182988934Y-81592173D01*
X183086103Y-81665840D01*
X183191156Y-81715619D01*
X183283822Y-81746913D01*
X186406510Y-81746125D01*
X186685120Y-81746049D01*
X187020346Y-81745936D01*
X187328361Y-81745797D01*
X187610349Y-81745623D01*
X187867496Y-81745403D01*
X188100987Y-81745128D01*
X188312007Y-81744787D01*
X188501742Y-81744372D01*
X188671376Y-81743871D01*
X188822095Y-81743275D01*
X188955085Y-81742574D01*
X189071530Y-81741759D01*
X189172615Y-81740819D01*
X189259526Y-81739744D01*
X189333449Y-81738526D01*
X189395567Y-81737153D01*
X189447067Y-81735616D01*
X189489134Y-81733905D01*
X189522953Y-81732010D01*
X189549709Y-81729922D01*
X189570588Y-81727630D01*
X189586774Y-81725124D01*
X189599453Y-81722395D01*
X189609810Y-81719433D01*
X189706603Y-81679035D01*
X189812310Y-81607948D01*
X189898445Y-81516349D01*
X189962933Y-81406544D01*
X190003702Y-81280842D01*
X190004705Y-81275584D01*
X190009762Y-81231026D01*
X190014035Y-81162959D01*
X190017328Y-81076276D01*
X190019447Y-80975874D01*
X190020196Y-80866647D01*
X190020196Y-80530120D01*
X188638806Y-80531070D01*
X188395872Y-80531387D01*
X188163060Y-80532020D01*
X187952540Y-80532951D01*
X187765191Y-80534171D01*
X187601889Y-80535670D01*
X187463512Y-80537438D01*
X187350937Y-80539467D01*
X187265042Y-80541746D01*
X187206705Y-80544266D01*
X187176803Y-80547018D01*
X187152949Y-80551709D01*
X187102143Y-80564452D01*
X187055914Y-80581740D01*
X187010117Y-80606341D01*
X186960609Y-80641024D01*
X186903245Y-80688558D01*
X186833881Y-80751712D01*
X186748372Y-80833255D01*
X186662891Y-80914525D01*
X186584340Y-80985477D01*
X186517742Y-81040160D01*
X186459031Y-81081405D01*
X186404141Y-81112045D01*
X186349007Y-81134911D01*
X186289563Y-81152835D01*
X186254802Y-81158295D01*
X186192861Y-81163343D01*
X186108719Y-81167621D01*
X186006032Y-81171130D01*
X185888457Y-81173867D01*
X185759652Y-81175834D01*
X185623272Y-81177030D01*
X185482976Y-81177454D01*
X185342420Y-81177106D01*
X185205260Y-81175985D01*
X185075154Y-81174091D01*
X184955759Y-81171424D01*
X184850731Y-81167984D01*
X184763728Y-81163769D01*
X184698406Y-81158779D01*
X184658423Y-81153015D01*
X184612657Y-81141091D01*
X184523545Y-81109069D01*
X184440897Y-81064774D01*
X184357476Y-81003952D01*
X184266045Y-80922348D01*
X184131577Y-80793975D01*
X184038610Y-80817792D01*
X183934228Y-80833428D01*
X183819273Y-80825023D01*
X183711275Y-80790511D01*
X183613846Y-80731597D01*
X183530599Y-80649983D01*
X183465145Y-80547373D01*
X183452703Y-80521543D01*
X183433815Y-80476207D01*
X183423154Y-80434503D01*
X183418434Y-80385460D01*
X183417369Y-80318107D01*
X183417374Y-80317429D01*
X183776457Y-80317429D01*
X183782001Y-80358459D01*
X183808523Y-80413225D01*
X183851866Y-80450897D01*
X183907426Y-80469823D01*
X183961836Y-80463636D01*
X184012091Y-80428940D01*
X184039989Y-80392194D01*
X184057193Y-80333883D01*
X184047275Y-80274453D01*
X184010284Y-80219685D01*
X183979233Y-80192424D01*
X183949990Y-80181194D01*
X183911351Y-80183662D01*
X183868414Y-80198529D01*
X183822718Y-80231563D01*
X183789370Y-80273870D01*
X183776457Y-80317429D01*
X183417374Y-80317429D01*
X183417711Y-80271179D01*
X183420563Y-80219212D01*
X183428287Y-80179160D01*
X183443205Y-80140638D01*
X183467639Y-80093260D01*
X183475703Y-80078862D01*
X183548210Y-79979837D01*
X183635720Y-79903661D01*
X183734521Y-79850947D01*
X183840900Y-79822311D01*
X183951146Y-79818366D01*
X184061545Y-79839727D01*
X184168386Y-79887009D01*
X184267955Y-79960825D01*
X184329421Y-80029766D01*
X184385971Y-80129944D01*
X184418330Y-80240503D01*
X184423796Y-80333883D01*
X184425105Y-80356246D01*
X184404904Y-80471976D01*
X184388406Y-80527044D01*
X184500993Y-80634988D01*
X184532512Y-80665658D01*
X184566353Y-80698797D01*
X184596386Y-80726423D01*
X184625372Y-80749034D01*
X184656069Y-80767129D01*
X184691239Y-80781204D01*
X184733640Y-80791759D01*
X184786032Y-80799291D01*
X184851175Y-80804298D01*
X184931829Y-80807277D01*
X185030754Y-80808728D01*
X185150709Y-80809148D01*
X185294454Y-80809035D01*
X185464750Y-80808886D01*
X185577802Y-80808833D01*
X185731808Y-80808510D01*
X185860364Y-80807839D01*
X185965823Y-80806758D01*
X186050539Y-80805204D01*
X186116867Y-80803114D01*
X186167161Y-80800426D01*
X186203774Y-80797078D01*
X186229062Y-80793007D01*
X186245377Y-80788150D01*
X186247471Y-80787188D01*
X186275432Y-80768510D01*
X186319601Y-80733154D01*
X186375868Y-80684650D01*
X186440124Y-80626527D01*
X186508259Y-80562317D01*
X186540193Y-80531779D01*
X186633324Y-80445531D01*
X186713021Y-80377249D01*
X186783723Y-80323757D01*
X186849871Y-80281877D01*
X186915906Y-80248432D01*
X186986267Y-80220244D01*
X187081535Y-80185978D01*
X188550866Y-80181973D01*
X190020196Y-80177969D01*
X190020196Y-79965544D01*
X190020196Y-79753119D01*
X188353001Y-79757027D01*
X186685805Y-79760935D01*
X186607337Y-79802258D01*
X186591838Y-79811412D01*
X186544555Y-79845241D01*
X186484064Y-79894074D01*
X186415379Y-79953768D01*
X186343517Y-80020180D01*
X186331400Y-80031712D01*
X186249002Y-80109065D01*
X186182124Y-80169009D01*
X186126364Y-80214683D01*
X186077318Y-80249223D01*
X186030585Y-80275767D01*
X185981761Y-80297453D01*
X185926443Y-80317419D01*
X185856374Y-80335944D01*
X185748250Y-80351488D01*
X185634138Y-80356026D01*
X185524965Y-80349262D01*
X185431656Y-80330897D01*
X185422345Y-80328124D01*
X185380629Y-80315192D01*
X185342720Y-80301758D01*
X185306577Y-80286136D01*
X185270154Y-80266640D01*
X185231409Y-80241583D01*
X185188296Y-80209279D01*
X185138773Y-80168042D01*
X185080795Y-80116185D01*
X185012319Y-80052023D01*
X184931300Y-79973868D01*
X184835696Y-79880035D01*
X184723461Y-79768837D01*
X184592552Y-79638587D01*
X184523362Y-79569508D01*
X184416881Y-79462482D01*
X184317055Y-79361288D01*
X184225915Y-79268035D01*
X184145493Y-79184828D01*
X184077820Y-79113774D01*
X184024927Y-79056980D01*
X183988846Y-79016553D01*
X183971607Y-78994599D01*
X183943108Y-78939087D01*
X183909989Y-78851258D01*
X183887404Y-78761683D01*
X183879054Y-78682829D01*
X183879054Y-78611317D01*
X183706838Y-78607187D01*
X183534622Y-78603058D01*
X183534622Y-77005482D01*
X183534622Y-75407905D01*
X183882718Y-75403976D01*
X184230814Y-75400046D01*
X184230814Y-76052533D01*
X184230814Y-76705020D01*
X184846394Y-76705020D01*
X185461974Y-76705020D01*
X185461974Y-76052798D01*
X185461974Y-75400577D01*
X185821062Y-75400577D01*
X186180150Y-75400577D01*
X186180150Y-77005482D01*
X186180150Y-78610386D01*
X185821062Y-78610386D01*
X185461974Y-78610386D01*
X185461974Y-77958165D01*
X185461974Y-77305943D01*
X184846394Y-77305943D01*
X184230814Y-77305943D01*
X184231423Y-77983814D01*
X184231475Y-78033750D01*
X184231772Y-78186859D01*
X184232321Y-78314173D01*
X184233218Y-78418414D01*
X184234556Y-78502307D01*
X184236428Y-78568573D01*
X184238927Y-78619936D01*
X184242148Y-78659120D01*
X184246184Y-78688846D01*
X184251127Y-78711839D01*
X184257072Y-78730820D01*
X184261346Y-78741132D01*
X184272293Y-78760995D01*
X184289380Y-78785566D01*
X184314240Y-78816609D01*
X184348511Y-78855890D01*
X184393828Y-78905173D01*
X184451827Y-78966224D01*
X184524144Y-79040807D01*
X184612415Y-79130688D01*
X184718275Y-79237632D01*
X184843361Y-79363404D01*
X184905828Y-79426036D01*
X185033142Y-79553059D01*
X185141927Y-79660578D01*
X185233398Y-79749746D01*
X185308772Y-79821714D01*
X185369263Y-79877634D01*
X185416088Y-79918658D01*
X185450461Y-79945937D01*
X185473598Y-79960624D01*
X185485281Y-79965959D01*
X185566173Y-79988720D01*
X185658260Y-79996164D01*
X185749654Y-79988159D01*
X185828466Y-79964572D01*
X185842192Y-79957143D01*
X185886372Y-79926276D01*
X185945696Y-79878373D01*
X186016646Y-79816350D01*
X186095704Y-79743122D01*
X186099565Y-79739456D01*
X186182284Y-79662416D01*
X186250034Y-79602988D01*
X186307541Y-79557417D01*
X186359536Y-79521944D01*
X186410747Y-79492814D01*
X186433852Y-79480724D01*
X186461814Y-79466217D01*
X186488429Y-79453292D01*
X186515401Y-79441856D01*
X186544433Y-79431820D01*
X186577228Y-79423091D01*
X186615489Y-79415579D01*
X186660920Y-79409193D01*
X186715225Y-79403841D01*
X186780106Y-79399433D01*
X186857267Y-79395876D01*
X186948411Y-79393081D01*
X187055241Y-79390956D01*
X187179462Y-79389410D01*
X187322776Y-79388352D01*
X187486886Y-79387691D01*
X187673497Y-79387335D01*
X187884310Y-79387193D01*
X188121030Y-79387175D01*
X188385360Y-79387190D01*
X190020196Y-79387190D01*
X190020196Y-77285264D01*
X190020188Y-77030003D01*
X190020146Y-76764283D01*
X190020053Y-76525116D01*
X190019890Y-76311029D01*
X190019638Y-76120548D01*
X190019279Y-75952202D01*
X190018794Y-75804516D01*
X190018164Y-75676019D01*
X190017371Y-75565238D01*
X190016397Y-75470698D01*
X190015223Y-75390929D01*
X190013830Y-75324456D01*
X190012199Y-75269808D01*
X190010313Y-75225510D01*
X190008152Y-75190091D01*
X190005699Y-75162077D01*
X190002934Y-75139995D01*
X189999838Y-75122374D01*
X189996394Y-75107739D01*
X189992583Y-75094618D01*
X189952105Y-74990104D01*
X189894299Y-74895239D01*
X189815769Y-74809117D01*
X189748144Y-74754456D01*
X189632144Y-74690766D01*
X189504921Y-74652778D01*
X189494711Y-74651716D01*
X189453420Y-74649896D01*
X189383118Y-74648245D01*
X189284002Y-74646764D01*
X189156267Y-74645454D01*
X189000109Y-74644316D01*
X188815724Y-74643349D01*
X188603307Y-74642555D01*
X188363055Y-74641935D01*
X188095163Y-74641489D01*
X187799827Y-74641217D01*
X187477243Y-74641121D01*
X187127607Y-74641201D01*
X186751114Y-74641458D01*
X186347961Y-74641892D01*
X183270802Y-74645759D01*
X183171633Y-74692581D01*
X183094747Y-74735865D01*
X182995688Y-74813347D01*
X182911276Y-74905072D01*
X182848843Y-75003967D01*
X182801789Y-75100115D01*
X182797483Y-78163358D01*
X182797266Y-78314596D01*
X182796737Y-78662116D01*
X182796236Y-78982005D01*
X182795797Y-79275452D01*
X182795455Y-79543648D01*
X182795245Y-79787786D01*
X182795201Y-80009055D01*
X181154880Y-80009055D01*
X181148570Y-79991659D01*
X181147267Y-79917779D01*
X181168327Y-79846463D01*
X181210131Y-79784454D01*
X181271061Y-79738494D01*
X181277858Y-79735133D01*
X181295128Y-79727983D01*
X181315750Y-79722306D01*
X181342968Y-79717933D01*
X181380028Y-79714696D01*
X181430175Y-79712425D01*
X181496654Y-79710952D01*
X181582711Y-79710109D01*
X181691590Y-79709726D01*
X181826537Y-79709636D01*
X182325447Y-79709636D01*
X182325447Y-79080098D01*
X182325447Y-78450560D01*
X181806185Y-78446198D01*
X181686243Y-78445144D01*
X181571670Y-78443920D01*
X181480691Y-78442514D01*
X181410236Y-78440735D01*
X181357233Y-78438394D01*
X181318609Y-78435301D01*
X181291293Y-78431267D01*
X181272213Y-78426101D01*
X181258297Y-78419614D01*
X181246473Y-78411616D01*
X181233791Y-78401688D01*
X181176111Y-78338539D01*
X181145889Y-78267602D01*
X181143743Y-78191300D01*
X181170289Y-78112060D01*
X181173038Y-78106820D01*
X181213137Y-78051868D01*
X181269609Y-78013127D01*
X181285038Y-78005605D01*
X181303352Y-77998186D01*
X181324512Y-77992370D01*
X181351827Y-77987960D01*
X181388604Y-77984763D01*
X181438152Y-77982583D01*
X181503780Y-77981227D01*
X181588797Y-77980499D01*
X181696509Y-77980205D01*
X181830226Y-77980150D01*
X182325447Y-77980150D01*
X182325447Y-77342585D01*
X182325447Y-76705020D01*
X181830785Y-76704698D01*
X181824309Y-76704694D01*
X181690404Y-76704478D01*
X181582395Y-76703932D01*
X181497007Y-76702894D01*
X181430965Y-76701200D01*
X181380996Y-76698689D01*
X181343823Y-76695198D01*
X181316173Y-76690565D01*
X181294772Y-76684629D01*
X181276344Y-76677226D01*
X181215404Y-76639501D01*
X181168458Y-76581371D01*
X181144594Y-76505649D01*
X181143109Y-76456278D01*
X181162701Y-76382600D01*
X181205876Y-76318313D01*
X181269168Y-76269976D01*
X181286153Y-76261290D01*
X181303880Y-76253847D01*
X181324544Y-76248030D01*
X181351443Y-76243639D01*
X181387873Y-76240472D01*
X181437132Y-76238331D01*
X181502517Y-76237014D01*
X181587323Y-76236321D01*
X181694849Y-76236052D01*
X181828392Y-76236007D01*
X182323379Y-76236007D01*
X182328757Y-75646076D01*
X182329541Y-75561531D01*
X182330907Y-75428714D01*
X182332346Y-75320319D01*
X182334037Y-75233188D01*
X182336156Y-75164166D01*
X182338884Y-75110096D01*
X182342397Y-75067821D01*
X182346875Y-75034185D01*
X182352496Y-75006032D01*
X182359438Y-74980206D01*
X182367879Y-74953549D01*
X182405451Y-74854574D01*
X182489454Y-74695849D01*
X182596034Y-74554320D01*
X182723296Y-74431982D01*
X182869347Y-74330834D01*
X183032292Y-74252872D01*
X183153549Y-74206218D01*
X183798442Y-74198810D01*
X184443335Y-74191402D01*
X184450664Y-73639162D01*
X184451086Y-73607469D01*
X184452985Y-73471142D01*
X184454791Y-73360543D01*
X184456692Y-73272702D01*
X184458879Y-73204648D01*
X184461542Y-73153413D01*
X184464872Y-73116026D01*
X184469058Y-73089517D01*
X184474290Y-73070918D01*
X184480758Y-73057258D01*
X184488653Y-73045567D01*
X184495802Y-73036191D01*
X184554703Y-72978179D01*
X184620501Y-72947333D01*
X184696771Y-72941872D01*
X184763058Y-72954265D01*
X184826612Y-72987937D01*
X184882130Y-73046478D01*
X184884184Y-73049271D01*
X184891569Y-73060906D01*
X184897578Y-73075270D01*
X184902380Y-73095314D01*
X184906145Y-73123993D01*
X184909045Y-73164262D01*
X184911249Y-73219074D01*
X184912928Y-73291383D01*
X184914252Y-73384143D01*
X184915392Y-73500308D01*
X184916517Y-73642831D01*
X184920685Y-74198730D01*
X185543089Y-74198730D01*
X186165494Y-74198730D01*
X186165494Y-73666868D01*
X186165495Y-73630855D01*
X186165574Y-73498454D01*
X186165903Y-73391447D01*
X186166656Y-73306675D01*
X186168007Y-73240978D01*
X186170132Y-73191197D01*
X186173205Y-73154173D01*
X186177401Y-73126748D01*
X186182894Y-73105761D01*
X186189859Y-73088053D01*
X186198471Y-73070467D01*
X186210060Y-73049267D01*
X186255645Y-72991345D01*
X186313009Y-72957087D01*
X186388400Y-72942276D01*
X186466606Y-72947005D01*
X186539125Y-72976969D01*
X186597393Y-73032401D01*
X186598825Y-73034343D01*
X186606207Y-73045947D01*
X186612256Y-73060413D01*
X186617154Y-73080680D01*
X186621083Y-73109687D01*
X186624226Y-73150372D01*
X186626764Y-73205675D01*
X186628879Y-73278534D01*
X186630753Y-73371888D01*
X186632569Y-73488677D01*
X186634507Y-73631838D01*
X186641835Y-74191402D01*
X187261140Y-74191402D01*
X187880445Y-74191402D01*
X187884048Y-73639175D01*
X187884323Y-73597454D01*
X187885295Y-73463028D01*
X187886349Y-73354130D01*
X187887657Y-73267791D01*
X187889391Y-73201041D01*
X187891723Y-73150909D01*
X187894823Y-73114426D01*
X187898863Y-73088621D01*
X187904016Y-73070525D01*
X187910452Y-73057168D01*
X187918343Y-73045580D01*
X187919082Y-73044588D01*
X187980782Y-72985057D01*
X188056233Y-72950379D01*
X188141087Y-72942564D01*
X188209237Y-72954986D01*
X188271562Y-72988321D01*
X188326446Y-73046478D01*
X188328442Y-73049190D01*
X188335842Y-73060824D01*
X188341863Y-73075166D01*
X188346674Y-73095172D01*
X188350447Y-73123797D01*
X188353351Y-73163999D01*
X188355559Y-73218732D01*
X188357240Y-73290954D01*
X188358566Y-73383621D01*
X188359706Y-73499688D01*
X188360831Y-73642111D01*
X188364997Y-74197290D01*
X188998396Y-74202094D01*
X189631795Y-74206897D01*
X189737985Y-74245887D01*
X189766775Y-74256719D01*
X189895745Y-74313679D01*
X190005560Y-74378714D01*
X190104613Y-74456647D01*
X190161421Y-74510043D01*
X190267924Y-74631622D01*
X190352670Y-74764490D01*
X190420856Y-74916202D01*
X190425419Y-74928704D01*
X190432152Y-74950113D01*
X190437677Y-74974147D01*
X190442147Y-75003771D01*
X190445712Y-75041951D01*
X190448522Y-75091653D01*
X190450731Y-75155841D01*
X190452487Y-75237480D01*
X190453943Y-75339537D01*
X190455250Y-75464976D01*
X190456558Y-75616763D01*
X190461632Y-76236007D01*
X190962755Y-76236329D01*
X191000854Y-76236359D01*
X191129441Y-76236611D01*
X191232836Y-76237204D01*
X191314310Y-76238304D01*
X191377131Y-76240075D01*
X191424568Y-76242683D01*
X191459891Y-76246294D01*
X191486369Y-76251071D01*
X191507271Y-76257182D01*
X191525866Y-76264790D01*
X191552080Y-76278817D01*
X191607500Y-76328355D01*
X191642195Y-76391215D01*
X191655613Y-76461485D01*
X191647200Y-76533253D01*
X191616402Y-76600608D01*
X191562664Y-76657638D01*
X191510173Y-76697692D01*
X190985035Y-76701884D01*
X190459896Y-76706076D01*
X190459896Y-77285264D01*
X190459896Y-77342423D01*
G37*
D13*
X169565000Y-95061252D02*
X169565000Y-94538748D01*
X171035000Y-95061252D02*
X171035000Y-94538748D01*
X167265000Y-92961252D02*
X167265000Y-92438748D01*
X168735000Y-92961252D02*
X168735000Y-92438748D01*
X161727064Y-91265000D02*
X161272936Y-91265000D01*
X161727064Y-92735000D02*
X161272936Y-92735000D01*
X134527064Y-106665000D02*
X134072936Y-106665000D01*
X134527064Y-108135000D02*
X134072936Y-108135000D01*
X154490000Y-85471267D02*
X154490000Y-85178733D01*
X155510000Y-85471267D02*
X155510000Y-85178733D01*
D15*
X116700000Y-101380000D02*
X115400000Y-101380000D01*
X117050000Y-98340000D02*
X117150000Y-98340000D01*
X117050000Y-101260000D02*
X117050000Y-98340000D01*
X117150000Y-98340000D02*
X117150000Y-101260000D01*
X117150000Y-101260000D02*
X117050000Y-101260000D01*
D13*
X169465000Y-89188748D02*
X169465000Y-89711252D01*
X170935000Y-89188748D02*
X170935000Y-89711252D01*
X143265000Y-108372936D02*
X143265000Y-108827064D01*
X144735000Y-108372936D02*
X144735000Y-108827064D01*
X132740000Y-110150000D02*
X132740000Y-110800000D01*
X132740000Y-111450000D02*
X132740000Y-110800000D01*
X135860000Y-110150000D02*
X135860000Y-110800000D01*
X135860000Y-111450000D02*
X135860000Y-110800000D01*
X136140000Y-112202500D02*
X135810000Y-111962500D01*
X136140000Y-111722500D01*
X136140000Y-112202500D01*
G36*
X136140000Y-112202500D02*
G01*
X135810000Y-111962500D01*
X136140000Y-111722500D01*
X136140000Y-112202500D01*
G37*
X145365000Y-108372936D02*
X145365000Y-108827064D01*
X146835000Y-108372936D02*
X146835000Y-108827064D01*
X126665000Y-93461252D02*
X126665000Y-92938748D01*
X128135000Y-93461252D02*
X128135000Y-92938748D01*
X126665000Y-89138748D02*
X126665000Y-89661252D01*
X128135000Y-89138748D02*
X128135000Y-89661252D01*
X112965000Y-100011252D02*
X112965000Y-99488748D01*
X114435000Y-100011252D02*
X114435000Y-99488748D01*
X156190000Y-87296267D02*
X156190000Y-86953733D01*
X157210000Y-87296267D02*
X157210000Y-86953733D01*
X171815000Y-89188748D02*
X171815000Y-89711252D01*
X173285000Y-89188748D02*
X173285000Y-89711252D01*
X156190000Y-83378733D02*
X156190000Y-83671267D01*
X157210000Y-83378733D02*
X157210000Y-83671267D01*
X173950000Y-109140000D02*
X174600000Y-109140000D01*
X173950000Y-112260000D02*
X174600000Y-112260000D01*
X175250000Y-109140000D02*
X174600000Y-109140000D01*
X175250000Y-112260000D02*
X174600000Y-112260000D01*
X173677500Y-112540000D02*
X173197500Y-112540000D01*
X173437500Y-112210000D01*
X173677500Y-112540000D01*
G36*
X173677500Y-112540000D02*
G01*
X173197500Y-112540000D01*
X173437500Y-112210000D01*
X173677500Y-112540000D01*
G37*
X129065000Y-89138748D02*
X129065000Y-89661252D01*
X130535000Y-89138748D02*
X130535000Y-89661252D01*
X111938748Y-89665000D02*
X112461252Y-89665000D01*
X111938748Y-91135000D02*
X112461252Y-91135000D01*
%LPC*%
D16*
X197000000Y-72000000D03*
X197000000Y-115000000D03*
D17*
X119000000Y-76500000D03*
D18*
X116500000Y-76500000D03*
X114000000Y-76500000D03*
D19*
X143500000Y-114400000D03*
D20*
X143500000Y-116940000D03*
X140960000Y-114400000D03*
X140960000Y-116940000D03*
X138420000Y-114400000D03*
X138420000Y-116940000D03*
D21*
X107340000Y-101610000D03*
X107340000Y-107390000D03*
D22*
X107870000Y-100180000D03*
D23*
X103690000Y-100180000D03*
D22*
X107870000Y-108820000D03*
D23*
X103690000Y-108820000D03*
D19*
X157000000Y-114400000D03*
D20*
X157000000Y-116940000D03*
X154460000Y-114400000D03*
X154460000Y-116940000D03*
X151920000Y-114400000D03*
X151920000Y-116940000D03*
D16*
X105000000Y-72000000D03*
X105000000Y-115000000D03*
D19*
X118525000Y-86900000D03*
D20*
X115985000Y-86900000D03*
X113445000Y-86900000D03*
D19*
X124100000Y-96125000D03*
D20*
X124100000Y-93585000D03*
X124100000Y-91045000D03*
D19*
X108540000Y-86080000D03*
D20*
X106000000Y-86080000D03*
X108540000Y-83540000D03*
X106000000Y-83540000D03*
X108540000Y-81000000D03*
X106000000Y-81000000D03*
X108540000Y-78460000D03*
X106000000Y-78460000D03*
D19*
X130000000Y-114400000D03*
D20*
X130000000Y-116940000D03*
X127460000Y-114400000D03*
X127460000Y-116940000D03*
X124920000Y-114400000D03*
X124920000Y-116940000D03*
D19*
X183000000Y-114400000D03*
D20*
X183000000Y-116940000D03*
X180460000Y-114400000D03*
X180460000Y-116940000D03*
X177920000Y-114400000D03*
X177920000Y-116940000D03*
D24*
X122600000Y-72200000D03*
X122600000Y-71250000D03*
X122600000Y-70300000D03*
X124875000Y-70300000D03*
X124875000Y-72200000D03*
D25*
X160587500Y-89700000D03*
X162412500Y-89700000D03*
D26*
X165800000Y-91750000D03*
X165800000Y-93650000D03*
D27*
X127450000Y-96200000D03*
X129350000Y-96200000D03*
D26*
X172600000Y-93850000D03*
X172600000Y-95750000D03*
D25*
X160587500Y-94300000D03*
X162412500Y-94300000D03*
D26*
X120300000Y-70350000D03*
X120300000Y-72250000D03*
D28*
X113165000Y-95875000D03*
X112515000Y-95875000D03*
X111865000Y-95875000D03*
X111215000Y-95875000D03*
X111215000Y-92975000D03*
X111865000Y-92975000D03*
X112515000Y-92975000D03*
X113165000Y-92975000D03*
D29*
X112190000Y-94425000D03*
D30*
X111250000Y-97900000D03*
X109350000Y-97900000D03*
D31*
X153300000Y-84462500D03*
X153300000Y-86187500D03*
D32*
X131200000Y-107987500D03*
X131200000Y-109812500D03*
D26*
X170300000Y-93850000D03*
X170300000Y-95750000D03*
X168000000Y-91750000D03*
X168000000Y-93650000D03*
D25*
X160587500Y-92000000D03*
X162412500Y-92000000D03*
X133387500Y-107400000D03*
X135212500Y-107400000D03*
D31*
X155000000Y-84462500D03*
X155000000Y-86187500D03*
D33*
X116050000Y-100830000D03*
X116050000Y-98770000D03*
X118150000Y-99800000D03*
D34*
X170200000Y-90400000D03*
X170200000Y-88500000D03*
D35*
X144000000Y-109512500D03*
X144000000Y-107687500D03*
D36*
X135250000Y-111737500D03*
X133350000Y-111737500D03*
X134300000Y-109862500D03*
D35*
X146100000Y-109512500D03*
X146100000Y-107687500D03*
D26*
X127400000Y-92250000D03*
X127400000Y-94150000D03*
D34*
X127400000Y-90350000D03*
X127400000Y-88450000D03*
D26*
X113700000Y-98800000D03*
X113700000Y-100700000D03*
D37*
X156700000Y-86250000D03*
X156700000Y-88000000D03*
D34*
X172550000Y-90400000D03*
X172550000Y-88500000D03*
D38*
X156700000Y-84387500D03*
X156700000Y-82662500D03*
D39*
X173662500Y-111650000D03*
X173662500Y-109750000D03*
X175537500Y-110700000D03*
D34*
X129800000Y-90350000D03*
X129800000Y-88450000D03*
D30*
X113150000Y-90400000D03*
X111250000Y-90400000D03*
%LPD*%
M02*
