M48
; DRILL file {KiCad 8.0.6} date 2026-01-02T17:32:10-0800
; FORMAT={-:-/ absolute / metric / decimal}
; #@! TF.CreationDate,2026-01-02T17:32:10-08:00
; #@! TF.GenerationSoftware,Kicad,Pcbnew,8.0.6
; #@! TF.FileFunction,Plated,1,4,PTH
FMAT,2
METRIC
; #@! TA.AperFunction,Plated,PTH,ViaDrill
T1C0.300
; #@! TA.AperFunction,Plated,PTH,ViaDrill
T2C0.400
; #@! TA.AperFunction,Plated,PTH,ComponentDrill
T3C0.600
; #@! TA.AperFunction,Plated,PTH,ComponentDrill
T4C1.000
; #@! TA.AperFunction,Plated,PTH,ComponentDrill
T5C1.100
; #@! TA.AperFunction,Plated,PTH,ComponentDrill
T6C3.200
%
G90
G05
T1
X1.3Y17.9
X1.4Y20.1
X2.4Y15.4
X4.1Y20.2
X4.1Y17.8
X4.7Y14.1
X5.4Y16.0
X11.2Y11.4
X11.4Y44.4
X11.8Y43.1
X13.1Y41.8
X13.5Y40.6
X14.4Y10.3
X15.3Y40.6
X15.6Y17.4
X15.8Y28.5
X15.8Y10.6
X16.3Y16.4
X16.3Y11.9
X16.8Y40.6
X17.7Y43.3
X18.0Y31.5
X18.4Y30.3
X18.8Y23.3
X19.0Y43.0
X19.3Y22.1
X19.5Y31.2
X20.3Y23.0
X20.6Y16.9
X20.7Y18.1
X21.3Y22.2
X21.4Y7.6
X21.8Y53.1
X22.0Y18.6
X22.4Y12.4
X22.6Y48.2
X23.1Y21.8
X23.3Y13.4
X23.7Y12.3
X23.9Y48.2
X24.0Y16.6
X24.25Y23.15
X24.4Y53.1
X25.8Y11.3
X26.0Y52.2
X26.4Y10.2
X26.7Y12.3
X27.1Y53.0
X28.8Y19.5
X28.9Y43.2
X28.95Y41.95
X29.1Y46.7
X29.1Y16.0
X29.4Y53.0
X30.1Y26.0
X30.1Y24.7
X30.1Y22.0
X30.1Y19.2
X30.2Y28.0
X30.3Y35.2
X30.3Y16.4
X30.4Y40.0
X30.5Y37.9
X30.7Y47.8
X30.7Y45.5
X31.4Y19.5
X31.5Y22.1
X31.55Y31.9
X31.6Y53.0
X32.1Y42.4
X32.2Y44.25
X32.8Y48.0
X32.9Y32.1
X32.9Y16.2
X33.1Y7.8
X33.1Y5.8
X33.5Y41.5
X33.7Y20.9
X33.9Y53.0
X33.9Y1.4
X34.0Y6.8
X34.1Y46.7
X34.2Y16.5
X34.8Y29.5
X34.8Y22.0
X34.8Y20.1
X35.3Y16.1
X35.3Y1.6
X35.4Y48.0
X35.4Y46.75
X35.45Y40.3
X35.8Y20.8
X35.8Y12.0
X36.1Y30.2
X36.1Y28.2
X36.2Y53.0
X36.4Y33.3
X36.4Y16.5
X36.8Y21.6
X36.9Y20.1
X37.375Y28.0
X37.4Y15.8
X38.2Y33.5
X38.4Y16.5
X38.5Y53.0
X39.9Y42.5
X39.9Y41.2
X40.05Y26.75
X40.1Y25.3
X40.4Y15.8
X40.9Y53.0
X41.3Y44.5
X41.3Y16.5
X41.6Y45.7
X41.6Y33.9
X41.7Y30.2
X42.2Y52.0
X42.2Y15.8
X43.1Y16.5
X43.2Y45.7
X43.2Y44.4
X43.2Y41.0
X43.5Y53.0
X43.5Y43.3
X44.1Y15.9
X44.15Y37.45
X44.8Y52.1
X44.9Y41.1
X45.0Y8.0
X45.1Y22.7
X45.1Y16.5
X45.1Y2.7
X45.2Y0.9
X45.3Y33.9
X45.4Y4.0
X45.9Y20.1
X46.0Y21.2
X46.1Y53.0
X46.1Y15.9
X46.6Y1.6
X47.1Y16.5
X47.4Y52.1
X47.4Y22.4
X47.8Y0.9
X48.1Y15.9
X48.1Y12.0
X48.25Y30.95
X48.7Y53.0
X49.0Y30.0
X49.1Y16.6
X49.45Y18.35
X49.5Y12.0
X49.8Y28.4
X50.0Y46.8
X50.0Y24.4
X50.0Y21.2
X50.0Y19.7
X50.1Y30.1
X50.2Y52.2
X50.2Y26.2
X50.3Y23.3
X50.8Y37.8
X51.1Y33.9
X51.2Y18.2
X51.5Y53.0
X51.5Y19.9
X51.5Y15.9
X52.2Y47.6
X52.2Y45.2
X52.2Y43.0
X52.2Y41.1
X52.2Y39.3
X52.4Y32.7
X52.6Y34.3
X52.7Y17.0
X53.0Y18.4
X53.1Y52.1
X53.1Y23.3
X53.5Y31.4
X53.6Y46.4
X53.7Y44.0
X53.9Y40.8
X53.9Y39.3
X54.0Y30.2
X54.0Y15.9
X54.1Y34.1
X54.1Y32.6
X54.3Y42.3
X54.4Y21.5
X54.5Y53.0
X54.7Y17.1
X54.8Y23.3
X55.2Y31.5
X55.3Y45.4
X55.4Y47.8
X55.5Y26.0
X55.6Y27.2
X55.7Y43.2
X55.7Y41.2
X56.0Y52.0
X56.0Y16.1
X56.3Y21.7
X57.0Y46.6
X57.0Y17.1
X57.1Y42.3
X57.3Y40.0
X57.3Y38.2
X57.4Y44.1
X57.4Y23.1
X57.5Y53.0
X57.9Y21.6
X58.3Y31.2
X58.3Y16.1
X58.4Y41.3
X58.7Y8.8
X58.8Y26.1
X58.9Y52.0
X58.9Y47.6
X58.9Y45.5
X58.9Y42.8
X59.1Y34.9
X59.5Y40.0
X59.5Y17.1
X60.2Y46.6
X60.3Y44.0
X60.4Y21.5
X60.5Y53.0
X60.5Y41.3
X60.5Y34.0
X60.5Y19.4
X60.5Y16.1
X60.8Y26.1
X61.3Y17.6
X61.4Y47.7
X61.4Y45.5
X61.4Y35.0
X61.5Y40.0
X61.5Y20.4
X61.6Y42.6
X62.0Y52.0
X62.3Y16.6
X62.5Y21.4
X62.6Y44.0
X62.6Y41.3
X62.6Y19.4
X62.7Y6.2
X62.8Y34.1
X62.9Y28.7
X62.9Y26.1
X63.0Y46.5
X63.3Y17.6
X63.3Y8.8
X63.5Y53.0
X63.5Y33.0
X63.7Y42.6
X63.7Y40.0
X63.7Y20.4
X63.9Y35.0
X64.4Y47.5
X64.4Y45.0
X64.4Y16.6
X64.6Y8.7
X64.8Y41.3
X64.8Y19.4
X64.9Y33.7
X64.9Y21.3
X64.9Y7.5
X65.0Y52.0
X65.1Y26.0
X65.3Y43.5
X65.4Y17.6
X65.8Y46.4
X65.9Y40.0
X66.0Y9.1
X66.1Y35.0
X66.1Y23.1
X66.2Y38.2
X66.2Y32.6
X66.2Y20.3
X66.4Y41.8
X66.5Y53.0
X66.5Y16.7
X66.8Y44.7
X66.8Y21.8
X67.0Y8.075
X67.2Y47.7
X67.3Y33.8
X67.3Y25.9
X67.3Y19.4
X67.5Y39.7
X67.5Y17.6
X67.6Y43.0
X68.0Y52.0
X68.0Y41.2
X68.1Y21.0
X68.2Y46.1
X68.3Y38.1
X68.3Y23.0
X68.4Y35.1
X68.7Y16.7
X68.9Y44.4
X69.1Y42.7
X69.1Y39.5
X69.5Y53.0
X69.5Y47.5
X69.5Y11.8
X69.6Y21.8
X69.6Y10.0
X69.7Y19.4
X69.7Y17.6
X69.8Y41.0
X70.1Y38.2
X70.3Y8.9
X70.3Y7.1
X70.4Y46.0
X70.6Y35.1
X70.7Y42.7
X70.8Y23.0
X70.8Y20.7
X70.8Y11.3
X70.9Y16.7
X71.0Y52.0
X71.0Y39.6
X71.1Y44.4
X71.4Y41.2
X71.6Y47.6
X71.9Y38.2
X72.0Y19.4
X72.0Y17.6
X72.1Y21.8
X72.2Y42.8
X72.5Y53.0
X72.6Y45.6
X72.6Y40.1
X72.8Y35.1
X73.3Y20.5
X73.3Y16.7
X73.375Y31.6
X73.4Y33.2
X73.4Y29.9
X73.475Y28.175
X73.5Y44.2
X73.5Y26.0
X73.6Y41.5
X73.9Y52.0
X73.9Y46.5
X74.2Y17.6
X74.3Y19.4
X74.4Y34.1
X74.7Y42.8
X74.7Y40.1
X74.9Y21.4
X75.0Y27.7
X75.0Y26.1
X75.1Y35.2
X75.1Y23.5
X75.2Y47.6
X75.3Y44.8
X75.3Y16.7
X75.4Y38.4
X75.5Y53.0
X75.7Y41.4
X76.0Y33.5
X76.0Y20.3
X76.2Y24.4
X76.2Y22.3
X76.3Y46.1
X76.4Y43.4
X76.5Y39.9
X76.5Y17.9
X76.8Y36.8
X77.0Y52.0
X77.0Y38.4
X77.1Y16.2
X77.5Y44.8
X77.7Y41.9
X77.8Y46.9
X77.8Y19.1
X78.1Y35.3
X78.1Y25.1
X78.1Y23.0
X78.1Y21.0
X78.2Y40.1
X78.2Y33.5
X78.2Y27.5
X78.4Y36.9
X78.4Y17.6
X78.5Y53.0
X78.7Y43.4
X78.8Y38.5
X79.2Y48.0
X79.2Y32.2
X79.2Y29.3
X79.2Y26.2
X79.2Y24.1
X79.3Y16.1
X79.4Y45.6
X79.4Y21.9
X79.5Y34.4
X79.6Y42.0
X79.6Y19.8
X79.7Y27.9
X80.0Y51.9
X80.1Y36.2
X80.2Y40.1
X80.2Y18.3
X80.3Y46.9
X80.3Y33.4
X80.5Y37.8
X80.6Y44.2
X80.6Y24.9
X80.6Y23.0
X80.8Y26.6
X81.0Y20.8
X81.0Y16.8
X81.2Y34.8
X81.4Y42.4
X81.4Y32.2
X81.5Y53.0
X81.5Y29.3
X81.7Y27.9
X81.8Y46.0
X81.9Y19.3
X82.2Y41.0
X82.2Y39.1
X82.2Y36.5
X82.4Y33.4
X82.4Y23.9
X82.5Y25.8
X82.5Y21.8
X82.7Y47.5
X82.7Y44.4
X82.8Y17.7
X82.9Y51.9
X83.2Y43.0
X83.4Y20.2
X83.5Y34.8
X83.5Y27.4
X83.6Y37.8
X83.6Y32.2
X83.8Y45.9
X84.0Y24.8
X84.0Y22.7
X84.1Y41.4
X84.2Y16.3
X84.5Y53.0
X84.5Y44.3
X84.5Y19.0
X84.6Y36.4
X84.7Y47.3
X84.7Y39.8
X84.7Y33.4
X84.9Y21.2
X85.0Y26.3
X85.2Y29.3
X85.3Y23.7
X85.5Y42.8
X85.6Y45.9
X85.7Y17.7
X85.8Y34.8
X85.9Y37.8
X85.9Y32.2
X86.1Y51.9
X86.1Y27.9
X86.2Y25.1
X86.4Y44.4
X86.4Y22.5
X86.4Y19.9
X86.5Y41.3
X86.6Y47.2
X86.9Y16.3
X87.0Y33.4
X87.0Y26.6
X87.1Y39.2
X87.1Y36.3
X87.1Y29.3
X87.5Y53.0
X87.5Y45.8
X87.6Y42.8
X87.6Y23.8
X87.7Y21.3
X87.7Y18.2
X88.3Y34.6
X88.3Y32.2
X88.7Y27.3
X89.3Y52.0
X89.7Y33.1
X89.7Y25.8
X90.6Y34.6
X90.6Y31.8
X90.6Y27.3
X90.7Y29.8
X91.0Y53.0
X91.4Y25.8
X91.7Y33.0
X91.8Y28.5
X92.0Y23.0
X92.1Y37.1
X92.3Y34.6
X92.5Y27.0
X92.9Y31.8
X92.9Y29.8
X93.1Y24.6
X93.4Y38.6
X93.6Y35.7
X93.7Y33.5
X93.8Y28.2
X93.8Y26.1
X94.0Y22.6
X94.7Y37.1
X95.1Y24.3
X96.0Y38.6
X96.0Y35.8
X96.4Y25.6
X96.6Y22.6
X97.3Y37.0
X97.7Y24.3
X98.4Y38.5
X98.4Y35.8
X98.6Y25.6
X98.9Y22.5
T2
X9.5Y20.2
X9.7Y14.1
X10.1Y17.5
X14.9Y32.9
X14.9Y31.5
X30.75Y29.35
X36.1Y39.1
X37.3Y43.8
X48.5Y35.5
X50.8Y36.4
X69.3Y8.0
T4
X5.0Y43.54
X5.0Y41.0
X5.0Y38.46
X5.0Y35.92
X7.54Y43.54
X7.54Y41.0
X7.54Y38.46
X7.54Y35.92
X12.445Y35.1
X14.985Y35.1
X17.525Y35.1
X23.1Y30.955
X23.1Y28.415
X23.1Y25.875
X23.92Y7.6
X23.92Y5.06
X26.46Y7.6
X26.46Y5.06
X29.0Y7.6
X29.0Y5.06
X37.42Y7.6
X37.42Y5.06
X39.96Y7.6
X39.96Y5.06
X42.5Y7.6
X42.5Y5.06
X50.92Y7.6
X50.92Y5.06
X53.46Y7.6
X53.46Y5.06
X56.0Y7.6
X56.0Y5.06
X76.92Y7.6
X76.92Y5.06
X79.46Y7.6
X79.46Y5.06
X82.0Y7.6
X82.0Y5.06
T5
X13.0Y45.5
X15.5Y45.5
X18.0Y45.5
T6
X4.0Y50.0
X4.0Y7.0
X96.0Y50.0
X96.0Y7.0
T3
G00X2.99Y21.82
M15
G01X2.39Y21.82
M16
G05
G00X2.99Y13.18
M15
G01X2.39Y13.18
M16
G05
G00X7.42Y21.82
M15
G01X6.32Y21.82
M16
G05
G00X7.42Y13.18
M15
G01X6.32Y13.18
M16
G05
M30
