%TF.GenerationSoftware,KiCad,Pcbnew,10.0.3*%
%TF.CreationDate,2026-08-05T11:23:39-07:00*%
%TF.ProjectId,LoRa_Board,4c6f5261-5f42-46f6-9172-642e6b696361,rev?*%
%TF.SameCoordinates,Original*%
%TF.FileFunction,Soldermask,Bot*%
%TF.FilePolarity,Negative*%
%FSLAX46Y46*%
G04 Gerber Fmt 4.6, Leading zero omitted, Abs format (unit mm)*
G04 Created by KiCad (PCBNEW 10.0.3) date 2026-08-05 11:23:39*
%MOMM*%
%LPD*%
G01*
G04 APERTURE LIST*
G04 Aperture macros list*
%AMRoundRect*
0 Rectangle with rounded corners*
0 $1 Rounding radius*
0 $2 $3 $4 $5 $6 $7 $8 $9 X,Y pos of 4 corners*
0 Add a 4 corners polygon primitive as box body*
4,1,4,$2,$3,$4,$5,$6,$7,$8,$9,$2,$3,0*
0 Add four circle primitives for the rounded corners*
1,1,$1+$1,$2,$3*
1,1,$1+$1,$4,$5*
1,1,$1+$1,$6,$7*
1,1,$1+$1,$8,$9*
0 Add four rect primitives between the rounded corners*
20,1,$1+$1,$2,$3,$4,$5,0*
20,1,$1+$1,$4,$5,$6,$7,0*
20,1,$1+$1,$6,$7,$8,$9,0*
20,1,$1+$1,$8,$9,$2,$3,0*%
G04 Aperture macros list end*
%ADD10R,1.700000X1.700000*%
%ADD11C,1.700000*%
%ADD12RoundRect,0.200000X-0.200000X-0.275000X0.200000X-0.275000X0.200000X0.275000X-0.200000X0.275000X0*%
%ADD13RoundRect,0.200000X0.275000X-0.200000X0.275000X0.200000X-0.275000X0.200000X-0.275000X-0.200000X0*%
%ADD14RoundRect,0.225000X0.250000X-0.225000X0.250000X0.225000X-0.250000X0.225000X-0.250000X-0.225000X0*%
%ADD15RoundRect,0.225000X0.225000X0.250000X-0.225000X0.250000X-0.225000X-0.250000X0.225000X-0.250000X0*%
%ADD16C,6.400000*%
%ADD17R,1.650000X1.650000*%
%ADD18C,1.650000*%
%ADD19RoundRect,0.250000X0.450000X-0.262500X0.450000X0.262500X-0.450000X0.262500X-0.450000X-0.262500X0*%
%ADD20RoundRect,0.250000X-0.475000X0.250000X-0.475000X-0.250000X0.475000X-0.250000X0.475000X0.250000X0*%
%ADD21C,0.650000*%
%ADD22O,2.100000X1.000000*%
%ADD23O,1.600000X1.000000*%
%ADD24RoundRect,0.200000X0.200000X0.275000X-0.200000X0.275000X-0.200000X-0.275000X0.200000X-0.275000X0*%
%ADD25RoundRect,0.225000X-0.250000X0.225000X-0.250000X-0.225000X0.250000X-0.225000X0.250000X0.225000X0*%
%ADD26R,0.360000X0.210000*%
%ADD27R,0.310000X0.210000*%
%ADD28RoundRect,0.250000X0.250000X0.475000X-0.250000X0.475000X-0.250000X-0.475000X0.250000X-0.475000X0*%
%ADD29RoundRect,0.200000X-0.275000X0.200000X-0.275000X-0.200000X0.275000X-0.200000X0.275000X0.200000X0*%
%ADD30RoundRect,0.225000X-0.225000X-0.250000X0.225000X-0.250000X0.225000X0.250000X-0.225000X0.250000X0*%
G04 APERTURE END LIST*
D10*
%TO.C,J5*%
X107500000Y-87900000D03*
D11*
X104960000Y-87900000D03*
X107500000Y-85360000D03*
X104960000Y-85360000D03*
X107500000Y-82820000D03*
X104960000Y-82820000D03*
X107500000Y-80280000D03*
X104960000Y-80280000D03*
%TD*%
D10*
%TO.C,J8*%
X125000000Y-116400000D03*
D11*
X125000000Y-118940000D03*
X122460000Y-116400000D03*
X122460000Y-118940000D03*
X119920000Y-116400000D03*
X119920000Y-118940000D03*
X117380000Y-116400000D03*
X117380000Y-118940000D03*
X114840000Y-116400000D03*
X114840000Y-118940000D03*
X112300000Y-116400000D03*
X112300000Y-118940000D03*
%TD*%
D10*
%TO.C,J2*%
X142500000Y-116400000D03*
D11*
X142500000Y-118940000D03*
X139960000Y-116400000D03*
X139960000Y-118940000D03*
X137420000Y-116400000D03*
X137420000Y-118940000D03*
%TD*%
D10*
%TO.C,J9*%
X156000000Y-116400000D03*
D11*
X156000000Y-118940000D03*
X153460000Y-116400000D03*
X153460000Y-118940000D03*
X150920000Y-116400000D03*
X150920000Y-118940000D03*
%TD*%
D10*
%TO.C,J7*%
X182000000Y-116400000D03*
D11*
X182000000Y-118940000D03*
X179460000Y-116400000D03*
X179460000Y-118940000D03*
X176920000Y-116400000D03*
X176920000Y-118940000D03*
%TD*%
D10*
%TO.C,J1*%
X135000000Y-77400000D03*
D11*
X135000000Y-74860000D03*
X137540000Y-77400000D03*
X137540000Y-74860000D03*
X140080000Y-77400000D03*
X140080000Y-74860000D03*
X142620000Y-77400000D03*
X142620000Y-74860000D03*
X145160000Y-77400000D03*
X145160000Y-74860000D03*
X147700000Y-77400000D03*
X147700000Y-74860000D03*
%TD*%
D12*
%TO.C,R7*%
X175625000Y-97000000D03*
X177275000Y-97000000D03*
%TD*%
D13*
%TO.C,R3*%
X176550000Y-95275000D03*
X176550000Y-93625000D03*
%TD*%
D14*
%TO.C,C25*%
X152450000Y-82075000D03*
X152450000Y-80525000D03*
%TD*%
%TO.C,C35*%
X155900000Y-82075000D03*
X155900000Y-80525000D03*
%TD*%
%TO.C,C28*%
X154200000Y-82075000D03*
X154200000Y-80525000D03*
%TD*%
D15*
%TO.C,C73*%
X170305000Y-95580000D03*
X168755000Y-95580000D03*
%TD*%
D16*
%TO.C,H6*%
X196000000Y-74000000D03*
%TD*%
%TO.C,H7*%
X196000000Y-117000000D03*
%TD*%
D17*
%TO.C,JST1*%
X119075000Y-78350000D03*
D18*
X116575000Y-78350000D03*
X114075000Y-78350000D03*
%TD*%
D10*
%TO.C,J3*%
X160975000Y-114350000D03*
D11*
X163515000Y-114350000D03*
%TD*%
D19*
%TO.C,R32*%
X161300000Y-119012500D03*
X161300000Y-117187500D03*
%TD*%
D20*
%TO.C,C69*%
X163500000Y-117150000D03*
X163500000Y-119050000D03*
%TD*%
D16*
%TO.C,H5*%
X104000000Y-74000000D03*
%TD*%
%TO.C,H8*%
X104000000Y-117000000D03*
%TD*%
D21*
%TO.C,J4*%
X106300000Y-102810000D03*
X106300000Y-108590000D03*
D22*
X106830000Y-101380000D03*
D23*
X102650000Y-101380000D03*
D22*
X106830000Y-110020000D03*
D23*
X102650000Y-110020000D03*
%TD*%
D10*
%TO.C,J6*%
X138260000Y-110300000D03*
D11*
X140800000Y-110300000D03*
X143340000Y-110300000D03*
%TD*%
D24*
%TO.C,R14*%
X143625000Y-113200000D03*
X141975000Y-113200000D03*
%TD*%
D25*
%TO.C,C30*%
X149550000Y-96950000D03*
X149550000Y-98500000D03*
%TD*%
D26*
%TO.C,SW3*%
X165475000Y-87200000D03*
D27*
X165500000Y-87700000D03*
X165500000Y-88200000D03*
X164900000Y-88200000D03*
X164900000Y-87700000D03*
X164900000Y-87200000D03*
%TD*%
D28*
%TO.C,FB6*%
X147775000Y-93700000D03*
X145875000Y-93700000D03*
%TD*%
%TO.C,C67*%
X123000000Y-109600000D03*
X121100000Y-109600000D03*
%TD*%
D15*
%TO.C,C57*%
X158875000Y-86900000D03*
X157325000Y-86900000D03*
%TD*%
%TO.C,C70*%
X158875000Y-88600000D03*
X157325000Y-88600000D03*
%TD*%
D25*
%TO.C,C17*%
X151275000Y-93700000D03*
X151275000Y-95250000D03*
%TD*%
D29*
%TO.C,R2*%
X174850000Y-93625000D03*
X174850000Y-95275000D03*
%TD*%
D25*
%TO.C,C36*%
X149525000Y-93700000D03*
X149525000Y-95250000D03*
%TD*%
%TO.C,C37*%
X162700000Y-87325000D03*
X162700000Y-88875000D03*
%TD*%
D30*
%TO.C,C23*%
X153225000Y-97950000D03*
X154775000Y-97950000D03*
%TD*%
%TO.C,C7*%
X153225000Y-99700000D03*
X154775000Y-99700000D03*
%TD*%
D14*
%TO.C,C10*%
X171600000Y-92862500D03*
X171600000Y-91312500D03*
%TD*%
%TO.C,C46*%
X176550000Y-92025000D03*
X176550000Y-90475000D03*
%TD*%
D28*
%TO.C,C68*%
X123000000Y-111850000D03*
X121100000Y-111850000D03*
%TD*%
D14*
%TO.C,C72*%
X150100000Y-90850000D03*
X150100000Y-89300000D03*
%TD*%
D24*
%TO.C,R8*%
X177275000Y-98700000D03*
X175625000Y-98700000D03*
%TD*%
D14*
%TO.C,C6*%
X169850000Y-92875000D03*
X169850000Y-91325000D03*
%TD*%
%TO.C,C4*%
X168100000Y-92875000D03*
X168100000Y-91325000D03*
%TD*%
D25*
%TO.C,C27*%
X160350000Y-100350000D03*
X160350000Y-101900000D03*
%TD*%
D14*
%TO.C,C47*%
X174850000Y-92025000D03*
X174850000Y-90475000D03*
%TD*%
M02*
