G04 #@! TF.GenerationSoftware,KiCad,Pcbnew,8.0.6*
G04 #@! TF.CreationDate,2026-01-15T10:01:28-08:00*
G04 #@! TF.ProjectId,LoRa_Board,4c6f5261-5f42-46f6-9172-642e6b696361,rev?*
G04 #@! TF.SameCoordinates,Original*
G04 #@! TF.FileFunction,Paste,Top*
G04 #@! TF.FilePolarity,Positive*
%FSLAX46Y46*%
G04 Gerber Fmt 4.6, Leading zero omitted, Abs format (unit mm)*
G04 Created by KiCad (PCBNEW 8.0.6) date 2026-01-15 10:01:28*
%MOMM*%
%LPD*%
G01*
G04 APERTURE LIST*
G04 Aperture macros list*
%AMRoundRect*
0 Rectangle with rounded corners*
0 $1 Rounding radius*
0 $2 $3 $4 $5 $6 $7 $8 $9 X,Y pos of 4 corners*
0 Add a 4 corners polygon primitive as box body*
4,1,4,$2,$3,$4,$5,$6,$7,$8,$9,$2,$3,0*
0 Add four circle primitives for the rounded corners*
1,1,$1+$1,$2,$3*
1,1,$1+$1,$4,$5*
1,1,$1+$1,$6,$7*
1,1,$1+$1,$8,$9*
0 Add four rect primitives between the rounded corners*
20,1,$1+$1,$2,$3,$4,$5,0*
20,1,$1+$1,$4,$5,$6,$7,0*
20,1,$1+$1,$6,$7,$8,$9,0*
20,1,$1+$1,$8,$9,$2,$3,0*%
G04 Aperture macros list end*
%ADD10RoundRect,0.250000X-0.262500X-0.450000X0.262500X-0.450000X0.262500X0.450000X-0.262500X0.450000X0*%
%ADD11R,0.800000X0.250000*%
%ADD12R,0.250000X0.800000*%
%ADD13R,1.600000X1.600000*%
%ADD14RoundRect,0.237500X0.300000X0.237500X-0.300000X0.237500X-0.300000X-0.237500X0.300000X-0.237500X0*%
%ADD15RoundRect,0.250000X-0.475000X0.250000X-0.475000X-0.250000X0.475000X-0.250000X0.475000X0.250000X0*%
%ADD16RoundRect,0.250000X-0.250000X-0.475000X0.250000X-0.475000X0.250000X0.475000X-0.250000X0.475000X0*%
%ADD17RoundRect,0.225000X0.225000X0.250000X-0.225000X0.250000X-0.225000X-0.250000X0.225000X-0.250000X0*%
%ADD18RoundRect,0.237500X-0.300000X-0.237500X0.300000X-0.237500X0.300000X0.237500X-0.300000X0.237500X0*%
%ADD19RoundRect,0.250000X0.475000X-0.250000X0.475000X0.250000X-0.475000X0.250000X-0.475000X-0.250000X0*%
%ADD20RoundRect,0.250000X0.250000X0.475000X-0.250000X0.475000X-0.250000X-0.475000X0.250000X-0.475000X0*%
%ADD21RoundRect,0.237500X0.237500X-0.287500X0.237500X0.287500X-0.237500X0.287500X-0.237500X-0.287500X0*%
%ADD22RoundRect,0.250000X0.262500X0.450000X-0.262500X0.450000X-0.262500X-0.450000X0.262500X-0.450000X0*%
%ADD23RoundRect,0.237500X-0.237500X0.300000X-0.237500X-0.300000X0.237500X-0.300000X0.237500X0.300000X0*%
%ADD24RoundRect,0.237500X0.237500X-0.300000X0.237500X0.300000X-0.237500X0.300000X-0.237500X-0.300000X0*%
%ADD25RoundRect,0.237500X-0.287500X-0.237500X0.287500X-0.237500X0.287500X0.237500X-0.287500X0.237500X0*%
%ADD26RoundRect,0.250000X-0.450000X0.262500X-0.450000X-0.262500X0.450000X-0.262500X0.450000X0.262500X0*%
%ADD27R,4.300000X1.450000*%
%ADD28R,4.300000X1.370000*%
%ADD29R,1.100000X1.300000*%
%ADD30RoundRect,0.237500X0.287500X0.237500X-0.287500X0.237500X-0.287500X-0.237500X0.287500X-0.237500X0*%
%ADD31R,0.360000X0.210000*%
%ADD32R,0.310000X0.210000*%
%ADD33R,1.450000X0.600000*%
%ADD34R,1.450000X0.300000*%
%ADD35RoundRect,0.150000X0.512500X0.150000X-0.512500X0.150000X-0.512500X-0.150000X0.512500X-0.150000X0*%
%ADD36R,0.304800X1.000000*%
%ADD37R,0.965200X1.016000*%
%ADD38RoundRect,0.225000X-0.225000X-0.275000X0.225000X-0.275000X0.225000X0.275000X-0.225000X0.275000X0*%
%ADD39RoundRect,0.137500X-0.712500X-0.137500X0.712500X-0.137500X0.712500X0.137500X-0.712500X0.137500X0*%
%ADD40RoundRect,0.225000X-0.225000X-0.250000X0.225000X-0.250000X0.225000X0.250000X-0.225000X0.250000X0*%
%ADD41R,1.400000X1.200000*%
%ADD42RoundRect,0.237500X-0.237500X0.287500X-0.237500X-0.287500X0.237500X-0.287500X0.237500X0.287500X0*%
%ADD43R,1.200000X10.000000*%
%ADD44R,1.200000X6.700000*%
%ADD45R,10.000000X1.200000*%
%ADD46R,1.900000X1.200000*%
%ADD47R,1.200000X3.900000*%
%ADD48R,1.200000X10.800000*%
%ADD49RoundRect,0.250000X0.315000X-0.315000X0.315000X0.315000X-0.315000X0.315000X-0.315000X-0.315000X0*%
%ADD50RoundRect,0.062500X0.062500X-0.375000X0.062500X0.375000X-0.062500X0.375000X-0.062500X-0.375000X0*%
%ADD51RoundRect,0.062500X0.375000X-0.062500X0.375000X0.062500X-0.375000X0.062500X-0.375000X-0.062500X0*%
%ADD52RoundRect,0.250000X-0.325000X-0.450000X0.325000X-0.450000X0.325000X0.450000X-0.325000X0.450000X0*%
%ADD53R,1.100000X0.650000*%
%ADD54R,0.400000X1.200000*%
%ADD55R,1.550000X2.150000*%
%ADD56R,0.210000X0.360000*%
%ADD57R,0.210000X0.310000*%
%ADD58R,0.558800X1.320800*%
%ADD59RoundRect,0.250000X0.450000X-0.262500X0.450000X0.262500X-0.450000X0.262500X-0.450000X-0.262500X0*%
G04 APERTURE END LIST*
D10*
X117187500Y-101600000D03*
X119012500Y-101600000D03*
D11*
X175900000Y-90600000D03*
X175900000Y-91100000D03*
X175900000Y-91600000D03*
X175900000Y-92100000D03*
D12*
X176600000Y-92800000D03*
X177100000Y-92800000D03*
X177600000Y-92800000D03*
X178100000Y-92800000D03*
D11*
X178800000Y-92100000D03*
X178800000Y-91600000D03*
X178800000Y-91100000D03*
X178800000Y-90600000D03*
D12*
X178100000Y-89900000D03*
X177600000Y-89900000D03*
X177100000Y-89900000D03*
X176600000Y-89900000D03*
D13*
X177350000Y-91350000D03*
D14*
X160062500Y-101700000D03*
X158337500Y-101700000D03*
D15*
X147900000Y-95750000D03*
X147900000Y-97650000D03*
D16*
X110650000Y-113400000D03*
X112550000Y-113400000D03*
D14*
X159962500Y-93800000D03*
X158237500Y-93800000D03*
D17*
X150075000Y-85000000D03*
X148525000Y-85000000D03*
D18*
X167337500Y-97400000D03*
X169062500Y-97400000D03*
D16*
X142650000Y-74600000D03*
X144550000Y-74600000D03*
D19*
X118512500Y-120112500D03*
X118512500Y-118212500D03*
D17*
X145675000Y-82700000D03*
X144125000Y-82700000D03*
D16*
X133137500Y-82340000D03*
X135037500Y-82340000D03*
D20*
X134650000Y-95500000D03*
X132750000Y-95500000D03*
D21*
X158300000Y-87375000D03*
X158300000Y-85625000D03*
D22*
X120412500Y-93600000D03*
X118587500Y-93600000D03*
D23*
X165475000Y-83837500D03*
X165475000Y-85562500D03*
D24*
X165500000Y-99162500D03*
X165500000Y-97437500D03*
D25*
X161900000Y-85600000D03*
X163650000Y-85600000D03*
D26*
X120900000Y-82187500D03*
X120900000Y-84012500D03*
D15*
X114600000Y-113150000D03*
X114600000Y-115050000D03*
D27*
X198049200Y-88375000D03*
X198100000Y-94025000D03*
D28*
X198049200Y-91200000D03*
D29*
X133147500Y-84650000D03*
X133147500Y-86950000D03*
X135047500Y-86950000D03*
X135047500Y-84650000D03*
D15*
X140600000Y-74400000D03*
X140600000Y-76300000D03*
D20*
X134650000Y-97800000D03*
X132750000Y-97800000D03*
D30*
X187900000Y-91175000D03*
X186150000Y-91175000D03*
D31*
X158175000Y-92000000D03*
D32*
X158200000Y-91500000D03*
X158200000Y-91000000D03*
X157600000Y-91000000D03*
X157600000Y-91500000D03*
X157600000Y-92000000D03*
D10*
X117275000Y-107400000D03*
X119100000Y-107400000D03*
D33*
X108785000Y-101250000D03*
X108785000Y-102050000D03*
D34*
X108785000Y-103250000D03*
X108785000Y-104250000D03*
X108785000Y-104750000D03*
X108785000Y-105750000D03*
D33*
X108785000Y-106950000D03*
X108785000Y-107750000D03*
X108785000Y-107750000D03*
X108785000Y-106950000D03*
D34*
X108785000Y-106250000D03*
X108785000Y-105250000D03*
X108785000Y-103750000D03*
X108785000Y-102750000D03*
D33*
X108785000Y-102050000D03*
X108785000Y-101250000D03*
D20*
X139050000Y-84700000D03*
X137150000Y-84700000D03*
D18*
X161837500Y-99200000D03*
X163562500Y-99200000D03*
D16*
X137050000Y-97700000D03*
X138950000Y-97700000D03*
D35*
X114737500Y-105450000D03*
X114737500Y-104500000D03*
X114737500Y-103550000D03*
X112462500Y-103550000D03*
X112462500Y-104500000D03*
X112462500Y-105450000D03*
D15*
X116800000Y-113150000D03*
X116800000Y-115050000D03*
X151000000Y-80850000D03*
X151000000Y-82750000D03*
D14*
X160062500Y-89200000D03*
X158337500Y-89200000D03*
D26*
X151000000Y-77087500D03*
X151000000Y-78912500D03*
D25*
X171000000Y-85600000D03*
X172750000Y-85600000D03*
D36*
X165049999Y-116498200D03*
X165550001Y-116498200D03*
X166050000Y-116498200D03*
X166549999Y-116498200D03*
X167050000Y-116498200D03*
X167550000Y-116498200D03*
X168050001Y-116498200D03*
X168550000Y-116498200D03*
X169049999Y-116498200D03*
X169550001Y-116498200D03*
D37*
X171249700Y-119190600D03*
X163350300Y-119190600D03*
D25*
X154625000Y-97400000D03*
X156375000Y-97400000D03*
D20*
X121450000Y-109900000D03*
X119550000Y-109900000D03*
D38*
X116112500Y-118587500D03*
X116112500Y-120187500D03*
X112012500Y-120187500D03*
X112012500Y-118587500D03*
D39*
X114062500Y-117937500D03*
D26*
X112900000Y-107187500D03*
X112900000Y-109012500D03*
D20*
X107950000Y-89900000D03*
X106050000Y-89900000D03*
D40*
X147425000Y-82700000D03*
X148975000Y-82700000D03*
D14*
X182312500Y-91175000D03*
X180587500Y-91175000D03*
D23*
X160075000Y-83837500D03*
X160075000Y-85562500D03*
D41*
X146260000Y-78740000D03*
X148460000Y-78740000D03*
X148460000Y-77140000D03*
X146260000Y-77140000D03*
D18*
X161912500Y-83800000D03*
X163637500Y-83800000D03*
D24*
X189600000Y-92937500D03*
X189600000Y-91212500D03*
X184400000Y-92937500D03*
X184400000Y-91212500D03*
D42*
X156500000Y-101725000D03*
X156500000Y-103475000D03*
D15*
X134000000Y-91500000D03*
X134000000Y-93400000D03*
X115200000Y-107150000D03*
X115200000Y-109050000D03*
D24*
X160000000Y-99162500D03*
X160000000Y-97437500D03*
D25*
X161825000Y-97400000D03*
X163575000Y-97400000D03*
X154725000Y-85600000D03*
X156475000Y-85600000D03*
D43*
X127750000Y-76640000D03*
X127750000Y-86640000D03*
X127750000Y-96640000D03*
D44*
X127750000Y-104990000D03*
D45*
X133350000Y-72240000D03*
X133350000Y-107740000D03*
X143350000Y-72240000D03*
X143350000Y-107740000D03*
X153350000Y-72240000D03*
X153350000Y-107740000D03*
X163350000Y-72240000D03*
X163350000Y-107740000D03*
X173350000Y-72240000D03*
X173350000Y-107740000D03*
X183350000Y-72240000D03*
X183350000Y-107740000D03*
D46*
X189300000Y-72240000D03*
X189300000Y-107740000D03*
D43*
X190850000Y-76640000D03*
D47*
X190850000Y-83590000D03*
D48*
X190850000Y-102940000D03*
D20*
X148350000Y-74640000D03*
X146450000Y-74640000D03*
D49*
X142300000Y-92200000D03*
X143700000Y-92200000D03*
X145100000Y-92200000D03*
X146500000Y-92200000D03*
X142300000Y-90800000D03*
X143700000Y-90800000D03*
X145100000Y-90800000D03*
X146500000Y-90800000D03*
X142300000Y-89400000D03*
X143700000Y-89400000D03*
X145100000Y-89400000D03*
X146500000Y-89400000D03*
X142300000Y-88000000D03*
X143700000Y-88000000D03*
X145100000Y-88000000D03*
X146500000Y-88000000D03*
D50*
X141650000Y-93537500D03*
X142150000Y-93537500D03*
X142650000Y-93537500D03*
X143150000Y-93537500D03*
X143650000Y-93537500D03*
X144150000Y-93537500D03*
X144650000Y-93537500D03*
X145150000Y-93537500D03*
X145650000Y-93537500D03*
X146150000Y-93537500D03*
X146650000Y-93537500D03*
X147150000Y-93537500D03*
D51*
X147837500Y-92850000D03*
X147837500Y-92350000D03*
X147837500Y-91850000D03*
X147837500Y-91350000D03*
X147837500Y-90850000D03*
X147837500Y-90350000D03*
X147837500Y-89850000D03*
X147837500Y-89350000D03*
X147837500Y-88850000D03*
X147837500Y-88350000D03*
X147837500Y-87850000D03*
X147837500Y-87350000D03*
D50*
X147150000Y-86662500D03*
X146650000Y-86662500D03*
X146150000Y-86662500D03*
X145650000Y-86662500D03*
X145150000Y-86662500D03*
X144650000Y-86662500D03*
X144150000Y-86662500D03*
X143650000Y-86662500D03*
X143150000Y-86662500D03*
X142650000Y-86662500D03*
X142150000Y-86662500D03*
X141650000Y-86662500D03*
D51*
X140962500Y-87350000D03*
X140962500Y-87850000D03*
X140962500Y-88350000D03*
X140962500Y-88850000D03*
X140962500Y-89350000D03*
X140962500Y-89850000D03*
X140962500Y-90350000D03*
X140962500Y-90850000D03*
X140962500Y-91350000D03*
X140962500Y-91850000D03*
X140962500Y-92350000D03*
X140962500Y-92850000D03*
D25*
X171025000Y-97400000D03*
X172775000Y-97400000D03*
D26*
X142300000Y-101087500D03*
X142300000Y-102912500D03*
D23*
X174575000Y-83837500D03*
X174575000Y-85562500D03*
D52*
X137025000Y-95440000D03*
X139075000Y-95440000D03*
D15*
X138300000Y-74400000D03*
X138300000Y-76300000D03*
D53*
X122910000Y-82170000D03*
X122910000Y-84090000D03*
X125010000Y-83130000D03*
D19*
X115100000Y-101800000D03*
X115100000Y-99900000D03*
D54*
X125222500Y-101900000D03*
X124587500Y-101900000D03*
X123952500Y-101900000D03*
X123317500Y-101900000D03*
X122682500Y-101900000D03*
X122047500Y-101900000D03*
X121412500Y-101900000D03*
X120777500Y-101900000D03*
X120777500Y-107100000D03*
X121412500Y-107100000D03*
X122047500Y-107100000D03*
X122682500Y-107100000D03*
X123317500Y-107100000D03*
X123952500Y-107100000D03*
X124587500Y-107100000D03*
X125222500Y-107100000D03*
D24*
X174700000Y-99162500D03*
X174700000Y-97437500D03*
D55*
X112900000Y-91650000D03*
X112900000Y-97150000D03*
D22*
X139000000Y-86900000D03*
X137175000Y-86900000D03*
D40*
X147425000Y-80900000D03*
X148975000Y-80900000D03*
D20*
X110650000Y-111200000D03*
X108750000Y-111200000D03*
D18*
X158337500Y-103500000D03*
X160062500Y-103500000D03*
D21*
X158200000Y-97375000D03*
X158200000Y-95625000D03*
D56*
X142300000Y-79575000D03*
D57*
X142800000Y-79600000D03*
X143300000Y-79600000D03*
X143300000Y-79000000D03*
X142800000Y-79000000D03*
X142300000Y-79000000D03*
D58*
X123069998Y-78970000D03*
X124970000Y-78970000D03*
X124019999Y-76938000D03*
D59*
X112900000Y-101800000D03*
X112900000Y-99975000D03*
D18*
X167312500Y-85600000D03*
X169037500Y-85600000D03*
M02*
