%TF.GenerationSoftware,KiCad,Pcbnew,8.0.6*%
%TF.CreationDate,2026-01-02T17:32:48-08:00*%
%TF.ProjectId,LoRa_Board,4c6f5261-5f42-46f6-9172-642e6b696361,rev?*%
%TF.SameCoordinates,PX6052340PY7459280*%
%TF.FileFunction,Paste,Top*%
%TF.FilePolarity,Positive*%
%FSLAX46Y46*%
G04 Gerber Fmt 4.6, Leading zero omitted, Abs format (unit mm)*
G04 Created by KiCad (PCBNEW 8.0.6) date 2026-01-02 17:32:48*
%MOMM*%
%LPD*%
G01*
G04 APERTURE LIST*
G04 Aperture macros list*
%AMRoundRect*
0 Rectangle with rounded corners*
0 $1 Rounding radius*
0 $2 $3 $4 $5 $6 $7 $8 $9 X,Y pos of 4 corners*
0 Add a 4 corners polygon primitive as box body*
4,1,4,$2,$3,$4,$5,$6,$7,$8,$9,$2,$3,0*
0 Add four circle primitives for the rounded corners*
1,1,$1+$1,$2,$3*
1,1,$1+$1,$4,$5*
1,1,$1+$1,$6,$7*
1,1,$1+$1,$8,$9*
0 Add four rect primitives between the rounded corners*
20,1,$1+$1,$2,$3,$4,$5,0*
20,1,$1+$1,$4,$5,$6,$7,0*
20,1,$1+$1,$6,$7,$8,$9,0*
20,1,$1+$1,$8,$9,$2,$3,0*%
G04 Aperture macros list end*
%ADD10RoundRect,0.250000X-0.262500X-0.450000X0.262500X-0.450000X0.262500X0.450000X-0.262500X0.450000X0*%
%ADD11R,0.800000X0.250000*%
%ADD12R,0.250000X0.800000*%
%ADD13R,1.600000X1.600000*%
%ADD14RoundRect,0.237500X0.300000X0.237500X-0.300000X0.237500X-0.300000X-0.237500X0.300000X-0.237500X0*%
%ADD15RoundRect,0.250000X-0.475000X0.250000X-0.475000X-0.250000X0.475000X-0.250000X0.475000X0.250000X0*%
%ADD16RoundRect,0.250000X-0.250000X-0.475000X0.250000X-0.475000X0.250000X0.475000X-0.250000X0.475000X0*%
%ADD17RoundRect,0.225000X0.225000X0.250000X-0.225000X0.250000X-0.225000X-0.250000X0.225000X-0.250000X0*%
%ADD18RoundRect,0.237500X-0.300000X-0.237500X0.300000X-0.237500X0.300000X0.237500X-0.300000X0.237500X0*%
%ADD19RoundRect,0.250000X0.475000X-0.250000X0.475000X0.250000X-0.475000X0.250000X-0.475000X-0.250000X0*%
%ADD20RoundRect,0.250000X0.250000X0.475000X-0.250000X0.475000X-0.250000X-0.475000X0.250000X-0.475000X0*%
%ADD21RoundRect,0.237500X0.237500X-0.287500X0.237500X0.287500X-0.237500X0.287500X-0.237500X-0.287500X0*%
%ADD22RoundRect,0.250000X0.262500X0.450000X-0.262500X0.450000X-0.262500X-0.450000X0.262500X-0.450000X0*%
%ADD23RoundRect,0.237500X-0.237500X0.300000X-0.237500X-0.300000X0.237500X-0.300000X0.237500X0.300000X0*%
%ADD24RoundRect,0.237500X0.237500X-0.300000X0.237500X0.300000X-0.237500X0.300000X-0.237500X-0.300000X0*%
%ADD25RoundRect,0.237500X-0.287500X-0.237500X0.287500X-0.237500X0.287500X0.237500X-0.287500X0.237500X0*%
%ADD26RoundRect,0.250000X-0.450000X0.262500X-0.450000X-0.262500X0.450000X-0.262500X0.450000X0.262500X0*%
%ADD27R,4.300000X1.450000*%
%ADD28R,4.300000X1.370000*%
%ADD29R,1.100000X1.300000*%
%ADD30RoundRect,0.237500X0.287500X0.237500X-0.287500X0.237500X-0.287500X-0.237500X0.287500X-0.237500X0*%
%ADD31R,0.360000X0.210000*%
%ADD32R,0.310000X0.210000*%
%ADD33R,1.450000X0.600000*%
%ADD34R,1.450000X0.300000*%
%ADD35RoundRect,0.150000X0.512500X0.150000X-0.512500X0.150000X-0.512500X-0.150000X0.512500X-0.150000X0*%
%ADD36RoundRect,0.225000X-0.225000X-0.275000X0.225000X-0.275000X0.225000X0.275000X-0.225000X0.275000X0*%
%ADD37RoundRect,0.137500X-0.712500X-0.137500X0.712500X-0.137500X0.712500X0.137500X-0.712500X0.137500X0*%
%ADD38RoundRect,0.225000X-0.225000X-0.250000X0.225000X-0.250000X0.225000X0.250000X-0.225000X0.250000X0*%
%ADD39R,1.400000X1.200000*%
%ADD40RoundRect,0.237500X-0.237500X0.287500X-0.237500X-0.287500X0.237500X-0.287500X0.237500X0.287500X0*%
%ADD41R,0.300000X1.000000*%
%ADD42R,1.650000X1.300000*%
%ADD43R,1.200000X10.000000*%
%ADD44R,1.200000X6.700000*%
%ADD45R,10.000000X1.200000*%
%ADD46R,1.900000X1.200000*%
%ADD47R,1.200000X3.900000*%
%ADD48R,1.200000X10.800000*%
%ADD49RoundRect,0.250000X0.315000X-0.315000X0.315000X0.315000X-0.315000X0.315000X-0.315000X-0.315000X0*%
%ADD50RoundRect,0.062500X0.062500X-0.375000X0.062500X0.375000X-0.062500X0.375000X-0.062500X-0.375000X0*%
%ADD51RoundRect,0.062500X0.375000X-0.062500X0.375000X0.062500X-0.375000X0.062500X-0.375000X-0.062500X0*%
%ADD52RoundRect,0.250000X-0.325000X-0.450000X0.325000X-0.450000X0.325000X0.450000X-0.325000X0.450000X0*%
%ADD53R,1.100000X0.650000*%
%ADD54R,0.400000X1.200000*%
%ADD55R,1.550000X2.150000*%
%ADD56R,0.210000X0.360000*%
%ADD57R,0.210000X0.310000*%
%ADD58R,0.558800X1.320800*%
%ADD59RoundRect,0.250000X0.450000X-0.262500X0.450000X0.262500X-0.450000X0.262500X-0.450000X-0.262500X0*%
G04 APERTURE END LIST*
D10*
%TO.C,R16*%
X16187500Y20400000D03*
X18012500Y20400000D03*
%TD*%
D11*
%TO.C,IC2*%
X74900000Y31400000D03*
X74900000Y30900000D03*
X74900000Y30400000D03*
X74900000Y29900000D03*
D12*
X75600000Y29200000D03*
X76100000Y29200000D03*
X76600000Y29200000D03*
X77100000Y29200000D03*
D11*
X77800000Y29900000D03*
X77800000Y30400000D03*
X77800000Y30900000D03*
X77800000Y31400000D03*
D12*
X77100000Y32100000D03*
X76600000Y32100000D03*
X76100000Y32100000D03*
X75600000Y32100000D03*
D13*
X76350000Y30650000D03*
%TD*%
D14*
%TO.C,C5*%
X59062500Y20300000D03*
X57337500Y20300000D03*
%TD*%
D15*
%TO.C,C27*%
X46900000Y26250000D03*
X46900000Y24350000D03*
%TD*%
D16*
%TO.C,FB3*%
X9650000Y8600000D03*
X11550000Y8600000D03*
%TD*%
D14*
%TO.C,C12*%
X58962500Y28200000D03*
X57237500Y28200000D03*
%TD*%
D17*
%TO.C,C37*%
X49075000Y37000000D03*
X47525000Y37000000D03*
%TD*%
D18*
%TO.C,C51*%
X66337500Y24600000D03*
X68062500Y24600000D03*
%TD*%
D16*
%TO.C,FB5*%
X41650000Y47400000D03*
X43550000Y47400000D03*
%TD*%
D19*
%TO.C,C1*%
X17512500Y1887500D03*
X17512500Y3787500D03*
%TD*%
D17*
%TO.C,C16*%
X44675000Y39300000D03*
X43125000Y39300000D03*
%TD*%
D16*
%TO.C,C29*%
X32137500Y39660000D03*
X34037500Y39660000D03*
%TD*%
D20*
%TO.C,C7*%
X33650000Y26500000D03*
X31750000Y26500000D03*
%TD*%
D21*
%TO.C,L12*%
X57300000Y34625000D03*
X57300000Y36375000D03*
%TD*%
D22*
%TO.C,R12*%
X19412500Y28400000D03*
X17587500Y28400000D03*
%TD*%
D23*
%TO.C,C41*%
X64475000Y38162500D03*
X64475000Y36437500D03*
%TD*%
D24*
%TO.C,C42*%
X64500000Y22837500D03*
X64500000Y24562500D03*
%TD*%
D25*
%TO.C,L20*%
X60900000Y36400000D03*
X62650000Y36400000D03*
%TD*%
D26*
%TO.C,R7*%
X19900000Y39812500D03*
X19900000Y37987500D03*
%TD*%
D15*
%TO.C,C3*%
X13600000Y8850000D03*
X13600000Y6950000D03*
%TD*%
D27*
%TO.C,J10*%
X97049200Y33625000D03*
X97100000Y27975000D03*
D28*
X97049200Y30800000D03*
%TD*%
D29*
%TO.C,OS3*%
X32147500Y37350000D03*
X32147500Y35050000D03*
X34047500Y35050000D03*
X34047500Y37350000D03*
%TD*%
D15*
%TO.C,C28*%
X39600000Y47600000D03*
X39600000Y45700000D03*
%TD*%
D20*
%TO.C,C23*%
X33650000Y24200000D03*
X31750000Y24200000D03*
%TD*%
D30*
%TO.C,L19*%
X86900000Y30825000D03*
X85150000Y30825000D03*
%TD*%
D31*
%TO.C,SW2*%
X57175000Y30000000D03*
D32*
X57200000Y30500000D03*
X57200000Y31000000D03*
X56600000Y31000000D03*
X56600000Y30500000D03*
X56600000Y30000000D03*
%TD*%
D10*
%TO.C,R9*%
X16275000Y14600000D03*
X18100000Y14600000D03*
%TD*%
D33*
%TO.C,J4*%
X7785000Y20750000D03*
X7785000Y19950000D03*
D34*
X7785000Y18750000D03*
X7785000Y17750000D03*
X7785000Y17250000D03*
X7785000Y16250000D03*
D33*
X7785000Y15050000D03*
X7785000Y14250000D03*
X7785000Y14250000D03*
X7785000Y15050000D03*
D34*
X7785000Y15750000D03*
X7785000Y16750000D03*
X7785000Y18250000D03*
X7785000Y19250000D03*
D33*
X7785000Y19950000D03*
X7785000Y20750000D03*
%TD*%
D20*
%TO.C,C35*%
X38050000Y37300000D03*
X36150000Y37300000D03*
%TD*%
D18*
%TO.C,C22*%
X60837500Y22800000D03*
X62562500Y22800000D03*
%TD*%
D16*
%TO.C,C32*%
X36050000Y24300000D03*
X37950000Y24300000D03*
%TD*%
D35*
%TO.C,U1*%
X13737500Y16550000D03*
X13737500Y17500000D03*
X13737500Y18450000D03*
X11462500Y18450000D03*
X11462500Y17500000D03*
X11462500Y16550000D03*
%TD*%
D15*
%TO.C,C14*%
X15800000Y8850000D03*
X15800000Y6950000D03*
%TD*%
%TO.C,C31*%
X50000000Y41150000D03*
X50000000Y39250000D03*
%TD*%
D14*
%TO.C,C11*%
X59062500Y32800000D03*
X57337500Y32800000D03*
%TD*%
D26*
%TO.C,R13*%
X50000000Y44912500D03*
X50000000Y43087500D03*
%TD*%
D25*
%TO.C,L22*%
X70000000Y36400000D03*
X71750000Y36400000D03*
%TD*%
%TO.C,L8*%
X53625000Y24600000D03*
X55375000Y24600000D03*
%TD*%
D20*
%TO.C,C19*%
X20450000Y12100000D03*
X18550000Y12100000D03*
%TD*%
D36*
%TO.C,U2*%
X15112500Y3412500D03*
X15112500Y1812500D03*
X11012500Y1812500D03*
X11012500Y3412500D03*
D37*
X13062500Y4062500D03*
%TD*%
D26*
%TO.C,R6*%
X11900000Y14812500D03*
X11900000Y12987500D03*
%TD*%
D20*
%TO.C,C9*%
X6950000Y32100000D03*
X5050000Y32100000D03*
%TD*%
D38*
%TO.C,C70*%
X46425000Y39300000D03*
X47975000Y39300000D03*
%TD*%
D14*
%TO.C,C40*%
X81312500Y30825000D03*
X79587500Y30825000D03*
%TD*%
D23*
%TO.C,C15*%
X59075000Y38162500D03*
X59075000Y36437500D03*
%TD*%
D39*
%TO.C,OS4*%
X45260000Y43260000D03*
X47460000Y43260000D03*
X47460000Y44860000D03*
X45260000Y44860000D03*
%TD*%
D18*
%TO.C,C21*%
X60912500Y38200000D03*
X62637500Y38200000D03*
%TD*%
D24*
%TO.C,C13*%
X88600000Y29062500D03*
X88600000Y30787500D03*
%TD*%
%TO.C,C20*%
X83400000Y29062500D03*
X83400000Y30787500D03*
%TD*%
D40*
%TO.C,L1*%
X55500000Y20275000D03*
X55500000Y18525000D03*
%TD*%
D15*
%TO.C,C30*%
X33000000Y30500000D03*
X33000000Y28600000D03*
%TD*%
%TO.C,C44*%
X14200000Y14850000D03*
X14200000Y12950000D03*
%TD*%
D24*
%TO.C,C18*%
X59000000Y22837500D03*
X59000000Y24562500D03*
%TD*%
D41*
%TO.C,FPC1*%
X64025000Y5400000D03*
X64525000Y5400000D03*
X65025000Y5400000D03*
X65525000Y5400000D03*
X66025000Y5400000D03*
X66525000Y5400000D03*
X67025000Y5400000D03*
X67525000Y5400000D03*
X68025000Y5400000D03*
X68525000Y5400000D03*
D42*
X61750000Y3500000D03*
X70800000Y3500000D03*
%TD*%
D25*
%TO.C,L21*%
X60825000Y24600000D03*
X62575000Y24600000D03*
%TD*%
%TO.C,L4*%
X53725000Y36400000D03*
X55475000Y36400000D03*
%TD*%
D43*
%TO.C,SHLD1*%
X26750000Y45360000D03*
X26750000Y35360000D03*
X26750000Y25360000D03*
D44*
X26750000Y17010000D03*
D45*
X32350000Y49760000D03*
X32350000Y14260000D03*
X42350000Y49760000D03*
X42350000Y14260000D03*
X52350000Y49760000D03*
X52350000Y14260000D03*
X62350000Y49760000D03*
X62350000Y14260000D03*
X72350000Y49760000D03*
X72350000Y14260000D03*
X82350000Y49760000D03*
X82350000Y14260000D03*
D46*
X88300000Y49760000D03*
X88300000Y14260000D03*
D43*
X89850000Y45360000D03*
D47*
X89850000Y38410000D03*
D48*
X89850000Y19060000D03*
%TD*%
D20*
%TO.C,C71*%
X47350000Y47360000D03*
X45450000Y47360000D03*
%TD*%
D49*
%TO.C,U4*%
X41300000Y29800000D03*
X42700000Y29800000D03*
X44100000Y29800000D03*
X45500000Y29800000D03*
X41300000Y31200000D03*
X42700000Y31200000D03*
X44100000Y31200000D03*
X45500000Y31200000D03*
X41300000Y32600000D03*
X42700000Y32600000D03*
X44100000Y32600000D03*
X45500000Y32600000D03*
X41300000Y34000000D03*
X42700000Y34000000D03*
X44100000Y34000000D03*
X45500000Y34000000D03*
D50*
X40650000Y28462500D03*
X41150000Y28462500D03*
X41650000Y28462500D03*
X42150000Y28462500D03*
X42650000Y28462500D03*
X43150000Y28462500D03*
X43650000Y28462500D03*
X44150000Y28462500D03*
X44650000Y28462500D03*
X45150000Y28462500D03*
X45650000Y28462500D03*
X46150000Y28462500D03*
D51*
X46837500Y29150000D03*
X46837500Y29650000D03*
X46837500Y30150000D03*
X46837500Y30650000D03*
X46837500Y31150000D03*
X46837500Y31650000D03*
X46837500Y32150000D03*
X46837500Y32650000D03*
X46837500Y33150000D03*
X46837500Y33650000D03*
X46837500Y34150000D03*
X46837500Y34650000D03*
D50*
X46150000Y35337500D03*
X45650000Y35337500D03*
X45150000Y35337500D03*
X44650000Y35337500D03*
X44150000Y35337500D03*
X43650000Y35337500D03*
X43150000Y35337500D03*
X42650000Y35337500D03*
X42150000Y35337500D03*
X41650000Y35337500D03*
X41150000Y35337500D03*
X40650000Y35337500D03*
D51*
X39962500Y34650000D03*
X39962500Y34150000D03*
X39962500Y33650000D03*
X39962500Y33150000D03*
X39962500Y32650000D03*
X39962500Y32150000D03*
X39962500Y31650000D03*
X39962500Y31150000D03*
X39962500Y30650000D03*
X39962500Y30150000D03*
X39962500Y29650000D03*
X39962500Y29150000D03*
%TD*%
D25*
%TO.C,L23*%
X70025000Y24600000D03*
X71775000Y24600000D03*
%TD*%
D26*
%TO.C,R14*%
X41300000Y20912500D03*
X41300000Y19087500D03*
%TD*%
D23*
%TO.C,C78*%
X73575000Y38162500D03*
X73575000Y36437500D03*
%TD*%
D52*
%TO.C,L3*%
X36025000Y26560000D03*
X38075000Y26560000D03*
%TD*%
D15*
%TO.C,C25*%
X37300000Y47600000D03*
X37300000Y45700000D03*
%TD*%
D53*
%TO.C,Z3*%
X21910000Y39830000D03*
X21910000Y37910000D03*
X24010000Y38870000D03*
%TD*%
D19*
%TO.C,C38*%
X14100000Y20200000D03*
X14100000Y22100000D03*
%TD*%
D54*
%TO.C,U6*%
X24222500Y20100000D03*
X23587500Y20100000D03*
X22952500Y20100000D03*
X22317500Y20100000D03*
X21682500Y20100000D03*
X21047500Y20100000D03*
X20412500Y20100000D03*
X19777500Y20100000D03*
X19777500Y14900000D03*
X20412500Y14900000D03*
X21047500Y14900000D03*
X21682500Y14900000D03*
X22317500Y14900000D03*
X22952500Y14900000D03*
X23587500Y14900000D03*
X24222500Y14900000D03*
%TD*%
D24*
%TO.C,C79*%
X73700000Y22837500D03*
X73700000Y24562500D03*
%TD*%
D55*
%TO.C,D1*%
X11900000Y30350000D03*
X11900000Y24850000D03*
%TD*%
D22*
%TO.C,R4*%
X38000000Y35100000D03*
X36175000Y35100000D03*
%TD*%
D38*
%TO.C,C57*%
X46425000Y41100000D03*
X47975000Y41100000D03*
%TD*%
D20*
%TO.C,C24*%
X9650000Y10800000D03*
X7750000Y10800000D03*
%TD*%
D18*
%TO.C,C8*%
X57337500Y18500000D03*
X59062500Y18500000D03*
%TD*%
D21*
%TO.C,L13*%
X57200000Y24625000D03*
X57200000Y26375000D03*
%TD*%
D56*
%TO.C,SW3*%
X41300000Y42425000D03*
D57*
X41800000Y42400000D03*
X42300000Y42400000D03*
X42300000Y43000000D03*
X41800000Y43000000D03*
X41300000Y43000000D03*
%TD*%
D58*
%TO.C,Q2*%
X22069998Y43030000D03*
X23970000Y43030000D03*
X23019999Y45062000D03*
%TD*%
D59*
%TO.C,R5*%
X11900000Y20200000D03*
X11900000Y22025000D03*
%TD*%
D18*
%TO.C,C43*%
X66312500Y36400000D03*
X68037500Y36400000D03*
%TD*%
M02*
