%TF.GenerationSoftware,KiCad,Pcbnew,8.0.6*%
%TF.CreationDate,2026-01-02T17:32:48-08:00*%
%TF.ProjectId,LoRa_Board,4c6f5261-5f42-46f6-9172-642e6b696361,rev?*%
%TF.SameCoordinates,PX6052340PY7459280*%
%TF.FileFunction,Copper,L2,Inr*%
%TF.FilePolarity,Positive*%
%FSLAX46Y46*%
G04 Gerber Fmt 4.6, Leading zero omitted, Abs format (unit mm)*
G04 Created by KiCad (PCBNEW 8.0.6) date 2026-01-02 17:32:48*
%MOMM*%
%LPD*%
G01*
G04 APERTURE LIST*
%TA.AperFunction,ComponentPad*%
%ADD10C,6.400000*%
%TD*%
%TA.AperFunction,ComponentPad*%
%ADD11C,1.650000*%
%TD*%
%TA.AperFunction,ComponentPad*%
%ADD12R,1.700000X1.700000*%
%TD*%
%TA.AperFunction,ComponentPad*%
%ADD13O,1.700000X1.700000*%
%TD*%
%TA.AperFunction,ComponentPad*%
%ADD14O,2.100000X1.000000*%
%TD*%
%TA.AperFunction,ComponentPad*%
%ADD15O,1.600000X1.000000*%
%TD*%
%TA.AperFunction,ViaPad*%
%ADD16C,0.700000*%
%TD*%
%TA.AperFunction,ViaPad*%
%ADD17C,0.800000*%
%TD*%
G04 APERTURE END LIST*
D10*
%TO.N,GND*%
%TO.C,H6*%
X96000000Y50000000D03*
%TD*%
%TO.N,GND*%
%TO.C,H7*%
X96000000Y7000000D03*
%TD*%
D11*
%TO.N,GND*%
%TO.C,JST1*%
X15500000Y45500000D03*
%TD*%
D12*
%TO.N,GND*%
%TO.C,J2*%
X42500000Y7600000D03*
D13*
X42500000Y5060000D03*
X39960000Y5060000D03*
X37420000Y7600000D03*
X37420000Y5060000D03*
%TD*%
D14*
%TO.N,GND*%
%TO.C,J4*%
X6870000Y21820000D03*
D15*
X2690000Y21820000D03*
D14*
X6870000Y13180000D03*
D15*
X2690000Y13180000D03*
%TD*%
D13*
%TO.N,GND*%
%TO.C,J9*%
X56000000Y5060000D03*
X53460000Y7600000D03*
X53460000Y5060000D03*
X50920000Y5060000D03*
%TD*%
D10*
%TO.N,GND*%
%TO.C,H5*%
X4000000Y50000000D03*
%TD*%
%TO.N,GND*%
%TO.C,H8*%
X4000000Y7000000D03*
%TD*%
D13*
%TO.N,GND*%
%TO.C,J6*%
X23100000Y30955000D03*
%TD*%
D12*
%TO.N,GND*%
%TO.C,J3*%
X7540000Y35920000D03*
D13*
X7540000Y38460000D03*
X7540000Y41000000D03*
X7540000Y43540000D03*
%TD*%
%TO.N,GND*%
%TO.C,J1*%
X26460000Y7600000D03*
X23920000Y7600000D03*
%TD*%
%TO.N,GND*%
%TO.C,J7*%
X82000000Y5060000D03*
X79460000Y7600000D03*
X79460000Y5060000D03*
X76920000Y5060000D03*
%TD*%
D16*
%TO.N,GND*%
X56000000Y16100000D03*
X76000000Y33500000D03*
X76300000Y46100000D03*
X70800000Y23000000D03*
X15800000Y28500000D03*
X72100000Y21800000D03*
X40100000Y25300000D03*
X87100000Y39200000D03*
X79200000Y26200000D03*
X64900000Y33700000D03*
X66800000Y44700000D03*
X55500000Y26000000D03*
X73500000Y44200000D03*
X62000000Y52000000D03*
X79200000Y48000000D03*
X61400000Y35000000D03*
X92900000Y31800000D03*
X55700000Y43200000D03*
X30500000Y37900000D03*
X83200000Y43000000D03*
X62600000Y41300000D03*
X73300000Y20500000D03*
X85700000Y17700000D03*
X29100000Y16000000D03*
X74700000Y40100000D03*
X18000000Y31500000D03*
X55700000Y41200000D03*
X76500000Y17900000D03*
X35450000Y40300000D03*
X68100000Y21000000D03*
X87100000Y29300000D03*
X51500000Y15900000D03*
X87700000Y21300000D03*
X52200000Y39300000D03*
X70300000Y7100000D03*
X69500000Y47500000D03*
X83500000Y34800000D03*
X21400000Y7600000D03*
X86400000Y44400000D03*
X53700000Y44000000D03*
X19500000Y31200000D03*
X63000000Y46500000D03*
X14400000Y10300000D03*
X24000000Y16600000D03*
X45300000Y33900000D03*
X56300000Y21700000D03*
X89300000Y52000000D03*
X85900000Y32200000D03*
X61400000Y45500000D03*
X52200000Y41100000D03*
X75300000Y44800000D03*
X67500000Y17600000D03*
X69700000Y17600000D03*
X84500000Y19000000D03*
X92300000Y34600000D03*
X67600000Y43000000D03*
X34800000Y29500000D03*
X72600000Y45600000D03*
X81700000Y27900000D03*
X58900000Y45500000D03*
X90600000Y31800000D03*
X91400000Y25800000D03*
X57500000Y53000000D03*
X26400000Y10200000D03*
X68900000Y44400000D03*
X53900000Y40800000D03*
X83600000Y37800000D03*
X64600000Y8700000D03*
X35300000Y16100000D03*
X92000000Y23000000D03*
X84700000Y39800000D03*
X45400000Y4000000D03*
X93400000Y38600000D03*
X45900000Y20100000D03*
X47800000Y900000D03*
X33100000Y7800000D03*
X78400000Y36900000D03*
X84700000Y47300000D03*
X65300000Y43500000D03*
X85900000Y37800000D03*
X65100000Y26000000D03*
X87500000Y45800000D03*
X82800000Y17700000D03*
X84200000Y16300000D03*
X77000000Y38400000D03*
X66100000Y23100000D03*
X73500000Y26000000D03*
X60500000Y53000000D03*
X82200000Y41000000D03*
X61500000Y20400000D03*
X93600000Y35700000D03*
X58300000Y31200000D03*
X22600000Y48200000D03*
X98400000Y38500000D03*
X54700000Y17100000D03*
X85300000Y23700000D03*
X75000000Y27700000D03*
X82900000Y51900000D03*
X86400000Y22500000D03*
X55400000Y47800000D03*
X56000000Y52000000D03*
X66200000Y32600000D03*
X64900000Y21300000D03*
X57100000Y42300000D03*
X60300000Y44000000D03*
X63500000Y53000000D03*
X66500000Y53000000D03*
X81200000Y34800000D03*
X78200000Y27500000D03*
X80200000Y40100000D03*
X51100000Y33900000D03*
X36800000Y21600000D03*
X96000000Y38600000D03*
X84500000Y53000000D03*
X31550000Y31900000D03*
X75700000Y41400000D03*
X72500000Y53000000D03*
X70600000Y35100000D03*
X44800000Y52100000D03*
X31400000Y19500000D03*
X50000000Y19700000D03*
X75400000Y38400000D03*
X57300000Y38200000D03*
X45200000Y900000D03*
X78100000Y23000000D03*
X80100000Y36200000D03*
X70300000Y8900000D03*
X28950000Y41950000D03*
X66100000Y35000000D03*
X78100000Y35300000D03*
X64800000Y41300000D03*
X52200000Y45200000D03*
X82200000Y36500000D03*
X62300000Y16600000D03*
X78200000Y33500000D03*
X72000000Y19400000D03*
X73600000Y41500000D03*
X50000000Y21200000D03*
X30200000Y28000000D03*
X69600000Y21800000D03*
X63500000Y33000000D03*
X76000000Y20300000D03*
X62800000Y34100000D03*
X81500000Y53000000D03*
X96400000Y25600000D03*
X78100000Y25100000D03*
X94700000Y37100000D03*
X90600000Y27300000D03*
X44100000Y15900000D03*
X64400000Y16600000D03*
X53000000Y18400000D03*
X24400000Y53100000D03*
X62900000Y26100000D03*
X84000000Y22700000D03*
X83800000Y45900000D03*
X71000000Y39600000D03*
X96000000Y35800000D03*
X92500000Y27000000D03*
X91700000Y33000000D03*
X82400000Y23900000D03*
X93800000Y28200000D03*
X76800000Y36800000D03*
X87000000Y26600000D03*
X63700000Y20400000D03*
X65400000Y17600000D03*
X52400000Y32700000D03*
X81400000Y42400000D03*
X93700000Y33500000D03*
X4100000Y20200000D03*
X54500000Y53000000D03*
X97300000Y37000000D03*
X65000000Y52000000D03*
X97700000Y24300000D03*
X43200000Y41000000D03*
X80200000Y18300000D03*
X58900000Y52000000D03*
X69100000Y39500000D03*
X63900000Y35000000D03*
X39900000Y42500000D03*
X88300000Y34600000D03*
X58400000Y41300000D03*
X63700000Y40000000D03*
X75500000Y53000000D03*
X75100000Y23500000D03*
X32800000Y48000000D03*
X62600000Y19400000D03*
X87000000Y33400000D03*
X77800000Y19100000D03*
X41600000Y33900000D03*
X62500000Y21400000D03*
X82700000Y47500000D03*
X87700000Y18200000D03*
X79200000Y32200000D03*
X15300000Y40600000D03*
X18800000Y23300000D03*
X43500000Y53000000D03*
X78100000Y21000000D03*
X84700000Y33400000D03*
X67300000Y25900000D03*
X79700000Y27900000D03*
X67300000Y33800000D03*
X82400000Y33400000D03*
X86100000Y27900000D03*
X80300000Y33400000D03*
X53100000Y52100000D03*
X53600000Y46400000D03*
X63300000Y17600000D03*
X82500000Y25800000D03*
X78500000Y53000000D03*
X41700000Y30200000D03*
X61600000Y42600000D03*
X29400000Y53000000D03*
X58300000Y16100000D03*
X23700000Y12300000D03*
X78700000Y43400000D03*
X33900000Y53000000D03*
X58800000Y26100000D03*
X48700000Y53000000D03*
X61500000Y40000000D03*
X34800000Y22000000D03*
X78800000Y38500000D03*
X70400000Y46000000D03*
X54400000Y21500000D03*
X32100000Y42400000D03*
X60500000Y19400000D03*
X81800000Y46000000D03*
X58900000Y47600000D03*
X85000000Y26300000D03*
X68200000Y46100000D03*
X57400000Y23100000D03*
X93100000Y24600000D03*
X58900000Y42800000D03*
X84900000Y21200000D03*
X46100000Y53000000D03*
X50300000Y23300000D03*
X80300000Y46900000D03*
X69500000Y53000000D03*
X4700000Y14100000D03*
X53900000Y39300000D03*
X2400000Y15400000D03*
X80000000Y51900000D03*
X75200000Y47600000D03*
X78200000Y40100000D03*
X53500000Y31400000D03*
X86500000Y41300000D03*
X75100000Y35200000D03*
X91000000Y53000000D03*
X80600000Y24900000D03*
X87100000Y36300000D03*
X21800000Y53100000D03*
X90700000Y29800000D03*
X62700000Y6200000D03*
X82500000Y21800000D03*
X68300000Y38100000D03*
X66800000Y21800000D03*
X58700000Y8800000D03*
X86200000Y25100000D03*
X33100000Y5800000D03*
X38500000Y53000000D03*
X81000000Y16800000D03*
X79500000Y34400000D03*
X60500000Y34000000D03*
X79300000Y16100000D03*
X54300000Y42300000D03*
X75000000Y26100000D03*
X71600000Y47600000D03*
X81000000Y20800000D03*
X81500000Y29300000D03*
X51500000Y19900000D03*
X81900000Y19300000D03*
X68000000Y52000000D03*
X42200000Y15800000D03*
X76200000Y24400000D03*
X47400000Y52100000D03*
X54000000Y15900000D03*
X94000000Y22600000D03*
X27100000Y53000000D03*
X77500000Y44800000D03*
X62600000Y44000000D03*
X59500000Y40000000D03*
X71000000Y52000000D03*
X85600000Y45900000D03*
X74900000Y21400000D03*
X66200000Y20300000D03*
X36200000Y53000000D03*
X77000000Y52000000D03*
X98600000Y25600000D03*
X63700000Y42600000D03*
X42200000Y52000000D03*
X92100000Y37100000D03*
X54100000Y32600000D03*
X36900000Y20100000D03*
X82200000Y39100000D03*
X55300000Y45400000D03*
X22000000Y18600000D03*
X61300000Y17600000D03*
X77700000Y41900000D03*
X35800000Y12000000D03*
X73900000Y46500000D03*
X52600000Y34300000D03*
X68700000Y16700000D03*
X50000000Y46800000D03*
X81400000Y32200000D03*
X28800000Y19500000D03*
X69800000Y41000000D03*
X53100000Y23300000D03*
X59500000Y17100000D03*
X68000000Y41200000D03*
X76500000Y39900000D03*
X79600000Y19800000D03*
X68400000Y35100000D03*
X61400000Y47700000D03*
X71400000Y41200000D03*
X79400000Y21900000D03*
X84500000Y44300000D03*
X62900000Y28700000D03*
X64400000Y45000000D03*
X79200000Y29300000D03*
X66500000Y16700000D03*
X60200000Y46600000D03*
X84100000Y41400000D03*
X95100000Y24300000D03*
X84000000Y24800000D03*
X70800000Y20700000D03*
X57400000Y44100000D03*
X30100000Y26000000D03*
X68300000Y23000000D03*
X64400000Y47500000D03*
X89700000Y33100000D03*
X26700000Y12300000D03*
X60500000Y41300000D03*
X91800000Y28500000D03*
X86400000Y19900000D03*
X85500000Y42800000D03*
X60800000Y26100000D03*
X79400000Y45600000D03*
X88300000Y32200000D03*
X1300000Y17900000D03*
X76200000Y22300000D03*
D17*
X37300000Y43800000D03*
D16*
X1400000Y20100000D03*
X82700000Y44400000D03*
X52700000Y17000000D03*
X46100000Y15900000D03*
X83400000Y20200000D03*
X83600000Y32200000D03*
X70900000Y16700000D03*
X49500000Y12000000D03*
X50200000Y52200000D03*
X40400000Y15800000D03*
X16300000Y11900000D03*
X83500000Y27400000D03*
X65800000Y46400000D03*
X69100000Y42700000D03*
X72800000Y35100000D03*
X98900000Y22500000D03*
X34100000Y46700000D03*
X71100000Y44400000D03*
X60400000Y21500000D03*
X34800000Y20100000D03*
X17700000Y43300000D03*
X57000000Y17100000D03*
X54800000Y23300000D03*
X88700000Y27300000D03*
X66000000Y9100000D03*
X70800000Y11300000D03*
X35400000Y48000000D03*
X86100000Y51900000D03*
X78400000Y17600000D03*
X73300000Y16700000D03*
X66200000Y38200000D03*
X15600000Y17400000D03*
X76400000Y43400000D03*
X73400000Y33200000D03*
X57300000Y40000000D03*
X85200000Y29300000D03*
X70100000Y38200000D03*
X74400000Y34100000D03*
X49000000Y30000000D03*
X80800000Y26600000D03*
X74200000Y17600000D03*
X66400000Y41800000D03*
X37375000Y28000000D03*
X72000000Y17600000D03*
X48100000Y15900000D03*
X33900000Y1400000D03*
X52200000Y43000000D03*
X87600000Y42800000D03*
X51200000Y18200000D03*
X43200000Y45700000D03*
X54100000Y34100000D03*
X85800000Y34800000D03*
X65900000Y40000000D03*
X75300000Y16700000D03*
X86600000Y47200000D03*
X79200000Y24100000D03*
X11400000Y44400000D03*
X71900000Y38200000D03*
X11200000Y11400000D03*
X32900000Y16200000D03*
X52200000Y47600000D03*
X67500000Y39700000D03*
X72600000Y40100000D03*
X20300000Y23000000D03*
X43500000Y43300000D03*
X84600000Y36400000D03*
X59100000Y34900000D03*
X80600000Y44200000D03*
X79600000Y42000000D03*
X57900000Y21600000D03*
X37400000Y15800000D03*
X98400000Y35800000D03*
X40900000Y53000000D03*
X96600000Y22600000D03*
X92900000Y29800000D03*
X73900000Y52000000D03*
X57000000Y46600000D03*
X87600000Y23800000D03*
X41600000Y45700000D03*
X60500000Y16100000D03*
X51500000Y53000000D03*
X70700000Y42700000D03*
X77800000Y46900000D03*
X90600000Y34600000D03*
X80600000Y23000000D03*
X93800000Y26100000D03*
X45000000Y8000000D03*
X13500000Y40600000D03*
X74700000Y42800000D03*
X77100000Y16200000D03*
X23300000Y13400000D03*
X89700000Y25800000D03*
X74300000Y19400000D03*
X87500000Y53000000D03*
X20600000Y16900000D03*
X30400000Y40000000D03*
X31500000Y22100000D03*
X86900000Y16300000D03*
X64800000Y19400000D03*
X80500000Y37800000D03*
X69700000Y19400000D03*
X50800000Y37800000D03*
X31600000Y53000000D03*
X67200000Y47700000D03*
X72200000Y42800000D03*
X67300000Y19400000D03*
%TD*%
%TA.AperFunction,Conductor*%
%TO.N,GND*%
G36*
X39494075Y5252993D02*
G01*
X39460000Y5125826D01*
X39460000Y4994174D01*
X39494075Y4867007D01*
X39526988Y4810000D01*
X37853012Y4810000D01*
X37885925Y4867007D01*
X37920000Y4994174D01*
X37920000Y5125826D01*
X37885925Y5252993D01*
X37853012Y5310000D01*
X39526988Y5310000D01*
X39494075Y5252993D01*
G37*
%TD.AperFunction*%
%TA.AperFunction,Conductor*%
G36*
X42034075Y5252993D02*
G01*
X42000000Y5125826D01*
X42000000Y4994174D01*
X42034075Y4867007D01*
X42066988Y4810000D01*
X40393012Y4810000D01*
X40425925Y4867007D01*
X40460000Y4994174D01*
X40460000Y5125826D01*
X40425925Y5252993D01*
X40393012Y5310000D01*
X42066988Y5310000D01*
X42034075Y5252993D01*
G37*
%TD.AperFunction*%
%TA.AperFunction,Conductor*%
G36*
X37670000Y5493012D02*
G01*
X37612993Y5525925D01*
X37485826Y5560000D01*
X37354174Y5560000D01*
X37227007Y5525925D01*
X37170000Y5493012D01*
X37170000Y7166988D01*
X37227007Y7134075D01*
X37354174Y7100000D01*
X37485826Y7100000D01*
X37612993Y7134075D01*
X37670000Y7166988D01*
X37670000Y5493012D01*
G37*
%TD.AperFunction*%
%TA.AperFunction,Conductor*%
G36*
X42750000Y5493012D02*
G01*
X42692993Y5525925D01*
X42565826Y5560000D01*
X42434174Y5560000D01*
X42307007Y5525925D01*
X42250000Y5493012D01*
X42250000Y7166988D01*
X42307007Y7134075D01*
X42434174Y7100000D01*
X42565826Y7100000D01*
X42692993Y7134075D01*
X42750000Y7166988D01*
X42750000Y5493012D01*
G37*
%TD.AperFunction*%
%TA.AperFunction,Conductor*%
G36*
X52994075Y5252993D02*
G01*
X52960000Y5125826D01*
X52960000Y4994174D01*
X52994075Y4867007D01*
X53026988Y4810000D01*
X51353012Y4810000D01*
X51385925Y4867007D01*
X51420000Y4994174D01*
X51420000Y5125826D01*
X51385925Y5252993D01*
X51353012Y5310000D01*
X53026988Y5310000D01*
X52994075Y5252993D01*
G37*
%TD.AperFunction*%
%TA.AperFunction,Conductor*%
G36*
X55534075Y5252993D02*
G01*
X55500000Y5125826D01*
X55500000Y4994174D01*
X55534075Y4867007D01*
X55566988Y4810000D01*
X53893012Y4810000D01*
X53925925Y4867007D01*
X53960000Y4994174D01*
X53960000Y5125826D01*
X53925925Y5252993D01*
X53893012Y5310000D01*
X55566988Y5310000D01*
X55534075Y5252993D01*
G37*
%TD.AperFunction*%
%TA.AperFunction,Conductor*%
G36*
X53710000Y5493012D02*
G01*
X53652993Y5525925D01*
X53525826Y5560000D01*
X53394174Y5560000D01*
X53267007Y5525925D01*
X53210000Y5493012D01*
X53210000Y7166988D01*
X53267007Y7134075D01*
X53394174Y7100000D01*
X53525826Y7100000D01*
X53652993Y7134075D01*
X53710000Y7166988D01*
X53710000Y5493012D01*
G37*
%TD.AperFunction*%
%TA.AperFunction,Conductor*%
G36*
X78994075Y5252993D02*
G01*
X78960000Y5125826D01*
X78960000Y4994174D01*
X78994075Y4867007D01*
X79026988Y4810000D01*
X77353012Y4810000D01*
X77385925Y4867007D01*
X77420000Y4994174D01*
X77420000Y5125826D01*
X77385925Y5252993D01*
X77353012Y5310000D01*
X79026988Y5310000D01*
X78994075Y5252993D01*
G37*
%TD.AperFunction*%
%TA.AperFunction,Conductor*%
G36*
X81534075Y5252993D02*
G01*
X81500000Y5125826D01*
X81500000Y4994174D01*
X81534075Y4867007D01*
X81566988Y4810000D01*
X79893012Y4810000D01*
X79925925Y4867007D01*
X79960000Y4994174D01*
X79960000Y5125826D01*
X79925925Y5252993D01*
X79893012Y5310000D01*
X81566988Y5310000D01*
X81534075Y5252993D01*
G37*
%TD.AperFunction*%
%TA.AperFunction,Conductor*%
G36*
X79710000Y5493012D02*
G01*
X79652993Y5525925D01*
X79525826Y5560000D01*
X79394174Y5560000D01*
X79267007Y5525925D01*
X79210000Y5493012D01*
X79210000Y7166988D01*
X79267007Y7134075D01*
X79394174Y7100000D01*
X79525826Y7100000D01*
X79652993Y7134075D01*
X79710000Y7166988D01*
X79710000Y5493012D01*
G37*
%TD.AperFunction*%
%TA.AperFunction,Conductor*%
G36*
X25994075Y7792993D02*
G01*
X25960000Y7665826D01*
X25960000Y7534174D01*
X25994075Y7407007D01*
X26026988Y7350000D01*
X24353012Y7350000D01*
X24385925Y7407007D01*
X24420000Y7534174D01*
X24420000Y7665826D01*
X24385925Y7792993D01*
X24353012Y7850000D01*
X26026988Y7850000D01*
X25994075Y7792993D01*
G37*
%TD.AperFunction*%
%TA.AperFunction,Conductor*%
G36*
X7790000Y36353012D02*
G01*
X7732993Y36385925D01*
X7605826Y36420000D01*
X7474174Y36420000D01*
X7347007Y36385925D01*
X7290000Y36353012D01*
X7290000Y38026988D01*
X7347007Y37994075D01*
X7474174Y37960000D01*
X7605826Y37960000D01*
X7732993Y37994075D01*
X7790000Y38026988D01*
X7790000Y36353012D01*
G37*
%TD.AperFunction*%
%TA.AperFunction,Conductor*%
G36*
X7790000Y38893012D02*
G01*
X7732993Y38925925D01*
X7605826Y38960000D01*
X7474174Y38960000D01*
X7347007Y38925925D01*
X7290000Y38893012D01*
X7290000Y40566988D01*
X7347007Y40534075D01*
X7474174Y40500000D01*
X7605826Y40500000D01*
X7732993Y40534075D01*
X7790000Y40566988D01*
X7790000Y38893012D01*
G37*
%TD.AperFunction*%
%TA.AperFunction,Conductor*%
G36*
X7790000Y41433012D02*
G01*
X7732993Y41465925D01*
X7605826Y41500000D01*
X7474174Y41500000D01*
X7347007Y41465925D01*
X7290000Y41433012D01*
X7290000Y43106988D01*
X7347007Y43074075D01*
X7474174Y43040000D01*
X7605826Y43040000D01*
X7732993Y43074075D01*
X7790000Y43106988D01*
X7790000Y41433012D01*
G37*
%TD.AperFunction*%
%TA.AperFunction,Conductor*%
G36*
X94710937Y53679815D02*
G01*
X94756692Y53627011D01*
X94766636Y53557853D01*
X94737611Y53494297D01*
X94688336Y53459736D01*
X94493005Y53384756D01*
X94147456Y53208690D01*
X93822206Y52997469D01*
X93564648Y52788905D01*
X93564648Y52788904D01*
X95059301Y51294252D01*
X94957670Y51220412D01*
X94779588Y51042330D01*
X94705748Y50940700D01*
X93211096Y52435352D01*
X93211095Y52435352D01*
X93002531Y52177794D01*
X92791310Y51852544D01*
X92615244Y51506995D01*
X92476262Y51144937D01*
X92375887Y50770331D01*
X92375886Y50770324D01*
X92315219Y50387288D01*
X92294922Y50000001D01*
X92294922Y50000000D01*
X92315219Y49612713D01*
X92375886Y49229677D01*
X92375887Y49229670D01*
X92476262Y48855064D01*
X92615244Y48493006D01*
X92791310Y48147457D01*
X93002531Y47822207D01*
X93211095Y47564650D01*
X93211096Y47564650D01*
X94705748Y49059302D01*
X94779588Y48957670D01*
X94957670Y48779588D01*
X95059300Y48705749D01*
X93564648Y47211097D01*
X93564649Y47211096D01*
X93822206Y47002532D01*
X94147456Y46791311D01*
X94493005Y46615245D01*
X94855063Y46476263D01*
X95229669Y46375888D01*
X95229676Y46375887D01*
X95612712Y46315220D01*
X95999999Y46294922D01*
X96000001Y46294922D01*
X96387287Y46315220D01*
X96770323Y46375887D01*
X96770330Y46375888D01*
X97144936Y46476263D01*
X97506994Y46615245D01*
X97852543Y46791311D01*
X98177783Y47002524D01*
X98177785Y47002525D01*
X98435349Y47211098D01*
X96940698Y48705749D01*
X97042330Y48779588D01*
X97220412Y48957670D01*
X97294251Y49059302D01*
X98788902Y47564651D01*
X98997475Y47822215D01*
X98997476Y47822217D01*
X99208689Y48147457D01*
X99384755Y48493006D01*
X99459736Y48688336D01*
X99502138Y48743868D01*
X99567832Y48767661D01*
X99635960Y48752159D01*
X99684893Y48702286D01*
X99699500Y48643898D01*
X99699500Y8356103D01*
X99679815Y8289064D01*
X99627011Y8243309D01*
X99557853Y8233365D01*
X99494297Y8262390D01*
X99459736Y8311665D01*
X99384755Y8506995D01*
X99208689Y8852544D01*
X98997468Y9177794D01*
X98788904Y9435351D01*
X98788903Y9435352D01*
X97294251Y7940700D01*
X97220412Y8042330D01*
X97042330Y8220412D01*
X96940698Y8294252D01*
X98435350Y9788904D01*
X98435350Y9788905D01*
X98177793Y9997469D01*
X97852543Y10208690D01*
X97506994Y10384756D01*
X97144936Y10523738D01*
X96770330Y10624113D01*
X96770323Y10624114D01*
X96387287Y10684781D01*
X96000001Y10705078D01*
X95999999Y10705078D01*
X95612712Y10684781D01*
X95229676Y10624114D01*
X95229669Y10624113D01*
X94855063Y10523738D01*
X94493005Y10384756D01*
X94147456Y10208690D01*
X93822206Y9997469D01*
X93564648Y9788905D01*
X93564648Y9788904D01*
X95059301Y8294252D01*
X94957670Y8220412D01*
X94779588Y8042330D01*
X94705748Y7940700D01*
X93211096Y9435352D01*
X93211095Y9435352D01*
X93002531Y9177794D01*
X92791310Y8852544D01*
X92615244Y8506995D01*
X92476262Y8144937D01*
X92375887Y7770331D01*
X92375886Y7770324D01*
X92315219Y7387288D01*
X92294922Y7000001D01*
X92294922Y7000000D01*
X92315219Y6612713D01*
X92375886Y6229677D01*
X92375887Y6229670D01*
X92476262Y5855064D01*
X92615244Y5493006D01*
X92791310Y5147457D01*
X93002531Y4822207D01*
X93211095Y4564650D01*
X93211096Y4564650D01*
X94705748Y6059302D01*
X94779588Y5957670D01*
X94957670Y5779588D01*
X95059300Y5705749D01*
X93564648Y4211097D01*
X93564649Y4211096D01*
X93822206Y4002532D01*
X94147456Y3791311D01*
X94493005Y3615245D01*
X94855063Y3476263D01*
X95229669Y3375888D01*
X95229676Y3375887D01*
X95612712Y3315220D01*
X95999999Y3294922D01*
X96000001Y3294922D01*
X96387287Y3315220D01*
X96770323Y3375887D01*
X96770330Y3375888D01*
X97144936Y3476263D01*
X97506994Y3615245D01*
X97852543Y3791311D01*
X98177783Y4002524D01*
X98177785Y4002525D01*
X98435349Y4211098D01*
X96940698Y5705749D01*
X97042330Y5779588D01*
X97220412Y5957670D01*
X97294251Y6059302D01*
X98788902Y4564651D01*
X98997475Y4822215D01*
X98997476Y4822217D01*
X99208689Y5147457D01*
X99384755Y5493006D01*
X99459736Y5688336D01*
X99502138Y5743868D01*
X99567832Y5767661D01*
X99635960Y5752159D01*
X99684893Y5702286D01*
X99699500Y5643898D01*
X99699500Y3203481D01*
X99699305Y3196528D01*
X99681659Y2882312D01*
X99680102Y2868494D01*
X99627969Y2561667D01*
X99624875Y2548111D01*
X99538717Y2249048D01*
X99534124Y2235922D01*
X99415024Y1948389D01*
X99408991Y1935861D01*
X99258442Y1663462D01*
X99251043Y1651688D01*
X99070954Y1397877D01*
X99062285Y1387005D01*
X98854896Y1154937D01*
X98845063Y1145104D01*
X98612995Y937715D01*
X98602123Y929046D01*
X98348312Y748957D01*
X98336538Y741558D01*
X98064139Y591009D01*
X98051611Y584976D01*
X97764078Y465876D01*
X97750952Y461283D01*
X97451889Y375125D01*
X97438333Y372031D01*
X97131506Y319898D01*
X97117688Y318341D01*
X96803472Y300695D01*
X96796519Y300500D01*
X3203481Y300500D01*
X3196528Y300695D01*
X2882311Y318341D01*
X2868493Y319898D01*
X2561666Y372031D01*
X2548110Y375125D01*
X2249047Y461283D01*
X2235921Y465876D01*
X1948388Y584976D01*
X1935860Y591009D01*
X1913853Y603172D01*
X1663457Y741561D01*
X1651692Y748954D01*
X1397872Y929049D01*
X1387004Y937715D01*
X1154936Y1145104D01*
X1145103Y1154937D01*
X1088874Y1217857D01*
X937709Y1387011D01*
X929050Y1397871D01*
X785631Y1600000D01*
X34794353Y1600000D01*
X34814834Y1457544D01*
X34847049Y1387005D01*
X34874623Y1326627D01*
X34968872Y1217857D01*
X35089947Y1140047D01*
X35089950Y1140046D01*
X35089949Y1140046D01*
X35228036Y1099501D01*
X35228038Y1099500D01*
X35228039Y1099500D01*
X35371962Y1099500D01*
X35371962Y1099501D01*
X35510053Y1140047D01*
X35631128Y1217857D01*
X35725377Y1326627D01*
X35785165Y1457543D01*
X35805647Y1600000D01*
X46094353Y1600000D01*
X46114834Y1457544D01*
X46147049Y1387005D01*
X46174623Y1326627D01*
X46268872Y1217857D01*
X46389947Y1140047D01*
X46389950Y1140046D01*
X46389949Y1140046D01*
X46528036Y1099501D01*
X46528038Y1099500D01*
X46528039Y1099500D01*
X46671962Y1099500D01*
X46671962Y1099501D01*
X46810053Y1140047D01*
X46931128Y1217857D01*
X47025377Y1326627D01*
X47085165Y1457543D01*
X47105647Y1600000D01*
X47085165Y1742457D01*
X47025377Y1873373D01*
X46931128Y1982143D01*
X46810053Y2059953D01*
X46810051Y2059954D01*
X46810049Y2059955D01*
X46810050Y2059955D01*
X46671963Y2100500D01*
X46671961Y2100500D01*
X46528039Y2100500D01*
X46528036Y2100500D01*
X46389949Y2059955D01*
X46268873Y1982144D01*
X46174623Y1873374D01*
X46174622Y1873372D01*
X46114834Y1742457D01*
X46094353Y1600000D01*
X35805647Y1600000D01*
X35785165Y1742457D01*
X35725377Y1873373D01*
X35631128Y1982143D01*
X35510053Y2059953D01*
X35510051Y2059954D01*
X35510049Y2059955D01*
X35510050Y2059955D01*
X35371963Y2100500D01*
X35371961Y2100500D01*
X35228039Y2100500D01*
X35228036Y2100500D01*
X35089949Y2059955D01*
X34968873Y1982144D01*
X34874623Y1873374D01*
X34874622Y1873372D01*
X34814834Y1742457D01*
X34794353Y1600000D01*
X785631Y1600000D01*
X748950Y1651697D01*
X741563Y1663453D01*
X591004Y1935868D01*
X584978Y1948382D01*
X465874Y2235923D01*
X461282Y2249048D01*
X375124Y2548111D01*
X372030Y2561667D01*
X348526Y2700000D01*
X44594353Y2700000D01*
X44614834Y2557544D01*
X44616087Y2554801D01*
X44674623Y2426627D01*
X44768872Y2317857D01*
X44889947Y2240047D01*
X44889950Y2240046D01*
X44889949Y2240046D01*
X45028036Y2199501D01*
X45028038Y2199500D01*
X45028039Y2199500D01*
X45171962Y2199500D01*
X45171962Y2199501D01*
X45279121Y2230965D01*
X45310050Y2240046D01*
X45310050Y2240047D01*
X45310053Y2240047D01*
X45431128Y2317857D01*
X45525377Y2426627D01*
X45585165Y2557543D01*
X45605647Y2700000D01*
X45585165Y2842457D01*
X45525377Y2973373D01*
X45431128Y3082143D01*
X45310053Y3159953D01*
X45310051Y3159954D01*
X45310049Y3159955D01*
X45310050Y3159955D01*
X45171963Y3200500D01*
X45171961Y3200500D01*
X45028039Y3200500D01*
X45028036Y3200500D01*
X44889949Y3159955D01*
X44768873Y3082144D01*
X44674623Y2973374D01*
X44674622Y2973372D01*
X44614834Y2842457D01*
X44594353Y2700000D01*
X348526Y2700000D01*
X319897Y2868494D01*
X318340Y2882305D01*
X300695Y3196529D01*
X300500Y3203481D01*
X300500Y5643898D01*
X320185Y5710937D01*
X372989Y5756692D01*
X442147Y5766636D01*
X505703Y5737611D01*
X540264Y5688336D01*
X615244Y5493006D01*
X791310Y5147457D01*
X1002531Y4822207D01*
X1211095Y4564650D01*
X1211096Y4564650D01*
X2705748Y6059302D01*
X2779588Y5957670D01*
X2957670Y5779588D01*
X3059300Y5705749D01*
X1564648Y4211097D01*
X1564649Y4211096D01*
X1822206Y4002532D01*
X2147456Y3791311D01*
X2493005Y3615245D01*
X2855063Y3476263D01*
X3229669Y3375888D01*
X3229676Y3375887D01*
X3612712Y3315220D01*
X3999999Y3294922D01*
X4000001Y3294922D01*
X4387287Y3315220D01*
X4770323Y3375887D01*
X4770330Y3375888D01*
X5144936Y3476263D01*
X5506994Y3615245D01*
X5852543Y3791311D01*
X6177783Y4002524D01*
X6177785Y4002525D01*
X6435349Y4211098D01*
X4940698Y5705749D01*
X5042330Y5779588D01*
X5220412Y5957670D01*
X5294251Y6059302D01*
X6788902Y4564651D01*
X6997475Y4822215D01*
X6997476Y4822217D01*
X7206296Y5143772D01*
X23069500Y5143772D01*
X23069500Y4976229D01*
X23102182Y4811926D01*
X23102184Y4811918D01*
X23166295Y4657140D01*
X23259373Y4517838D01*
X23377837Y4399374D01*
X23403208Y4382422D01*
X23517137Y4306297D01*
X23671918Y4242184D01*
X23828199Y4211098D01*
X23836228Y4209501D01*
X23836232Y4209500D01*
X23836233Y4209500D01*
X24003768Y4209500D01*
X24003769Y4209501D01*
X24168082Y4242184D01*
X24322863Y4306297D01*
X24462162Y4399374D01*
X24580626Y4517838D01*
X24673703Y4657137D01*
X24737816Y4811918D01*
X24770500Y4976233D01*
X24770500Y5143767D01*
X24770499Y5143772D01*
X25609500Y5143772D01*
X25609500Y4976229D01*
X25642182Y4811926D01*
X25642184Y4811918D01*
X25706295Y4657140D01*
X25799373Y4517838D01*
X25917837Y4399374D01*
X25943208Y4382422D01*
X26057137Y4306297D01*
X26211918Y4242184D01*
X26368199Y4211098D01*
X26376228Y4209501D01*
X26376232Y4209500D01*
X26376233Y4209500D01*
X26543768Y4209500D01*
X26543769Y4209501D01*
X26708082Y4242184D01*
X26862863Y4306297D01*
X27002162Y4399374D01*
X27120626Y4517838D01*
X27213703Y4657137D01*
X27277816Y4811918D01*
X27310500Y4976233D01*
X27310500Y5143767D01*
X27310499Y5143772D01*
X28149500Y5143772D01*
X28149500Y4976229D01*
X28182182Y4811926D01*
X28182184Y4811918D01*
X28246295Y4657140D01*
X28339373Y4517838D01*
X28457837Y4399374D01*
X28483208Y4382422D01*
X28597137Y4306297D01*
X28751918Y4242184D01*
X28908199Y4211098D01*
X28916228Y4209501D01*
X28916232Y4209500D01*
X28916233Y4209500D01*
X29083768Y4209500D01*
X29083769Y4209501D01*
X29248082Y4242184D01*
X29402863Y4306297D01*
X29542162Y4399374D01*
X29660626Y4517838D01*
X29753703Y4657137D01*
X29817816Y4811918D01*
X29850500Y4976233D01*
X29850500Y5143767D01*
X29817816Y5308082D01*
X29753703Y5462863D01*
X29688798Y5560000D01*
X29660626Y5602163D01*
X29542162Y5720627D01*
X29402860Y5813705D01*
X29248082Y5877816D01*
X29248074Y5877818D01*
X29083771Y5910500D01*
X29083767Y5910500D01*
X28916233Y5910500D01*
X28916228Y5910500D01*
X28751925Y5877818D01*
X28751917Y5877816D01*
X28597139Y5813705D01*
X28457837Y5720627D01*
X28339373Y5602163D01*
X28246295Y5462861D01*
X28182184Y5308083D01*
X28182182Y5308075D01*
X28149500Y5143772D01*
X27310499Y5143772D01*
X27277816Y5308082D01*
X27213703Y5462863D01*
X27148798Y5560000D01*
X27120626Y5602163D01*
X27002162Y5720627D01*
X26862860Y5813705D01*
X26708082Y5877816D01*
X26708074Y5877818D01*
X26543771Y5910500D01*
X26543767Y5910500D01*
X26376233Y5910500D01*
X26376228Y5910500D01*
X26211925Y5877818D01*
X26211917Y5877816D01*
X26057139Y5813705D01*
X25917837Y5720627D01*
X25799373Y5602163D01*
X25706295Y5462861D01*
X25642184Y5308083D01*
X25642182Y5308075D01*
X25609500Y5143772D01*
X24770499Y5143772D01*
X24737816Y5308082D01*
X24673703Y5462863D01*
X24608798Y5560000D01*
X24580626Y5602163D01*
X24462162Y5720627D01*
X24322860Y5813705D01*
X24168082Y5877816D01*
X24168074Y5877818D01*
X24003771Y5910500D01*
X24003767Y5910500D01*
X23836233Y5910500D01*
X23836228Y5910500D01*
X23671925Y5877818D01*
X23671917Y5877816D01*
X23517139Y5813705D01*
X23377837Y5720627D01*
X23259373Y5602163D01*
X23166295Y5462861D01*
X23102184Y5308083D01*
X23102182Y5308075D01*
X23069500Y5143772D01*
X7206296Y5143772D01*
X7208689Y5147457D01*
X7384755Y5493006D01*
X7523737Y5855064D01*
X7624112Y6229670D01*
X7624113Y6229677D01*
X7684780Y6612713D01*
X7705078Y7000000D01*
X7705078Y7000001D01*
X7684780Y7387288D01*
X7624113Y7770324D01*
X7624112Y7770331D01*
X7602765Y7850001D01*
X22589364Y7850001D01*
X22589364Y7850000D01*
X23486988Y7850000D01*
X23454075Y7792993D01*
X23420000Y7665826D01*
X23420000Y7534174D01*
X23454075Y7407007D01*
X23486988Y7350000D01*
X22589364Y7350000D01*
X22646567Y7136514D01*
X22646570Y7136508D01*
X22746399Y6922422D01*
X22881894Y6728918D01*
X23048917Y6561895D01*
X23242421Y6426400D01*
X23456507Y6326571D01*
X23456516Y6326567D01*
X23670000Y6269366D01*
X23670000Y7166988D01*
X23727007Y7134075D01*
X23854174Y7100000D01*
X23985826Y7100000D01*
X24112993Y7134075D01*
X24170000Y7166988D01*
X24170000Y6269367D01*
X24383483Y6326567D01*
X24383492Y6326571D01*
X24597578Y6426400D01*
X24791082Y6561895D01*
X24958105Y6728918D01*
X25088425Y6915032D01*
X25143002Y6958656D01*
X25212501Y6965849D01*
X25274855Y6934327D01*
X25291575Y6915032D01*
X25421894Y6728918D01*
X25588917Y6561895D01*
X25782421Y6426400D01*
X25996507Y6326571D01*
X25996516Y6326567D01*
X26210000Y6269366D01*
X26210000Y7166988D01*
X26267007Y7134075D01*
X26394174Y7100000D01*
X26525826Y7100000D01*
X26652993Y7134075D01*
X26710000Y7166988D01*
X26710000Y6269367D01*
X26923483Y6326567D01*
X26923492Y6326571D01*
X27137578Y6426400D01*
X27331082Y6561895D01*
X27498105Y6728918D01*
X27633600Y6922422D01*
X27733429Y7136508D01*
X27733432Y7136514D01*
X27790636Y7350000D01*
X26893012Y7350000D01*
X26925925Y7407007D01*
X26960000Y7534174D01*
X26960000Y7665826D01*
X26955191Y7683772D01*
X28149500Y7683772D01*
X28149500Y7516229D01*
X28182182Y7351926D01*
X28182184Y7351918D01*
X28246295Y7197140D01*
X28339373Y7057838D01*
X28457837Y6939374D01*
X28483208Y6922422D01*
X28597137Y6846297D01*
X28751918Y6782184D01*
X28916228Y6749501D01*
X28916232Y6749500D01*
X28916233Y6749500D01*
X29083768Y6749500D01*
X29083769Y6749501D01*
X29248082Y6782184D01*
X29291093Y6800000D01*
X33494353Y6800000D01*
X33514834Y6657544D01*
X33529545Y6625332D01*
X33574623Y6526627D01*
X33668872Y6417857D01*
X33789947Y6340047D01*
X33789950Y6340046D01*
X33789949Y6340046D01*
X33928036Y6299501D01*
X33928038Y6299500D01*
X33928039Y6299500D01*
X34071962Y6299500D01*
X34071962Y6299501D01*
X34210053Y6340047D01*
X34331128Y6417857D01*
X34425377Y6526627D01*
X34485165Y6657543D01*
X34505647Y6800000D01*
X34485165Y6942457D01*
X34425377Y7073373D01*
X34331128Y7182143D01*
X34210053Y7259953D01*
X34210051Y7259954D01*
X34210049Y7259955D01*
X34210050Y7259955D01*
X34071963Y7300500D01*
X34071961Y7300500D01*
X33928039Y7300500D01*
X33928036Y7300500D01*
X33789949Y7259955D01*
X33668873Y7182144D01*
X33574623Y7073374D01*
X33574622Y7073372D01*
X33514834Y6942457D01*
X33494353Y6800000D01*
X29291093Y6800000D01*
X29402863Y6846297D01*
X29542162Y6939374D01*
X29660626Y7057838D01*
X29753703Y7197137D01*
X29817816Y7351918D01*
X29850500Y7516233D01*
X29850500Y7683767D01*
X29817816Y7848082D01*
X29817021Y7850001D01*
X36089364Y7850001D01*
X36089364Y7850000D01*
X36986988Y7850000D01*
X36954075Y7792993D01*
X36920000Y7665826D01*
X36920000Y7534174D01*
X36954075Y7407007D01*
X36986988Y7350000D01*
X36089364Y7350000D01*
X36146567Y7136514D01*
X36146570Y7136508D01*
X36246399Y6922422D01*
X36381894Y6728918D01*
X36548917Y6561895D01*
X36735031Y6431575D01*
X36778656Y6376997D01*
X36785848Y6307499D01*
X36754326Y6245144D01*
X36735031Y6228425D01*
X36548922Y6098110D01*
X36548920Y6098109D01*
X36381891Y5931080D01*
X36381886Y5931074D01*
X36246400Y5737580D01*
X36246399Y5737578D01*
X36146570Y5523493D01*
X36146567Y5523487D01*
X36089364Y5310001D01*
X36089364Y5310000D01*
X36986988Y5310000D01*
X36954075Y5252993D01*
X36920000Y5125826D01*
X36920000Y4994174D01*
X36954075Y4867007D01*
X36986988Y4810000D01*
X36089364Y4810000D01*
X36146567Y4596514D01*
X36146570Y4596508D01*
X36246399Y4382422D01*
X36381894Y4188918D01*
X36548917Y4021895D01*
X36742421Y3886400D01*
X36956507Y3786571D01*
X36956516Y3786567D01*
X37170000Y3729366D01*
X37170000Y4626988D01*
X37227007Y4594075D01*
X37354174Y4560000D01*
X37485826Y4560000D01*
X37612993Y4594075D01*
X37670000Y4626988D01*
X37670000Y3729367D01*
X37883483Y3786567D01*
X37883492Y3786571D01*
X38097578Y3886400D01*
X38291082Y4021895D01*
X38458105Y4188918D01*
X38588425Y4375032D01*
X38643002Y4418656D01*
X38712501Y4425849D01*
X38774855Y4394327D01*
X38791575Y4375032D01*
X38921894Y4188918D01*
X39088917Y4021895D01*
X39282421Y3886400D01*
X39496507Y3786571D01*
X39496516Y3786567D01*
X39710000Y3729366D01*
X39710000Y4626988D01*
X39767007Y4594075D01*
X39894174Y4560000D01*
X40025826Y4560000D01*
X40152993Y4594075D01*
X40210000Y4626988D01*
X40210000Y3729367D01*
X40423483Y3786567D01*
X40423492Y3786571D01*
X40637578Y3886400D01*
X40831082Y4021895D01*
X40998105Y4188918D01*
X41128425Y4375032D01*
X41183002Y4418656D01*
X41252501Y4425849D01*
X41314855Y4394327D01*
X41331575Y4375032D01*
X41461894Y4188918D01*
X41628917Y4021895D01*
X41822421Y3886400D01*
X42036507Y3786571D01*
X42036516Y3786567D01*
X42250000Y3729366D01*
X42250000Y4626988D01*
X42307007Y4594075D01*
X42434174Y4560000D01*
X42565826Y4560000D01*
X42692993Y4594075D01*
X42750000Y4626988D01*
X42750000Y3729367D01*
X42963483Y3786567D01*
X42963492Y3786571D01*
X43177578Y3886400D01*
X43371082Y4021895D01*
X43538105Y4188918D01*
X43673600Y4382422D01*
X43773429Y4596508D01*
X43773432Y4596514D01*
X43830636Y4810000D01*
X42933012Y4810000D01*
X42965925Y4867007D01*
X43000000Y4994174D01*
X43000000Y5125826D01*
X42965925Y5252993D01*
X42933012Y5310000D01*
X43830636Y5310000D01*
X43830635Y5310001D01*
X49589364Y5310001D01*
X49589364Y5310000D01*
X50486988Y5310000D01*
X50454075Y5252993D01*
X50420000Y5125826D01*
X50420000Y4994174D01*
X50454075Y4867007D01*
X50486988Y4810000D01*
X49589364Y4810000D01*
X49646567Y4596514D01*
X49646570Y4596508D01*
X49746399Y4382422D01*
X49881894Y4188918D01*
X50048917Y4021895D01*
X50242421Y3886400D01*
X50456507Y3786571D01*
X50456516Y3786567D01*
X50670000Y3729366D01*
X50670000Y4626988D01*
X50727007Y4594075D01*
X50854174Y4560000D01*
X50985826Y4560000D01*
X51112993Y4594075D01*
X51170000Y4626988D01*
X51170000Y3729366D01*
X51383483Y3786567D01*
X51383492Y3786571D01*
X51597578Y3886400D01*
X51791082Y4021895D01*
X51958105Y4188918D01*
X52088425Y4375032D01*
X52143002Y4418656D01*
X52212501Y4425849D01*
X52274855Y4394327D01*
X52291575Y4375032D01*
X52421894Y4188918D01*
X52588917Y4021895D01*
X52782421Y3886400D01*
X52996507Y3786571D01*
X52996516Y3786567D01*
X53210000Y3729366D01*
X53210000Y4626988D01*
X53267007Y4594075D01*
X53394174Y4560000D01*
X53525826Y4560000D01*
X53652993Y4594075D01*
X53710000Y4626988D01*
X53710000Y3729366D01*
X53923483Y3786567D01*
X53923492Y3786571D01*
X54137578Y3886400D01*
X54331082Y4021895D01*
X54498105Y4188918D01*
X54628425Y4375032D01*
X54683002Y4418656D01*
X54752501Y4425849D01*
X54814855Y4394327D01*
X54831575Y4375032D01*
X54961894Y4188918D01*
X55128917Y4021895D01*
X55322421Y3886400D01*
X55536507Y3786571D01*
X55536516Y3786567D01*
X55750000Y3729366D01*
X55750000Y4626988D01*
X55807007Y4594075D01*
X55934174Y4560000D01*
X56065826Y4560000D01*
X56192993Y4594075D01*
X56250000Y4626988D01*
X56250000Y3729366D01*
X56463483Y3786567D01*
X56463492Y3786571D01*
X56677578Y3886400D01*
X56871082Y4021895D01*
X57038105Y4188918D01*
X57173600Y4382422D01*
X57273429Y4596508D01*
X57273432Y4596514D01*
X57330636Y4810000D01*
X56433012Y4810000D01*
X56465925Y4867007D01*
X56500000Y4994174D01*
X56500000Y5125826D01*
X56465925Y5252993D01*
X56433012Y5310000D01*
X57330636Y5310000D01*
X57330635Y5310001D01*
X75589364Y5310001D01*
X75589364Y5310000D01*
X76486988Y5310000D01*
X76454075Y5252993D01*
X76420000Y5125826D01*
X76420000Y4994174D01*
X76454075Y4867007D01*
X76486988Y4810000D01*
X75589364Y4810000D01*
X75646567Y4596514D01*
X75646570Y4596508D01*
X75746399Y4382422D01*
X75881894Y4188918D01*
X76048917Y4021895D01*
X76242421Y3886400D01*
X76456507Y3786571D01*
X76456516Y3786567D01*
X76670000Y3729366D01*
X76670000Y4626988D01*
X76727007Y4594075D01*
X76854174Y4560000D01*
X76985826Y4560000D01*
X77112993Y4594075D01*
X77170000Y4626988D01*
X77170000Y3729367D01*
X77383483Y3786567D01*
X77383492Y3786571D01*
X77597578Y3886400D01*
X77791082Y4021895D01*
X77958105Y4188918D01*
X78088425Y4375032D01*
X78143002Y4418656D01*
X78212501Y4425849D01*
X78274855Y4394327D01*
X78291575Y4375032D01*
X78421894Y4188918D01*
X78588917Y4021895D01*
X78782421Y3886400D01*
X78996507Y3786571D01*
X78996516Y3786567D01*
X79210000Y3729366D01*
X79210000Y4626988D01*
X79267007Y4594075D01*
X79394174Y4560000D01*
X79525826Y4560000D01*
X79652993Y4594075D01*
X79710000Y4626988D01*
X79710000Y3729366D01*
X79923483Y3786567D01*
X79923492Y3786571D01*
X80137578Y3886400D01*
X80331082Y4021895D01*
X80498105Y4188918D01*
X80628425Y4375032D01*
X80683002Y4418656D01*
X80752501Y4425849D01*
X80814855Y4394327D01*
X80831575Y4375032D01*
X80961894Y4188918D01*
X81128917Y4021895D01*
X81322421Y3886400D01*
X81536507Y3786571D01*
X81536516Y3786567D01*
X81750000Y3729366D01*
X81750000Y4626988D01*
X81807007Y4594075D01*
X81934174Y4560000D01*
X82065826Y4560000D01*
X82192993Y4594075D01*
X82250000Y4626988D01*
X82250000Y3729366D01*
X82463483Y3786567D01*
X82463492Y3786571D01*
X82677578Y3886400D01*
X82871082Y4021895D01*
X83038105Y4188918D01*
X83173600Y4382422D01*
X83273429Y4596508D01*
X83273432Y4596514D01*
X83330636Y4810000D01*
X82433012Y4810000D01*
X82465925Y4867007D01*
X82500000Y4994174D01*
X82500000Y5125826D01*
X82465925Y5252993D01*
X82433012Y5310000D01*
X83330636Y5310000D01*
X83330635Y5310001D01*
X83273432Y5523487D01*
X83273429Y5523493D01*
X83173600Y5737578D01*
X83173599Y5737580D01*
X83038113Y5931074D01*
X83038108Y5931080D01*
X82871082Y6098106D01*
X82677578Y6233601D01*
X82463492Y6333430D01*
X82463486Y6333433D01*
X82250000Y6390636D01*
X82250000Y5493012D01*
X82192993Y5525925D01*
X82065826Y5560000D01*
X81934174Y5560000D01*
X81807007Y5525925D01*
X81750000Y5493012D01*
X81750000Y6390636D01*
X81749999Y6390636D01*
X81536513Y6333433D01*
X81536507Y6333430D01*
X81322422Y6233601D01*
X81322420Y6233600D01*
X81128926Y6098114D01*
X81128920Y6098109D01*
X80961891Y5931080D01*
X80961890Y5931078D01*
X80831575Y5744969D01*
X80776998Y5701345D01*
X80707499Y5694152D01*
X80645145Y5725674D01*
X80628425Y5744969D01*
X80498109Y5931078D01*
X80498108Y5931080D01*
X80331082Y6098106D01*
X80144968Y6228425D01*
X80101344Y6283002D01*
X80094151Y6352501D01*
X80125673Y6414855D01*
X80144968Y6431575D01*
X80331082Y6561895D01*
X80498105Y6728918D01*
X80633600Y6922422D01*
X80733429Y7136508D01*
X80733432Y7136514D01*
X80790636Y7350000D01*
X79893012Y7350000D01*
X79925925Y7407007D01*
X79960000Y7534174D01*
X79960000Y7665826D01*
X79955191Y7683772D01*
X81149500Y7683772D01*
X81149500Y7516229D01*
X81182182Y7351926D01*
X81182184Y7351918D01*
X81246295Y7197140D01*
X81339373Y7057838D01*
X81457837Y6939374D01*
X81483208Y6922422D01*
X81597137Y6846297D01*
X81751918Y6782184D01*
X81916228Y6749501D01*
X81916232Y6749500D01*
X81916233Y6749500D01*
X82083768Y6749500D01*
X82083769Y6749501D01*
X82248082Y6782184D01*
X82402863Y6846297D01*
X82542162Y6939374D01*
X82660626Y7057838D01*
X82753703Y7197137D01*
X82817816Y7351918D01*
X82850500Y7516233D01*
X82850500Y7683767D01*
X82817816Y7848082D01*
X82754889Y8000000D01*
X82753704Y8002861D01*
X82660626Y8142163D01*
X82542162Y8260627D01*
X82402860Y8353705D01*
X82248082Y8417816D01*
X82248074Y8417818D01*
X82083771Y8450500D01*
X82083767Y8450500D01*
X81916233Y8450500D01*
X81916228Y8450500D01*
X81751925Y8417818D01*
X81751917Y8417816D01*
X81597139Y8353705D01*
X81457837Y8260627D01*
X81339373Y8142163D01*
X81246295Y8002861D01*
X81182184Y7848083D01*
X81182182Y7848075D01*
X81149500Y7683772D01*
X79955191Y7683772D01*
X79925925Y7792993D01*
X79893012Y7850000D01*
X80790636Y7850000D01*
X80790635Y7850001D01*
X80733432Y8063487D01*
X80733429Y8063493D01*
X80633600Y8277578D01*
X80633599Y8277580D01*
X80498113Y8471074D01*
X80498108Y8471080D01*
X80331082Y8638106D01*
X80137578Y8773601D01*
X79923492Y8873430D01*
X79923486Y8873433D01*
X79710000Y8930636D01*
X79710000Y8033012D01*
X79652993Y8065925D01*
X79525826Y8100000D01*
X79394174Y8100000D01*
X79267007Y8065925D01*
X79210000Y8033012D01*
X79210000Y8930636D01*
X79209999Y8930636D01*
X78996513Y8873433D01*
X78996507Y8873430D01*
X78782422Y8773601D01*
X78782420Y8773600D01*
X78588926Y8638114D01*
X78588920Y8638109D01*
X78421891Y8471080D01*
X78421886Y8471074D01*
X78286400Y8277580D01*
X78286399Y8277578D01*
X78186570Y8063493D01*
X78186567Y8063487D01*
X78129364Y7850001D01*
X78129364Y7850000D01*
X79026988Y7850000D01*
X78994075Y7792993D01*
X78960000Y7665826D01*
X78960000Y7534174D01*
X78994075Y7407007D01*
X79026988Y7350000D01*
X78129364Y7350000D01*
X78186567Y7136514D01*
X78186570Y7136508D01*
X78286399Y6922422D01*
X78421894Y6728918D01*
X78588917Y6561895D01*
X78775031Y6431575D01*
X78818656Y6376997D01*
X78825848Y6307499D01*
X78794326Y6245144D01*
X78775031Y6228425D01*
X78588922Y6098110D01*
X78588920Y6098109D01*
X78421891Y5931080D01*
X78421890Y5931078D01*
X78291575Y5744969D01*
X78236998Y5701345D01*
X78167499Y5694152D01*
X78105145Y5725674D01*
X78088425Y5744969D01*
X77958109Y5931078D01*
X77958108Y5931080D01*
X77791082Y6098106D01*
X77597578Y6233601D01*
X77383492Y6333430D01*
X77383486Y6333433D01*
X77170000Y6390636D01*
X77170000Y5493012D01*
X77112993Y5525925D01*
X76985826Y5560000D01*
X76854174Y5560000D01*
X76727007Y5525925D01*
X76670000Y5493012D01*
X76670000Y6390636D01*
X76669999Y6390636D01*
X76456513Y6333433D01*
X76456507Y6333430D01*
X76242422Y6233601D01*
X76242420Y6233600D01*
X76048926Y6098114D01*
X76048920Y6098109D01*
X75881891Y5931080D01*
X75881886Y5931074D01*
X75746400Y5737580D01*
X75746399Y5737578D01*
X75646570Y5523493D01*
X75646567Y5523487D01*
X75589364Y5310001D01*
X57330635Y5310001D01*
X57273432Y5523487D01*
X57273429Y5523493D01*
X57173600Y5737578D01*
X57173599Y5737580D01*
X57038113Y5931074D01*
X57038108Y5931080D01*
X56871082Y6098106D01*
X56677578Y6233601D01*
X56463492Y6333430D01*
X56463486Y6333433D01*
X56250000Y6390636D01*
X56250000Y5493012D01*
X56192993Y5525925D01*
X56065826Y5560000D01*
X55934174Y5560000D01*
X55807007Y5525925D01*
X55750000Y5493012D01*
X55750000Y6390636D01*
X55749999Y6390636D01*
X55536513Y6333433D01*
X55536507Y6333430D01*
X55322422Y6233601D01*
X55322420Y6233600D01*
X55128926Y6098114D01*
X55128920Y6098109D01*
X54961891Y5931080D01*
X54961890Y5931078D01*
X54831575Y5744969D01*
X54776998Y5701345D01*
X54707499Y5694152D01*
X54645145Y5725674D01*
X54628425Y5744969D01*
X54498109Y5931078D01*
X54498108Y5931080D01*
X54331082Y6098106D01*
X54144968Y6228425D01*
X54101344Y6283002D01*
X54094151Y6352501D01*
X54125673Y6414855D01*
X54144968Y6431575D01*
X54331082Y6561895D01*
X54498105Y6728918D01*
X54633600Y6922422D01*
X54733429Y7136508D01*
X54733432Y7136514D01*
X54790636Y7350000D01*
X53893012Y7350000D01*
X53925925Y7407007D01*
X53960000Y7534174D01*
X53960000Y7665826D01*
X53955191Y7683772D01*
X55149500Y7683772D01*
X55149500Y7516229D01*
X55182182Y7351926D01*
X55182184Y7351918D01*
X55246295Y7197140D01*
X55339373Y7057838D01*
X55457837Y6939374D01*
X55483208Y6922422D01*
X55597137Y6846297D01*
X55751918Y6782184D01*
X55916228Y6749501D01*
X55916232Y6749500D01*
X55916233Y6749500D01*
X56083768Y6749500D01*
X56083769Y6749501D01*
X56248082Y6782184D01*
X56402863Y6846297D01*
X56542162Y6939374D01*
X56660626Y7057838D01*
X56753703Y7197137D01*
X56817816Y7351918D01*
X56847271Y7500000D01*
X64394353Y7500000D01*
X64414834Y7357544D01*
X64440886Y7300500D01*
X64474623Y7226627D01*
X64568872Y7117857D01*
X64689947Y7040047D01*
X64689950Y7040046D01*
X64689949Y7040046D01*
X64797107Y7008583D01*
X64826336Y7000000D01*
X64828036Y6999501D01*
X64828038Y6999500D01*
X64828039Y6999500D01*
X64971962Y6999500D01*
X64971962Y6999501D01*
X65110053Y7040047D01*
X65231128Y7117857D01*
X65325377Y7226627D01*
X65385165Y7357543D01*
X65405647Y7500000D01*
X65385165Y7642457D01*
X65325377Y7773373D01*
X65231128Y7882143D01*
X65110053Y7959953D01*
X65110051Y7959954D01*
X65110049Y7959955D01*
X65110050Y7959955D01*
X64971963Y8000500D01*
X64971961Y8000500D01*
X64828039Y8000500D01*
X64828036Y8000500D01*
X64689949Y7959955D01*
X64568873Y7882144D01*
X64474623Y7773374D01*
X64474622Y7773372D01*
X64414834Y7642457D01*
X64394353Y7500000D01*
X56847271Y7500000D01*
X56850500Y7516233D01*
X56850500Y7683767D01*
X56817816Y7848082D01*
X56754889Y8000000D01*
X56753704Y8002861D01*
X56705503Y8075000D01*
X66494353Y8075000D01*
X66514834Y7932544D01*
X66574622Y7801629D01*
X66574623Y7801627D01*
X66668872Y7692857D01*
X66789947Y7615047D01*
X66789950Y7615046D01*
X66789949Y7615046D01*
X66928036Y7574501D01*
X66928038Y7574500D01*
X66928039Y7574500D01*
X67071962Y7574500D01*
X67071962Y7574501D01*
X67210053Y7615047D01*
X67331128Y7692857D01*
X67425377Y7801627D01*
X67485165Y7932543D01*
X67494864Y8000000D01*
X68744750Y8000000D01*
X68760266Y7882143D01*
X68763670Y7856292D01*
X68763671Y7856288D01*
X68819137Y7722378D01*
X68819138Y7722376D01*
X68819139Y7722375D01*
X68907379Y7607379D01*
X69022375Y7519139D01*
X69022376Y7519139D01*
X69022377Y7519138D01*
X69029393Y7516232D01*
X69156291Y7463670D01*
X69283280Y7446952D01*
X69299999Y7444750D01*
X69300000Y7444750D01*
X69300001Y7444750D01*
X69314977Y7446722D01*
X69443709Y7463670D01*
X69577625Y7519139D01*
X69692621Y7607379D01*
X69751240Y7683772D01*
X76069500Y7683772D01*
X76069500Y7516229D01*
X76102182Y7351926D01*
X76102184Y7351918D01*
X76166295Y7197140D01*
X76259373Y7057838D01*
X76377837Y6939374D01*
X76403208Y6922422D01*
X76517137Y6846297D01*
X76671918Y6782184D01*
X76836228Y6749501D01*
X76836232Y6749500D01*
X76836233Y6749500D01*
X77003768Y6749500D01*
X77003769Y6749501D01*
X77168082Y6782184D01*
X77322863Y6846297D01*
X77462162Y6939374D01*
X77580626Y7057838D01*
X77673703Y7197137D01*
X77737816Y7351918D01*
X77770500Y7516233D01*
X77770500Y7683767D01*
X77737816Y7848082D01*
X77674889Y8000000D01*
X77673704Y8002861D01*
X77580626Y8142163D01*
X77462162Y8260627D01*
X77322860Y8353705D01*
X77168082Y8417816D01*
X77168074Y8417818D01*
X77003771Y8450500D01*
X77003767Y8450500D01*
X76836233Y8450500D01*
X76836228Y8450500D01*
X76671925Y8417818D01*
X76671917Y8417816D01*
X76517139Y8353705D01*
X76377837Y8260627D01*
X76259373Y8142163D01*
X76166295Y8002861D01*
X76102184Y7848083D01*
X76102182Y7848075D01*
X76069500Y7683772D01*
X69751240Y7683772D01*
X69780861Y7722375D01*
X69836330Y7856291D01*
X69855250Y8000000D01*
X69836330Y8143709D01*
X69787902Y8260627D01*
X69780862Y8277623D01*
X69780861Y8277624D01*
X69780861Y8277625D01*
X69692621Y8392621D01*
X69577625Y8480861D01*
X69577624Y8480862D01*
X69577622Y8480863D01*
X69443712Y8536329D01*
X69443710Y8536330D01*
X69443709Y8536330D01*
X69371854Y8545790D01*
X69300001Y8555250D01*
X69299999Y8555250D01*
X69156291Y8536330D01*
X69156287Y8536329D01*
X69022377Y8480863D01*
X68907379Y8392621D01*
X68819137Y8277623D01*
X68763671Y8143713D01*
X68763670Y8143709D01*
X68744750Y8000000D01*
X67494864Y8000000D01*
X67505647Y8075000D01*
X67485165Y8217457D01*
X67425377Y8348373D01*
X67331128Y8457143D01*
X67210053Y8534953D01*
X67210051Y8534954D01*
X67210049Y8534955D01*
X67210050Y8534955D01*
X67071963Y8575500D01*
X67071961Y8575500D01*
X66928039Y8575500D01*
X66928036Y8575500D01*
X66789949Y8534955D01*
X66668873Y8457144D01*
X66574623Y8348374D01*
X66574622Y8348372D01*
X66514834Y8217457D01*
X66494353Y8075000D01*
X56705503Y8075000D01*
X56660626Y8142163D01*
X56542162Y8260627D01*
X56402860Y8353705D01*
X56248082Y8417816D01*
X56248074Y8417818D01*
X56083771Y8450500D01*
X56083767Y8450500D01*
X55916233Y8450500D01*
X55916228Y8450500D01*
X55751925Y8417818D01*
X55751917Y8417816D01*
X55597139Y8353705D01*
X55457837Y8260627D01*
X55339373Y8142163D01*
X55246295Y8002861D01*
X55182184Y7848083D01*
X55182182Y7848075D01*
X55149500Y7683772D01*
X53955191Y7683772D01*
X53925925Y7792993D01*
X53893012Y7850000D01*
X54790636Y7850000D01*
X54790635Y7850001D01*
X54733432Y8063487D01*
X54733429Y8063493D01*
X54633600Y8277578D01*
X54633599Y8277580D01*
X54498113Y8471074D01*
X54498108Y8471080D01*
X54331082Y8638106D01*
X54137578Y8773601D01*
X54080965Y8800000D01*
X62794353Y8800000D01*
X62814834Y8657544D01*
X62874622Y8526629D01*
X62874623Y8526627D01*
X62968872Y8417857D01*
X63089947Y8340047D01*
X63089950Y8340046D01*
X63089949Y8340046D01*
X63228036Y8299501D01*
X63228038Y8299500D01*
X63228039Y8299500D01*
X63371962Y8299500D01*
X63371962Y8299501D01*
X63510053Y8340047D01*
X63631128Y8417857D01*
X63725377Y8526627D01*
X63785165Y8657543D01*
X63805647Y8800000D01*
X63785165Y8942457D01*
X63725377Y9073373D01*
X63631128Y9182143D01*
X63510053Y9259953D01*
X63510051Y9259954D01*
X63510049Y9259955D01*
X63510050Y9259955D01*
X63371963Y9300500D01*
X63371961Y9300500D01*
X63228039Y9300500D01*
X63228036Y9300500D01*
X63089949Y9259955D01*
X62968873Y9182144D01*
X62874623Y9073374D01*
X62874622Y9073372D01*
X62814834Y8942457D01*
X62794353Y8800000D01*
X54080965Y8800000D01*
X53923492Y8873430D01*
X53923486Y8873433D01*
X53710000Y8930636D01*
X53710000Y8033012D01*
X53652993Y8065925D01*
X53525826Y8100000D01*
X53394174Y8100000D01*
X53267007Y8065925D01*
X53210000Y8033012D01*
X53210000Y8930636D01*
X53209999Y8930636D01*
X52996513Y8873433D01*
X52996507Y8873430D01*
X52782422Y8773601D01*
X52782420Y8773600D01*
X52588926Y8638114D01*
X52588920Y8638109D01*
X52421891Y8471080D01*
X52421886Y8471074D01*
X52286400Y8277580D01*
X52286399Y8277578D01*
X52186570Y8063493D01*
X52186567Y8063487D01*
X52129364Y7850001D01*
X52129364Y7850000D01*
X53026988Y7850000D01*
X52994075Y7792993D01*
X52960000Y7665826D01*
X52960000Y7534174D01*
X52994075Y7407007D01*
X53026988Y7350000D01*
X52129364Y7350000D01*
X52186567Y7136514D01*
X52186570Y7136508D01*
X52286399Y6922422D01*
X52421894Y6728918D01*
X52588917Y6561895D01*
X52775031Y6431575D01*
X52818656Y6376997D01*
X52825848Y6307499D01*
X52794326Y6245144D01*
X52775031Y6228425D01*
X52588922Y6098110D01*
X52588920Y6098109D01*
X52421891Y5931080D01*
X52421890Y5931078D01*
X52291575Y5744969D01*
X52236998Y5701345D01*
X52167499Y5694152D01*
X52105145Y5725674D01*
X52088425Y5744969D01*
X51958109Y5931078D01*
X51958108Y5931080D01*
X51791082Y6098106D01*
X51597578Y6233601D01*
X51383492Y6333430D01*
X51383486Y6333433D01*
X51170000Y6390636D01*
X51170000Y5493012D01*
X51112993Y5525925D01*
X50985826Y5560000D01*
X50854174Y5560000D01*
X50727007Y5525925D01*
X50670000Y5493012D01*
X50670000Y6390636D01*
X50669999Y6390636D01*
X50456513Y6333433D01*
X50456507Y6333430D01*
X50242422Y6233601D01*
X50242420Y6233600D01*
X50048926Y6098114D01*
X50048920Y6098109D01*
X49881891Y5931080D01*
X49881886Y5931074D01*
X49746400Y5737580D01*
X49746399Y5737578D01*
X49646570Y5523493D01*
X49646567Y5523487D01*
X49589364Y5310001D01*
X43830635Y5310001D01*
X43773432Y5523487D01*
X43773429Y5523493D01*
X43673600Y5737578D01*
X43673599Y5737580D01*
X43538113Y5931074D01*
X43538108Y5931080D01*
X43415665Y6053523D01*
X43382180Y6114846D01*
X43387164Y6184538D01*
X43429036Y6240471D01*
X43460013Y6257386D01*
X43592086Y6306646D01*
X43592093Y6306650D01*
X43707187Y6392810D01*
X43707190Y6392813D01*
X43793350Y6507907D01*
X43793354Y6507914D01*
X43843596Y6642621D01*
X43843598Y6642628D01*
X43849999Y6702156D01*
X43850000Y6702173D01*
X43850000Y7350000D01*
X42933012Y7350000D01*
X42965925Y7407007D01*
X43000000Y7534174D01*
X43000000Y7665826D01*
X42995191Y7683772D01*
X50069500Y7683772D01*
X50069500Y7516229D01*
X50102182Y7351926D01*
X50102184Y7351918D01*
X50166295Y7197140D01*
X50259373Y7057838D01*
X50377837Y6939374D01*
X50403208Y6922422D01*
X50517137Y6846297D01*
X50671918Y6782184D01*
X50836228Y6749501D01*
X50836232Y6749500D01*
X50836233Y6749500D01*
X51003768Y6749500D01*
X51003769Y6749501D01*
X51168082Y6782184D01*
X51322863Y6846297D01*
X51462162Y6939374D01*
X51580626Y7057838D01*
X51673703Y7197137D01*
X51737816Y7351918D01*
X51770500Y7516233D01*
X51770500Y7683767D01*
X51737816Y7848082D01*
X51674889Y8000000D01*
X51673704Y8002861D01*
X51580626Y8142163D01*
X51462162Y8260627D01*
X51322860Y8353705D01*
X51168082Y8417816D01*
X51168074Y8417818D01*
X51003771Y8450500D01*
X51003767Y8450500D01*
X50836233Y8450500D01*
X50836228Y8450500D01*
X50671925Y8417818D01*
X50671917Y8417816D01*
X50517139Y8353705D01*
X50377837Y8260627D01*
X50259373Y8142163D01*
X50166295Y8002861D01*
X50102184Y7848083D01*
X50102182Y7848075D01*
X50069500Y7683772D01*
X42995191Y7683772D01*
X42965925Y7792993D01*
X42933012Y7850000D01*
X43850000Y7850000D01*
X43850000Y8497828D01*
X43849999Y8497845D01*
X43843598Y8557373D01*
X43843596Y8557380D01*
X43793354Y8692087D01*
X43793350Y8692094D01*
X43707190Y8807188D01*
X43707187Y8807191D01*
X43592093Y8893351D01*
X43592086Y8893355D01*
X43457379Y8943597D01*
X43457372Y8943599D01*
X43397844Y8950000D01*
X42750000Y8950000D01*
X42750000Y8033012D01*
X42692993Y8065925D01*
X42565826Y8100000D01*
X42434174Y8100000D01*
X42307007Y8065925D01*
X42250000Y8033012D01*
X42250000Y8950000D01*
X41602155Y8950000D01*
X41542627Y8943599D01*
X41542620Y8943597D01*
X41407913Y8893355D01*
X41407906Y8893351D01*
X41292812Y8807191D01*
X41292809Y8807188D01*
X41206649Y8692094D01*
X41206645Y8692087D01*
X41156403Y8557380D01*
X41156401Y8557373D01*
X41150000Y8497845D01*
X41150000Y7850000D01*
X42066988Y7850000D01*
X42034075Y7792993D01*
X42000000Y7665826D01*
X42000000Y7534174D01*
X42034075Y7407007D01*
X42066988Y7350000D01*
X41150000Y7350000D01*
X41150000Y6702156D01*
X41156401Y6642628D01*
X41156403Y6642621D01*
X41206645Y6507914D01*
X41206649Y6507907D01*
X41292809Y6392813D01*
X41292812Y6392810D01*
X41407906Y6306650D01*
X41407913Y6306646D01*
X41539986Y6257386D01*
X41595920Y6215515D01*
X41620337Y6150051D01*
X41605486Y6081778D01*
X41584335Y6053523D01*
X41461888Y5931076D01*
X41331575Y5744969D01*
X41276998Y5701345D01*
X41207499Y5694152D01*
X41145145Y5725674D01*
X41128425Y5744969D01*
X40998109Y5931078D01*
X40998108Y5931080D01*
X40831082Y6098106D01*
X40637578Y6233601D01*
X40423492Y6333430D01*
X40423486Y6333433D01*
X40210000Y6390636D01*
X40210000Y5493012D01*
X40152993Y5525925D01*
X40025826Y5560000D01*
X39894174Y5560000D01*
X39767007Y5525925D01*
X39710000Y5493012D01*
X39710000Y6390636D01*
X39709999Y6390636D01*
X39496513Y6333433D01*
X39496507Y6333430D01*
X39282422Y6233601D01*
X39282420Y6233600D01*
X39088926Y6098114D01*
X39088920Y6098109D01*
X38921891Y5931080D01*
X38921890Y5931078D01*
X38791575Y5744969D01*
X38736998Y5701345D01*
X38667499Y5694152D01*
X38605145Y5725674D01*
X38588425Y5744969D01*
X38458109Y5931078D01*
X38458108Y5931080D01*
X38291082Y6098106D01*
X38104968Y6228425D01*
X38061344Y6283002D01*
X38054151Y6352501D01*
X38085673Y6414855D01*
X38104968Y6431575D01*
X38291082Y6561895D01*
X38458105Y6728918D01*
X38593600Y6922422D01*
X38693429Y7136508D01*
X38693432Y7136514D01*
X38750636Y7350000D01*
X37853012Y7350000D01*
X37885925Y7407007D01*
X37920000Y7534174D01*
X37920000Y7665826D01*
X37915191Y7683772D01*
X39109500Y7683772D01*
X39109500Y7516229D01*
X39142182Y7351926D01*
X39142184Y7351918D01*
X39206295Y7197140D01*
X39299373Y7057838D01*
X39417837Y6939374D01*
X39443208Y6922422D01*
X39557137Y6846297D01*
X39711918Y6782184D01*
X39876228Y6749501D01*
X39876232Y6749500D01*
X39876233Y6749500D01*
X40043768Y6749500D01*
X40043769Y6749501D01*
X40208082Y6782184D01*
X40362863Y6846297D01*
X40502162Y6939374D01*
X40620626Y7057838D01*
X40713703Y7197137D01*
X40777816Y7351918D01*
X40810500Y7516233D01*
X40810500Y7683767D01*
X40777816Y7848082D01*
X40714889Y8000000D01*
X40713704Y8002861D01*
X40620626Y8142163D01*
X40502162Y8260627D01*
X40362860Y8353705D01*
X40208082Y8417816D01*
X40208074Y8417818D01*
X40043771Y8450500D01*
X40043767Y8450500D01*
X39876233Y8450500D01*
X39876228Y8450500D01*
X39711925Y8417818D01*
X39711917Y8417816D01*
X39557139Y8353705D01*
X39417837Y8260627D01*
X39299373Y8142163D01*
X39206295Y8002861D01*
X39142184Y7848083D01*
X39142182Y7848075D01*
X39109500Y7683772D01*
X37915191Y7683772D01*
X37885925Y7792993D01*
X37853012Y7850000D01*
X38750636Y7850000D01*
X38750635Y7850001D01*
X38693432Y8063487D01*
X38693429Y8063493D01*
X38593600Y8277578D01*
X38593599Y8277580D01*
X38458113Y8471074D01*
X38458108Y8471080D01*
X38291082Y8638106D01*
X38097578Y8773601D01*
X37883492Y8873430D01*
X37883486Y8873433D01*
X37670000Y8930636D01*
X37670000Y8033012D01*
X37612993Y8065925D01*
X37485826Y8100000D01*
X37354174Y8100000D01*
X37227007Y8065925D01*
X37170000Y8033012D01*
X37170000Y8930636D01*
X37169999Y8930636D01*
X36956513Y8873433D01*
X36956507Y8873430D01*
X36742422Y8773601D01*
X36742420Y8773600D01*
X36548926Y8638114D01*
X36548920Y8638109D01*
X36381891Y8471080D01*
X36381886Y8471074D01*
X36246400Y8277580D01*
X36246399Y8277578D01*
X36146570Y8063493D01*
X36146567Y8063487D01*
X36089364Y7850001D01*
X29817021Y7850001D01*
X29754889Y8000000D01*
X29753704Y8002861D01*
X29660626Y8142163D01*
X29542162Y8260627D01*
X29402860Y8353705D01*
X29248082Y8417816D01*
X29248074Y8417818D01*
X29083771Y8450500D01*
X29083767Y8450500D01*
X28916233Y8450500D01*
X28916228Y8450500D01*
X28751925Y8417818D01*
X28751917Y8417816D01*
X28597139Y8353705D01*
X28457837Y8260627D01*
X28339373Y8142163D01*
X28246295Y8002861D01*
X28182184Y7848083D01*
X28182182Y7848075D01*
X28149500Y7683772D01*
X26955191Y7683772D01*
X26925925Y7792993D01*
X26893012Y7850000D01*
X27790636Y7850000D01*
X27790635Y7850001D01*
X27733432Y8063487D01*
X27733429Y8063493D01*
X27633600Y8277578D01*
X27633599Y8277580D01*
X27498113Y8471074D01*
X27498108Y8471080D01*
X27331082Y8638106D01*
X27137578Y8773601D01*
X26923492Y8873430D01*
X26923486Y8873433D01*
X26710000Y8930636D01*
X26710000Y8033012D01*
X26652993Y8065925D01*
X26525826Y8100000D01*
X26394174Y8100000D01*
X26267007Y8065925D01*
X26210000Y8033012D01*
X26210000Y8930636D01*
X26209999Y8930636D01*
X25996513Y8873433D01*
X25996507Y8873430D01*
X25782422Y8773601D01*
X25782420Y8773600D01*
X25588926Y8638114D01*
X25588920Y8638109D01*
X25421891Y8471080D01*
X25421890Y8471078D01*
X25291575Y8284969D01*
X25236998Y8241345D01*
X25167499Y8234152D01*
X25105145Y8265674D01*
X25088425Y8284969D01*
X24958109Y8471078D01*
X24958108Y8471080D01*
X24791082Y8638106D01*
X24597578Y8773601D01*
X24383492Y8873430D01*
X24383486Y8873433D01*
X24170000Y8930636D01*
X24170000Y8033012D01*
X24112993Y8065925D01*
X23985826Y8100000D01*
X23854174Y8100000D01*
X23727007Y8065925D01*
X23670000Y8033012D01*
X23670000Y8930636D01*
X23669999Y8930636D01*
X23456513Y8873433D01*
X23456507Y8873430D01*
X23242422Y8773601D01*
X23242420Y8773600D01*
X23048926Y8638114D01*
X23048920Y8638109D01*
X22881891Y8471080D01*
X22881886Y8471074D01*
X22746400Y8277580D01*
X22746399Y8277578D01*
X22646570Y8063493D01*
X22646567Y8063487D01*
X22589364Y7850001D01*
X7602765Y7850001D01*
X7523737Y8144937D01*
X7384755Y8506995D01*
X7208689Y8852544D01*
X6997468Y9177794D01*
X6788904Y9435351D01*
X6788903Y9435352D01*
X5294251Y7940700D01*
X5220412Y8042330D01*
X5042330Y8220412D01*
X4940698Y8294252D01*
X6435350Y9788904D01*
X6435350Y9788905D01*
X6177793Y9997469D01*
X6173896Y10000000D01*
X69094353Y10000000D01*
X69114834Y9857544D01*
X69174622Y9726629D01*
X69174623Y9726627D01*
X69268872Y9617857D01*
X69389947Y9540047D01*
X69389950Y9540046D01*
X69389949Y9540046D01*
X69528036Y9499501D01*
X69528038Y9499500D01*
X69528039Y9499500D01*
X69671962Y9499500D01*
X69671962Y9499501D01*
X69810053Y9540047D01*
X69931128Y9617857D01*
X70025377Y9726627D01*
X70085165Y9857543D01*
X70105647Y10000000D01*
X70085165Y10142457D01*
X70025377Y10273373D01*
X69931128Y10382143D01*
X69810053Y10459953D01*
X69810051Y10459954D01*
X69810049Y10459955D01*
X69810050Y10459955D01*
X69671963Y10500500D01*
X69671961Y10500500D01*
X69528039Y10500500D01*
X69528036Y10500500D01*
X69389949Y10459955D01*
X69268873Y10382144D01*
X69174623Y10273374D01*
X69174622Y10273372D01*
X69114834Y10142457D01*
X69094353Y10000000D01*
X6173896Y10000000D01*
X5852543Y10208690D01*
X5506994Y10384756D01*
X5144936Y10523738D01*
X4860321Y10600000D01*
X15294353Y10600000D01*
X15314834Y10457544D01*
X15348076Y10384756D01*
X15374623Y10326627D01*
X15468872Y10217857D01*
X15589947Y10140047D01*
X15589950Y10140046D01*
X15589949Y10140046D01*
X15728036Y10099501D01*
X15728038Y10099500D01*
X15728039Y10099500D01*
X15871962Y10099500D01*
X15871962Y10099501D01*
X16010053Y10140047D01*
X16131128Y10217857D01*
X16225377Y10326627D01*
X16285165Y10457543D01*
X16305647Y10600000D01*
X16285165Y10742457D01*
X16225377Y10873373D01*
X16131128Y10982143D01*
X16010053Y11059953D01*
X16010051Y11059954D01*
X16010049Y11059955D01*
X16010050Y11059955D01*
X15871963Y11100500D01*
X15871961Y11100500D01*
X15728039Y11100500D01*
X15728036Y11100500D01*
X15589949Y11059955D01*
X15468873Y10982144D01*
X15374623Y10873374D01*
X15374622Y10873372D01*
X15314834Y10742457D01*
X15294353Y10600000D01*
X4860321Y10600000D01*
X4770330Y10624113D01*
X4770323Y10624114D01*
X4387287Y10684781D01*
X4000001Y10705078D01*
X3999999Y10705078D01*
X3612712Y10684781D01*
X3229676Y10624114D01*
X3229669Y10624113D01*
X2855063Y10523738D01*
X2493005Y10384756D01*
X2147456Y10208690D01*
X1822206Y9997469D01*
X1564648Y9788905D01*
X1564648Y9788904D01*
X3059301Y8294252D01*
X2957670Y8220412D01*
X2779588Y8042330D01*
X2705748Y7940700D01*
X1211096Y9435352D01*
X1211095Y9435352D01*
X1002531Y9177794D01*
X791310Y8852544D01*
X615244Y8506995D01*
X540264Y8311665D01*
X497862Y8256133D01*
X432168Y8232340D01*
X364039Y8247842D01*
X315107Y8297715D01*
X300500Y8356103D01*
X300500Y11300000D01*
X25294353Y11300000D01*
X25314834Y11157544D01*
X25340886Y11100500D01*
X25374623Y11026627D01*
X25468872Y10917857D01*
X25589947Y10840047D01*
X25589950Y10840046D01*
X25589949Y10840046D01*
X25728036Y10799501D01*
X25728038Y10799500D01*
X25728039Y10799500D01*
X25871962Y10799500D01*
X25871962Y10799501D01*
X26010053Y10840047D01*
X26131128Y10917857D01*
X26225377Y11026627D01*
X26285165Y11157543D01*
X26305647Y11300000D01*
X26285165Y11442457D01*
X26225377Y11573373D01*
X26131128Y11682143D01*
X26010053Y11759953D01*
X26010051Y11759954D01*
X26010049Y11759955D01*
X26010050Y11759955D01*
X25871963Y11800500D01*
X25871961Y11800500D01*
X25728039Y11800500D01*
X25728036Y11800500D01*
X25589949Y11759955D01*
X25468873Y11682144D01*
X25374623Y11573374D01*
X25374622Y11573372D01*
X25314834Y11442457D01*
X25294353Y11300000D01*
X300500Y11300000D01*
X300500Y13430000D01*
X1420138Y13430000D01*
X2223012Y13430000D01*
X2205795Y13420060D01*
X2149940Y13364205D01*
X2110444Y13295796D01*
X2090000Y13219496D01*
X2090000Y13140504D01*
X2110444Y13064204D01*
X2149940Y12995795D01*
X2205795Y12939940D01*
X2223012Y12930000D01*
X1420138Y12930000D01*
X1428430Y12888310D01*
X1428430Y12888308D01*
X1503807Y12706329D01*
X1503814Y12706316D01*
X1613248Y12542538D01*
X1613251Y12542534D01*
X1752533Y12403252D01*
X1752537Y12403249D01*
X1916315Y12293815D01*
X1916328Y12293808D01*
X2098306Y12218431D01*
X2098318Y12218428D01*
X2291504Y12180001D01*
X2291508Y12180000D01*
X2440000Y12180000D01*
X2440000Y12880000D01*
X2940000Y12880000D01*
X2940000Y12180000D01*
X3088492Y12180000D01*
X3088495Y12180001D01*
X3281681Y12218428D01*
X3281693Y12218431D01*
X3463671Y12293808D01*
X3463684Y12293815D01*
X3627462Y12403249D01*
X3627466Y12403252D01*
X3766748Y12542534D01*
X3766751Y12542538D01*
X3876185Y12706316D01*
X3876192Y12706329D01*
X3951569Y12888308D01*
X3951569Y12888310D01*
X3959862Y12930000D01*
X3156988Y12930000D01*
X3174205Y12939940D01*
X3230060Y12995795D01*
X3269556Y13064204D01*
X3290000Y13140504D01*
X3290000Y13219496D01*
X3269556Y13295796D01*
X3230060Y13364205D01*
X3174205Y13420060D01*
X3156988Y13430000D01*
X3959862Y13430000D01*
X5350138Y13430000D01*
X6153012Y13430000D01*
X6135795Y13420060D01*
X6079940Y13364205D01*
X6040444Y13295796D01*
X6020000Y13219496D01*
X6020000Y13140504D01*
X6040444Y13064204D01*
X6079940Y12995795D01*
X6135795Y12939940D01*
X6153012Y12930000D01*
X5350138Y12930000D01*
X5358430Y12888310D01*
X5358430Y12888308D01*
X5433807Y12706329D01*
X5433814Y12706316D01*
X5543248Y12542538D01*
X5543251Y12542534D01*
X5682533Y12403252D01*
X5682537Y12403249D01*
X5846315Y12293815D01*
X5846328Y12293808D01*
X6028306Y12218431D01*
X6028318Y12218428D01*
X6221504Y12180001D01*
X6221508Y12180000D01*
X6620000Y12180000D01*
X6620000Y12880000D01*
X7120000Y12880000D01*
X7120000Y12180000D01*
X7518492Y12180000D01*
X7518495Y12180001D01*
X7711681Y12218428D01*
X7711693Y12218431D01*
X7893671Y12293808D01*
X7893684Y12293815D01*
X8052600Y12400000D01*
X21894353Y12400000D01*
X21914834Y12257544D01*
X21974622Y12126629D01*
X21974623Y12126627D01*
X22068872Y12017857D01*
X22189947Y11940047D01*
X22189950Y11940046D01*
X22189949Y11940046D01*
X22328036Y11899501D01*
X22328038Y11899500D01*
X22328039Y11899500D01*
X22471962Y11899500D01*
X22471962Y11899501D01*
X22610053Y11940047D01*
X22703342Y12000000D01*
X47594353Y12000000D01*
X47614834Y11857544D01*
X47640886Y11800500D01*
X47674623Y11726627D01*
X47768872Y11617857D01*
X47889947Y11540047D01*
X47889950Y11540046D01*
X47889949Y11540046D01*
X48028036Y11499501D01*
X48028038Y11499500D01*
X48028039Y11499500D01*
X48171962Y11499500D01*
X48171962Y11499501D01*
X48310053Y11540047D01*
X48431128Y11617857D01*
X48525377Y11726627D01*
X48558886Y11800000D01*
X68994353Y11800000D01*
X69014834Y11657544D01*
X69053275Y11573372D01*
X69074623Y11526627D01*
X69168872Y11417857D01*
X69289947Y11340047D01*
X69289950Y11340046D01*
X69289949Y11340046D01*
X69397107Y11308583D01*
X69426336Y11300000D01*
X69428036Y11299501D01*
X69428038Y11299500D01*
X69428039Y11299500D01*
X69571962Y11299500D01*
X69571962Y11299501D01*
X69710053Y11340047D01*
X69831128Y11417857D01*
X69925377Y11526627D01*
X69985165Y11657543D01*
X70005647Y11800000D01*
X69985165Y11942457D01*
X69925377Y12073373D01*
X69831128Y12182143D01*
X69710053Y12259953D01*
X69710051Y12259954D01*
X69710049Y12259955D01*
X69710050Y12259955D01*
X69571963Y12300500D01*
X69571961Y12300500D01*
X69428039Y12300500D01*
X69428036Y12300500D01*
X69289949Y12259955D01*
X69168873Y12182144D01*
X69074623Y12073374D01*
X69074622Y12073372D01*
X69014834Y11942457D01*
X68994353Y11800000D01*
X48558886Y11800000D01*
X48585165Y11857543D01*
X48605647Y12000000D01*
X48585165Y12142457D01*
X48525377Y12273373D01*
X48431128Y12382143D01*
X48310053Y12459953D01*
X48310051Y12459954D01*
X48310049Y12459955D01*
X48310050Y12459955D01*
X48171963Y12500500D01*
X48171961Y12500500D01*
X48028039Y12500500D01*
X48028036Y12500500D01*
X47889949Y12459955D01*
X47768873Y12382144D01*
X47674623Y12273374D01*
X47674622Y12273372D01*
X47614834Y12142457D01*
X47594353Y12000000D01*
X22703342Y12000000D01*
X22731128Y12017857D01*
X22825377Y12126627D01*
X22885165Y12257543D01*
X22905647Y12400000D01*
X22885165Y12542457D01*
X22825377Y12673373D01*
X22731128Y12782143D01*
X22610053Y12859953D01*
X22610051Y12859954D01*
X22610049Y12859955D01*
X22610050Y12859955D01*
X22471963Y12900500D01*
X22471961Y12900500D01*
X22328039Y12900500D01*
X22328036Y12900500D01*
X22189949Y12859955D01*
X22068873Y12782144D01*
X21974623Y12673374D01*
X21974622Y12673372D01*
X21914834Y12542457D01*
X21894353Y12400000D01*
X8052600Y12400000D01*
X8057462Y12403249D01*
X8057466Y12403252D01*
X8196748Y12542534D01*
X8196751Y12542538D01*
X8306185Y12706316D01*
X8306192Y12706329D01*
X8381569Y12888308D01*
X8381569Y12888310D01*
X8389862Y12930000D01*
X7586988Y12930000D01*
X7604205Y12939940D01*
X7660060Y12995795D01*
X7699556Y13064204D01*
X7720000Y13140504D01*
X7720000Y13219496D01*
X7699556Y13295796D01*
X7660060Y13364205D01*
X7604205Y13420060D01*
X7586988Y13430000D01*
X8389862Y13430000D01*
X8381569Y13471691D01*
X8381569Y13471693D01*
X8306192Y13653672D01*
X8306185Y13653685D01*
X8196751Y13817463D01*
X8196748Y13817467D01*
X8057466Y13956749D01*
X8057462Y13956752D01*
X7893684Y14066186D01*
X7893671Y14066193D01*
X7812050Y14100001D01*
X9144750Y14100001D01*
X9144750Y14100000D01*
X9163670Y13956292D01*
X9163671Y13956288D01*
X9219137Y13822378D01*
X9219138Y13822376D01*
X9219139Y13822375D01*
X9307379Y13707379D01*
X9422375Y13619139D01*
X9556291Y13563670D01*
X9683280Y13546952D01*
X9699999Y13544750D01*
X9700000Y13544750D01*
X9700001Y13544750D01*
X9714977Y13546722D01*
X9843709Y13563670D01*
X9977625Y13619139D01*
X10092621Y13707379D01*
X10180861Y13822375D01*
X10236330Y13956291D01*
X10255250Y14100000D01*
X10236330Y14243709D01*
X10180861Y14377625D01*
X10092621Y14492621D01*
X9977625Y14580861D01*
X9977624Y14580862D01*
X9977622Y14580863D01*
X9843712Y14636329D01*
X9843710Y14636330D01*
X9843709Y14636330D01*
X9771854Y14645790D01*
X9700001Y14655250D01*
X9699999Y14655250D01*
X9556291Y14636330D01*
X9556287Y14636329D01*
X9422377Y14580863D01*
X9307379Y14492621D01*
X9219137Y14377623D01*
X9163671Y14243713D01*
X9163670Y14243709D01*
X9144750Y14100001D01*
X7812050Y14100001D01*
X7711693Y14141570D01*
X7711681Y14141573D01*
X7518495Y14180000D01*
X7120000Y14180000D01*
X7120000Y13480000D01*
X6620000Y13480000D01*
X6620000Y14095608D01*
X6639685Y14162647D01*
X6658059Y14182607D01*
X6656918Y14183748D01*
X6695465Y14222295D01*
X6760505Y14287335D01*
X6829688Y14407164D01*
X6865500Y14540817D01*
X6865500Y14679183D01*
X6829688Y14812836D01*
X6760505Y14932665D01*
X6662665Y15030505D01*
X6662664Y15030506D01*
X6662661Y15030508D01*
X6542838Y15099687D01*
X6542837Y15099688D01*
X6542836Y15099688D01*
X6409183Y15135500D01*
X6270817Y15135500D01*
X6137164Y15099688D01*
X6137161Y15099687D01*
X6017338Y15030508D01*
X6017333Y15030504D01*
X5919496Y14932667D01*
X5919492Y14932662D01*
X5850313Y14812839D01*
X5850312Y14812836D01*
X5814500Y14679183D01*
X5814500Y14540818D01*
X5850312Y14407165D01*
X5850313Y14407162D01*
X5919492Y14287339D01*
X5919496Y14287334D01*
X5923212Y14283618D01*
X5956697Y14222295D01*
X5951713Y14152603D01*
X5909841Y14096670D01*
X5882986Y14081377D01*
X5846327Y14066192D01*
X5846315Y14066186D01*
X5682537Y13956752D01*
X5682533Y13956749D01*
X5543251Y13817467D01*
X5543248Y13817463D01*
X5433814Y13653685D01*
X5433807Y13653672D01*
X5358430Y13471693D01*
X5358430Y13471691D01*
X5350138Y13430000D01*
X3959862Y13430000D01*
X3951569Y13471691D01*
X3951569Y13471693D01*
X3876192Y13653672D01*
X3876185Y13653685D01*
X3766751Y13817463D01*
X3766748Y13817467D01*
X3627466Y13956749D01*
X3627462Y13956752D01*
X3463684Y14066186D01*
X3463671Y14066193D01*
X3281693Y14141570D01*
X3281681Y14141573D01*
X3088495Y14180000D01*
X2940000Y14180000D01*
X2940000Y13480000D01*
X2440000Y13480000D01*
X2440000Y14180000D01*
X2291504Y14180000D01*
X2098318Y14141573D01*
X2098306Y14141570D01*
X1916328Y14066193D01*
X1916315Y14066186D01*
X1752537Y13956752D01*
X1752533Y13956749D01*
X1613251Y13817467D01*
X1613248Y13817463D01*
X1503814Y13653685D01*
X1503807Y13653672D01*
X1428430Y13471693D01*
X1428430Y13471691D01*
X1420138Y13430000D01*
X300500Y13430000D01*
X300500Y16000000D01*
X4894353Y16000000D01*
X4914834Y15857544D01*
X4974622Y15726629D01*
X4974623Y15726627D01*
X5068872Y15617857D01*
X5189947Y15540047D01*
X5189950Y15540046D01*
X5189949Y15540046D01*
X5328036Y15499501D01*
X5328038Y15499500D01*
X5328039Y15499500D01*
X5471962Y15499500D01*
X5471962Y15499501D01*
X5610053Y15540047D01*
X5731128Y15617857D01*
X5825377Y15726627D01*
X5885165Y15857543D01*
X5905647Y16000000D01*
X5885165Y16142457D01*
X5825377Y16273373D01*
X5731128Y16382143D01*
X5703342Y16400000D01*
X15794353Y16400000D01*
X15814834Y16257544D01*
X15868494Y16140047D01*
X15874623Y16126627D01*
X15968872Y16017857D01*
X16089947Y15940047D01*
X16089950Y15940046D01*
X16089949Y15940046D01*
X16228036Y15899501D01*
X16228038Y15899500D01*
X16228039Y15899500D01*
X16371962Y15899500D01*
X16371962Y15899501D01*
X16510053Y15940047D01*
X16631128Y16017857D01*
X16725377Y16126627D01*
X16785165Y16257543D01*
X16805647Y16400000D01*
X29794353Y16400000D01*
X29814834Y16257544D01*
X29868494Y16140047D01*
X29874623Y16126627D01*
X29968872Y16017857D01*
X30089947Y15940047D01*
X30089950Y15940046D01*
X30089949Y15940046D01*
X30228036Y15899501D01*
X30228038Y15899500D01*
X30228039Y15899500D01*
X30371962Y15899500D01*
X30371962Y15899501D01*
X30510053Y15940047D01*
X30631128Y16017857D01*
X30725377Y16126627D01*
X30785165Y16257543D01*
X30805647Y16400000D01*
X30791269Y16500000D01*
X33694353Y16500000D01*
X33714834Y16357544D01*
X33760504Y16257543D01*
X33774623Y16226627D01*
X33868872Y16117857D01*
X33989947Y16040047D01*
X33989950Y16040046D01*
X33989949Y16040046D01*
X34065520Y16017857D01*
X34126336Y16000000D01*
X34128036Y15999501D01*
X34128038Y15999500D01*
X34128039Y15999500D01*
X34271962Y15999500D01*
X34271962Y15999501D01*
X34410053Y16040047D01*
X34531128Y16117857D01*
X34625377Y16226627D01*
X34685165Y16357543D01*
X34705647Y16500000D01*
X35894353Y16500000D01*
X35914834Y16357544D01*
X35960504Y16257543D01*
X35974623Y16226627D01*
X36068872Y16117857D01*
X36189947Y16040047D01*
X36189950Y16040046D01*
X36189949Y16040046D01*
X36265520Y16017857D01*
X36326336Y16000000D01*
X36328036Y15999501D01*
X36328038Y15999500D01*
X36328039Y15999500D01*
X36471962Y15999500D01*
X36471962Y15999501D01*
X36610053Y16040047D01*
X36731128Y16117857D01*
X36825377Y16226627D01*
X36885165Y16357543D01*
X36905647Y16500000D01*
X37894353Y16500000D01*
X37914834Y16357544D01*
X37960504Y16257543D01*
X37974623Y16226627D01*
X38068872Y16117857D01*
X38189947Y16040047D01*
X38189950Y16040046D01*
X38189949Y16040046D01*
X38265520Y16017857D01*
X38326336Y16000000D01*
X38328036Y15999501D01*
X38328038Y15999500D01*
X38328039Y15999500D01*
X38471962Y15999500D01*
X38471962Y15999501D01*
X38610053Y16040047D01*
X38731128Y16117857D01*
X38825377Y16226627D01*
X38885165Y16357543D01*
X38905647Y16500000D01*
X40794353Y16500000D01*
X40814834Y16357544D01*
X40860504Y16257543D01*
X40874623Y16226627D01*
X40968872Y16117857D01*
X41089947Y16040047D01*
X41089950Y16040046D01*
X41089949Y16040046D01*
X41165520Y16017857D01*
X41226336Y16000000D01*
X41228036Y15999501D01*
X41228038Y15999500D01*
X41228039Y15999500D01*
X41371962Y15999500D01*
X41371962Y15999501D01*
X41510053Y16040047D01*
X41631128Y16117857D01*
X41725377Y16226627D01*
X41785165Y16357543D01*
X41805647Y16500000D01*
X42594353Y16500000D01*
X42614834Y16357544D01*
X42660504Y16257543D01*
X42674623Y16226627D01*
X42768872Y16117857D01*
X42889947Y16040047D01*
X42889950Y16040046D01*
X42889949Y16040046D01*
X42965520Y16017857D01*
X43026336Y16000000D01*
X43028036Y15999501D01*
X43028038Y15999500D01*
X43028039Y15999500D01*
X43171962Y15999500D01*
X43171962Y15999501D01*
X43310053Y16040047D01*
X43431128Y16117857D01*
X43525377Y16226627D01*
X43585165Y16357543D01*
X43605647Y16500000D01*
X44594353Y16500000D01*
X44614834Y16357544D01*
X44660504Y16257543D01*
X44674623Y16226627D01*
X44768872Y16117857D01*
X44889947Y16040047D01*
X44889950Y16040046D01*
X44889949Y16040046D01*
X44965520Y16017857D01*
X45026336Y16000000D01*
X45028036Y15999501D01*
X45028038Y15999500D01*
X45028039Y15999500D01*
X45171962Y15999500D01*
X45171962Y15999501D01*
X45310053Y16040047D01*
X45431128Y16117857D01*
X45525377Y16226627D01*
X45585165Y16357543D01*
X45605647Y16500000D01*
X46594353Y16500000D01*
X46614834Y16357544D01*
X46660504Y16257543D01*
X46674623Y16226627D01*
X46768872Y16117857D01*
X46889947Y16040047D01*
X46889950Y16040046D01*
X46889949Y16040046D01*
X46965520Y16017857D01*
X47026336Y16000000D01*
X47028036Y15999501D01*
X47028038Y15999500D01*
X47028039Y15999500D01*
X47171962Y15999500D01*
X47171962Y15999501D01*
X47310053Y16040047D01*
X47431128Y16117857D01*
X47525377Y16226627D01*
X47585165Y16357543D01*
X47605647Y16500000D01*
X47591269Y16600000D01*
X48594353Y16600000D01*
X48614834Y16457544D01*
X48660504Y16357543D01*
X48674623Y16326627D01*
X48768872Y16217857D01*
X48889947Y16140047D01*
X48889950Y16140046D01*
X48889949Y16140046D01*
X49028036Y16099501D01*
X49028038Y16099500D01*
X49028039Y16099500D01*
X49171962Y16099500D01*
X49171962Y16099501D01*
X49310053Y16140047D01*
X49431128Y16217857D01*
X49525377Y16326627D01*
X49585165Y16457543D01*
X49605647Y16600000D01*
X49585165Y16742457D01*
X49525377Y16873373D01*
X49431128Y16982143D01*
X49310053Y17059953D01*
X49310051Y17059954D01*
X49310049Y17059955D01*
X49310050Y17059955D01*
X49171963Y17100500D01*
X49171961Y17100500D01*
X49028039Y17100500D01*
X49028036Y17100500D01*
X48889949Y17059955D01*
X48768873Y16982144D01*
X48674623Y16873374D01*
X48674622Y16873372D01*
X48614834Y16742457D01*
X48594353Y16600000D01*
X47591269Y16600000D01*
X47585165Y16642457D01*
X47525377Y16773373D01*
X47431128Y16882143D01*
X47310053Y16959953D01*
X47310051Y16959954D01*
X47310049Y16959955D01*
X47310050Y16959955D01*
X47171963Y17000500D01*
X47171961Y17000500D01*
X47028039Y17000500D01*
X47028036Y17000500D01*
X46889949Y16959955D01*
X46768873Y16882144D01*
X46674623Y16773374D01*
X46674622Y16773372D01*
X46614834Y16642457D01*
X46594353Y16500000D01*
X45605647Y16500000D01*
X45585165Y16642457D01*
X45525377Y16773373D01*
X45431128Y16882143D01*
X45310053Y16959953D01*
X45310051Y16959954D01*
X45310049Y16959955D01*
X45310050Y16959955D01*
X45171963Y17000500D01*
X45171961Y17000500D01*
X45028039Y17000500D01*
X45028036Y17000500D01*
X44889949Y16959955D01*
X44768873Y16882144D01*
X44674623Y16773374D01*
X44674622Y16773372D01*
X44614834Y16642457D01*
X44594353Y16500000D01*
X43605647Y16500000D01*
X43585165Y16642457D01*
X43525377Y16773373D01*
X43431128Y16882143D01*
X43310053Y16959953D01*
X43310051Y16959954D01*
X43310049Y16959955D01*
X43310050Y16959955D01*
X43171963Y17000500D01*
X43171961Y17000500D01*
X43028039Y17000500D01*
X43028036Y17000500D01*
X42889949Y16959955D01*
X42768873Y16882144D01*
X42674623Y16773374D01*
X42674622Y16773372D01*
X42614834Y16642457D01*
X42594353Y16500000D01*
X41805647Y16500000D01*
X41785165Y16642457D01*
X41725377Y16773373D01*
X41631128Y16882143D01*
X41510053Y16959953D01*
X41510051Y16959954D01*
X41510049Y16959955D01*
X41510050Y16959955D01*
X41371963Y17000500D01*
X41371961Y17000500D01*
X41228039Y17000500D01*
X41228036Y17000500D01*
X41089949Y16959955D01*
X40968873Y16882144D01*
X40874623Y16773374D01*
X40874622Y16773372D01*
X40814834Y16642457D01*
X40794353Y16500000D01*
X38905647Y16500000D01*
X38885165Y16642457D01*
X38825377Y16773373D01*
X38731128Y16882143D01*
X38610053Y16959953D01*
X38610051Y16959954D01*
X38610049Y16959955D01*
X38610050Y16959955D01*
X38471963Y17000500D01*
X38471961Y17000500D01*
X38328039Y17000500D01*
X38328036Y17000500D01*
X38189949Y16959955D01*
X38068873Y16882144D01*
X37974623Y16773374D01*
X37974622Y16773372D01*
X37914834Y16642457D01*
X37894353Y16500000D01*
X36905647Y16500000D01*
X36885165Y16642457D01*
X36825377Y16773373D01*
X36731128Y16882143D01*
X36610053Y16959953D01*
X36610051Y16959954D01*
X36610049Y16959955D01*
X36610050Y16959955D01*
X36471963Y17000500D01*
X36471961Y17000500D01*
X36328039Y17000500D01*
X36328036Y17000500D01*
X36189949Y16959955D01*
X36068873Y16882144D01*
X35974623Y16773374D01*
X35974622Y16773372D01*
X35914834Y16642457D01*
X35894353Y16500000D01*
X34705647Y16500000D01*
X34685165Y16642457D01*
X34625377Y16773373D01*
X34531128Y16882143D01*
X34410053Y16959953D01*
X34410051Y16959954D01*
X34410049Y16959955D01*
X34410050Y16959955D01*
X34271963Y17000500D01*
X34271961Y17000500D01*
X34128039Y17000500D01*
X34128036Y17000500D01*
X33989949Y16959955D01*
X33868873Y16882144D01*
X33774623Y16773374D01*
X33774622Y16773372D01*
X33714834Y16642457D01*
X33694353Y16500000D01*
X30791269Y16500000D01*
X30785165Y16542457D01*
X30725377Y16673373D01*
X30631128Y16782143D01*
X30510053Y16859953D01*
X30510051Y16859954D01*
X30510049Y16859955D01*
X30510050Y16859955D01*
X30371963Y16900500D01*
X30371961Y16900500D01*
X30228039Y16900500D01*
X30228036Y16900500D01*
X30089949Y16859955D01*
X29968873Y16782144D01*
X29874623Y16673374D01*
X29874622Y16673372D01*
X29814834Y16542457D01*
X29794353Y16400000D01*
X16805647Y16400000D01*
X16785165Y16542457D01*
X16725377Y16673373D01*
X16631128Y16782143D01*
X16510053Y16859953D01*
X16510051Y16859954D01*
X16510049Y16859955D01*
X16510050Y16859955D01*
X16371963Y16900500D01*
X16371961Y16900500D01*
X16228039Y16900500D01*
X16228036Y16900500D01*
X16089949Y16859955D01*
X15968873Y16782144D01*
X15874623Y16673374D01*
X15874622Y16673372D01*
X15814834Y16542457D01*
X15794353Y16400000D01*
X5703342Y16400000D01*
X5610053Y16459953D01*
X5610051Y16459954D01*
X5610049Y16459955D01*
X5610050Y16459955D01*
X5471963Y16500500D01*
X5471961Y16500500D01*
X5328039Y16500500D01*
X5328036Y16500500D01*
X5189949Y16459955D01*
X5068873Y16382144D01*
X4974623Y16273374D01*
X4974622Y16273372D01*
X4914834Y16142457D01*
X4894353Y16000000D01*
X300500Y16000000D01*
X300500Y17800000D01*
X3594353Y17800000D01*
X3614834Y17657544D01*
X3674622Y17526629D01*
X3674623Y17526627D01*
X3768872Y17417857D01*
X3889947Y17340047D01*
X3889950Y17340046D01*
X3889949Y17340046D01*
X4028036Y17299501D01*
X4028038Y17299500D01*
X4028039Y17299500D01*
X4171962Y17299500D01*
X4171962Y17299501D01*
X4310053Y17340047D01*
X4431128Y17417857D01*
X4502306Y17500001D01*
X9544750Y17500001D01*
X9544750Y17500000D01*
X9563670Y17356292D01*
X9563671Y17356288D01*
X9619137Y17222378D01*
X9619138Y17222376D01*
X9619139Y17222375D01*
X9707379Y17107379D01*
X9822375Y17019139D01*
X9956291Y16963670D01*
X10083280Y16946952D01*
X10099999Y16944750D01*
X10100000Y16944750D01*
X10100001Y16944750D01*
X10114977Y16946722D01*
X10243709Y16963670D01*
X10377625Y17019139D01*
X10492621Y17107379D01*
X10580861Y17222375D01*
X10636330Y17356291D01*
X10655250Y17500000D01*
X10636330Y17643709D01*
X10580861Y17777625D01*
X10492621Y17892621D01*
X10377625Y17980861D01*
X10377624Y17980862D01*
X10377622Y17980863D01*
X10243712Y18036329D01*
X10243710Y18036330D01*
X10243709Y18036330D01*
X10171854Y18045790D01*
X10100001Y18055250D01*
X10099999Y18055250D01*
X9956291Y18036330D01*
X9956287Y18036329D01*
X9822377Y17980863D01*
X9707379Y17892621D01*
X9619137Y17777623D01*
X9563671Y17643713D01*
X9563670Y17643709D01*
X9544750Y17500001D01*
X4502306Y17500001D01*
X4525377Y17526627D01*
X4585165Y17657543D01*
X4605647Y17800000D01*
X4585165Y17942457D01*
X4525377Y18073373D01*
X4502305Y18100000D01*
X20194353Y18100000D01*
X20214834Y17957544D01*
X20245660Y17890046D01*
X20274623Y17826627D01*
X20368872Y17717857D01*
X20489947Y17640047D01*
X20489950Y17640046D01*
X20489949Y17640046D01*
X20628036Y17599501D01*
X20628038Y17599500D01*
X20628039Y17599500D01*
X20771962Y17599500D01*
X20771962Y17599501D01*
X20910053Y17640047D01*
X21031128Y17717857D01*
X21125377Y17826627D01*
X21185165Y17957543D01*
X21205647Y18100000D01*
X21185165Y18242457D01*
X21136051Y18350000D01*
X48944353Y18350000D01*
X48964834Y18207544D01*
X49013949Y18100000D01*
X49024623Y18076627D01*
X49118872Y17967857D01*
X49239947Y17890047D01*
X49239950Y17890046D01*
X49239949Y17890046D01*
X49378036Y17849501D01*
X49378038Y17849500D01*
X49378039Y17849500D01*
X49521962Y17849500D01*
X49521962Y17849501D01*
X49660053Y17890047D01*
X49781128Y17967857D01*
X49875377Y18076627D01*
X49935165Y18207543D01*
X49955647Y18350000D01*
X49935165Y18492457D01*
X49875377Y18623373D01*
X49781128Y18732143D01*
X49660053Y18809953D01*
X49660051Y18809954D01*
X49660049Y18809955D01*
X49660050Y18809955D01*
X49521963Y18850500D01*
X49521961Y18850500D01*
X49378039Y18850500D01*
X49378036Y18850500D01*
X49239949Y18809955D01*
X49118873Y18732144D01*
X49024623Y18623374D01*
X49024622Y18623372D01*
X48964834Y18492457D01*
X48944353Y18350000D01*
X21136051Y18350000D01*
X21125377Y18373373D01*
X21031128Y18482143D01*
X20910053Y18559953D01*
X20910051Y18559954D01*
X20910049Y18559955D01*
X20910050Y18559955D01*
X20771963Y18600500D01*
X20771961Y18600500D01*
X20628039Y18600500D01*
X20628036Y18600500D01*
X20489949Y18559955D01*
X20368873Y18482144D01*
X20274623Y18373374D01*
X20274622Y18373372D01*
X20214834Y18242457D01*
X20194353Y18100000D01*
X4502305Y18100000D01*
X4431128Y18182143D01*
X4310053Y18259953D01*
X4310051Y18259954D01*
X4310049Y18259955D01*
X4310050Y18259955D01*
X4171963Y18300500D01*
X4171961Y18300500D01*
X4028039Y18300500D01*
X4028036Y18300500D01*
X3889949Y18259955D01*
X3768873Y18182144D01*
X3674623Y18073374D01*
X3674622Y18073372D01*
X3614834Y17942457D01*
X3594353Y17800000D01*
X300500Y17800000D01*
X300500Y19200000D01*
X29594353Y19200000D01*
X29614834Y19057544D01*
X29674622Y18926629D01*
X29674623Y18926627D01*
X29768872Y18817857D01*
X29889947Y18740047D01*
X29889950Y18740046D01*
X29889949Y18740046D01*
X30028036Y18699501D01*
X30028038Y18699500D01*
X30028039Y18699500D01*
X30171962Y18699500D01*
X30171962Y18699501D01*
X30310053Y18740047D01*
X30431128Y18817857D01*
X30525377Y18926627D01*
X30585165Y19057543D01*
X30605647Y19200000D01*
X30585165Y19342457D01*
X30525377Y19473373D01*
X30431128Y19582143D01*
X30310053Y19659953D01*
X30310051Y19659954D01*
X30310049Y19659955D01*
X30310050Y19659955D01*
X30171963Y19700500D01*
X30171961Y19700500D01*
X30028039Y19700500D01*
X30028036Y19700500D01*
X29889949Y19659955D01*
X29768873Y19582144D01*
X29674623Y19473374D01*
X29674622Y19473372D01*
X29614834Y19342457D01*
X29594353Y19200000D01*
X300500Y19200000D01*
X300500Y22070000D01*
X1420138Y22070000D01*
X2223012Y22070000D01*
X2205795Y22060060D01*
X2149940Y22004205D01*
X2110444Y21935796D01*
X2090000Y21859496D01*
X2090000Y21780504D01*
X2110444Y21704204D01*
X2149940Y21635795D01*
X2205795Y21579940D01*
X2223012Y21570000D01*
X1420138Y21570000D01*
X1428430Y21528310D01*
X1428430Y21528308D01*
X1503807Y21346329D01*
X1503814Y21346316D01*
X1613248Y21182538D01*
X1613251Y21182534D01*
X1752533Y21043252D01*
X1752537Y21043249D01*
X1916315Y20933815D01*
X1916328Y20933808D01*
X2098306Y20858431D01*
X2098318Y20858428D01*
X2291504Y20820001D01*
X2291508Y20820000D01*
X2440000Y20820000D01*
X2440000Y21520000D01*
X2940000Y21520000D01*
X2940000Y20820000D01*
X3088492Y20820000D01*
X3088495Y20820001D01*
X3281681Y20858428D01*
X3281693Y20858431D01*
X3463671Y20933808D01*
X3463684Y20933815D01*
X3627462Y21043249D01*
X3627466Y21043252D01*
X3766748Y21182534D01*
X3766751Y21182538D01*
X3876185Y21346316D01*
X3876192Y21346329D01*
X3951569Y21528308D01*
X3951569Y21528310D01*
X3959862Y21570000D01*
X3156988Y21570000D01*
X3174205Y21579940D01*
X3230060Y21635795D01*
X3269556Y21704204D01*
X3290000Y21780504D01*
X3290000Y21859496D01*
X3269556Y21935796D01*
X3230060Y22004205D01*
X3174205Y22060060D01*
X3156988Y22070000D01*
X3959862Y22070000D01*
X5350138Y22070000D01*
X6153012Y22070000D01*
X6135795Y22060060D01*
X6079940Y22004205D01*
X6040444Y21935796D01*
X6020000Y21859496D01*
X6020000Y21780504D01*
X6040444Y21704204D01*
X6079940Y21635795D01*
X6135795Y21579940D01*
X6153012Y21570000D01*
X5350138Y21570000D01*
X5358430Y21528310D01*
X5358430Y21528308D01*
X5433807Y21346329D01*
X5433814Y21346316D01*
X5543248Y21182538D01*
X5543251Y21182534D01*
X5682533Y21043252D01*
X5682537Y21043249D01*
X5846315Y20933815D01*
X5846324Y20933810D01*
X5882984Y20918625D01*
X5937387Y20874784D01*
X5959452Y20808490D01*
X5942173Y20740791D01*
X5923217Y20716387D01*
X5919492Y20712662D01*
X5850313Y20592839D01*
X5850312Y20592836D01*
X5814500Y20459183D01*
X5814500Y20320817D01*
X5846873Y20200001D01*
X5850312Y20187165D01*
X5850313Y20187162D01*
X5919492Y20067339D01*
X5919494Y20067336D01*
X5919495Y20067335D01*
X6017335Y19969495D01*
X6137164Y19900312D01*
X6270817Y19864500D01*
X6270819Y19864500D01*
X6409181Y19864500D01*
X6409183Y19864500D01*
X6542836Y19900312D01*
X6662665Y19969495D01*
X6760505Y20067335D01*
X6829688Y20187164D01*
X6833127Y20200000D01*
X8944750Y20200000D01*
X8962215Y20067339D01*
X8963670Y20056292D01*
X8963671Y20056288D01*
X9019137Y19922378D01*
X9019138Y19922376D01*
X9019139Y19922375D01*
X9107379Y19807379D01*
X9222375Y19719139D01*
X9356291Y19663670D01*
X9483280Y19646952D01*
X9499999Y19644750D01*
X9500000Y19644750D01*
X9500001Y19644750D01*
X9514977Y19646722D01*
X9643709Y19663670D01*
X9777625Y19719139D01*
X9892621Y19807379D01*
X9980861Y19922375D01*
X10036330Y20056291D01*
X10055250Y20200000D01*
X10036330Y20343709D01*
X9980861Y20477625D01*
X9892621Y20592621D01*
X9777625Y20680861D01*
X9777624Y20680862D01*
X9777622Y20680863D01*
X9643712Y20736329D01*
X9643710Y20736330D01*
X9643709Y20736330D01*
X9571854Y20745790D01*
X9500001Y20755250D01*
X9499999Y20755250D01*
X9356291Y20736330D01*
X9356287Y20736329D01*
X9222377Y20680863D01*
X9107379Y20592621D01*
X9019137Y20477623D01*
X8963671Y20343713D01*
X8963670Y20343709D01*
X8944750Y20200000D01*
X6833127Y20200000D01*
X6865500Y20320817D01*
X6865500Y20459183D01*
X6829688Y20592836D01*
X6760505Y20712665D01*
X6662665Y20810505D01*
X6656918Y20816252D01*
X6659295Y20818630D01*
X6627294Y20862491D01*
X6620000Y20904393D01*
X6620000Y21520000D01*
X7120000Y21520000D01*
X7120000Y20820000D01*
X7518492Y20820000D01*
X7518495Y20820001D01*
X7711681Y20858428D01*
X7711693Y20858431D01*
X7812050Y20900000D01*
X33194353Y20900000D01*
X33214834Y20757544D01*
X33260504Y20657543D01*
X33274623Y20626627D01*
X33368872Y20517857D01*
X33489947Y20440047D01*
X33489950Y20440046D01*
X33489949Y20440046D01*
X33628036Y20399501D01*
X33628038Y20399500D01*
X33628039Y20399500D01*
X33771962Y20399500D01*
X33771962Y20399501D01*
X33910053Y20440047D01*
X34031128Y20517857D01*
X34125377Y20626627D01*
X34185165Y20757543D01*
X34191269Y20800000D01*
X35294353Y20800000D01*
X35314834Y20657544D01*
X35344386Y20592836D01*
X35374623Y20526627D01*
X35468872Y20417857D01*
X35589947Y20340047D01*
X35589950Y20340046D01*
X35589949Y20340046D01*
X35728036Y20299501D01*
X35728038Y20299500D01*
X35728039Y20299500D01*
X35871962Y20299500D01*
X35871962Y20299501D01*
X36010053Y20340047D01*
X36131128Y20417857D01*
X36225377Y20526627D01*
X36285165Y20657543D01*
X36305647Y20800000D01*
X36285165Y20942457D01*
X36225377Y21073373D01*
X36131128Y21182143D01*
X36103342Y21200000D01*
X45494353Y21200000D01*
X45514834Y21057544D01*
X45574622Y20926629D01*
X45574623Y20926627D01*
X45668872Y20817857D01*
X45789947Y20740047D01*
X45789950Y20740046D01*
X45789949Y20740046D01*
X45928036Y20699501D01*
X45928038Y20699500D01*
X45928039Y20699500D01*
X46071962Y20699500D01*
X46071962Y20699501D01*
X46210053Y20740047D01*
X46331128Y20817857D01*
X46425377Y20926627D01*
X46485165Y21057543D01*
X46505647Y21200000D01*
X46485165Y21342457D01*
X46425377Y21473373D01*
X46331128Y21582143D01*
X46210053Y21659953D01*
X46210051Y21659954D01*
X46210049Y21659955D01*
X46210050Y21659955D01*
X46071963Y21700500D01*
X46071961Y21700500D01*
X45928039Y21700500D01*
X45928036Y21700500D01*
X45789949Y21659955D01*
X45668873Y21582144D01*
X45574623Y21473374D01*
X45574622Y21473372D01*
X45514834Y21342457D01*
X45494353Y21200000D01*
X36103342Y21200000D01*
X36010053Y21259953D01*
X36010051Y21259954D01*
X36010049Y21259955D01*
X36010050Y21259955D01*
X35871963Y21300500D01*
X35871961Y21300500D01*
X35728039Y21300500D01*
X35728036Y21300500D01*
X35589949Y21259955D01*
X35468873Y21182144D01*
X35374623Y21073374D01*
X35374622Y21073372D01*
X35314834Y20942457D01*
X35294353Y20800000D01*
X34191269Y20800000D01*
X34205647Y20900000D01*
X34185165Y21042457D01*
X34125377Y21173373D01*
X34031128Y21282143D01*
X33910053Y21359953D01*
X33910051Y21359954D01*
X33910049Y21359955D01*
X33910050Y21359955D01*
X33771963Y21400500D01*
X33771961Y21400500D01*
X33628039Y21400500D01*
X33628036Y21400500D01*
X33489949Y21359955D01*
X33368873Y21282144D01*
X33274623Y21173374D01*
X33274622Y21173372D01*
X33214834Y21042457D01*
X33194353Y20900000D01*
X7812050Y20900000D01*
X7893671Y20933808D01*
X7893684Y20933815D01*
X8057462Y21043249D01*
X8057466Y21043252D01*
X8196748Y21182534D01*
X8196751Y21182538D01*
X8306185Y21346316D01*
X8306192Y21346329D01*
X8381569Y21528308D01*
X8381569Y21528310D01*
X8389862Y21570000D01*
X7586988Y21570000D01*
X7604205Y21579940D01*
X7660060Y21635795D01*
X7699556Y21704204D01*
X7720000Y21780504D01*
X7720000Y21859496D01*
X7699556Y21935796D01*
X7660060Y22004205D01*
X7604205Y22060060D01*
X7586988Y22070000D01*
X8389862Y22070000D01*
X8383895Y22100000D01*
X18794353Y22100000D01*
X18814834Y21957544D01*
X18860504Y21857543D01*
X18874623Y21826627D01*
X18968872Y21717857D01*
X19089947Y21640047D01*
X19089950Y21640046D01*
X19089949Y21640046D01*
X19228036Y21599501D01*
X19228038Y21599500D01*
X19228039Y21599500D01*
X19371962Y21599500D01*
X19371962Y21599501D01*
X19510053Y21640047D01*
X19631128Y21717857D01*
X19725377Y21826627D01*
X19785165Y21957543D01*
X19805647Y22100000D01*
X19791269Y22200000D01*
X20794353Y22200000D01*
X20814834Y22057544D01*
X20874622Y21926629D01*
X20874623Y21926627D01*
X20968872Y21817857D01*
X21089947Y21740047D01*
X21089950Y21740046D01*
X21089949Y21740046D01*
X21165520Y21717857D01*
X21224633Y21700500D01*
X21228036Y21699501D01*
X21228038Y21699500D01*
X21228039Y21699500D01*
X21371962Y21699500D01*
X21371962Y21699501D01*
X21510053Y21740047D01*
X21603342Y21800000D01*
X22594353Y21800000D01*
X22614834Y21657544D01*
X22649269Y21582144D01*
X22674623Y21526627D01*
X22768872Y21417857D01*
X22889947Y21340047D01*
X22889950Y21340046D01*
X22889949Y21340046D01*
X22997107Y21308583D01*
X23024633Y21300500D01*
X23028036Y21299501D01*
X23028038Y21299500D01*
X23028039Y21299500D01*
X23171962Y21299500D01*
X23171962Y21299501D01*
X23310053Y21340047D01*
X23431128Y21417857D01*
X23525377Y21526627D01*
X23585165Y21657543D01*
X23605647Y21800000D01*
X23585165Y21942457D01*
X23558886Y22000000D01*
X29594353Y22000000D01*
X29614834Y21857544D01*
X29628953Y21826629D01*
X29674623Y21726627D01*
X29768872Y21617857D01*
X29889947Y21540047D01*
X29889950Y21540046D01*
X29889949Y21540046D01*
X30028036Y21499501D01*
X30028038Y21499500D01*
X30028039Y21499500D01*
X30171962Y21499500D01*
X30171962Y21499501D01*
X30310053Y21540047D01*
X30431128Y21617857D01*
X30525377Y21726627D01*
X30585165Y21857543D01*
X30605647Y22000000D01*
X30585165Y22142457D01*
X30525377Y22273373D01*
X30431128Y22382143D01*
X30310053Y22459953D01*
X30310051Y22459954D01*
X30310049Y22459955D01*
X30310050Y22459955D01*
X30171963Y22500500D01*
X30171961Y22500500D01*
X30028039Y22500500D01*
X30028036Y22500500D01*
X29889949Y22459955D01*
X29768873Y22382144D01*
X29674623Y22273374D01*
X29674622Y22273372D01*
X29614834Y22142457D01*
X29594353Y22000000D01*
X23558886Y22000000D01*
X23525377Y22073373D01*
X23431128Y22182143D01*
X23310053Y22259953D01*
X23310051Y22259954D01*
X23310049Y22259955D01*
X23310050Y22259955D01*
X23171963Y22300500D01*
X23171961Y22300500D01*
X23028039Y22300500D01*
X23028036Y22300500D01*
X22889949Y22259955D01*
X22768873Y22182144D01*
X22674623Y22073374D01*
X22674622Y22073372D01*
X22614834Y21942457D01*
X22594353Y21800000D01*
X21603342Y21800000D01*
X21631128Y21817857D01*
X21725377Y21926627D01*
X21785165Y22057543D01*
X21805647Y22200000D01*
X21785165Y22342457D01*
X21725377Y22473373D01*
X21631128Y22582143D01*
X21510053Y22659953D01*
X21510051Y22659954D01*
X21510049Y22659955D01*
X21510050Y22659955D01*
X21371963Y22700500D01*
X21371961Y22700500D01*
X21228039Y22700500D01*
X21228036Y22700500D01*
X21089949Y22659955D01*
X20968873Y22582144D01*
X20874623Y22473374D01*
X20874622Y22473372D01*
X20814834Y22342457D01*
X20794353Y22200000D01*
X19791269Y22200000D01*
X19785165Y22242457D01*
X19725377Y22373373D01*
X19631128Y22482143D01*
X19510053Y22559953D01*
X19510051Y22559954D01*
X19510049Y22559955D01*
X19510050Y22559955D01*
X19371963Y22600500D01*
X19371961Y22600500D01*
X19228039Y22600500D01*
X19228036Y22600500D01*
X19089949Y22559955D01*
X18968873Y22482144D01*
X18874623Y22373374D01*
X18874622Y22373372D01*
X18814834Y22242457D01*
X18794353Y22100000D01*
X8383895Y22100000D01*
X8381569Y22111691D01*
X8381569Y22111693D01*
X8306192Y22293672D01*
X8306185Y22293685D01*
X8196751Y22457463D01*
X8196748Y22457467D01*
X8057466Y22596749D01*
X8057462Y22596752D01*
X7893684Y22706186D01*
X7893671Y22706193D01*
X7711693Y22781570D01*
X7711681Y22781573D01*
X7518495Y22820000D01*
X7120000Y22820000D01*
X7120000Y22120000D01*
X6620000Y22120000D01*
X6620000Y22820000D01*
X6221504Y22820000D01*
X6028318Y22781573D01*
X6028306Y22781570D01*
X5846328Y22706193D01*
X5846315Y22706186D01*
X5682537Y22596752D01*
X5682533Y22596749D01*
X5543251Y22457467D01*
X5543248Y22457463D01*
X5433814Y22293685D01*
X5433807Y22293672D01*
X5358430Y22111693D01*
X5358430Y22111691D01*
X5350138Y22070000D01*
X3959862Y22070000D01*
X3951569Y22111691D01*
X3951569Y22111693D01*
X3876192Y22293672D01*
X3876185Y22293685D01*
X3766751Y22457463D01*
X3766748Y22457467D01*
X3627466Y22596749D01*
X3627462Y22596752D01*
X3463684Y22706186D01*
X3463671Y22706193D01*
X3281693Y22781570D01*
X3281681Y22781573D01*
X3088495Y22820000D01*
X2940000Y22820000D01*
X2940000Y22120000D01*
X2440000Y22120000D01*
X2440000Y22820000D01*
X2291504Y22820000D01*
X2098318Y22781573D01*
X2098306Y22781570D01*
X1916328Y22706193D01*
X1916315Y22706186D01*
X1752537Y22596752D01*
X1752533Y22596749D01*
X1613251Y22457467D01*
X1613248Y22457463D01*
X1503814Y22293685D01*
X1503807Y22293672D01*
X1428430Y22111693D01*
X1428430Y22111691D01*
X1420138Y22070000D01*
X300500Y22070000D01*
X300500Y23150000D01*
X23744353Y23150000D01*
X23764834Y23007544D01*
X23813720Y22900500D01*
X23824623Y22876627D01*
X23918872Y22767857D01*
X24039947Y22690047D01*
X24039950Y22690046D01*
X24039949Y22690046D01*
X24178036Y22649501D01*
X24178038Y22649500D01*
X24178039Y22649500D01*
X24321962Y22649500D01*
X24321962Y22649501D01*
X24460053Y22690047D01*
X24475540Y22700000D01*
X44594353Y22700000D01*
X44614834Y22557544D01*
X44674622Y22426629D01*
X44674623Y22426627D01*
X44768872Y22317857D01*
X44889947Y22240047D01*
X44889950Y22240046D01*
X44889949Y22240046D01*
X44997107Y22208583D01*
X45026336Y22200000D01*
X45028036Y22199501D01*
X45028038Y22199500D01*
X45028039Y22199500D01*
X45171962Y22199500D01*
X45171962Y22199501D01*
X45310053Y22240047D01*
X45431128Y22317857D01*
X45502305Y22400000D01*
X46894353Y22400000D01*
X46914834Y22257544D01*
X46974622Y22126629D01*
X46974623Y22126627D01*
X47068872Y22017857D01*
X47189947Y21940047D01*
X47189950Y21940046D01*
X47189949Y21940046D01*
X47328036Y21899501D01*
X47328038Y21899500D01*
X47328039Y21899500D01*
X47471962Y21899500D01*
X47471962Y21899501D01*
X47610053Y21940047D01*
X47731128Y22017857D01*
X47825377Y22126627D01*
X47885165Y22257543D01*
X47905647Y22400000D01*
X47885165Y22542457D01*
X47825377Y22673373D01*
X47731128Y22782143D01*
X47610053Y22859953D01*
X47610051Y22859954D01*
X47610049Y22859955D01*
X47610050Y22859955D01*
X47471963Y22900500D01*
X47471961Y22900500D01*
X47328039Y22900500D01*
X47328036Y22900500D01*
X47189949Y22859955D01*
X47068873Y22782144D01*
X47068872Y22782144D01*
X47068872Y22782143D01*
X47056493Y22767857D01*
X46974623Y22673374D01*
X46974622Y22673372D01*
X46914834Y22542457D01*
X46894353Y22400000D01*
X45502305Y22400000D01*
X45525377Y22426627D01*
X45585165Y22557543D01*
X45605647Y22700000D01*
X45585165Y22842457D01*
X45525377Y22973373D01*
X45431128Y23082143D01*
X45310053Y23159953D01*
X45310051Y23159954D01*
X45310049Y23159955D01*
X45310050Y23159955D01*
X45171963Y23200500D01*
X45171961Y23200500D01*
X45028039Y23200500D01*
X45028036Y23200500D01*
X44889949Y23159955D01*
X44768873Y23082144D01*
X44674623Y22973374D01*
X44674622Y22973372D01*
X44614834Y22842457D01*
X44594353Y22700000D01*
X24475540Y22700000D01*
X24581128Y22767857D01*
X24675377Y22876627D01*
X24735165Y23007543D01*
X24755647Y23150000D01*
X24735165Y23292457D01*
X24675377Y23423373D01*
X24581128Y23532143D01*
X24460053Y23609953D01*
X24460051Y23609954D01*
X24460049Y23609955D01*
X24460050Y23609955D01*
X24321963Y23650500D01*
X24321961Y23650500D01*
X24178039Y23650500D01*
X24178036Y23650500D01*
X24039949Y23609955D01*
X23918873Y23532144D01*
X23824623Y23423374D01*
X23824622Y23423372D01*
X23764834Y23292457D01*
X23744353Y23150000D01*
X300500Y23150000D01*
X300500Y24700000D01*
X29594353Y24700000D01*
X29614834Y24557544D01*
X29674622Y24426629D01*
X29674623Y24426627D01*
X29768872Y24317857D01*
X29889947Y24240047D01*
X29889950Y24240046D01*
X29889949Y24240046D01*
X30028036Y24199501D01*
X30028038Y24199500D01*
X30028039Y24199500D01*
X30171962Y24199500D01*
X30171962Y24199501D01*
X30310053Y24240047D01*
X30431128Y24317857D01*
X30502305Y24400000D01*
X49494353Y24400000D01*
X49514834Y24257544D01*
X49574622Y24126629D01*
X49574623Y24126627D01*
X49668872Y24017857D01*
X49789947Y23940047D01*
X49789950Y23940046D01*
X49789949Y23940046D01*
X49928036Y23899501D01*
X49928038Y23899500D01*
X49928039Y23899500D01*
X50071962Y23899500D01*
X50071962Y23899501D01*
X50210053Y23940047D01*
X50331128Y24017857D01*
X50425377Y24126627D01*
X50485165Y24257543D01*
X50505647Y24400000D01*
X50485165Y24542457D01*
X50425377Y24673373D01*
X50331128Y24782143D01*
X50210053Y24859953D01*
X50210051Y24859954D01*
X50210049Y24859955D01*
X50210050Y24859955D01*
X50071963Y24900500D01*
X50071961Y24900500D01*
X49928039Y24900500D01*
X49928036Y24900500D01*
X49789949Y24859955D01*
X49668873Y24782144D01*
X49574623Y24673374D01*
X49574622Y24673372D01*
X49514834Y24542457D01*
X49494353Y24400000D01*
X30502305Y24400000D01*
X30525377Y24426627D01*
X30585165Y24557543D01*
X30605647Y24700000D01*
X30585165Y24842457D01*
X30525377Y24973373D01*
X30431128Y25082143D01*
X30310053Y25159953D01*
X30310051Y25159954D01*
X30310049Y25159955D01*
X30310050Y25159955D01*
X30171963Y25200500D01*
X30171961Y25200500D01*
X30028039Y25200500D01*
X30028036Y25200500D01*
X29889949Y25159955D01*
X29768873Y25082144D01*
X29674623Y24973374D01*
X29674622Y24973372D01*
X29614834Y24842457D01*
X29594353Y24700000D01*
X300500Y24700000D01*
X300500Y25958772D01*
X22249500Y25958772D01*
X22249500Y25791229D01*
X22282182Y25626926D01*
X22282184Y25626918D01*
X22346295Y25472140D01*
X22439373Y25332838D01*
X22557837Y25214374D01*
X22639281Y25159955D01*
X22697137Y25121297D01*
X22851918Y25057184D01*
X23016228Y25024501D01*
X23016232Y25024500D01*
X23016233Y25024500D01*
X23183768Y25024500D01*
X23183769Y25024501D01*
X23348082Y25057184D01*
X23502863Y25121297D01*
X23642162Y25214374D01*
X23760626Y25332838D01*
X23853703Y25472137D01*
X23917816Y25626918D01*
X23950500Y25791233D01*
X23950500Y25958767D01*
X23917816Y26123082D01*
X23885955Y26200000D01*
X49694353Y26200000D01*
X49714834Y26057544D01*
X49759945Y25958767D01*
X49774623Y25926627D01*
X49868872Y25817857D01*
X49989947Y25740047D01*
X49989950Y25740046D01*
X49989949Y25740046D01*
X50128036Y25699501D01*
X50128038Y25699500D01*
X50128039Y25699500D01*
X50271962Y25699500D01*
X50271962Y25699501D01*
X50410053Y25740047D01*
X50531128Y25817857D01*
X50625377Y25926627D01*
X50685165Y26057543D01*
X50705647Y26200000D01*
X50685165Y26342457D01*
X50625377Y26473373D01*
X50531128Y26582143D01*
X50410053Y26659953D01*
X50410051Y26659954D01*
X50410049Y26659955D01*
X50410050Y26659955D01*
X50271963Y26700500D01*
X50271961Y26700500D01*
X50128039Y26700500D01*
X50128036Y26700500D01*
X49989949Y26659955D01*
X49868873Y26582144D01*
X49774623Y26473374D01*
X49774622Y26473372D01*
X49714834Y26342457D01*
X49694353Y26200000D01*
X23885955Y26200000D01*
X23853703Y26277863D01*
X23822537Y26324506D01*
X23760626Y26417163D01*
X23642162Y26535627D01*
X23502860Y26628705D01*
X23348082Y26692816D01*
X23348074Y26692818D01*
X23183771Y26725500D01*
X23183767Y26725500D01*
X23016233Y26725500D01*
X23016228Y26725500D01*
X22851925Y26692818D01*
X22851917Y26692816D01*
X22697139Y26628705D01*
X22557837Y26535627D01*
X22439373Y26417163D01*
X22346295Y26277861D01*
X22282184Y26123083D01*
X22282182Y26123075D01*
X22249500Y25958772D01*
X300500Y25958772D01*
X300500Y26750000D01*
X39544353Y26750000D01*
X39564834Y26607544D01*
X39624622Y26476629D01*
X39624623Y26476627D01*
X39718872Y26367857D01*
X39839947Y26290047D01*
X39839950Y26290046D01*
X39839949Y26290046D01*
X39978036Y26249501D01*
X39978038Y26249500D01*
X39978039Y26249500D01*
X40121962Y26249500D01*
X40121962Y26249501D01*
X40260053Y26290047D01*
X40381128Y26367857D01*
X40475377Y26476627D01*
X40535165Y26607543D01*
X40555647Y26750000D01*
X40535165Y26892457D01*
X40475377Y27023373D01*
X40381128Y27132143D01*
X40275540Y27200000D01*
X55094353Y27200000D01*
X55114834Y27057544D01*
X55174622Y26926629D01*
X55174623Y26926627D01*
X55268872Y26817857D01*
X55389947Y26740047D01*
X55389950Y26740046D01*
X55389949Y26740046D01*
X55497107Y26708583D01*
X55524633Y26700500D01*
X55528036Y26699501D01*
X55528038Y26699500D01*
X55528039Y26699500D01*
X55671962Y26699500D01*
X55671962Y26699501D01*
X55810053Y26740047D01*
X55931128Y26817857D01*
X56025377Y26926627D01*
X56085165Y27057543D01*
X56105647Y27200000D01*
X56085165Y27342457D01*
X56025377Y27473373D01*
X55931128Y27582143D01*
X55810053Y27659953D01*
X55810051Y27659954D01*
X55810049Y27659955D01*
X55810050Y27659955D01*
X55671963Y27700500D01*
X55671961Y27700500D01*
X55528039Y27700500D01*
X55528036Y27700500D01*
X55389949Y27659955D01*
X55268873Y27582144D01*
X55174623Y27473374D01*
X55174622Y27473372D01*
X55114834Y27342457D01*
X55094353Y27200000D01*
X40275540Y27200000D01*
X40260053Y27209953D01*
X40260051Y27209954D01*
X40260049Y27209955D01*
X40260050Y27209955D01*
X40121963Y27250500D01*
X40121961Y27250500D01*
X39978039Y27250500D01*
X39978036Y27250500D01*
X39839949Y27209955D01*
X39718873Y27132144D01*
X39624623Y27023374D01*
X39624622Y27023372D01*
X39564834Y26892457D01*
X39544353Y26750000D01*
X300500Y26750000D01*
X300500Y28498772D01*
X22249500Y28498772D01*
X22249500Y28331229D01*
X22282182Y28166926D01*
X22282184Y28166918D01*
X22346295Y28012140D01*
X22439373Y27872838D01*
X22557837Y27754374D01*
X22616696Y27715046D01*
X22697137Y27661297D01*
X22697138Y27661297D01*
X22697139Y27661296D01*
X22732201Y27646773D01*
X22851918Y27597184D01*
X23016228Y27564501D01*
X23016232Y27564500D01*
X23016233Y27564500D01*
X23183768Y27564500D01*
X23183769Y27564501D01*
X23348082Y27597184D01*
X23502863Y27661297D01*
X23642162Y27754374D01*
X23760626Y27872838D01*
X23853703Y28012137D01*
X23917816Y28166918D01*
X23924396Y28200000D01*
X35594353Y28200000D01*
X35614834Y28057544D01*
X35626252Y28032543D01*
X35674623Y27926627D01*
X35768872Y27817857D01*
X35889947Y27740047D01*
X35889950Y27740046D01*
X35889949Y27740046D01*
X35997107Y27708583D01*
X36024633Y27700500D01*
X36028036Y27699501D01*
X36028038Y27699500D01*
X36028039Y27699500D01*
X36171962Y27699500D01*
X36171962Y27699501D01*
X36310053Y27740047D01*
X36431128Y27817857D01*
X36525377Y27926627D01*
X36585165Y28057543D01*
X36605647Y28200000D01*
X36585165Y28342457D01*
X36558886Y28400000D01*
X49294353Y28400000D01*
X49314834Y28257544D01*
X49374622Y28126629D01*
X49374623Y28126627D01*
X49468872Y28017857D01*
X49589947Y27940047D01*
X49589950Y27940046D01*
X49589949Y27940046D01*
X49697107Y27908583D01*
X49720788Y27901629D01*
X49728036Y27899501D01*
X49728038Y27899500D01*
X49728039Y27899500D01*
X49871962Y27899500D01*
X49871962Y27899501D01*
X50010053Y27940047D01*
X50131128Y28017857D01*
X50225377Y28126627D01*
X50247468Y28175000D01*
X72969353Y28175000D01*
X72989834Y28032544D01*
X72999154Y28012137D01*
X73049623Y27901627D01*
X73143872Y27792857D01*
X73264947Y27715047D01*
X73264950Y27715046D01*
X73264949Y27715046D01*
X73403036Y27674501D01*
X73403038Y27674500D01*
X73403039Y27674500D01*
X73546962Y27674500D01*
X73546962Y27674501D01*
X73685053Y27715047D01*
X73806128Y27792857D01*
X73900377Y27901627D01*
X73960165Y28032543D01*
X73980647Y28175000D01*
X73960165Y28317457D01*
X73900377Y28448373D01*
X73806128Y28557143D01*
X73685053Y28634953D01*
X73685051Y28634954D01*
X73685049Y28634955D01*
X73685050Y28634955D01*
X73546963Y28675500D01*
X73546961Y28675500D01*
X73403039Y28675500D01*
X73403036Y28675500D01*
X73264949Y28634955D01*
X73143873Y28557144D01*
X73049623Y28448374D01*
X73049622Y28448372D01*
X72989834Y28317457D01*
X72969353Y28175000D01*
X50247468Y28175000D01*
X50285165Y28257543D01*
X50305647Y28400000D01*
X50285165Y28542457D01*
X50225377Y28673373D01*
X50131128Y28782143D01*
X50010053Y28859953D01*
X50010051Y28859954D01*
X50010049Y28859955D01*
X50010050Y28859955D01*
X49871963Y28900500D01*
X49871961Y28900500D01*
X49728039Y28900500D01*
X49728036Y28900500D01*
X49589949Y28859955D01*
X49468873Y28782144D01*
X49374623Y28673374D01*
X49374622Y28673372D01*
X49314834Y28542457D01*
X49294353Y28400000D01*
X36558886Y28400000D01*
X36525377Y28473373D01*
X36431128Y28582143D01*
X36310053Y28659953D01*
X36310051Y28659954D01*
X36310049Y28659955D01*
X36310050Y28659955D01*
X36171963Y28700500D01*
X36171961Y28700500D01*
X36028039Y28700500D01*
X36028036Y28700500D01*
X35889949Y28659955D01*
X35768873Y28582144D01*
X35674623Y28473374D01*
X35674622Y28473372D01*
X35614834Y28342457D01*
X35594353Y28200000D01*
X23924396Y28200000D01*
X23950500Y28331233D01*
X23950500Y28498767D01*
X23917816Y28663082D01*
X23855440Y28813670D01*
X23853704Y28817861D01*
X23760626Y28957163D01*
X23642162Y29075627D01*
X23502860Y29168705D01*
X23348082Y29232816D01*
X23348074Y29232818D01*
X23183771Y29265500D01*
X23183767Y29265500D01*
X23016233Y29265500D01*
X23016228Y29265500D01*
X22851925Y29232818D01*
X22851917Y29232816D01*
X22697139Y29168705D01*
X22557837Y29075627D01*
X22439373Y28957163D01*
X22346295Y28817861D01*
X22282184Y28663083D01*
X22282182Y28663075D01*
X22249500Y28498772D01*
X300500Y28498772D01*
X300500Y29350001D01*
X30194750Y29350001D01*
X30194750Y29350000D01*
X30213670Y29206292D01*
X30213671Y29206288D01*
X30269137Y29072378D01*
X30269138Y29072376D01*
X30269139Y29072375D01*
X30357379Y28957379D01*
X30472375Y28869139D01*
X30606291Y28813670D01*
X30733280Y28796952D01*
X30749999Y28794750D01*
X30750000Y28794750D01*
X30750001Y28794750D01*
X30764977Y28796722D01*
X30893709Y28813670D01*
X31027625Y28869139D01*
X31142621Y28957379D01*
X31230861Y29072375D01*
X31286330Y29206291D01*
X31305250Y29350000D01*
X31286330Y29493709D01*
X31232211Y29624366D01*
X31230862Y29627623D01*
X31230861Y29627624D01*
X31230861Y29627625D01*
X31142621Y29742621D01*
X31027625Y29830861D01*
X31027624Y29830862D01*
X31027622Y29830863D01*
X30893712Y29886329D01*
X30893710Y29886330D01*
X30893709Y29886330D01*
X30789877Y29900000D01*
X30750001Y29905250D01*
X30749999Y29905250D01*
X30606291Y29886330D01*
X30606287Y29886329D01*
X30472377Y29830863D01*
X30357379Y29742621D01*
X30269137Y29627623D01*
X30213671Y29493713D01*
X30213670Y29493709D01*
X30194750Y29350001D01*
X300500Y29350001D01*
X300500Y30300000D01*
X17894353Y30300000D01*
X17914834Y30157544D01*
X17974622Y30026629D01*
X17974623Y30026627D01*
X18068872Y29917857D01*
X18189947Y29840047D01*
X18189950Y29840046D01*
X18189949Y29840046D01*
X18328036Y29799501D01*
X18328038Y29799500D01*
X18328039Y29799500D01*
X18471962Y29799500D01*
X18471962Y29799501D01*
X18610053Y29840047D01*
X18731128Y29917857D01*
X18825377Y30026627D01*
X18885165Y30157543D01*
X18905647Y30300000D01*
X18885165Y30442457D01*
X18825377Y30573373D01*
X18731128Y30682143D01*
X18610053Y30759953D01*
X18610051Y30759954D01*
X18610049Y30759955D01*
X18610050Y30759955D01*
X18471963Y30800500D01*
X18471961Y30800500D01*
X18328039Y30800500D01*
X18328036Y30800500D01*
X18189949Y30759955D01*
X18068873Y30682144D01*
X17974623Y30573374D01*
X17974622Y30573372D01*
X17914834Y30442457D01*
X17894353Y30300000D01*
X300500Y30300000D01*
X300500Y31500000D01*
X14344750Y31500000D01*
X14350674Y31455000D01*
X14363670Y31356292D01*
X14363671Y31356288D01*
X14419137Y31222378D01*
X14419138Y31222376D01*
X14419139Y31222375D01*
X14507379Y31107379D01*
X14622375Y31019139D01*
X14756291Y30963670D01*
X14883280Y30946952D01*
X14899999Y30944750D01*
X14900000Y30944750D01*
X14900001Y30944750D01*
X14914977Y30946722D01*
X15043709Y30963670D01*
X15177625Y31019139D01*
X15292621Y31107379D01*
X15367529Y31205001D01*
X21769364Y31205001D01*
X21769364Y31205000D01*
X22666988Y31205000D01*
X22634075Y31147993D01*
X22600000Y31020826D01*
X22600000Y30889174D01*
X22634075Y30762007D01*
X22666988Y30705000D01*
X21769364Y30705000D01*
X21826567Y30491514D01*
X21826570Y30491508D01*
X21926399Y30277422D01*
X22061894Y30083918D01*
X22228917Y29916895D01*
X22422421Y29781400D01*
X22636507Y29681571D01*
X22636516Y29681567D01*
X22850000Y29624366D01*
X22850000Y30521988D01*
X22907007Y30489075D01*
X23034174Y30455000D01*
X23165826Y30455000D01*
X23292993Y30489075D01*
X23350000Y30521988D01*
X23350000Y29624367D01*
X23563483Y29681567D01*
X23563492Y29681571D01*
X23777578Y29781400D01*
X23971082Y29916895D01*
X24138105Y30083918D01*
X24219388Y30200000D01*
X35594353Y30200000D01*
X35614834Y30057544D01*
X35660504Y29957543D01*
X35674623Y29926627D01*
X35768872Y29817857D01*
X35889947Y29740047D01*
X35889950Y29740046D01*
X35889949Y29740046D01*
X36028036Y29699501D01*
X36028038Y29699500D01*
X36028039Y29699500D01*
X36171962Y29699500D01*
X36171962Y29699501D01*
X36310053Y29740047D01*
X36431128Y29817857D01*
X36525377Y29926627D01*
X36585165Y30057543D01*
X36591269Y30100000D01*
X49594353Y30100000D01*
X49614834Y29957544D01*
X49668494Y29840047D01*
X49674623Y29826627D01*
X49768872Y29717857D01*
X49889947Y29640047D01*
X49889950Y29640046D01*
X49889949Y29640046D01*
X50028036Y29599501D01*
X50028038Y29599500D01*
X50028039Y29599500D01*
X50171962Y29599500D01*
X50171962Y29599501D01*
X50310053Y29640047D01*
X50431128Y29717857D01*
X50525377Y29826627D01*
X50585165Y29957543D01*
X50605647Y30100000D01*
X50591269Y30200000D01*
X53494353Y30200000D01*
X53514834Y30057544D01*
X53560504Y29957543D01*
X53574623Y29926627D01*
X53668872Y29817857D01*
X53789947Y29740047D01*
X53789950Y29740046D01*
X53789949Y29740046D01*
X53928036Y29699501D01*
X53928038Y29699500D01*
X53928039Y29699500D01*
X54071962Y29699500D01*
X54071962Y29699501D01*
X54210053Y29740047D01*
X54331128Y29817857D01*
X54402305Y29900000D01*
X72894353Y29900000D01*
X72914834Y29757544D01*
X72949532Y29681567D01*
X72974623Y29626627D01*
X73068872Y29517857D01*
X73189947Y29440047D01*
X73189950Y29440046D01*
X73189949Y29440046D01*
X73328036Y29399501D01*
X73328038Y29399500D01*
X73328039Y29399500D01*
X73471962Y29399500D01*
X73471962Y29399501D01*
X73610053Y29440047D01*
X73731128Y29517857D01*
X73825377Y29626627D01*
X73885165Y29757543D01*
X73905647Y29900000D01*
X73885165Y30042457D01*
X73825377Y30173373D01*
X73731128Y30282143D01*
X73610053Y30359953D01*
X73610051Y30359954D01*
X73610049Y30359955D01*
X73610050Y30359955D01*
X73471963Y30400500D01*
X73471961Y30400500D01*
X73328039Y30400500D01*
X73328036Y30400500D01*
X73189949Y30359955D01*
X73068873Y30282144D01*
X72974623Y30173374D01*
X72974622Y30173372D01*
X72914834Y30042457D01*
X72894353Y29900000D01*
X54402305Y29900000D01*
X54425377Y29926627D01*
X54485165Y30057543D01*
X54505647Y30200000D01*
X54485165Y30342457D01*
X54425377Y30473373D01*
X54331128Y30582143D01*
X54210053Y30659953D01*
X54210051Y30659954D01*
X54210049Y30659955D01*
X54210050Y30659955D01*
X54071963Y30700500D01*
X54071961Y30700500D01*
X53928039Y30700500D01*
X53928036Y30700500D01*
X53789949Y30659955D01*
X53668873Y30582144D01*
X53574623Y30473374D01*
X53574622Y30473372D01*
X53514834Y30342457D01*
X53494353Y30200000D01*
X50591269Y30200000D01*
X50585165Y30242457D01*
X50525377Y30373373D01*
X50431128Y30482143D01*
X50310053Y30559953D01*
X50310051Y30559954D01*
X50310049Y30559955D01*
X50310050Y30559955D01*
X50171963Y30600500D01*
X50171961Y30600500D01*
X50028039Y30600500D01*
X50028036Y30600500D01*
X49889949Y30559955D01*
X49768873Y30482144D01*
X49674623Y30373374D01*
X49674622Y30373372D01*
X49614834Y30242457D01*
X49594353Y30100000D01*
X36591269Y30100000D01*
X36605647Y30200000D01*
X36585165Y30342457D01*
X36525377Y30473373D01*
X36431128Y30582143D01*
X36310053Y30659953D01*
X36310051Y30659954D01*
X36310049Y30659955D01*
X36310050Y30659955D01*
X36171963Y30700500D01*
X36171961Y30700500D01*
X36028039Y30700500D01*
X36028036Y30700500D01*
X35889949Y30659955D01*
X35768873Y30582144D01*
X35674623Y30473374D01*
X35674622Y30473372D01*
X35614834Y30342457D01*
X35594353Y30200000D01*
X24219388Y30200000D01*
X24273600Y30277422D01*
X24373429Y30491508D01*
X24373432Y30491514D01*
X24430636Y30705000D01*
X23533012Y30705000D01*
X23565925Y30762007D01*
X23600000Y30889174D01*
X23600000Y30950000D01*
X47744353Y30950000D01*
X47764834Y30807544D01*
X47811665Y30705000D01*
X47824623Y30676627D01*
X47918872Y30567857D01*
X48039947Y30490047D01*
X48039950Y30490046D01*
X48039949Y30490046D01*
X48178036Y30449501D01*
X48178038Y30449500D01*
X48178039Y30449500D01*
X48321962Y30449500D01*
X48321962Y30449501D01*
X48460053Y30490047D01*
X48581128Y30567857D01*
X48675377Y30676627D01*
X48735165Y30807543D01*
X48755647Y30950000D01*
X48735165Y31092457D01*
X48675377Y31223373D01*
X48581128Y31332143D01*
X48460053Y31409953D01*
X48460051Y31409954D01*
X48460049Y31409955D01*
X48460050Y31409955D01*
X48321963Y31450500D01*
X48321961Y31450500D01*
X48178039Y31450500D01*
X48178036Y31450500D01*
X48039949Y31409955D01*
X47918873Y31332144D01*
X47824623Y31223374D01*
X47824622Y31223372D01*
X47764834Y31092457D01*
X47744353Y30950000D01*
X23600000Y30950000D01*
X23600000Y31020826D01*
X23565925Y31147993D01*
X23533012Y31205000D01*
X24430636Y31205000D01*
X24430635Y31205001D01*
X24373432Y31418487D01*
X24373429Y31418493D01*
X24335422Y31500000D01*
X54694353Y31500000D01*
X54714834Y31357544D01*
X54728953Y31326629D01*
X54774623Y31226627D01*
X54868872Y31117857D01*
X54989947Y31040047D01*
X54989950Y31040046D01*
X54989949Y31040046D01*
X55128036Y30999501D01*
X55128038Y30999500D01*
X55128039Y30999500D01*
X55271962Y30999500D01*
X55271962Y30999501D01*
X55410053Y31040047D01*
X55531128Y31117857D01*
X55625377Y31226627D01*
X55685165Y31357543D01*
X55705647Y31500000D01*
X55691269Y31600000D01*
X72869353Y31600000D01*
X72889834Y31457544D01*
X72935504Y31357543D01*
X72949623Y31326627D01*
X73043872Y31217857D01*
X73164947Y31140047D01*
X73164950Y31140046D01*
X73164949Y31140046D01*
X73303036Y31099501D01*
X73303038Y31099500D01*
X73303039Y31099500D01*
X73446962Y31099500D01*
X73446962Y31099501D01*
X73585053Y31140047D01*
X73706128Y31217857D01*
X73800377Y31326627D01*
X73860165Y31457543D01*
X73880647Y31600000D01*
X73860165Y31742457D01*
X73800377Y31873373D01*
X73706128Y31982143D01*
X73585053Y32059953D01*
X73585051Y32059954D01*
X73585049Y32059955D01*
X73585050Y32059955D01*
X73446963Y32100500D01*
X73446961Y32100500D01*
X73303039Y32100500D01*
X73303036Y32100500D01*
X73164949Y32059955D01*
X73043873Y31982144D01*
X72949623Y31873374D01*
X72949622Y31873372D01*
X72889834Y31742457D01*
X72869353Y31600000D01*
X55691269Y31600000D01*
X55685165Y31642457D01*
X55625377Y31773373D01*
X55531128Y31882143D01*
X55410053Y31959953D01*
X55410051Y31959954D01*
X55410049Y31959955D01*
X55410050Y31959955D01*
X55271963Y32000500D01*
X55271961Y32000500D01*
X55128039Y32000500D01*
X55128036Y32000500D01*
X54989949Y31959955D01*
X54868873Y31882144D01*
X54774623Y31773374D01*
X54774622Y31773372D01*
X54714834Y31642457D01*
X54694353Y31500000D01*
X24335422Y31500000D01*
X24273600Y31632578D01*
X24273599Y31632580D01*
X24138113Y31826074D01*
X24138108Y31826080D01*
X23971082Y31993106D01*
X23818424Y32100000D01*
X32394353Y32100000D01*
X32414834Y31957544D01*
X32453275Y31873372D01*
X32474623Y31826627D01*
X32568872Y31717857D01*
X32689947Y31640047D01*
X32689950Y31640046D01*
X32689949Y31640046D01*
X32797107Y31608583D01*
X32826336Y31600000D01*
X32828036Y31599501D01*
X32828038Y31599500D01*
X32828039Y31599500D01*
X32971962Y31599500D01*
X32971962Y31599501D01*
X33084616Y31632578D01*
X33110050Y31640046D01*
X33110050Y31640047D01*
X33110053Y31640047D01*
X33231128Y31717857D01*
X33325377Y31826627D01*
X33385165Y31957543D01*
X33405647Y32100000D01*
X33385165Y32242457D01*
X33325377Y32373373D01*
X33231128Y32482143D01*
X33110053Y32559953D01*
X33110051Y32559954D01*
X33110049Y32559955D01*
X33110050Y32559955D01*
X32971963Y32600500D01*
X32971961Y32600500D01*
X32828039Y32600500D01*
X32828036Y32600500D01*
X32689949Y32559955D01*
X32568873Y32482144D01*
X32474623Y32373374D01*
X32474622Y32373372D01*
X32414834Y32242457D01*
X32394353Y32100000D01*
X23818424Y32100000D01*
X23777578Y32128601D01*
X23563492Y32228430D01*
X23563486Y32228433D01*
X23350000Y32285636D01*
X23350000Y31388012D01*
X23292993Y31420925D01*
X23165826Y31455000D01*
X23034174Y31455000D01*
X22907007Y31420925D01*
X22850000Y31388012D01*
X22850000Y32285636D01*
X22849999Y32285636D01*
X22636513Y32228433D01*
X22636507Y32228430D01*
X22422422Y32128601D01*
X22422420Y32128600D01*
X22228926Y31993114D01*
X22228920Y31993109D01*
X22061891Y31826080D01*
X22061886Y31826074D01*
X21926400Y31632580D01*
X21926399Y31632578D01*
X21826570Y31418493D01*
X21826567Y31418487D01*
X21769364Y31205001D01*
X15367529Y31205001D01*
X15380861Y31222375D01*
X15436330Y31356291D01*
X15455250Y31500000D01*
X15436330Y31643709D01*
X15380861Y31777625D01*
X15292621Y31892621D01*
X15177625Y31980861D01*
X15177624Y31980862D01*
X15177622Y31980863D01*
X15043712Y32036329D01*
X15043710Y32036330D01*
X15043709Y32036330D01*
X14971854Y32045790D01*
X14900001Y32055250D01*
X14899999Y32055250D01*
X14756291Y32036330D01*
X14756287Y32036329D01*
X14622377Y31980863D01*
X14507379Y31892621D01*
X14419137Y31777623D01*
X14363671Y31643713D01*
X14363670Y31643709D01*
X14344750Y31500000D01*
X300500Y31500000D01*
X300500Y32900001D01*
X14344750Y32900001D01*
X14344750Y32900000D01*
X14363670Y32756292D01*
X14363671Y32756288D01*
X14419137Y32622378D01*
X14419138Y32622376D01*
X14419139Y32622375D01*
X14507379Y32507379D01*
X14622375Y32419139D01*
X14756291Y32363670D01*
X14883280Y32346952D01*
X14899999Y32344750D01*
X14900000Y32344750D01*
X14900001Y32344750D01*
X14914977Y32346722D01*
X15043709Y32363670D01*
X15177625Y32419139D01*
X15292621Y32507379D01*
X15380861Y32622375D01*
X15436330Y32756291D01*
X15455250Y32900000D01*
X15436330Y33043709D01*
X15380861Y33177625D01*
X15292621Y33292621D01*
X15283005Y33300000D01*
X35894353Y33300000D01*
X35914834Y33157544D01*
X35932959Y33117857D01*
X35974623Y33026627D01*
X36068872Y32917857D01*
X36189947Y32840047D01*
X36189950Y32840046D01*
X36189949Y32840046D01*
X36328036Y32799501D01*
X36328038Y32799500D01*
X36328039Y32799500D01*
X36471962Y32799500D01*
X36471962Y32799501D01*
X36610053Y32840047D01*
X36731128Y32917857D01*
X36825377Y33026627D01*
X36885165Y33157543D01*
X36905647Y33300000D01*
X36885165Y33442457D01*
X36858886Y33500000D01*
X37694353Y33500000D01*
X37714834Y33357544D01*
X37741114Y33300000D01*
X37774623Y33226627D01*
X37868872Y33117857D01*
X37989947Y33040047D01*
X37989950Y33040046D01*
X37989949Y33040046D01*
X38128036Y32999501D01*
X38128038Y32999500D01*
X38128039Y32999500D01*
X38271962Y32999500D01*
X38271962Y32999501D01*
X38410053Y33040047D01*
X38531128Y33117857D01*
X38625377Y33226627D01*
X38685165Y33357543D01*
X38705647Y33500000D01*
X38685165Y33642457D01*
X38625377Y33773373D01*
X38531128Y33882143D01*
X38410053Y33959953D01*
X38410051Y33959954D01*
X38410049Y33959955D01*
X38410050Y33959955D01*
X38271963Y34000500D01*
X38271961Y34000500D01*
X38128039Y34000500D01*
X38128036Y34000500D01*
X37989949Y33959955D01*
X37868873Y33882144D01*
X37774623Y33773374D01*
X37774622Y33773372D01*
X37714834Y33642457D01*
X37694353Y33500000D01*
X36858886Y33500000D01*
X36825377Y33573373D01*
X36731128Y33682143D01*
X36610053Y33759953D01*
X36610051Y33759954D01*
X36610049Y33759955D01*
X36610050Y33759955D01*
X36471963Y33800500D01*
X36471961Y33800500D01*
X36328039Y33800500D01*
X36328036Y33800500D01*
X36189949Y33759955D01*
X36068873Y33682144D01*
X35974623Y33573374D01*
X35974622Y33573372D01*
X35914834Y33442457D01*
X35894353Y33300000D01*
X15283005Y33300000D01*
X15177625Y33380861D01*
X15177624Y33380862D01*
X15177622Y33380863D01*
X15043712Y33436329D01*
X15043710Y33436330D01*
X15043709Y33436330D01*
X14971854Y33445790D01*
X14900001Y33455250D01*
X14899999Y33455250D01*
X14756291Y33436330D01*
X14756287Y33436329D01*
X14622377Y33380863D01*
X14507379Y33292621D01*
X14419137Y33177623D01*
X14363671Y33043713D01*
X14363670Y33043709D01*
X14344750Y32900001D01*
X300500Y32900001D01*
X300500Y36003772D01*
X4149500Y36003772D01*
X4149500Y35836229D01*
X4182182Y35671926D01*
X4182184Y35671918D01*
X4246295Y35517140D01*
X4339373Y35377838D01*
X4457837Y35259374D01*
X4546697Y35200000D01*
X4597137Y35166297D01*
X4751918Y35102184D01*
X4916228Y35069501D01*
X4916232Y35069500D01*
X4916233Y35069500D01*
X5083768Y35069500D01*
X5083769Y35069501D01*
X5248082Y35102184D01*
X5402863Y35166297D01*
X5542162Y35259374D01*
X5660626Y35377838D01*
X5753703Y35517137D01*
X5817816Y35671918D01*
X5850500Y35836233D01*
X5850500Y36003767D01*
X5817816Y36168082D01*
X5753703Y36322863D01*
X5711566Y36385925D01*
X5660626Y36462163D01*
X5542162Y36580627D01*
X5402860Y36673705D01*
X5248082Y36737816D01*
X5248074Y36737818D01*
X5083771Y36770500D01*
X5083767Y36770500D01*
X4916233Y36770500D01*
X4916228Y36770500D01*
X4751925Y36737818D01*
X4751917Y36737816D01*
X4597139Y36673705D01*
X4457837Y36580627D01*
X4339373Y36462163D01*
X4246295Y36322861D01*
X4182184Y36168083D01*
X4182182Y36168075D01*
X4149500Y36003772D01*
X300500Y36003772D01*
X300500Y36817845D01*
X6190000Y36817845D01*
X6190000Y36170000D01*
X7106988Y36170000D01*
X7074075Y36112993D01*
X7040000Y35985826D01*
X7040000Y35854174D01*
X7074075Y35727007D01*
X7106988Y35670000D01*
X6190000Y35670000D01*
X6190000Y35022156D01*
X6196401Y34962628D01*
X6196403Y34962621D01*
X6246645Y34827914D01*
X6246649Y34827907D01*
X6332809Y34712813D01*
X6332812Y34712810D01*
X6447906Y34626650D01*
X6447913Y34626646D01*
X6582620Y34576404D01*
X6582627Y34576402D01*
X6642155Y34570001D01*
X6642172Y34570000D01*
X7290000Y34570000D01*
X7290000Y35486988D01*
X7347007Y35454075D01*
X7474174Y35420000D01*
X7605826Y35420000D01*
X7732993Y35454075D01*
X7790000Y35486988D01*
X7790000Y34570000D01*
X8437828Y34570000D01*
X8437844Y34570001D01*
X8497372Y34576402D01*
X8497379Y34576404D01*
X8632086Y34626646D01*
X8632093Y34626650D01*
X8747187Y34712810D01*
X8747190Y34712813D01*
X8833350Y34827907D01*
X8833354Y34827914D01*
X8883596Y34962621D01*
X8883598Y34962628D01*
X8889999Y35022156D01*
X8890000Y35022173D01*
X8890000Y35183772D01*
X11594500Y35183772D01*
X11594500Y35016229D01*
X11627182Y34851926D01*
X11627184Y34851918D01*
X11691295Y34697140D01*
X11784373Y34557838D01*
X11902837Y34439374D01*
X11995494Y34377463D01*
X12042137Y34346297D01*
X12196918Y34282184D01*
X12361228Y34249501D01*
X12361232Y34249500D01*
X12361233Y34249500D01*
X12528768Y34249500D01*
X12528769Y34249501D01*
X12693082Y34282184D01*
X12847863Y34346297D01*
X12987162Y34439374D01*
X13105626Y34557838D01*
X13198703Y34697137D01*
X13262816Y34851918D01*
X13295500Y35016233D01*
X13295500Y35183767D01*
X13295499Y35183772D01*
X14134500Y35183772D01*
X14134500Y35016229D01*
X14167182Y34851926D01*
X14167184Y34851918D01*
X14231295Y34697140D01*
X14324373Y34557838D01*
X14442837Y34439374D01*
X14535494Y34377463D01*
X14582137Y34346297D01*
X14736918Y34282184D01*
X14901228Y34249501D01*
X14901232Y34249500D01*
X14901233Y34249500D01*
X15068768Y34249500D01*
X15068769Y34249501D01*
X15233082Y34282184D01*
X15387863Y34346297D01*
X15527162Y34439374D01*
X15645626Y34557838D01*
X15738703Y34697137D01*
X15802816Y34851918D01*
X15835500Y35016233D01*
X15835500Y35183767D01*
X15835499Y35183772D01*
X16674500Y35183772D01*
X16674500Y35016229D01*
X16707182Y34851926D01*
X16707184Y34851918D01*
X16771295Y34697140D01*
X16864373Y34557838D01*
X16982837Y34439374D01*
X17075494Y34377463D01*
X17122137Y34346297D01*
X17276918Y34282184D01*
X17441228Y34249501D01*
X17441232Y34249500D01*
X17441233Y34249500D01*
X17608768Y34249500D01*
X17608769Y34249501D01*
X17773082Y34282184D01*
X17927863Y34346297D01*
X18067162Y34439374D01*
X18185626Y34557838D01*
X18278703Y34697137D01*
X18342816Y34851918D01*
X18375500Y35016233D01*
X18375500Y35183767D01*
X18372271Y35200000D01*
X29794353Y35200000D01*
X29814834Y35057544D01*
X29858185Y34962621D01*
X29874623Y34926627D01*
X29968872Y34817857D01*
X30089947Y34740047D01*
X30089950Y34740046D01*
X30089949Y34740046D01*
X30228036Y34699501D01*
X30228038Y34699500D01*
X30228039Y34699500D01*
X30371962Y34699500D01*
X30371962Y34699501D01*
X30510053Y34740047D01*
X30631128Y34817857D01*
X30725377Y34926627D01*
X30785165Y35057543D01*
X30805647Y35200000D01*
X30785165Y35342457D01*
X30725377Y35473373D01*
X30702304Y35500001D01*
X47944750Y35500001D01*
X47944750Y35500000D01*
X47963670Y35356292D01*
X47963671Y35356288D01*
X48019137Y35222378D01*
X48019138Y35222376D01*
X48019139Y35222375D01*
X48107379Y35107379D01*
X48222375Y35019139D01*
X48222376Y35019139D01*
X48222377Y35019138D01*
X48229393Y35016232D01*
X48356291Y34963670D01*
X48483280Y34946952D01*
X48499999Y34944750D01*
X48500000Y34944750D01*
X48500001Y34944750D01*
X48514977Y34946722D01*
X48643709Y34963670D01*
X48777625Y35019139D01*
X48892621Y35107379D01*
X48980861Y35222375D01*
X49036330Y35356291D01*
X49055250Y35500000D01*
X49036330Y35643709D01*
X48980861Y35777625D01*
X48892621Y35892621D01*
X48777625Y35980861D01*
X48777624Y35980862D01*
X48777622Y35980863D01*
X48643712Y36036329D01*
X48643710Y36036330D01*
X48643709Y36036330D01*
X48571854Y36045790D01*
X48500001Y36055250D01*
X48499999Y36055250D01*
X48356291Y36036330D01*
X48356287Y36036329D01*
X48222377Y35980863D01*
X48107379Y35892621D01*
X48019137Y35777623D01*
X47963671Y35643713D01*
X47963670Y35643709D01*
X47944750Y35500001D01*
X30702304Y35500001D01*
X30631128Y35582143D01*
X30510053Y35659953D01*
X30510051Y35659954D01*
X30510049Y35659955D01*
X30510050Y35659955D01*
X30371963Y35700500D01*
X30371961Y35700500D01*
X30228039Y35700500D01*
X30228036Y35700500D01*
X30089949Y35659955D01*
X29968873Y35582144D01*
X29874623Y35473374D01*
X29874622Y35473372D01*
X29814834Y35342457D01*
X29794353Y35200000D01*
X18372271Y35200000D01*
X18342816Y35348082D01*
X18279889Y35500000D01*
X18278704Y35502861D01*
X18267318Y35519901D01*
X18225729Y35582144D01*
X18185626Y35642163D01*
X18067162Y35760627D01*
X17927860Y35853705D01*
X17773082Y35917816D01*
X17773074Y35917818D01*
X17608771Y35950500D01*
X17608767Y35950500D01*
X17441233Y35950500D01*
X17441228Y35950500D01*
X17276925Y35917818D01*
X17276917Y35917816D01*
X17122139Y35853705D01*
X16982837Y35760627D01*
X16864373Y35642163D01*
X16771295Y35502861D01*
X16707184Y35348083D01*
X16707182Y35348075D01*
X16674500Y35183772D01*
X15835499Y35183772D01*
X15802816Y35348082D01*
X15739889Y35500000D01*
X15738704Y35502861D01*
X15727318Y35519901D01*
X15685729Y35582144D01*
X15645626Y35642163D01*
X15527162Y35760627D01*
X15387860Y35853705D01*
X15233082Y35917816D01*
X15233074Y35917818D01*
X15068771Y35950500D01*
X15068767Y35950500D01*
X14901233Y35950500D01*
X14901228Y35950500D01*
X14736925Y35917818D01*
X14736917Y35917816D01*
X14582139Y35853705D01*
X14442837Y35760627D01*
X14324373Y35642163D01*
X14231295Y35502861D01*
X14167184Y35348083D01*
X14167182Y35348075D01*
X14134500Y35183772D01*
X13295499Y35183772D01*
X13262816Y35348082D01*
X13199889Y35500000D01*
X13198704Y35502861D01*
X13187318Y35519901D01*
X13145729Y35582144D01*
X13105626Y35642163D01*
X12987162Y35760627D01*
X12847860Y35853705D01*
X12693082Y35917816D01*
X12693074Y35917818D01*
X12528771Y35950500D01*
X12528767Y35950500D01*
X12361233Y35950500D01*
X12361228Y35950500D01*
X12196925Y35917818D01*
X12196917Y35917816D01*
X12042139Y35853705D01*
X11902837Y35760627D01*
X11784373Y35642163D01*
X11691295Y35502861D01*
X11627184Y35348083D01*
X11627182Y35348075D01*
X11594500Y35183772D01*
X8890000Y35183772D01*
X8890000Y35670000D01*
X7973012Y35670000D01*
X8005925Y35727007D01*
X8040000Y35854174D01*
X8040000Y35985826D01*
X8005925Y36112993D01*
X7973012Y36170000D01*
X8890000Y36170000D01*
X8890000Y36400000D01*
X50244750Y36400000D01*
X50254905Y36322863D01*
X50263670Y36256292D01*
X50263671Y36256288D01*
X50319137Y36122378D01*
X50319138Y36122376D01*
X50319139Y36122375D01*
X50407379Y36007379D01*
X50522375Y35919139D01*
X50656291Y35863670D01*
X50783280Y35846952D01*
X50799999Y35844750D01*
X50800000Y35844750D01*
X50800001Y35844750D01*
X50814977Y35846722D01*
X50943709Y35863670D01*
X51077625Y35919139D01*
X51192621Y36007379D01*
X51280861Y36122375D01*
X51336330Y36256291D01*
X51355250Y36400000D01*
X51336330Y36543709D01*
X51280861Y36677625D01*
X51192621Y36792621D01*
X51077625Y36880861D01*
X51077624Y36880862D01*
X51077622Y36880863D01*
X50943712Y36936329D01*
X50943710Y36936330D01*
X50943709Y36936330D01*
X50843675Y36949500D01*
X50800001Y36955250D01*
X50799999Y36955250D01*
X50656291Y36936330D01*
X50656287Y36936329D01*
X50522377Y36880863D01*
X50407379Y36792621D01*
X50319137Y36677623D01*
X50263671Y36543713D01*
X50263670Y36543709D01*
X50244750Y36400000D01*
X8890000Y36400000D01*
X8890000Y36817828D01*
X8889999Y36817845D01*
X8883598Y36877373D01*
X8883596Y36877380D01*
X8833354Y37012087D01*
X8833350Y37012094D01*
X8747190Y37127188D01*
X8747187Y37127191D01*
X8632093Y37213351D01*
X8632086Y37213355D01*
X8500013Y37262615D01*
X8444079Y37304486D01*
X8419662Y37369951D01*
X8434514Y37438224D01*
X8443329Y37450000D01*
X43644353Y37450000D01*
X43664834Y37307544D01*
X43724622Y37176629D01*
X43724623Y37176627D01*
X43818872Y37067857D01*
X43939947Y36990047D01*
X43939950Y36990046D01*
X43939949Y36990046D01*
X44078036Y36949501D01*
X44078038Y36949500D01*
X44078039Y36949500D01*
X44221962Y36949500D01*
X44221962Y36949501D01*
X44360053Y36990047D01*
X44481128Y37067857D01*
X44575377Y37176627D01*
X44635165Y37307543D01*
X44655647Y37450000D01*
X44635165Y37592457D01*
X44575377Y37723373D01*
X44481128Y37832143D01*
X44360053Y37909953D01*
X44360051Y37909954D01*
X44360049Y37909955D01*
X44360050Y37909955D01*
X44221963Y37950500D01*
X44221961Y37950500D01*
X44078039Y37950500D01*
X44078036Y37950500D01*
X43939949Y37909955D01*
X43818873Y37832144D01*
X43724623Y37723374D01*
X43724622Y37723372D01*
X43664834Y37592457D01*
X43644353Y37450000D01*
X8443329Y37450000D01*
X8455665Y37466479D01*
X8578108Y37588922D01*
X8713600Y37782422D01*
X8813429Y37996508D01*
X8813432Y37996514D01*
X8870636Y38210000D01*
X7973012Y38210000D01*
X8005925Y38267007D01*
X8040000Y38394174D01*
X8040000Y38525826D01*
X8005925Y38652993D01*
X7973012Y38710000D01*
X8870636Y38710000D01*
X8870635Y38710001D01*
X8813432Y38923487D01*
X8813429Y38923493D01*
X8731122Y39100001D01*
X35544750Y39100001D01*
X35544750Y39100000D01*
X35563670Y38956292D01*
X35563671Y38956288D01*
X35619137Y38822378D01*
X35619138Y38822376D01*
X35619139Y38822375D01*
X35707379Y38707379D01*
X35822375Y38619139D01*
X35956291Y38563670D01*
X36083280Y38546952D01*
X36099999Y38544750D01*
X36100000Y38544750D01*
X36100001Y38544750D01*
X36114977Y38546722D01*
X36243709Y38563670D01*
X36377625Y38619139D01*
X36492621Y38707379D01*
X36580861Y38822375D01*
X36636330Y38956291D01*
X36655250Y39100000D01*
X36636330Y39243709D01*
X36580861Y39377625D01*
X36492621Y39492621D01*
X36377625Y39580861D01*
X36377624Y39580862D01*
X36377622Y39580863D01*
X36243712Y39636329D01*
X36243710Y39636330D01*
X36243709Y39636330D01*
X36171854Y39645790D01*
X36100001Y39655250D01*
X36099999Y39655250D01*
X35956291Y39636330D01*
X35956287Y39636329D01*
X35822377Y39580863D01*
X35707379Y39492621D01*
X35619137Y39377623D01*
X35563671Y39243713D01*
X35563670Y39243709D01*
X35544750Y39100001D01*
X8731122Y39100001D01*
X8713600Y39137578D01*
X8713599Y39137580D01*
X8578113Y39331074D01*
X8578108Y39331080D01*
X8411082Y39498106D01*
X8224968Y39628425D01*
X8181344Y39683002D01*
X8174151Y39752501D01*
X8205673Y39814855D01*
X8224968Y39831575D01*
X8411082Y39961895D01*
X8578105Y40128918D01*
X8713600Y40322422D01*
X8813429Y40536508D01*
X8813432Y40536514D01*
X8830443Y40600000D01*
X16294353Y40600000D01*
X16314834Y40457544D01*
X16374622Y40326629D01*
X16374623Y40326627D01*
X16468872Y40217857D01*
X16589947Y40140047D01*
X16589950Y40140046D01*
X16589949Y40140046D01*
X16728036Y40099501D01*
X16728038Y40099500D01*
X16728039Y40099500D01*
X16871962Y40099500D01*
X16871962Y40099501D01*
X17010053Y40140047D01*
X17131128Y40217857D01*
X17225377Y40326627D01*
X17285165Y40457543D01*
X17305647Y40600000D01*
X17285165Y40742457D01*
X17225377Y40873373D01*
X17131128Y40982143D01*
X17010053Y41059953D01*
X17010051Y41059954D01*
X17010049Y41059955D01*
X17010050Y41059955D01*
X16871963Y41100500D01*
X16871961Y41100500D01*
X16728039Y41100500D01*
X16728036Y41100500D01*
X16589949Y41059955D01*
X16468873Y40982144D01*
X16374623Y40873374D01*
X16374622Y40873372D01*
X16314834Y40742457D01*
X16294353Y40600000D01*
X8830443Y40600000D01*
X8870636Y40750000D01*
X7973012Y40750000D01*
X8005925Y40807007D01*
X8040000Y40934174D01*
X8040000Y41065826D01*
X8005925Y41192993D01*
X7973012Y41250000D01*
X8870636Y41250000D01*
X8870635Y41250001D01*
X8813432Y41463487D01*
X8813429Y41463493D01*
X8713600Y41677578D01*
X8713599Y41677580D01*
X8627880Y41800000D01*
X12594353Y41800000D01*
X12614834Y41657544D01*
X12640886Y41600500D01*
X12674623Y41526627D01*
X12768872Y41417857D01*
X12889947Y41340047D01*
X12889950Y41340046D01*
X12889949Y41340046D01*
X13028036Y41299501D01*
X13028038Y41299500D01*
X13028039Y41299500D01*
X13171962Y41299500D01*
X13171962Y41299501D01*
X13310053Y41340047D01*
X13431128Y41417857D01*
X13502305Y41500000D01*
X32994353Y41500000D01*
X33014834Y41357544D01*
X33074622Y41226629D01*
X33074623Y41226627D01*
X33168872Y41117857D01*
X33289947Y41040047D01*
X33289950Y41040046D01*
X33289949Y41040046D01*
X33428036Y40999501D01*
X33428038Y40999500D01*
X33428039Y40999500D01*
X33571962Y40999500D01*
X33571962Y40999501D01*
X33710053Y41040047D01*
X33831128Y41117857D01*
X33902305Y41200000D01*
X39394353Y41200000D01*
X39414834Y41057544D01*
X39460504Y40957543D01*
X39474623Y40926627D01*
X39568872Y40817857D01*
X39689947Y40740047D01*
X39689950Y40740046D01*
X39689949Y40740046D01*
X39828036Y40699501D01*
X39828038Y40699500D01*
X39828039Y40699500D01*
X39971962Y40699500D01*
X39971962Y40699501D01*
X40110053Y40740047D01*
X40231128Y40817857D01*
X40325377Y40926627D01*
X40385165Y41057543D01*
X40391269Y41100000D01*
X44394353Y41100000D01*
X44414834Y40957544D01*
X44453275Y40873372D01*
X44474623Y40826627D01*
X44568872Y40717857D01*
X44689947Y40640047D01*
X44689950Y40640046D01*
X44689949Y40640046D01*
X44797107Y40608583D01*
X44826673Y40599901D01*
X44828036Y40599501D01*
X44828038Y40599500D01*
X44828039Y40599500D01*
X44971962Y40599500D01*
X44971962Y40599501D01*
X45110053Y40640047D01*
X45231128Y40717857D01*
X45325377Y40826627D01*
X45385165Y40957543D01*
X45405647Y41100000D01*
X45385165Y41242457D01*
X45325377Y41373373D01*
X45231128Y41482143D01*
X45110053Y41559953D01*
X45110051Y41559954D01*
X45110049Y41559955D01*
X45110050Y41559955D01*
X44971963Y41600500D01*
X44971961Y41600500D01*
X44828039Y41600500D01*
X44828036Y41600500D01*
X44689949Y41559955D01*
X44568873Y41482144D01*
X44474623Y41373374D01*
X44474622Y41373372D01*
X44414834Y41242457D01*
X44394353Y41100000D01*
X40391269Y41100000D01*
X40405647Y41200000D01*
X40385165Y41342457D01*
X40325377Y41473373D01*
X40231128Y41582143D01*
X40110053Y41659953D01*
X40110051Y41659954D01*
X40110049Y41659955D01*
X40110050Y41659955D01*
X39971963Y41700500D01*
X39971961Y41700500D01*
X39828039Y41700500D01*
X39828036Y41700500D01*
X39689949Y41659955D01*
X39568873Y41582144D01*
X39474623Y41473374D01*
X39474622Y41473372D01*
X39414834Y41342457D01*
X39394353Y41200000D01*
X33902305Y41200000D01*
X33925377Y41226627D01*
X33985165Y41357543D01*
X34005647Y41500000D01*
X33985165Y41642457D01*
X33925377Y41773373D01*
X33831128Y41882143D01*
X33710053Y41959953D01*
X33710051Y41959954D01*
X33710049Y41959955D01*
X33710050Y41959955D01*
X33571963Y42000500D01*
X33571961Y42000500D01*
X33428039Y42000500D01*
X33428036Y42000500D01*
X33289949Y41959955D01*
X33168873Y41882144D01*
X33074623Y41773374D01*
X33074622Y41773372D01*
X33014834Y41642457D01*
X32994353Y41500000D01*
X13502305Y41500000D01*
X13525377Y41526627D01*
X13585165Y41657543D01*
X13605647Y41800000D01*
X13585165Y41942457D01*
X13525377Y42073373D01*
X13431128Y42182143D01*
X13310053Y42259953D01*
X13310051Y42259954D01*
X13310049Y42259955D01*
X13310050Y42259955D01*
X13171963Y42300500D01*
X13171961Y42300500D01*
X13028039Y42300500D01*
X13028036Y42300500D01*
X12889949Y42259955D01*
X12768873Y42182144D01*
X12674623Y42073374D01*
X12674622Y42073372D01*
X12614834Y41942457D01*
X12594353Y41800000D01*
X8627880Y41800000D01*
X8578113Y41871074D01*
X8578108Y41871080D01*
X8411082Y42038106D01*
X8224968Y42168425D01*
X8181344Y42223002D01*
X8174151Y42292501D01*
X8205673Y42354855D01*
X8224968Y42371575D01*
X8411082Y42501895D01*
X8578105Y42668918D01*
X8713600Y42862422D01*
X8813429Y43076508D01*
X8813432Y43076514D01*
X8819725Y43100000D01*
X11294353Y43100000D01*
X11314834Y42957544D01*
X11360504Y42857543D01*
X11374623Y42826627D01*
X11468872Y42717857D01*
X11589947Y42640047D01*
X11589950Y42640046D01*
X11589949Y42640046D01*
X11728036Y42599501D01*
X11728038Y42599500D01*
X11728039Y42599500D01*
X11871962Y42599500D01*
X11871962Y42599501D01*
X12010053Y42640047D01*
X12131128Y42717857D01*
X12225377Y42826627D01*
X12285165Y42957543D01*
X12291269Y43000000D01*
X18494353Y43000000D01*
X18514834Y42857544D01*
X18568494Y42740047D01*
X18574623Y42726627D01*
X18668872Y42617857D01*
X18789947Y42540047D01*
X18789950Y42540046D01*
X18789949Y42540046D01*
X18897107Y42508583D01*
X18919882Y42501895D01*
X18928036Y42499501D01*
X18928038Y42499500D01*
X18928039Y42499500D01*
X19071962Y42499500D01*
X19071962Y42499501D01*
X19210053Y42540047D01*
X19331128Y42617857D01*
X19425377Y42726627D01*
X19485165Y42857543D01*
X19505647Y43000000D01*
X19485165Y43142457D01*
X19458886Y43200000D01*
X28394353Y43200000D01*
X28414834Y43057544D01*
X28460504Y42957543D01*
X28474623Y42926627D01*
X28568872Y42817857D01*
X28689947Y42740047D01*
X28689950Y42740046D01*
X28689949Y42740046D01*
X28828036Y42699501D01*
X28828038Y42699500D01*
X28828039Y42699500D01*
X28971962Y42699500D01*
X28971962Y42699501D01*
X29110053Y42740047D01*
X29231128Y42817857D01*
X29325377Y42926627D01*
X29385165Y43057543D01*
X29405647Y43200000D01*
X29385165Y43342457D01*
X29325377Y43473373D01*
X29231128Y43582143D01*
X29110053Y43659953D01*
X29110051Y43659954D01*
X29110049Y43659955D01*
X29110050Y43659955D01*
X28971963Y43700500D01*
X28971961Y43700500D01*
X28828039Y43700500D01*
X28828036Y43700500D01*
X28689949Y43659955D01*
X28568873Y43582144D01*
X28474623Y43473374D01*
X28474622Y43473372D01*
X28414834Y43342457D01*
X28394353Y43200000D01*
X19458886Y43200000D01*
X19425377Y43273373D01*
X19331128Y43382143D01*
X19210053Y43459953D01*
X19210051Y43459954D01*
X19210049Y43459955D01*
X19210050Y43459955D01*
X19071963Y43500500D01*
X19071961Y43500500D01*
X18928039Y43500500D01*
X18928036Y43500500D01*
X18789949Y43459955D01*
X18668873Y43382144D01*
X18574623Y43273374D01*
X18574622Y43273372D01*
X18514834Y43142457D01*
X18494353Y43000000D01*
X12291269Y43000000D01*
X12305647Y43100000D01*
X12285165Y43242457D01*
X12225377Y43373373D01*
X12131128Y43482143D01*
X12010053Y43559953D01*
X12010051Y43559954D01*
X12010049Y43559955D01*
X12010050Y43559955D01*
X11871963Y43600500D01*
X11871961Y43600500D01*
X11728039Y43600500D01*
X11728036Y43600500D01*
X11589949Y43559955D01*
X11468873Y43482144D01*
X11374623Y43373374D01*
X11374622Y43373372D01*
X11314834Y43242457D01*
X11294353Y43100000D01*
X8819725Y43100000D01*
X8870636Y43290000D01*
X7973012Y43290000D01*
X8005925Y43347007D01*
X8040000Y43474174D01*
X8040000Y43605826D01*
X8005925Y43732993D01*
X7973012Y43790000D01*
X8870636Y43790000D01*
X8870635Y43790001D01*
X8813432Y44003487D01*
X8813429Y44003493D01*
X8713600Y44217578D01*
X8713599Y44217580D01*
X8578113Y44411074D01*
X8578108Y44411080D01*
X8411082Y44578106D01*
X8217578Y44713601D01*
X8003492Y44813430D01*
X8003486Y44813433D01*
X7790000Y44870636D01*
X7790000Y43973012D01*
X7732993Y44005925D01*
X7605826Y44040000D01*
X7474174Y44040000D01*
X7347007Y44005925D01*
X7290000Y43973012D01*
X7290000Y44870636D01*
X7289999Y44870636D01*
X7076513Y44813433D01*
X7076507Y44813430D01*
X6862422Y44713601D01*
X6862420Y44713600D01*
X6668926Y44578114D01*
X6668920Y44578109D01*
X6501891Y44411080D01*
X6501886Y44411074D01*
X6366400Y44217580D01*
X6366399Y44217578D01*
X6266570Y44003493D01*
X6266567Y44003487D01*
X6209364Y43790001D01*
X6209364Y43790000D01*
X7106988Y43790000D01*
X7074075Y43732993D01*
X7040000Y43605826D01*
X7040000Y43474174D01*
X7074075Y43347007D01*
X7106988Y43290000D01*
X6209364Y43290000D01*
X6266567Y43076514D01*
X6266570Y43076508D01*
X6366399Y42862422D01*
X6501894Y42668918D01*
X6668917Y42501895D01*
X6855031Y42371575D01*
X6898656Y42316997D01*
X6905848Y42247499D01*
X6874326Y42185144D01*
X6855031Y42168425D01*
X6668922Y42038110D01*
X6668920Y42038109D01*
X6501891Y41871080D01*
X6501886Y41871074D01*
X6366400Y41677580D01*
X6366399Y41677578D01*
X6266570Y41463493D01*
X6266567Y41463487D01*
X6209364Y41250001D01*
X6209364Y41250000D01*
X7106988Y41250000D01*
X7074075Y41192993D01*
X7040000Y41065826D01*
X7040000Y40934174D01*
X7074075Y40807007D01*
X7106988Y40750000D01*
X6209364Y40750000D01*
X6266567Y40536514D01*
X6266570Y40536508D01*
X6366399Y40322422D01*
X6501894Y40128918D01*
X6668917Y39961895D01*
X6855031Y39831575D01*
X6898656Y39776997D01*
X6905848Y39707499D01*
X6874326Y39645144D01*
X6855031Y39628425D01*
X6668922Y39498110D01*
X6668920Y39498109D01*
X6501891Y39331080D01*
X6501886Y39331074D01*
X6366400Y39137580D01*
X6366399Y39137578D01*
X6266570Y38923493D01*
X6266567Y38923487D01*
X6209364Y38710001D01*
X6209364Y38710000D01*
X7106988Y38710000D01*
X7074075Y38652993D01*
X7040000Y38525826D01*
X7040000Y38394174D01*
X7074075Y38267007D01*
X7106988Y38210000D01*
X6209364Y38210000D01*
X6266567Y37996514D01*
X6266570Y37996508D01*
X6366399Y37782422D01*
X6501894Y37588918D01*
X6624334Y37466478D01*
X6657819Y37405155D01*
X6652835Y37335463D01*
X6610963Y37279530D01*
X6579987Y37262615D01*
X6447911Y37213354D01*
X6447906Y37213351D01*
X6332812Y37127191D01*
X6332809Y37127188D01*
X6246649Y37012094D01*
X6246645Y37012087D01*
X6196403Y36877380D01*
X6196401Y36877373D01*
X6190000Y36817845D01*
X300500Y36817845D01*
X300500Y38543772D01*
X4149500Y38543772D01*
X4149500Y38376229D01*
X4182182Y38211926D01*
X4182184Y38211918D01*
X4246295Y38057140D01*
X4339373Y37917838D01*
X4457837Y37799374D01*
X4483208Y37782422D01*
X4597137Y37706297D01*
X4751918Y37642184D01*
X4916228Y37609501D01*
X4916232Y37609500D01*
X4916233Y37609500D01*
X5083768Y37609500D01*
X5083769Y37609501D01*
X5248082Y37642184D01*
X5402863Y37706297D01*
X5542162Y37799374D01*
X5660626Y37917838D01*
X5753703Y38057137D01*
X5817816Y38211918D01*
X5850500Y38376233D01*
X5850500Y38543767D01*
X5817816Y38708082D01*
X5753703Y38862863D01*
X5691276Y38956291D01*
X5660626Y39002163D01*
X5542162Y39120627D01*
X5402860Y39213705D01*
X5248082Y39277816D01*
X5248074Y39277818D01*
X5083771Y39310500D01*
X5083767Y39310500D01*
X4916233Y39310500D01*
X4916228Y39310500D01*
X4751925Y39277818D01*
X4751917Y39277816D01*
X4597139Y39213705D01*
X4457837Y39120627D01*
X4339373Y39002163D01*
X4246295Y38862861D01*
X4182184Y38708083D01*
X4182182Y38708075D01*
X4149500Y38543772D01*
X300500Y38543772D01*
X300500Y41083772D01*
X4149500Y41083772D01*
X4149500Y40916229D01*
X4182182Y40751926D01*
X4182184Y40751918D01*
X4246295Y40597140D01*
X4339373Y40457838D01*
X4457837Y40339374D01*
X4483208Y40322422D01*
X4597137Y40246297D01*
X4751918Y40182184D01*
X4916228Y40149501D01*
X4916232Y40149500D01*
X4916233Y40149500D01*
X5083768Y40149500D01*
X5083769Y40149501D01*
X5248082Y40182184D01*
X5402863Y40246297D01*
X5542162Y40339374D01*
X5660626Y40457838D01*
X5753703Y40597137D01*
X5817816Y40751918D01*
X5850500Y40916233D01*
X5850500Y41083767D01*
X5817816Y41248082D01*
X5753703Y41402863D01*
X5688798Y41500000D01*
X5660626Y41542163D01*
X5542162Y41660627D01*
X5402860Y41753705D01*
X5248082Y41817816D01*
X5248074Y41817818D01*
X5083771Y41850500D01*
X5083767Y41850500D01*
X4916233Y41850500D01*
X4916228Y41850500D01*
X4751925Y41817818D01*
X4751917Y41817816D01*
X4597139Y41753705D01*
X4457837Y41660627D01*
X4339373Y41542163D01*
X4246295Y41402861D01*
X4182184Y41248083D01*
X4182182Y41248075D01*
X4149500Y41083772D01*
X300500Y41083772D01*
X300500Y43623772D01*
X4149500Y43623772D01*
X4149500Y43456229D01*
X4182182Y43291926D01*
X4182184Y43291918D01*
X4246295Y43137140D01*
X4339373Y42997838D01*
X4457837Y42879374D01*
X4490510Y42857543D01*
X4597137Y42786297D01*
X4751918Y42722184D01*
X4916228Y42689501D01*
X4916232Y42689500D01*
X4916233Y42689500D01*
X5083768Y42689500D01*
X5083769Y42689501D01*
X5248082Y42722184D01*
X5402863Y42786297D01*
X5542162Y42879374D01*
X5660626Y42997838D01*
X5753703Y43137137D01*
X5817816Y43291918D01*
X5850500Y43456233D01*
X5850500Y43623767D01*
X5817816Y43788082D01*
X5754870Y43940046D01*
X5753704Y43942861D01*
X5731142Y43976627D01*
X5711566Y44005925D01*
X5660626Y44082163D01*
X5542162Y44200627D01*
X5402860Y44293705D01*
X5248082Y44357816D01*
X5248074Y44357818D01*
X5083771Y44390500D01*
X5083767Y44390500D01*
X4916233Y44390500D01*
X4916228Y44390500D01*
X4751925Y44357818D01*
X4751917Y44357816D01*
X4597139Y44293705D01*
X4457837Y44200627D01*
X4339373Y44082163D01*
X4246295Y43942861D01*
X4182184Y43788083D01*
X4182182Y43788075D01*
X4149500Y43623772D01*
X300500Y43623772D01*
X300500Y45588696D01*
X12099500Y45588696D01*
X12099500Y45411305D01*
X12134103Y45237342D01*
X12134106Y45237333D01*
X12201983Y45073460D01*
X12201990Y45073447D01*
X12300535Y44925966D01*
X12300538Y44925962D01*
X12425961Y44800539D01*
X12425965Y44800536D01*
X12573446Y44701991D01*
X12573459Y44701984D01*
X12642534Y44673373D01*
X12737334Y44634106D01*
X12737336Y44634106D01*
X12737341Y44634104D01*
X12911304Y44599501D01*
X12911307Y44599500D01*
X12911309Y44599500D01*
X13088693Y44599500D01*
X13088694Y44599501D01*
X13146682Y44611036D01*
X13262658Y44634104D01*
X13262661Y44634106D01*
X13262666Y44634106D01*
X13426547Y44701987D01*
X13574035Y44800536D01*
X13699464Y44925965D01*
X13798013Y45073453D01*
X13865894Y45237334D01*
X13900500Y45411309D01*
X13900500Y45500001D01*
X14169939Y45500001D01*
X14169939Y45500000D01*
X14190145Y45269042D01*
X14190147Y45269032D01*
X14250148Y45045100D01*
X14250152Y45045091D01*
X14348133Y44834970D01*
X14403023Y44756578D01*
X14976212Y45329767D01*
X14987482Y45287708D01*
X15059890Y45162292D01*
X15162292Y45059890D01*
X15287708Y44987482D01*
X15329765Y44976213D01*
X14756576Y44403025D01*
X14834969Y44348133D01*
X15045090Y44250153D01*
X15045099Y44250149D01*
X15269031Y44190148D01*
X15269041Y44190146D01*
X15499999Y44169939D01*
X15500001Y44169939D01*
X15730958Y44190146D01*
X15730968Y44190148D01*
X15954344Y44250000D01*
X31694353Y44250000D01*
X31714834Y44107544D01*
X31762356Y44003487D01*
X31774623Y43976627D01*
X31868872Y43867857D01*
X31989947Y43790047D01*
X31989950Y43790046D01*
X31989949Y43790046D01*
X32128036Y43749501D01*
X32128038Y43749500D01*
X32128039Y43749500D01*
X32271962Y43749500D01*
X32271962Y43749501D01*
X32409893Y43790000D01*
X32410050Y43790046D01*
X32410050Y43790047D01*
X32410053Y43790047D01*
X32531128Y43867857D01*
X32625377Y43976627D01*
X32685165Y44107543D01*
X32705647Y44250000D01*
X32685165Y44392457D01*
X32636051Y44500000D01*
X40794353Y44500000D01*
X40814834Y44357544D01*
X40860504Y44257543D01*
X40874623Y44226627D01*
X40968872Y44117857D01*
X41089947Y44040047D01*
X41089950Y44040046D01*
X41089949Y44040046D01*
X41165520Y44017857D01*
X41214460Y44003487D01*
X41228036Y43999501D01*
X41228038Y43999500D01*
X41228039Y43999500D01*
X41371962Y43999500D01*
X41371962Y43999501D01*
X41510053Y44040047D01*
X41631128Y44117857D01*
X41725377Y44226627D01*
X41785165Y44357543D01*
X41791269Y44400000D01*
X42694353Y44400000D01*
X42714834Y44257544D01*
X42754843Y44169939D01*
X42774623Y44126627D01*
X42868872Y44017857D01*
X42989947Y43940047D01*
X42989950Y43940046D01*
X42989949Y43940046D01*
X43128036Y43899501D01*
X43128038Y43899500D01*
X43128039Y43899500D01*
X43271962Y43899500D01*
X43271962Y43899501D01*
X43410053Y43940047D01*
X43531128Y44017857D01*
X43625377Y44126627D01*
X43685165Y44257543D01*
X43705647Y44400000D01*
X43685165Y44542457D01*
X43625377Y44673373D01*
X43531128Y44782143D01*
X43410053Y44859953D01*
X43410051Y44859954D01*
X43410049Y44859955D01*
X43410050Y44859955D01*
X43271963Y44900500D01*
X43271961Y44900500D01*
X43128039Y44900500D01*
X43128036Y44900500D01*
X42989949Y44859955D01*
X42868873Y44782144D01*
X42774623Y44673374D01*
X42774622Y44673372D01*
X42714834Y44542457D01*
X42694353Y44400000D01*
X41791269Y44400000D01*
X41805647Y44500000D01*
X41785165Y44642457D01*
X41725377Y44773373D01*
X41631128Y44882143D01*
X41510053Y44959953D01*
X41510051Y44959954D01*
X41510049Y44959955D01*
X41510050Y44959955D01*
X41371963Y45000500D01*
X41371961Y45000500D01*
X41228039Y45000500D01*
X41228036Y45000500D01*
X41089949Y44959955D01*
X40968873Y44882144D01*
X40874623Y44773374D01*
X40874622Y44773372D01*
X40814834Y44642457D01*
X40794353Y44500000D01*
X32636051Y44500000D01*
X32625377Y44523373D01*
X32531128Y44632143D01*
X32410053Y44709953D01*
X32410051Y44709954D01*
X32410049Y44709955D01*
X32410050Y44709955D01*
X32271963Y44750500D01*
X32271961Y44750500D01*
X32128039Y44750500D01*
X32128036Y44750500D01*
X31989949Y44709955D01*
X31868873Y44632144D01*
X31774623Y44523374D01*
X31774622Y44523372D01*
X31714834Y44392457D01*
X31694353Y44250000D01*
X15954344Y44250000D01*
X15954900Y44250149D01*
X15954909Y44250153D01*
X16165030Y44348133D01*
X16165034Y44348135D01*
X16243422Y44403024D01*
X16243422Y44403025D01*
X15670235Y44976213D01*
X15712292Y44987482D01*
X15837708Y45059890D01*
X15940110Y45162292D01*
X16012518Y45287708D01*
X16023787Y45329766D01*
X16596975Y44756578D01*
X16596976Y44756578D01*
X16651865Y44834966D01*
X16651867Y44834970D01*
X16749847Y45045091D01*
X16749851Y45045100D01*
X16809852Y45269032D01*
X16809854Y45269042D01*
X16830061Y45500000D01*
X16830061Y45500001D01*
X16822301Y45588696D01*
X17099500Y45588696D01*
X17099500Y45411305D01*
X17134103Y45237342D01*
X17134106Y45237333D01*
X17201983Y45073460D01*
X17201990Y45073447D01*
X17300535Y44925966D01*
X17300538Y44925962D01*
X17425961Y44800539D01*
X17425965Y44800536D01*
X17573446Y44701991D01*
X17573459Y44701984D01*
X17642534Y44673373D01*
X17737334Y44634106D01*
X17737336Y44634106D01*
X17737341Y44634104D01*
X17911304Y44599501D01*
X17911307Y44599500D01*
X17911309Y44599500D01*
X18088693Y44599500D01*
X18088694Y44599501D01*
X18146682Y44611036D01*
X18262658Y44634104D01*
X18262661Y44634106D01*
X18262666Y44634106D01*
X18426547Y44701987D01*
X18574035Y44800536D01*
X18699464Y44925965D01*
X18798013Y45073453D01*
X18865894Y45237334D01*
X18900500Y45411309D01*
X18900500Y45500000D01*
X30194353Y45500000D01*
X30214834Y45357544D01*
X30269733Y45237334D01*
X30274623Y45226627D01*
X30368872Y45117857D01*
X30489947Y45040047D01*
X30489950Y45040046D01*
X30489949Y45040046D01*
X30597107Y45008583D01*
X30624633Y45000500D01*
X30628036Y44999501D01*
X30628038Y44999500D01*
X30628039Y44999500D01*
X30771962Y44999500D01*
X30771962Y44999501D01*
X30910053Y45040047D01*
X31031128Y45117857D01*
X31125377Y45226627D01*
X31185165Y45357543D01*
X31205647Y45500000D01*
X31185165Y45642457D01*
X31125377Y45773373D01*
X31031128Y45882143D01*
X30910053Y45959953D01*
X30910051Y45959954D01*
X30910049Y45959955D01*
X30910050Y45959955D01*
X30771963Y46000500D01*
X30771961Y46000500D01*
X30628039Y46000500D01*
X30628036Y46000500D01*
X30489949Y45959955D01*
X30368873Y45882144D01*
X30274623Y45773374D01*
X30274622Y45773372D01*
X30214834Y45642457D01*
X30194353Y45500000D01*
X18900500Y45500000D01*
X18900500Y45588691D01*
X18900500Y45588694D01*
X18900499Y45588696D01*
X18865896Y45762659D01*
X18865893Y45762668D01*
X18798016Y45926541D01*
X18798009Y45926554D01*
X18699464Y46074035D01*
X18699461Y46074039D01*
X18574038Y46199462D01*
X18574034Y46199465D01*
X18426553Y46298010D01*
X18426540Y46298017D01*
X18262667Y46365894D01*
X18262658Y46365897D01*
X18088694Y46400500D01*
X18088691Y46400500D01*
X17911309Y46400500D01*
X17911306Y46400500D01*
X17737341Y46365897D01*
X17737332Y46365894D01*
X17573459Y46298017D01*
X17573446Y46298010D01*
X17425965Y46199465D01*
X17425961Y46199462D01*
X17300538Y46074039D01*
X17300535Y46074035D01*
X17201990Y45926554D01*
X17201983Y45926541D01*
X17134106Y45762668D01*
X17134103Y45762659D01*
X17099500Y45588696D01*
X16822301Y45588696D01*
X16809854Y45730959D01*
X16809852Y45730969D01*
X16749851Y45954901D01*
X16749847Y45954910D01*
X16651867Y46165029D01*
X16651866Y46165031D01*
X16596975Y46243423D01*
X16596975Y46243424D01*
X16023787Y45670236D01*
X16012518Y45712292D01*
X15940110Y45837708D01*
X15837708Y45940110D01*
X15712292Y46012518D01*
X15670234Y46023788D01*
X16243422Y46596977D01*
X16165030Y46651867D01*
X16061808Y46700000D01*
X28594353Y46700000D01*
X28614834Y46557544D01*
X28674622Y46426629D01*
X28674623Y46426627D01*
X28768872Y46317857D01*
X28889947Y46240047D01*
X28889950Y46240046D01*
X28889949Y46240046D01*
X29028036Y46199501D01*
X29028038Y46199500D01*
X29028039Y46199500D01*
X29171962Y46199500D01*
X29171962Y46199501D01*
X29310053Y46240047D01*
X29431128Y46317857D01*
X29525377Y46426627D01*
X29585165Y46557543D01*
X29605647Y46700000D01*
X29598458Y46750000D01*
X34894353Y46750000D01*
X34914834Y46607544D01*
X34919660Y46596977D01*
X34974623Y46476627D01*
X35068872Y46367857D01*
X35189947Y46290047D01*
X35189950Y46290046D01*
X35189949Y46290046D01*
X35328036Y46249501D01*
X35328038Y46249500D01*
X35328039Y46249500D01*
X35471962Y46249500D01*
X35471962Y46249501D01*
X35610053Y46290047D01*
X35731128Y46367857D01*
X35825377Y46476627D01*
X35885165Y46607543D01*
X35905647Y46750000D01*
X35885165Y46892457D01*
X35825377Y47023373D01*
X35731128Y47132143D01*
X35610053Y47209953D01*
X35610051Y47209954D01*
X35610049Y47209955D01*
X35610050Y47209955D01*
X35471963Y47250500D01*
X35471961Y47250500D01*
X35328039Y47250500D01*
X35328036Y47250500D01*
X35189949Y47209955D01*
X35068873Y47132144D01*
X34974623Y47023374D01*
X34974622Y47023372D01*
X34914834Y46892457D01*
X34894353Y46750000D01*
X29598458Y46750000D01*
X29585165Y46842457D01*
X29525377Y46973373D01*
X29431128Y47082143D01*
X29310053Y47159953D01*
X29310051Y47159954D01*
X29310049Y47159955D01*
X29310050Y47159955D01*
X29171963Y47200500D01*
X29171961Y47200500D01*
X29028039Y47200500D01*
X29028036Y47200500D01*
X28889949Y47159955D01*
X28768873Y47082144D01*
X28674623Y46973374D01*
X28674622Y46973372D01*
X28614834Y46842457D01*
X28594353Y46700000D01*
X16061808Y46700000D01*
X15954909Y46749848D01*
X15954900Y46749852D01*
X15730968Y46809853D01*
X15730958Y46809855D01*
X15500001Y46830061D01*
X15499999Y46830061D01*
X15269041Y46809855D01*
X15269031Y46809853D01*
X15045099Y46749852D01*
X15045090Y46749848D01*
X14834967Y46651866D01*
X14756576Y46596978D01*
X15329766Y46023788D01*
X15287708Y46012518D01*
X15162292Y45940110D01*
X15059890Y45837708D01*
X14987482Y45712292D01*
X14976212Y45670234D01*
X14403022Y46243424D01*
X14348134Y46165033D01*
X14250152Y45954910D01*
X14250148Y45954901D01*
X14190147Y45730969D01*
X14190145Y45730959D01*
X14169939Y45500001D01*
X13900500Y45500001D01*
X13900500Y45588691D01*
X13900500Y45588694D01*
X13900499Y45588696D01*
X13865896Y45762659D01*
X13865893Y45762668D01*
X13798016Y45926541D01*
X13798009Y45926554D01*
X13699464Y46074035D01*
X13699461Y46074039D01*
X13574038Y46199462D01*
X13574034Y46199465D01*
X13426553Y46298010D01*
X13426540Y46298017D01*
X13262667Y46365894D01*
X13262658Y46365897D01*
X13088694Y46400500D01*
X13088691Y46400500D01*
X12911309Y46400500D01*
X12911306Y46400500D01*
X12737341Y46365897D01*
X12737332Y46365894D01*
X12573459Y46298017D01*
X12573446Y46298010D01*
X12425965Y46199465D01*
X12425961Y46199462D01*
X12300538Y46074039D01*
X12300535Y46074035D01*
X12201990Y45926554D01*
X12201983Y45926541D01*
X12134106Y45762668D01*
X12134103Y45762659D01*
X12099500Y45588696D01*
X300500Y45588696D01*
X300500Y48643898D01*
X320185Y48710937D01*
X372989Y48756692D01*
X442147Y48766636D01*
X505703Y48737611D01*
X540264Y48688336D01*
X615244Y48493006D01*
X791310Y48147457D01*
X1002531Y47822207D01*
X1211095Y47564650D01*
X1211096Y47564650D01*
X2705748Y49059302D01*
X2779588Y48957670D01*
X2957670Y48779588D01*
X3059300Y48705749D01*
X1564648Y47211097D01*
X1564649Y47211096D01*
X1822206Y47002532D01*
X2147456Y46791311D01*
X2493005Y46615245D01*
X2855063Y46476263D01*
X3229669Y46375888D01*
X3229676Y46375887D01*
X3612712Y46315220D01*
X3999999Y46294922D01*
X4000001Y46294922D01*
X4387287Y46315220D01*
X4770323Y46375887D01*
X4770330Y46375888D01*
X5144936Y46476263D01*
X5506994Y46615245D01*
X5852543Y46791311D01*
X6177783Y47002524D01*
X6177785Y47002525D01*
X6435349Y47211098D01*
X4940698Y48705749D01*
X5042330Y48779588D01*
X5220412Y48957670D01*
X5294251Y49059302D01*
X6788902Y47564651D01*
X6997475Y47822215D01*
X6997476Y47822217D01*
X7208689Y48147457D01*
X7235461Y48200000D01*
X23394353Y48200000D01*
X23414834Y48057544D01*
X23474622Y47926629D01*
X23474623Y47926627D01*
X23568872Y47817857D01*
X23689947Y47740047D01*
X23689950Y47740046D01*
X23689949Y47740046D01*
X23828036Y47699501D01*
X23828038Y47699500D01*
X23828039Y47699500D01*
X23971962Y47699500D01*
X23971962Y47699501D01*
X24110053Y47740047D01*
X24203342Y47800000D01*
X30194353Y47800000D01*
X30214834Y47657544D01*
X30257258Y47564651D01*
X30274623Y47526627D01*
X30368872Y47417857D01*
X30489947Y47340047D01*
X30489950Y47340046D01*
X30489949Y47340046D01*
X30628036Y47299501D01*
X30628038Y47299500D01*
X30628039Y47299500D01*
X30771962Y47299500D01*
X30771962Y47299501D01*
X30910053Y47340047D01*
X31031128Y47417857D01*
X31125377Y47526627D01*
X31185165Y47657543D01*
X31205647Y47800000D01*
X31185165Y47942457D01*
X31125377Y48073373D01*
X31031128Y48182143D01*
X30910053Y48259953D01*
X30910051Y48259954D01*
X30910049Y48259955D01*
X30910050Y48259955D01*
X30771963Y48300500D01*
X30771961Y48300500D01*
X30628039Y48300500D01*
X30628036Y48300500D01*
X30489949Y48259955D01*
X30368873Y48182144D01*
X30274623Y48073374D01*
X30274622Y48073372D01*
X30214834Y47942457D01*
X30194353Y47800000D01*
X24203342Y47800000D01*
X24231128Y47817857D01*
X24325377Y47926627D01*
X24385165Y48057543D01*
X24405647Y48200000D01*
X24385165Y48342457D01*
X24325377Y48473373D01*
X24231128Y48582143D01*
X24110053Y48659953D01*
X24110051Y48659954D01*
X24110049Y48659955D01*
X24110050Y48659955D01*
X23971963Y48700500D01*
X23971961Y48700500D01*
X23828039Y48700500D01*
X23828036Y48700500D01*
X23689949Y48659955D01*
X23568873Y48582144D01*
X23474623Y48473374D01*
X23474622Y48473372D01*
X23414834Y48342457D01*
X23394353Y48200000D01*
X7235461Y48200000D01*
X7384755Y48493006D01*
X7523737Y48855064D01*
X7624112Y49229670D01*
X7624113Y49229677D01*
X7684780Y49612713D01*
X7705078Y50000000D01*
X7705078Y50000001D01*
X7684780Y50387288D01*
X7624113Y50770324D01*
X7624112Y50770331D01*
X7523737Y51144937D01*
X7384755Y51506995D01*
X7208689Y51852544D01*
X6997468Y52177794D01*
X6979486Y52200000D01*
X25494353Y52200000D01*
X25514834Y52057544D01*
X25549926Y51980705D01*
X25574623Y51926627D01*
X25668872Y51817857D01*
X25789947Y51740047D01*
X25789950Y51740046D01*
X25789949Y51740046D01*
X25928036Y51699501D01*
X25928038Y51699500D01*
X25928039Y51699500D01*
X26071962Y51699500D01*
X26071962Y51699501D01*
X26179121Y51730965D01*
X26210050Y51740046D01*
X26210050Y51740047D01*
X26210053Y51740047D01*
X26331128Y51817857D01*
X26425377Y51926627D01*
X26485165Y52057543D01*
X26505647Y52200000D01*
X26485165Y52342457D01*
X26425377Y52473373D01*
X26331128Y52582143D01*
X26210053Y52659953D01*
X26210051Y52659954D01*
X26210049Y52659955D01*
X26210050Y52659955D01*
X26071963Y52700500D01*
X26071961Y52700500D01*
X25928039Y52700500D01*
X25928036Y52700500D01*
X25789949Y52659955D01*
X25668873Y52582144D01*
X25574623Y52473374D01*
X25574622Y52473372D01*
X25514834Y52342457D01*
X25494353Y52200000D01*
X6979486Y52200000D01*
X6788904Y52435351D01*
X6788903Y52435352D01*
X5294251Y50940700D01*
X5220412Y51042330D01*
X5042330Y51220412D01*
X4940698Y51294252D01*
X6435350Y52788904D01*
X6435350Y52788905D01*
X6177793Y52997469D01*
X5852543Y53208690D01*
X5506994Y53384756D01*
X5311664Y53459736D01*
X5256132Y53502138D01*
X5232339Y53567832D01*
X5247841Y53635960D01*
X5297714Y53684893D01*
X5356102Y53699500D01*
X94643898Y53699500D01*
X94710937Y53679815D01*
G37*
%TD.AperFunction*%
%TA.AperFunction,Conductor*%
G36*
X2329989Y53541551D02*
G01*
X2388573Y53503477D01*
X2417273Y53439774D01*
X2406977Y53370667D01*
X2360953Y53318098D01*
X2350742Y53312269D01*
X2147456Y53208690D01*
X1822206Y52997469D01*
X1564648Y52788905D01*
X1564648Y52788904D01*
X3059301Y51294252D01*
X2957670Y51220412D01*
X2779588Y51042330D01*
X2705748Y50940700D01*
X1211096Y52435352D01*
X1211095Y52435352D01*
X1002531Y52177794D01*
X791310Y51852544D01*
X687731Y51649258D01*
X639756Y51598462D01*
X571935Y51581667D01*
X505801Y51604204D01*
X462349Y51658919D01*
X455377Y51728440D01*
X458092Y51739880D01*
X461282Y51750953D01*
X465875Y51764079D01*
X488151Y51817857D01*
X584981Y52051626D01*
X591001Y52064126D01*
X741567Y52336557D01*
X748944Y52348296D01*
X929056Y52602139D01*
X937702Y52612982D01*
X1145113Y52845075D01*
X1154925Y52854887D01*
X1387018Y53062298D01*
X1397861Y53070944D01*
X1651704Y53251056D01*
X1663443Y53258433D01*
X1935874Y53408999D01*
X1948374Y53415019D01*
X2235928Y53534128D01*
X2249040Y53538716D01*
X2260121Y53541908D01*
X2329989Y53541551D01*
G37*
%TD.AperFunction*%
%TA.AperFunction,Conductor*%
G36*
X97739879Y53541908D02*
G01*
X97750952Y53538718D01*
X97764077Y53534126D01*
X98051618Y53415022D01*
X98064132Y53408996D01*
X98336547Y53258437D01*
X98348303Y53251050D01*
X98602129Y53070950D01*
X98612989Y53062291D01*
X98685525Y52997469D01*
X98845063Y52854897D01*
X98854894Y52845066D01*
X99020321Y52659953D01*
X99062285Y52612996D01*
X99070951Y52602128D01*
X99162308Y52473372D01*
X99251043Y52348313D01*
X99258442Y52336539D01*
X99408991Y52064140D01*
X99415024Y52051612D01*
X99534124Y51764079D01*
X99538717Y51750953D01*
X99541907Y51739880D01*
X99541550Y51670011D01*
X99503476Y51611427D01*
X99439773Y51582727D01*
X99370666Y51593023D01*
X99318097Y51639047D01*
X99312268Y51649259D01*
X99208692Y51852539D01*
X99208691Y51852542D01*
X98997468Y52177794D01*
X98788904Y52435351D01*
X98788903Y52435352D01*
X97294251Y50940700D01*
X97220412Y51042330D01*
X97042330Y51220412D01*
X96940698Y51294252D01*
X98435350Y52788904D01*
X98435350Y52788905D01*
X98177793Y52997469D01*
X97852543Y53208690D01*
X97649257Y53312269D01*
X97598461Y53360243D01*
X97581666Y53428064D01*
X97604203Y53494199D01*
X97658918Y53537651D01*
X97728439Y53544624D01*
X97739879Y53541908D01*
G37*
%TD.AperFunction*%
%TD*%
M02*
