M48
; DRILL file KiCad 10.0.3 date 2026-08-05T11:23:45
; FORMAT={-:-/ absolute / metric / decimal}
; #@! TF.CreationDate,2026-08-05T11:23:45-07:00
; #@! TF.GenerationSoftware,Kicad,Pcbnew,10.0.3
; #@! TF.FileFunction,Plated,1,4,PTH
FMAT,2
METRIC
; #@! TA.AperFunction,Plated,PTH,ViaDrill
T1C0.300
; #@! TA.AperFunction,Plated,PTH,ViaDrill
T2C0.400
; #@! TA.AperFunction,Plated,PTH,ComponentDrill
T3C0.600
; #@! TA.AperFunction,Plated,PTH,ComponentDrill
T4C1.000
; #@! TA.AperFunction,Plated,PTH,ComponentDrill
T5C1.100
; #@! TA.AperFunction,Plated,PTH,ComponentDrill
T6C3.200
%
G90
G05
T1
X105.1Y-105.95
X106.05Y-104.85
X106.6Y-95.85
X109.65Y-103.05
X109.65Y-108.5
X109.7Y-100.5
X110.65Y-101.5
X111.1Y-105.7
X111.55Y-100.5
X112.5Y-82.0
X114.0Y-82.0
X114.0Y-91.9
X114.0Y-93.1
X114.0Y-94.3
X115.45Y-103.95
X115.5Y-82.0
X117.0Y-82.0
X117.7Y-101.35
X118.25Y-101.9
X118.4Y-107.8
X118.8Y-102.3
X119.5Y-101.9
X119.8Y-107.8
X120.2Y-102.05
X120.25Y-102.9
X121.2Y-107.8
X121.3Y-102.7
X121.3Y-103.5
X122.0Y-106.8
X122.05Y-104.5
X122.1Y-103.75
X123.0Y-107.8
X123.3Y-103.4
X124.25Y-109.0
X124.65Y-101.1
X125.55Y-102.15
X126.55Y-94.5
X127.15Y-96.4
X127.15Y-97.25
X127.8Y-94.5
X128.55Y-102.0
X128.8Y-96.45
X129.75Y-108.7
X131.3Y-96.45
X139.85Y-105.2
X140.4Y-105.75
X141.4Y-105.95
X141.85Y-106.6
X142.4Y-106.05
X144.0Y-105.5
X144.5Y-104.9
X145.05Y-108.75
X145.65Y-108.15
X145.8Y-104.7
X145.95Y-106.25
X146.05Y-104.0
X146.3Y-108.6
X147.8Y-110.35
X147.8Y-111.2
X147.8Y-112.0
X148.85Y-111.3
X149.1Y-102.8
X149.2Y-110.6
X149.25Y-104.7
X149.25Y-106.45
X149.75Y-104.1
X149.85Y-107.0
X149.9Y-99.5
X149.9Y-100.5
X149.9Y-101.65
X150.2Y-103.35
X150.4Y-97.65
X150.6Y-107.6
X150.85Y-96.45
X150.95Y-106.15
X151.3Y-86.0
X151.3Y-87.0
X151.3Y-88.0
X151.35Y-105.55
X151.4Y-90.85
X151.45Y-89.25
X151.5Y-98.0
X151.95Y-92.175
X152.1Y-87.1
X152.1Y-88.3
X152.1Y-89.6
X152.106Y-97.633
X152.2Y-98.55
X152.462Y-91.675
X152.8Y-86.95
X152.9Y-86.2
X153.05Y-93.675
X153.4Y-87.5
X153.45Y-90.65
X153.5Y-110.65
X153.55Y-88.2
X153.65Y-86.18
X153.9Y-101.35
X153.95Y-103.95
X154.125Y-90.975
X154.3Y-86.641
X154.6Y-102.65
X154.65Y-101.85
X154.95Y-103.25
X155.08Y-86.45
X155.35Y-104.8
X155.74Y-85.78
X155.9Y-86.85
X156.3Y-104.95
X156.7Y-85.8
X157.0Y-104.65
X157.05Y-103.7
X157.2Y-83.15
X157.35Y-81.6
X157.7Y-104.85
X157.75Y-103.65
X158.0Y-111.0
X158.0Y-112.8
X158.45Y-104.95
X158.975Y-84.2
X159.05Y-89.75
X159.525Y-82.6
X159.525Y-83.6
X159.525Y-85.6
X159.6Y-84.65
X159.856Y-87.593
X159.875Y-86.6
X160.25Y-108.1
X160.25Y-121.05
X160.35Y-99.1
X160.525Y-82.2
X160.975Y-107.85
X161.05Y-99.25
X161.15Y-98.0
X161.5Y-90.2
X161.525Y-82.2
X161.6Y-90.95
X161.65Y-104.4
X161.65Y-108.05
X161.85Y-97.7
X162.45Y-105.35
X162.525Y-82.2
X162.65Y-90.8
X162.65Y-94.9
X162.95Y-91.55
X163.0Y-106.35
X163.05Y-90.0
X163.25Y-95.35
X163.3Y-96.25
X163.525Y-82.2
X163.65Y-87.45
X163.8Y-91.5
X163.85Y-94.3
X163.95Y-88.15
X163.95Y-95.2
X164.0Y-86.85
X164.05Y-107.55
X164.1Y-90.15
X164.1Y-103.2
X164.1Y-104.05
X164.1Y-104.95
X164.1Y-105.8
X164.1Y-106.75
X164.2Y-97.7
X164.2Y-101.6
X164.25Y-99.35
X164.251Y-100.599
X164.3Y-102.55
X164.7Y-89.55
X164.8Y-94.35
X164.9Y-95.15
X164.9Y-96.0
X164.9Y-96.8
X164.9Y-97.6
X164.9Y-98.4
X164.9Y-99.2
X164.9Y-100.0
X164.9Y-101.1
X164.9Y-101.9
X164.9Y-103.2
X164.9Y-104.05
X164.9Y-104.95
X164.9Y-105.8
X164.9Y-106.75
X164.9Y-107.55
X165.15Y-90.1
X165.5Y-82.05
X165.75Y-117.1
X165.8Y-105.95
X165.8Y-107.55
X165.9Y-106.75
X166.193Y-92.107
X166.25Y-89.1
X166.5Y-93.3
X166.55Y-117.05
X166.65Y-107.55
X166.8Y-94.65
X166.8Y-95.5
X166.8Y-96.3
X166.8Y-97.2
X166.8Y-98.8
X166.9Y-106.75
X167.05Y-91.15
X167.05Y-101.75
X167.05Y-102.55
X167.05Y-103.4
X167.15Y-116.6
X167.25Y-88.75
X167.3Y-87.9
X167.35Y-93.7
X167.4Y-97.9
X167.5Y-86.95
X167.55Y-104.25
X167.7Y-107.8
X168.0Y-106.95
X168.05Y-101.75
X168.05Y-102.55
X168.05Y-103.4
X168.05Y-116.95
X168.25Y-83.2
X168.25Y-84.05
X168.25Y-84.85
X168.25Y-85.7
X168.25Y-86.55
X168.65Y-116.45
X168.8Y-97.0
X168.8Y-107.8
X169.0Y-94.0
X169.3Y-83.2
X169.3Y-84.05
X169.3Y-84.85
X169.3Y-85.7
X169.3Y-86.55
X169.8Y-107.8
X169.9Y-100.05
X170.0Y-97.0
X170.15Y-103.75
X170.3Y-83.2
X170.3Y-84.05
X170.3Y-84.85
X170.3Y-85.7
X170.3Y-86.55
X170.3Y-116.35
X170.4Y-94.0
X170.8Y-107.8
X170.8Y-116.85
X171.2Y-97.0
X171.3Y-83.2
X171.3Y-84.05
X171.3Y-84.85
X171.3Y-85.7
X171.3Y-86.55
X171.66Y-95.57
X171.7Y-103.75
X171.8Y-93.995
X171.8Y-107.8
X171.93Y-96.26
X172.05Y-98.15
X172.3Y-83.2
X172.3Y-84.05
X172.3Y-84.85
X172.3Y-85.7
X172.3Y-86.55
X172.5Y-96.85
X172.55Y-93.9
X172.8Y-92.75
X172.8Y-107.8
X172.85Y-90.7
X172.9Y-97.45
X173.2Y-98.15
X173.5Y-100.0
X173.65Y-111.85
X173.7Y-103.9
X173.7Y-104.75
X173.7Y-105.6
X173.8Y-83.25
X173.8Y-84.1
X173.8Y-84.9
X173.8Y-85.75
X173.8Y-86.6
X173.8Y-107.8
X174.0Y-91.25
X174.3Y-107.05
X174.7Y-103.9
X174.7Y-104.75
X174.7Y-105.6
X174.8Y-107.8
X174.9Y-99.9
X175.0Y-84.9
X175.0Y-85.75
X175.0Y-86.55
X175.0Y-87.4
X175.0Y-88.25
X175.3Y-107.05
X175.65Y-102.25
X175.65Y-103.1
X175.65Y-103.9
X175.65Y-104.75
X175.65Y-105.6
X175.8Y-107.8
X175.9Y-99.9
X176.0Y-84.9
X176.0Y-85.75
X176.0Y-86.55
X176.0Y-87.4
X176.0Y-88.25
X176.3Y-107.05
X176.65Y-102.25
X176.65Y-103.1
X176.65Y-103.9
X176.65Y-104.75
X176.65Y-105.6
X176.8Y-107.8
X176.9Y-99.9
X177.0Y-84.9
X177.0Y-85.75
X177.0Y-86.55
X177.0Y-87.4
X177.0Y-88.25
X177.3Y-107.05
X177.35Y-94.3
X177.55Y-90.65
X177.6Y-92.75
X177.65Y-102.25
X177.65Y-103.1
X177.65Y-103.9
X177.65Y-104.75
X177.65Y-105.6
X177.75Y-93.65
X177.8Y-94.95
X177.8Y-107.8
X177.9Y-99.9
X178.0Y-84.9
X178.0Y-85.75
X178.0Y-86.55
X178.0Y-87.4
X178.0Y-88.25
X178.2Y-98.9
X178.3Y-92.5
X178.3Y-107.05
X178.4Y-95.5
X178.4Y-96.4
X178.65Y-102.25
X178.65Y-103.1
X178.65Y-103.9
X178.65Y-104.75
X178.65Y-105.6
X178.8Y-107.8
X179.0Y-84.9
X179.0Y-85.75
X179.0Y-86.55
X179.0Y-87.4
X179.0Y-88.25
X179.3Y-107.05
X179.65Y-102.25
X179.65Y-103.1
X179.65Y-103.9
X179.65Y-104.75
X179.65Y-105.6
X179.8Y-107.8
X180.0Y-84.9
X180.0Y-85.75
X180.0Y-86.55
X180.0Y-87.4
X180.0Y-88.25
X180.3Y-107.05
X180.72Y-96.0
X180.8Y-107.8
X180.86Y-92.53
X181.0Y-84.9
X181.0Y-85.75
X181.0Y-86.55
X181.0Y-87.4
X181.0Y-88.25
X181.0Y-106.4
X181.1Y-89.4
X181.1Y-90.5
X181.1Y-97.7
X181.4Y-91.7
X181.5Y-96.8
X181.6Y-93.5
X181.7Y-95.1
X182.2Y-92.7
X182.2Y-96.1
X182.4Y-110.4
X182.9Y-96.9
X183.1Y-95.1
X183.25Y-92.25
X183.25Y-93.25
X183.7Y-96.2
X184.5Y-83.8
X184.5Y-84.8
X184.5Y-85.85
X184.5Y-86.85
X184.5Y-87.9
X184.5Y-88.9
X184.5Y-89.95
X184.5Y-90.95
X184.75Y-92.25
X184.75Y-93.25
X184.75Y-95.45
X184.75Y-96.45
X184.75Y-97.5
X184.75Y-98.5
X184.75Y-99.55
X184.75Y-100.55
X184.75Y-101.6
X184.75Y-102.6
X184.8Y-103.6
X184.8Y-104.6
X186.0Y-83.8
X186.0Y-84.8
X186.0Y-85.85
X186.0Y-86.85
X186.0Y-87.9
X186.0Y-88.9
X186.0Y-89.95
X186.0Y-90.95
X186.25Y-92.25
X186.25Y-93.25
X186.25Y-95.45
X186.25Y-96.45
X186.25Y-97.5
X186.25Y-98.5
X186.25Y-99.55
X186.25Y-100.55
X186.25Y-101.6
X186.25Y-102.6
X186.3Y-103.6
X186.3Y-104.6
X187.4Y-83.8
X187.4Y-84.8
X187.4Y-85.85
X187.4Y-86.85
X187.5Y-87.9
X187.5Y-88.9
X187.5Y-89.95
X187.5Y-90.95
X187.65Y-95.45
X187.65Y-96.45
X187.65Y-97.5
X187.65Y-98.5
X187.7Y-103.6
X187.7Y-104.6
X187.75Y-99.55
X187.75Y-100.55
X187.75Y-101.6
X187.75Y-102.6
X188.9Y-85.85
X188.9Y-86.85
X188.9Y-87.9
X188.9Y-88.9
X188.9Y-89.95
X188.9Y-90.95
X188.9Y-92.0
X188.9Y-93.0
X189.15Y-95.45
X189.15Y-96.45
X189.15Y-97.5
X189.15Y-98.5
X189.15Y-99.55
X189.15Y-100.55
X189.15Y-101.6
X189.15Y-102.6
X190.4Y-85.85
X190.4Y-86.85
X190.4Y-87.9
X190.4Y-88.9
X190.4Y-89.95
X190.4Y-90.95
X190.4Y-92.0
X190.4Y-93.0
X190.65Y-95.45
X190.65Y-96.45
X190.65Y-97.5
X190.65Y-98.5
X190.65Y-99.55
X190.65Y-100.55
X190.65Y-101.6
X190.65Y-102.6
X191.8Y-89.95
X191.8Y-90.95
X191.8Y-92.0
X191.8Y-93.0
X191.8Y-97.5
X191.8Y-98.5
X191.8Y-99.55
X191.8Y-100.55
X191.8Y-101.6
X191.8Y-102.6
X191.9Y-85.85
X191.9Y-86.85
X191.9Y-87.9
X191.9Y-88.9
X193.3Y-85.85
X193.3Y-86.85
X193.3Y-87.9
X193.3Y-88.9
X193.3Y-89.95
X193.3Y-90.95
X193.3Y-92.0
X193.3Y-93.0
X193.3Y-97.5
X193.3Y-98.5
X193.3Y-99.55
X193.3Y-100.55
X193.3Y-101.6
X193.3Y-102.6
X193.7Y-95.0
X193.75Y-95.95
X193.95Y-96.9
X194.7Y-99.55
X194.7Y-100.55
X194.7Y-101.6
X194.7Y-102.6
X194.8Y-85.85
X194.8Y-86.85
X194.8Y-87.9
X194.8Y-88.9
X194.8Y-89.95
X194.8Y-90.95
X194.8Y-92.0
X194.8Y-93.0
X194.8Y-95.45
X194.8Y-96.45
X194.8Y-97.5
X194.8Y-98.5
X196.05Y-85.3
X196.05Y-86.3
X196.05Y-87.35
X196.05Y-88.35
X196.05Y-89.4
X196.05Y-99.05
X196.05Y-100.1
X196.05Y-101.1
X196.05Y-102.15
X196.05Y-103.15
X197.45Y-85.3
X197.45Y-86.3
X197.45Y-87.35
X197.45Y-88.35
X197.45Y-89.4
X197.55Y-99.05
X197.55Y-100.1
X197.55Y-101.1
X197.55Y-102.15
X197.55Y-103.15
X198.95Y-85.3
X198.95Y-86.3
X198.95Y-87.35
X198.95Y-88.35
X198.95Y-89.4
X198.95Y-100.1
X198.95Y-101.1
X198.95Y-102.15
X198.95Y-103.15
X199.05Y-99.05
T2
X124.75Y-95.75
X125.95Y-91.7
X127.4Y-91.7
X155.85Y-92.45
X155.85Y-92.45
X155.85Y-96.5
X159.8Y-92.45
X159.85Y-96.5
T4
X104.96Y-80.28
X104.96Y-82.82
X104.96Y-85.36
X104.96Y-87.9
X107.5Y-80.28
X107.5Y-82.82
X107.5Y-85.36
X107.5Y-87.9
X112.3Y-116.4
X112.3Y-118.94
X114.84Y-116.4
X114.84Y-118.94
X117.38Y-116.4
X117.38Y-118.94
X119.92Y-116.4
X119.92Y-118.94
X122.46Y-116.4
X122.46Y-118.94
X125.0Y-116.4
X125.0Y-118.94
X135.0Y-74.86
X135.0Y-77.4
X137.42Y-116.4
X137.42Y-118.94
X137.54Y-74.86
X137.54Y-77.4
X138.26Y-110.3
X139.96Y-116.4
X139.96Y-118.94
X140.08Y-74.86
X140.08Y-77.4
X140.8Y-110.3
X142.5Y-116.4
X142.5Y-118.94
X142.62Y-74.86
X142.62Y-77.4
X143.34Y-110.3
X145.16Y-74.86
X145.16Y-77.4
X147.7Y-74.86
X147.7Y-77.4
X150.92Y-116.4
X150.92Y-118.94
X153.46Y-116.4
X153.46Y-118.94
X156.0Y-116.4
X156.0Y-118.94
X160.975Y-114.35
X163.515Y-114.35
X176.92Y-116.4
X176.92Y-118.94
X179.46Y-116.4
X179.46Y-118.94
X182.0Y-116.4
X182.0Y-118.94
T5
X114.075Y-78.35
X116.575Y-78.35
X119.075Y-78.35
T6
X104.0Y-74.0
X104.0Y-117.0
X196.0Y-74.0
X196.0Y-117.0
T3
X102.95Y-101.38G85X102.35Y-101.38
G05
X102.95Y-110.02G85X102.35Y-110.02
G05
X107.38Y-101.38G85X106.28Y-101.38
G05
X107.38Y-110.02G85X106.28Y-110.02
G05
M30
