%TF.GenerationSoftware,KiCad,Pcbnew,10.0.3*%
%TF.CreationDate,2026-08-05T11:23:39-07:00*%
%TF.ProjectId,LoRa_Board,4c6f5261-5f42-46f6-9172-642e6b696361,rev?*%
%TF.SameCoordinates,Original*%
%TF.FileFunction,Paste,Top*%
%TF.FilePolarity,Positive*%
%FSLAX46Y46*%
G04 Gerber Fmt 4.6, Leading zero omitted, Abs format (unit mm)*
G04 Created by KiCad (PCBNEW 10.0.3) date 2026-08-05 11:23:39*
%MOMM*%
%LPD*%
G01*
G04 APERTURE LIST*
G04 Aperture macros list*
%AMRoundRect*
0 Rectangle with rounded corners*
0 $1 Rounding radius*
0 $2 $3 $4 $5 $6 $7 $8 $9 X,Y pos of 4 corners*
0 Add a 4 corners polygon primitive as box body*
4,1,4,$2,$3,$4,$5,$6,$7,$8,$9,$2,$3,0*
0 Add four circle primitives for the rounded corners*
1,1,$1+$1,$2,$3*
1,1,$1+$1,$4,$5*
1,1,$1+$1,$6,$7*
1,1,$1+$1,$8,$9*
0 Add four rect primitives between the rounded corners*
20,1,$1+$1,$2,$3,$4,$5,0*
20,1,$1+$1,$4,$5,$6,$7,0*
20,1,$1+$1,$6,$7,$8,$9,0*
20,1,$1+$1,$8,$9,$2,$3,0*%
%AMFreePoly0*
4,1,82,2.155934,18.233611,2.305053,18.185159,2.440839,18.106762,2.557359,18.001848,2.649519,17.875000,2.713293,17.731762,2.745891,17.578396,2.745891,17.421603,2.713292,17.268237,2.649519,17.125000,2.557358,16.998152,2.440838,16.893237,2.305052,16.814841,2.155933,16.766389,1.999999,16.750000,1.901622,16.750000,1.707291,16.719221,1.520166,16.658421,1.344857,16.569096,1.185679,16.453447,
1.046553,16.314321,0.930904,16.155143,0.841579,15.979834,0.780779,15.792709,0.750000,15.598378,0.750000,-15.598378,0.780779,-15.792709,0.841579,-15.979834,0.930904,-16.155143,1.046553,-16.314321,1.185679,-16.453447,1.344857,-16.569096,1.520166,-16.658421,1.707291,-16.719221,1.901622,-16.750000,1.999999,-16.750000,2.155933,-16.766389,2.305052,-16.814841,2.440838,-16.893237,2.557358,-16.998152,
2.649519,-17.125000,2.713292,-17.268237,2.745891,-17.421603,2.745891,-17.578396,2.713293,-17.731762,2.649519,-17.875000,2.557359,-18.001848,2.440839,-18.106762,2.305053,-18.185159,2.155934,-18.233611,2.000001,-18.250000,1.692098,-18.232709,1.388068,-18.181052,1.091733,-18.095680,0.806820,-17.977665,0.536912,-17.828492,0.285403,-17.650037,0.055456,-17.444544,-0.150037,-17.214597,-0.328492,-16.963088,
-0.477665,-16.693180,-0.595680,-16.408267,-0.681052,-16.111932,-0.732709,-15.807902,-0.750000,-15.499999,-0.750000,15.500000,-0.749999,15.500001,-0.732709,15.807902,-0.681052,16.111932,-0.595680,16.408267,-0.477665,16.693180,-0.328492,16.963088,-0.150037,17.214597,0.055456,17.444544,0.285403,17.650037,0.536912,17.828492,0.806820,17.977665,1.091733,18.095680,1.388068,18.181052,1.692098,18.232709,
2.000001,18.250000,2.155934,18.233611,2.155934,18.233611,$1*%
%AMFreePoly1*
4,1,82,-1.692098,18.232709,-1.388068,18.181052,-1.091733,18.095680,-0.806820,17.977665,-0.536912,17.828492,-0.285403,17.650037,-0.055456,17.444544,0.150037,17.214597,0.328492,16.963088,0.477665,16.693180,0.595680,16.408267,0.681052,16.111932,0.732709,15.807902,0.749999,15.500001,0.750000,15.500000,0.750000,-15.499999,0.732709,-15.807902,0.681052,-16.111932,0.595680,-16.408267,0.477665,-16.693180,
0.328492,-16.963088,0.150037,-17.214597,-0.055456,-17.444544,-0.285403,-17.650037,-0.536912,-17.828492,-0.806820,-17.977665,-1.091733,-18.095680,-1.388068,-18.181052,-1.692098,-18.232709,-2.000001,-18.250000,-2.155934,-18.233611,-2.305053,-18.185159,-2.440839,-18.106762,-2.557359,-18.001848,-2.649519,-17.875000,-2.713293,-17.731762,-2.745891,-17.578396,-2.745891,-17.421603,-2.713292,-17.268237,-2.649519,-17.125000,
-2.557358,-16.998152,-2.440838,-16.893237,-2.305052,-16.814841,-2.155933,-16.766389,-1.999999,-16.750000,-1.901622,-16.750000,-1.707291,-16.719221,-1.520166,-16.658421,-1.344857,-16.569096,-1.185679,-16.453447,-1.046553,-16.314321,-0.930904,-16.155143,-0.841579,-15.979834,-0.780779,-15.792709,-0.750000,-15.598378,-0.750000,15.598378,-0.780779,15.792709,-0.841579,15.979834,-0.930904,16.155143,-1.046553,16.314321,
-1.185679,16.453447,-1.344857,16.569096,-1.520166,16.658421,-1.707291,16.719221,-1.901622,16.750000,-1.999999,16.750000,-2.155933,16.766389,-2.305052,16.814841,-2.440838,16.893237,-2.557358,16.998152,-2.649519,17.125000,-2.713292,17.268237,-2.745891,17.421603,-2.745891,17.578396,-2.713293,17.731762,-2.649519,17.875000,-2.557359,18.001848,-2.440839,18.106762,-2.305053,18.185159,-2.155934,18.233611,
-2.000001,18.250000,-1.692098,18.232709,-1.692098,18.232709,$1*%
%AMFreePoly2*
4,1,11,0.760000,0.825000,0.380000,0.510000,0.380000,-0.510000,0.760000,-0.825000,0.760000,-1.525000,-0.125000,-1.525000,-0.380000,-1.270000,-0.380000,1.270000,-0.125000,1.525000,0.760000,1.525000,0.760000,0.825000,0.760000,0.825000,$1*%
%AMFreePoly3*
4,1,21,-0.125004,1.000001,0.125003,1.000001,0.125003,1.699999,0.375003,1.699999,0.375003,1.000001,0.450001,1.000001,0.450001,-1.000001,0.375003,-1.000001,0.375003,-1.699999,0.125003,-1.699999,0.125003,-1.000001,-0.125004,-1.000001,-0.125004,-1.699999,-0.375004,-1.699999,-0.375004,-1.000001,-0.450002,-1.000001,-0.450002,1.000001,-0.375004,1.000001,-0.375004,1.699999,-0.125004,1.699999,
-0.125004,1.000001,-0.125004,1.000001,$1*%
G04 Aperture macros list end*
%ADD10C,0.000000*%
%ADD11C,0.010000*%
%ADD12RoundRect,0.750000X-0.000010X-12.500000X0.000010X-12.500000X0.000010X12.500000X-0.000010X12.500000X0*%
%ADD13FreePoly0,270.000000*%
%ADD14FreePoly1,270.000000*%
%ADD15RoundRect,0.750000X-0.000010X-4.250000X0.000010X-4.250000X0.000010X4.250000X-0.000010X4.250000X0*%
%ADD16RoundRect,0.225000X0.250000X-0.225000X0.250000X0.225000X-0.250000X0.225000X-0.250000X-0.225000X0*%
%ADD17R,4.300000X1.300000*%
%ADD18R,4.300000X1.450000*%
%ADD19RoundRect,0.225000X0.475000X0.225000X-0.475000X0.225000X-0.475000X-0.225000X0.475000X-0.225000X0*%
%ADD20RoundRect,0.237500X-0.237500X0.287500X-0.237500X-0.287500X0.237500X-0.287500X0.237500X0.287500X0*%
%ADD21RoundRect,0.225000X-0.250000X0.225000X-0.250000X-0.225000X0.250000X-0.225000X0.250000X0.225000X0*%
%ADD22RoundRect,0.225000X-0.475000X-0.225000X0.475000X-0.225000X0.475000X0.225000X-0.475000X0.225000X0*%
%ADD23RoundRect,0.225000X0.225000X0.250000X-0.225000X0.250000X-0.225000X-0.250000X0.225000X-0.250000X0*%
%ADD24RoundRect,0.250000X0.250000X0.475000X-0.250000X0.475000X-0.250000X-0.475000X0.250000X-0.475000X0*%
%ADD25RoundRect,0.200000X0.275000X-0.200000X0.275000X0.200000X-0.275000X0.200000X-0.275000X-0.200000X0*%
%ADD26FreePoly2,0.000000*%
%ADD27FreePoly2,180.000000*%
%ADD28RoundRect,0.218750X-0.218750X-0.256250X0.218750X-0.256250X0.218750X0.256250X-0.218750X0.256250X0*%
%ADD29RoundRect,0.200000X0.200000X0.275000X-0.200000X0.275000X-0.200000X-0.275000X0.200000X-0.275000X0*%
%ADD30RoundRect,0.250000X0.450000X-0.262500X0.450000X0.262500X-0.450000X0.262500X-0.450000X-0.262500X0*%
%ADD31RoundRect,0.250000X-0.250000X-0.475000X0.250000X-0.475000X0.250000X0.475000X-0.250000X0.475000X0*%
%ADD32RoundRect,0.218750X0.256250X-0.218750X0.256250X0.218750X-0.256250X0.218750X-0.256250X-0.218750X0*%
%ADD33RoundRect,0.200000X-0.275000X0.200000X-0.275000X-0.200000X0.275000X-0.200000X0.275000X0.200000X0*%
%ADD34RoundRect,0.150000X0.512500X0.150000X-0.512500X0.150000X-0.512500X-0.150000X0.512500X-0.150000X0*%
%ADD35RoundRect,0.225000X-0.225000X-0.250000X0.225000X-0.250000X0.225000X0.250000X-0.225000X0.250000X0*%
%ADD36RoundRect,0.200000X-0.200000X-0.275000X0.200000X-0.275000X0.200000X0.275000X-0.200000X0.275000X0*%
%ADD37RoundRect,0.218750X-0.218750X-0.381250X0.218750X-0.381250X0.218750X0.381250X-0.218750X0.381250X0*%
%ADD38RoundRect,0.150000X-0.150000X0.587500X-0.150000X-0.587500X0.150000X-0.587500X0.150000X0.587500X0*%
%ADD39R,0.812800X0.254000*%
%ADD40R,0.254000X0.812800*%
%ADD41R,2.540000X2.540000*%
%ADD42RoundRect,0.150000X-0.512500X-0.150000X0.512500X-0.150000X0.512500X0.150000X-0.512500X0.150000X0*%
%ADD43RoundRect,0.250000X0.450000X0.350000X-0.450000X0.350000X-0.450000X-0.350000X0.450000X-0.350000X0*%
%ADD44RoundRect,0.218750X0.218750X0.256250X-0.218750X0.256250X-0.218750X-0.256250X0.218750X-0.256250X0*%
%ADD45RoundRect,0.237500X-0.035355X-0.371231X0.371231X0.035355X0.035355X0.371231X-0.371231X-0.035355X0*%
%ADD46R,0.200000X0.395000*%
%ADD47R,0.395000X0.200000*%
%ADD48RoundRect,0.250000X-0.475000X0.250000X-0.475000X-0.250000X0.475000X-0.250000X0.475000X0.250000X0*%
%ADD49RoundRect,0.250000X-0.262500X-0.450000X0.262500X-0.450000X0.262500X0.450000X-0.262500X0.450000X0*%
%ADD50RoundRect,0.250000X0.475000X-0.250000X0.475000X0.250000X-0.475000X0.250000X-0.475000X-0.250000X0*%
%ADD51R,2.150000X1.550000*%
%ADD52R,0.279999X0.499999*%
%ADD53FreePoly3,90.000000*%
%ADD54RoundRect,0.218750X-0.256250X0.218750X-0.256250X-0.218750X0.256250X-0.218750X0.256250X0.218750X0*%
%ADD55RoundRect,0.150000X-0.575000X0.150000X-0.575000X-0.150000X0.575000X-0.150000X0.575000X0.150000X0*%
%ADD56RoundRect,0.075000X-0.650000X0.075000X-0.650000X-0.075000X0.650000X-0.075000X0.650000X0.075000X0*%
%ADD57R,0.304800X0.812800*%
%ADD58R,0.965200X1.016000*%
%ADD59R,0.300000X0.850000*%
%ADD60R,0.850000X0.300000*%
%ADD61R,5.700000X5.700000*%
%ADD62RoundRect,0.250000X-0.650000X1.000000X-0.650000X-1.000000X0.650000X-1.000000X0.650000X1.000000X0*%
%ADD63R,0.850900X0.355600*%
%ADD64RoundRect,0.031250X-0.093750X0.218750X-0.093750X-0.218750X0.093750X-0.218750X0.093750X0.218750X0*%
%ADD65R,0.360000X0.210000*%
%ADD66R,0.310000X0.210000*%
G04 APERTURE END LIST*
D10*
%TO.C,U5*%
G36*
X125142300Y-105650001D02*
G01*
X124072300Y-105650001D01*
X124072300Y-104580001D01*
X125142300Y-104580001D01*
X125142300Y-105650001D01*
G37*
G36*
X125142300Y-106920001D02*
G01*
X124072300Y-106920001D01*
X124072300Y-105850001D01*
X125142300Y-105850001D01*
X125142300Y-106920001D01*
G37*
G36*
X126412300Y-105650001D02*
G01*
X125342300Y-105650001D01*
X125342300Y-104580001D01*
X126412300Y-104580001D01*
X126412300Y-105650001D01*
G37*
G36*
X126412300Y-106920001D02*
G01*
X125342300Y-106920001D01*
X125342300Y-105850001D01*
X126412300Y-105850001D01*
X126412300Y-106920001D01*
G37*
D11*
%TO.C,U2*%
X180175000Y-93902500D02*
X180175000Y-94602500D01*
X179475000Y-94602500D01*
X179475000Y-93902500D01*
X180175000Y-93902500D01*
G36*
X180175000Y-94602500D02*
G01*
X179475000Y-94602500D01*
X179475000Y-93902500D01*
X180175000Y-93902500D01*
X180175000Y-94602500D01*
G37*
D10*
%TO.C,U6*%
G36*
X126050000Y-94347014D02*
G01*
X125450001Y-94347014D01*
X125450001Y-94097015D01*
X126050000Y-94097015D01*
X126050000Y-94347014D01*
G37*
G36*
X126024998Y-93772024D02*
G01*
X125774999Y-93772024D01*
X125774999Y-93272025D01*
X126024998Y-93272025D01*
X126024998Y-93772024D01*
G37*
G36*
X126024998Y-95672023D02*
G01*
X125774999Y-95672023D01*
X125774999Y-95172024D01*
X126024998Y-95172024D01*
X126024998Y-95672023D01*
G37*
G36*
X126050000Y-94847024D02*
G01*
X125450001Y-94847024D01*
X125450001Y-94597024D01*
X126050000Y-94597024D01*
X126050000Y-94847024D01*
G37*
G36*
X126525000Y-93772024D02*
G01*
X126275000Y-93772024D01*
X126275000Y-93272025D01*
X126525000Y-93272025D01*
X126525000Y-93772024D01*
G37*
G36*
X126525000Y-95672023D02*
G01*
X126275000Y-95672023D01*
X126275000Y-95172024D01*
X126525000Y-95172024D01*
X126525000Y-95672023D01*
G37*
G36*
X127024999Y-93772024D02*
G01*
X126774999Y-93772024D01*
X126774999Y-93272025D01*
X127024999Y-93272025D01*
X127024999Y-93772024D01*
G37*
G36*
X127024999Y-95672023D02*
G01*
X126774999Y-95672023D01*
X126774999Y-95172024D01*
X127024999Y-95172024D01*
X127024999Y-95672023D01*
G37*
G36*
X127524998Y-93772024D02*
G01*
X127274998Y-93772024D01*
X127274998Y-93272025D01*
X127524998Y-93272025D01*
X127524998Y-93772024D01*
G37*
G36*
X127524998Y-95672023D02*
G01*
X127274998Y-95672023D01*
X127274998Y-95172024D01*
X127524998Y-95172024D01*
X127524998Y-95672023D01*
G37*
G36*
X127950001Y-94822022D02*
G01*
X126349999Y-94822022D01*
X126349999Y-94122024D01*
X127950001Y-94122024D01*
X127950001Y-94822022D01*
G37*
G36*
X128025000Y-93772024D02*
G01*
X127775000Y-93772024D01*
X127775000Y-93272025D01*
X128025000Y-93272025D01*
X128025000Y-93772024D01*
G37*
G36*
X128025000Y-95672023D02*
G01*
X127775000Y-95672023D01*
X127775000Y-95172024D01*
X128025000Y-95172024D01*
X128025000Y-95672023D01*
G37*
G36*
X128849994Y-94347014D02*
G01*
X128249995Y-94347014D01*
X128249995Y-94097015D01*
X128849994Y-94097015D01*
X128849994Y-94347014D01*
G37*
G36*
X128524999Y-93772024D02*
G01*
X128274999Y-93772024D01*
X128274999Y-93272025D01*
X128524999Y-93272025D01*
X128524999Y-93772024D01*
G37*
G36*
X128524999Y-95672023D02*
G01*
X128274999Y-95672023D01*
X128274999Y-95172024D01*
X128524999Y-95172024D01*
X128524999Y-95672023D01*
G37*
G36*
X128849994Y-94847024D02*
G01*
X128249995Y-94847024D01*
X128249995Y-94597024D01*
X128849994Y-94597024D01*
X128849994Y-94847024D01*
G37*
D11*
%TO.C,EF1*%
X115250000Y-90587500D02*
X115850000Y-90587500D01*
X115853000Y-90587500D01*
X115855000Y-90587500D01*
X115858000Y-90588500D01*
X115860000Y-90588500D01*
X115863000Y-90589500D01*
X115865000Y-90589500D01*
X115868000Y-90590500D01*
X115870000Y-90591500D01*
X115873000Y-90592500D01*
X115875000Y-90594500D01*
X115877000Y-90595500D01*
X115879000Y-90597500D01*
X115881000Y-90598500D01*
X115883000Y-90600500D01*
X115885000Y-90602500D01*
X115887000Y-90604500D01*
X115889000Y-90606500D01*
X115890000Y-90608500D01*
X115892000Y-90610500D01*
X115893000Y-90612500D01*
X115895000Y-90614500D01*
X115896000Y-90617500D01*
X115897000Y-90619500D01*
X115898000Y-90622500D01*
X115898000Y-90624500D01*
X115899000Y-90627500D01*
X115899000Y-90629500D01*
X115900000Y-90632500D01*
X115900000Y-90634500D01*
X115900000Y-90637500D01*
X115900000Y-91437500D01*
X115900000Y-91440500D01*
X115900000Y-91442500D01*
X115899000Y-91445500D01*
X115899000Y-91447500D01*
X115898000Y-91450500D01*
X115898000Y-91452500D01*
X115897000Y-91455500D01*
X115896000Y-91457500D01*
X115895000Y-91460500D01*
X115893000Y-91462500D01*
X115892000Y-91464500D01*
X115890000Y-91466500D01*
X115889000Y-91468500D01*
X115887000Y-91470500D01*
X115885000Y-91472500D01*
X115883000Y-91474500D01*
X115881000Y-91476500D01*
X115879000Y-91477500D01*
X115877000Y-91479500D01*
X115875000Y-91480500D01*
X115873000Y-91482500D01*
X115870000Y-91483500D01*
X115868000Y-91484500D01*
X115865000Y-91485500D01*
X115863000Y-91485500D01*
X115860000Y-91486500D01*
X115858000Y-91486500D01*
X115855000Y-91487500D01*
X115853000Y-91487500D01*
X115850000Y-91487500D01*
X115250000Y-91487500D01*
X115247000Y-91487500D01*
X115245000Y-91487500D01*
X115242000Y-91486500D01*
X115240000Y-91486500D01*
X115237000Y-91485500D01*
X115235000Y-91485500D01*
X115232000Y-91484500D01*
X115230000Y-91483500D01*
X115227000Y-91482500D01*
X115225000Y-91480500D01*
X115223000Y-91479500D01*
X115221000Y-91477500D01*
X115219000Y-91476500D01*
X115217000Y-91474500D01*
X115215000Y-91472500D01*
X115213000Y-91470500D01*
X115211000Y-91468500D01*
X115210000Y-91466500D01*
X115208000Y-91464500D01*
X115207000Y-91462500D01*
X115205000Y-91460500D01*
X115204000Y-91457500D01*
X115203000Y-91455500D01*
X115202000Y-91452500D01*
X115202000Y-91450500D01*
X115201000Y-91447500D01*
X115201000Y-91445500D01*
X115200000Y-91442500D01*
X115200000Y-91440500D01*
X115200000Y-91437500D01*
X115200000Y-90637500D01*
X115200000Y-90634500D01*
X115200000Y-90632500D01*
X115201000Y-90629500D01*
X115201000Y-90627500D01*
X115202000Y-90624500D01*
X115202000Y-90622500D01*
X115203000Y-90619500D01*
X115204000Y-90617500D01*
X115205000Y-90614500D01*
X115207000Y-90612500D01*
X115208000Y-90610500D01*
X115210000Y-90608500D01*
X115211000Y-90606500D01*
X115213000Y-90604500D01*
X115215000Y-90602500D01*
X115217000Y-90600500D01*
X115219000Y-90598500D01*
X115221000Y-90597500D01*
X115223000Y-90595500D01*
X115225000Y-90594500D01*
X115227000Y-90592500D01*
X115230000Y-90591500D01*
X115232000Y-90590500D01*
X115235000Y-90589500D01*
X115237000Y-90589500D01*
X115240000Y-90588500D01*
X115242000Y-90588500D01*
X115245000Y-90587500D01*
X115247000Y-90587500D01*
X115250000Y-90587500D01*
G36*
X115858000Y-90588500D02*
G01*
X115860000Y-90588500D01*
X115863000Y-90589500D01*
X115865000Y-90589500D01*
X115868000Y-90590500D01*
X115870000Y-90591500D01*
X115873000Y-90592500D01*
X115875000Y-90594500D01*
X115877000Y-90595500D01*
X115879000Y-90597500D01*
X115881000Y-90598500D01*
X115883000Y-90600500D01*
X115885000Y-90602500D01*
X115887000Y-90604500D01*
X115889000Y-90606500D01*
X115890000Y-90608500D01*
X115892000Y-90610500D01*
X115893000Y-90612500D01*
X115895000Y-90614500D01*
X115896000Y-90617500D01*
X115897000Y-90619500D01*
X115898000Y-90622500D01*
X115898000Y-90624500D01*
X115899000Y-90627500D01*
X115899000Y-90629500D01*
X115900000Y-90632500D01*
X115900000Y-90634500D01*
X115900000Y-90637500D01*
X115900000Y-91437500D01*
X115900000Y-91440500D01*
X115900000Y-91442500D01*
X115899000Y-91445500D01*
X115899000Y-91447500D01*
X115898000Y-91450500D01*
X115898000Y-91452500D01*
X115897000Y-91455500D01*
X115896000Y-91457500D01*
X115895000Y-91460500D01*
X115893000Y-91462500D01*
X115892000Y-91464500D01*
X115890000Y-91466500D01*
X115889000Y-91468500D01*
X115887000Y-91470500D01*
X115885000Y-91472500D01*
X115883000Y-91474500D01*
X115881000Y-91476500D01*
X115879000Y-91477500D01*
X115877000Y-91479500D01*
X115875000Y-91480500D01*
X115873000Y-91482500D01*
X115870000Y-91483500D01*
X115868000Y-91484500D01*
X115865000Y-91485500D01*
X115863000Y-91485500D01*
X115860000Y-91486500D01*
X115858000Y-91486500D01*
X115855000Y-91487500D01*
X115853000Y-91487500D01*
X115850000Y-91487500D01*
X115250000Y-91487500D01*
X115247000Y-91487500D01*
X115245000Y-91487500D01*
X115242000Y-91486500D01*
X115240000Y-91486500D01*
X115237000Y-91485500D01*
X115235000Y-91485500D01*
X115232000Y-91484500D01*
X115230000Y-91483500D01*
X115227000Y-91482500D01*
X115225000Y-91480500D01*
X115223000Y-91479500D01*
X115221000Y-91477500D01*
X115219000Y-91476500D01*
X115217000Y-91474500D01*
X115215000Y-91472500D01*
X115213000Y-91470500D01*
X115211000Y-91468500D01*
X115210000Y-91466500D01*
X115208000Y-91464500D01*
X115207000Y-91462500D01*
X115205000Y-91460500D01*
X115204000Y-91457500D01*
X115203000Y-91455500D01*
X115202000Y-91452500D01*
X115202000Y-91450500D01*
X115201000Y-91447500D01*
X115201000Y-91445500D01*
X115200000Y-91442500D01*
X115200000Y-91440500D01*
X115200000Y-91437500D01*
X115200000Y-90637500D01*
X115200000Y-90634500D01*
X115200000Y-90632500D01*
X115201000Y-90629500D01*
X115201000Y-90627500D01*
X115202000Y-90624500D01*
X115202000Y-90622500D01*
X115203000Y-90619500D01*
X115204000Y-90617500D01*
X115205000Y-90614500D01*
X115207000Y-90612500D01*
X115208000Y-90610500D01*
X115210000Y-90608500D01*
X115211000Y-90606500D01*
X115213000Y-90604500D01*
X115215000Y-90602500D01*
X115217000Y-90600500D01*
X115219000Y-90598500D01*
X115221000Y-90597500D01*
X115223000Y-90595500D01*
X115225000Y-90594500D01*
X115227000Y-90592500D01*
X115230000Y-90591500D01*
X115232000Y-90590500D01*
X115235000Y-90589500D01*
X115237000Y-90589500D01*
X115240000Y-90588500D01*
X115242000Y-90588500D01*
X115245000Y-90587500D01*
X115247000Y-90587500D01*
X115250000Y-90587500D01*
X115850000Y-90587500D01*
X115853000Y-90587500D01*
X115855000Y-90587500D01*
X115858000Y-90588500D01*
G37*
X116150000Y-90587500D02*
X116750000Y-90587500D01*
X116753000Y-90587500D01*
X116755000Y-90587500D01*
X116758000Y-90588500D01*
X116760000Y-90588500D01*
X116763000Y-90589500D01*
X116765000Y-90589500D01*
X116768000Y-90590500D01*
X116770000Y-90591500D01*
X116773000Y-90592500D01*
X116775000Y-90594500D01*
X116777000Y-90595500D01*
X116779000Y-90597500D01*
X116781000Y-90598500D01*
X116783000Y-90600500D01*
X116785000Y-90602500D01*
X116787000Y-90604500D01*
X116789000Y-90606500D01*
X116790000Y-90608500D01*
X116792000Y-90610500D01*
X116793000Y-90612500D01*
X116795000Y-90614500D01*
X116796000Y-90617500D01*
X116797000Y-90619500D01*
X116798000Y-90622500D01*
X116798000Y-90624500D01*
X116799000Y-90627500D01*
X116799000Y-90629500D01*
X116800000Y-90632500D01*
X116800000Y-90634500D01*
X116800000Y-90637500D01*
X116800000Y-91437500D01*
X116800000Y-91440500D01*
X116800000Y-91442500D01*
X116799000Y-91445500D01*
X116799000Y-91447500D01*
X116798000Y-91450500D01*
X116798000Y-91452500D01*
X116797000Y-91455500D01*
X116796000Y-91457500D01*
X116795000Y-91460500D01*
X116793000Y-91462500D01*
X116792000Y-91464500D01*
X116790000Y-91466500D01*
X116789000Y-91468500D01*
X116787000Y-91470500D01*
X116785000Y-91472500D01*
X116783000Y-91474500D01*
X116781000Y-91476500D01*
X116779000Y-91477500D01*
X116777000Y-91479500D01*
X116775000Y-91480500D01*
X116773000Y-91482500D01*
X116770000Y-91483500D01*
X116768000Y-91484500D01*
X116765000Y-91485500D01*
X116763000Y-91485500D01*
X116760000Y-91486500D01*
X116758000Y-91486500D01*
X116755000Y-91487500D01*
X116753000Y-91487500D01*
X116750000Y-91487500D01*
X116150000Y-91487500D01*
X116147000Y-91487500D01*
X116145000Y-91487500D01*
X116142000Y-91486500D01*
X116140000Y-91486500D01*
X116137000Y-91485500D01*
X116135000Y-91485500D01*
X116132000Y-91484500D01*
X116130000Y-91483500D01*
X116127000Y-91482500D01*
X116125000Y-91480500D01*
X116123000Y-91479500D01*
X116121000Y-91477500D01*
X116119000Y-91476500D01*
X116117000Y-91474500D01*
X116115000Y-91472500D01*
X116113000Y-91470500D01*
X116111000Y-91468500D01*
X116110000Y-91466500D01*
X116108000Y-91464500D01*
X116107000Y-91462500D01*
X116105000Y-91460500D01*
X116104000Y-91457500D01*
X116103000Y-91455500D01*
X116102000Y-91452500D01*
X116102000Y-91450500D01*
X116101000Y-91447500D01*
X116101000Y-91445500D01*
X116100000Y-91442500D01*
X116100000Y-91440500D01*
X116100000Y-91437500D01*
X116100000Y-90637500D01*
X116100000Y-90634500D01*
X116100000Y-90632500D01*
X116101000Y-90629500D01*
X116101000Y-90627500D01*
X116102000Y-90624500D01*
X116102000Y-90622500D01*
X116103000Y-90619500D01*
X116104000Y-90617500D01*
X116105000Y-90614500D01*
X116107000Y-90612500D01*
X116108000Y-90610500D01*
X116110000Y-90608500D01*
X116111000Y-90606500D01*
X116113000Y-90604500D01*
X116115000Y-90602500D01*
X116117000Y-90600500D01*
X116119000Y-90598500D01*
X116121000Y-90597500D01*
X116123000Y-90595500D01*
X116125000Y-90594500D01*
X116127000Y-90592500D01*
X116130000Y-90591500D01*
X116132000Y-90590500D01*
X116135000Y-90589500D01*
X116137000Y-90589500D01*
X116140000Y-90588500D01*
X116142000Y-90588500D01*
X116145000Y-90587500D01*
X116147000Y-90587500D01*
X116150000Y-90587500D01*
G36*
X116758000Y-90588500D02*
G01*
X116760000Y-90588500D01*
X116763000Y-90589500D01*
X116765000Y-90589500D01*
X116768000Y-90590500D01*
X116770000Y-90591500D01*
X116773000Y-90592500D01*
X116775000Y-90594500D01*
X116777000Y-90595500D01*
X116779000Y-90597500D01*
X116781000Y-90598500D01*
X116783000Y-90600500D01*
X116785000Y-90602500D01*
X116787000Y-90604500D01*
X116789000Y-90606500D01*
X116790000Y-90608500D01*
X116792000Y-90610500D01*
X116793000Y-90612500D01*
X116795000Y-90614500D01*
X116796000Y-90617500D01*
X116797000Y-90619500D01*
X116798000Y-90622500D01*
X116798000Y-90624500D01*
X116799000Y-90627500D01*
X116799000Y-90629500D01*
X116800000Y-90632500D01*
X116800000Y-90634500D01*
X116800000Y-90637500D01*
X116800000Y-91437500D01*
X116800000Y-91440500D01*
X116800000Y-91442500D01*
X116799000Y-91445500D01*
X116799000Y-91447500D01*
X116798000Y-91450500D01*
X116798000Y-91452500D01*
X116797000Y-91455500D01*
X116796000Y-91457500D01*
X116795000Y-91460500D01*
X116793000Y-91462500D01*
X116792000Y-91464500D01*
X116790000Y-91466500D01*
X116789000Y-91468500D01*
X116787000Y-91470500D01*
X116785000Y-91472500D01*
X116783000Y-91474500D01*
X116781000Y-91476500D01*
X116779000Y-91477500D01*
X116777000Y-91479500D01*
X116775000Y-91480500D01*
X116773000Y-91482500D01*
X116770000Y-91483500D01*
X116768000Y-91484500D01*
X116765000Y-91485500D01*
X116763000Y-91485500D01*
X116760000Y-91486500D01*
X116758000Y-91486500D01*
X116755000Y-91487500D01*
X116753000Y-91487500D01*
X116750000Y-91487500D01*
X116150000Y-91487500D01*
X116147000Y-91487500D01*
X116145000Y-91487500D01*
X116142000Y-91486500D01*
X116140000Y-91486500D01*
X116137000Y-91485500D01*
X116135000Y-91485500D01*
X116132000Y-91484500D01*
X116130000Y-91483500D01*
X116127000Y-91482500D01*
X116125000Y-91480500D01*
X116123000Y-91479500D01*
X116121000Y-91477500D01*
X116119000Y-91476500D01*
X116117000Y-91474500D01*
X116115000Y-91472500D01*
X116113000Y-91470500D01*
X116111000Y-91468500D01*
X116110000Y-91466500D01*
X116108000Y-91464500D01*
X116107000Y-91462500D01*
X116105000Y-91460500D01*
X116104000Y-91457500D01*
X116103000Y-91455500D01*
X116102000Y-91452500D01*
X116102000Y-91450500D01*
X116101000Y-91447500D01*
X116101000Y-91445500D01*
X116100000Y-91442500D01*
X116100000Y-91440500D01*
X116100000Y-91437500D01*
X116100000Y-90637500D01*
X116100000Y-90634500D01*
X116100000Y-90632500D01*
X116101000Y-90629500D01*
X116101000Y-90627500D01*
X116102000Y-90624500D01*
X116102000Y-90622500D01*
X116103000Y-90619500D01*
X116104000Y-90617500D01*
X116105000Y-90614500D01*
X116107000Y-90612500D01*
X116108000Y-90610500D01*
X116110000Y-90608500D01*
X116111000Y-90606500D01*
X116113000Y-90604500D01*
X116115000Y-90602500D01*
X116117000Y-90600500D01*
X116119000Y-90598500D01*
X116121000Y-90597500D01*
X116123000Y-90595500D01*
X116125000Y-90594500D01*
X116127000Y-90592500D01*
X116130000Y-90591500D01*
X116132000Y-90590500D01*
X116135000Y-90589500D01*
X116137000Y-90589500D01*
X116140000Y-90588500D01*
X116142000Y-90588500D01*
X116145000Y-90587500D01*
X116147000Y-90587500D01*
X116150000Y-90587500D01*
X116750000Y-90587500D01*
X116753000Y-90587500D01*
X116755000Y-90587500D01*
X116758000Y-90588500D01*
G37*
%TD*%
D12*
%TO.C,SHLD1*%
X147550000Y-94800000D03*
D13*
X165050000Y-80300000D03*
D14*
X165050000Y-109100000D03*
D15*
X182550000Y-86500000D03*
X182550000Y-102700000D03*
%TD*%
D16*
%TO.C,C74*%
X165155000Y-88570000D03*
X165155000Y-87020000D03*
%TD*%
%TO.C,C13*%
X192500000Y-94275000D03*
X192500000Y-95825000D03*
%TD*%
D17*
%TO.C,J10*%
X197450000Y-94250000D03*
D18*
X197500800Y-97075000D03*
X197450000Y-91425000D03*
%TD*%
D19*
%TO.C,U15*%
X130100000Y-120100000D03*
X133700000Y-120100000D03*
X130100000Y-118800000D03*
X133700000Y-118800000D03*
%TD*%
D20*
%TO.C,L1*%
X169200000Y-104675000D03*
X169200000Y-106425000D03*
%TD*%
D21*
%TO.C,C41*%
X173550000Y-88087500D03*
X173550000Y-89637500D03*
%TD*%
D22*
%TO.C,U13*%
X168100000Y-72100000D03*
X164500000Y-72100000D03*
X168100000Y-73400000D03*
X164500000Y-73400000D03*
%TD*%
D21*
%TO.C,C29*%
X165125000Y-83825000D03*
X165125000Y-85375000D03*
%TD*%
D23*
%TO.C,C71*%
X155925000Y-82600000D03*
X154375000Y-82600000D03*
%TD*%
D24*
%TO.C,FB5*%
X156275000Y-84550000D03*
X154375000Y-84550000D03*
%TD*%
D23*
%TO.C,C40*%
X185825000Y-94275000D03*
X184275000Y-94275000D03*
%TD*%
D21*
%TO.C,C33*%
X131112500Y-71683550D03*
X131112500Y-73233550D03*
%TD*%
D25*
%TO.C,R23*%
X110300000Y-80825000D03*
X110300000Y-79175000D03*
%TD*%
D26*
%TO.C,L7*%
X125880000Y-98922022D03*
D27*
X128420000Y-98922022D03*
%TD*%
D28*
%TO.C,L20*%
X170275000Y-89600000D03*
X171850000Y-89600000D03*
%TD*%
%TO.C,L13*%
X170912500Y-99350000D03*
X172487500Y-99350000D03*
%TD*%
D29*
%TO.C,R26*%
X106625000Y-90700000D03*
X104975000Y-90700000D03*
%TD*%
D30*
%TO.C,R29*%
X130012500Y-79475000D03*
X130012500Y-77650000D03*
%TD*%
D31*
%TO.C,C63*%
X107700000Y-114790000D03*
X109600000Y-114790000D03*
%TD*%
D25*
%TO.C,R4*%
X160875000Y-88925000D03*
X160875000Y-87275000D03*
%TD*%
D21*
%TO.C,C31*%
X150100000Y-89775000D03*
X150100000Y-91325000D03*
%TD*%
%TO.C,C20*%
X187550000Y-92725000D03*
X187550000Y-94275000D03*
%TD*%
D32*
%TO.C,L23*%
X179200000Y-101037500D03*
X179200000Y-99462500D03*
%TD*%
D30*
%TO.C,R33*%
X133700000Y-116212500D03*
X133700000Y-114387500D03*
%TD*%
D33*
%TO.C,R13*%
X150100000Y-86450000D03*
X150100000Y-88100000D03*
%TD*%
D30*
%TO.C,R21*%
X156500000Y-113112500D03*
X156500000Y-111287500D03*
%TD*%
D23*
%TO.C,C5*%
X172475000Y-104700000D03*
X170925000Y-104700000D03*
%TD*%
D34*
%TO.C,U1*%
X114437500Y-106650000D03*
X114437500Y-105700000D03*
X114437500Y-104750000D03*
X112162500Y-104750000D03*
X112162500Y-105700000D03*
X112162500Y-106650000D03*
%TD*%
D16*
%TO.C,C42*%
X174200000Y-102625000D03*
X174200000Y-101075000D03*
%TD*%
D35*
%TO.C,C43*%
X175275000Y-89650000D03*
X176825000Y-89650000D03*
%TD*%
D16*
%TO.C,C18*%
X169200000Y-102600000D03*
X169200000Y-101050000D03*
%TD*%
D22*
%TO.C,U14*%
X158612500Y-72162500D03*
X155012500Y-72162500D03*
X158612500Y-73462500D03*
X155012500Y-73462500D03*
%TD*%
D33*
%TO.C,R17*%
X129750000Y-110175000D03*
X129750000Y-111825000D03*
%TD*%
D36*
%TO.C,R6*%
X111925000Y-108600000D03*
X113575000Y-108600000D03*
%TD*%
D37*
%TO.C,L3*%
X150937500Y-99650000D03*
X153062500Y-99650000D03*
%TD*%
D16*
%TO.C,C19*%
X121700000Y-95625000D03*
X121700000Y-94075000D03*
%TD*%
D35*
%TO.C,C8*%
X170925000Y-106450000D03*
X172475000Y-106450000D03*
%TD*%
D38*
%TO.C,DI1*%
X180350000Y-111462500D03*
X178450000Y-111462500D03*
X179400000Y-113337500D03*
%TD*%
D21*
%TO.C,C45*%
X160300000Y-72125000D03*
X160300000Y-73675000D03*
%TD*%
D33*
%TO.C,R27*%
X105000000Y-92475000D03*
X105000000Y-94125000D03*
%TD*%
D25*
%TO.C,R19*%
X131450000Y-111825000D03*
X131450000Y-110175000D03*
%TD*%
D39*
%TO.C,U5*%
X123350000Y-104500001D03*
X123350000Y-105000000D03*
X123350000Y-105500001D03*
X123350000Y-106000001D03*
X123350000Y-106500002D03*
X123350000Y-107000001D03*
D40*
X123992300Y-107642301D03*
X124492299Y-107642301D03*
X124992300Y-107642301D03*
X125492300Y-107642301D03*
X125992301Y-107642301D03*
X126492300Y-107642301D03*
D39*
X127134600Y-107000001D03*
X127134600Y-106500002D03*
X127134600Y-106000001D03*
X127134600Y-105500001D03*
X127134600Y-105000000D03*
X127134600Y-104500001D03*
D40*
X126492300Y-103857701D03*
X125992301Y-103857701D03*
X125492300Y-103857701D03*
X124992300Y-103857701D03*
X124492299Y-103857701D03*
X123992300Y-103857701D03*
D41*
X125242300Y-105750001D03*
%TD*%
D42*
%TO.C,U3*%
X116200000Y-70000000D03*
X116200000Y-70950000D03*
X116200000Y-71900000D03*
X118475000Y-71900000D03*
X118475000Y-70000000D03*
%TD*%
D23*
%TO.C,C11*%
X175375000Y-93100000D03*
X173825000Y-93100000D03*
%TD*%
D43*
%TO.C,OS3*%
X163100000Y-83675000D03*
X160900000Y-83675000D03*
X160900000Y-85375000D03*
X163100000Y-85375000D03*
%TD*%
D36*
%TO.C,R16*%
X118750000Y-104800000D03*
X120400000Y-104800000D03*
%TD*%
D28*
%TO.C,L21*%
X170912500Y-101050000D03*
X172487500Y-101050000D03*
%TD*%
D35*
%TO.C,C32*%
X150925000Y-101450000D03*
X152475000Y-101450000D03*
%TD*%
D43*
%TO.C,OS4*%
X152350000Y-82850000D03*
X150150000Y-82850000D03*
X150150000Y-84550000D03*
X152350000Y-84550000D03*
%TD*%
D44*
%TO.C,L12*%
X171837500Y-91350000D03*
X170262500Y-91350000D03*
%TD*%
D35*
%TO.C,C21*%
X170275000Y-87900000D03*
X171825000Y-87900000D03*
%TD*%
D36*
%TO.C,R9*%
X118775000Y-106675000D03*
X120425000Y-106675000D03*
%TD*%
D45*
%TO.C,L2*%
X165181282Y-91618718D03*
X166418718Y-90381282D03*
%TD*%
D31*
%TO.C,C9*%
X94250000Y-105800000D03*
X96150000Y-105800000D03*
%TD*%
D46*
%TO.C,U2*%
X180500000Y-93300000D03*
X180050000Y-93300000D03*
X179600000Y-93300000D03*
X179150000Y-93300000D03*
D47*
X178872500Y-93852500D03*
X178872500Y-94252500D03*
X178872500Y-94652500D03*
D46*
X179150000Y-95205000D03*
X179600000Y-95205000D03*
X180050000Y-95205000D03*
X180500000Y-95205000D03*
D47*
X180777500Y-94652500D03*
X180777500Y-94252500D03*
X180777500Y-93852500D03*
%TD*%
D48*
%TO.C,C44*%
X116750000Y-106700000D03*
X116750000Y-108600000D03*
%TD*%
D49*
%TO.C,R30*%
X167687500Y-76100000D03*
X169512500Y-76100000D03*
%TD*%
D35*
%TO.C,C79*%
X177675000Y-97750000D03*
X179225000Y-97750000D03*
%TD*%
D36*
%TO.C,R50*%
X115400000Y-93525000D03*
X117050000Y-93525000D03*
%TD*%
D22*
%TO.C,U12*%
X129412500Y-72362500D03*
X125812500Y-72362500D03*
X129412500Y-73662500D03*
X125812500Y-73662500D03*
%TD*%
D21*
%TO.C,C39*%
X170200000Y-71925000D03*
X170200000Y-73475000D03*
%TD*%
D50*
%TO.C,C38*%
X116750000Y-104750000D03*
X116750000Y-102850000D03*
%TD*%
D33*
%TO.C,R11*%
X135900000Y-111375000D03*
X135900000Y-113025000D03*
%TD*%
D51*
%TO.C,D1*%
X124850000Y-84200000D03*
X130350000Y-84200000D03*
%TD*%
D35*
%TO.C,C51*%
X175925000Y-101050000D03*
X177475000Y-101050000D03*
%TD*%
D36*
%TO.C,R49*%
X118700000Y-92050000D03*
X120350000Y-92050000D03*
%TD*%
D52*
%TO.C,U6*%
X125900000Y-95422021D03*
X126400002Y-95422021D03*
X126900000Y-95422021D03*
X127400000Y-95422021D03*
X127900001Y-95422021D03*
X128400000Y-95422021D03*
X128400000Y-93522022D03*
X127900001Y-93522022D03*
X127400000Y-93522022D03*
X126900000Y-93522022D03*
X126400002Y-93522022D03*
X125900000Y-93522022D03*
D53*
X127150000Y-94472020D03*
%TD*%
D23*
%TO.C,C66*%
X120275000Y-90350000D03*
X118725000Y-90350000D03*
%TD*%
D54*
%TO.C,L8*%
X168000000Y-94662500D03*
X168000000Y-96237500D03*
%TD*%
D44*
%TO.C,L19*%
X190837500Y-94300000D03*
X189262500Y-94300000D03*
%TD*%
D55*
%TO.C,J4*%
X107745000Y-102450000D03*
X107745000Y-103250000D03*
D56*
X107745000Y-104450000D03*
X107745000Y-105450000D03*
X107745000Y-105950000D03*
X107745000Y-106950000D03*
D55*
X107745000Y-108150000D03*
X107745000Y-108950000D03*
X107745000Y-108950000D03*
X107745000Y-108150000D03*
D56*
X107745000Y-107450000D03*
X107745000Y-106450000D03*
X107745000Y-104950000D03*
X107745000Y-103950000D03*
D55*
X107745000Y-103250000D03*
X107745000Y-102450000D03*
%TD*%
D38*
%TO.C,DI2*%
X154450000Y-111512500D03*
X152550000Y-111512500D03*
X153500000Y-113387500D03*
%TD*%
D16*
%TO.C,C65*%
X130100000Y-98225000D03*
X130100000Y-96675000D03*
%TD*%
D35*
%TO.C,C22*%
X170925000Y-102800000D03*
X172475000Y-102800000D03*
%TD*%
D30*
%TO.C,R22*%
X150550000Y-113100000D03*
X150550000Y-111275000D03*
%TD*%
D49*
%TO.C,R31*%
X156087500Y-75900000D03*
X157912500Y-75900000D03*
%TD*%
D35*
%TO.C,C78*%
X178525000Y-91400000D03*
X180075000Y-91400000D03*
%TD*%
D31*
%TO.C,C34*%
X116037500Y-74675000D03*
X117937500Y-74675000D03*
%TD*%
D36*
%TO.C,R5*%
X111925000Y-102900000D03*
X113575000Y-102900000D03*
%TD*%
D16*
%TO.C,C26*%
X123450000Y-95625000D03*
X123450000Y-94075000D03*
%TD*%
D36*
%TO.C,R28*%
X108725000Y-77500000D03*
X110375000Y-77500000D03*
%TD*%
D28*
%TO.C,L22*%
X178512500Y-89650000D03*
X180087500Y-89650000D03*
%TD*%
D57*
%TO.C,FPC1*%
X165049999Y-119098200D03*
X165550001Y-119098200D03*
X166050000Y-119098200D03*
X166549999Y-119098200D03*
X167050000Y-119098200D03*
X167550000Y-119098200D03*
X168050001Y-119098200D03*
X168550000Y-119098200D03*
X169049999Y-119098200D03*
X169550001Y-119098200D03*
D58*
X171249700Y-121790600D03*
X163350300Y-121790600D03*
%TD*%
D59*
%TO.C,IC1*%
X154950000Y-97875000D03*
X155450000Y-97875000D03*
X155950000Y-97875000D03*
X156450000Y-97875000D03*
X156950000Y-97875000D03*
X157450000Y-97875000D03*
X157950000Y-97875000D03*
X158450000Y-97875000D03*
X158950000Y-97875000D03*
X159450000Y-97875000D03*
X159950000Y-97875000D03*
X160450000Y-97875000D03*
D60*
X161150000Y-97175000D03*
X161150000Y-96675000D03*
X161150000Y-96175000D03*
X161150000Y-95675000D03*
X161150000Y-95175000D03*
X161150000Y-94675000D03*
X161150000Y-94175000D03*
X161150000Y-93675000D03*
X161150000Y-93175000D03*
X161150000Y-92675000D03*
X161150000Y-92175000D03*
X161150000Y-91675000D03*
D59*
X160450000Y-90975000D03*
X159950000Y-90975000D03*
X159450000Y-90975000D03*
X158950000Y-90975000D03*
X158450000Y-90975000D03*
X157950000Y-90975000D03*
X157450000Y-90975000D03*
X156950000Y-90975000D03*
X156450000Y-90975000D03*
X155950000Y-90975000D03*
X155450000Y-90975000D03*
X154950000Y-90975000D03*
D60*
X154250000Y-91675000D03*
X154250000Y-92175000D03*
X154250000Y-92675000D03*
X154250000Y-93175000D03*
X154250000Y-93675000D03*
X154250000Y-94175000D03*
X154250000Y-94675000D03*
X154250000Y-95175000D03*
X154250000Y-95675000D03*
X154250000Y-96175000D03*
X154250000Y-96675000D03*
X154250000Y-97175000D03*
D61*
X157700000Y-94425000D03*
%TD*%
D62*
%TO.C,D5*%
X111025000Y-94300000D03*
X111025000Y-98300000D03*
%TD*%
D63*
%TO.C,ID2*%
X117536650Y-84974999D03*
X117536650Y-84325000D03*
X117536650Y-83675001D03*
X115263350Y-83675001D03*
X115263350Y-84325000D03*
X115263350Y-84974999D03*
%TD*%
D64*
%TO.C,EF1*%
X116750000Y-90052500D03*
X116250000Y-90052500D03*
X115750000Y-90052500D03*
X115250000Y-90052500D03*
X115250000Y-92022500D03*
X115750000Y-92022500D03*
X116250000Y-92022500D03*
X116750000Y-92022500D03*
%TD*%
D23*
%TO.C,C12*%
X175375000Y-97150000D03*
X173825000Y-97150000D03*
%TD*%
D31*
%TO.C,C64*%
X107700000Y-117800000D03*
X109600000Y-117800000D03*
%TD*%
D36*
%TO.C,R42*%
X118675000Y-88575000D03*
X120325000Y-88575000D03*
%TD*%
D65*
%TO.C,SW2*%
X173800000Y-95650000D03*
D66*
X173825000Y-95150000D03*
X173825000Y-94650000D03*
X173225000Y-94650000D03*
X173225000Y-95150000D03*
X173225000Y-95650000D03*
%TD*%
D21*
%TO.C,C15*%
X168550000Y-88075000D03*
X168550000Y-89625000D03*
%TD*%
D36*
%TO.C,R37*%
X115400000Y-88575000D03*
X117050000Y-88575000D03*
%TD*%
D29*
%TO.C,R48*%
X130625000Y-92172022D03*
X128975000Y-92172022D03*
%TD*%
D21*
%TO.C,C16*%
X157950000Y-85325000D03*
X157950000Y-86875000D03*
%TD*%
M02*
