M48
; DRILL file {KiCad 8.0.6} date 2026-01-15T10:01:36-0800
; FORMAT={-:-/ absolute / metric / decimal}
; #@! TF.CreationDate,2026-01-15T10:01:36-08:00
; #@! TF.GenerationSoftware,Kicad,Pcbnew,8.0.6
; #@! TF.FileFunction,Plated,1,4,PTH
FMAT,2
METRIC
; #@! TA.AperFunction,Plated,PTH,ViaDrill
T1C0.300
; #@! TA.AperFunction,Plated,PTH,ViaDrill
T2C0.400
; #@! TA.AperFunction,Plated,PTH,ComponentDrill
T3C0.600
; #@! TA.AperFunction,Plated,PTH,ComponentDrill
T4C1.000
; #@! TA.AperFunction,Plated,PTH,ComponentDrill
T5C1.100
; #@! TA.AperFunction,Plated,PTH,ComponentDrill
T6C3.200
%
G90
G05
T1
X102.3Y-104.1
X102.4Y-101.9
X103.4Y-106.6
X105.1Y-101.8
X105.1Y-104.2
X105.7Y-107.9
X106.4Y-106.0
X112.2Y-110.6
X112.4Y-77.6
X112.8Y-78.9
X114.1Y-80.2
X114.5Y-81.4
X115.4Y-111.7
X116.3Y-81.4
X116.6Y-104.6
X116.8Y-93.5
X116.8Y-111.4
X117.3Y-105.6
X117.3Y-110.1
X117.8Y-81.4
X118.7Y-78.7
X119.0Y-90.5
X119.4Y-91.7
X119.8Y-98.7
X120.0Y-79.0
X120.3Y-99.9
X120.5Y-90.8
X121.3Y-99.0
X121.6Y-105.1
X121.7Y-103.9
X122.3Y-99.8
X122.4Y-114.4
X122.8Y-68.9
X123.0Y-103.4
X123.4Y-109.6
X123.6Y-73.8
X124.1Y-100.2
X124.3Y-108.6
X124.7Y-109.7
X124.9Y-73.8
X125.0Y-105.4
X125.25Y-98.85
X125.4Y-68.9
X126.8Y-110.7
X127.0Y-69.8
X127.4Y-111.8
X127.7Y-109.7
X128.1Y-69.0
X129.8Y-102.5
X129.9Y-78.8
X129.95Y-80.05
X130.1Y-75.3
X130.1Y-106.0
X130.4Y-69.0
X131.1Y-96.0
X131.1Y-97.3
X131.1Y-100.0
X131.1Y-102.8
X131.2Y-94.0
X131.3Y-86.8
X131.3Y-105.6
X131.4Y-82.0
X131.5Y-84.1
X131.7Y-74.2
X131.7Y-76.5
X132.4Y-102.5
X132.5Y-99.9
X132.55Y-90.1
X132.6Y-69.0
X133.1Y-79.6
X133.2Y-77.75
X133.8Y-74.0
X133.9Y-89.9
X133.9Y-105.8
X134.1Y-114.2
X134.1Y-116.2
X134.5Y-80.5
X134.7Y-101.1
X134.9Y-69.0
X134.9Y-120.6
X135.0Y-115.2
X135.1Y-75.3
X135.2Y-105.5
X135.8Y-92.5
X135.8Y-100.0
X135.8Y-101.9
X136.3Y-105.9
X136.3Y-120.4
X136.4Y-74.0
X136.4Y-75.25
X136.45Y-81.7
X136.8Y-101.2
X136.8Y-110.0
X137.1Y-91.8
X137.1Y-93.8
X137.2Y-69.0
X137.4Y-88.7
X137.4Y-105.5
X137.8Y-100.4
X137.9Y-101.9
X138.375Y-94.0
X138.4Y-106.2
X139.2Y-88.5
X139.4Y-105.5
X139.5Y-69.0
X140.9Y-79.5
X140.9Y-80.8
X141.05Y-95.25
X141.1Y-96.7
X141.4Y-106.2
X141.9Y-69.0
X142.3Y-77.5
X142.3Y-105.5
X142.6Y-76.3
X142.6Y-88.1
X142.7Y-91.8
X143.2Y-70.0
X143.2Y-106.2
X144.1Y-105.5
X144.2Y-76.3
X144.2Y-77.6
X144.2Y-81.0
X144.5Y-69.0
X144.5Y-78.7
X145.1Y-106.1
X145.15Y-84.55
X145.8Y-69.9
X145.9Y-80.9
X146.0Y-114.0
X146.1Y-99.3
X146.1Y-105.5
X146.1Y-119.3
X146.2Y-121.1
X146.3Y-88.1
X146.4Y-118.0
X146.9Y-101.9
X147.0Y-100.8
X147.1Y-69.0
X147.1Y-106.1
X147.6Y-120.4
X148.1Y-105.5
X148.4Y-69.9
X148.4Y-99.6
X148.8Y-121.1
X149.1Y-106.1
X149.1Y-110.0
X149.25Y-91.05
X149.7Y-69.0
X150.0Y-92.0
X150.1Y-105.4
X150.45Y-103.65
X150.5Y-110.0
X150.8Y-93.6
X151.0Y-75.2
X151.0Y-97.6
X151.0Y-100.8
X151.0Y-102.3
X151.1Y-91.9
X151.2Y-69.8
X151.2Y-95.8
X151.3Y-98.7
X151.8Y-84.2
X152.1Y-88.1
X152.2Y-103.8
X152.5Y-69.0
X152.5Y-102.1
X152.5Y-106.1
X153.2Y-74.4
X153.2Y-76.8
X153.2Y-79.0
X153.2Y-80.9
X153.2Y-82.7
X153.4Y-89.3
X153.6Y-87.7
X153.7Y-105.0
X154.0Y-103.6
X154.1Y-69.9
X154.1Y-98.7
X154.5Y-90.6
X154.6Y-75.6
X154.7Y-78.0
X154.9Y-81.2
X154.9Y-82.7
X155.0Y-91.8
X155.0Y-106.1
X155.1Y-87.9
X155.1Y-89.4
X155.3Y-79.7
X155.4Y-100.5
X155.5Y-69.0
X155.7Y-104.9
X155.8Y-98.7
X156.2Y-90.5
X156.3Y-76.6
X156.4Y-74.2
X156.5Y-96.0
X156.6Y-94.8
X156.7Y-78.8
X156.7Y-80.8
X157.0Y-70.0
X157.0Y-105.9
X157.3Y-100.3
X158.0Y-75.4
X158.0Y-104.9
X158.1Y-79.7
X158.3Y-82.0
X158.3Y-83.8
X158.4Y-77.9
X158.4Y-98.9
X158.5Y-69.0
X158.9Y-100.4
X159.3Y-90.8
X159.3Y-105.9
X159.4Y-80.7
X159.7Y-113.2
X159.8Y-95.9
X159.9Y-70.0
X159.9Y-74.4
X159.9Y-76.5
X159.9Y-79.2
X160.1Y-87.1
X160.5Y-82.0
X160.5Y-104.9
X161.2Y-75.4
X161.3Y-78.0
X161.4Y-100.5
X161.5Y-69.0
X161.5Y-80.7
X161.5Y-88.0
X161.5Y-102.6
X161.5Y-105.9
X161.8Y-95.9
X162.3Y-104.4
X162.4Y-74.3
X162.4Y-76.5
X162.4Y-87.0
X162.5Y-82.0
X162.5Y-101.6
X162.6Y-79.4
X163.0Y-70.0
X163.3Y-105.4
X163.5Y-100.6
X163.6Y-78.0
X163.6Y-80.7
X163.6Y-102.6
X163.8Y-87.9
X163.9Y-93.3
X163.9Y-95.9
X164.0Y-75.5
X164.3Y-104.4
X164.3Y-113.2
X164.5Y-69.0
X164.5Y-89.0
X164.7Y-79.4
X164.7Y-82.0
X164.7Y-101.6
X164.9Y-87.0
X165.4Y-74.5
X165.4Y-77.0
X165.4Y-105.4
X165.6Y-113.3
X165.8Y-80.7
X165.8Y-102.6
X165.9Y-88.3
X165.9Y-100.7
X165.9Y-114.5
X166.0Y-70.0
X166.1Y-96.0
X166.3Y-78.5
X166.4Y-104.4
X166.8Y-75.6
X166.9Y-82.0
X167.0Y-112.9
X167.1Y-87.0
X167.1Y-98.9
X167.2Y-83.8
X167.2Y-89.4
X167.2Y-101.7
X167.4Y-80.2
X167.5Y-69.0
X167.5Y-105.3
X167.8Y-77.3
X167.8Y-100.2
X168.0Y-113.925
X168.2Y-74.3
X168.3Y-88.2
X168.3Y-96.1
X168.3Y-102.6
X168.5Y-82.3
X168.5Y-104.4
X168.6Y-79.0
X169.0Y-70.0
X169.0Y-80.8
X169.1Y-101.0
X169.1Y-113.3
X169.2Y-75.9
X169.3Y-83.9
X169.3Y-99.0
X169.4Y-86.9
X169.7Y-105.3
X169.9Y-77.6
X170.1Y-79.3
X170.1Y-82.5
X170.5Y-69.0
X170.5Y-74.5
X170.5Y-110.2
X170.6Y-100.2
X170.6Y-112.0
X170.7Y-102.6
X170.7Y-104.4
X170.8Y-81.0
X171.1Y-83.8
X171.3Y-113.1
X171.3Y-114.9
X171.4Y-76.0
X171.6Y-86.9
X171.7Y-79.3
X171.8Y-99.0
X171.8Y-101.3
X171.8Y-110.7
X171.9Y-105.3
X172.0Y-70.0
X172.0Y-82.4
X172.1Y-77.6
X172.4Y-80.8
X172.6Y-74.4
X172.9Y-83.8
X173.0Y-102.6
X173.0Y-104.4
X173.1Y-100.2
X173.2Y-79.2
X173.5Y-69.0
X173.6Y-76.4
X173.6Y-81.9
X173.8Y-86.9
X174.3Y-101.5
X174.3Y-105.3
X174.375Y-90.4
X174.4Y-88.8
X174.4Y-92.1
X174.475Y-93.825
X174.5Y-77.8
X174.5Y-96.0
X174.6Y-80.5
X174.9Y-70.0
X174.9Y-75.5
X175.2Y-104.4
X175.3Y-102.6
X175.4Y-87.9
X175.7Y-79.2
X175.7Y-81.9
X175.9Y-100.6
X176.0Y-94.3
X176.0Y-95.9
X176.1Y-86.8
X176.1Y-98.5
X176.2Y-74.4
X176.3Y-77.2
X176.3Y-105.3
X176.4Y-83.6
X176.5Y-69.0
X176.7Y-80.6
X177.0Y-88.5
X177.0Y-101.7
X177.2Y-97.6
X177.2Y-99.7
X177.3Y-75.9
X177.4Y-78.6
X177.5Y-82.1
X177.5Y-104.1
X177.8Y-85.2
X178.0Y-70.0
X178.0Y-83.6
X178.1Y-105.8
X178.5Y-77.2
X178.7Y-80.1
X178.8Y-75.1
X178.8Y-102.9
X179.1Y-86.7
X179.1Y-96.9
X179.1Y-99.0
X179.1Y-101.0
X179.2Y-81.9
X179.2Y-88.5
X179.2Y-94.5
X179.4Y-85.1
X179.4Y-104.4
X179.5Y-69.0
X179.7Y-78.6
X179.8Y-83.5
X180.2Y-74.0
X180.2Y-89.8
X180.2Y-92.7
X180.2Y-95.8
X180.2Y-97.9
X180.3Y-105.9
X180.4Y-76.4
X180.4Y-100.1
X180.5Y-87.6
X180.6Y-80.0
X180.6Y-102.2
X180.7Y-94.1
X181.0Y-70.1
X181.1Y-85.8
X181.2Y-81.9
X181.2Y-103.7
X181.3Y-75.1
X181.3Y-88.6
X181.5Y-84.2
X181.6Y-77.8
X181.6Y-97.1
X181.6Y-99.0
X181.8Y-95.4
X182.0Y-101.2
X182.0Y-105.2
X182.2Y-87.2
X182.4Y-79.6
X182.4Y-89.8
X182.5Y-69.0
X182.5Y-92.7
X182.7Y-94.1
X182.8Y-76.0
X182.9Y-102.7
X183.2Y-81.0
X183.2Y-82.9
X183.2Y-85.5
X183.4Y-88.6
X183.4Y-98.1
X183.5Y-96.2
X183.5Y-100.2
X183.7Y-74.5
X183.7Y-77.6
X183.8Y-104.3
X183.9Y-70.1
X184.2Y-79.0
X184.4Y-101.8
X184.5Y-87.2
X184.5Y-94.6
X184.6Y-84.2
X184.6Y-89.8
X184.8Y-76.1
X185.0Y-97.2
X185.0Y-99.3
X185.1Y-80.6
X185.2Y-105.7
X185.5Y-69.0
X185.5Y-77.7
X185.5Y-103.0
X185.6Y-85.6
X185.7Y-74.7
X185.7Y-82.2
X185.7Y-88.6
X185.9Y-100.8
X186.0Y-95.7
X186.2Y-92.7
X186.3Y-98.3
X186.5Y-79.2
X186.6Y-76.1
X186.7Y-104.3
X186.8Y-87.2
X186.9Y-84.2
X186.9Y-89.8
X187.1Y-70.1
X187.1Y-94.1
X187.2Y-96.9
X187.4Y-77.6
X187.4Y-99.5
X187.4Y-102.1
X187.5Y-80.7
X187.6Y-74.8
X187.9Y-105.7
X188.0Y-88.6
X188.0Y-95.4
X188.1Y-82.8
X188.1Y-85.7
X188.1Y-92.7
X188.5Y-69.0
X188.5Y-76.2
X188.6Y-79.2
X188.6Y-98.2
X188.7Y-100.7
X188.7Y-103.8
X189.3Y-87.4
X189.3Y-89.8
X189.7Y-94.7
X190.3Y-70.0
X190.7Y-88.9
X190.7Y-96.2
X191.6Y-87.4
X191.6Y-90.2
X191.6Y-94.7
X191.7Y-92.2
X192.0Y-69.0
X192.4Y-96.2
X192.7Y-89.0
X192.8Y-93.5
X193.0Y-99.0
X193.1Y-84.9
X193.3Y-87.4
X193.5Y-95.0
X193.9Y-90.2
X193.9Y-92.2
X194.1Y-97.4
X194.4Y-83.4
X194.6Y-86.3
X194.7Y-88.5
X194.8Y-93.8
X194.8Y-95.9
X195.0Y-99.4
X195.7Y-84.9
X196.1Y-97.7
X197.0Y-83.4
X197.0Y-86.2
X197.4Y-96.4
X197.6Y-99.4
X198.3Y-85.0
X198.7Y-97.7
X199.4Y-83.5
X199.4Y-86.2
X199.6Y-96.4
X199.9Y-99.5
T2
X110.5Y-101.8
X110.7Y-107.9
X111.1Y-104.5
X115.9Y-89.1
X115.9Y-90.5
X131.75Y-92.65
X137.1Y-82.9
X138.3Y-78.2
X149.5Y-86.5
X151.8Y-85.6
X170.3Y-114.0
T4
X106.0Y-78.46
X106.0Y-81.0
X106.0Y-83.54
X106.0Y-86.08
X108.54Y-78.46
X108.54Y-81.0
X108.54Y-83.54
X108.54Y-86.08
X113.445Y-86.9
X115.985Y-86.9
X118.525Y-86.9
X124.1Y-91.045
X124.1Y-93.585
X124.1Y-96.125
X124.92Y-114.4
X124.92Y-116.94
X127.46Y-114.4
X127.46Y-116.94
X130.0Y-114.4
X130.0Y-116.94
X138.42Y-114.4
X138.42Y-116.94
X140.96Y-114.4
X140.96Y-116.94
X143.5Y-114.4
X143.5Y-116.94
X151.92Y-114.4
X151.92Y-116.94
X154.46Y-114.4
X154.46Y-116.94
X157.0Y-114.4
X157.0Y-116.94
X177.92Y-114.4
X177.92Y-116.94
X180.46Y-114.4
X180.46Y-116.94
X183.0Y-114.4
X183.0Y-116.94
T5
X114.0Y-76.5
X116.5Y-76.5
X119.0Y-76.5
T6
X105.0Y-72.0
X105.0Y-115.0
X197.0Y-72.0
X197.0Y-115.0
T3
X103.99Y-100.18G85X103.39Y-100.18
G05
X103.99Y-108.82G85X103.39Y-108.82
G05
X108.42Y-100.18G85X107.32Y-100.18
G05
X108.42Y-108.82G85X107.32Y-108.82
G05
M30
