%TF.GenerationSoftware,KiCad,Pcbnew,8.0.6*%
%TF.CreationDate,2026-01-15T10:01:35-08:00*%
%TF.ProjectId,LoRa_Board,4c6f5261-5f42-46f6-9172-642e6b696361,rev?*%
%TF.SameCoordinates,Original*%
%TF.FileFunction,Drillmap*%
%TF.FilePolarity,Positive*%
%FSLAX45Y45*%
G04 Gerber Fmt 4.5, Leading zero omitted, Abs format (unit mm)*
G04 Created by KiCad (PCBNEW 8.0.6) date 2026-01-15 10:01:35*
%MOMM*%
%LPD*%
G01*
G04 APERTURE LIST*
%ADD10C,0.050000*%
%ADD11C,0.200000*%
%ADD12C,0.100000*%
%ADD13C,0.110000*%
%ADD14C,0.320000*%
G04 APERTURE END LIST*
D10*
X19780000Y-6800000D02*
G75*
G02*
X20100000Y-7120000I0J-320000D01*
G01*
X20100000Y-11880000D02*
G75*
G02*
X19780000Y-12200000I-320000J0D01*
G01*
X10100000Y-7120000D02*
X10100000Y-11880000D01*
X10420000Y-12200000D02*
X19780000Y-12200000D01*
X19780000Y-6800000D02*
X10420000Y-6800000D01*
X10100000Y-7120000D02*
G75*
G02*
X10420000Y-6800000I320000J0D01*
G01*
X10420000Y-12200000D02*
G75*
G02*
X10100000Y-11880000I0J320000D01*
G01*
X20100000Y-7120000D02*
X20100000Y-11880000D01*
D11*
D12*
X10215000Y-10395000D02*
X10245000Y-10425000D01*
X10245000Y-10395000D02*
X10215000Y-10425000D01*
X10225000Y-10175000D02*
X10255000Y-10205000D01*
X10255000Y-10175000D02*
X10225000Y-10205000D01*
X10325000Y-10645000D02*
X10355000Y-10675000D01*
X10355000Y-10645000D02*
X10325000Y-10675000D01*
X10495000Y-10165000D02*
X10525000Y-10195000D01*
X10525000Y-10165000D02*
X10495000Y-10195000D01*
X10495000Y-10405000D02*
X10525000Y-10435000D01*
X10525000Y-10405000D02*
X10495000Y-10435000D01*
X10555000Y-10775000D02*
X10585000Y-10805000D01*
X10585000Y-10775000D02*
X10555000Y-10805000D01*
X10625000Y-10585000D02*
X10655000Y-10615000D01*
X10655000Y-10585000D02*
X10625000Y-10615000D01*
X11205000Y-11045000D02*
X11235000Y-11075000D01*
X11235000Y-11045000D02*
X11205000Y-11075000D01*
X11225000Y-7745000D02*
X11255000Y-7775000D01*
X11255000Y-7745000D02*
X11225000Y-7775000D01*
X11265000Y-7875000D02*
X11295000Y-7905000D01*
X11295000Y-7875000D02*
X11265000Y-7905000D01*
X11395000Y-8005000D02*
X11425000Y-8035000D01*
X11425000Y-8005000D02*
X11395000Y-8035000D01*
X11435000Y-8125000D02*
X11465000Y-8155000D01*
X11465000Y-8125000D02*
X11435000Y-8155000D01*
X11525000Y-11155000D02*
X11555000Y-11185000D01*
X11555000Y-11155000D02*
X11525000Y-11185000D01*
X11615000Y-8125000D02*
X11645000Y-8155000D01*
X11645000Y-8125000D02*
X11615000Y-8155000D01*
X11645000Y-10445000D02*
X11675000Y-10475000D01*
X11675000Y-10445000D02*
X11645000Y-10475000D01*
X11665000Y-9335000D02*
X11695000Y-9365000D01*
X11695000Y-9335000D02*
X11665000Y-9365000D01*
X11665000Y-11125000D02*
X11695000Y-11155000D01*
X11695000Y-11125000D02*
X11665000Y-11155000D01*
X11715000Y-10545000D02*
X11745000Y-10575000D01*
X11745000Y-10545000D02*
X11715000Y-10575000D01*
X11715000Y-10995000D02*
X11745000Y-11025000D01*
X11745000Y-10995000D02*
X11715000Y-11025000D01*
X11765000Y-8125000D02*
X11795000Y-8155000D01*
X11795000Y-8125000D02*
X11765000Y-8155000D01*
X11855000Y-7855000D02*
X11885000Y-7885000D01*
X11885000Y-7855000D02*
X11855000Y-7885000D01*
X11885000Y-9035000D02*
X11915000Y-9065000D01*
X11915000Y-9035000D02*
X11885000Y-9065000D01*
X11925000Y-9155000D02*
X11955000Y-9185000D01*
X11955000Y-9155000D02*
X11925000Y-9185000D01*
X11965000Y-9855000D02*
X11995000Y-9885000D01*
X11995000Y-9855000D02*
X11965000Y-9885000D01*
X11985000Y-7885000D02*
X12015000Y-7915000D01*
X12015000Y-7885000D02*
X11985000Y-7915000D01*
X12015000Y-9975000D02*
X12045000Y-10005000D01*
X12045000Y-9975000D02*
X12015000Y-10005000D01*
X12035000Y-9065000D02*
X12065000Y-9095000D01*
X12065000Y-9065000D02*
X12035000Y-9095000D01*
X12115000Y-9885000D02*
X12145000Y-9915000D01*
X12145000Y-9885000D02*
X12115000Y-9915000D01*
X12145000Y-10495000D02*
X12175000Y-10525000D01*
X12175000Y-10495000D02*
X12145000Y-10525000D01*
X12155000Y-10375000D02*
X12185000Y-10405000D01*
X12185000Y-10375000D02*
X12155000Y-10405000D01*
X12215000Y-9965000D02*
X12245000Y-9995000D01*
X12245000Y-9965000D02*
X12215000Y-9995000D01*
X12225000Y-11425000D02*
X12255000Y-11455000D01*
X12255000Y-11425000D02*
X12225000Y-11455000D01*
X12265000Y-6875000D02*
X12295000Y-6905000D01*
X12295000Y-6875000D02*
X12265000Y-6905000D01*
X12285000Y-10325000D02*
X12315000Y-10355000D01*
X12315000Y-10325000D02*
X12285000Y-10355000D01*
X12325000Y-10945000D02*
X12355000Y-10975000D01*
X12355000Y-10945000D02*
X12325000Y-10975000D01*
X12345000Y-7365000D02*
X12375000Y-7395000D01*
X12375000Y-7365000D02*
X12345000Y-7395000D01*
X12395000Y-10005000D02*
X12425000Y-10035000D01*
X12425000Y-10005000D02*
X12395000Y-10035000D01*
X12415000Y-10845000D02*
X12445000Y-10875000D01*
X12445000Y-10845000D02*
X12415000Y-10875000D01*
X12455000Y-10955000D02*
X12485000Y-10985000D01*
X12485000Y-10955000D02*
X12455000Y-10985000D01*
X12475000Y-7365000D02*
X12505000Y-7395000D01*
X12505000Y-7365000D02*
X12475000Y-7395000D01*
X12485000Y-10525000D02*
X12515000Y-10555000D01*
X12515000Y-10525000D02*
X12485000Y-10555000D01*
X12510000Y-9870000D02*
X12540000Y-9900000D01*
X12540000Y-9870000D02*
X12510000Y-9900000D01*
X12525000Y-6875000D02*
X12555000Y-6905000D01*
X12555000Y-6875000D02*
X12525000Y-6905000D01*
X12665000Y-11055000D02*
X12695000Y-11085000D01*
X12695000Y-11055000D02*
X12665000Y-11085000D01*
X12685000Y-6965000D02*
X12715000Y-6995000D01*
X12715000Y-6965000D02*
X12685000Y-6995000D01*
X12725000Y-11165000D02*
X12755000Y-11195000D01*
X12755000Y-11165000D02*
X12725000Y-11195000D01*
X12755000Y-10955000D02*
X12785000Y-10985000D01*
X12785000Y-10955000D02*
X12755000Y-10985000D01*
X12795000Y-6885000D02*
X12825000Y-6915000D01*
X12825000Y-6885000D02*
X12795000Y-6915000D01*
X12965000Y-10235000D02*
X12995000Y-10265000D01*
X12995000Y-10235000D02*
X12965000Y-10265000D01*
X12975000Y-7865000D02*
X13005000Y-7895000D01*
X13005000Y-7865000D02*
X12975000Y-7895000D01*
X12980000Y-7990000D02*
X13010000Y-8020000D01*
X13010000Y-7990000D02*
X12980000Y-8020000D01*
X12995000Y-7515000D02*
X13025000Y-7545000D01*
X13025000Y-7515000D02*
X12995000Y-7545000D01*
X12995000Y-10585000D02*
X13025000Y-10615000D01*
X13025000Y-10585000D02*
X12995000Y-10615000D01*
X13025000Y-6885000D02*
X13055000Y-6915000D01*
X13055000Y-6885000D02*
X13025000Y-6915000D01*
X13095000Y-9585000D02*
X13125000Y-9615000D01*
X13125000Y-9585000D02*
X13095000Y-9615000D01*
X13095000Y-9715000D02*
X13125000Y-9745000D01*
X13125000Y-9715000D02*
X13095000Y-9745000D01*
X13095000Y-9985000D02*
X13125000Y-10015000D01*
X13125000Y-9985000D02*
X13095000Y-10015000D01*
X13095000Y-10265000D02*
X13125000Y-10295000D01*
X13125000Y-10265000D02*
X13095000Y-10295000D01*
X13105000Y-9385000D02*
X13135000Y-9415000D01*
X13135000Y-9385000D02*
X13105000Y-9415000D01*
X13115000Y-8665000D02*
X13145000Y-8695000D01*
X13145000Y-8665000D02*
X13115000Y-8695000D01*
X13115000Y-10545000D02*
X13145000Y-10575000D01*
X13145000Y-10545000D02*
X13115000Y-10575000D01*
X13125000Y-8185000D02*
X13155000Y-8215000D01*
X13155000Y-8185000D02*
X13125000Y-8215000D01*
X13135000Y-8395000D02*
X13165000Y-8425000D01*
X13165000Y-8395000D02*
X13135000Y-8425000D01*
X13155000Y-7405000D02*
X13185000Y-7435000D01*
X13185000Y-7405000D02*
X13155000Y-7435000D01*
X13155000Y-7635000D02*
X13185000Y-7665000D01*
X13185000Y-7635000D02*
X13155000Y-7665000D01*
X13225000Y-10235000D02*
X13255000Y-10265000D01*
X13255000Y-10235000D02*
X13225000Y-10265000D01*
X13235000Y-9975000D02*
X13265000Y-10005000D01*
X13265000Y-9975000D02*
X13235000Y-10005000D01*
X13240000Y-8995000D02*
X13270000Y-9025000D01*
X13270000Y-8995000D02*
X13240000Y-9025000D01*
X13245000Y-6885000D02*
X13275000Y-6915000D01*
X13275000Y-6885000D02*
X13245000Y-6915000D01*
X13295000Y-7945000D02*
X13325000Y-7975000D01*
X13325000Y-7945000D02*
X13295000Y-7975000D01*
X13305000Y-7760000D02*
X13335000Y-7790000D01*
X13335000Y-7760000D02*
X13305000Y-7790000D01*
X13365000Y-7385000D02*
X13395000Y-7415000D01*
X13395000Y-7385000D02*
X13365000Y-7415000D01*
X13375000Y-8975000D02*
X13405000Y-9005000D01*
X13405000Y-8975000D02*
X13375000Y-9005000D01*
X13375000Y-10565000D02*
X13405000Y-10595000D01*
X13405000Y-10565000D02*
X13375000Y-10595000D01*
X13395000Y-11405000D02*
X13425000Y-11435000D01*
X13425000Y-11405000D02*
X13395000Y-11435000D01*
X13395000Y-11605000D02*
X13425000Y-11635000D01*
X13425000Y-11605000D02*
X13395000Y-11635000D01*
X13435000Y-8035000D02*
X13465000Y-8065000D01*
X13465000Y-8035000D02*
X13435000Y-8065000D01*
X13455000Y-10095000D02*
X13485000Y-10125000D01*
X13485000Y-10095000D02*
X13455000Y-10125000D01*
X13475000Y-6885000D02*
X13505000Y-6915000D01*
X13505000Y-6885000D02*
X13475000Y-6915000D01*
X13475000Y-12045000D02*
X13505000Y-12075000D01*
X13505000Y-12045000D02*
X13475000Y-12075000D01*
X13485000Y-11505000D02*
X13515000Y-11535000D01*
X13515000Y-11505000D02*
X13485000Y-11535000D01*
X13495000Y-7515000D02*
X13525000Y-7545000D01*
X13525000Y-7515000D02*
X13495000Y-7545000D01*
X13505000Y-10535000D02*
X13535000Y-10565000D01*
X13535000Y-10535000D02*
X13505000Y-10565000D01*
X13565000Y-9235000D02*
X13595000Y-9265000D01*
X13595000Y-9235000D02*
X13565000Y-9265000D01*
X13565000Y-9985000D02*
X13595000Y-10015000D01*
X13595000Y-9985000D02*
X13565000Y-10015000D01*
X13565000Y-10175000D02*
X13595000Y-10205000D01*
X13595000Y-10175000D02*
X13565000Y-10205000D01*
X13615000Y-10575000D02*
X13645000Y-10605000D01*
X13645000Y-10575000D02*
X13615000Y-10605000D01*
X13615000Y-12025000D02*
X13645000Y-12055000D01*
X13645000Y-12025000D02*
X13615000Y-12055000D01*
X13625000Y-7385000D02*
X13655000Y-7415000D01*
X13655000Y-7385000D02*
X13625000Y-7415000D01*
X13625000Y-7510000D02*
X13655000Y-7540000D01*
X13655000Y-7510000D02*
X13625000Y-7540000D01*
X13630000Y-8155000D02*
X13660000Y-8185000D01*
X13660000Y-8155000D02*
X13630000Y-8185000D01*
X13665000Y-10105000D02*
X13695000Y-10135000D01*
X13695000Y-10105000D02*
X13665000Y-10135000D01*
X13665000Y-10985000D02*
X13695000Y-11015000D01*
X13695000Y-10985000D02*
X13665000Y-11015000D01*
X13695000Y-9165000D02*
X13725000Y-9195000D01*
X13725000Y-9165000D02*
X13695000Y-9195000D01*
X13695000Y-9365000D02*
X13725000Y-9395000D01*
X13725000Y-9365000D02*
X13695000Y-9395000D01*
X13705000Y-6885000D02*
X13735000Y-6915000D01*
X13735000Y-6885000D02*
X13705000Y-6915000D01*
X13725000Y-8855000D02*
X13755000Y-8885000D01*
X13755000Y-8855000D02*
X13725000Y-8885000D01*
X13725000Y-10535000D02*
X13755000Y-10565000D01*
X13755000Y-10535000D02*
X13725000Y-10565000D01*
X13765000Y-10025000D02*
X13795000Y-10055000D01*
X13795000Y-10025000D02*
X13765000Y-10055000D01*
X13775000Y-10175000D02*
X13805000Y-10205000D01*
X13805000Y-10175000D02*
X13775000Y-10205000D01*
X13822500Y-9385000D02*
X13852500Y-9415000D01*
X13852500Y-9385000D02*
X13822500Y-9415000D01*
X13825000Y-10605000D02*
X13855000Y-10635000D01*
X13855000Y-10605000D02*
X13825000Y-10635000D01*
X13905000Y-8835000D02*
X13935000Y-8865000D01*
X13935000Y-8835000D02*
X13905000Y-8865000D01*
X13925000Y-10535000D02*
X13955000Y-10565000D01*
X13955000Y-10535000D02*
X13925000Y-10565000D01*
X13935000Y-6885000D02*
X13965000Y-6915000D01*
X13965000Y-6885000D02*
X13935000Y-6915000D01*
X14075000Y-7935000D02*
X14105000Y-7965000D01*
X14105000Y-7935000D02*
X14075000Y-7965000D01*
X14075000Y-8065000D02*
X14105000Y-8095000D01*
X14105000Y-8065000D02*
X14075000Y-8095000D01*
X14090000Y-9510000D02*
X14120000Y-9540000D01*
X14120000Y-9510000D02*
X14090000Y-9540000D01*
X14095000Y-9655000D02*
X14125000Y-9685000D01*
X14125000Y-9655000D02*
X14095000Y-9685000D01*
X14125000Y-10605000D02*
X14155000Y-10635000D01*
X14155000Y-10605000D02*
X14125000Y-10635000D01*
X14175000Y-6885000D02*
X14205000Y-6915000D01*
X14205000Y-6885000D02*
X14175000Y-6915000D01*
X14215000Y-7735000D02*
X14245000Y-7765000D01*
X14245000Y-7735000D02*
X14215000Y-7765000D01*
X14215000Y-10535000D02*
X14245000Y-10565000D01*
X14245000Y-10535000D02*
X14215000Y-10565000D01*
X14245000Y-7615000D02*
X14275000Y-7645000D01*
X14275000Y-7615000D02*
X14245000Y-7645000D01*
X14245000Y-8795000D02*
X14275000Y-8825000D01*
X14275000Y-8795000D02*
X14245000Y-8825000D01*
X14255000Y-9165000D02*
X14285000Y-9195000D01*
X14285000Y-9165000D02*
X14255000Y-9195000D01*
X14305000Y-6985000D02*
X14335000Y-7015000D01*
X14335000Y-6985000D02*
X14305000Y-7015000D01*
X14305000Y-10605000D02*
X14335000Y-10635000D01*
X14335000Y-10605000D02*
X14305000Y-10635000D01*
X14395000Y-10535000D02*
X14425000Y-10565000D01*
X14425000Y-10535000D02*
X14395000Y-10565000D01*
X14405000Y-7615000D02*
X14435000Y-7645000D01*
X14435000Y-7615000D02*
X14405000Y-7645000D01*
X14405000Y-7745000D02*
X14435000Y-7775000D01*
X14435000Y-7745000D02*
X14405000Y-7775000D01*
X14405000Y-8085000D02*
X14435000Y-8115000D01*
X14435000Y-8085000D02*
X14405000Y-8115000D01*
X14435000Y-6885000D02*
X14465000Y-6915000D01*
X14465000Y-6885000D02*
X14435000Y-6915000D01*
X14435000Y-7855000D02*
X14465000Y-7885000D01*
X14465000Y-7855000D02*
X14435000Y-7885000D01*
X14495000Y-10595000D02*
X14525000Y-10625000D01*
X14525000Y-10595000D02*
X14495000Y-10625000D01*
X14500000Y-8440000D02*
X14530000Y-8470000D01*
X14530000Y-8440000D02*
X14500000Y-8470000D01*
X14565000Y-6975000D02*
X14595000Y-7005000D01*
X14595000Y-6975000D02*
X14565000Y-7005000D01*
X14575000Y-8075000D02*
X14605000Y-8105000D01*
X14605000Y-8075000D02*
X14575000Y-8105000D01*
X14585000Y-11385000D02*
X14615000Y-11415000D01*
X14615000Y-11385000D02*
X14585000Y-11415000D01*
X14595000Y-9915000D02*
X14625000Y-9945000D01*
X14625000Y-9915000D02*
X14595000Y-9945000D01*
X14595000Y-10535000D02*
X14625000Y-10565000D01*
X14625000Y-10535000D02*
X14595000Y-10565000D01*
X14595000Y-11915000D02*
X14625000Y-11945000D01*
X14625000Y-11915000D02*
X14595000Y-11945000D01*
X14605000Y-12095000D02*
X14635000Y-12125000D01*
X14635000Y-12095000D02*
X14605000Y-12125000D01*
X14615000Y-8795000D02*
X14645000Y-8825000D01*
X14645000Y-8795000D02*
X14615000Y-8825000D01*
X14625000Y-11785000D02*
X14655000Y-11815000D01*
X14655000Y-11785000D02*
X14625000Y-11815000D01*
X14675000Y-10175000D02*
X14705000Y-10205000D01*
X14705000Y-10175000D02*
X14675000Y-10205000D01*
X14685000Y-10065000D02*
X14715000Y-10095000D01*
X14715000Y-10065000D02*
X14685000Y-10095000D01*
X14695000Y-6885000D02*
X14725000Y-6915000D01*
X14725000Y-6885000D02*
X14695000Y-6915000D01*
X14695000Y-10595000D02*
X14725000Y-10625000D01*
X14725000Y-10595000D02*
X14695000Y-10625000D01*
X14745000Y-12025000D02*
X14775000Y-12055000D01*
X14775000Y-12025000D02*
X14745000Y-12055000D01*
X14795000Y-10535000D02*
X14825000Y-10565000D01*
X14825000Y-10535000D02*
X14795000Y-10565000D01*
X14825000Y-6975000D02*
X14855000Y-7005000D01*
X14855000Y-6975000D02*
X14825000Y-7005000D01*
X14825000Y-9945000D02*
X14855000Y-9975000D01*
X14855000Y-9945000D02*
X14825000Y-9975000D01*
X14865000Y-12095000D02*
X14895000Y-12125000D01*
X14895000Y-12095000D02*
X14865000Y-12125000D01*
X14895000Y-10595000D02*
X14925000Y-10625000D01*
X14925000Y-10595000D02*
X14895000Y-10625000D01*
X14895000Y-10985000D02*
X14925000Y-11015000D01*
X14925000Y-10985000D02*
X14895000Y-11015000D01*
X14910000Y-9090000D02*
X14940000Y-9120000D01*
X14940000Y-9090000D02*
X14910000Y-9120000D01*
X14955000Y-6885000D02*
X14985000Y-6915000D01*
X14985000Y-6885000D02*
X14955000Y-6915000D01*
X14985000Y-9185000D02*
X15015000Y-9215000D01*
X15015000Y-9185000D02*
X14985000Y-9215000D01*
X14995000Y-10525000D02*
X15025000Y-10555000D01*
X15025000Y-10525000D02*
X14995000Y-10555000D01*
X15030000Y-10350000D02*
X15060000Y-10380000D01*
X15060000Y-10350000D02*
X15030000Y-10380000D01*
X15035000Y-10985000D02*
X15065000Y-11015000D01*
X15065000Y-10985000D02*
X15035000Y-11015000D01*
X15065000Y-9345000D02*
X15095000Y-9375000D01*
X15095000Y-9345000D02*
X15065000Y-9375000D01*
X15085000Y-7505000D02*
X15115000Y-7535000D01*
X15115000Y-7505000D02*
X15085000Y-7535000D01*
X15085000Y-9745000D02*
X15115000Y-9775000D01*
X15115000Y-9745000D02*
X15085000Y-9775000D01*
X15085000Y-10065000D02*
X15115000Y-10095000D01*
X15115000Y-10065000D02*
X15085000Y-10095000D01*
X15085000Y-10215000D02*
X15115000Y-10245000D01*
X15115000Y-10215000D02*
X15085000Y-10245000D01*
X15095000Y-9175000D02*
X15125000Y-9205000D01*
X15125000Y-9175000D02*
X15095000Y-9205000D01*
X15105000Y-6965000D02*
X15135000Y-6995000D01*
X15135000Y-6965000D02*
X15105000Y-6995000D01*
X15105000Y-9565000D02*
X15135000Y-9595000D01*
X15135000Y-9565000D02*
X15105000Y-9595000D01*
X15115000Y-9855000D02*
X15145000Y-9885000D01*
X15145000Y-9855000D02*
X15115000Y-9885000D01*
X15165000Y-8405000D02*
X15195000Y-8435000D01*
X15195000Y-8405000D02*
X15165000Y-8435000D01*
X15195000Y-8795000D02*
X15225000Y-8825000D01*
X15225000Y-8795000D02*
X15195000Y-8825000D01*
X15205000Y-10365000D02*
X15235000Y-10395000D01*
X15235000Y-10365000D02*
X15205000Y-10395000D01*
X15235000Y-6885000D02*
X15265000Y-6915000D01*
X15265000Y-6885000D02*
X15235000Y-6915000D01*
X15235000Y-10195000D02*
X15265000Y-10225000D01*
X15265000Y-10195000D02*
X15235000Y-10225000D01*
X15235000Y-10595000D02*
X15265000Y-10625000D01*
X15265000Y-10595000D02*
X15235000Y-10625000D01*
X15305000Y-7425000D02*
X15335000Y-7455000D01*
X15335000Y-7425000D02*
X15305000Y-7455000D01*
X15305000Y-7665000D02*
X15335000Y-7695000D01*
X15335000Y-7665000D02*
X15305000Y-7695000D01*
X15305000Y-7885000D02*
X15335000Y-7915000D01*
X15335000Y-7885000D02*
X15305000Y-7915000D01*
X15305000Y-8075000D02*
X15335000Y-8105000D01*
X15335000Y-8075000D02*
X15305000Y-8105000D01*
X15305000Y-8255000D02*
X15335000Y-8285000D01*
X15335000Y-8255000D02*
X15305000Y-8285000D01*
X15325000Y-8915000D02*
X15355000Y-8945000D01*
X15355000Y-8915000D02*
X15325000Y-8945000D01*
X15345000Y-8755000D02*
X15375000Y-8785000D01*
X15375000Y-8755000D02*
X15345000Y-8785000D01*
X15355000Y-10485000D02*
X15385000Y-10515000D01*
X15385000Y-10485000D02*
X15355000Y-10515000D01*
X15385000Y-10345000D02*
X15415000Y-10375000D01*
X15415000Y-10345000D02*
X15385000Y-10375000D01*
X15395000Y-6975000D02*
X15425000Y-7005000D01*
X15425000Y-6975000D02*
X15395000Y-7005000D01*
X15395000Y-9855000D02*
X15425000Y-9885000D01*
X15425000Y-9855000D02*
X15395000Y-9885000D01*
X15435000Y-9045000D02*
X15465000Y-9075000D01*
X15465000Y-9045000D02*
X15435000Y-9075000D01*
X15445000Y-7545000D02*
X15475000Y-7575000D01*
X15475000Y-7545000D02*
X15445000Y-7575000D01*
X15455000Y-7785000D02*
X15485000Y-7815000D01*
X15485000Y-7785000D02*
X15455000Y-7815000D01*
X15475000Y-8105000D02*
X15505000Y-8135000D01*
X15505000Y-8105000D02*
X15475000Y-8135000D01*
X15475000Y-8255000D02*
X15505000Y-8285000D01*
X15505000Y-8255000D02*
X15475000Y-8285000D01*
X15485000Y-9165000D02*
X15515000Y-9195000D01*
X15515000Y-9165000D02*
X15485000Y-9195000D01*
X15485000Y-10595000D02*
X15515000Y-10625000D01*
X15515000Y-10595000D02*
X15485000Y-10625000D01*
X15495000Y-8775000D02*
X15525000Y-8805000D01*
X15525000Y-8775000D02*
X15495000Y-8805000D01*
X15495000Y-8925000D02*
X15525000Y-8955000D01*
X15525000Y-8925000D02*
X15495000Y-8955000D01*
X15515000Y-7955000D02*
X15545000Y-7985000D01*
X15545000Y-7955000D02*
X15515000Y-7985000D01*
X15525000Y-10035000D02*
X15555000Y-10065000D01*
X15555000Y-10035000D02*
X15525000Y-10065000D01*
X15535000Y-6885000D02*
X15565000Y-6915000D01*
X15565000Y-6885000D02*
X15535000Y-6915000D01*
X15555000Y-10475000D02*
X15585000Y-10505000D01*
X15585000Y-10475000D02*
X15555000Y-10505000D01*
X15565000Y-9855000D02*
X15595000Y-9885000D01*
X15595000Y-9855000D02*
X15565000Y-9885000D01*
X15605000Y-9035000D02*
X15635000Y-9065000D01*
X15635000Y-9035000D02*
X15605000Y-9065000D01*
X15615000Y-7645000D02*
X15645000Y-7675000D01*
X15645000Y-7645000D02*
X15615000Y-7675000D01*
X15625000Y-7405000D02*
X15655000Y-7435000D01*
X15655000Y-7405000D02*
X15625000Y-7435000D01*
X15635000Y-9585000D02*
X15665000Y-9615000D01*
X15665000Y-9585000D02*
X15635000Y-9615000D01*
X15645000Y-9465000D02*
X15675000Y-9495000D01*
X15675000Y-9465000D02*
X15645000Y-9495000D01*
X15655000Y-7865000D02*
X15685000Y-7895000D01*
X15685000Y-7865000D02*
X15655000Y-7895000D01*
X15655000Y-8065000D02*
X15685000Y-8095000D01*
X15685000Y-8065000D02*
X15655000Y-8095000D01*
X15685000Y-6985000D02*
X15715000Y-7015000D01*
X15715000Y-6985000D02*
X15685000Y-7015000D01*
X15685000Y-10575000D02*
X15715000Y-10605000D01*
X15715000Y-10575000D02*
X15685000Y-10605000D01*
X15715000Y-10015000D02*
X15745000Y-10045000D01*
X15745000Y-10015000D02*
X15715000Y-10045000D01*
X15785000Y-7525000D02*
X15815000Y-7555000D01*
X15815000Y-7525000D02*
X15785000Y-7555000D01*
X15785000Y-10475000D02*
X15815000Y-10505000D01*
X15815000Y-10475000D02*
X15785000Y-10505000D01*
X15795000Y-7955000D02*
X15825000Y-7985000D01*
X15825000Y-7955000D02*
X15795000Y-7985000D01*
X15815000Y-8185000D02*
X15845000Y-8215000D01*
X15845000Y-8185000D02*
X15815000Y-8215000D01*
X15815000Y-8365000D02*
X15845000Y-8395000D01*
X15845000Y-8365000D02*
X15815000Y-8395000D01*
X15825000Y-7775000D02*
X15855000Y-7805000D01*
X15855000Y-7775000D02*
X15825000Y-7805000D01*
X15825000Y-9875000D02*
X15855000Y-9905000D01*
X15855000Y-9875000D02*
X15825000Y-9905000D01*
X15835000Y-6885000D02*
X15865000Y-6915000D01*
X15865000Y-6885000D02*
X15835000Y-6915000D01*
X15875000Y-10025000D02*
X15905000Y-10055000D01*
X15905000Y-10025000D02*
X15875000Y-10055000D01*
X15915000Y-9065000D02*
X15945000Y-9095000D01*
X15945000Y-9065000D02*
X15915000Y-9095000D01*
X15915000Y-10575000D02*
X15945000Y-10605000D01*
X15945000Y-10575000D02*
X15915000Y-10605000D01*
X15925000Y-8055000D02*
X15955000Y-8085000D01*
X15955000Y-8055000D02*
X15925000Y-8085000D01*
X15955000Y-11305000D02*
X15985000Y-11335000D01*
X15985000Y-11305000D02*
X15955000Y-11335000D01*
X15965000Y-9575000D02*
X15995000Y-9605000D01*
X15995000Y-9575000D02*
X15965000Y-9605000D01*
X15975000Y-6985000D02*
X16005000Y-7015000D01*
X16005000Y-6985000D02*
X15975000Y-7015000D01*
X15975000Y-7425000D02*
X16005000Y-7455000D01*
X16005000Y-7425000D02*
X15975000Y-7455000D01*
X15975000Y-7635000D02*
X16005000Y-7665000D01*
X16005000Y-7635000D02*
X15975000Y-7665000D01*
X15975000Y-7905000D02*
X16005000Y-7935000D01*
X16005000Y-7905000D02*
X15975000Y-7935000D01*
X15995000Y-8695000D02*
X16025000Y-8725000D01*
X16025000Y-8695000D02*
X15995000Y-8725000D01*
X16035000Y-8185000D02*
X16065000Y-8215000D01*
X16065000Y-8185000D02*
X16035000Y-8215000D01*
X16035000Y-10475000D02*
X16065000Y-10505000D01*
X16065000Y-10475000D02*
X16035000Y-10505000D01*
X16105000Y-7525000D02*
X16135000Y-7555000D01*
X16135000Y-7525000D02*
X16105000Y-7555000D01*
X16115000Y-7785000D02*
X16145000Y-7815000D01*
X16145000Y-7785000D02*
X16115000Y-7815000D01*
X16125000Y-10035000D02*
X16155000Y-10065000D01*
X16155000Y-10035000D02*
X16125000Y-10065000D01*
X16135000Y-6885000D02*
X16165000Y-6915000D01*
X16165000Y-6885000D02*
X16135000Y-6915000D01*
X16135000Y-8055000D02*
X16165000Y-8085000D01*
X16165000Y-8055000D02*
X16135000Y-8085000D01*
X16135000Y-8785000D02*
X16165000Y-8815000D01*
X16165000Y-8785000D02*
X16135000Y-8815000D01*
X16135000Y-10245000D02*
X16165000Y-10275000D01*
X16165000Y-10245000D02*
X16135000Y-10275000D01*
X16135000Y-10575000D02*
X16165000Y-10605000D01*
X16165000Y-10575000D02*
X16135000Y-10605000D01*
X16165000Y-9575000D02*
X16195000Y-9605000D01*
X16195000Y-9575000D02*
X16165000Y-9605000D01*
X16215000Y-10425000D02*
X16245000Y-10455000D01*
X16245000Y-10425000D02*
X16215000Y-10455000D01*
X16225000Y-7415000D02*
X16255000Y-7445000D01*
X16255000Y-7415000D02*
X16225000Y-7445000D01*
X16225000Y-7635000D02*
X16255000Y-7665000D01*
X16255000Y-7635000D02*
X16225000Y-7665000D01*
X16225000Y-8685000D02*
X16255000Y-8715000D01*
X16255000Y-8685000D02*
X16225000Y-8715000D01*
X16235000Y-8185000D02*
X16265000Y-8215000D01*
X16265000Y-8185000D02*
X16235000Y-8215000D01*
X16235000Y-10145000D02*
X16265000Y-10175000D01*
X16265000Y-10145000D02*
X16235000Y-10175000D01*
X16245000Y-7925000D02*
X16275000Y-7955000D01*
X16275000Y-7925000D02*
X16245000Y-7955000D01*
X16285000Y-6985000D02*
X16315000Y-7015000D01*
X16315000Y-6985000D02*
X16285000Y-7015000D01*
X16315000Y-10525000D02*
X16345000Y-10555000D01*
X16345000Y-10525000D02*
X16315000Y-10555000D01*
X16335000Y-10045000D02*
X16365000Y-10075000D01*
X16365000Y-10045000D02*
X16335000Y-10075000D01*
X16345000Y-7785000D02*
X16375000Y-7815000D01*
X16375000Y-7785000D02*
X16345000Y-7815000D01*
X16345000Y-8055000D02*
X16375000Y-8085000D01*
X16375000Y-8055000D02*
X16345000Y-8085000D01*
X16345000Y-10245000D02*
X16375000Y-10275000D01*
X16375000Y-10245000D02*
X16345000Y-10275000D01*
X16365000Y-8775000D02*
X16395000Y-8805000D01*
X16395000Y-8775000D02*
X16365000Y-8805000D01*
X16375000Y-9315000D02*
X16405000Y-9345000D01*
X16405000Y-9315000D02*
X16375000Y-9345000D01*
X16375000Y-9575000D02*
X16405000Y-9605000D01*
X16405000Y-9575000D02*
X16375000Y-9605000D01*
X16385000Y-7535000D02*
X16415000Y-7565000D01*
X16415000Y-7535000D02*
X16385000Y-7565000D01*
X16415000Y-10425000D02*
X16445000Y-10455000D01*
X16445000Y-10425000D02*
X16415000Y-10455000D01*
X16415000Y-11305000D02*
X16445000Y-11335000D01*
X16445000Y-11305000D02*
X16415000Y-11335000D01*
X16435000Y-6885000D02*
X16465000Y-6915000D01*
X16465000Y-6885000D02*
X16435000Y-6915000D01*
X16435000Y-8885000D02*
X16465000Y-8915000D01*
X16465000Y-8885000D02*
X16435000Y-8915000D01*
X16455000Y-7925000D02*
X16485000Y-7955000D01*
X16485000Y-7925000D02*
X16455000Y-7955000D01*
X16455000Y-8185000D02*
X16485000Y-8215000D01*
X16485000Y-8185000D02*
X16455000Y-8215000D01*
X16455000Y-10145000D02*
X16485000Y-10175000D01*
X16485000Y-10145000D02*
X16455000Y-10175000D01*
X16475000Y-8685000D02*
X16505000Y-8715000D01*
X16505000Y-8685000D02*
X16475000Y-8715000D01*
X16525000Y-7435000D02*
X16555000Y-7465000D01*
X16555000Y-7435000D02*
X16525000Y-7465000D01*
X16525000Y-7685000D02*
X16555000Y-7715000D01*
X16555000Y-7685000D02*
X16525000Y-7715000D01*
X16525000Y-10525000D02*
X16555000Y-10555000D01*
X16555000Y-10525000D02*
X16525000Y-10555000D01*
X16545000Y-11315000D02*
X16575000Y-11345000D01*
X16575000Y-11315000D02*
X16545000Y-11345000D01*
X16565000Y-8055000D02*
X16595000Y-8085000D01*
X16595000Y-8055000D02*
X16565000Y-8085000D01*
X16565000Y-10245000D02*
X16595000Y-10275000D01*
X16595000Y-10245000D02*
X16565000Y-10275000D01*
X16575000Y-8815000D02*
X16605000Y-8845000D01*
X16605000Y-8815000D02*
X16575000Y-8845000D01*
X16575000Y-10055000D02*
X16605000Y-10085000D01*
X16605000Y-10055000D02*
X16575000Y-10085000D01*
X16575000Y-11435000D02*
X16605000Y-11465000D01*
X16605000Y-11435000D02*
X16575000Y-11465000D01*
X16585000Y-6985000D02*
X16615000Y-7015000D01*
X16615000Y-6985000D02*
X16585000Y-7015000D01*
X16595000Y-9585000D02*
X16625000Y-9615000D01*
X16625000Y-9585000D02*
X16595000Y-9615000D01*
X16615000Y-7835000D02*
X16645000Y-7865000D01*
X16645000Y-7835000D02*
X16615000Y-7865000D01*
X16625000Y-10425000D02*
X16655000Y-10455000D01*
X16655000Y-10425000D02*
X16625000Y-10455000D01*
X16665000Y-7545000D02*
X16695000Y-7575000D01*
X16695000Y-7545000D02*
X16665000Y-7575000D01*
X16675000Y-8185000D02*
X16705000Y-8215000D01*
X16705000Y-8185000D02*
X16675000Y-8215000D01*
X16685000Y-11275000D02*
X16715000Y-11305000D01*
X16715000Y-11275000D02*
X16685000Y-11305000D01*
X16695000Y-8685000D02*
X16725000Y-8715000D01*
X16725000Y-8685000D02*
X16695000Y-8715000D01*
X16695000Y-9875000D02*
X16725000Y-9905000D01*
X16725000Y-9875000D02*
X16695000Y-9905000D01*
X16705000Y-8365000D02*
X16735000Y-8395000D01*
X16735000Y-8365000D02*
X16705000Y-8395000D01*
X16705000Y-8925000D02*
X16735000Y-8955000D01*
X16735000Y-8925000D02*
X16705000Y-8955000D01*
X16705000Y-10155000D02*
X16735000Y-10185000D01*
X16735000Y-10155000D02*
X16705000Y-10185000D01*
X16725000Y-8005000D02*
X16755000Y-8035000D01*
X16755000Y-8005000D02*
X16725000Y-8035000D01*
X16735000Y-6885000D02*
X16765000Y-6915000D01*
X16765000Y-6885000D02*
X16735000Y-6915000D01*
X16735000Y-10515000D02*
X16765000Y-10545000D01*
X16765000Y-10515000D02*
X16735000Y-10545000D01*
X16765000Y-7715000D02*
X16795000Y-7745000D01*
X16795000Y-7715000D02*
X16765000Y-7745000D01*
X16765000Y-10005000D02*
X16795000Y-10035000D01*
X16795000Y-10005000D02*
X16765000Y-10035000D01*
X16785000Y-11377500D02*
X16815000Y-11407500D01*
X16815000Y-11377500D02*
X16785000Y-11407500D01*
X16805000Y-7415000D02*
X16835000Y-7445000D01*
X16835000Y-7415000D02*
X16805000Y-7445000D01*
X16815000Y-8805000D02*
X16845000Y-8835000D01*
X16845000Y-8805000D02*
X16815000Y-8835000D01*
X16815000Y-9595000D02*
X16845000Y-9625000D01*
X16845000Y-9595000D02*
X16815000Y-9625000D01*
X16815000Y-10245000D02*
X16845000Y-10275000D01*
X16845000Y-10245000D02*
X16815000Y-10275000D01*
X16835000Y-8215000D02*
X16865000Y-8245000D01*
X16865000Y-8215000D02*
X16835000Y-8245000D01*
X16835000Y-10425000D02*
X16865000Y-10455000D01*
X16865000Y-10425000D02*
X16835000Y-10455000D01*
X16845000Y-7885000D02*
X16875000Y-7915000D01*
X16875000Y-7885000D02*
X16845000Y-7915000D01*
X16885000Y-6985000D02*
X16915000Y-7015000D01*
X16915000Y-6985000D02*
X16885000Y-7015000D01*
X16885000Y-8065000D02*
X16915000Y-8095000D01*
X16915000Y-8065000D02*
X16885000Y-8095000D01*
X16895000Y-10085000D02*
X16925000Y-10115000D01*
X16925000Y-10085000D02*
X16895000Y-10115000D01*
X16895000Y-11315000D02*
X16925000Y-11345000D01*
X16925000Y-11315000D02*
X16895000Y-11345000D01*
X16905000Y-7575000D02*
X16935000Y-7605000D01*
X16935000Y-7575000D02*
X16905000Y-7605000D01*
X16915000Y-8375000D02*
X16945000Y-8405000D01*
X16945000Y-8375000D02*
X16915000Y-8405000D01*
X16915000Y-9885000D02*
X16945000Y-9915000D01*
X16945000Y-9885000D02*
X16915000Y-9915000D01*
X16925000Y-8675000D02*
X16955000Y-8705000D01*
X16955000Y-8675000D02*
X16925000Y-8705000D01*
X16955000Y-10515000D02*
X16985000Y-10545000D01*
X16985000Y-10515000D02*
X16955000Y-10545000D01*
X16975000Y-7745000D02*
X17005000Y-7775000D01*
X17005000Y-7745000D02*
X16975000Y-7775000D01*
X16995000Y-7915000D02*
X17025000Y-7945000D01*
X17025000Y-7915000D02*
X16995000Y-7945000D01*
X16995000Y-8235000D02*
X17025000Y-8265000D01*
X17025000Y-8235000D02*
X16995000Y-8265000D01*
X17035000Y-6885000D02*
X17065000Y-6915000D01*
X17065000Y-6885000D02*
X17035000Y-6915000D01*
X17035000Y-7435000D02*
X17065000Y-7465000D01*
X17065000Y-7435000D02*
X17035000Y-7465000D01*
X17035000Y-11005000D02*
X17065000Y-11035000D01*
X17065000Y-11005000D02*
X17035000Y-11035000D01*
X17045000Y-10005000D02*
X17075000Y-10035000D01*
X17075000Y-10005000D02*
X17045000Y-10035000D01*
X17045000Y-11185000D02*
X17075000Y-11215000D01*
X17075000Y-11185000D02*
X17045000Y-11215000D01*
X17055000Y-10245000D02*
X17085000Y-10275000D01*
X17085000Y-10245000D02*
X17055000Y-10275000D01*
X17055000Y-10425000D02*
X17085000Y-10455000D01*
X17085000Y-10425000D02*
X17055000Y-10455000D01*
X17065000Y-8085000D02*
X17095000Y-8115000D01*
X17095000Y-8085000D02*
X17065000Y-8115000D01*
X17095000Y-8365000D02*
X17125000Y-8395000D01*
X17125000Y-8365000D02*
X17095000Y-8395000D01*
X17115000Y-11295000D02*
X17145000Y-11325000D01*
X17145000Y-11295000D02*
X17115000Y-11325000D01*
X17115000Y-11475000D02*
X17145000Y-11505000D01*
X17145000Y-11475000D02*
X17115000Y-11505000D01*
X17125000Y-7585000D02*
X17155000Y-7615000D01*
X17155000Y-7585000D02*
X17125000Y-7615000D01*
X17145000Y-8675000D02*
X17175000Y-8705000D01*
X17175000Y-8675000D02*
X17145000Y-8705000D01*
X17155000Y-7915000D02*
X17185000Y-7945000D01*
X17185000Y-7915000D02*
X17155000Y-7945000D01*
X17165000Y-9885000D02*
X17195000Y-9915000D01*
X17195000Y-9885000D02*
X17165000Y-9915000D01*
X17165000Y-10115000D02*
X17195000Y-10145000D01*
X17195000Y-10115000D02*
X17165000Y-10145000D01*
X17165000Y-11055000D02*
X17195000Y-11085000D01*
X17195000Y-11055000D02*
X17165000Y-11085000D01*
X17175000Y-10515000D02*
X17205000Y-10545000D01*
X17205000Y-10515000D02*
X17175000Y-10545000D01*
X17185000Y-6985000D02*
X17215000Y-7015000D01*
X17215000Y-6985000D02*
X17185000Y-7015000D01*
X17185000Y-8225000D02*
X17215000Y-8255000D01*
X17215000Y-8225000D02*
X17185000Y-8255000D01*
X17195000Y-7745000D02*
X17225000Y-7775000D01*
X17225000Y-7745000D02*
X17195000Y-7775000D01*
X17225000Y-8065000D02*
X17255000Y-8095000D01*
X17255000Y-8065000D02*
X17225000Y-8095000D01*
X17245000Y-7425000D02*
X17275000Y-7455000D01*
X17275000Y-7425000D02*
X17245000Y-7455000D01*
X17275000Y-8365000D02*
X17305000Y-8395000D01*
X17305000Y-8365000D02*
X17275000Y-8395000D01*
X17285000Y-10245000D02*
X17315000Y-10275000D01*
X17315000Y-10245000D02*
X17285000Y-10275000D01*
X17285000Y-10425000D02*
X17315000Y-10455000D01*
X17315000Y-10425000D02*
X17285000Y-10455000D01*
X17295000Y-10005000D02*
X17325000Y-10035000D01*
X17325000Y-10005000D02*
X17295000Y-10035000D01*
X17305000Y-7905000D02*
X17335000Y-7935000D01*
X17335000Y-7905000D02*
X17305000Y-7935000D01*
X17335000Y-6885000D02*
X17365000Y-6915000D01*
X17365000Y-6885000D02*
X17335000Y-6915000D01*
X17345000Y-7625000D02*
X17375000Y-7655000D01*
X17375000Y-7625000D02*
X17345000Y-7655000D01*
X17345000Y-8175000D02*
X17375000Y-8205000D01*
X17375000Y-8175000D02*
X17345000Y-8205000D01*
X17365000Y-8675000D02*
X17395000Y-8705000D01*
X17395000Y-8675000D02*
X17365000Y-8705000D01*
X17415000Y-10135000D02*
X17445000Y-10165000D01*
X17445000Y-10135000D02*
X17415000Y-10165000D01*
X17415000Y-10515000D02*
X17445000Y-10545000D01*
X17445000Y-10515000D02*
X17415000Y-10545000D01*
X17422500Y-9025000D02*
X17452500Y-9055000D01*
X17452500Y-9025000D02*
X17422500Y-9055000D01*
X17425000Y-8865000D02*
X17455000Y-8895000D01*
X17455000Y-8865000D02*
X17425000Y-8895000D01*
X17425000Y-9195000D02*
X17455000Y-9225000D01*
X17455000Y-9195000D02*
X17425000Y-9225000D01*
X17432500Y-9367500D02*
X17462500Y-9397500D01*
X17462500Y-9367500D02*
X17432500Y-9397500D01*
X17435000Y-7765000D02*
X17465000Y-7795000D01*
X17465000Y-7765000D02*
X17435000Y-7795000D01*
X17435000Y-9585000D02*
X17465000Y-9615000D01*
X17465000Y-9585000D02*
X17435000Y-9615000D01*
X17445000Y-8035000D02*
X17475000Y-8065000D01*
X17475000Y-8035000D02*
X17445000Y-8065000D01*
X17475000Y-6985000D02*
X17505000Y-7015000D01*
X17505000Y-6985000D02*
X17475000Y-7015000D01*
X17475000Y-7535000D02*
X17505000Y-7565000D01*
X17505000Y-7535000D02*
X17475000Y-7565000D01*
X17505000Y-10425000D02*
X17535000Y-10455000D01*
X17535000Y-10425000D02*
X17505000Y-10455000D01*
X17515000Y-10245000D02*
X17545000Y-10275000D01*
X17545000Y-10245000D02*
X17515000Y-10275000D01*
X17525000Y-8775000D02*
X17555000Y-8805000D01*
X17555000Y-8775000D02*
X17525000Y-8805000D01*
X17555000Y-7905000D02*
X17585000Y-7935000D01*
X17585000Y-7905000D02*
X17555000Y-7935000D01*
X17555000Y-8175000D02*
X17585000Y-8205000D01*
X17585000Y-8175000D02*
X17555000Y-8205000D01*
X17575000Y-10045000D02*
X17605000Y-10075000D01*
X17605000Y-10045000D02*
X17575000Y-10075000D01*
X17585000Y-9415000D02*
X17615000Y-9445000D01*
X17615000Y-9415000D02*
X17585000Y-9445000D01*
X17585000Y-9575000D02*
X17615000Y-9605000D01*
X17615000Y-9575000D02*
X17585000Y-9605000D01*
X17595000Y-8665000D02*
X17625000Y-8695000D01*
X17625000Y-8665000D02*
X17595000Y-8695000D01*
X17595000Y-9835000D02*
X17625000Y-9865000D01*
X17625000Y-9835000D02*
X17595000Y-9865000D01*
X17605000Y-7425000D02*
X17635000Y-7455000D01*
X17635000Y-7425000D02*
X17605000Y-7455000D01*
X17615000Y-7705000D02*
X17645000Y-7735000D01*
X17645000Y-7705000D02*
X17615000Y-7735000D01*
X17615000Y-10515000D02*
X17645000Y-10545000D01*
X17645000Y-10515000D02*
X17615000Y-10545000D01*
X17625000Y-8345000D02*
X17655000Y-8375000D01*
X17655000Y-8345000D02*
X17625000Y-8375000D01*
X17635000Y-6885000D02*
X17665000Y-6915000D01*
X17665000Y-6885000D02*
X17635000Y-6915000D01*
X17655000Y-8045000D02*
X17685000Y-8075000D01*
X17685000Y-8045000D02*
X17655000Y-8075000D01*
X17685000Y-8835000D02*
X17715000Y-8865000D01*
X17715000Y-8835000D02*
X17685000Y-8865000D01*
X17685000Y-10155000D02*
X17715000Y-10185000D01*
X17715000Y-10155000D02*
X17685000Y-10185000D01*
X17705000Y-9745000D02*
X17735000Y-9775000D01*
X17735000Y-9745000D02*
X17705000Y-9775000D01*
X17705000Y-9955000D02*
X17735000Y-9985000D01*
X17735000Y-9955000D02*
X17705000Y-9985000D01*
X17715000Y-7575000D02*
X17745000Y-7605000D01*
X17745000Y-7575000D02*
X17715000Y-7605000D01*
X17725000Y-7845000D02*
X17755000Y-7875000D01*
X17755000Y-7845000D02*
X17725000Y-7875000D01*
X17735000Y-8195000D02*
X17765000Y-8225000D01*
X17765000Y-8195000D02*
X17735000Y-8225000D01*
X17735000Y-10395000D02*
X17765000Y-10425000D01*
X17765000Y-10395000D02*
X17735000Y-10425000D01*
X17765000Y-8505000D02*
X17795000Y-8535000D01*
X17795000Y-8505000D02*
X17765000Y-8535000D01*
X17785000Y-6985000D02*
X17815000Y-7015000D01*
X17815000Y-6985000D02*
X17785000Y-7015000D01*
X17785000Y-8345000D02*
X17815000Y-8375000D01*
X17815000Y-8345000D02*
X17785000Y-8375000D01*
X17795000Y-10565000D02*
X17825000Y-10595000D01*
X17825000Y-10565000D02*
X17795000Y-10595000D01*
X17835000Y-7705000D02*
X17865000Y-7735000D01*
X17865000Y-7705000D02*
X17835000Y-7735000D01*
X17855000Y-7995000D02*
X17885000Y-8025000D01*
X17885000Y-7995000D02*
X17855000Y-8025000D01*
X17865000Y-7495000D02*
X17895000Y-7525000D01*
X17895000Y-7495000D02*
X17865000Y-7525000D01*
X17865000Y-10275000D02*
X17895000Y-10305000D01*
X17895000Y-10275000D02*
X17865000Y-10305000D01*
X17895000Y-8655000D02*
X17925000Y-8685000D01*
X17925000Y-8655000D02*
X17895000Y-8685000D01*
X17895000Y-9675000D02*
X17925000Y-9705000D01*
X17925000Y-9675000D02*
X17895000Y-9705000D01*
X17895000Y-9885000D02*
X17925000Y-9915000D01*
X17925000Y-9885000D02*
X17895000Y-9915000D01*
X17895000Y-10085000D02*
X17925000Y-10115000D01*
X17925000Y-10085000D02*
X17895000Y-10115000D01*
X17905000Y-8175000D02*
X17935000Y-8205000D01*
X17935000Y-8175000D02*
X17905000Y-8205000D01*
X17905000Y-8835000D02*
X17935000Y-8865000D01*
X17935000Y-8835000D02*
X17905000Y-8865000D01*
X17905000Y-9435000D02*
X17935000Y-9465000D01*
X17935000Y-9435000D02*
X17905000Y-9465000D01*
X17925000Y-8495000D02*
X17955000Y-8525000D01*
X17955000Y-8495000D02*
X17925000Y-8525000D01*
X17925000Y-10425000D02*
X17955000Y-10455000D01*
X17955000Y-10425000D02*
X17925000Y-10455000D01*
X17935000Y-6885000D02*
X17965000Y-6915000D01*
X17965000Y-6885000D02*
X17935000Y-6915000D01*
X17955000Y-7845000D02*
X17985000Y-7875000D01*
X17985000Y-7845000D02*
X17955000Y-7875000D01*
X17965000Y-8335000D02*
X17995000Y-8365000D01*
X17995000Y-8335000D02*
X17965000Y-8365000D01*
X18005000Y-7385000D02*
X18035000Y-7415000D01*
X18035000Y-7385000D02*
X18005000Y-7415000D01*
X18005000Y-8965000D02*
X18035000Y-8995000D01*
X18035000Y-8965000D02*
X18005000Y-8995000D01*
X18005000Y-9255000D02*
X18035000Y-9285000D01*
X18035000Y-9255000D02*
X18005000Y-9285000D01*
X18005000Y-9565000D02*
X18035000Y-9595000D01*
X18035000Y-9565000D02*
X18005000Y-9595000D01*
X18005000Y-9775000D02*
X18035000Y-9805000D01*
X18035000Y-9775000D02*
X18005000Y-9805000D01*
X18015000Y-10575000D02*
X18045000Y-10605000D01*
X18045000Y-10575000D02*
X18015000Y-10605000D01*
X18025000Y-7625000D02*
X18055000Y-7655000D01*
X18055000Y-7625000D02*
X18025000Y-7655000D01*
X18025000Y-9995000D02*
X18055000Y-10025000D01*
X18055000Y-9995000D02*
X18025000Y-10025000D01*
X18035000Y-8745000D02*
X18065000Y-8775000D01*
X18065000Y-8745000D02*
X18035000Y-8775000D01*
X18045000Y-7985000D02*
X18075000Y-8015000D01*
X18075000Y-7985000D02*
X18045000Y-8015000D01*
X18045000Y-10205000D02*
X18075000Y-10235000D01*
X18075000Y-10205000D02*
X18045000Y-10235000D01*
X18055000Y-9395000D02*
X18085000Y-9425000D01*
X18085000Y-9395000D02*
X18055000Y-9425000D01*
X18085000Y-6995000D02*
X18115000Y-7025000D01*
X18115000Y-6995000D02*
X18085000Y-7025000D01*
X18095000Y-8565000D02*
X18125000Y-8595000D01*
X18125000Y-8565000D02*
X18095000Y-8595000D01*
X18105000Y-8175000D02*
X18135000Y-8205000D01*
X18135000Y-8175000D02*
X18105000Y-8205000D01*
X18105000Y-10355000D02*
X18135000Y-10385000D01*
X18135000Y-10355000D02*
X18105000Y-10385000D01*
X18115000Y-7495000D02*
X18145000Y-7525000D01*
X18145000Y-7495000D02*
X18115000Y-7525000D01*
X18115000Y-8845000D02*
X18145000Y-8875000D01*
X18145000Y-8845000D02*
X18115000Y-8875000D01*
X18135000Y-8405000D02*
X18165000Y-8435000D01*
X18165000Y-8405000D02*
X18135000Y-8435000D01*
X18145000Y-7765000D02*
X18175000Y-7795000D01*
X18175000Y-7765000D02*
X18145000Y-7795000D01*
X18145000Y-9695000D02*
X18175000Y-9725000D01*
X18175000Y-9695000D02*
X18145000Y-9725000D01*
X18145000Y-9885000D02*
X18175000Y-9915000D01*
X18175000Y-9885000D02*
X18145000Y-9915000D01*
X18165000Y-9525000D02*
X18195000Y-9555000D01*
X18195000Y-9525000D02*
X18165000Y-9555000D01*
X18185000Y-10105000D02*
X18215000Y-10135000D01*
X18215000Y-10105000D02*
X18185000Y-10135000D01*
X18185000Y-10505000D02*
X18215000Y-10535000D01*
X18215000Y-10505000D02*
X18185000Y-10535000D01*
X18205000Y-8705000D02*
X18235000Y-8735000D01*
X18235000Y-8705000D02*
X18205000Y-8735000D01*
X18225000Y-7945000D02*
X18255000Y-7975000D01*
X18255000Y-7945000D02*
X18225000Y-7975000D01*
X18225000Y-8965000D02*
X18255000Y-8995000D01*
X18255000Y-8965000D02*
X18225000Y-8995000D01*
X18235000Y-6885000D02*
X18265000Y-6915000D01*
X18265000Y-6885000D02*
X18235000Y-6915000D01*
X18235000Y-9255000D02*
X18265000Y-9285000D01*
X18265000Y-9255000D02*
X18235000Y-9285000D01*
X18255000Y-9395000D02*
X18285000Y-9425000D01*
X18285000Y-9395000D02*
X18255000Y-9425000D01*
X18265000Y-7585000D02*
X18295000Y-7615000D01*
X18295000Y-7585000D02*
X18265000Y-7615000D01*
X18275000Y-10255000D02*
X18305000Y-10285000D01*
X18305000Y-10255000D02*
X18275000Y-10285000D01*
X18305000Y-8085000D02*
X18335000Y-8115000D01*
X18335000Y-8085000D02*
X18305000Y-8115000D01*
X18305000Y-8275000D02*
X18335000Y-8305000D01*
X18335000Y-8275000D02*
X18305000Y-8305000D01*
X18305000Y-8535000D02*
X18335000Y-8565000D01*
X18335000Y-8535000D02*
X18305000Y-8565000D01*
X18325000Y-8845000D02*
X18355000Y-8875000D01*
X18355000Y-8845000D02*
X18325000Y-8875000D01*
X18325000Y-9795000D02*
X18355000Y-9825000D01*
X18355000Y-9795000D02*
X18325000Y-9825000D01*
X18335000Y-9605000D02*
X18365000Y-9635000D01*
X18365000Y-9605000D02*
X18335000Y-9635000D01*
X18335000Y-10005000D02*
X18365000Y-10035000D01*
X18365000Y-10005000D02*
X18335000Y-10035000D01*
X18355000Y-7435000D02*
X18385000Y-7465000D01*
X18385000Y-7435000D02*
X18355000Y-7465000D01*
X18355000Y-7745000D02*
X18385000Y-7775000D01*
X18385000Y-7745000D02*
X18355000Y-7775000D01*
X18365000Y-10415000D02*
X18395000Y-10445000D01*
X18395000Y-10415000D02*
X18365000Y-10445000D01*
X18375000Y-6995000D02*
X18405000Y-7025000D01*
X18405000Y-6995000D02*
X18375000Y-7025000D01*
X18405000Y-7885000D02*
X18435000Y-7915000D01*
X18435000Y-7885000D02*
X18405000Y-7915000D01*
X18425000Y-10165000D02*
X18455000Y-10195000D01*
X18455000Y-10165000D02*
X18425000Y-10195000D01*
X18435000Y-8705000D02*
X18465000Y-8735000D01*
X18465000Y-8705000D02*
X18435000Y-8735000D01*
X18435000Y-9445000D02*
X18465000Y-9475000D01*
X18465000Y-9445000D02*
X18435000Y-9475000D01*
X18445000Y-8405000D02*
X18475000Y-8435000D01*
X18475000Y-8405000D02*
X18445000Y-8435000D01*
X18445000Y-8965000D02*
X18475000Y-8995000D01*
X18475000Y-8965000D02*
X18445000Y-8995000D01*
X18465000Y-7595000D02*
X18495000Y-7625000D01*
X18495000Y-7595000D02*
X18465000Y-7625000D01*
X18485000Y-9705000D02*
X18515000Y-9735000D01*
X18515000Y-9705000D02*
X18485000Y-9735000D01*
X18485000Y-9915000D02*
X18515000Y-9945000D01*
X18515000Y-9915000D02*
X18485000Y-9945000D01*
X18495000Y-8045000D02*
X18525000Y-8075000D01*
X18525000Y-8045000D02*
X18495000Y-8075000D01*
X18505000Y-10555000D02*
X18535000Y-10585000D01*
X18535000Y-10555000D02*
X18505000Y-10585000D01*
X18535000Y-6885000D02*
X18565000Y-6915000D01*
X18565000Y-6885000D02*
X18535000Y-6915000D01*
X18535000Y-7755000D02*
X18565000Y-7785000D01*
X18565000Y-7755000D02*
X18535000Y-7785000D01*
X18535000Y-10285000D02*
X18565000Y-10315000D01*
X18565000Y-10285000D02*
X18535000Y-10315000D01*
X18545000Y-8545000D02*
X18575000Y-8575000D01*
X18575000Y-8545000D02*
X18545000Y-8575000D01*
X18555000Y-7455000D02*
X18585000Y-7485000D01*
X18585000Y-7455000D02*
X18555000Y-7485000D01*
X18555000Y-8205000D02*
X18585000Y-8235000D01*
X18585000Y-8205000D02*
X18555000Y-8235000D01*
X18555000Y-8845000D02*
X18585000Y-8875000D01*
X18585000Y-8845000D02*
X18555000Y-8875000D01*
X18575000Y-10065000D02*
X18605000Y-10095000D01*
X18605000Y-10065000D02*
X18575000Y-10095000D01*
X18585000Y-9555000D02*
X18615000Y-9585000D01*
X18615000Y-9555000D02*
X18585000Y-9585000D01*
X18605000Y-9255000D02*
X18635000Y-9285000D01*
X18635000Y-9255000D02*
X18605000Y-9285000D01*
X18615000Y-9815000D02*
X18645000Y-9845000D01*
X18645000Y-9815000D02*
X18615000Y-9845000D01*
X18635000Y-7905000D02*
X18665000Y-7935000D01*
X18665000Y-7905000D02*
X18635000Y-7935000D01*
X18645000Y-7595000D02*
X18675000Y-7625000D01*
X18675000Y-7595000D02*
X18645000Y-7625000D01*
X18655000Y-10415000D02*
X18685000Y-10445000D01*
X18685000Y-10415000D02*
X18655000Y-10445000D01*
X18665000Y-8705000D02*
X18695000Y-8735000D01*
X18695000Y-8705000D02*
X18665000Y-8735000D01*
X18675000Y-8405000D02*
X18705000Y-8435000D01*
X18705000Y-8405000D02*
X18675000Y-8435000D01*
X18675000Y-8965000D02*
X18705000Y-8995000D01*
X18705000Y-8965000D02*
X18675000Y-8995000D01*
X18695000Y-6995000D02*
X18725000Y-7025000D01*
X18725000Y-6995000D02*
X18695000Y-7025000D01*
X18695000Y-9395000D02*
X18725000Y-9425000D01*
X18725000Y-9395000D02*
X18695000Y-9425000D01*
X18705000Y-9675000D02*
X18735000Y-9705000D01*
X18735000Y-9675000D02*
X18705000Y-9705000D01*
X18725000Y-7745000D02*
X18755000Y-7775000D01*
X18755000Y-7745000D02*
X18725000Y-7775000D01*
X18725000Y-9935000D02*
X18755000Y-9965000D01*
X18755000Y-9935000D02*
X18725000Y-9965000D01*
X18725000Y-10195000D02*
X18755000Y-10225000D01*
X18755000Y-10195000D02*
X18725000Y-10225000D01*
X18735000Y-8055000D02*
X18765000Y-8085000D01*
X18765000Y-8055000D02*
X18735000Y-8085000D01*
X18745000Y-7465000D02*
X18775000Y-7495000D01*
X18775000Y-7465000D02*
X18745000Y-7495000D01*
X18775000Y-10555000D02*
X18805000Y-10585000D01*
X18805000Y-10555000D02*
X18775000Y-10585000D01*
X18785000Y-8845000D02*
X18815000Y-8875000D01*
X18815000Y-8845000D02*
X18785000Y-8875000D01*
X18785000Y-9525000D02*
X18815000Y-9555000D01*
X18815000Y-9525000D02*
X18785000Y-9555000D01*
X18795000Y-8265000D02*
X18825000Y-8295000D01*
X18825000Y-8265000D02*
X18795000Y-8295000D01*
X18795000Y-8555000D02*
X18825000Y-8585000D01*
X18825000Y-8555000D02*
X18795000Y-8585000D01*
X18795000Y-9255000D02*
X18825000Y-9285000D01*
X18825000Y-9255000D02*
X18795000Y-9285000D01*
X18835000Y-6885000D02*
X18865000Y-6915000D01*
X18865000Y-6885000D02*
X18835000Y-6915000D01*
X18835000Y-7605000D02*
X18865000Y-7635000D01*
X18865000Y-7605000D02*
X18835000Y-7635000D01*
X18845000Y-7905000D02*
X18875000Y-7935000D01*
X18875000Y-7905000D02*
X18845000Y-7935000D01*
X18845000Y-9805000D02*
X18875000Y-9835000D01*
X18875000Y-9805000D02*
X18845000Y-9835000D01*
X18855000Y-10055000D02*
X18885000Y-10085000D01*
X18885000Y-10055000D02*
X18855000Y-10085000D01*
X18855000Y-10365000D02*
X18885000Y-10395000D01*
X18885000Y-10365000D02*
X18855000Y-10395000D01*
X18915000Y-8725000D02*
X18945000Y-8755000D01*
X18945000Y-8725000D02*
X18915000Y-8755000D01*
X18915000Y-8965000D02*
X18945000Y-8995000D01*
X18945000Y-8965000D02*
X18915000Y-8995000D01*
X18955000Y-9455000D02*
X18985000Y-9485000D01*
X18985000Y-9455000D02*
X18955000Y-9485000D01*
X19015000Y-6985000D02*
X19045000Y-7015000D01*
X19045000Y-6985000D02*
X19015000Y-7015000D01*
X19055000Y-8875000D02*
X19085000Y-8905000D01*
X19085000Y-8875000D02*
X19055000Y-8905000D01*
X19055000Y-9605000D02*
X19085000Y-9635000D01*
X19085000Y-9605000D02*
X19055000Y-9635000D01*
X19145000Y-8725000D02*
X19175000Y-8755000D01*
X19175000Y-8725000D02*
X19145000Y-8755000D01*
X19145000Y-9005000D02*
X19175000Y-9035000D01*
X19175000Y-9005000D02*
X19145000Y-9035000D01*
X19145000Y-9455000D02*
X19175000Y-9485000D01*
X19175000Y-9455000D02*
X19145000Y-9485000D01*
X19155000Y-9205000D02*
X19185000Y-9235000D01*
X19185000Y-9205000D02*
X19155000Y-9235000D01*
X19185000Y-6885000D02*
X19215000Y-6915000D01*
X19215000Y-6885000D02*
X19185000Y-6915000D01*
X19225000Y-9605000D02*
X19255000Y-9635000D01*
X19255000Y-9605000D02*
X19225000Y-9635000D01*
X19255000Y-8885000D02*
X19285000Y-8915000D01*
X19285000Y-8885000D02*
X19255000Y-8915000D01*
X19265000Y-9335000D02*
X19295000Y-9365000D01*
X19295000Y-9335000D02*
X19265000Y-9365000D01*
X19285000Y-9885000D02*
X19315000Y-9915000D01*
X19315000Y-9885000D02*
X19285000Y-9915000D01*
X19295000Y-8475000D02*
X19325000Y-8505000D01*
X19325000Y-8475000D02*
X19295000Y-8505000D01*
X19315000Y-8725000D02*
X19345000Y-8755000D01*
X19345000Y-8725000D02*
X19315000Y-8755000D01*
X19335000Y-9485000D02*
X19365000Y-9515000D01*
X19365000Y-9485000D02*
X19335000Y-9515000D01*
X19375000Y-9005000D02*
X19405000Y-9035000D01*
X19405000Y-9005000D02*
X19375000Y-9035000D01*
X19375000Y-9205000D02*
X19405000Y-9235000D01*
X19405000Y-9205000D02*
X19375000Y-9235000D01*
X19395000Y-9725000D02*
X19425000Y-9755000D01*
X19425000Y-9725000D02*
X19395000Y-9755000D01*
X19425000Y-8325000D02*
X19455000Y-8355000D01*
X19455000Y-8325000D02*
X19425000Y-8355000D01*
X19445000Y-8615000D02*
X19475000Y-8645000D01*
X19475000Y-8615000D02*
X19445000Y-8645000D01*
X19455000Y-8835000D02*
X19485000Y-8865000D01*
X19485000Y-8835000D02*
X19455000Y-8865000D01*
X19465000Y-9365000D02*
X19495000Y-9395000D01*
X19495000Y-9365000D02*
X19465000Y-9395000D01*
X19465000Y-9575000D02*
X19495000Y-9605000D01*
X19495000Y-9575000D02*
X19465000Y-9605000D01*
X19485000Y-9925000D02*
X19515000Y-9955000D01*
X19515000Y-9925000D02*
X19485000Y-9955000D01*
X19555000Y-8475000D02*
X19585000Y-8505000D01*
X19585000Y-8475000D02*
X19555000Y-8505000D01*
X19595000Y-9755000D02*
X19625000Y-9785000D01*
X19625000Y-9755000D02*
X19595000Y-9785000D01*
X19685000Y-8325000D02*
X19715000Y-8355000D01*
X19715000Y-8325000D02*
X19685000Y-8355000D01*
X19685000Y-8605000D02*
X19715000Y-8635000D01*
X19715000Y-8605000D02*
X19685000Y-8635000D01*
X19725000Y-9625000D02*
X19755000Y-9655000D01*
X19755000Y-9625000D02*
X19725000Y-9655000D01*
X19745000Y-9925000D02*
X19775000Y-9955000D01*
X19775000Y-9925000D02*
X19745000Y-9955000D01*
X19815000Y-8485000D02*
X19845000Y-8515000D01*
X19845000Y-8485000D02*
X19815000Y-8515000D01*
X19855000Y-9755000D02*
X19885000Y-9785000D01*
X19885000Y-9755000D02*
X19855000Y-9785000D01*
X19925000Y-8335000D02*
X19955000Y-8365000D01*
X19955000Y-8335000D02*
X19925000Y-8365000D01*
X19925000Y-8605000D02*
X19955000Y-8635000D01*
X19955000Y-8605000D02*
X19925000Y-8635000D01*
X19945000Y-9625000D02*
X19975000Y-9655000D01*
X19975000Y-9625000D02*
X19945000Y-9655000D01*
X19975000Y-9935000D02*
X20005000Y-9965000D01*
X20005000Y-9935000D02*
X19975000Y-9965000D01*
X11070000Y-10180000D02*
G75*
G02*
X11030000Y-10180000I-20000J0D01*
G01*
X11030000Y-10180000D02*
G75*
G02*
X11070000Y-10180000I20000J0D01*
G01*
X11090000Y-10790000D02*
G75*
G02*
X11050000Y-10790000I-20000J0D01*
G01*
X11050000Y-10790000D02*
G75*
G02*
X11090000Y-10790000I20000J0D01*
G01*
X11130000Y-10450000D02*
G75*
G02*
X11090000Y-10450000I-20000J0D01*
G01*
X11090000Y-10450000D02*
G75*
G02*
X11130000Y-10450000I20000J0D01*
G01*
X11610000Y-8910000D02*
G75*
G02*
X11570000Y-8910000I-20000J0D01*
G01*
X11570000Y-8910000D02*
G75*
G02*
X11610000Y-8910000I20000J0D01*
G01*
X11610000Y-9050000D02*
G75*
G02*
X11570000Y-9050000I-20000J0D01*
G01*
X11570000Y-9050000D02*
G75*
G02*
X11610000Y-9050000I20000J0D01*
G01*
X13195000Y-9265000D02*
G75*
G02*
X13155000Y-9265000I-20000J0D01*
G01*
X13155000Y-9265000D02*
G75*
G02*
X13195000Y-9265000I20000J0D01*
G01*
X13730000Y-8290000D02*
G75*
G02*
X13690000Y-8290000I-20000J0D01*
G01*
X13690000Y-8290000D02*
G75*
G02*
X13730000Y-8290000I20000J0D01*
G01*
X13850000Y-7820000D02*
G75*
G02*
X13810000Y-7820000I-20000J0D01*
G01*
X13810000Y-7820000D02*
G75*
G02*
X13850000Y-7820000I20000J0D01*
G01*
X14970000Y-8650000D02*
G75*
G02*
X14930000Y-8650000I-20000J0D01*
G01*
X14930000Y-8650000D02*
G75*
G02*
X14970000Y-8650000I20000J0D01*
G01*
X15200000Y-8560000D02*
G75*
G02*
X15160000Y-8560000I-20000J0D01*
G01*
X15160000Y-8560000D02*
G75*
G02*
X15200000Y-8560000I20000J0D01*
G01*
X17050000Y-11400000D02*
G75*
G02*
X17010000Y-11400000I-20000J0D01*
G01*
X17010000Y-11400000D02*
G75*
G02*
X17050000Y-11400000I20000J0D01*
G01*
X10369000Y-9988000D02*
X10369000Y-10048000D01*
X10339000Y-10018000D02*
X10399000Y-10018000D01*
X10399000Y-9988000D02*
X10339000Y-9988000D01*
X10339000Y-10048000D02*
G75*
G02*
X10339000Y-9988000I0J30000D01*
G01*
X10339000Y-10048000D02*
X10399000Y-10048000D01*
X10399000Y-10048000D02*
G75*
G03*
X10399000Y-9988000I0J30000D01*
G01*
X10369000Y-10852000D02*
X10369000Y-10912000D01*
X10339000Y-10882000D02*
X10399000Y-10882000D01*
X10399000Y-10852000D02*
X10339000Y-10852000D01*
X10339000Y-10912000D02*
G75*
G02*
X10339000Y-10852000I0J30000D01*
G01*
X10339000Y-10912000D02*
X10399000Y-10912000D01*
X10399000Y-10912000D02*
G75*
G03*
X10399000Y-10852000I0J30000D01*
G01*
X10787000Y-9988000D02*
X10787000Y-10048000D01*
X10757000Y-10018000D02*
X10817000Y-10018000D01*
X10842000Y-9988000D02*
X10732000Y-9988000D01*
X10732000Y-10048000D02*
G75*
G02*
X10732000Y-9988000I0J30000D01*
G01*
X10732000Y-10048000D02*
X10842000Y-10048000D01*
X10842000Y-10048000D02*
G75*
G03*
X10842000Y-9988000I0J30000D01*
G01*
X10787000Y-10852000D02*
X10787000Y-10912000D01*
X10757000Y-10882000D02*
X10817000Y-10882000D01*
X10842000Y-10852000D02*
X10732000Y-10852000D01*
X10732000Y-10912000D02*
G75*
G02*
X10732000Y-10852000I0J30000D01*
G01*
X10732000Y-10912000D02*
X10842000Y-10912000D01*
X10842000Y-10912000D02*
G75*
G03*
X10842000Y-10852000I0J30000D01*
G01*
X10635356Y-7881356D02*
X10635356Y-7810644D01*
X10564644Y-7810644D01*
X10564644Y-7881356D01*
X10635356Y-7881356D01*
X10635356Y-8135356D02*
X10635356Y-8064644D01*
X10564644Y-8064644D01*
X10564644Y-8135356D01*
X10635356Y-8135356D01*
X10635356Y-8389356D02*
X10635356Y-8318644D01*
X10564644Y-8318644D01*
X10564644Y-8389356D01*
X10635356Y-8389356D01*
X10635356Y-8643356D02*
X10635356Y-8572644D01*
X10564644Y-8572644D01*
X10564644Y-8643356D01*
X10635356Y-8643356D01*
X10889356Y-7881356D02*
X10889356Y-7810644D01*
X10818644Y-7810644D01*
X10818644Y-7881356D01*
X10889356Y-7881356D01*
X10889356Y-8135356D02*
X10889356Y-8064644D01*
X10818644Y-8064644D01*
X10818644Y-8135356D01*
X10889356Y-8135356D01*
X10889356Y-8389356D02*
X10889356Y-8318644D01*
X10818644Y-8318644D01*
X10818644Y-8389356D01*
X10889356Y-8389356D01*
X10889356Y-8643356D02*
X10889356Y-8572644D01*
X10818644Y-8572644D01*
X10818644Y-8643356D01*
X10889356Y-8643356D01*
X11379856Y-8725356D02*
X11379856Y-8654644D01*
X11309144Y-8654644D01*
X11309144Y-8725356D01*
X11379856Y-8725356D01*
X11633856Y-8725356D02*
X11633856Y-8654644D01*
X11563144Y-8654644D01*
X11563144Y-8725356D01*
X11633856Y-8725356D01*
X11887856Y-8725356D02*
X11887856Y-8654644D01*
X11817144Y-8654644D01*
X11817144Y-8725356D01*
X11887856Y-8725356D01*
X12445356Y-9139856D02*
X12445356Y-9069144D01*
X12374644Y-9069144D01*
X12374644Y-9139856D01*
X12445356Y-9139856D01*
X12445356Y-9393856D02*
X12445356Y-9323144D01*
X12374644Y-9323144D01*
X12374644Y-9393856D01*
X12445356Y-9393856D01*
X12445356Y-9647856D02*
X12445356Y-9577144D01*
X12374644Y-9577144D01*
X12374644Y-9647856D01*
X12445356Y-9647856D01*
X12527356Y-11475356D02*
X12527356Y-11404644D01*
X12456644Y-11404644D01*
X12456644Y-11475356D01*
X12527356Y-11475356D01*
X12527356Y-11729356D02*
X12527356Y-11658644D01*
X12456644Y-11658644D01*
X12456644Y-11729356D01*
X12527356Y-11729356D01*
X12781356Y-11475356D02*
X12781356Y-11404644D01*
X12710644Y-11404644D01*
X12710644Y-11475356D01*
X12781356Y-11475356D01*
X12781356Y-11729356D02*
X12781356Y-11658644D01*
X12710644Y-11658644D01*
X12710644Y-11729356D01*
X12781356Y-11729356D01*
X13035356Y-11475356D02*
X13035356Y-11404644D01*
X12964644Y-11404644D01*
X12964644Y-11475356D01*
X13035356Y-11475356D01*
X13035356Y-11729356D02*
X13035356Y-11658644D01*
X12964644Y-11658644D01*
X12964644Y-11729356D01*
X13035356Y-11729356D01*
X13877356Y-11475356D02*
X13877356Y-11404644D01*
X13806644Y-11404644D01*
X13806644Y-11475356D01*
X13877356Y-11475356D01*
X13877356Y-11729356D02*
X13877356Y-11658644D01*
X13806644Y-11658644D01*
X13806644Y-11729356D01*
X13877356Y-11729356D01*
X14131356Y-11475356D02*
X14131356Y-11404644D01*
X14060644Y-11404644D01*
X14060644Y-11475356D01*
X14131356Y-11475356D01*
X14131356Y-11729356D02*
X14131356Y-11658644D01*
X14060644Y-11658644D01*
X14060644Y-11729356D01*
X14131356Y-11729356D01*
X14385356Y-11475356D02*
X14385356Y-11404644D01*
X14314644Y-11404644D01*
X14314644Y-11475356D01*
X14385356Y-11475356D01*
X14385356Y-11729356D02*
X14385356Y-11658644D01*
X14314644Y-11658644D01*
X14314644Y-11729356D01*
X14385356Y-11729356D01*
X15227356Y-11475356D02*
X15227356Y-11404644D01*
X15156644Y-11404644D01*
X15156644Y-11475356D01*
X15227356Y-11475356D01*
X15227356Y-11729356D02*
X15227356Y-11658644D01*
X15156644Y-11658644D01*
X15156644Y-11729356D01*
X15227356Y-11729356D01*
X15481356Y-11475356D02*
X15481356Y-11404644D01*
X15410644Y-11404644D01*
X15410644Y-11475356D01*
X15481356Y-11475356D01*
X15481356Y-11729356D02*
X15481356Y-11658644D01*
X15410644Y-11658644D01*
X15410644Y-11729356D01*
X15481356Y-11729356D01*
X15735356Y-11475356D02*
X15735356Y-11404644D01*
X15664644Y-11404644D01*
X15664644Y-11475356D01*
X15735356Y-11475356D01*
X15735356Y-11729356D02*
X15735356Y-11658644D01*
X15664644Y-11658644D01*
X15664644Y-11729356D01*
X15735356Y-11729356D01*
X17827356Y-11475356D02*
X17827356Y-11404644D01*
X17756644Y-11404644D01*
X17756644Y-11475356D01*
X17827356Y-11475356D01*
X17827356Y-11729356D02*
X17827356Y-11658644D01*
X17756644Y-11658644D01*
X17756644Y-11729356D01*
X17827356Y-11729356D01*
X18081356Y-11475356D02*
X18081356Y-11404644D01*
X18010644Y-11404644D01*
X18010644Y-11475356D01*
X18081356Y-11475356D01*
X18081356Y-11729356D02*
X18081356Y-11658644D01*
X18010644Y-11658644D01*
X18010644Y-11729356D01*
X18081356Y-11729356D01*
X18335356Y-11475356D02*
X18335356Y-11404644D01*
X18264644Y-11404644D01*
X18264644Y-11475356D01*
X18335356Y-11475356D01*
X18335356Y-11729356D02*
X18335356Y-11658644D01*
X18264644Y-11658644D01*
X18264644Y-11729356D01*
X18335356Y-11729356D01*
D13*
X11400000Y-7705000D02*
X11455000Y-7650000D01*
X11400000Y-7595000D01*
X11345000Y-7650000D01*
X11400000Y-7705000D01*
X11650000Y-7705000D02*
X11705000Y-7650000D01*
X11650000Y-7595000D01*
X11595000Y-7650000D01*
X11650000Y-7705000D01*
X11900000Y-7705000D02*
X11955000Y-7650000D01*
X11900000Y-7595000D01*
X11845000Y-7650000D01*
X11900000Y-7705000D01*
D14*
X10340000Y-7040000D02*
X10660000Y-7360000D01*
X10660000Y-7040000D02*
X10340000Y-7360000D01*
X10660000Y-7200000D02*
G75*
G02*
X10340000Y-7200000I-160000J0D01*
G01*
X10340000Y-7200000D02*
G75*
G02*
X10660000Y-7200000I160000J0D01*
G01*
X10340000Y-11340000D02*
X10660000Y-11660000D01*
X10660000Y-11340000D02*
X10340000Y-11660000D01*
X10660000Y-11500000D02*
G75*
G02*
X10340000Y-11500000I-160000J0D01*
G01*
X10340000Y-11500000D02*
G75*
G02*
X10660000Y-11500000I160000J0D01*
G01*
X19540000Y-7040000D02*
X19860000Y-7360000D01*
X19860000Y-7040000D02*
X19540000Y-7360000D01*
X19860000Y-7200000D02*
G75*
G02*
X19540000Y-7200000I-160000J0D01*
G01*
X19540000Y-7200000D02*
G75*
G02*
X19860000Y-7200000I160000J0D01*
G01*
X19540000Y-11340000D02*
X19860000Y-11660000D01*
X19860000Y-11340000D02*
X19540000Y-11660000D01*
X19860000Y-11500000D02*
G75*
G02*
X19540000Y-11500000I-160000J0D01*
G01*
X19540000Y-11500000D02*
G75*
G02*
X19860000Y-11500000I160000J0D01*
G01*
D11*
X10358277Y-12513984D02*
X10358277Y-12313984D01*
X10358277Y-12313984D02*
X10405896Y-12313984D01*
X10405896Y-12313984D02*
X10434467Y-12323508D01*
X10434467Y-12323508D02*
X10453515Y-12342555D01*
X10453515Y-12342555D02*
X10463039Y-12361603D01*
X10463039Y-12361603D02*
X10472563Y-12399698D01*
X10472563Y-12399698D02*
X10472563Y-12428269D01*
X10472563Y-12428269D02*
X10463039Y-12466365D01*
X10463039Y-12466365D02*
X10453515Y-12485412D01*
X10453515Y-12485412D02*
X10434467Y-12504460D01*
X10434467Y-12504460D02*
X10405896Y-12513984D01*
X10405896Y-12513984D02*
X10358277Y-12513984D01*
X10558277Y-12513984D02*
X10558277Y-12380650D01*
X10558277Y-12418746D02*
X10567801Y-12399698D01*
X10567801Y-12399698D02*
X10577324Y-12390174D01*
X10577324Y-12390174D02*
X10596372Y-12380650D01*
X10596372Y-12380650D02*
X10615420Y-12380650D01*
X10682086Y-12513984D02*
X10682086Y-12380650D01*
X10682086Y-12313984D02*
X10672563Y-12323508D01*
X10672563Y-12323508D02*
X10682086Y-12333031D01*
X10682086Y-12333031D02*
X10691610Y-12323508D01*
X10691610Y-12323508D02*
X10682086Y-12313984D01*
X10682086Y-12313984D02*
X10682086Y-12333031D01*
X10805896Y-12513984D02*
X10786848Y-12504460D01*
X10786848Y-12504460D02*
X10777324Y-12485412D01*
X10777324Y-12485412D02*
X10777324Y-12313984D01*
X10910658Y-12513984D02*
X10891610Y-12504460D01*
X10891610Y-12504460D02*
X10882086Y-12485412D01*
X10882086Y-12485412D02*
X10882086Y-12313984D01*
X11139229Y-12513984D02*
X11139229Y-12313984D01*
X11139229Y-12313984D02*
X11205896Y-12456841D01*
X11205896Y-12456841D02*
X11272562Y-12313984D01*
X11272562Y-12313984D02*
X11272562Y-12513984D01*
X11453515Y-12513984D02*
X11453515Y-12409222D01*
X11453515Y-12409222D02*
X11443991Y-12390174D01*
X11443991Y-12390174D02*
X11424943Y-12380650D01*
X11424943Y-12380650D02*
X11386848Y-12380650D01*
X11386848Y-12380650D02*
X11367801Y-12390174D01*
X11453515Y-12504460D02*
X11434467Y-12513984D01*
X11434467Y-12513984D02*
X11386848Y-12513984D01*
X11386848Y-12513984D02*
X11367801Y-12504460D01*
X11367801Y-12504460D02*
X11358277Y-12485412D01*
X11358277Y-12485412D02*
X11358277Y-12466365D01*
X11358277Y-12466365D02*
X11367801Y-12447317D01*
X11367801Y-12447317D02*
X11386848Y-12437793D01*
X11386848Y-12437793D02*
X11434467Y-12437793D01*
X11434467Y-12437793D02*
X11453515Y-12428269D01*
X11548753Y-12380650D02*
X11548753Y-12580650D01*
X11548753Y-12390174D02*
X11567801Y-12380650D01*
X11567801Y-12380650D02*
X11605896Y-12380650D01*
X11605896Y-12380650D02*
X11624943Y-12390174D01*
X11624943Y-12390174D02*
X11634467Y-12399698D01*
X11634467Y-12399698D02*
X11643991Y-12418746D01*
X11643991Y-12418746D02*
X11643991Y-12475888D01*
X11643991Y-12475888D02*
X11634467Y-12494936D01*
X11634467Y-12494936D02*
X11624943Y-12504460D01*
X11624943Y-12504460D02*
X11605896Y-12513984D01*
X11605896Y-12513984D02*
X11567801Y-12513984D01*
X11567801Y-12513984D02*
X11548753Y-12504460D01*
X11729705Y-12494936D02*
X11739229Y-12504460D01*
X11739229Y-12504460D02*
X11729705Y-12513984D01*
X11729705Y-12513984D02*
X11720182Y-12504460D01*
X11720182Y-12504460D02*
X11729705Y-12494936D01*
X11729705Y-12494936D02*
X11729705Y-12513984D01*
X11729705Y-12390174D02*
X11739229Y-12399698D01*
X11739229Y-12399698D02*
X11729705Y-12409222D01*
X11729705Y-12409222D02*
X11720182Y-12399698D01*
X11720182Y-12399698D02*
X11729705Y-12390174D01*
X11729705Y-12390174D02*
X11729705Y-12409222D01*
D12*
X10067500Y-12827500D02*
X10097500Y-12857500D01*
X10097500Y-12827500D02*
X10067500Y-12857500D01*
D11*
X10396372Y-12733984D02*
X10415420Y-12733984D01*
X10415420Y-12733984D02*
X10434467Y-12743508D01*
X10434467Y-12743508D02*
X10443991Y-12753031D01*
X10443991Y-12753031D02*
X10453515Y-12772079D01*
X10453515Y-12772079D02*
X10463039Y-12810174D01*
X10463039Y-12810174D02*
X10463039Y-12857793D01*
X10463039Y-12857793D02*
X10453515Y-12895888D01*
X10453515Y-12895888D02*
X10443991Y-12914936D01*
X10443991Y-12914936D02*
X10434467Y-12924460D01*
X10434467Y-12924460D02*
X10415420Y-12933984D01*
X10415420Y-12933984D02*
X10396372Y-12933984D01*
X10396372Y-12933984D02*
X10377324Y-12924460D01*
X10377324Y-12924460D02*
X10367801Y-12914936D01*
X10367801Y-12914936D02*
X10358277Y-12895888D01*
X10358277Y-12895888D02*
X10348753Y-12857793D01*
X10348753Y-12857793D02*
X10348753Y-12810174D01*
X10348753Y-12810174D02*
X10358277Y-12772079D01*
X10358277Y-12772079D02*
X10367801Y-12753031D01*
X10367801Y-12753031D02*
X10377324Y-12743508D01*
X10377324Y-12743508D02*
X10396372Y-12733984D01*
X10548753Y-12914936D02*
X10558277Y-12924460D01*
X10558277Y-12924460D02*
X10548753Y-12933984D01*
X10548753Y-12933984D02*
X10539229Y-12924460D01*
X10539229Y-12924460D02*
X10548753Y-12914936D01*
X10548753Y-12914936D02*
X10548753Y-12933984D01*
X10624944Y-12733984D02*
X10748753Y-12733984D01*
X10748753Y-12733984D02*
X10682086Y-12810174D01*
X10682086Y-12810174D02*
X10710658Y-12810174D01*
X10710658Y-12810174D02*
X10729705Y-12819698D01*
X10729705Y-12819698D02*
X10739229Y-12829222D01*
X10739229Y-12829222D02*
X10748753Y-12848269D01*
X10748753Y-12848269D02*
X10748753Y-12895888D01*
X10748753Y-12895888D02*
X10739229Y-12914936D01*
X10739229Y-12914936D02*
X10729705Y-12924460D01*
X10729705Y-12924460D02*
X10710658Y-12933984D01*
X10710658Y-12933984D02*
X10653515Y-12933984D01*
X10653515Y-12933984D02*
X10634467Y-12924460D01*
X10634467Y-12924460D02*
X10624944Y-12914936D01*
X10872563Y-12733984D02*
X10891610Y-12733984D01*
X10891610Y-12733984D02*
X10910658Y-12743508D01*
X10910658Y-12743508D02*
X10920182Y-12753031D01*
X10920182Y-12753031D02*
X10929705Y-12772079D01*
X10929705Y-12772079D02*
X10939229Y-12810174D01*
X10939229Y-12810174D02*
X10939229Y-12857793D01*
X10939229Y-12857793D02*
X10929705Y-12895888D01*
X10929705Y-12895888D02*
X10920182Y-12914936D01*
X10920182Y-12914936D02*
X10910658Y-12924460D01*
X10910658Y-12924460D02*
X10891610Y-12933984D01*
X10891610Y-12933984D02*
X10872563Y-12933984D01*
X10872563Y-12933984D02*
X10853515Y-12924460D01*
X10853515Y-12924460D02*
X10843991Y-12914936D01*
X10843991Y-12914936D02*
X10834467Y-12895888D01*
X10834467Y-12895888D02*
X10824944Y-12857793D01*
X10824944Y-12857793D02*
X10824944Y-12810174D01*
X10824944Y-12810174D02*
X10834467Y-12772079D01*
X10834467Y-12772079D02*
X10843991Y-12753031D01*
X10843991Y-12753031D02*
X10853515Y-12743508D01*
X10853515Y-12743508D02*
X10872563Y-12733984D01*
X11063039Y-12733984D02*
X11082086Y-12733984D01*
X11082086Y-12733984D02*
X11101134Y-12743508D01*
X11101134Y-12743508D02*
X11110658Y-12753031D01*
X11110658Y-12753031D02*
X11120182Y-12772079D01*
X11120182Y-12772079D02*
X11129705Y-12810174D01*
X11129705Y-12810174D02*
X11129705Y-12857793D01*
X11129705Y-12857793D02*
X11120182Y-12895888D01*
X11120182Y-12895888D02*
X11110658Y-12914936D01*
X11110658Y-12914936D02*
X11101134Y-12924460D01*
X11101134Y-12924460D02*
X11082086Y-12933984D01*
X11082086Y-12933984D02*
X11063039Y-12933984D01*
X11063039Y-12933984D02*
X11043991Y-12924460D01*
X11043991Y-12924460D02*
X11034467Y-12914936D01*
X11034467Y-12914936D02*
X11024944Y-12895888D01*
X11024944Y-12895888D02*
X11015420Y-12857793D01*
X11015420Y-12857793D02*
X11015420Y-12810174D01*
X11015420Y-12810174D02*
X11024944Y-12772079D01*
X11024944Y-12772079D02*
X11034467Y-12753031D01*
X11034467Y-12753031D02*
X11043991Y-12743508D01*
X11043991Y-12743508D02*
X11063039Y-12733984D01*
X11215420Y-12933984D02*
X11215420Y-12800650D01*
X11215420Y-12819698D02*
X11224943Y-12810174D01*
X11224943Y-12810174D02*
X11243991Y-12800650D01*
X11243991Y-12800650D02*
X11272563Y-12800650D01*
X11272563Y-12800650D02*
X11291610Y-12810174D01*
X11291610Y-12810174D02*
X11301134Y-12829222D01*
X11301134Y-12829222D02*
X11301134Y-12933984D01*
X11301134Y-12829222D02*
X11310658Y-12810174D01*
X11310658Y-12810174D02*
X11329705Y-12800650D01*
X11329705Y-12800650D02*
X11358277Y-12800650D01*
X11358277Y-12800650D02*
X11377324Y-12810174D01*
X11377324Y-12810174D02*
X11386848Y-12829222D01*
X11386848Y-12829222D02*
X11386848Y-12933984D01*
X11482086Y-12933984D02*
X11482086Y-12800650D01*
X11482086Y-12819698D02*
X11491610Y-12810174D01*
X11491610Y-12810174D02*
X11510658Y-12800650D01*
X11510658Y-12800650D02*
X11539229Y-12800650D01*
X11539229Y-12800650D02*
X11558277Y-12810174D01*
X11558277Y-12810174D02*
X11567801Y-12829222D01*
X11567801Y-12829222D02*
X11567801Y-12933984D01*
X11567801Y-12829222D02*
X11577324Y-12810174D01*
X11577324Y-12810174D02*
X11596372Y-12800650D01*
X11596372Y-12800650D02*
X11624943Y-12800650D01*
X11624943Y-12800650D02*
X11643991Y-12810174D01*
X11643991Y-12810174D02*
X11653515Y-12829222D01*
X11653515Y-12829222D02*
X11653515Y-12933984D01*
X12043991Y-12724460D02*
X11872563Y-12981603D01*
X12301134Y-12733984D02*
X12320182Y-12733984D01*
X12320182Y-12733984D02*
X12339229Y-12743508D01*
X12339229Y-12743508D02*
X12348753Y-12753031D01*
X12348753Y-12753031D02*
X12358277Y-12772079D01*
X12358277Y-12772079D02*
X12367801Y-12810174D01*
X12367801Y-12810174D02*
X12367801Y-12857793D01*
X12367801Y-12857793D02*
X12358277Y-12895888D01*
X12358277Y-12895888D02*
X12348753Y-12914936D01*
X12348753Y-12914936D02*
X12339229Y-12924460D01*
X12339229Y-12924460D02*
X12320182Y-12933984D01*
X12320182Y-12933984D02*
X12301134Y-12933984D01*
X12301134Y-12933984D02*
X12282086Y-12924460D01*
X12282086Y-12924460D02*
X12272563Y-12914936D01*
X12272563Y-12914936D02*
X12263039Y-12895888D01*
X12263039Y-12895888D02*
X12253515Y-12857793D01*
X12253515Y-12857793D02*
X12253515Y-12810174D01*
X12253515Y-12810174D02*
X12263039Y-12772079D01*
X12263039Y-12772079D02*
X12272563Y-12753031D01*
X12272563Y-12753031D02*
X12282086Y-12743508D01*
X12282086Y-12743508D02*
X12301134Y-12733984D01*
X12453515Y-12914936D02*
X12463039Y-12924460D01*
X12463039Y-12924460D02*
X12453515Y-12933984D01*
X12453515Y-12933984D02*
X12443991Y-12924460D01*
X12443991Y-12924460D02*
X12453515Y-12914936D01*
X12453515Y-12914936D02*
X12453515Y-12933984D01*
X12586848Y-12733984D02*
X12605896Y-12733984D01*
X12605896Y-12733984D02*
X12624944Y-12743508D01*
X12624944Y-12743508D02*
X12634467Y-12753031D01*
X12634467Y-12753031D02*
X12643991Y-12772079D01*
X12643991Y-12772079D02*
X12653515Y-12810174D01*
X12653515Y-12810174D02*
X12653515Y-12857793D01*
X12653515Y-12857793D02*
X12643991Y-12895888D01*
X12643991Y-12895888D02*
X12634467Y-12914936D01*
X12634467Y-12914936D02*
X12624944Y-12924460D01*
X12624944Y-12924460D02*
X12605896Y-12933984D01*
X12605896Y-12933984D02*
X12586848Y-12933984D01*
X12586848Y-12933984D02*
X12567801Y-12924460D01*
X12567801Y-12924460D02*
X12558277Y-12914936D01*
X12558277Y-12914936D02*
X12548753Y-12895888D01*
X12548753Y-12895888D02*
X12539229Y-12857793D01*
X12539229Y-12857793D02*
X12539229Y-12810174D01*
X12539229Y-12810174D02*
X12548753Y-12772079D01*
X12548753Y-12772079D02*
X12558277Y-12753031D01*
X12558277Y-12753031D02*
X12567801Y-12743508D01*
X12567801Y-12743508D02*
X12586848Y-12733984D01*
X12843991Y-12933984D02*
X12729706Y-12933984D01*
X12786848Y-12933984D02*
X12786848Y-12733984D01*
X12786848Y-12733984D02*
X12767801Y-12762555D01*
X12767801Y-12762555D02*
X12748753Y-12781603D01*
X12748753Y-12781603D02*
X12729706Y-12791127D01*
X13034467Y-12933984D02*
X12920182Y-12933984D01*
X12977325Y-12933984D02*
X12977325Y-12733984D01*
X12977325Y-12733984D02*
X12958277Y-12762555D01*
X12958277Y-12762555D02*
X12939229Y-12781603D01*
X12939229Y-12781603D02*
X12920182Y-12791127D01*
X13148753Y-12819698D02*
X13129706Y-12810174D01*
X13129706Y-12810174D02*
X13120182Y-12800650D01*
X13120182Y-12800650D02*
X13110658Y-12781603D01*
X13110658Y-12781603D02*
X13110658Y-12772079D01*
X13110658Y-12772079D02*
X13120182Y-12753031D01*
X13120182Y-12753031D02*
X13129706Y-12743508D01*
X13129706Y-12743508D02*
X13148753Y-12733984D01*
X13148753Y-12733984D02*
X13186848Y-12733984D01*
X13186848Y-12733984D02*
X13205896Y-12743508D01*
X13205896Y-12743508D02*
X13215420Y-12753031D01*
X13215420Y-12753031D02*
X13224944Y-12772079D01*
X13224944Y-12772079D02*
X13224944Y-12781603D01*
X13224944Y-12781603D02*
X13215420Y-12800650D01*
X13215420Y-12800650D02*
X13205896Y-12810174D01*
X13205896Y-12810174D02*
X13186848Y-12819698D01*
X13186848Y-12819698D02*
X13148753Y-12819698D01*
X13148753Y-12819698D02*
X13129706Y-12829222D01*
X13129706Y-12829222D02*
X13120182Y-12838746D01*
X13120182Y-12838746D02*
X13110658Y-12857793D01*
X13110658Y-12857793D02*
X13110658Y-12895888D01*
X13110658Y-12895888D02*
X13120182Y-12914936D01*
X13120182Y-12914936D02*
X13129706Y-12924460D01*
X13129706Y-12924460D02*
X13148753Y-12933984D01*
X13148753Y-12933984D02*
X13186848Y-12933984D01*
X13186848Y-12933984D02*
X13205896Y-12924460D01*
X13205896Y-12924460D02*
X13215420Y-12914936D01*
X13215420Y-12914936D02*
X13224944Y-12895888D01*
X13224944Y-12895888D02*
X13224944Y-12857793D01*
X13224944Y-12857793D02*
X13215420Y-12838746D01*
X13215420Y-12838746D02*
X13205896Y-12829222D01*
X13205896Y-12829222D02*
X13186848Y-12819698D01*
X13301134Y-12733984D02*
X13301134Y-12772079D01*
X13377325Y-12733984D02*
X13377325Y-12772079D01*
X13672563Y-13010174D02*
X13663039Y-13000650D01*
X13663039Y-13000650D02*
X13643991Y-12972079D01*
X13643991Y-12972079D02*
X13634468Y-12953031D01*
X13634468Y-12953031D02*
X13624944Y-12924460D01*
X13624944Y-12924460D02*
X13615420Y-12876841D01*
X13615420Y-12876841D02*
X13615420Y-12838746D01*
X13615420Y-12838746D02*
X13624944Y-12791127D01*
X13624944Y-12791127D02*
X13634468Y-12762555D01*
X13634468Y-12762555D02*
X13643991Y-12743508D01*
X13643991Y-12743508D02*
X13663039Y-12714936D01*
X13663039Y-12714936D02*
X13672563Y-12705412D01*
X13843991Y-12733984D02*
X13748753Y-12733984D01*
X13748753Y-12733984D02*
X13739229Y-12829222D01*
X13739229Y-12829222D02*
X13748753Y-12819698D01*
X13748753Y-12819698D02*
X13767801Y-12810174D01*
X13767801Y-12810174D02*
X13815420Y-12810174D01*
X13815420Y-12810174D02*
X13834468Y-12819698D01*
X13834468Y-12819698D02*
X13843991Y-12829222D01*
X13843991Y-12829222D02*
X13853515Y-12848269D01*
X13853515Y-12848269D02*
X13853515Y-12895888D01*
X13853515Y-12895888D02*
X13843991Y-12914936D01*
X13843991Y-12914936D02*
X13834468Y-12924460D01*
X13834468Y-12924460D02*
X13815420Y-12933984D01*
X13815420Y-12933984D02*
X13767801Y-12933984D01*
X13767801Y-12933984D02*
X13748753Y-12924460D01*
X13748753Y-12924460D02*
X13739229Y-12914936D01*
X13929706Y-12753031D02*
X13939229Y-12743508D01*
X13939229Y-12743508D02*
X13958277Y-12733984D01*
X13958277Y-12733984D02*
X14005896Y-12733984D01*
X14005896Y-12733984D02*
X14024944Y-12743508D01*
X14024944Y-12743508D02*
X14034468Y-12753031D01*
X14034468Y-12753031D02*
X14043991Y-12772079D01*
X14043991Y-12772079D02*
X14043991Y-12791127D01*
X14043991Y-12791127D02*
X14034468Y-12819698D01*
X14034468Y-12819698D02*
X13920182Y-12933984D01*
X13920182Y-12933984D02*
X14043991Y-12933984D01*
X14234468Y-12933984D02*
X14120182Y-12933984D01*
X14177325Y-12933984D02*
X14177325Y-12733984D01*
X14177325Y-12733984D02*
X14158277Y-12762555D01*
X14158277Y-12762555D02*
X14139229Y-12781603D01*
X14139229Y-12781603D02*
X14120182Y-12791127D01*
X14472563Y-12933984D02*
X14472563Y-12733984D01*
X14558277Y-12933984D02*
X14558277Y-12829222D01*
X14558277Y-12829222D02*
X14548753Y-12810174D01*
X14548753Y-12810174D02*
X14529706Y-12800650D01*
X14529706Y-12800650D02*
X14501134Y-12800650D01*
X14501134Y-12800650D02*
X14482087Y-12810174D01*
X14482087Y-12810174D02*
X14472563Y-12819698D01*
X14682087Y-12933984D02*
X14663039Y-12924460D01*
X14663039Y-12924460D02*
X14653515Y-12914936D01*
X14653515Y-12914936D02*
X14643991Y-12895888D01*
X14643991Y-12895888D02*
X14643991Y-12838746D01*
X14643991Y-12838746D02*
X14653515Y-12819698D01*
X14653515Y-12819698D02*
X14663039Y-12810174D01*
X14663039Y-12810174D02*
X14682087Y-12800650D01*
X14682087Y-12800650D02*
X14710658Y-12800650D01*
X14710658Y-12800650D02*
X14729706Y-12810174D01*
X14729706Y-12810174D02*
X14739230Y-12819698D01*
X14739230Y-12819698D02*
X14748753Y-12838746D01*
X14748753Y-12838746D02*
X14748753Y-12895888D01*
X14748753Y-12895888D02*
X14739230Y-12914936D01*
X14739230Y-12914936D02*
X14729706Y-12924460D01*
X14729706Y-12924460D02*
X14710658Y-12933984D01*
X14710658Y-12933984D02*
X14682087Y-12933984D01*
X14863039Y-12933984D02*
X14843991Y-12924460D01*
X14843991Y-12924460D02*
X14834468Y-12905412D01*
X14834468Y-12905412D02*
X14834468Y-12733984D01*
X15015420Y-12924460D02*
X14996372Y-12933984D01*
X14996372Y-12933984D02*
X14958277Y-12933984D01*
X14958277Y-12933984D02*
X14939230Y-12924460D01*
X14939230Y-12924460D02*
X14929706Y-12905412D01*
X14929706Y-12905412D02*
X14929706Y-12829222D01*
X14929706Y-12829222D02*
X14939230Y-12810174D01*
X14939230Y-12810174D02*
X14958277Y-12800650D01*
X14958277Y-12800650D02*
X14996372Y-12800650D01*
X14996372Y-12800650D02*
X15015420Y-12810174D01*
X15015420Y-12810174D02*
X15024944Y-12829222D01*
X15024944Y-12829222D02*
X15024944Y-12848269D01*
X15024944Y-12848269D02*
X14929706Y-12867317D01*
X15101134Y-12924460D02*
X15120182Y-12933984D01*
X15120182Y-12933984D02*
X15158277Y-12933984D01*
X15158277Y-12933984D02*
X15177325Y-12924460D01*
X15177325Y-12924460D02*
X15186849Y-12905412D01*
X15186849Y-12905412D02*
X15186849Y-12895888D01*
X15186849Y-12895888D02*
X15177325Y-12876841D01*
X15177325Y-12876841D02*
X15158277Y-12867317D01*
X15158277Y-12867317D02*
X15129706Y-12867317D01*
X15129706Y-12867317D02*
X15110658Y-12857793D01*
X15110658Y-12857793D02*
X15101134Y-12838746D01*
X15101134Y-12838746D02*
X15101134Y-12829222D01*
X15101134Y-12829222D02*
X15110658Y-12810174D01*
X15110658Y-12810174D02*
X15129706Y-12800650D01*
X15129706Y-12800650D02*
X15158277Y-12800650D01*
X15158277Y-12800650D02*
X15177325Y-12810174D01*
X15253515Y-13010174D02*
X15263039Y-13000650D01*
X15263039Y-13000650D02*
X15282087Y-12972079D01*
X15282087Y-12972079D02*
X15291611Y-12953031D01*
X15291611Y-12953031D02*
X15301134Y-12924460D01*
X15301134Y-12924460D02*
X15310658Y-12876841D01*
X15310658Y-12876841D02*
X15310658Y-12838746D01*
X15310658Y-12838746D02*
X15301134Y-12791127D01*
X15301134Y-12791127D02*
X15291611Y-12762555D01*
X15291611Y-12762555D02*
X15282087Y-12743508D01*
X15282087Y-12743508D02*
X15263039Y-12714936D01*
X15263039Y-12714936D02*
X15253515Y-12705412D01*
D12*
X10097500Y-13106500D02*
G75*
G02*
X10057500Y-13106500I-20000J0D01*
G01*
X10057500Y-13106500D02*
G75*
G02*
X10097500Y-13106500I20000J0D01*
G01*
D11*
X10396372Y-12997984D02*
X10415420Y-12997984D01*
X10415420Y-12997984D02*
X10434467Y-13007508D01*
X10434467Y-13007508D02*
X10443991Y-13017031D01*
X10443991Y-13017031D02*
X10453515Y-13036079D01*
X10453515Y-13036079D02*
X10463039Y-13074174D01*
X10463039Y-13074174D02*
X10463039Y-13121793D01*
X10463039Y-13121793D02*
X10453515Y-13159888D01*
X10453515Y-13159888D02*
X10443991Y-13178936D01*
X10443991Y-13178936D02*
X10434467Y-13188460D01*
X10434467Y-13188460D02*
X10415420Y-13197984D01*
X10415420Y-13197984D02*
X10396372Y-13197984D01*
X10396372Y-13197984D02*
X10377324Y-13188460D01*
X10377324Y-13188460D02*
X10367801Y-13178936D01*
X10367801Y-13178936D02*
X10358277Y-13159888D01*
X10358277Y-13159888D02*
X10348753Y-13121793D01*
X10348753Y-13121793D02*
X10348753Y-13074174D01*
X10348753Y-13074174D02*
X10358277Y-13036079D01*
X10358277Y-13036079D02*
X10367801Y-13017031D01*
X10367801Y-13017031D02*
X10377324Y-13007508D01*
X10377324Y-13007508D02*
X10396372Y-12997984D01*
X10548753Y-13178936D02*
X10558277Y-13188460D01*
X10558277Y-13188460D02*
X10548753Y-13197984D01*
X10548753Y-13197984D02*
X10539229Y-13188460D01*
X10539229Y-13188460D02*
X10548753Y-13178936D01*
X10548753Y-13178936D02*
X10548753Y-13197984D01*
X10729705Y-13064650D02*
X10729705Y-13197984D01*
X10682086Y-12988460D02*
X10634467Y-13131317D01*
X10634467Y-13131317D02*
X10758277Y-13131317D01*
X10872563Y-12997984D02*
X10891610Y-12997984D01*
X10891610Y-12997984D02*
X10910658Y-13007508D01*
X10910658Y-13007508D02*
X10920182Y-13017031D01*
X10920182Y-13017031D02*
X10929705Y-13036079D01*
X10929705Y-13036079D02*
X10939229Y-13074174D01*
X10939229Y-13074174D02*
X10939229Y-13121793D01*
X10939229Y-13121793D02*
X10929705Y-13159888D01*
X10929705Y-13159888D02*
X10920182Y-13178936D01*
X10920182Y-13178936D02*
X10910658Y-13188460D01*
X10910658Y-13188460D02*
X10891610Y-13197984D01*
X10891610Y-13197984D02*
X10872563Y-13197984D01*
X10872563Y-13197984D02*
X10853515Y-13188460D01*
X10853515Y-13188460D02*
X10843991Y-13178936D01*
X10843991Y-13178936D02*
X10834467Y-13159888D01*
X10834467Y-13159888D02*
X10824944Y-13121793D01*
X10824944Y-13121793D02*
X10824944Y-13074174D01*
X10824944Y-13074174D02*
X10834467Y-13036079D01*
X10834467Y-13036079D02*
X10843991Y-13017031D01*
X10843991Y-13017031D02*
X10853515Y-13007508D01*
X10853515Y-13007508D02*
X10872563Y-12997984D01*
X11063039Y-12997984D02*
X11082086Y-12997984D01*
X11082086Y-12997984D02*
X11101134Y-13007508D01*
X11101134Y-13007508D02*
X11110658Y-13017031D01*
X11110658Y-13017031D02*
X11120182Y-13036079D01*
X11120182Y-13036079D02*
X11129705Y-13074174D01*
X11129705Y-13074174D02*
X11129705Y-13121793D01*
X11129705Y-13121793D02*
X11120182Y-13159888D01*
X11120182Y-13159888D02*
X11110658Y-13178936D01*
X11110658Y-13178936D02*
X11101134Y-13188460D01*
X11101134Y-13188460D02*
X11082086Y-13197984D01*
X11082086Y-13197984D02*
X11063039Y-13197984D01*
X11063039Y-13197984D02*
X11043991Y-13188460D01*
X11043991Y-13188460D02*
X11034467Y-13178936D01*
X11034467Y-13178936D02*
X11024944Y-13159888D01*
X11024944Y-13159888D02*
X11015420Y-13121793D01*
X11015420Y-13121793D02*
X11015420Y-13074174D01*
X11015420Y-13074174D02*
X11024944Y-13036079D01*
X11024944Y-13036079D02*
X11034467Y-13017031D01*
X11034467Y-13017031D02*
X11043991Y-13007508D01*
X11043991Y-13007508D02*
X11063039Y-12997984D01*
X11215420Y-13197984D02*
X11215420Y-13064650D01*
X11215420Y-13083698D02*
X11224943Y-13074174D01*
X11224943Y-13074174D02*
X11243991Y-13064650D01*
X11243991Y-13064650D02*
X11272563Y-13064650D01*
X11272563Y-13064650D02*
X11291610Y-13074174D01*
X11291610Y-13074174D02*
X11301134Y-13093222D01*
X11301134Y-13093222D02*
X11301134Y-13197984D01*
X11301134Y-13093222D02*
X11310658Y-13074174D01*
X11310658Y-13074174D02*
X11329705Y-13064650D01*
X11329705Y-13064650D02*
X11358277Y-13064650D01*
X11358277Y-13064650D02*
X11377324Y-13074174D01*
X11377324Y-13074174D02*
X11386848Y-13093222D01*
X11386848Y-13093222D02*
X11386848Y-13197984D01*
X11482086Y-13197984D02*
X11482086Y-13064650D01*
X11482086Y-13083698D02*
X11491610Y-13074174D01*
X11491610Y-13074174D02*
X11510658Y-13064650D01*
X11510658Y-13064650D02*
X11539229Y-13064650D01*
X11539229Y-13064650D02*
X11558277Y-13074174D01*
X11558277Y-13074174D02*
X11567801Y-13093222D01*
X11567801Y-13093222D02*
X11567801Y-13197984D01*
X11567801Y-13093222D02*
X11577324Y-13074174D01*
X11577324Y-13074174D02*
X11596372Y-13064650D01*
X11596372Y-13064650D02*
X11624943Y-13064650D01*
X11624943Y-13064650D02*
X11643991Y-13074174D01*
X11643991Y-13074174D02*
X11653515Y-13093222D01*
X11653515Y-13093222D02*
X11653515Y-13197984D01*
X12043991Y-12988460D02*
X11872563Y-13245603D01*
X12301134Y-12997984D02*
X12320182Y-12997984D01*
X12320182Y-12997984D02*
X12339229Y-13007508D01*
X12339229Y-13007508D02*
X12348753Y-13017031D01*
X12348753Y-13017031D02*
X12358277Y-13036079D01*
X12358277Y-13036079D02*
X12367801Y-13074174D01*
X12367801Y-13074174D02*
X12367801Y-13121793D01*
X12367801Y-13121793D02*
X12358277Y-13159888D01*
X12358277Y-13159888D02*
X12348753Y-13178936D01*
X12348753Y-13178936D02*
X12339229Y-13188460D01*
X12339229Y-13188460D02*
X12320182Y-13197984D01*
X12320182Y-13197984D02*
X12301134Y-13197984D01*
X12301134Y-13197984D02*
X12282086Y-13188460D01*
X12282086Y-13188460D02*
X12272563Y-13178936D01*
X12272563Y-13178936D02*
X12263039Y-13159888D01*
X12263039Y-13159888D02*
X12253515Y-13121793D01*
X12253515Y-13121793D02*
X12253515Y-13074174D01*
X12253515Y-13074174D02*
X12263039Y-13036079D01*
X12263039Y-13036079D02*
X12272563Y-13017031D01*
X12272563Y-13017031D02*
X12282086Y-13007508D01*
X12282086Y-13007508D02*
X12301134Y-12997984D01*
X12453515Y-13178936D02*
X12463039Y-13188460D01*
X12463039Y-13188460D02*
X12453515Y-13197984D01*
X12453515Y-13197984D02*
X12443991Y-13188460D01*
X12443991Y-13188460D02*
X12453515Y-13178936D01*
X12453515Y-13178936D02*
X12453515Y-13197984D01*
X12586848Y-12997984D02*
X12605896Y-12997984D01*
X12605896Y-12997984D02*
X12624944Y-13007508D01*
X12624944Y-13007508D02*
X12634467Y-13017031D01*
X12634467Y-13017031D02*
X12643991Y-13036079D01*
X12643991Y-13036079D02*
X12653515Y-13074174D01*
X12653515Y-13074174D02*
X12653515Y-13121793D01*
X12653515Y-13121793D02*
X12643991Y-13159888D01*
X12643991Y-13159888D02*
X12634467Y-13178936D01*
X12634467Y-13178936D02*
X12624944Y-13188460D01*
X12624944Y-13188460D02*
X12605896Y-13197984D01*
X12605896Y-13197984D02*
X12586848Y-13197984D01*
X12586848Y-13197984D02*
X12567801Y-13188460D01*
X12567801Y-13188460D02*
X12558277Y-13178936D01*
X12558277Y-13178936D02*
X12548753Y-13159888D01*
X12548753Y-13159888D02*
X12539229Y-13121793D01*
X12539229Y-13121793D02*
X12539229Y-13074174D01*
X12539229Y-13074174D02*
X12548753Y-13036079D01*
X12548753Y-13036079D02*
X12558277Y-13017031D01*
X12558277Y-13017031D02*
X12567801Y-13007508D01*
X12567801Y-13007508D02*
X12586848Y-12997984D01*
X12843991Y-13197984D02*
X12729706Y-13197984D01*
X12786848Y-13197984D02*
X12786848Y-12997984D01*
X12786848Y-12997984D02*
X12767801Y-13026555D01*
X12767801Y-13026555D02*
X12748753Y-13045603D01*
X12748753Y-13045603D02*
X12729706Y-13055127D01*
X13024944Y-12997984D02*
X12929706Y-12997984D01*
X12929706Y-12997984D02*
X12920182Y-13093222D01*
X12920182Y-13093222D02*
X12929706Y-13083698D01*
X12929706Y-13083698D02*
X12948753Y-13074174D01*
X12948753Y-13074174D02*
X12996372Y-13074174D01*
X12996372Y-13074174D02*
X13015420Y-13083698D01*
X13015420Y-13083698D02*
X13024944Y-13093222D01*
X13024944Y-13093222D02*
X13034467Y-13112269D01*
X13034467Y-13112269D02*
X13034467Y-13159888D01*
X13034467Y-13159888D02*
X13024944Y-13178936D01*
X13024944Y-13178936D02*
X13015420Y-13188460D01*
X13015420Y-13188460D02*
X12996372Y-13197984D01*
X12996372Y-13197984D02*
X12948753Y-13197984D01*
X12948753Y-13197984D02*
X12929706Y-13188460D01*
X12929706Y-13188460D02*
X12920182Y-13178936D01*
X13101134Y-12997984D02*
X13234467Y-12997984D01*
X13234467Y-12997984D02*
X13148753Y-13197984D01*
X13301134Y-12997984D02*
X13301134Y-13036079D01*
X13377325Y-12997984D02*
X13377325Y-13036079D01*
X13672563Y-13274174D02*
X13663039Y-13264650D01*
X13663039Y-13264650D02*
X13643991Y-13236079D01*
X13643991Y-13236079D02*
X13634468Y-13217031D01*
X13634468Y-13217031D02*
X13624944Y-13188460D01*
X13624944Y-13188460D02*
X13615420Y-13140841D01*
X13615420Y-13140841D02*
X13615420Y-13102746D01*
X13615420Y-13102746D02*
X13624944Y-13055127D01*
X13624944Y-13055127D02*
X13634468Y-13026555D01*
X13634468Y-13026555D02*
X13643991Y-13007508D01*
X13643991Y-13007508D02*
X13663039Y-12978936D01*
X13663039Y-12978936D02*
X13672563Y-12969412D01*
X13853515Y-13197984D02*
X13739229Y-13197984D01*
X13796372Y-13197984D02*
X13796372Y-12997984D01*
X13796372Y-12997984D02*
X13777325Y-13026555D01*
X13777325Y-13026555D02*
X13758277Y-13045603D01*
X13758277Y-13045603D02*
X13739229Y-13055127D01*
X14043991Y-13197984D02*
X13929706Y-13197984D01*
X13986848Y-13197984D02*
X13986848Y-12997984D01*
X13986848Y-12997984D02*
X13967801Y-13026555D01*
X13967801Y-13026555D02*
X13948753Y-13045603D01*
X13948753Y-13045603D02*
X13929706Y-13055127D01*
X14282087Y-13197984D02*
X14282087Y-12997984D01*
X14367801Y-13197984D02*
X14367801Y-13093222D01*
X14367801Y-13093222D02*
X14358277Y-13074174D01*
X14358277Y-13074174D02*
X14339230Y-13064650D01*
X14339230Y-13064650D02*
X14310658Y-13064650D01*
X14310658Y-13064650D02*
X14291610Y-13074174D01*
X14291610Y-13074174D02*
X14282087Y-13083698D01*
X14491610Y-13197984D02*
X14472563Y-13188460D01*
X14472563Y-13188460D02*
X14463039Y-13178936D01*
X14463039Y-13178936D02*
X14453515Y-13159888D01*
X14453515Y-13159888D02*
X14453515Y-13102746D01*
X14453515Y-13102746D02*
X14463039Y-13083698D01*
X14463039Y-13083698D02*
X14472563Y-13074174D01*
X14472563Y-13074174D02*
X14491610Y-13064650D01*
X14491610Y-13064650D02*
X14520182Y-13064650D01*
X14520182Y-13064650D02*
X14539230Y-13074174D01*
X14539230Y-13074174D02*
X14548753Y-13083698D01*
X14548753Y-13083698D02*
X14558277Y-13102746D01*
X14558277Y-13102746D02*
X14558277Y-13159888D01*
X14558277Y-13159888D02*
X14548753Y-13178936D01*
X14548753Y-13178936D02*
X14539230Y-13188460D01*
X14539230Y-13188460D02*
X14520182Y-13197984D01*
X14520182Y-13197984D02*
X14491610Y-13197984D01*
X14672563Y-13197984D02*
X14653515Y-13188460D01*
X14653515Y-13188460D02*
X14643991Y-13169412D01*
X14643991Y-13169412D02*
X14643991Y-12997984D01*
X14824944Y-13188460D02*
X14805896Y-13197984D01*
X14805896Y-13197984D02*
X14767801Y-13197984D01*
X14767801Y-13197984D02*
X14748753Y-13188460D01*
X14748753Y-13188460D02*
X14739230Y-13169412D01*
X14739230Y-13169412D02*
X14739230Y-13093222D01*
X14739230Y-13093222D02*
X14748753Y-13074174D01*
X14748753Y-13074174D02*
X14767801Y-13064650D01*
X14767801Y-13064650D02*
X14805896Y-13064650D01*
X14805896Y-13064650D02*
X14824944Y-13074174D01*
X14824944Y-13074174D02*
X14834468Y-13093222D01*
X14834468Y-13093222D02*
X14834468Y-13112269D01*
X14834468Y-13112269D02*
X14739230Y-13131317D01*
X14910658Y-13188460D02*
X14929706Y-13197984D01*
X14929706Y-13197984D02*
X14967801Y-13197984D01*
X14967801Y-13197984D02*
X14986849Y-13188460D01*
X14986849Y-13188460D02*
X14996372Y-13169412D01*
X14996372Y-13169412D02*
X14996372Y-13159888D01*
X14996372Y-13159888D02*
X14986849Y-13140841D01*
X14986849Y-13140841D02*
X14967801Y-13131317D01*
X14967801Y-13131317D02*
X14939230Y-13131317D01*
X14939230Y-13131317D02*
X14920182Y-13121793D01*
X14920182Y-13121793D02*
X14910658Y-13102746D01*
X14910658Y-13102746D02*
X14910658Y-13093222D01*
X14910658Y-13093222D02*
X14920182Y-13074174D01*
X14920182Y-13074174D02*
X14939230Y-13064650D01*
X14939230Y-13064650D02*
X14967801Y-13064650D01*
X14967801Y-13064650D02*
X14986849Y-13074174D01*
X15063039Y-13274174D02*
X15072563Y-13264650D01*
X15072563Y-13264650D02*
X15091611Y-13236079D01*
X15091611Y-13236079D02*
X15101134Y-13217031D01*
X15101134Y-13217031D02*
X15110658Y-13188460D01*
X15110658Y-13188460D02*
X15120182Y-13140841D01*
X15120182Y-13140841D02*
X15120182Y-13102746D01*
X15120182Y-13102746D02*
X15110658Y-13055127D01*
X15110658Y-13055127D02*
X15101134Y-13026555D01*
X15101134Y-13026555D02*
X15091611Y-13007508D01*
X15091611Y-13007508D02*
X15072563Y-12978936D01*
X15072563Y-12978936D02*
X15063039Y-12969412D01*
D12*
X10067500Y-13340500D02*
X10067500Y-13400500D01*
X10037500Y-13370500D02*
X10097500Y-13370500D01*
D11*
X10396372Y-13261984D02*
X10415420Y-13261984D01*
X10415420Y-13261984D02*
X10434467Y-13271508D01*
X10434467Y-13271508D02*
X10443991Y-13281031D01*
X10443991Y-13281031D02*
X10453515Y-13300079D01*
X10453515Y-13300079D02*
X10463039Y-13338174D01*
X10463039Y-13338174D02*
X10463039Y-13385793D01*
X10463039Y-13385793D02*
X10453515Y-13423888D01*
X10453515Y-13423888D02*
X10443991Y-13442936D01*
X10443991Y-13442936D02*
X10434467Y-13452460D01*
X10434467Y-13452460D02*
X10415420Y-13461984D01*
X10415420Y-13461984D02*
X10396372Y-13461984D01*
X10396372Y-13461984D02*
X10377324Y-13452460D01*
X10377324Y-13452460D02*
X10367801Y-13442936D01*
X10367801Y-13442936D02*
X10358277Y-13423888D01*
X10358277Y-13423888D02*
X10348753Y-13385793D01*
X10348753Y-13385793D02*
X10348753Y-13338174D01*
X10348753Y-13338174D02*
X10358277Y-13300079D01*
X10358277Y-13300079D02*
X10367801Y-13281031D01*
X10367801Y-13281031D02*
X10377324Y-13271508D01*
X10377324Y-13271508D02*
X10396372Y-13261984D01*
X10548753Y-13442936D02*
X10558277Y-13452460D01*
X10558277Y-13452460D02*
X10548753Y-13461984D01*
X10548753Y-13461984D02*
X10539229Y-13452460D01*
X10539229Y-13452460D02*
X10548753Y-13442936D01*
X10548753Y-13442936D02*
X10548753Y-13461984D01*
X10729705Y-13261984D02*
X10691610Y-13261984D01*
X10691610Y-13261984D02*
X10672563Y-13271508D01*
X10672563Y-13271508D02*
X10663039Y-13281031D01*
X10663039Y-13281031D02*
X10643991Y-13309603D01*
X10643991Y-13309603D02*
X10634467Y-13347698D01*
X10634467Y-13347698D02*
X10634467Y-13423888D01*
X10634467Y-13423888D02*
X10643991Y-13442936D01*
X10643991Y-13442936D02*
X10653515Y-13452460D01*
X10653515Y-13452460D02*
X10672563Y-13461984D01*
X10672563Y-13461984D02*
X10710658Y-13461984D01*
X10710658Y-13461984D02*
X10729705Y-13452460D01*
X10729705Y-13452460D02*
X10739229Y-13442936D01*
X10739229Y-13442936D02*
X10748753Y-13423888D01*
X10748753Y-13423888D02*
X10748753Y-13376269D01*
X10748753Y-13376269D02*
X10739229Y-13357222D01*
X10739229Y-13357222D02*
X10729705Y-13347698D01*
X10729705Y-13347698D02*
X10710658Y-13338174D01*
X10710658Y-13338174D02*
X10672563Y-13338174D01*
X10672563Y-13338174D02*
X10653515Y-13347698D01*
X10653515Y-13347698D02*
X10643991Y-13357222D01*
X10643991Y-13357222D02*
X10634467Y-13376269D01*
X10872563Y-13261984D02*
X10891610Y-13261984D01*
X10891610Y-13261984D02*
X10910658Y-13271508D01*
X10910658Y-13271508D02*
X10920182Y-13281031D01*
X10920182Y-13281031D02*
X10929705Y-13300079D01*
X10929705Y-13300079D02*
X10939229Y-13338174D01*
X10939229Y-13338174D02*
X10939229Y-13385793D01*
X10939229Y-13385793D02*
X10929705Y-13423888D01*
X10929705Y-13423888D02*
X10920182Y-13442936D01*
X10920182Y-13442936D02*
X10910658Y-13452460D01*
X10910658Y-13452460D02*
X10891610Y-13461984D01*
X10891610Y-13461984D02*
X10872563Y-13461984D01*
X10872563Y-13461984D02*
X10853515Y-13452460D01*
X10853515Y-13452460D02*
X10843991Y-13442936D01*
X10843991Y-13442936D02*
X10834467Y-13423888D01*
X10834467Y-13423888D02*
X10824944Y-13385793D01*
X10824944Y-13385793D02*
X10824944Y-13338174D01*
X10824944Y-13338174D02*
X10834467Y-13300079D01*
X10834467Y-13300079D02*
X10843991Y-13281031D01*
X10843991Y-13281031D02*
X10853515Y-13271508D01*
X10853515Y-13271508D02*
X10872563Y-13261984D01*
X11063039Y-13261984D02*
X11082086Y-13261984D01*
X11082086Y-13261984D02*
X11101134Y-13271508D01*
X11101134Y-13271508D02*
X11110658Y-13281031D01*
X11110658Y-13281031D02*
X11120182Y-13300079D01*
X11120182Y-13300079D02*
X11129705Y-13338174D01*
X11129705Y-13338174D02*
X11129705Y-13385793D01*
X11129705Y-13385793D02*
X11120182Y-13423888D01*
X11120182Y-13423888D02*
X11110658Y-13442936D01*
X11110658Y-13442936D02*
X11101134Y-13452460D01*
X11101134Y-13452460D02*
X11082086Y-13461984D01*
X11082086Y-13461984D02*
X11063039Y-13461984D01*
X11063039Y-13461984D02*
X11043991Y-13452460D01*
X11043991Y-13452460D02*
X11034467Y-13442936D01*
X11034467Y-13442936D02*
X11024944Y-13423888D01*
X11024944Y-13423888D02*
X11015420Y-13385793D01*
X11015420Y-13385793D02*
X11015420Y-13338174D01*
X11015420Y-13338174D02*
X11024944Y-13300079D01*
X11024944Y-13300079D02*
X11034467Y-13281031D01*
X11034467Y-13281031D02*
X11043991Y-13271508D01*
X11043991Y-13271508D02*
X11063039Y-13261984D01*
X11215420Y-13461984D02*
X11215420Y-13328650D01*
X11215420Y-13347698D02*
X11224943Y-13338174D01*
X11224943Y-13338174D02*
X11243991Y-13328650D01*
X11243991Y-13328650D02*
X11272563Y-13328650D01*
X11272563Y-13328650D02*
X11291610Y-13338174D01*
X11291610Y-13338174D02*
X11301134Y-13357222D01*
X11301134Y-13357222D02*
X11301134Y-13461984D01*
X11301134Y-13357222D02*
X11310658Y-13338174D01*
X11310658Y-13338174D02*
X11329705Y-13328650D01*
X11329705Y-13328650D02*
X11358277Y-13328650D01*
X11358277Y-13328650D02*
X11377324Y-13338174D01*
X11377324Y-13338174D02*
X11386848Y-13357222D01*
X11386848Y-13357222D02*
X11386848Y-13461984D01*
X11482086Y-13461984D02*
X11482086Y-13328650D01*
X11482086Y-13347698D02*
X11491610Y-13338174D01*
X11491610Y-13338174D02*
X11510658Y-13328650D01*
X11510658Y-13328650D02*
X11539229Y-13328650D01*
X11539229Y-13328650D02*
X11558277Y-13338174D01*
X11558277Y-13338174D02*
X11567801Y-13357222D01*
X11567801Y-13357222D02*
X11567801Y-13461984D01*
X11567801Y-13357222D02*
X11577324Y-13338174D01*
X11577324Y-13338174D02*
X11596372Y-13328650D01*
X11596372Y-13328650D02*
X11624943Y-13328650D01*
X11624943Y-13328650D02*
X11643991Y-13338174D01*
X11643991Y-13338174D02*
X11653515Y-13357222D01*
X11653515Y-13357222D02*
X11653515Y-13461984D01*
X12043991Y-13252460D02*
X11872563Y-13509603D01*
X12301134Y-13261984D02*
X12320182Y-13261984D01*
X12320182Y-13261984D02*
X12339229Y-13271508D01*
X12339229Y-13271508D02*
X12348753Y-13281031D01*
X12348753Y-13281031D02*
X12358277Y-13300079D01*
X12358277Y-13300079D02*
X12367801Y-13338174D01*
X12367801Y-13338174D02*
X12367801Y-13385793D01*
X12367801Y-13385793D02*
X12358277Y-13423888D01*
X12358277Y-13423888D02*
X12348753Y-13442936D01*
X12348753Y-13442936D02*
X12339229Y-13452460D01*
X12339229Y-13452460D02*
X12320182Y-13461984D01*
X12320182Y-13461984D02*
X12301134Y-13461984D01*
X12301134Y-13461984D02*
X12282086Y-13452460D01*
X12282086Y-13452460D02*
X12272563Y-13442936D01*
X12272563Y-13442936D02*
X12263039Y-13423888D01*
X12263039Y-13423888D02*
X12253515Y-13385793D01*
X12253515Y-13385793D02*
X12253515Y-13338174D01*
X12253515Y-13338174D02*
X12263039Y-13300079D01*
X12263039Y-13300079D02*
X12272563Y-13281031D01*
X12272563Y-13281031D02*
X12282086Y-13271508D01*
X12282086Y-13271508D02*
X12301134Y-13261984D01*
X12453515Y-13442936D02*
X12463039Y-13452460D01*
X12463039Y-13452460D02*
X12453515Y-13461984D01*
X12453515Y-13461984D02*
X12443991Y-13452460D01*
X12443991Y-13452460D02*
X12453515Y-13442936D01*
X12453515Y-13442936D02*
X12453515Y-13461984D01*
X12586848Y-13261984D02*
X12605896Y-13261984D01*
X12605896Y-13261984D02*
X12624944Y-13271508D01*
X12624944Y-13271508D02*
X12634467Y-13281031D01*
X12634467Y-13281031D02*
X12643991Y-13300079D01*
X12643991Y-13300079D02*
X12653515Y-13338174D01*
X12653515Y-13338174D02*
X12653515Y-13385793D01*
X12653515Y-13385793D02*
X12643991Y-13423888D01*
X12643991Y-13423888D02*
X12634467Y-13442936D01*
X12634467Y-13442936D02*
X12624944Y-13452460D01*
X12624944Y-13452460D02*
X12605896Y-13461984D01*
X12605896Y-13461984D02*
X12586848Y-13461984D01*
X12586848Y-13461984D02*
X12567801Y-13452460D01*
X12567801Y-13452460D02*
X12558277Y-13442936D01*
X12558277Y-13442936D02*
X12548753Y-13423888D01*
X12548753Y-13423888D02*
X12539229Y-13385793D01*
X12539229Y-13385793D02*
X12539229Y-13338174D01*
X12539229Y-13338174D02*
X12548753Y-13300079D01*
X12548753Y-13300079D02*
X12558277Y-13281031D01*
X12558277Y-13281031D02*
X12567801Y-13271508D01*
X12567801Y-13271508D02*
X12586848Y-13261984D01*
X12729706Y-13281031D02*
X12739229Y-13271508D01*
X12739229Y-13271508D02*
X12758277Y-13261984D01*
X12758277Y-13261984D02*
X12805896Y-13261984D01*
X12805896Y-13261984D02*
X12824944Y-13271508D01*
X12824944Y-13271508D02*
X12834467Y-13281031D01*
X12834467Y-13281031D02*
X12843991Y-13300079D01*
X12843991Y-13300079D02*
X12843991Y-13319127D01*
X12843991Y-13319127D02*
X12834467Y-13347698D01*
X12834467Y-13347698D02*
X12720182Y-13461984D01*
X12720182Y-13461984D02*
X12843991Y-13461984D01*
X12910658Y-13261984D02*
X13034467Y-13261984D01*
X13034467Y-13261984D02*
X12967801Y-13338174D01*
X12967801Y-13338174D02*
X12996372Y-13338174D01*
X12996372Y-13338174D02*
X13015420Y-13347698D01*
X13015420Y-13347698D02*
X13024944Y-13357222D01*
X13024944Y-13357222D02*
X13034467Y-13376269D01*
X13034467Y-13376269D02*
X13034467Y-13423888D01*
X13034467Y-13423888D02*
X13024944Y-13442936D01*
X13024944Y-13442936D02*
X13015420Y-13452460D01*
X13015420Y-13452460D02*
X12996372Y-13461984D01*
X12996372Y-13461984D02*
X12939229Y-13461984D01*
X12939229Y-13461984D02*
X12920182Y-13452460D01*
X12920182Y-13452460D02*
X12910658Y-13442936D01*
X13205896Y-13261984D02*
X13167801Y-13261984D01*
X13167801Y-13261984D02*
X13148753Y-13271508D01*
X13148753Y-13271508D02*
X13139229Y-13281031D01*
X13139229Y-13281031D02*
X13120182Y-13309603D01*
X13120182Y-13309603D02*
X13110658Y-13347698D01*
X13110658Y-13347698D02*
X13110658Y-13423888D01*
X13110658Y-13423888D02*
X13120182Y-13442936D01*
X13120182Y-13442936D02*
X13129706Y-13452460D01*
X13129706Y-13452460D02*
X13148753Y-13461984D01*
X13148753Y-13461984D02*
X13186848Y-13461984D01*
X13186848Y-13461984D02*
X13205896Y-13452460D01*
X13205896Y-13452460D02*
X13215420Y-13442936D01*
X13215420Y-13442936D02*
X13224944Y-13423888D01*
X13224944Y-13423888D02*
X13224944Y-13376269D01*
X13224944Y-13376269D02*
X13215420Y-13357222D01*
X13215420Y-13357222D02*
X13205896Y-13347698D01*
X13205896Y-13347698D02*
X13186848Y-13338174D01*
X13186848Y-13338174D02*
X13148753Y-13338174D01*
X13148753Y-13338174D02*
X13129706Y-13347698D01*
X13129706Y-13347698D02*
X13120182Y-13357222D01*
X13120182Y-13357222D02*
X13110658Y-13376269D01*
X13301134Y-13261984D02*
X13301134Y-13300079D01*
X13377325Y-13261984D02*
X13377325Y-13300079D01*
X13672563Y-13538174D02*
X13663039Y-13528650D01*
X13663039Y-13528650D02*
X13643991Y-13500079D01*
X13643991Y-13500079D02*
X13634468Y-13481031D01*
X13634468Y-13481031D02*
X13624944Y-13452460D01*
X13624944Y-13452460D02*
X13615420Y-13404841D01*
X13615420Y-13404841D02*
X13615420Y-13366746D01*
X13615420Y-13366746D02*
X13624944Y-13319127D01*
X13624944Y-13319127D02*
X13634468Y-13290555D01*
X13634468Y-13290555D02*
X13643991Y-13271508D01*
X13643991Y-13271508D02*
X13663039Y-13242936D01*
X13663039Y-13242936D02*
X13672563Y-13233412D01*
X13786848Y-13261984D02*
X13805896Y-13261984D01*
X13805896Y-13261984D02*
X13824944Y-13271508D01*
X13824944Y-13271508D02*
X13834468Y-13281031D01*
X13834468Y-13281031D02*
X13843991Y-13300079D01*
X13843991Y-13300079D02*
X13853515Y-13338174D01*
X13853515Y-13338174D02*
X13853515Y-13385793D01*
X13853515Y-13385793D02*
X13843991Y-13423888D01*
X13843991Y-13423888D02*
X13834468Y-13442936D01*
X13834468Y-13442936D02*
X13824944Y-13452460D01*
X13824944Y-13452460D02*
X13805896Y-13461984D01*
X13805896Y-13461984D02*
X13786848Y-13461984D01*
X13786848Y-13461984D02*
X13767801Y-13452460D01*
X13767801Y-13452460D02*
X13758277Y-13442936D01*
X13758277Y-13442936D02*
X13748753Y-13423888D01*
X13748753Y-13423888D02*
X13739229Y-13385793D01*
X13739229Y-13385793D02*
X13739229Y-13338174D01*
X13739229Y-13338174D02*
X13748753Y-13300079D01*
X13748753Y-13300079D02*
X13758277Y-13281031D01*
X13758277Y-13281031D02*
X13767801Y-13271508D01*
X13767801Y-13271508D02*
X13786848Y-13261984D01*
X14091610Y-13461984D02*
X14091610Y-13261984D01*
X14177325Y-13461984D02*
X14177325Y-13357222D01*
X14177325Y-13357222D02*
X14167801Y-13338174D01*
X14167801Y-13338174D02*
X14148753Y-13328650D01*
X14148753Y-13328650D02*
X14120182Y-13328650D01*
X14120182Y-13328650D02*
X14101134Y-13338174D01*
X14101134Y-13338174D02*
X14091610Y-13347698D01*
X14301134Y-13461984D02*
X14282087Y-13452460D01*
X14282087Y-13452460D02*
X14272563Y-13442936D01*
X14272563Y-13442936D02*
X14263039Y-13423888D01*
X14263039Y-13423888D02*
X14263039Y-13366746D01*
X14263039Y-13366746D02*
X14272563Y-13347698D01*
X14272563Y-13347698D02*
X14282087Y-13338174D01*
X14282087Y-13338174D02*
X14301134Y-13328650D01*
X14301134Y-13328650D02*
X14329706Y-13328650D01*
X14329706Y-13328650D02*
X14348753Y-13338174D01*
X14348753Y-13338174D02*
X14358277Y-13347698D01*
X14358277Y-13347698D02*
X14367801Y-13366746D01*
X14367801Y-13366746D02*
X14367801Y-13423888D01*
X14367801Y-13423888D02*
X14358277Y-13442936D01*
X14358277Y-13442936D02*
X14348753Y-13452460D01*
X14348753Y-13452460D02*
X14329706Y-13461984D01*
X14329706Y-13461984D02*
X14301134Y-13461984D01*
X14482087Y-13461984D02*
X14463039Y-13452460D01*
X14463039Y-13452460D02*
X14453515Y-13433412D01*
X14453515Y-13433412D02*
X14453515Y-13261984D01*
X14634468Y-13452460D02*
X14615420Y-13461984D01*
X14615420Y-13461984D02*
X14577325Y-13461984D01*
X14577325Y-13461984D02*
X14558277Y-13452460D01*
X14558277Y-13452460D02*
X14548753Y-13433412D01*
X14548753Y-13433412D02*
X14548753Y-13357222D01*
X14548753Y-13357222D02*
X14558277Y-13338174D01*
X14558277Y-13338174D02*
X14577325Y-13328650D01*
X14577325Y-13328650D02*
X14615420Y-13328650D01*
X14615420Y-13328650D02*
X14634468Y-13338174D01*
X14634468Y-13338174D02*
X14643991Y-13357222D01*
X14643991Y-13357222D02*
X14643991Y-13376269D01*
X14643991Y-13376269D02*
X14548753Y-13395317D01*
X14720182Y-13452460D02*
X14739230Y-13461984D01*
X14739230Y-13461984D02*
X14777325Y-13461984D01*
X14777325Y-13461984D02*
X14796372Y-13452460D01*
X14796372Y-13452460D02*
X14805896Y-13433412D01*
X14805896Y-13433412D02*
X14805896Y-13423888D01*
X14805896Y-13423888D02*
X14796372Y-13404841D01*
X14796372Y-13404841D02*
X14777325Y-13395317D01*
X14777325Y-13395317D02*
X14748753Y-13395317D01*
X14748753Y-13395317D02*
X14729706Y-13385793D01*
X14729706Y-13385793D02*
X14720182Y-13366746D01*
X14720182Y-13366746D02*
X14720182Y-13357222D01*
X14720182Y-13357222D02*
X14729706Y-13338174D01*
X14729706Y-13338174D02*
X14748753Y-13328650D01*
X14748753Y-13328650D02*
X14777325Y-13328650D01*
X14777325Y-13328650D02*
X14796372Y-13338174D01*
X15043992Y-13385793D02*
X15196373Y-13385793D01*
X15120182Y-13461984D02*
X15120182Y-13309603D01*
X15529706Y-13328650D02*
X15529706Y-13461984D01*
X15482087Y-13252460D02*
X15434468Y-13395317D01*
X15434468Y-13395317D02*
X15558277Y-13395317D01*
X15777325Y-13452460D02*
X15796373Y-13461984D01*
X15796373Y-13461984D02*
X15834468Y-13461984D01*
X15834468Y-13461984D02*
X15853515Y-13452460D01*
X15853515Y-13452460D02*
X15863039Y-13433412D01*
X15863039Y-13433412D02*
X15863039Y-13423888D01*
X15863039Y-13423888D02*
X15853515Y-13404841D01*
X15853515Y-13404841D02*
X15834468Y-13395317D01*
X15834468Y-13395317D02*
X15805896Y-13395317D01*
X15805896Y-13395317D02*
X15786849Y-13385793D01*
X15786849Y-13385793D02*
X15777325Y-13366746D01*
X15777325Y-13366746D02*
X15777325Y-13357222D01*
X15777325Y-13357222D02*
X15786849Y-13338174D01*
X15786849Y-13338174D02*
X15805896Y-13328650D01*
X15805896Y-13328650D02*
X15834468Y-13328650D01*
X15834468Y-13328650D02*
X15853515Y-13338174D01*
X15977325Y-13461984D02*
X15958277Y-13452460D01*
X15958277Y-13452460D02*
X15948754Y-13433412D01*
X15948754Y-13433412D02*
X15948754Y-13261984D01*
X16082087Y-13461984D02*
X16063039Y-13452460D01*
X16063039Y-13452460D02*
X16053515Y-13442936D01*
X16053515Y-13442936D02*
X16043992Y-13423888D01*
X16043992Y-13423888D02*
X16043992Y-13366746D01*
X16043992Y-13366746D02*
X16053515Y-13347698D01*
X16053515Y-13347698D02*
X16063039Y-13338174D01*
X16063039Y-13338174D02*
X16082087Y-13328650D01*
X16082087Y-13328650D02*
X16110658Y-13328650D01*
X16110658Y-13328650D02*
X16129706Y-13338174D01*
X16129706Y-13338174D02*
X16139230Y-13347698D01*
X16139230Y-13347698D02*
X16148754Y-13366746D01*
X16148754Y-13366746D02*
X16148754Y-13423888D01*
X16148754Y-13423888D02*
X16139230Y-13442936D01*
X16139230Y-13442936D02*
X16129706Y-13452460D01*
X16129706Y-13452460D02*
X16110658Y-13461984D01*
X16110658Y-13461984D02*
X16082087Y-13461984D01*
X16205896Y-13328650D02*
X16282087Y-13328650D01*
X16234468Y-13261984D02*
X16234468Y-13433412D01*
X16234468Y-13433412D02*
X16243992Y-13452460D01*
X16243992Y-13452460D02*
X16263039Y-13461984D01*
X16263039Y-13461984D02*
X16282087Y-13461984D01*
X16339230Y-13452460D02*
X16358277Y-13461984D01*
X16358277Y-13461984D02*
X16396373Y-13461984D01*
X16396373Y-13461984D02*
X16415420Y-13452460D01*
X16415420Y-13452460D02*
X16424944Y-13433412D01*
X16424944Y-13433412D02*
X16424944Y-13423888D01*
X16424944Y-13423888D02*
X16415420Y-13404841D01*
X16415420Y-13404841D02*
X16396373Y-13395317D01*
X16396373Y-13395317D02*
X16367801Y-13395317D01*
X16367801Y-13395317D02*
X16348754Y-13385793D01*
X16348754Y-13385793D02*
X16339230Y-13366746D01*
X16339230Y-13366746D02*
X16339230Y-13357222D01*
X16339230Y-13357222D02*
X16348754Y-13338174D01*
X16348754Y-13338174D02*
X16367801Y-13328650D01*
X16367801Y-13328650D02*
X16396373Y-13328650D01*
X16396373Y-13328650D02*
X16415420Y-13338174D01*
X16491611Y-13538174D02*
X16501135Y-13528650D01*
X16501135Y-13528650D02*
X16520182Y-13500079D01*
X16520182Y-13500079D02*
X16529706Y-13481031D01*
X16529706Y-13481031D02*
X16539230Y-13452460D01*
X16539230Y-13452460D02*
X16548754Y-13404841D01*
X16548754Y-13404841D02*
X16548754Y-13366746D01*
X16548754Y-13366746D02*
X16539230Y-13319127D01*
X16539230Y-13319127D02*
X16529706Y-13290555D01*
X16529706Y-13290555D02*
X16520182Y-13271508D01*
X16520182Y-13271508D02*
X16501135Y-13242936D01*
X16501135Y-13242936D02*
X16491611Y-13233412D01*
D12*
X10082856Y-13669856D02*
X10082856Y-13599144D01*
X10012144Y-13599144D01*
X10012144Y-13669856D01*
X10082856Y-13669856D01*
D11*
X10463039Y-13725984D02*
X10348753Y-13725984D01*
X10405896Y-13725984D02*
X10405896Y-13525984D01*
X10405896Y-13525984D02*
X10386848Y-13554555D01*
X10386848Y-13554555D02*
X10367801Y-13573603D01*
X10367801Y-13573603D02*
X10348753Y-13583127D01*
X10548753Y-13706936D02*
X10558277Y-13716460D01*
X10558277Y-13716460D02*
X10548753Y-13725984D01*
X10548753Y-13725984D02*
X10539229Y-13716460D01*
X10539229Y-13716460D02*
X10548753Y-13706936D01*
X10548753Y-13706936D02*
X10548753Y-13725984D01*
X10682086Y-13525984D02*
X10701134Y-13525984D01*
X10701134Y-13525984D02*
X10720182Y-13535508D01*
X10720182Y-13535508D02*
X10729705Y-13545031D01*
X10729705Y-13545031D02*
X10739229Y-13564079D01*
X10739229Y-13564079D02*
X10748753Y-13602174D01*
X10748753Y-13602174D02*
X10748753Y-13649793D01*
X10748753Y-13649793D02*
X10739229Y-13687888D01*
X10739229Y-13687888D02*
X10729705Y-13706936D01*
X10729705Y-13706936D02*
X10720182Y-13716460D01*
X10720182Y-13716460D02*
X10701134Y-13725984D01*
X10701134Y-13725984D02*
X10682086Y-13725984D01*
X10682086Y-13725984D02*
X10663039Y-13716460D01*
X10663039Y-13716460D02*
X10653515Y-13706936D01*
X10653515Y-13706936D02*
X10643991Y-13687888D01*
X10643991Y-13687888D02*
X10634467Y-13649793D01*
X10634467Y-13649793D02*
X10634467Y-13602174D01*
X10634467Y-13602174D02*
X10643991Y-13564079D01*
X10643991Y-13564079D02*
X10653515Y-13545031D01*
X10653515Y-13545031D02*
X10663039Y-13535508D01*
X10663039Y-13535508D02*
X10682086Y-13525984D01*
X10872563Y-13525984D02*
X10891610Y-13525984D01*
X10891610Y-13525984D02*
X10910658Y-13535508D01*
X10910658Y-13535508D02*
X10920182Y-13545031D01*
X10920182Y-13545031D02*
X10929705Y-13564079D01*
X10929705Y-13564079D02*
X10939229Y-13602174D01*
X10939229Y-13602174D02*
X10939229Y-13649793D01*
X10939229Y-13649793D02*
X10929705Y-13687888D01*
X10929705Y-13687888D02*
X10920182Y-13706936D01*
X10920182Y-13706936D02*
X10910658Y-13716460D01*
X10910658Y-13716460D02*
X10891610Y-13725984D01*
X10891610Y-13725984D02*
X10872563Y-13725984D01*
X10872563Y-13725984D02*
X10853515Y-13716460D01*
X10853515Y-13716460D02*
X10843991Y-13706936D01*
X10843991Y-13706936D02*
X10834467Y-13687888D01*
X10834467Y-13687888D02*
X10824944Y-13649793D01*
X10824944Y-13649793D02*
X10824944Y-13602174D01*
X10824944Y-13602174D02*
X10834467Y-13564079D01*
X10834467Y-13564079D02*
X10843991Y-13545031D01*
X10843991Y-13545031D02*
X10853515Y-13535508D01*
X10853515Y-13535508D02*
X10872563Y-13525984D01*
X11063039Y-13525984D02*
X11082086Y-13525984D01*
X11082086Y-13525984D02*
X11101134Y-13535508D01*
X11101134Y-13535508D02*
X11110658Y-13545031D01*
X11110658Y-13545031D02*
X11120182Y-13564079D01*
X11120182Y-13564079D02*
X11129705Y-13602174D01*
X11129705Y-13602174D02*
X11129705Y-13649793D01*
X11129705Y-13649793D02*
X11120182Y-13687888D01*
X11120182Y-13687888D02*
X11110658Y-13706936D01*
X11110658Y-13706936D02*
X11101134Y-13716460D01*
X11101134Y-13716460D02*
X11082086Y-13725984D01*
X11082086Y-13725984D02*
X11063039Y-13725984D01*
X11063039Y-13725984D02*
X11043991Y-13716460D01*
X11043991Y-13716460D02*
X11034467Y-13706936D01*
X11034467Y-13706936D02*
X11024944Y-13687888D01*
X11024944Y-13687888D02*
X11015420Y-13649793D01*
X11015420Y-13649793D02*
X11015420Y-13602174D01*
X11015420Y-13602174D02*
X11024944Y-13564079D01*
X11024944Y-13564079D02*
X11034467Y-13545031D01*
X11034467Y-13545031D02*
X11043991Y-13535508D01*
X11043991Y-13535508D02*
X11063039Y-13525984D01*
X11215420Y-13725984D02*
X11215420Y-13592650D01*
X11215420Y-13611698D02*
X11224943Y-13602174D01*
X11224943Y-13602174D02*
X11243991Y-13592650D01*
X11243991Y-13592650D02*
X11272563Y-13592650D01*
X11272563Y-13592650D02*
X11291610Y-13602174D01*
X11291610Y-13602174D02*
X11301134Y-13621222D01*
X11301134Y-13621222D02*
X11301134Y-13725984D01*
X11301134Y-13621222D02*
X11310658Y-13602174D01*
X11310658Y-13602174D02*
X11329705Y-13592650D01*
X11329705Y-13592650D02*
X11358277Y-13592650D01*
X11358277Y-13592650D02*
X11377324Y-13602174D01*
X11377324Y-13602174D02*
X11386848Y-13621222D01*
X11386848Y-13621222D02*
X11386848Y-13725984D01*
X11482086Y-13725984D02*
X11482086Y-13592650D01*
X11482086Y-13611698D02*
X11491610Y-13602174D01*
X11491610Y-13602174D02*
X11510658Y-13592650D01*
X11510658Y-13592650D02*
X11539229Y-13592650D01*
X11539229Y-13592650D02*
X11558277Y-13602174D01*
X11558277Y-13602174D02*
X11567801Y-13621222D01*
X11567801Y-13621222D02*
X11567801Y-13725984D01*
X11567801Y-13621222D02*
X11577324Y-13602174D01*
X11577324Y-13602174D02*
X11596372Y-13592650D01*
X11596372Y-13592650D02*
X11624943Y-13592650D01*
X11624943Y-13592650D02*
X11643991Y-13602174D01*
X11643991Y-13602174D02*
X11653515Y-13621222D01*
X11653515Y-13621222D02*
X11653515Y-13725984D01*
X12043991Y-13516460D02*
X11872563Y-13773603D01*
X12301134Y-13525984D02*
X12320182Y-13525984D01*
X12320182Y-13525984D02*
X12339229Y-13535508D01*
X12339229Y-13535508D02*
X12348753Y-13545031D01*
X12348753Y-13545031D02*
X12358277Y-13564079D01*
X12358277Y-13564079D02*
X12367801Y-13602174D01*
X12367801Y-13602174D02*
X12367801Y-13649793D01*
X12367801Y-13649793D02*
X12358277Y-13687888D01*
X12358277Y-13687888D02*
X12348753Y-13706936D01*
X12348753Y-13706936D02*
X12339229Y-13716460D01*
X12339229Y-13716460D02*
X12320182Y-13725984D01*
X12320182Y-13725984D02*
X12301134Y-13725984D01*
X12301134Y-13725984D02*
X12282086Y-13716460D01*
X12282086Y-13716460D02*
X12272563Y-13706936D01*
X12272563Y-13706936D02*
X12263039Y-13687888D01*
X12263039Y-13687888D02*
X12253515Y-13649793D01*
X12253515Y-13649793D02*
X12253515Y-13602174D01*
X12253515Y-13602174D02*
X12263039Y-13564079D01*
X12263039Y-13564079D02*
X12272563Y-13545031D01*
X12272563Y-13545031D02*
X12282086Y-13535508D01*
X12282086Y-13535508D02*
X12301134Y-13525984D01*
X12453515Y-13706936D02*
X12463039Y-13716460D01*
X12463039Y-13716460D02*
X12453515Y-13725984D01*
X12453515Y-13725984D02*
X12443991Y-13716460D01*
X12443991Y-13716460D02*
X12453515Y-13706936D01*
X12453515Y-13706936D02*
X12453515Y-13725984D01*
X12586848Y-13525984D02*
X12605896Y-13525984D01*
X12605896Y-13525984D02*
X12624944Y-13535508D01*
X12624944Y-13535508D02*
X12634467Y-13545031D01*
X12634467Y-13545031D02*
X12643991Y-13564079D01*
X12643991Y-13564079D02*
X12653515Y-13602174D01*
X12653515Y-13602174D02*
X12653515Y-13649793D01*
X12653515Y-13649793D02*
X12643991Y-13687888D01*
X12643991Y-13687888D02*
X12634467Y-13706936D01*
X12634467Y-13706936D02*
X12624944Y-13716460D01*
X12624944Y-13716460D02*
X12605896Y-13725984D01*
X12605896Y-13725984D02*
X12586848Y-13725984D01*
X12586848Y-13725984D02*
X12567801Y-13716460D01*
X12567801Y-13716460D02*
X12558277Y-13706936D01*
X12558277Y-13706936D02*
X12548753Y-13687888D01*
X12548753Y-13687888D02*
X12539229Y-13649793D01*
X12539229Y-13649793D02*
X12539229Y-13602174D01*
X12539229Y-13602174D02*
X12548753Y-13564079D01*
X12548753Y-13564079D02*
X12558277Y-13545031D01*
X12558277Y-13545031D02*
X12567801Y-13535508D01*
X12567801Y-13535508D02*
X12586848Y-13525984D01*
X12720182Y-13525984D02*
X12843991Y-13525984D01*
X12843991Y-13525984D02*
X12777325Y-13602174D01*
X12777325Y-13602174D02*
X12805896Y-13602174D01*
X12805896Y-13602174D02*
X12824944Y-13611698D01*
X12824944Y-13611698D02*
X12834467Y-13621222D01*
X12834467Y-13621222D02*
X12843991Y-13640269D01*
X12843991Y-13640269D02*
X12843991Y-13687888D01*
X12843991Y-13687888D02*
X12834467Y-13706936D01*
X12834467Y-13706936D02*
X12824944Y-13716460D01*
X12824944Y-13716460D02*
X12805896Y-13725984D01*
X12805896Y-13725984D02*
X12748753Y-13725984D01*
X12748753Y-13725984D02*
X12729706Y-13716460D01*
X12729706Y-13716460D02*
X12720182Y-13706936D01*
X12939229Y-13725984D02*
X12977325Y-13725984D01*
X12977325Y-13725984D02*
X12996372Y-13716460D01*
X12996372Y-13716460D02*
X13005896Y-13706936D01*
X13005896Y-13706936D02*
X13024944Y-13678365D01*
X13024944Y-13678365D02*
X13034467Y-13640269D01*
X13034467Y-13640269D02*
X13034467Y-13564079D01*
X13034467Y-13564079D02*
X13024944Y-13545031D01*
X13024944Y-13545031D02*
X13015420Y-13535508D01*
X13015420Y-13535508D02*
X12996372Y-13525984D01*
X12996372Y-13525984D02*
X12958277Y-13525984D01*
X12958277Y-13525984D02*
X12939229Y-13535508D01*
X12939229Y-13535508D02*
X12929706Y-13545031D01*
X12929706Y-13545031D02*
X12920182Y-13564079D01*
X12920182Y-13564079D02*
X12920182Y-13611698D01*
X12920182Y-13611698D02*
X12929706Y-13630746D01*
X12929706Y-13630746D02*
X12939229Y-13640269D01*
X12939229Y-13640269D02*
X12958277Y-13649793D01*
X12958277Y-13649793D02*
X12996372Y-13649793D01*
X12996372Y-13649793D02*
X13015420Y-13640269D01*
X13015420Y-13640269D02*
X13024944Y-13630746D01*
X13024944Y-13630746D02*
X13034467Y-13611698D01*
X13205896Y-13592650D02*
X13205896Y-13725984D01*
X13158277Y-13516460D02*
X13110658Y-13659317D01*
X13110658Y-13659317D02*
X13234467Y-13659317D01*
X13301134Y-13525984D02*
X13301134Y-13564079D01*
X13377325Y-13525984D02*
X13377325Y-13564079D01*
X13672563Y-13802174D02*
X13663039Y-13792650D01*
X13663039Y-13792650D02*
X13643991Y-13764079D01*
X13643991Y-13764079D02*
X13634468Y-13745031D01*
X13634468Y-13745031D02*
X13624944Y-13716460D01*
X13624944Y-13716460D02*
X13615420Y-13668841D01*
X13615420Y-13668841D02*
X13615420Y-13630746D01*
X13615420Y-13630746D02*
X13624944Y-13583127D01*
X13624944Y-13583127D02*
X13634468Y-13554555D01*
X13634468Y-13554555D02*
X13643991Y-13535508D01*
X13643991Y-13535508D02*
X13663039Y-13506936D01*
X13663039Y-13506936D02*
X13672563Y-13497412D01*
X13729706Y-13525984D02*
X13853515Y-13525984D01*
X13853515Y-13525984D02*
X13786848Y-13602174D01*
X13786848Y-13602174D02*
X13815420Y-13602174D01*
X13815420Y-13602174D02*
X13834468Y-13611698D01*
X13834468Y-13611698D02*
X13843991Y-13621222D01*
X13843991Y-13621222D02*
X13853515Y-13640269D01*
X13853515Y-13640269D02*
X13853515Y-13687888D01*
X13853515Y-13687888D02*
X13843991Y-13706936D01*
X13843991Y-13706936D02*
X13834468Y-13716460D01*
X13834468Y-13716460D02*
X13815420Y-13725984D01*
X13815420Y-13725984D02*
X13758277Y-13725984D01*
X13758277Y-13725984D02*
X13739229Y-13716460D01*
X13739229Y-13716460D02*
X13729706Y-13706936D01*
X13967801Y-13611698D02*
X13948753Y-13602174D01*
X13948753Y-13602174D02*
X13939229Y-13592650D01*
X13939229Y-13592650D02*
X13929706Y-13573603D01*
X13929706Y-13573603D02*
X13929706Y-13564079D01*
X13929706Y-13564079D02*
X13939229Y-13545031D01*
X13939229Y-13545031D02*
X13948753Y-13535508D01*
X13948753Y-13535508D02*
X13967801Y-13525984D01*
X13967801Y-13525984D02*
X14005896Y-13525984D01*
X14005896Y-13525984D02*
X14024944Y-13535508D01*
X14024944Y-13535508D02*
X14034468Y-13545031D01*
X14034468Y-13545031D02*
X14043991Y-13564079D01*
X14043991Y-13564079D02*
X14043991Y-13573603D01*
X14043991Y-13573603D02*
X14034468Y-13592650D01*
X14034468Y-13592650D02*
X14024944Y-13602174D01*
X14024944Y-13602174D02*
X14005896Y-13611698D01*
X14005896Y-13611698D02*
X13967801Y-13611698D01*
X13967801Y-13611698D02*
X13948753Y-13621222D01*
X13948753Y-13621222D02*
X13939229Y-13630746D01*
X13939229Y-13630746D02*
X13929706Y-13649793D01*
X13929706Y-13649793D02*
X13929706Y-13687888D01*
X13929706Y-13687888D02*
X13939229Y-13706936D01*
X13939229Y-13706936D02*
X13948753Y-13716460D01*
X13948753Y-13716460D02*
X13967801Y-13725984D01*
X13967801Y-13725984D02*
X14005896Y-13725984D01*
X14005896Y-13725984D02*
X14024944Y-13716460D01*
X14024944Y-13716460D02*
X14034468Y-13706936D01*
X14034468Y-13706936D02*
X14043991Y-13687888D01*
X14043991Y-13687888D02*
X14043991Y-13649793D01*
X14043991Y-13649793D02*
X14034468Y-13630746D01*
X14034468Y-13630746D02*
X14024944Y-13621222D01*
X14024944Y-13621222D02*
X14005896Y-13611698D01*
X14282087Y-13725984D02*
X14282087Y-13525984D01*
X14367801Y-13725984D02*
X14367801Y-13621222D01*
X14367801Y-13621222D02*
X14358277Y-13602174D01*
X14358277Y-13602174D02*
X14339230Y-13592650D01*
X14339230Y-13592650D02*
X14310658Y-13592650D01*
X14310658Y-13592650D02*
X14291610Y-13602174D01*
X14291610Y-13602174D02*
X14282087Y-13611698D01*
X14491610Y-13725984D02*
X14472563Y-13716460D01*
X14472563Y-13716460D02*
X14463039Y-13706936D01*
X14463039Y-13706936D02*
X14453515Y-13687888D01*
X14453515Y-13687888D02*
X14453515Y-13630746D01*
X14453515Y-13630746D02*
X14463039Y-13611698D01*
X14463039Y-13611698D02*
X14472563Y-13602174D01*
X14472563Y-13602174D02*
X14491610Y-13592650D01*
X14491610Y-13592650D02*
X14520182Y-13592650D01*
X14520182Y-13592650D02*
X14539230Y-13602174D01*
X14539230Y-13602174D02*
X14548753Y-13611698D01*
X14548753Y-13611698D02*
X14558277Y-13630746D01*
X14558277Y-13630746D02*
X14558277Y-13687888D01*
X14558277Y-13687888D02*
X14548753Y-13706936D01*
X14548753Y-13706936D02*
X14539230Y-13716460D01*
X14539230Y-13716460D02*
X14520182Y-13725984D01*
X14520182Y-13725984D02*
X14491610Y-13725984D01*
X14672563Y-13725984D02*
X14653515Y-13716460D01*
X14653515Y-13716460D02*
X14643991Y-13697412D01*
X14643991Y-13697412D02*
X14643991Y-13525984D01*
X14824944Y-13716460D02*
X14805896Y-13725984D01*
X14805896Y-13725984D02*
X14767801Y-13725984D01*
X14767801Y-13725984D02*
X14748753Y-13716460D01*
X14748753Y-13716460D02*
X14739230Y-13697412D01*
X14739230Y-13697412D02*
X14739230Y-13621222D01*
X14739230Y-13621222D02*
X14748753Y-13602174D01*
X14748753Y-13602174D02*
X14767801Y-13592650D01*
X14767801Y-13592650D02*
X14805896Y-13592650D01*
X14805896Y-13592650D02*
X14824944Y-13602174D01*
X14824944Y-13602174D02*
X14834468Y-13621222D01*
X14834468Y-13621222D02*
X14834468Y-13640269D01*
X14834468Y-13640269D02*
X14739230Y-13659317D01*
X14910658Y-13716460D02*
X14929706Y-13725984D01*
X14929706Y-13725984D02*
X14967801Y-13725984D01*
X14967801Y-13725984D02*
X14986849Y-13716460D01*
X14986849Y-13716460D02*
X14996372Y-13697412D01*
X14996372Y-13697412D02*
X14996372Y-13687888D01*
X14996372Y-13687888D02*
X14986849Y-13668841D01*
X14986849Y-13668841D02*
X14967801Y-13659317D01*
X14967801Y-13659317D02*
X14939230Y-13659317D01*
X14939230Y-13659317D02*
X14920182Y-13649793D01*
X14920182Y-13649793D02*
X14910658Y-13630746D01*
X14910658Y-13630746D02*
X14910658Y-13621222D01*
X14910658Y-13621222D02*
X14920182Y-13602174D01*
X14920182Y-13602174D02*
X14939230Y-13592650D01*
X14939230Y-13592650D02*
X14967801Y-13592650D01*
X14967801Y-13592650D02*
X14986849Y-13602174D01*
X15063039Y-13802174D02*
X15072563Y-13792650D01*
X15072563Y-13792650D02*
X15091611Y-13764079D01*
X15091611Y-13764079D02*
X15101134Y-13745031D01*
X15101134Y-13745031D02*
X15110658Y-13716460D01*
X15110658Y-13716460D02*
X15120182Y-13668841D01*
X15120182Y-13668841D02*
X15120182Y-13630746D01*
X15120182Y-13630746D02*
X15110658Y-13583127D01*
X15110658Y-13583127D02*
X15101134Y-13554555D01*
X15101134Y-13554555D02*
X15091611Y-13535508D01*
X15091611Y-13535508D02*
X15072563Y-13506936D01*
X15072563Y-13506936D02*
X15063039Y-13497412D01*
D13*
X10042500Y-13953500D02*
X10097500Y-13898500D01*
X10042500Y-13843500D01*
X9987500Y-13898500D01*
X10042500Y-13953500D01*
D11*
X10463039Y-13989984D02*
X10348753Y-13989984D01*
X10405896Y-13989984D02*
X10405896Y-13789984D01*
X10405896Y-13789984D02*
X10386848Y-13818555D01*
X10386848Y-13818555D02*
X10367801Y-13837603D01*
X10367801Y-13837603D02*
X10348753Y-13847127D01*
X10548753Y-13970936D02*
X10558277Y-13980460D01*
X10558277Y-13980460D02*
X10548753Y-13989984D01*
X10548753Y-13989984D02*
X10539229Y-13980460D01*
X10539229Y-13980460D02*
X10548753Y-13970936D01*
X10548753Y-13970936D02*
X10548753Y-13989984D01*
X10748753Y-13989984D02*
X10634467Y-13989984D01*
X10691610Y-13989984D02*
X10691610Y-13789984D01*
X10691610Y-13789984D02*
X10672563Y-13818555D01*
X10672563Y-13818555D02*
X10653515Y-13837603D01*
X10653515Y-13837603D02*
X10634467Y-13847127D01*
X10872563Y-13789984D02*
X10891610Y-13789984D01*
X10891610Y-13789984D02*
X10910658Y-13799508D01*
X10910658Y-13799508D02*
X10920182Y-13809031D01*
X10920182Y-13809031D02*
X10929705Y-13828079D01*
X10929705Y-13828079D02*
X10939229Y-13866174D01*
X10939229Y-13866174D02*
X10939229Y-13913793D01*
X10939229Y-13913793D02*
X10929705Y-13951888D01*
X10929705Y-13951888D02*
X10920182Y-13970936D01*
X10920182Y-13970936D02*
X10910658Y-13980460D01*
X10910658Y-13980460D02*
X10891610Y-13989984D01*
X10891610Y-13989984D02*
X10872563Y-13989984D01*
X10872563Y-13989984D02*
X10853515Y-13980460D01*
X10853515Y-13980460D02*
X10843991Y-13970936D01*
X10843991Y-13970936D02*
X10834467Y-13951888D01*
X10834467Y-13951888D02*
X10824944Y-13913793D01*
X10824944Y-13913793D02*
X10824944Y-13866174D01*
X10824944Y-13866174D02*
X10834467Y-13828079D01*
X10834467Y-13828079D02*
X10843991Y-13809031D01*
X10843991Y-13809031D02*
X10853515Y-13799508D01*
X10853515Y-13799508D02*
X10872563Y-13789984D01*
X11063039Y-13789984D02*
X11082086Y-13789984D01*
X11082086Y-13789984D02*
X11101134Y-13799508D01*
X11101134Y-13799508D02*
X11110658Y-13809031D01*
X11110658Y-13809031D02*
X11120182Y-13828079D01*
X11120182Y-13828079D02*
X11129705Y-13866174D01*
X11129705Y-13866174D02*
X11129705Y-13913793D01*
X11129705Y-13913793D02*
X11120182Y-13951888D01*
X11120182Y-13951888D02*
X11110658Y-13970936D01*
X11110658Y-13970936D02*
X11101134Y-13980460D01*
X11101134Y-13980460D02*
X11082086Y-13989984D01*
X11082086Y-13989984D02*
X11063039Y-13989984D01*
X11063039Y-13989984D02*
X11043991Y-13980460D01*
X11043991Y-13980460D02*
X11034467Y-13970936D01*
X11034467Y-13970936D02*
X11024944Y-13951888D01*
X11024944Y-13951888D02*
X11015420Y-13913793D01*
X11015420Y-13913793D02*
X11015420Y-13866174D01*
X11015420Y-13866174D02*
X11024944Y-13828079D01*
X11024944Y-13828079D02*
X11034467Y-13809031D01*
X11034467Y-13809031D02*
X11043991Y-13799508D01*
X11043991Y-13799508D02*
X11063039Y-13789984D01*
X11215420Y-13989984D02*
X11215420Y-13856650D01*
X11215420Y-13875698D02*
X11224943Y-13866174D01*
X11224943Y-13866174D02*
X11243991Y-13856650D01*
X11243991Y-13856650D02*
X11272563Y-13856650D01*
X11272563Y-13856650D02*
X11291610Y-13866174D01*
X11291610Y-13866174D02*
X11301134Y-13885222D01*
X11301134Y-13885222D02*
X11301134Y-13989984D01*
X11301134Y-13885222D02*
X11310658Y-13866174D01*
X11310658Y-13866174D02*
X11329705Y-13856650D01*
X11329705Y-13856650D02*
X11358277Y-13856650D01*
X11358277Y-13856650D02*
X11377324Y-13866174D01*
X11377324Y-13866174D02*
X11386848Y-13885222D01*
X11386848Y-13885222D02*
X11386848Y-13989984D01*
X11482086Y-13989984D02*
X11482086Y-13856650D01*
X11482086Y-13875698D02*
X11491610Y-13866174D01*
X11491610Y-13866174D02*
X11510658Y-13856650D01*
X11510658Y-13856650D02*
X11539229Y-13856650D01*
X11539229Y-13856650D02*
X11558277Y-13866174D01*
X11558277Y-13866174D02*
X11567801Y-13885222D01*
X11567801Y-13885222D02*
X11567801Y-13989984D01*
X11567801Y-13885222D02*
X11577324Y-13866174D01*
X11577324Y-13866174D02*
X11596372Y-13856650D01*
X11596372Y-13856650D02*
X11624943Y-13856650D01*
X11624943Y-13856650D02*
X11643991Y-13866174D01*
X11643991Y-13866174D02*
X11653515Y-13885222D01*
X11653515Y-13885222D02*
X11653515Y-13989984D01*
X12043991Y-13780460D02*
X11872563Y-14037603D01*
X12301134Y-13789984D02*
X12320182Y-13789984D01*
X12320182Y-13789984D02*
X12339229Y-13799508D01*
X12339229Y-13799508D02*
X12348753Y-13809031D01*
X12348753Y-13809031D02*
X12358277Y-13828079D01*
X12358277Y-13828079D02*
X12367801Y-13866174D01*
X12367801Y-13866174D02*
X12367801Y-13913793D01*
X12367801Y-13913793D02*
X12358277Y-13951888D01*
X12358277Y-13951888D02*
X12348753Y-13970936D01*
X12348753Y-13970936D02*
X12339229Y-13980460D01*
X12339229Y-13980460D02*
X12320182Y-13989984D01*
X12320182Y-13989984D02*
X12301134Y-13989984D01*
X12301134Y-13989984D02*
X12282086Y-13980460D01*
X12282086Y-13980460D02*
X12272563Y-13970936D01*
X12272563Y-13970936D02*
X12263039Y-13951888D01*
X12263039Y-13951888D02*
X12253515Y-13913793D01*
X12253515Y-13913793D02*
X12253515Y-13866174D01*
X12253515Y-13866174D02*
X12263039Y-13828079D01*
X12263039Y-13828079D02*
X12272563Y-13809031D01*
X12272563Y-13809031D02*
X12282086Y-13799508D01*
X12282086Y-13799508D02*
X12301134Y-13789984D01*
X12453515Y-13970936D02*
X12463039Y-13980460D01*
X12463039Y-13980460D02*
X12453515Y-13989984D01*
X12453515Y-13989984D02*
X12443991Y-13980460D01*
X12443991Y-13980460D02*
X12453515Y-13970936D01*
X12453515Y-13970936D02*
X12453515Y-13989984D01*
X12586848Y-13789984D02*
X12605896Y-13789984D01*
X12605896Y-13789984D02*
X12624944Y-13799508D01*
X12624944Y-13799508D02*
X12634467Y-13809031D01*
X12634467Y-13809031D02*
X12643991Y-13828079D01*
X12643991Y-13828079D02*
X12653515Y-13866174D01*
X12653515Y-13866174D02*
X12653515Y-13913793D01*
X12653515Y-13913793D02*
X12643991Y-13951888D01*
X12643991Y-13951888D02*
X12634467Y-13970936D01*
X12634467Y-13970936D02*
X12624944Y-13980460D01*
X12624944Y-13980460D02*
X12605896Y-13989984D01*
X12605896Y-13989984D02*
X12586848Y-13989984D01*
X12586848Y-13989984D02*
X12567801Y-13980460D01*
X12567801Y-13980460D02*
X12558277Y-13970936D01*
X12558277Y-13970936D02*
X12548753Y-13951888D01*
X12548753Y-13951888D02*
X12539229Y-13913793D01*
X12539229Y-13913793D02*
X12539229Y-13866174D01*
X12539229Y-13866174D02*
X12548753Y-13828079D01*
X12548753Y-13828079D02*
X12558277Y-13809031D01*
X12558277Y-13809031D02*
X12567801Y-13799508D01*
X12567801Y-13799508D02*
X12586848Y-13789984D01*
X12824944Y-13856650D02*
X12824944Y-13989984D01*
X12777325Y-13780460D02*
X12729706Y-13923317D01*
X12729706Y-13923317D02*
X12853515Y-13923317D01*
X12910658Y-13789984D02*
X13034467Y-13789984D01*
X13034467Y-13789984D02*
X12967801Y-13866174D01*
X12967801Y-13866174D02*
X12996372Y-13866174D01*
X12996372Y-13866174D02*
X13015420Y-13875698D01*
X13015420Y-13875698D02*
X13024944Y-13885222D01*
X13024944Y-13885222D02*
X13034467Y-13904269D01*
X13034467Y-13904269D02*
X13034467Y-13951888D01*
X13034467Y-13951888D02*
X13024944Y-13970936D01*
X13024944Y-13970936D02*
X13015420Y-13980460D01*
X13015420Y-13980460D02*
X12996372Y-13989984D01*
X12996372Y-13989984D02*
X12939229Y-13989984D01*
X12939229Y-13989984D02*
X12920182Y-13980460D01*
X12920182Y-13980460D02*
X12910658Y-13970936D01*
X13101134Y-13789984D02*
X13224944Y-13789984D01*
X13224944Y-13789984D02*
X13158277Y-13866174D01*
X13158277Y-13866174D02*
X13186848Y-13866174D01*
X13186848Y-13866174D02*
X13205896Y-13875698D01*
X13205896Y-13875698D02*
X13215420Y-13885222D01*
X13215420Y-13885222D02*
X13224944Y-13904269D01*
X13224944Y-13904269D02*
X13224944Y-13951888D01*
X13224944Y-13951888D02*
X13215420Y-13970936D01*
X13215420Y-13970936D02*
X13205896Y-13980460D01*
X13205896Y-13980460D02*
X13186848Y-13989984D01*
X13186848Y-13989984D02*
X13129706Y-13989984D01*
X13129706Y-13989984D02*
X13110658Y-13980460D01*
X13110658Y-13980460D02*
X13101134Y-13970936D01*
X13301134Y-13789984D02*
X13301134Y-13828079D01*
X13377325Y-13789984D02*
X13377325Y-13828079D01*
X13672563Y-14066174D02*
X13663039Y-14056650D01*
X13663039Y-14056650D02*
X13643991Y-14028079D01*
X13643991Y-14028079D02*
X13634468Y-14009031D01*
X13634468Y-14009031D02*
X13624944Y-13980460D01*
X13624944Y-13980460D02*
X13615420Y-13932841D01*
X13615420Y-13932841D02*
X13615420Y-13894746D01*
X13615420Y-13894746D02*
X13624944Y-13847127D01*
X13624944Y-13847127D02*
X13634468Y-13818555D01*
X13634468Y-13818555D02*
X13643991Y-13799508D01*
X13643991Y-13799508D02*
X13663039Y-13770936D01*
X13663039Y-13770936D02*
X13672563Y-13761412D01*
X13729706Y-13789984D02*
X13853515Y-13789984D01*
X13853515Y-13789984D02*
X13786848Y-13866174D01*
X13786848Y-13866174D02*
X13815420Y-13866174D01*
X13815420Y-13866174D02*
X13834468Y-13875698D01*
X13834468Y-13875698D02*
X13843991Y-13885222D01*
X13843991Y-13885222D02*
X13853515Y-13904269D01*
X13853515Y-13904269D02*
X13853515Y-13951888D01*
X13853515Y-13951888D02*
X13843991Y-13970936D01*
X13843991Y-13970936D02*
X13834468Y-13980460D01*
X13834468Y-13980460D02*
X13815420Y-13989984D01*
X13815420Y-13989984D02*
X13758277Y-13989984D01*
X13758277Y-13989984D02*
X13739229Y-13980460D01*
X13739229Y-13980460D02*
X13729706Y-13970936D01*
X14091610Y-13989984D02*
X14091610Y-13789984D01*
X14177325Y-13989984D02*
X14177325Y-13885222D01*
X14177325Y-13885222D02*
X14167801Y-13866174D01*
X14167801Y-13866174D02*
X14148753Y-13856650D01*
X14148753Y-13856650D02*
X14120182Y-13856650D01*
X14120182Y-13856650D02*
X14101134Y-13866174D01*
X14101134Y-13866174D02*
X14091610Y-13875698D01*
X14301134Y-13989984D02*
X14282087Y-13980460D01*
X14282087Y-13980460D02*
X14272563Y-13970936D01*
X14272563Y-13970936D02*
X14263039Y-13951888D01*
X14263039Y-13951888D02*
X14263039Y-13894746D01*
X14263039Y-13894746D02*
X14272563Y-13875698D01*
X14272563Y-13875698D02*
X14282087Y-13866174D01*
X14282087Y-13866174D02*
X14301134Y-13856650D01*
X14301134Y-13856650D02*
X14329706Y-13856650D01*
X14329706Y-13856650D02*
X14348753Y-13866174D01*
X14348753Y-13866174D02*
X14358277Y-13875698D01*
X14358277Y-13875698D02*
X14367801Y-13894746D01*
X14367801Y-13894746D02*
X14367801Y-13951888D01*
X14367801Y-13951888D02*
X14358277Y-13970936D01*
X14358277Y-13970936D02*
X14348753Y-13980460D01*
X14348753Y-13980460D02*
X14329706Y-13989984D01*
X14329706Y-13989984D02*
X14301134Y-13989984D01*
X14482087Y-13989984D02*
X14463039Y-13980460D01*
X14463039Y-13980460D02*
X14453515Y-13961412D01*
X14453515Y-13961412D02*
X14453515Y-13789984D01*
X14634468Y-13980460D02*
X14615420Y-13989984D01*
X14615420Y-13989984D02*
X14577325Y-13989984D01*
X14577325Y-13989984D02*
X14558277Y-13980460D01*
X14558277Y-13980460D02*
X14548753Y-13961412D01*
X14548753Y-13961412D02*
X14548753Y-13885222D01*
X14548753Y-13885222D02*
X14558277Y-13866174D01*
X14558277Y-13866174D02*
X14577325Y-13856650D01*
X14577325Y-13856650D02*
X14615420Y-13856650D01*
X14615420Y-13856650D02*
X14634468Y-13866174D01*
X14634468Y-13866174D02*
X14643991Y-13885222D01*
X14643991Y-13885222D02*
X14643991Y-13904269D01*
X14643991Y-13904269D02*
X14548753Y-13923317D01*
X14720182Y-13980460D02*
X14739230Y-13989984D01*
X14739230Y-13989984D02*
X14777325Y-13989984D01*
X14777325Y-13989984D02*
X14796372Y-13980460D01*
X14796372Y-13980460D02*
X14805896Y-13961412D01*
X14805896Y-13961412D02*
X14805896Y-13951888D01*
X14805896Y-13951888D02*
X14796372Y-13932841D01*
X14796372Y-13932841D02*
X14777325Y-13923317D01*
X14777325Y-13923317D02*
X14748753Y-13923317D01*
X14748753Y-13923317D02*
X14729706Y-13913793D01*
X14729706Y-13913793D02*
X14720182Y-13894746D01*
X14720182Y-13894746D02*
X14720182Y-13885222D01*
X14720182Y-13885222D02*
X14729706Y-13866174D01*
X14729706Y-13866174D02*
X14748753Y-13856650D01*
X14748753Y-13856650D02*
X14777325Y-13856650D01*
X14777325Y-13856650D02*
X14796372Y-13866174D01*
X14872563Y-14066174D02*
X14882087Y-14056650D01*
X14882087Y-14056650D02*
X14901134Y-14028079D01*
X14901134Y-14028079D02*
X14910658Y-14009031D01*
X14910658Y-14009031D02*
X14920182Y-13980460D01*
X14920182Y-13980460D02*
X14929706Y-13932841D01*
X14929706Y-13932841D02*
X14929706Y-13894746D01*
X14929706Y-13894746D02*
X14920182Y-13847127D01*
X14920182Y-13847127D02*
X14910658Y-13818555D01*
X14910658Y-13818555D02*
X14901134Y-13799508D01*
X14901134Y-13799508D02*
X14882087Y-13770936D01*
X14882087Y-13770936D02*
X14872563Y-13761412D01*
X9897500Y-14062500D02*
X10097500Y-14262500D01*
X10097500Y-14062500D02*
X9897500Y-14262500D01*
X10097500Y-14162500D02*
G75*
G02*
X9897500Y-14162500I-100000J0D01*
G01*
X9897500Y-14162500D02*
G75*
G02*
X10097500Y-14162500I100000J0D01*
G01*
X10339229Y-14053984D02*
X10463039Y-14053984D01*
X10463039Y-14053984D02*
X10396372Y-14130174D01*
X10396372Y-14130174D02*
X10424944Y-14130174D01*
X10424944Y-14130174D02*
X10443991Y-14139698D01*
X10443991Y-14139698D02*
X10453515Y-14149222D01*
X10453515Y-14149222D02*
X10463039Y-14168269D01*
X10463039Y-14168269D02*
X10463039Y-14215888D01*
X10463039Y-14215888D02*
X10453515Y-14234936D01*
X10453515Y-14234936D02*
X10443991Y-14244460D01*
X10443991Y-14244460D02*
X10424944Y-14253984D01*
X10424944Y-14253984D02*
X10367801Y-14253984D01*
X10367801Y-14253984D02*
X10348753Y-14244460D01*
X10348753Y-14244460D02*
X10339229Y-14234936D01*
X10548753Y-14234936D02*
X10558277Y-14244460D01*
X10558277Y-14244460D02*
X10548753Y-14253984D01*
X10548753Y-14253984D02*
X10539229Y-14244460D01*
X10539229Y-14244460D02*
X10548753Y-14234936D01*
X10548753Y-14234936D02*
X10548753Y-14253984D01*
X10634467Y-14073031D02*
X10643991Y-14063508D01*
X10643991Y-14063508D02*
X10663039Y-14053984D01*
X10663039Y-14053984D02*
X10710658Y-14053984D01*
X10710658Y-14053984D02*
X10729705Y-14063508D01*
X10729705Y-14063508D02*
X10739229Y-14073031D01*
X10739229Y-14073031D02*
X10748753Y-14092079D01*
X10748753Y-14092079D02*
X10748753Y-14111127D01*
X10748753Y-14111127D02*
X10739229Y-14139698D01*
X10739229Y-14139698D02*
X10624944Y-14253984D01*
X10624944Y-14253984D02*
X10748753Y-14253984D01*
X10872563Y-14053984D02*
X10891610Y-14053984D01*
X10891610Y-14053984D02*
X10910658Y-14063508D01*
X10910658Y-14063508D02*
X10920182Y-14073031D01*
X10920182Y-14073031D02*
X10929705Y-14092079D01*
X10929705Y-14092079D02*
X10939229Y-14130174D01*
X10939229Y-14130174D02*
X10939229Y-14177793D01*
X10939229Y-14177793D02*
X10929705Y-14215888D01*
X10929705Y-14215888D02*
X10920182Y-14234936D01*
X10920182Y-14234936D02*
X10910658Y-14244460D01*
X10910658Y-14244460D02*
X10891610Y-14253984D01*
X10891610Y-14253984D02*
X10872563Y-14253984D01*
X10872563Y-14253984D02*
X10853515Y-14244460D01*
X10853515Y-14244460D02*
X10843991Y-14234936D01*
X10843991Y-14234936D02*
X10834467Y-14215888D01*
X10834467Y-14215888D02*
X10824944Y-14177793D01*
X10824944Y-14177793D02*
X10824944Y-14130174D01*
X10824944Y-14130174D02*
X10834467Y-14092079D01*
X10834467Y-14092079D02*
X10843991Y-14073031D01*
X10843991Y-14073031D02*
X10853515Y-14063508D01*
X10853515Y-14063508D02*
X10872563Y-14053984D01*
X11063039Y-14053984D02*
X11082086Y-14053984D01*
X11082086Y-14053984D02*
X11101134Y-14063508D01*
X11101134Y-14063508D02*
X11110658Y-14073031D01*
X11110658Y-14073031D02*
X11120182Y-14092079D01*
X11120182Y-14092079D02*
X11129705Y-14130174D01*
X11129705Y-14130174D02*
X11129705Y-14177793D01*
X11129705Y-14177793D02*
X11120182Y-14215888D01*
X11120182Y-14215888D02*
X11110658Y-14234936D01*
X11110658Y-14234936D02*
X11101134Y-14244460D01*
X11101134Y-14244460D02*
X11082086Y-14253984D01*
X11082086Y-14253984D02*
X11063039Y-14253984D01*
X11063039Y-14253984D02*
X11043991Y-14244460D01*
X11043991Y-14244460D02*
X11034467Y-14234936D01*
X11034467Y-14234936D02*
X11024944Y-14215888D01*
X11024944Y-14215888D02*
X11015420Y-14177793D01*
X11015420Y-14177793D02*
X11015420Y-14130174D01*
X11015420Y-14130174D02*
X11024944Y-14092079D01*
X11024944Y-14092079D02*
X11034467Y-14073031D01*
X11034467Y-14073031D02*
X11043991Y-14063508D01*
X11043991Y-14063508D02*
X11063039Y-14053984D01*
X11215420Y-14253984D02*
X11215420Y-14120650D01*
X11215420Y-14139698D02*
X11224943Y-14130174D01*
X11224943Y-14130174D02*
X11243991Y-14120650D01*
X11243991Y-14120650D02*
X11272563Y-14120650D01*
X11272563Y-14120650D02*
X11291610Y-14130174D01*
X11291610Y-14130174D02*
X11301134Y-14149222D01*
X11301134Y-14149222D02*
X11301134Y-14253984D01*
X11301134Y-14149222D02*
X11310658Y-14130174D01*
X11310658Y-14130174D02*
X11329705Y-14120650D01*
X11329705Y-14120650D02*
X11358277Y-14120650D01*
X11358277Y-14120650D02*
X11377324Y-14130174D01*
X11377324Y-14130174D02*
X11386848Y-14149222D01*
X11386848Y-14149222D02*
X11386848Y-14253984D01*
X11482086Y-14253984D02*
X11482086Y-14120650D01*
X11482086Y-14139698D02*
X11491610Y-14130174D01*
X11491610Y-14130174D02*
X11510658Y-14120650D01*
X11510658Y-14120650D02*
X11539229Y-14120650D01*
X11539229Y-14120650D02*
X11558277Y-14130174D01*
X11558277Y-14130174D02*
X11567801Y-14149222D01*
X11567801Y-14149222D02*
X11567801Y-14253984D01*
X11567801Y-14149222D02*
X11577324Y-14130174D01*
X11577324Y-14130174D02*
X11596372Y-14120650D01*
X11596372Y-14120650D02*
X11624943Y-14120650D01*
X11624943Y-14120650D02*
X11643991Y-14130174D01*
X11643991Y-14130174D02*
X11653515Y-14149222D01*
X11653515Y-14149222D02*
X11653515Y-14253984D01*
X12043991Y-14044460D02*
X11872563Y-14301603D01*
X12301134Y-14053984D02*
X12320182Y-14053984D01*
X12320182Y-14053984D02*
X12339229Y-14063508D01*
X12339229Y-14063508D02*
X12348753Y-14073031D01*
X12348753Y-14073031D02*
X12358277Y-14092079D01*
X12358277Y-14092079D02*
X12367801Y-14130174D01*
X12367801Y-14130174D02*
X12367801Y-14177793D01*
X12367801Y-14177793D02*
X12358277Y-14215888D01*
X12358277Y-14215888D02*
X12348753Y-14234936D01*
X12348753Y-14234936D02*
X12339229Y-14244460D01*
X12339229Y-14244460D02*
X12320182Y-14253984D01*
X12320182Y-14253984D02*
X12301134Y-14253984D01*
X12301134Y-14253984D02*
X12282086Y-14244460D01*
X12282086Y-14244460D02*
X12272563Y-14234936D01*
X12272563Y-14234936D02*
X12263039Y-14215888D01*
X12263039Y-14215888D02*
X12253515Y-14177793D01*
X12253515Y-14177793D02*
X12253515Y-14130174D01*
X12253515Y-14130174D02*
X12263039Y-14092079D01*
X12263039Y-14092079D02*
X12272563Y-14073031D01*
X12272563Y-14073031D02*
X12282086Y-14063508D01*
X12282086Y-14063508D02*
X12301134Y-14053984D01*
X12453515Y-14234936D02*
X12463039Y-14244460D01*
X12463039Y-14244460D02*
X12453515Y-14253984D01*
X12453515Y-14253984D02*
X12443991Y-14244460D01*
X12443991Y-14244460D02*
X12453515Y-14234936D01*
X12453515Y-14234936D02*
X12453515Y-14253984D01*
X12653515Y-14253984D02*
X12539229Y-14253984D01*
X12596372Y-14253984D02*
X12596372Y-14053984D01*
X12596372Y-14053984D02*
X12577325Y-14082555D01*
X12577325Y-14082555D02*
X12558277Y-14101603D01*
X12558277Y-14101603D02*
X12539229Y-14111127D01*
X12729706Y-14073031D02*
X12739229Y-14063508D01*
X12739229Y-14063508D02*
X12758277Y-14053984D01*
X12758277Y-14053984D02*
X12805896Y-14053984D01*
X12805896Y-14053984D02*
X12824944Y-14063508D01*
X12824944Y-14063508D02*
X12834467Y-14073031D01*
X12834467Y-14073031D02*
X12843991Y-14092079D01*
X12843991Y-14092079D02*
X12843991Y-14111127D01*
X12843991Y-14111127D02*
X12834467Y-14139698D01*
X12834467Y-14139698D02*
X12720182Y-14253984D01*
X12720182Y-14253984D02*
X12843991Y-14253984D01*
X13015420Y-14053984D02*
X12977325Y-14053984D01*
X12977325Y-14053984D02*
X12958277Y-14063508D01*
X12958277Y-14063508D02*
X12948753Y-14073031D01*
X12948753Y-14073031D02*
X12929706Y-14101603D01*
X12929706Y-14101603D02*
X12920182Y-14139698D01*
X12920182Y-14139698D02*
X12920182Y-14215888D01*
X12920182Y-14215888D02*
X12929706Y-14234936D01*
X12929706Y-14234936D02*
X12939229Y-14244460D01*
X12939229Y-14244460D02*
X12958277Y-14253984D01*
X12958277Y-14253984D02*
X12996372Y-14253984D01*
X12996372Y-14253984D02*
X13015420Y-14244460D01*
X13015420Y-14244460D02*
X13024944Y-14234936D01*
X13024944Y-14234936D02*
X13034467Y-14215888D01*
X13034467Y-14215888D02*
X13034467Y-14168269D01*
X13034467Y-14168269D02*
X13024944Y-14149222D01*
X13024944Y-14149222D02*
X13015420Y-14139698D01*
X13015420Y-14139698D02*
X12996372Y-14130174D01*
X12996372Y-14130174D02*
X12958277Y-14130174D01*
X12958277Y-14130174D02*
X12939229Y-14139698D01*
X12939229Y-14139698D02*
X12929706Y-14149222D01*
X12929706Y-14149222D02*
X12920182Y-14168269D01*
X13158277Y-14053984D02*
X13177325Y-14053984D01*
X13177325Y-14053984D02*
X13196372Y-14063508D01*
X13196372Y-14063508D02*
X13205896Y-14073031D01*
X13205896Y-14073031D02*
X13215420Y-14092079D01*
X13215420Y-14092079D02*
X13224944Y-14130174D01*
X13224944Y-14130174D02*
X13224944Y-14177793D01*
X13224944Y-14177793D02*
X13215420Y-14215888D01*
X13215420Y-14215888D02*
X13205896Y-14234936D01*
X13205896Y-14234936D02*
X13196372Y-14244460D01*
X13196372Y-14244460D02*
X13177325Y-14253984D01*
X13177325Y-14253984D02*
X13158277Y-14253984D01*
X13158277Y-14253984D02*
X13139229Y-14244460D01*
X13139229Y-14244460D02*
X13129706Y-14234936D01*
X13129706Y-14234936D02*
X13120182Y-14215888D01*
X13120182Y-14215888D02*
X13110658Y-14177793D01*
X13110658Y-14177793D02*
X13110658Y-14130174D01*
X13110658Y-14130174D02*
X13120182Y-14092079D01*
X13120182Y-14092079D02*
X13129706Y-14073031D01*
X13129706Y-14073031D02*
X13139229Y-14063508D01*
X13139229Y-14063508D02*
X13158277Y-14053984D01*
X13301134Y-14053984D02*
X13301134Y-14092079D01*
X13377325Y-14053984D02*
X13377325Y-14092079D01*
X13672563Y-14330174D02*
X13663039Y-14320650D01*
X13663039Y-14320650D02*
X13643991Y-14292079D01*
X13643991Y-14292079D02*
X13634468Y-14273031D01*
X13634468Y-14273031D02*
X13624944Y-14244460D01*
X13624944Y-14244460D02*
X13615420Y-14196841D01*
X13615420Y-14196841D02*
X13615420Y-14158746D01*
X13615420Y-14158746D02*
X13624944Y-14111127D01*
X13624944Y-14111127D02*
X13634468Y-14082555D01*
X13634468Y-14082555D02*
X13643991Y-14063508D01*
X13643991Y-14063508D02*
X13663039Y-14034936D01*
X13663039Y-14034936D02*
X13672563Y-14025412D01*
X13834468Y-14120650D02*
X13834468Y-14253984D01*
X13786848Y-14044460D02*
X13739229Y-14187317D01*
X13739229Y-14187317D02*
X13863039Y-14187317D01*
X14091610Y-14253984D02*
X14091610Y-14053984D01*
X14177325Y-14253984D02*
X14177325Y-14149222D01*
X14177325Y-14149222D02*
X14167801Y-14130174D01*
X14167801Y-14130174D02*
X14148753Y-14120650D01*
X14148753Y-14120650D02*
X14120182Y-14120650D01*
X14120182Y-14120650D02*
X14101134Y-14130174D01*
X14101134Y-14130174D02*
X14091610Y-14139698D01*
X14301134Y-14253984D02*
X14282087Y-14244460D01*
X14282087Y-14244460D02*
X14272563Y-14234936D01*
X14272563Y-14234936D02*
X14263039Y-14215888D01*
X14263039Y-14215888D02*
X14263039Y-14158746D01*
X14263039Y-14158746D02*
X14272563Y-14139698D01*
X14272563Y-14139698D02*
X14282087Y-14130174D01*
X14282087Y-14130174D02*
X14301134Y-14120650D01*
X14301134Y-14120650D02*
X14329706Y-14120650D01*
X14329706Y-14120650D02*
X14348753Y-14130174D01*
X14348753Y-14130174D02*
X14358277Y-14139698D01*
X14358277Y-14139698D02*
X14367801Y-14158746D01*
X14367801Y-14158746D02*
X14367801Y-14215888D01*
X14367801Y-14215888D02*
X14358277Y-14234936D01*
X14358277Y-14234936D02*
X14348753Y-14244460D01*
X14348753Y-14244460D02*
X14329706Y-14253984D01*
X14329706Y-14253984D02*
X14301134Y-14253984D01*
X14482087Y-14253984D02*
X14463039Y-14244460D01*
X14463039Y-14244460D02*
X14453515Y-14225412D01*
X14453515Y-14225412D02*
X14453515Y-14053984D01*
X14634468Y-14244460D02*
X14615420Y-14253984D01*
X14615420Y-14253984D02*
X14577325Y-14253984D01*
X14577325Y-14253984D02*
X14558277Y-14244460D01*
X14558277Y-14244460D02*
X14548753Y-14225412D01*
X14548753Y-14225412D02*
X14548753Y-14149222D01*
X14548753Y-14149222D02*
X14558277Y-14130174D01*
X14558277Y-14130174D02*
X14577325Y-14120650D01*
X14577325Y-14120650D02*
X14615420Y-14120650D01*
X14615420Y-14120650D02*
X14634468Y-14130174D01*
X14634468Y-14130174D02*
X14643991Y-14149222D01*
X14643991Y-14149222D02*
X14643991Y-14168269D01*
X14643991Y-14168269D02*
X14548753Y-14187317D01*
X14720182Y-14244460D02*
X14739230Y-14253984D01*
X14739230Y-14253984D02*
X14777325Y-14253984D01*
X14777325Y-14253984D02*
X14796372Y-14244460D01*
X14796372Y-14244460D02*
X14805896Y-14225412D01*
X14805896Y-14225412D02*
X14805896Y-14215888D01*
X14805896Y-14215888D02*
X14796372Y-14196841D01*
X14796372Y-14196841D02*
X14777325Y-14187317D01*
X14777325Y-14187317D02*
X14748753Y-14187317D01*
X14748753Y-14187317D02*
X14729706Y-14177793D01*
X14729706Y-14177793D02*
X14720182Y-14158746D01*
X14720182Y-14158746D02*
X14720182Y-14149222D01*
X14720182Y-14149222D02*
X14729706Y-14130174D01*
X14729706Y-14130174D02*
X14748753Y-14120650D01*
X14748753Y-14120650D02*
X14777325Y-14120650D01*
X14777325Y-14120650D02*
X14796372Y-14130174D01*
X14872563Y-14330174D02*
X14882087Y-14320650D01*
X14882087Y-14320650D02*
X14901134Y-14292079D01*
X14901134Y-14292079D02*
X14910658Y-14273031D01*
X14910658Y-14273031D02*
X14920182Y-14244460D01*
X14920182Y-14244460D02*
X14929706Y-14196841D01*
X14929706Y-14196841D02*
X14929706Y-14158746D01*
X14929706Y-14158746D02*
X14920182Y-14111127D01*
X14920182Y-14111127D02*
X14910658Y-14082555D01*
X14910658Y-14082555D02*
X14901134Y-14063508D01*
X14901134Y-14063508D02*
X14882087Y-14034936D01*
X14882087Y-14034936D02*
X14872563Y-14025412D01*
M02*
