%TF.GenerationSoftware,KiCad,Pcbnew,10.0.3*%
%TF.CreationDate,2026-08-05T11:23:39-07:00*%
%TF.ProjectId,LoRa_Board,4c6f5261-5f42-46f6-9172-642e6b696361,rev?*%
%TF.SameCoordinates,Original*%
%TF.FileFunction,Legend,Bot*%
%TF.FilePolarity,Positive*%
%FSLAX46Y46*%
G04 Gerber Fmt 4.6, Leading zero omitted, Abs format (unit mm)*
G04 Created by KiCad (PCBNEW 10.0.3) date 2026-08-05 11:23:39*
%MOMM*%
%LPD*%
G01*
G04 APERTURE LIST*
%ADD10C,0.100000*%
%ADD11C,0.153000*%
%ADD12C,0.150000*%
%ADD13C,0.120000*%
%ADD14C,0.000000*%
G04 APERTURE END LIST*
D10*
X168590000Y-114090000D02*
X166190000Y-114090000D01*
X168590000Y-115590000D02*
X167190000Y-115590000D01*
X167190000Y-115590000D02*
X167190000Y-116290000D01*
X166190000Y-114090000D02*
X166190000Y-116290000D01*
D11*
X172061427Y-114644663D02*
X172061427Y-113644663D01*
X172061427Y-113644663D02*
X171728094Y-114358948D01*
X171728094Y-114358948D02*
X171394761Y-113644663D01*
X171394761Y-113644663D02*
X171394761Y-114644663D01*
X170918570Y-114644663D02*
X170918570Y-113644663D01*
X170489999Y-114597044D02*
X170347142Y-114644663D01*
X170347142Y-114644663D02*
X170109047Y-114644663D01*
X170109047Y-114644663D02*
X170013809Y-114597044D01*
X170013809Y-114597044D02*
X169966190Y-114549424D01*
X169966190Y-114549424D02*
X169918571Y-114454186D01*
X169918571Y-114454186D02*
X169918571Y-114358948D01*
X169918571Y-114358948D02*
X169966190Y-114263710D01*
X169966190Y-114263710D02*
X170013809Y-114216091D01*
X170013809Y-114216091D02*
X170109047Y-114168472D01*
X170109047Y-114168472D02*
X170299523Y-114120853D01*
X170299523Y-114120853D02*
X170394761Y-114073234D01*
X170394761Y-114073234D02*
X170442380Y-114025615D01*
X170442380Y-114025615D02*
X170489999Y-113930377D01*
X170489999Y-113930377D02*
X170489999Y-113835139D01*
X170489999Y-113835139D02*
X170442380Y-113739901D01*
X170442380Y-113739901D02*
X170394761Y-113692282D01*
X170394761Y-113692282D02*
X170299523Y-113644663D01*
X170299523Y-113644663D02*
X170061428Y-113644663D01*
X170061428Y-113644663D02*
X169918571Y-113692282D01*
X169299523Y-113644663D02*
X169109047Y-113644663D01*
X169109047Y-113644663D02*
X169013809Y-113692282D01*
X169013809Y-113692282D02*
X168918571Y-113787520D01*
X168918571Y-113787520D02*
X168870952Y-113977996D01*
X168870952Y-113977996D02*
X168870952Y-114311329D01*
X168870952Y-114311329D02*
X168918571Y-114501805D01*
X168918571Y-114501805D02*
X169013809Y-114597044D01*
X169013809Y-114597044D02*
X169109047Y-114644663D01*
X169109047Y-114644663D02*
X169299523Y-114644663D01*
X169299523Y-114644663D02*
X169394761Y-114597044D01*
X169394761Y-114597044D02*
X169489999Y-114501805D01*
X169489999Y-114501805D02*
X169537618Y-114311329D01*
X169537618Y-114311329D02*
X169537618Y-113977996D01*
X169537618Y-113977996D02*
X169489999Y-113787520D01*
X169489999Y-113787520D02*
X169394761Y-113692282D01*
X169394761Y-113692282D02*
X169299523Y-113644663D01*
X172061427Y-116044663D02*
X172061427Y-115044663D01*
X172061427Y-115044663D02*
X171728094Y-115758948D01*
X171728094Y-115758948D02*
X171394761Y-115044663D01*
X171394761Y-115044663D02*
X171394761Y-116044663D01*
X170728094Y-115044663D02*
X170537618Y-115044663D01*
X170537618Y-115044663D02*
X170442380Y-115092282D01*
X170442380Y-115092282D02*
X170347142Y-115187520D01*
X170347142Y-115187520D02*
X170299523Y-115377996D01*
X170299523Y-115377996D02*
X170299523Y-115711329D01*
X170299523Y-115711329D02*
X170347142Y-115901805D01*
X170347142Y-115901805D02*
X170442380Y-115997044D01*
X170442380Y-115997044D02*
X170537618Y-116044663D01*
X170537618Y-116044663D02*
X170728094Y-116044663D01*
X170728094Y-116044663D02*
X170823332Y-115997044D01*
X170823332Y-115997044D02*
X170918570Y-115901805D01*
X170918570Y-115901805D02*
X170966189Y-115711329D01*
X170966189Y-115711329D02*
X170966189Y-115377996D01*
X170966189Y-115377996D02*
X170918570Y-115187520D01*
X170918570Y-115187520D02*
X170823332Y-115092282D01*
X170823332Y-115092282D02*
X170728094Y-115044663D01*
X169918570Y-115997044D02*
X169775713Y-116044663D01*
X169775713Y-116044663D02*
X169537618Y-116044663D01*
X169537618Y-116044663D02*
X169442380Y-115997044D01*
X169442380Y-115997044D02*
X169394761Y-115949424D01*
X169394761Y-115949424D02*
X169347142Y-115854186D01*
X169347142Y-115854186D02*
X169347142Y-115758948D01*
X169347142Y-115758948D02*
X169394761Y-115663710D01*
X169394761Y-115663710D02*
X169442380Y-115616091D01*
X169442380Y-115616091D02*
X169537618Y-115568472D01*
X169537618Y-115568472D02*
X169728094Y-115520853D01*
X169728094Y-115520853D02*
X169823332Y-115473234D01*
X169823332Y-115473234D02*
X169870951Y-115425615D01*
X169870951Y-115425615D02*
X169918570Y-115330377D01*
X169918570Y-115330377D02*
X169918570Y-115235139D01*
X169918570Y-115235139D02*
X169870951Y-115139901D01*
X169870951Y-115139901D02*
X169823332Y-115092282D01*
X169823332Y-115092282D02*
X169728094Y-115044663D01*
X169728094Y-115044663D02*
X169489999Y-115044663D01*
X169489999Y-115044663D02*
X169347142Y-115092282D01*
X168918570Y-116044663D02*
X168918570Y-115044663D01*
D10*
X102500000Y-76800000D02*
X104300000Y-76800000D01*
X102500000Y-79400000D02*
X104300000Y-79400000D01*
X102500000Y-82200000D02*
X104300000Y-82200000D01*
X102500000Y-84900000D02*
X104300000Y-84900000D01*
X102500000Y-87700000D02*
X102500000Y-76800000D01*
X104300000Y-76800000D02*
X104300000Y-87700000D01*
X104300000Y-87700000D02*
X102500000Y-87700000D01*
X118700000Y-80800000D02*
X118700000Y-84900000D01*
X118700000Y-80800000D02*
X119000000Y-80800000D01*
X118700000Y-84900000D02*
X118300000Y-83700000D01*
X118700000Y-84900000D02*
X119100000Y-83700000D01*
X119000000Y-80800000D02*
X119000000Y-77900000D01*
X123400000Y-113000000D02*
X123400000Y-115700000D01*
X123400000Y-115700000D02*
X128700000Y-115700000D01*
X128700000Y-113000000D02*
X123400000Y-113000000D01*
X128700000Y-115700000D02*
X128700000Y-113000000D01*
X135700000Y-115700000D02*
X135700000Y-118500000D01*
X135700000Y-118500000D02*
X136600000Y-118500000D01*
X136600000Y-115700000D02*
X135700000Y-115700000D01*
X145200000Y-118500000D02*
X146100000Y-118500000D01*
X146100000Y-115700000D02*
X145200000Y-115700000D01*
X146100000Y-118500000D02*
X146100000Y-115700000D01*
X149200000Y-115500000D02*
X149200000Y-118300000D01*
X149200000Y-118300000D02*
X150100000Y-118300000D01*
X150100000Y-115500000D02*
X149200000Y-115500000D01*
X158700000Y-118300000D02*
X159600000Y-118300000D01*
X159600000Y-115500000D02*
X158700000Y-115500000D01*
X159600000Y-118300000D02*
X159600000Y-115500000D01*
X168000000Y-117500000D02*
X168000000Y-116400000D01*
X169000000Y-119000000D02*
X169000000Y-116400000D01*
X175200000Y-115600000D02*
X175200000Y-118400000D01*
X175200000Y-118400000D02*
X176100000Y-118400000D01*
X176100000Y-115600000D02*
X175200000Y-115600000D01*
X184700000Y-118400000D02*
X185600000Y-118400000D01*
X185600000Y-115600000D02*
X184700000Y-115600000D01*
X185600000Y-118400000D02*
X185600000Y-115600000D01*
D11*
X127331051Y-121090475D02*
X127331051Y-120614285D01*
X127045336Y-121185713D02*
X128045336Y-120852380D01*
X128045336Y-120852380D02*
X127045336Y-120519047D01*
X127045336Y-119661904D02*
X127045336Y-120233332D01*
X127045336Y-119947618D02*
X128045336Y-119947618D01*
X128045336Y-119947618D02*
X127902479Y-120042856D01*
X127902479Y-120042856D02*
X127807241Y-120138094D01*
X127807241Y-120138094D02*
X127759622Y-120233332D01*
X127045336Y-118709523D02*
X127045336Y-119280951D01*
X127045336Y-118995237D02*
X128045336Y-118995237D01*
X128045336Y-118995237D02*
X127902479Y-119090475D01*
X127902479Y-119090475D02*
X127807241Y-119185713D01*
X127807241Y-119185713D02*
X127759622Y-119280951D01*
X129740575Y-120742857D02*
X129692956Y-120790476D01*
X129692956Y-120790476D02*
X129645336Y-120933333D01*
X129645336Y-120933333D02*
X129645336Y-121028571D01*
X129645336Y-121028571D02*
X129692956Y-121171428D01*
X129692956Y-121171428D02*
X129788194Y-121266666D01*
X129788194Y-121266666D02*
X129883432Y-121314285D01*
X129883432Y-121314285D02*
X130073908Y-121361904D01*
X130073908Y-121361904D02*
X130216765Y-121361904D01*
X130216765Y-121361904D02*
X130407241Y-121314285D01*
X130407241Y-121314285D02*
X130502479Y-121266666D01*
X130502479Y-121266666D02*
X130597717Y-121171428D01*
X130597717Y-121171428D02*
X130645336Y-121028571D01*
X130645336Y-121028571D02*
X130645336Y-120933333D01*
X130645336Y-120933333D02*
X130597717Y-120790476D01*
X130597717Y-120790476D02*
X130550098Y-120742857D01*
X129645336Y-119790476D02*
X129645336Y-120361904D01*
X129645336Y-120076190D02*
X130645336Y-120076190D01*
X130645336Y-120076190D02*
X130502479Y-120171428D01*
X130502479Y-120171428D02*
X130407241Y-120266666D01*
X130407241Y-120266666D02*
X130359622Y-120361904D01*
X130645336Y-118885714D02*
X130645336Y-119361904D01*
X130645336Y-119361904D02*
X130169146Y-119409523D01*
X130169146Y-119409523D02*
X130216765Y-119361904D01*
X130216765Y-119361904D02*
X130264384Y-119266666D01*
X130264384Y-119266666D02*
X130264384Y-119028571D01*
X130264384Y-119028571D02*
X130216765Y-118933333D01*
X130216765Y-118933333D02*
X130169146Y-118885714D01*
X130169146Y-118885714D02*
X130073908Y-118838095D01*
X130073908Y-118838095D02*
X129835813Y-118838095D01*
X129835813Y-118838095D02*
X129740575Y-118885714D01*
X129740575Y-118885714D02*
X129692956Y-118933333D01*
X129692956Y-118933333D02*
X129645336Y-119028571D01*
X129645336Y-119028571D02*
X129645336Y-119266666D01*
X129645336Y-119266666D02*
X129692956Y-119361904D01*
X129692956Y-119361904D02*
X129740575Y-119409523D01*
X151392956Y-112190475D02*
X151345336Y-112047618D01*
X151345336Y-112047618D02*
X151345336Y-111809523D01*
X151345336Y-111809523D02*
X151392956Y-111714285D01*
X151392956Y-111714285D02*
X151440575Y-111666666D01*
X151440575Y-111666666D02*
X151535813Y-111619047D01*
X151535813Y-111619047D02*
X151631051Y-111619047D01*
X151631051Y-111619047D02*
X151726289Y-111666666D01*
X151726289Y-111666666D02*
X151773908Y-111714285D01*
X151773908Y-111714285D02*
X151821527Y-111809523D01*
X151821527Y-111809523D02*
X151869146Y-111999999D01*
X151869146Y-111999999D02*
X151916765Y-112095237D01*
X151916765Y-112095237D02*
X151964384Y-112142856D01*
X151964384Y-112142856D02*
X152059622Y-112190475D01*
X152059622Y-112190475D02*
X152154860Y-112190475D01*
X152154860Y-112190475D02*
X152250098Y-112142856D01*
X152250098Y-112142856D02*
X152297717Y-112095237D01*
X152297717Y-112095237D02*
X152345336Y-111999999D01*
X152345336Y-111999999D02*
X152345336Y-111761904D01*
X152345336Y-111761904D02*
X152297717Y-111619047D01*
X151440575Y-110619047D02*
X151392956Y-110666666D01*
X151392956Y-110666666D02*
X151345336Y-110809523D01*
X151345336Y-110809523D02*
X151345336Y-110904761D01*
X151345336Y-110904761D02*
X151392956Y-111047618D01*
X151392956Y-111047618D02*
X151488194Y-111142856D01*
X151488194Y-111142856D02*
X151583432Y-111190475D01*
X151583432Y-111190475D02*
X151773908Y-111238094D01*
X151773908Y-111238094D02*
X151916765Y-111238094D01*
X151916765Y-111238094D02*
X152107241Y-111190475D01*
X152107241Y-111190475D02*
X152202479Y-111142856D01*
X152202479Y-111142856D02*
X152297717Y-111047618D01*
X152297717Y-111047618D02*
X152345336Y-110904761D01*
X152345336Y-110904761D02*
X152345336Y-110809523D01*
X152345336Y-110809523D02*
X152297717Y-110666666D01*
X152297717Y-110666666D02*
X152250098Y-110619047D01*
X151345336Y-109714285D02*
X151345336Y-110190475D01*
X151345336Y-110190475D02*
X152345336Y-110190475D01*
X154897717Y-111661904D02*
X154945336Y-111757142D01*
X154945336Y-111757142D02*
X154945336Y-111899999D01*
X154945336Y-111899999D02*
X154897717Y-112042856D01*
X154897717Y-112042856D02*
X154802479Y-112138094D01*
X154802479Y-112138094D02*
X154707241Y-112185713D01*
X154707241Y-112185713D02*
X154516765Y-112233332D01*
X154516765Y-112233332D02*
X154373908Y-112233332D01*
X154373908Y-112233332D02*
X154183432Y-112185713D01*
X154183432Y-112185713D02*
X154088194Y-112138094D01*
X154088194Y-112138094D02*
X153992956Y-112042856D01*
X153992956Y-112042856D02*
X153945336Y-111899999D01*
X153945336Y-111899999D02*
X153945336Y-111804761D01*
X153945336Y-111804761D02*
X153992956Y-111661904D01*
X153992956Y-111661904D02*
X154040575Y-111614285D01*
X154040575Y-111614285D02*
X154373908Y-111614285D01*
X154373908Y-111614285D02*
X154373908Y-111804761D01*
X153945336Y-111185713D02*
X154945336Y-111185713D01*
X154945336Y-111185713D02*
X153945336Y-110614285D01*
X153945336Y-110614285D02*
X154945336Y-110614285D01*
X153945336Y-110138094D02*
X154945336Y-110138094D01*
X154945336Y-110138094D02*
X154945336Y-109899999D01*
X154945336Y-109899999D02*
X154897717Y-109757142D01*
X154897717Y-109757142D02*
X154802479Y-109661904D01*
X154802479Y-109661904D02*
X154707241Y-109614285D01*
X154707241Y-109614285D02*
X154516765Y-109566666D01*
X154516765Y-109566666D02*
X154373908Y-109566666D01*
X154373908Y-109566666D02*
X154183432Y-109614285D01*
X154183432Y-109614285D02*
X154088194Y-109661904D01*
X154088194Y-109661904D02*
X153992956Y-109757142D01*
X153992956Y-109757142D02*
X153945336Y-109899999D01*
X153945336Y-109899999D02*
X153945336Y-110138094D01*
X156392956Y-112314285D02*
X156345336Y-112171428D01*
X156345336Y-112171428D02*
X156345336Y-111933333D01*
X156345336Y-111933333D02*
X156392956Y-111838095D01*
X156392956Y-111838095D02*
X156440575Y-111790476D01*
X156440575Y-111790476D02*
X156535813Y-111742857D01*
X156535813Y-111742857D02*
X156631051Y-111742857D01*
X156631051Y-111742857D02*
X156726289Y-111790476D01*
X156726289Y-111790476D02*
X156773908Y-111838095D01*
X156773908Y-111838095D02*
X156821527Y-111933333D01*
X156821527Y-111933333D02*
X156869146Y-112123809D01*
X156869146Y-112123809D02*
X156916765Y-112219047D01*
X156916765Y-112219047D02*
X156964384Y-112266666D01*
X156964384Y-112266666D02*
X157059622Y-112314285D01*
X157059622Y-112314285D02*
X157154860Y-112314285D01*
X157154860Y-112314285D02*
X157250098Y-112266666D01*
X157250098Y-112266666D02*
X157297717Y-112219047D01*
X157297717Y-112219047D02*
X157345336Y-112123809D01*
X157345336Y-112123809D02*
X157345336Y-111885714D01*
X157345336Y-111885714D02*
X157297717Y-111742857D01*
X156345336Y-111314285D02*
X157345336Y-111314285D01*
X157345336Y-111314285D02*
X157345336Y-111076190D01*
X157345336Y-111076190D02*
X157297717Y-110933333D01*
X157297717Y-110933333D02*
X157202479Y-110838095D01*
X157202479Y-110838095D02*
X157107241Y-110790476D01*
X157107241Y-110790476D02*
X156916765Y-110742857D01*
X156916765Y-110742857D02*
X156773908Y-110742857D01*
X156773908Y-110742857D02*
X156583432Y-110790476D01*
X156583432Y-110790476D02*
X156488194Y-110838095D01*
X156488194Y-110838095D02*
X156392956Y-110933333D01*
X156392956Y-110933333D02*
X156345336Y-111076190D01*
X156345336Y-111076190D02*
X156345336Y-111314285D01*
X156631051Y-110361904D02*
X156631051Y-109885714D01*
X156345336Y-110457142D02*
X157345336Y-110123809D01*
X157345336Y-110123809D02*
X156345336Y-109790476D01*
X177392956Y-112290475D02*
X177345336Y-112147618D01*
X177345336Y-112147618D02*
X177345336Y-111909523D01*
X177345336Y-111909523D02*
X177392956Y-111814285D01*
X177392956Y-111814285D02*
X177440575Y-111766666D01*
X177440575Y-111766666D02*
X177535813Y-111719047D01*
X177535813Y-111719047D02*
X177631051Y-111719047D01*
X177631051Y-111719047D02*
X177726289Y-111766666D01*
X177726289Y-111766666D02*
X177773908Y-111814285D01*
X177773908Y-111814285D02*
X177821527Y-111909523D01*
X177821527Y-111909523D02*
X177869146Y-112099999D01*
X177869146Y-112099999D02*
X177916765Y-112195237D01*
X177916765Y-112195237D02*
X177964384Y-112242856D01*
X177964384Y-112242856D02*
X178059622Y-112290475D01*
X178059622Y-112290475D02*
X178154860Y-112290475D01*
X178154860Y-112290475D02*
X178250098Y-112242856D01*
X178250098Y-112242856D02*
X178297717Y-112195237D01*
X178297717Y-112195237D02*
X178345336Y-112099999D01*
X178345336Y-112099999D02*
X178345336Y-111861904D01*
X178345336Y-111861904D02*
X178297717Y-111719047D01*
X177440575Y-110719047D02*
X177392956Y-110766666D01*
X177392956Y-110766666D02*
X177345336Y-110909523D01*
X177345336Y-110909523D02*
X177345336Y-111004761D01*
X177345336Y-111004761D02*
X177392956Y-111147618D01*
X177392956Y-111147618D02*
X177488194Y-111242856D01*
X177488194Y-111242856D02*
X177583432Y-111290475D01*
X177583432Y-111290475D02*
X177773908Y-111338094D01*
X177773908Y-111338094D02*
X177916765Y-111338094D01*
X177916765Y-111338094D02*
X178107241Y-111290475D01*
X178107241Y-111290475D02*
X178202479Y-111242856D01*
X178202479Y-111242856D02*
X178297717Y-111147618D01*
X178297717Y-111147618D02*
X178345336Y-111004761D01*
X178345336Y-111004761D02*
X178345336Y-110909523D01*
X178345336Y-110909523D02*
X178297717Y-110766666D01*
X178297717Y-110766666D02*
X178250098Y-110719047D01*
X177345336Y-109814285D02*
X177345336Y-110290475D01*
X177345336Y-110290475D02*
X178345336Y-110290475D01*
X180897717Y-111761904D02*
X180945336Y-111857142D01*
X180945336Y-111857142D02*
X180945336Y-111999999D01*
X180945336Y-111999999D02*
X180897717Y-112142856D01*
X180897717Y-112142856D02*
X180802479Y-112238094D01*
X180802479Y-112238094D02*
X180707241Y-112285713D01*
X180707241Y-112285713D02*
X180516765Y-112333332D01*
X180516765Y-112333332D02*
X180373908Y-112333332D01*
X180373908Y-112333332D02*
X180183432Y-112285713D01*
X180183432Y-112285713D02*
X180088194Y-112238094D01*
X180088194Y-112238094D02*
X179992956Y-112142856D01*
X179992956Y-112142856D02*
X179945336Y-111999999D01*
X179945336Y-111999999D02*
X179945336Y-111904761D01*
X179945336Y-111904761D02*
X179992956Y-111761904D01*
X179992956Y-111761904D02*
X180040575Y-111714285D01*
X180040575Y-111714285D02*
X180373908Y-111714285D01*
X180373908Y-111714285D02*
X180373908Y-111904761D01*
X179945336Y-111285713D02*
X180945336Y-111285713D01*
X180945336Y-111285713D02*
X179945336Y-110714285D01*
X179945336Y-110714285D02*
X180945336Y-110714285D01*
X179945336Y-110238094D02*
X180945336Y-110238094D01*
X180945336Y-110238094D02*
X180945336Y-109999999D01*
X180945336Y-109999999D02*
X180897717Y-109857142D01*
X180897717Y-109857142D02*
X180802479Y-109761904D01*
X180802479Y-109761904D02*
X180707241Y-109714285D01*
X180707241Y-109714285D02*
X180516765Y-109666666D01*
X180516765Y-109666666D02*
X180373908Y-109666666D01*
X180373908Y-109666666D02*
X180183432Y-109714285D01*
X180183432Y-109714285D02*
X180088194Y-109761904D01*
X180088194Y-109761904D02*
X179992956Y-109857142D01*
X179992956Y-109857142D02*
X179945336Y-109999999D01*
X179945336Y-109999999D02*
X179945336Y-110238094D01*
X182392956Y-112414285D02*
X182345336Y-112271428D01*
X182345336Y-112271428D02*
X182345336Y-112033333D01*
X182345336Y-112033333D02*
X182392956Y-111938095D01*
X182392956Y-111938095D02*
X182440575Y-111890476D01*
X182440575Y-111890476D02*
X182535813Y-111842857D01*
X182535813Y-111842857D02*
X182631051Y-111842857D01*
X182631051Y-111842857D02*
X182726289Y-111890476D01*
X182726289Y-111890476D02*
X182773908Y-111938095D01*
X182773908Y-111938095D02*
X182821527Y-112033333D01*
X182821527Y-112033333D02*
X182869146Y-112223809D01*
X182869146Y-112223809D02*
X182916765Y-112319047D01*
X182916765Y-112319047D02*
X182964384Y-112366666D01*
X182964384Y-112366666D02*
X183059622Y-112414285D01*
X183059622Y-112414285D02*
X183154860Y-112414285D01*
X183154860Y-112414285D02*
X183250098Y-112366666D01*
X183250098Y-112366666D02*
X183297717Y-112319047D01*
X183297717Y-112319047D02*
X183345336Y-112223809D01*
X183345336Y-112223809D02*
X183345336Y-111985714D01*
X183345336Y-111985714D02*
X183297717Y-111842857D01*
X182345336Y-111414285D02*
X183345336Y-111414285D01*
X183345336Y-111414285D02*
X183345336Y-111176190D01*
X183345336Y-111176190D02*
X183297717Y-111033333D01*
X183297717Y-111033333D02*
X183202479Y-110938095D01*
X183202479Y-110938095D02*
X183107241Y-110890476D01*
X183107241Y-110890476D02*
X182916765Y-110842857D01*
X182916765Y-110842857D02*
X182773908Y-110842857D01*
X182773908Y-110842857D02*
X182583432Y-110890476D01*
X182583432Y-110890476D02*
X182488194Y-110938095D01*
X182488194Y-110938095D02*
X182392956Y-111033333D01*
X182392956Y-111033333D02*
X182345336Y-111176190D01*
X182345336Y-111176190D02*
X182345336Y-111414285D01*
X182631051Y-110461904D02*
X182631051Y-109985714D01*
X182345336Y-110557142D02*
X183345336Y-110223809D01*
X183345336Y-110223809D02*
X182345336Y-109890476D01*
X178385057Y-74629803D02*
X178861247Y-74629803D01*
X178861247Y-74629803D02*
X178861247Y-73629803D01*
X177861247Y-73629803D02*
X177670771Y-73629803D01*
X177670771Y-73629803D02*
X177575533Y-73677422D01*
X177575533Y-73677422D02*
X177480295Y-73772660D01*
X177480295Y-73772660D02*
X177432676Y-73963136D01*
X177432676Y-73963136D02*
X177432676Y-74296469D01*
X177432676Y-74296469D02*
X177480295Y-74486945D01*
X177480295Y-74486945D02*
X177575533Y-74582184D01*
X177575533Y-74582184D02*
X177670771Y-74629803D01*
X177670771Y-74629803D02*
X177861247Y-74629803D01*
X177861247Y-74629803D02*
X177956485Y-74582184D01*
X177956485Y-74582184D02*
X178051723Y-74486945D01*
X178051723Y-74486945D02*
X178099342Y-74296469D01*
X178099342Y-74296469D02*
X178099342Y-73963136D01*
X178099342Y-73963136D02*
X178051723Y-73772660D01*
X178051723Y-73772660D02*
X177956485Y-73677422D01*
X177956485Y-73677422D02*
X177861247Y-73629803D01*
X176432676Y-74629803D02*
X176766009Y-74153612D01*
X177004104Y-74629803D02*
X177004104Y-73629803D01*
X177004104Y-73629803D02*
X176623152Y-73629803D01*
X176623152Y-73629803D02*
X176527914Y-73677422D01*
X176527914Y-73677422D02*
X176480295Y-73725041D01*
X176480295Y-73725041D02*
X176432676Y-73820279D01*
X176432676Y-73820279D02*
X176432676Y-73963136D01*
X176432676Y-73963136D02*
X176480295Y-74058374D01*
X176480295Y-74058374D02*
X176527914Y-74105993D01*
X176527914Y-74105993D02*
X176623152Y-74153612D01*
X176623152Y-74153612D02*
X177004104Y-74153612D01*
X176051723Y-74344088D02*
X175575533Y-74344088D01*
X176146961Y-74629803D02*
X175813628Y-73629803D01*
X175813628Y-73629803D02*
X175480295Y-74629803D01*
X174051723Y-74105993D02*
X173908866Y-74153612D01*
X173908866Y-74153612D02*
X173861247Y-74201231D01*
X173861247Y-74201231D02*
X173813628Y-74296469D01*
X173813628Y-74296469D02*
X173813628Y-74439326D01*
X173813628Y-74439326D02*
X173861247Y-74534564D01*
X173861247Y-74534564D02*
X173908866Y-74582184D01*
X173908866Y-74582184D02*
X174004104Y-74629803D01*
X174004104Y-74629803D02*
X174385056Y-74629803D01*
X174385056Y-74629803D02*
X174385056Y-73629803D01*
X174385056Y-73629803D02*
X174051723Y-73629803D01*
X174051723Y-73629803D02*
X173956485Y-73677422D01*
X173956485Y-73677422D02*
X173908866Y-73725041D01*
X173908866Y-73725041D02*
X173861247Y-73820279D01*
X173861247Y-73820279D02*
X173861247Y-73915517D01*
X173861247Y-73915517D02*
X173908866Y-74010755D01*
X173908866Y-74010755D02*
X173956485Y-74058374D01*
X173956485Y-74058374D02*
X174051723Y-74105993D01*
X174051723Y-74105993D02*
X174385056Y-74105993D01*
X173194580Y-73629803D02*
X173004104Y-73629803D01*
X173004104Y-73629803D02*
X172908866Y-73677422D01*
X172908866Y-73677422D02*
X172813628Y-73772660D01*
X172813628Y-73772660D02*
X172766009Y-73963136D01*
X172766009Y-73963136D02*
X172766009Y-74296469D01*
X172766009Y-74296469D02*
X172813628Y-74486945D01*
X172813628Y-74486945D02*
X172908866Y-74582184D01*
X172908866Y-74582184D02*
X173004104Y-74629803D01*
X173004104Y-74629803D02*
X173194580Y-74629803D01*
X173194580Y-74629803D02*
X173289818Y-74582184D01*
X173289818Y-74582184D02*
X173385056Y-74486945D01*
X173385056Y-74486945D02*
X173432675Y-74296469D01*
X173432675Y-74296469D02*
X173432675Y-73963136D01*
X173432675Y-73963136D02*
X173385056Y-73772660D01*
X173385056Y-73772660D02*
X173289818Y-73677422D01*
X173289818Y-73677422D02*
X173194580Y-73629803D01*
X172385056Y-74344088D02*
X171908866Y-74344088D01*
X172480294Y-74629803D02*
X172146961Y-73629803D01*
X172146961Y-73629803D02*
X171813628Y-74629803D01*
X170908866Y-74629803D02*
X171242199Y-74153612D01*
X171480294Y-74629803D02*
X171480294Y-73629803D01*
X171480294Y-73629803D02*
X171099342Y-73629803D01*
X171099342Y-73629803D02*
X171004104Y-73677422D01*
X171004104Y-73677422D02*
X170956485Y-73725041D01*
X170956485Y-73725041D02*
X170908866Y-73820279D01*
X170908866Y-73820279D02*
X170908866Y-73963136D01*
X170908866Y-73963136D02*
X170956485Y-74058374D01*
X170956485Y-74058374D02*
X171004104Y-74105993D01*
X171004104Y-74105993D02*
X171099342Y-74153612D01*
X171099342Y-74153612D02*
X171480294Y-74153612D01*
X170480294Y-74629803D02*
X170480294Y-73629803D01*
X170480294Y-73629803D02*
X170242199Y-73629803D01*
X170242199Y-73629803D02*
X170099342Y-73677422D01*
X170099342Y-73677422D02*
X170004104Y-73772660D01*
X170004104Y-73772660D02*
X169956485Y-73867898D01*
X169956485Y-73867898D02*
X169908866Y-74058374D01*
X169908866Y-74058374D02*
X169908866Y-74201231D01*
X169908866Y-74201231D02*
X169956485Y-74391707D01*
X169956485Y-74391707D02*
X170004104Y-74486945D01*
X170004104Y-74486945D02*
X170099342Y-74582184D01*
X170099342Y-74582184D02*
X170242199Y-74629803D01*
X170242199Y-74629803D02*
X170480294Y-74629803D01*
X178289819Y-76239747D02*
X178623152Y-75763556D01*
X178861247Y-76239747D02*
X178861247Y-75239747D01*
X178861247Y-75239747D02*
X178480295Y-75239747D01*
X178480295Y-75239747D02*
X178385057Y-75287366D01*
X178385057Y-75287366D02*
X178337438Y-75334985D01*
X178337438Y-75334985D02*
X178289819Y-75430223D01*
X178289819Y-75430223D02*
X178289819Y-75573080D01*
X178289819Y-75573080D02*
X178337438Y-75668318D01*
X178337438Y-75668318D02*
X178385057Y-75715937D01*
X178385057Y-75715937D02*
X178480295Y-75763556D01*
X178480295Y-75763556D02*
X178861247Y-75763556D01*
X177480295Y-76192128D02*
X177575533Y-76239747D01*
X177575533Y-76239747D02*
X177766009Y-76239747D01*
X177766009Y-76239747D02*
X177861247Y-76192128D01*
X177861247Y-76192128D02*
X177908866Y-76096889D01*
X177908866Y-76096889D02*
X177908866Y-75715937D01*
X177908866Y-75715937D02*
X177861247Y-75620699D01*
X177861247Y-75620699D02*
X177766009Y-75573080D01*
X177766009Y-75573080D02*
X177575533Y-75573080D01*
X177575533Y-75573080D02*
X177480295Y-75620699D01*
X177480295Y-75620699D02*
X177432676Y-75715937D01*
X177432676Y-75715937D02*
X177432676Y-75811175D01*
X177432676Y-75811175D02*
X177908866Y-75906413D01*
X177099342Y-75573080D02*
X176861247Y-76239747D01*
X176861247Y-76239747D02*
X176623152Y-75573080D01*
X176242199Y-76239747D02*
X176242199Y-75573080D01*
X176242199Y-75239747D02*
X176289818Y-75287366D01*
X176289818Y-75287366D02*
X176242199Y-75334985D01*
X176242199Y-75334985D02*
X176194580Y-75287366D01*
X176194580Y-75287366D02*
X176242199Y-75239747D01*
X176242199Y-75239747D02*
X176242199Y-75334985D01*
X175813628Y-76192128D02*
X175718390Y-76239747D01*
X175718390Y-76239747D02*
X175527914Y-76239747D01*
X175527914Y-76239747D02*
X175432676Y-76192128D01*
X175432676Y-76192128D02*
X175385057Y-76096889D01*
X175385057Y-76096889D02*
X175385057Y-76049270D01*
X175385057Y-76049270D02*
X175432676Y-75954032D01*
X175432676Y-75954032D02*
X175527914Y-75906413D01*
X175527914Y-75906413D02*
X175670771Y-75906413D01*
X175670771Y-75906413D02*
X175766009Y-75858794D01*
X175766009Y-75858794D02*
X175813628Y-75763556D01*
X175813628Y-75763556D02*
X175813628Y-75715937D01*
X175813628Y-75715937D02*
X175766009Y-75620699D01*
X175766009Y-75620699D02*
X175670771Y-75573080D01*
X175670771Y-75573080D02*
X175527914Y-75573080D01*
X175527914Y-75573080D02*
X175432676Y-75620699D01*
X174956485Y-76239747D02*
X174956485Y-75573080D01*
X174956485Y-75239747D02*
X175004104Y-75287366D01*
X175004104Y-75287366D02*
X174956485Y-75334985D01*
X174956485Y-75334985D02*
X174908866Y-75287366D01*
X174908866Y-75287366D02*
X174956485Y-75239747D01*
X174956485Y-75239747D02*
X174956485Y-75334985D01*
X174337438Y-76239747D02*
X174432676Y-76192128D01*
X174432676Y-76192128D02*
X174480295Y-76144508D01*
X174480295Y-76144508D02*
X174527914Y-76049270D01*
X174527914Y-76049270D02*
X174527914Y-75763556D01*
X174527914Y-75763556D02*
X174480295Y-75668318D01*
X174480295Y-75668318D02*
X174432676Y-75620699D01*
X174432676Y-75620699D02*
X174337438Y-75573080D01*
X174337438Y-75573080D02*
X174194581Y-75573080D01*
X174194581Y-75573080D02*
X174099343Y-75620699D01*
X174099343Y-75620699D02*
X174051724Y-75668318D01*
X174051724Y-75668318D02*
X174004105Y-75763556D01*
X174004105Y-75763556D02*
X174004105Y-76049270D01*
X174004105Y-76049270D02*
X174051724Y-76144508D01*
X174051724Y-76144508D02*
X174099343Y-76192128D01*
X174099343Y-76192128D02*
X174194581Y-76239747D01*
X174194581Y-76239747D02*
X174337438Y-76239747D01*
X173575533Y-75573080D02*
X173575533Y-76239747D01*
X173575533Y-75668318D02*
X173527914Y-75620699D01*
X173527914Y-75620699D02*
X173432676Y-75573080D01*
X173432676Y-75573080D02*
X173289819Y-75573080D01*
X173289819Y-75573080D02*
X173194581Y-75620699D01*
X173194581Y-75620699D02*
X173146962Y-75715937D01*
X173146962Y-75715937D02*
X173146962Y-76239747D01*
X172670771Y-76144508D02*
X172623152Y-76192128D01*
X172623152Y-76192128D02*
X172670771Y-76239747D01*
X172670771Y-76239747D02*
X172718390Y-76192128D01*
X172718390Y-76192128D02*
X172670771Y-76144508D01*
X172670771Y-76144508D02*
X172670771Y-76239747D01*
X172670771Y-75620699D02*
X172623152Y-75668318D01*
X172623152Y-75668318D02*
X172670771Y-75715937D01*
X172670771Y-75715937D02*
X172718390Y-75668318D01*
X172718390Y-75668318D02*
X172670771Y-75620699D01*
X172670771Y-75620699D02*
X172670771Y-75715937D01*
X170861248Y-76239747D02*
X171194581Y-75763556D01*
X171432676Y-76239747D02*
X171432676Y-75239747D01*
X171432676Y-75239747D02*
X171051724Y-75239747D01*
X171051724Y-75239747D02*
X170956486Y-75287366D01*
X170956486Y-75287366D02*
X170908867Y-75334985D01*
X170908867Y-75334985D02*
X170861248Y-75430223D01*
X170861248Y-75430223D02*
X170861248Y-75573080D01*
X170861248Y-75573080D02*
X170908867Y-75668318D01*
X170908867Y-75668318D02*
X170956486Y-75715937D01*
X170956486Y-75715937D02*
X171051724Y-75763556D01*
X171051724Y-75763556D02*
X171432676Y-75763556D01*
X170432676Y-75715937D02*
X170099343Y-75715937D01*
X169956486Y-76239747D02*
X170432676Y-76239747D01*
X170432676Y-76239747D02*
X170432676Y-75239747D01*
X170432676Y-75239747D02*
X169956486Y-75239747D01*
X169670771Y-75239747D02*
X169337438Y-76239747D01*
X169337438Y-76239747D02*
X169004105Y-75239747D01*
X167337438Y-76144508D02*
X167385057Y-76192128D01*
X167385057Y-76192128D02*
X167527914Y-76239747D01*
X167527914Y-76239747D02*
X167623152Y-76239747D01*
X167623152Y-76239747D02*
X167766009Y-76192128D01*
X167766009Y-76192128D02*
X167861247Y-76096889D01*
X167861247Y-76096889D02*
X167908866Y-76001651D01*
X167908866Y-76001651D02*
X167956485Y-75811175D01*
X167956485Y-75811175D02*
X167956485Y-75668318D01*
X167956485Y-75668318D02*
X167908866Y-75477842D01*
X167908866Y-75477842D02*
X167861247Y-75382604D01*
X167861247Y-75382604D02*
X167766009Y-75287366D01*
X167766009Y-75287366D02*
X167623152Y-75239747D01*
X167623152Y-75239747D02*
X167527914Y-75239747D01*
X167527914Y-75239747D02*
X167385057Y-75287366D01*
X167385057Y-75287366D02*
X167337438Y-75334985D01*
X178861247Y-77849691D02*
X178861247Y-76849691D01*
X178861247Y-76849691D02*
X178623152Y-76849691D01*
X178623152Y-76849691D02*
X178480295Y-76897310D01*
X178480295Y-76897310D02*
X178385057Y-76992548D01*
X178385057Y-76992548D02*
X178337438Y-77087786D01*
X178337438Y-77087786D02*
X178289819Y-77278262D01*
X178289819Y-77278262D02*
X178289819Y-77421119D01*
X178289819Y-77421119D02*
X178337438Y-77611595D01*
X178337438Y-77611595D02*
X178385057Y-77706833D01*
X178385057Y-77706833D02*
X178480295Y-77802072D01*
X178480295Y-77802072D02*
X178623152Y-77849691D01*
X178623152Y-77849691D02*
X178861247Y-77849691D01*
X177480295Y-77802072D02*
X177575533Y-77849691D01*
X177575533Y-77849691D02*
X177766009Y-77849691D01*
X177766009Y-77849691D02*
X177861247Y-77802072D01*
X177861247Y-77802072D02*
X177908866Y-77706833D01*
X177908866Y-77706833D02*
X177908866Y-77325881D01*
X177908866Y-77325881D02*
X177861247Y-77230643D01*
X177861247Y-77230643D02*
X177766009Y-77183024D01*
X177766009Y-77183024D02*
X177575533Y-77183024D01*
X177575533Y-77183024D02*
X177480295Y-77230643D01*
X177480295Y-77230643D02*
X177432676Y-77325881D01*
X177432676Y-77325881D02*
X177432676Y-77421119D01*
X177432676Y-77421119D02*
X177908866Y-77516357D01*
X177051723Y-77802072D02*
X176956485Y-77849691D01*
X176956485Y-77849691D02*
X176766009Y-77849691D01*
X176766009Y-77849691D02*
X176670771Y-77802072D01*
X176670771Y-77802072D02*
X176623152Y-77706833D01*
X176623152Y-77706833D02*
X176623152Y-77659214D01*
X176623152Y-77659214D02*
X176670771Y-77563976D01*
X176670771Y-77563976D02*
X176766009Y-77516357D01*
X176766009Y-77516357D02*
X176908866Y-77516357D01*
X176908866Y-77516357D02*
X177004104Y-77468738D01*
X177004104Y-77468738D02*
X177051723Y-77373500D01*
X177051723Y-77373500D02*
X177051723Y-77325881D01*
X177051723Y-77325881D02*
X177004104Y-77230643D01*
X177004104Y-77230643D02*
X176908866Y-77183024D01*
X176908866Y-77183024D02*
X176766009Y-77183024D01*
X176766009Y-77183024D02*
X176670771Y-77230643D01*
X176194580Y-77849691D02*
X176194580Y-77183024D01*
X176194580Y-76849691D02*
X176242199Y-76897310D01*
X176242199Y-76897310D02*
X176194580Y-76944929D01*
X176194580Y-76944929D02*
X176146961Y-76897310D01*
X176146961Y-76897310D02*
X176194580Y-76849691D01*
X176194580Y-76849691D02*
X176194580Y-76944929D01*
X175289819Y-77183024D02*
X175289819Y-77992548D01*
X175289819Y-77992548D02*
X175337438Y-78087786D01*
X175337438Y-78087786D02*
X175385057Y-78135405D01*
X175385057Y-78135405D02*
X175480295Y-78183024D01*
X175480295Y-78183024D02*
X175623152Y-78183024D01*
X175623152Y-78183024D02*
X175718390Y-78135405D01*
X175289819Y-77802072D02*
X175385057Y-77849691D01*
X175385057Y-77849691D02*
X175575533Y-77849691D01*
X175575533Y-77849691D02*
X175670771Y-77802072D01*
X175670771Y-77802072D02*
X175718390Y-77754452D01*
X175718390Y-77754452D02*
X175766009Y-77659214D01*
X175766009Y-77659214D02*
X175766009Y-77373500D01*
X175766009Y-77373500D02*
X175718390Y-77278262D01*
X175718390Y-77278262D02*
X175670771Y-77230643D01*
X175670771Y-77230643D02*
X175575533Y-77183024D01*
X175575533Y-77183024D02*
X175385057Y-77183024D01*
X175385057Y-77183024D02*
X175289819Y-77230643D01*
X174813628Y-77183024D02*
X174813628Y-77849691D01*
X174813628Y-77278262D02*
X174766009Y-77230643D01*
X174766009Y-77230643D02*
X174670771Y-77183024D01*
X174670771Y-77183024D02*
X174527914Y-77183024D01*
X174527914Y-77183024D02*
X174432676Y-77230643D01*
X174432676Y-77230643D02*
X174385057Y-77325881D01*
X174385057Y-77325881D02*
X174385057Y-77849691D01*
X173527914Y-77802072D02*
X173623152Y-77849691D01*
X173623152Y-77849691D02*
X173813628Y-77849691D01*
X173813628Y-77849691D02*
X173908866Y-77802072D01*
X173908866Y-77802072D02*
X173956485Y-77706833D01*
X173956485Y-77706833D02*
X173956485Y-77325881D01*
X173956485Y-77325881D02*
X173908866Y-77230643D01*
X173908866Y-77230643D02*
X173813628Y-77183024D01*
X173813628Y-77183024D02*
X173623152Y-77183024D01*
X173623152Y-77183024D02*
X173527914Y-77230643D01*
X173527914Y-77230643D02*
X173480295Y-77325881D01*
X173480295Y-77325881D02*
X173480295Y-77421119D01*
X173480295Y-77421119D02*
X173956485Y-77516357D01*
X173051723Y-77849691D02*
X173051723Y-77183024D01*
X173051723Y-77373500D02*
X173004104Y-77278262D01*
X173004104Y-77278262D02*
X172956485Y-77230643D01*
X172956485Y-77230643D02*
X172861247Y-77183024D01*
X172861247Y-77183024D02*
X172766009Y-77183024D01*
X172432675Y-77754452D02*
X172385056Y-77802072D01*
X172385056Y-77802072D02*
X172432675Y-77849691D01*
X172432675Y-77849691D02*
X172480294Y-77802072D01*
X172480294Y-77802072D02*
X172432675Y-77754452D01*
X172432675Y-77754452D02*
X172432675Y-77849691D01*
X172432675Y-77230643D02*
X172385056Y-77278262D01*
X172385056Y-77278262D02*
X172432675Y-77325881D01*
X172432675Y-77325881D02*
X172480294Y-77278262D01*
X172480294Y-77278262D02*
X172432675Y-77230643D01*
X172432675Y-77230643D02*
X172432675Y-77325881D01*
X171194580Y-77849691D02*
X171194580Y-76849691D01*
X171194580Y-76849691D02*
X170813628Y-76849691D01*
X170813628Y-76849691D02*
X170718390Y-76897310D01*
X170718390Y-76897310D02*
X170670771Y-76944929D01*
X170670771Y-76944929D02*
X170623152Y-77040167D01*
X170623152Y-77040167D02*
X170623152Y-77183024D01*
X170623152Y-77183024D02*
X170670771Y-77278262D01*
X170670771Y-77278262D02*
X170718390Y-77325881D01*
X170718390Y-77325881D02*
X170813628Y-77373500D01*
X170813628Y-77373500D02*
X171194580Y-77373500D01*
X169813628Y-77802072D02*
X169908866Y-77849691D01*
X169908866Y-77849691D02*
X170099342Y-77849691D01*
X170099342Y-77849691D02*
X170194580Y-77802072D01*
X170194580Y-77802072D02*
X170242199Y-77706833D01*
X170242199Y-77706833D02*
X170242199Y-77325881D01*
X170242199Y-77325881D02*
X170194580Y-77230643D01*
X170194580Y-77230643D02*
X170099342Y-77183024D01*
X170099342Y-77183024D02*
X169908866Y-77183024D01*
X169908866Y-77183024D02*
X169813628Y-77230643D01*
X169813628Y-77230643D02*
X169766009Y-77325881D01*
X169766009Y-77325881D02*
X169766009Y-77421119D01*
X169766009Y-77421119D02*
X170242199Y-77516357D01*
X169480294Y-77183024D02*
X169099342Y-77183024D01*
X169337437Y-76849691D02*
X169337437Y-77706833D01*
X169337437Y-77706833D02*
X169289818Y-77802072D01*
X169289818Y-77802072D02*
X169194580Y-77849691D01*
X169194580Y-77849691D02*
X169099342Y-77849691D01*
X168385056Y-77802072D02*
X168480294Y-77849691D01*
X168480294Y-77849691D02*
X168670770Y-77849691D01*
X168670770Y-77849691D02*
X168766008Y-77802072D01*
X168766008Y-77802072D02*
X168813627Y-77706833D01*
X168813627Y-77706833D02*
X168813627Y-77325881D01*
X168813627Y-77325881D02*
X168766008Y-77230643D01*
X168766008Y-77230643D02*
X168670770Y-77183024D01*
X168670770Y-77183024D02*
X168480294Y-77183024D01*
X168480294Y-77183024D02*
X168385056Y-77230643D01*
X168385056Y-77230643D02*
X168337437Y-77325881D01*
X168337437Y-77325881D02*
X168337437Y-77421119D01*
X168337437Y-77421119D02*
X168813627Y-77516357D01*
X167908865Y-77849691D02*
X167908865Y-77183024D01*
X167908865Y-77373500D02*
X167861246Y-77278262D01*
X167861246Y-77278262D02*
X167813627Y-77230643D01*
X167813627Y-77230643D02*
X167718389Y-77183024D01*
X167718389Y-77183024D02*
X167623151Y-77183024D01*
X166527912Y-77849691D02*
X166527912Y-76849691D01*
X166527912Y-77325881D02*
X165956484Y-77325881D01*
X165956484Y-77849691D02*
X165956484Y-76849691D01*
X165051722Y-77849691D02*
X165051722Y-77325881D01*
X165051722Y-77325881D02*
X165099341Y-77230643D01*
X165099341Y-77230643D02*
X165194579Y-77183024D01*
X165194579Y-77183024D02*
X165385055Y-77183024D01*
X165385055Y-77183024D02*
X165480293Y-77230643D01*
X165051722Y-77802072D02*
X165146960Y-77849691D01*
X165146960Y-77849691D02*
X165385055Y-77849691D01*
X165385055Y-77849691D02*
X165480293Y-77802072D01*
X165480293Y-77802072D02*
X165527912Y-77706833D01*
X165527912Y-77706833D02*
X165527912Y-77611595D01*
X165527912Y-77611595D02*
X165480293Y-77516357D01*
X165480293Y-77516357D02*
X165385055Y-77468738D01*
X165385055Y-77468738D02*
X165146960Y-77468738D01*
X165146960Y-77468738D02*
X165051722Y-77421119D01*
X164575531Y-77183024D02*
X164575531Y-77849691D01*
X164575531Y-77278262D02*
X164527912Y-77230643D01*
X164527912Y-77230643D02*
X164432674Y-77183024D01*
X164432674Y-77183024D02*
X164289817Y-77183024D01*
X164289817Y-77183024D02*
X164194579Y-77230643D01*
X164194579Y-77230643D02*
X164146960Y-77325881D01*
X164146960Y-77325881D02*
X164146960Y-77849691D01*
X163242198Y-77802072D02*
X163337436Y-77849691D01*
X163337436Y-77849691D02*
X163527912Y-77849691D01*
X163527912Y-77849691D02*
X163623150Y-77802072D01*
X163623150Y-77802072D02*
X163670769Y-77754452D01*
X163670769Y-77754452D02*
X163718388Y-77659214D01*
X163718388Y-77659214D02*
X163718388Y-77373500D01*
X163718388Y-77373500D02*
X163670769Y-77278262D01*
X163670769Y-77278262D02*
X163623150Y-77230643D01*
X163623150Y-77230643D02*
X163527912Y-77183024D01*
X163527912Y-77183024D02*
X163337436Y-77183024D01*
X163337436Y-77183024D02*
X163242198Y-77230643D01*
X162385055Y-77849691D02*
X162385055Y-77325881D01*
X162385055Y-77325881D02*
X162432674Y-77230643D01*
X162432674Y-77230643D02*
X162527912Y-77183024D01*
X162527912Y-77183024D02*
X162718388Y-77183024D01*
X162718388Y-77183024D02*
X162813626Y-77230643D01*
X162385055Y-77802072D02*
X162480293Y-77849691D01*
X162480293Y-77849691D02*
X162718388Y-77849691D01*
X162718388Y-77849691D02*
X162813626Y-77802072D01*
X162813626Y-77802072D02*
X162861245Y-77706833D01*
X162861245Y-77706833D02*
X162861245Y-77611595D01*
X162861245Y-77611595D02*
X162813626Y-77516357D01*
X162813626Y-77516357D02*
X162718388Y-77468738D01*
X162718388Y-77468738D02*
X162480293Y-77468738D01*
X162480293Y-77468738D02*
X162385055Y-77421119D01*
X161908864Y-77849691D02*
X161908864Y-76849691D01*
X161813626Y-77468738D02*
X161527912Y-77849691D01*
X161527912Y-77183024D02*
X161908864Y-77563976D01*
X178861247Y-79459635D02*
X178861247Y-78459635D01*
X178861247Y-78459635D02*
X178527914Y-79173920D01*
X178527914Y-79173920D02*
X178194581Y-78459635D01*
X178194581Y-78459635D02*
X178194581Y-79459635D01*
X177146962Y-79364396D02*
X177194581Y-79412016D01*
X177194581Y-79412016D02*
X177337438Y-79459635D01*
X177337438Y-79459635D02*
X177432676Y-79459635D01*
X177432676Y-79459635D02*
X177575533Y-79412016D01*
X177575533Y-79412016D02*
X177670771Y-79316777D01*
X177670771Y-79316777D02*
X177718390Y-79221539D01*
X177718390Y-79221539D02*
X177766009Y-79031063D01*
X177766009Y-79031063D02*
X177766009Y-78888206D01*
X177766009Y-78888206D02*
X177718390Y-78697730D01*
X177718390Y-78697730D02*
X177670771Y-78602492D01*
X177670771Y-78602492D02*
X177575533Y-78507254D01*
X177575533Y-78507254D02*
X177432676Y-78459635D01*
X177432676Y-78459635D02*
X177337438Y-78459635D01*
X177337438Y-78459635D02*
X177194581Y-78507254D01*
X177194581Y-78507254D02*
X177146962Y-78554873D01*
X176718390Y-78459635D02*
X176718390Y-79269158D01*
X176718390Y-79269158D02*
X176670771Y-79364396D01*
X176670771Y-79364396D02*
X176623152Y-79412016D01*
X176623152Y-79412016D02*
X176527914Y-79459635D01*
X176527914Y-79459635D02*
X176337438Y-79459635D01*
X176337438Y-79459635D02*
X176242200Y-79412016D01*
X176242200Y-79412016D02*
X176194581Y-79364396D01*
X176194581Y-79364396D02*
X176146962Y-79269158D01*
X176146962Y-79269158D02*
X176146962Y-78459635D01*
X175670771Y-79364396D02*
X175623152Y-79412016D01*
X175623152Y-79412016D02*
X175670771Y-79459635D01*
X175670771Y-79459635D02*
X175718390Y-79412016D01*
X175718390Y-79412016D02*
X175670771Y-79364396D01*
X175670771Y-79364396D02*
X175670771Y-79459635D01*
X175670771Y-78840587D02*
X175623152Y-78888206D01*
X175623152Y-78888206D02*
X175670771Y-78935825D01*
X175670771Y-78935825D02*
X175718390Y-78888206D01*
X175718390Y-78888206D02*
X175670771Y-78840587D01*
X175670771Y-78840587D02*
X175670771Y-78935825D01*
X174480295Y-79412016D02*
X174337438Y-79459635D01*
X174337438Y-79459635D02*
X174099343Y-79459635D01*
X174099343Y-79459635D02*
X174004105Y-79412016D01*
X174004105Y-79412016D02*
X173956486Y-79364396D01*
X173956486Y-79364396D02*
X173908867Y-79269158D01*
X173908867Y-79269158D02*
X173908867Y-79173920D01*
X173908867Y-79173920D02*
X173956486Y-79078682D01*
X173956486Y-79078682D02*
X174004105Y-79031063D01*
X174004105Y-79031063D02*
X174099343Y-78983444D01*
X174099343Y-78983444D02*
X174289819Y-78935825D01*
X174289819Y-78935825D02*
X174385057Y-78888206D01*
X174385057Y-78888206D02*
X174432676Y-78840587D01*
X174432676Y-78840587D02*
X174480295Y-78745349D01*
X174480295Y-78745349D02*
X174480295Y-78650111D01*
X174480295Y-78650111D02*
X174432676Y-78554873D01*
X174432676Y-78554873D02*
X174385057Y-78507254D01*
X174385057Y-78507254D02*
X174289819Y-78459635D01*
X174289819Y-78459635D02*
X174051724Y-78459635D01*
X174051724Y-78459635D02*
X173908867Y-78507254D01*
X173623152Y-78459635D02*
X173051724Y-78459635D01*
X173337438Y-79459635D02*
X173337438Y-78459635D01*
X172718390Y-79459635D02*
X172718390Y-78459635D01*
X172718390Y-78459635D02*
X172385057Y-79173920D01*
X172385057Y-79173920D02*
X172051724Y-78459635D01*
X172051724Y-78459635D02*
X172051724Y-79459635D01*
X171670771Y-78459635D02*
X171051724Y-78459635D01*
X171051724Y-78459635D02*
X171385057Y-78840587D01*
X171385057Y-78840587D02*
X171242200Y-78840587D01*
X171242200Y-78840587D02*
X171146962Y-78888206D01*
X171146962Y-78888206D02*
X171099343Y-78935825D01*
X171099343Y-78935825D02*
X171051724Y-79031063D01*
X171051724Y-79031063D02*
X171051724Y-79269158D01*
X171051724Y-79269158D02*
X171099343Y-79364396D01*
X171099343Y-79364396D02*
X171146962Y-79412016D01*
X171146962Y-79412016D02*
X171242200Y-79459635D01*
X171242200Y-79459635D02*
X171527914Y-79459635D01*
X171527914Y-79459635D02*
X171623152Y-79412016D01*
X171623152Y-79412016D02*
X171670771Y-79364396D01*
X170670771Y-78554873D02*
X170623152Y-78507254D01*
X170623152Y-78507254D02*
X170527914Y-78459635D01*
X170527914Y-78459635D02*
X170289819Y-78459635D01*
X170289819Y-78459635D02*
X170194581Y-78507254D01*
X170194581Y-78507254D02*
X170146962Y-78554873D01*
X170146962Y-78554873D02*
X170099343Y-78650111D01*
X170099343Y-78650111D02*
X170099343Y-78745349D01*
X170099343Y-78745349D02*
X170146962Y-78888206D01*
X170146962Y-78888206D02*
X170718390Y-79459635D01*
X170718390Y-79459635D02*
X170099343Y-79459635D01*
X169766009Y-78459635D02*
X169527914Y-79459635D01*
X169527914Y-79459635D02*
X169337438Y-78745349D01*
X169337438Y-78745349D02*
X169146962Y-79459635D01*
X169146962Y-79459635D02*
X168908867Y-78459635D01*
X168051724Y-79459635D02*
X168527914Y-79459635D01*
X168527914Y-79459635D02*
X168527914Y-78459635D01*
X167242200Y-78459635D02*
X167718390Y-78459635D01*
X167718390Y-78459635D02*
X167766009Y-78935825D01*
X167766009Y-78935825D02*
X167718390Y-78888206D01*
X167718390Y-78888206D02*
X167623152Y-78840587D01*
X167623152Y-78840587D02*
X167385057Y-78840587D01*
X167385057Y-78840587D02*
X167289819Y-78888206D01*
X167289819Y-78888206D02*
X167242200Y-78935825D01*
X167242200Y-78935825D02*
X167194581Y-79031063D01*
X167194581Y-79031063D02*
X167194581Y-79269158D01*
X167194581Y-79269158D02*
X167242200Y-79364396D01*
X167242200Y-79364396D02*
X167289819Y-79412016D01*
X167289819Y-79412016D02*
X167385057Y-79459635D01*
X167385057Y-79459635D02*
X167623152Y-79459635D01*
X167623152Y-79459635D02*
X167718390Y-79412016D01*
X167718390Y-79412016D02*
X167766009Y-79364396D01*
X166289819Y-78459635D02*
X166766009Y-78459635D01*
X166766009Y-78459635D02*
X166813628Y-78935825D01*
X166813628Y-78935825D02*
X166766009Y-78888206D01*
X166766009Y-78888206D02*
X166670771Y-78840587D01*
X166670771Y-78840587D02*
X166432676Y-78840587D01*
X166432676Y-78840587D02*
X166337438Y-78888206D01*
X166337438Y-78888206D02*
X166289819Y-78935825D01*
X166289819Y-78935825D02*
X166242200Y-79031063D01*
X166242200Y-79031063D02*
X166242200Y-79269158D01*
X166242200Y-79269158D02*
X166289819Y-79364396D01*
X166289819Y-79364396D02*
X166337438Y-79412016D01*
X166337438Y-79412016D02*
X166432676Y-79459635D01*
X166432676Y-79459635D02*
X166670771Y-79459635D01*
X166670771Y-79459635D02*
X166766009Y-79412016D01*
X166766009Y-79412016D02*
X166813628Y-79364396D01*
X165242200Y-79364396D02*
X165289819Y-79412016D01*
X165289819Y-79412016D02*
X165432676Y-79459635D01*
X165432676Y-79459635D02*
X165527914Y-79459635D01*
X165527914Y-79459635D02*
X165670771Y-79412016D01*
X165670771Y-79412016D02*
X165766009Y-79316777D01*
X165766009Y-79316777D02*
X165813628Y-79221539D01*
X165813628Y-79221539D02*
X165861247Y-79031063D01*
X165861247Y-79031063D02*
X165861247Y-78888206D01*
X165861247Y-78888206D02*
X165813628Y-78697730D01*
X165813628Y-78697730D02*
X165766009Y-78602492D01*
X165766009Y-78602492D02*
X165670771Y-78507254D01*
X165670771Y-78507254D02*
X165527914Y-78459635D01*
X165527914Y-78459635D02*
X165432676Y-78459635D01*
X165432676Y-78459635D02*
X165289819Y-78507254D01*
X165289819Y-78507254D02*
X165242200Y-78554873D01*
X164242200Y-79364396D02*
X164289819Y-79412016D01*
X164289819Y-79412016D02*
X164432676Y-79459635D01*
X164432676Y-79459635D02*
X164527914Y-79459635D01*
X164527914Y-79459635D02*
X164670771Y-79412016D01*
X164670771Y-79412016D02*
X164766009Y-79316777D01*
X164766009Y-79316777D02*
X164813628Y-79221539D01*
X164813628Y-79221539D02*
X164861247Y-79031063D01*
X164861247Y-79031063D02*
X164861247Y-78888206D01*
X164861247Y-78888206D02*
X164813628Y-78697730D01*
X164813628Y-78697730D02*
X164766009Y-78602492D01*
X164766009Y-78602492D02*
X164670771Y-78507254D01*
X164670771Y-78507254D02*
X164527914Y-78459635D01*
X164527914Y-78459635D02*
X164432676Y-78459635D01*
X164432676Y-78459635D02*
X164289819Y-78507254D01*
X164289819Y-78507254D02*
X164242200Y-78554873D01*
X163813628Y-78459635D02*
X163813628Y-79269158D01*
X163813628Y-79269158D02*
X163766009Y-79364396D01*
X163766009Y-79364396D02*
X163718390Y-79412016D01*
X163718390Y-79412016D02*
X163623152Y-79459635D01*
X163623152Y-79459635D02*
X163432676Y-79459635D01*
X163432676Y-79459635D02*
X163337438Y-79412016D01*
X163337438Y-79412016D02*
X163289819Y-79364396D01*
X163289819Y-79364396D02*
X163242200Y-79269158D01*
X163242200Y-79269158D02*
X163242200Y-78459635D01*
X162337438Y-78459635D02*
X162527914Y-78459635D01*
X162527914Y-78459635D02*
X162623152Y-78507254D01*
X162623152Y-78507254D02*
X162670771Y-78554873D01*
X162670771Y-78554873D02*
X162766009Y-78697730D01*
X162766009Y-78697730D02*
X162813628Y-78888206D01*
X162813628Y-78888206D02*
X162813628Y-79269158D01*
X162813628Y-79269158D02*
X162766009Y-79364396D01*
X162766009Y-79364396D02*
X162718390Y-79412016D01*
X162718390Y-79412016D02*
X162623152Y-79459635D01*
X162623152Y-79459635D02*
X162432676Y-79459635D01*
X162432676Y-79459635D02*
X162337438Y-79412016D01*
X162337438Y-79412016D02*
X162289819Y-79364396D01*
X162289819Y-79364396D02*
X162242200Y-79269158D01*
X162242200Y-79269158D02*
X162242200Y-79031063D01*
X162242200Y-79031063D02*
X162289819Y-78935825D01*
X162289819Y-78935825D02*
X162337438Y-78888206D01*
X162337438Y-78888206D02*
X162432676Y-78840587D01*
X162432676Y-78840587D02*
X162623152Y-78840587D01*
X162623152Y-78840587D02*
X162718390Y-78888206D01*
X162718390Y-78888206D02*
X162766009Y-78935825D01*
X162766009Y-78935825D02*
X162813628Y-79031063D01*
X178385057Y-81069579D02*
X178861247Y-81069579D01*
X178861247Y-81069579D02*
X178861247Y-80069579D01*
X178051723Y-81069579D02*
X178051723Y-80069579D01*
X178051723Y-80069579D02*
X177813628Y-80069579D01*
X177813628Y-80069579D02*
X177670771Y-80117198D01*
X177670771Y-80117198D02*
X177575533Y-80212436D01*
X177575533Y-80212436D02*
X177527914Y-80307674D01*
X177527914Y-80307674D02*
X177480295Y-80498150D01*
X177480295Y-80498150D02*
X177480295Y-80641007D01*
X177480295Y-80641007D02*
X177527914Y-80831483D01*
X177527914Y-80831483D02*
X177575533Y-80926721D01*
X177575533Y-80926721D02*
X177670771Y-81021960D01*
X177670771Y-81021960D02*
X177813628Y-81069579D01*
X177813628Y-81069579D02*
X178051723Y-81069579D01*
X176861247Y-80069579D02*
X176670771Y-80069579D01*
X176670771Y-80069579D02*
X176575533Y-80117198D01*
X176575533Y-80117198D02*
X176480295Y-80212436D01*
X176480295Y-80212436D02*
X176432676Y-80402912D01*
X176432676Y-80402912D02*
X176432676Y-80736245D01*
X176432676Y-80736245D02*
X176480295Y-80926721D01*
X176480295Y-80926721D02*
X176575533Y-81021960D01*
X176575533Y-81021960D02*
X176670771Y-81069579D01*
X176670771Y-81069579D02*
X176861247Y-81069579D01*
X176861247Y-81069579D02*
X176956485Y-81021960D01*
X176956485Y-81021960D02*
X177051723Y-80926721D01*
X177051723Y-80926721D02*
X177099342Y-80736245D01*
X177099342Y-80736245D02*
X177099342Y-80402912D01*
X177099342Y-80402912D02*
X177051723Y-80212436D01*
X177051723Y-80212436D02*
X176956485Y-80117198D01*
X176956485Y-80117198D02*
X176861247Y-80069579D01*
X176004104Y-80974340D02*
X175956485Y-81021960D01*
X175956485Y-81021960D02*
X176004104Y-81069579D01*
X176004104Y-81069579D02*
X176051723Y-81021960D01*
X176051723Y-81021960D02*
X176004104Y-80974340D01*
X176004104Y-80974340D02*
X176004104Y-81069579D01*
X176004104Y-80450531D02*
X175956485Y-80498150D01*
X175956485Y-80498150D02*
X176004104Y-80545769D01*
X176004104Y-80545769D02*
X176051723Y-80498150D01*
X176051723Y-80498150D02*
X176004104Y-80450531D01*
X176004104Y-80450531D02*
X176004104Y-80545769D01*
X174289819Y-81069579D02*
X174766009Y-81069579D01*
X174766009Y-81069579D02*
X174766009Y-80069579D01*
X173956485Y-81069579D02*
X173956485Y-80069579D01*
X173956485Y-80069579D02*
X173718390Y-80069579D01*
X173718390Y-80069579D02*
X173575533Y-80117198D01*
X173575533Y-80117198D02*
X173480295Y-80212436D01*
X173480295Y-80212436D02*
X173432676Y-80307674D01*
X173432676Y-80307674D02*
X173385057Y-80498150D01*
X173385057Y-80498150D02*
X173385057Y-80641007D01*
X173385057Y-80641007D02*
X173432676Y-80831483D01*
X173432676Y-80831483D02*
X173480295Y-80926721D01*
X173480295Y-80926721D02*
X173575533Y-81021960D01*
X173575533Y-81021960D02*
X173718390Y-81069579D01*
X173718390Y-81069579D02*
X173956485Y-81069579D01*
X172480295Y-81069579D02*
X172956485Y-81069579D01*
X172956485Y-81069579D02*
X172956485Y-80069579D01*
X172146961Y-81069579D02*
X172146961Y-80069579D01*
X172146961Y-80069579D02*
X171575533Y-81069579D01*
X171575533Y-81069579D02*
X171575533Y-80069579D01*
X170908866Y-80069579D02*
X170813628Y-80069579D01*
X170813628Y-80069579D02*
X170718390Y-80117198D01*
X170718390Y-80117198D02*
X170670771Y-80164817D01*
X170670771Y-80164817D02*
X170623152Y-80260055D01*
X170623152Y-80260055D02*
X170575533Y-80450531D01*
X170575533Y-80450531D02*
X170575533Y-80688626D01*
X170575533Y-80688626D02*
X170623152Y-80879102D01*
X170623152Y-80879102D02*
X170670771Y-80974340D01*
X170670771Y-80974340D02*
X170718390Y-81021960D01*
X170718390Y-81021960D02*
X170813628Y-81069579D01*
X170813628Y-81069579D02*
X170908866Y-81069579D01*
X170908866Y-81069579D02*
X171004104Y-81021960D01*
X171004104Y-81021960D02*
X171051723Y-80974340D01*
X171051723Y-80974340D02*
X171099342Y-80879102D01*
X171099342Y-80879102D02*
X171146961Y-80688626D01*
X171146961Y-80688626D02*
X171146961Y-80450531D01*
X171146961Y-80450531D02*
X171099342Y-80260055D01*
X171099342Y-80260055D02*
X171051723Y-80164817D01*
X171051723Y-80164817D02*
X171004104Y-80117198D01*
X171004104Y-80117198D02*
X170908866Y-80069579D01*
X169670771Y-80069579D02*
X170146961Y-80069579D01*
X170146961Y-80069579D02*
X170194580Y-80545769D01*
X170194580Y-80545769D02*
X170146961Y-80498150D01*
X170146961Y-80498150D02*
X170051723Y-80450531D01*
X170051723Y-80450531D02*
X169813628Y-80450531D01*
X169813628Y-80450531D02*
X169718390Y-80498150D01*
X169718390Y-80498150D02*
X169670771Y-80545769D01*
X169670771Y-80545769D02*
X169623152Y-80641007D01*
X169623152Y-80641007D02*
X169623152Y-80879102D01*
X169623152Y-80879102D02*
X169670771Y-80974340D01*
X169670771Y-80974340D02*
X169718390Y-81021960D01*
X169718390Y-81021960D02*
X169813628Y-81069579D01*
X169813628Y-81069579D02*
X170051723Y-81069579D01*
X170051723Y-81069579D02*
X170146961Y-81021960D01*
X170146961Y-81021960D02*
X170194580Y-80974340D01*
X169004104Y-80069579D02*
X168908866Y-80069579D01*
X168908866Y-80069579D02*
X168813628Y-80117198D01*
X168813628Y-80117198D02*
X168766009Y-80164817D01*
X168766009Y-80164817D02*
X168718390Y-80260055D01*
X168718390Y-80260055D02*
X168670771Y-80450531D01*
X168670771Y-80450531D02*
X168670771Y-80688626D01*
X168670771Y-80688626D02*
X168718390Y-80879102D01*
X168718390Y-80879102D02*
X168766009Y-80974340D01*
X168766009Y-80974340D02*
X168813628Y-81021960D01*
X168813628Y-81021960D02*
X168908866Y-81069579D01*
X168908866Y-81069579D02*
X169004104Y-81069579D01*
X169004104Y-81069579D02*
X169099342Y-81021960D01*
X169099342Y-81021960D02*
X169146961Y-80974340D01*
X169146961Y-80974340D02*
X169194580Y-80879102D01*
X169194580Y-80879102D02*
X169242199Y-80688626D01*
X169242199Y-80688626D02*
X169242199Y-80450531D01*
X169242199Y-80450531D02*
X169194580Y-80260055D01*
X169194580Y-80260055D02*
X169146961Y-80164817D01*
X169146961Y-80164817D02*
X169099342Y-80117198D01*
X169099342Y-80117198D02*
X169004104Y-80069579D01*
X168242199Y-81069579D02*
X168242199Y-80069579D01*
X168242199Y-80069579D02*
X167861247Y-80069579D01*
X167861247Y-80069579D02*
X167766009Y-80117198D01*
X167766009Y-80117198D02*
X167718390Y-80164817D01*
X167718390Y-80164817D02*
X167670771Y-80260055D01*
X167670771Y-80260055D02*
X167670771Y-80402912D01*
X167670771Y-80402912D02*
X167718390Y-80498150D01*
X167718390Y-80498150D02*
X167766009Y-80545769D01*
X167766009Y-80545769D02*
X167861247Y-80593388D01*
X167861247Y-80593388D02*
X168242199Y-80593388D01*
X167242199Y-80069579D02*
X167242199Y-80879102D01*
X167242199Y-80879102D02*
X167194580Y-80974340D01*
X167194580Y-80974340D02*
X167146961Y-81021960D01*
X167146961Y-81021960D02*
X167051723Y-81069579D01*
X167051723Y-81069579D02*
X166861247Y-81069579D01*
X166861247Y-81069579D02*
X166766009Y-81021960D01*
X166766009Y-81021960D02*
X166718390Y-80974340D01*
X166718390Y-80974340D02*
X166670771Y-80879102D01*
X166670771Y-80879102D02*
X166670771Y-80069579D01*
X166289818Y-80069579D02*
X165670771Y-80069579D01*
X165670771Y-80069579D02*
X166004104Y-80450531D01*
X166004104Y-80450531D02*
X165861247Y-80450531D01*
X165861247Y-80450531D02*
X165766009Y-80498150D01*
X165766009Y-80498150D02*
X165718390Y-80545769D01*
X165718390Y-80545769D02*
X165670771Y-80641007D01*
X165670771Y-80641007D02*
X165670771Y-80879102D01*
X165670771Y-80879102D02*
X165718390Y-80974340D01*
X165718390Y-80974340D02*
X165766009Y-81021960D01*
X165766009Y-81021960D02*
X165861247Y-81069579D01*
X165861247Y-81069579D02*
X166146961Y-81069579D01*
X166146961Y-81069579D02*
X166242199Y-81021960D01*
X166242199Y-81021960D02*
X166289818Y-80974340D01*
X165337437Y-80069579D02*
X164718390Y-80069579D01*
X164718390Y-80069579D02*
X165051723Y-80450531D01*
X165051723Y-80450531D02*
X164908866Y-80450531D01*
X164908866Y-80450531D02*
X164813628Y-80498150D01*
X164813628Y-80498150D02*
X164766009Y-80545769D01*
X164766009Y-80545769D02*
X164718390Y-80641007D01*
X164718390Y-80641007D02*
X164718390Y-80879102D01*
X164718390Y-80879102D02*
X164766009Y-80974340D01*
X164766009Y-80974340D02*
X164813628Y-81021960D01*
X164813628Y-81021960D02*
X164908866Y-81069579D01*
X164908866Y-81069579D02*
X165194580Y-81069579D01*
X165194580Y-81069579D02*
X165289818Y-81021960D01*
X165289818Y-81021960D02*
X165337437Y-80974340D01*
X163718390Y-81069579D02*
X164051723Y-80593388D01*
X164289818Y-81069579D02*
X164289818Y-80069579D01*
X164289818Y-80069579D02*
X163908866Y-80069579D01*
X163908866Y-80069579D02*
X163813628Y-80117198D01*
X163813628Y-80117198D02*
X163766009Y-80164817D01*
X163766009Y-80164817D02*
X163718390Y-80260055D01*
X163718390Y-80260055D02*
X163718390Y-80402912D01*
X163718390Y-80402912D02*
X163766009Y-80498150D01*
X163766009Y-80498150D02*
X163813628Y-80545769D01*
X163813628Y-80545769D02*
X163908866Y-80593388D01*
X163908866Y-80593388D02*
X164289818Y-80593388D01*
X179004104Y-81679523D02*
X178670771Y-82679523D01*
X178670771Y-82679523D02*
X178337438Y-81679523D01*
X178004104Y-82679523D02*
X178004104Y-81679523D01*
X177527914Y-82679523D02*
X177527914Y-81679523D01*
X177527914Y-81679523D02*
X176956486Y-82679523D01*
X176956486Y-82679523D02*
X176956486Y-81679523D01*
X176480295Y-82584284D02*
X176432676Y-82631904D01*
X176432676Y-82631904D02*
X176480295Y-82679523D01*
X176480295Y-82679523D02*
X176527914Y-82631904D01*
X176527914Y-82631904D02*
X176480295Y-82584284D01*
X176480295Y-82584284D02*
X176480295Y-82679523D01*
X176480295Y-82060475D02*
X176432676Y-82108094D01*
X176432676Y-82108094D02*
X176480295Y-82155713D01*
X176480295Y-82155713D02*
X176527914Y-82108094D01*
X176527914Y-82108094D02*
X176480295Y-82060475D01*
X176480295Y-82060475D02*
X176480295Y-82155713D01*
X175289819Y-81774761D02*
X175242200Y-81727142D01*
X175242200Y-81727142D02*
X175146962Y-81679523D01*
X175146962Y-81679523D02*
X174908867Y-81679523D01*
X174908867Y-81679523D02*
X174813629Y-81727142D01*
X174813629Y-81727142D02*
X174766010Y-81774761D01*
X174766010Y-81774761D02*
X174718391Y-81869999D01*
X174718391Y-81869999D02*
X174718391Y-81965237D01*
X174718391Y-81965237D02*
X174766010Y-82108094D01*
X174766010Y-82108094D02*
X175337438Y-82679523D01*
X175337438Y-82679523D02*
X174718391Y-82679523D01*
X174289819Y-82584284D02*
X174242200Y-82631904D01*
X174242200Y-82631904D02*
X174289819Y-82679523D01*
X174289819Y-82679523D02*
X174337438Y-82631904D01*
X174337438Y-82631904D02*
X174289819Y-82584284D01*
X174289819Y-82584284D02*
X174289819Y-82679523D01*
X173908867Y-81679523D02*
X173242201Y-81679523D01*
X173242201Y-81679523D02*
X173670772Y-82679523D01*
X172242200Y-82012856D02*
X171861248Y-82012856D01*
X172099343Y-81679523D02*
X172099343Y-82536665D01*
X172099343Y-82536665D02*
X172051724Y-82631904D01*
X172051724Y-82631904D02*
X171956486Y-82679523D01*
X171956486Y-82679523D02*
X171861248Y-82679523D01*
X171385057Y-82679523D02*
X171480295Y-82631904D01*
X171480295Y-82631904D02*
X171527914Y-82584284D01*
X171527914Y-82584284D02*
X171575533Y-82489046D01*
X171575533Y-82489046D02*
X171575533Y-82203332D01*
X171575533Y-82203332D02*
X171527914Y-82108094D01*
X171527914Y-82108094D02*
X171480295Y-82060475D01*
X171480295Y-82060475D02*
X171385057Y-82012856D01*
X171385057Y-82012856D02*
X171242200Y-82012856D01*
X171242200Y-82012856D02*
X171146962Y-82060475D01*
X171146962Y-82060475D02*
X171099343Y-82108094D01*
X171099343Y-82108094D02*
X171051724Y-82203332D01*
X171051724Y-82203332D02*
X171051724Y-82489046D01*
X171051724Y-82489046D02*
X171099343Y-82584284D01*
X171099343Y-82584284D02*
X171146962Y-82631904D01*
X171146962Y-82631904D02*
X171242200Y-82679523D01*
X171242200Y-82679523D02*
X171385057Y-82679523D01*
X169432676Y-81679523D02*
X169623152Y-81679523D01*
X169623152Y-81679523D02*
X169718390Y-81727142D01*
X169718390Y-81727142D02*
X169766009Y-81774761D01*
X169766009Y-81774761D02*
X169861247Y-81917618D01*
X169861247Y-81917618D02*
X169908866Y-82108094D01*
X169908866Y-82108094D02*
X169908866Y-82489046D01*
X169908866Y-82489046D02*
X169861247Y-82584284D01*
X169861247Y-82584284D02*
X169813628Y-82631904D01*
X169813628Y-82631904D02*
X169718390Y-82679523D01*
X169718390Y-82679523D02*
X169527914Y-82679523D01*
X169527914Y-82679523D02*
X169432676Y-82631904D01*
X169432676Y-82631904D02*
X169385057Y-82584284D01*
X169385057Y-82584284D02*
X169337438Y-82489046D01*
X169337438Y-82489046D02*
X169337438Y-82250951D01*
X169337438Y-82250951D02*
X169385057Y-82155713D01*
X169385057Y-82155713D02*
X169432676Y-82108094D01*
X169432676Y-82108094D02*
X169527914Y-82060475D01*
X169527914Y-82060475D02*
X169718390Y-82060475D01*
X169718390Y-82060475D02*
X169813628Y-82108094D01*
X169813628Y-82108094D02*
X169861247Y-82155713D01*
X169861247Y-82155713D02*
X169908866Y-82250951D01*
X168908866Y-82584284D02*
X168861247Y-82631904D01*
X168861247Y-82631904D02*
X168908866Y-82679523D01*
X168908866Y-82679523D02*
X168956485Y-82631904D01*
X168956485Y-82631904D02*
X168908866Y-82584284D01*
X168908866Y-82584284D02*
X168908866Y-82679523D01*
X167956486Y-81679523D02*
X168432676Y-81679523D01*
X168432676Y-81679523D02*
X168480295Y-82155713D01*
X168480295Y-82155713D02*
X168432676Y-82108094D01*
X168432676Y-82108094D02*
X168337438Y-82060475D01*
X168337438Y-82060475D02*
X168099343Y-82060475D01*
X168099343Y-82060475D02*
X168004105Y-82108094D01*
X168004105Y-82108094D02*
X167956486Y-82155713D01*
X167956486Y-82155713D02*
X167908867Y-82250951D01*
X167908867Y-82250951D02*
X167908867Y-82489046D01*
X167908867Y-82489046D02*
X167956486Y-82584284D01*
X167956486Y-82584284D02*
X168004105Y-82631904D01*
X168004105Y-82631904D02*
X168099343Y-82679523D01*
X168099343Y-82679523D02*
X168337438Y-82679523D01*
X168337438Y-82679523D02*
X168432676Y-82631904D01*
X168432676Y-82631904D02*
X168480295Y-82584284D01*
X167623152Y-81679523D02*
X167289819Y-82679523D01*
X167289819Y-82679523D02*
X166956486Y-81679523D01*
X122461904Y-114002282D02*
X122557142Y-113954663D01*
X122557142Y-113954663D02*
X122699999Y-113954663D01*
X122699999Y-113954663D02*
X122842856Y-114002282D01*
X122842856Y-114002282D02*
X122938094Y-114097520D01*
X122938094Y-114097520D02*
X122985713Y-114192758D01*
X122985713Y-114192758D02*
X123033332Y-114383234D01*
X123033332Y-114383234D02*
X123033332Y-114526091D01*
X123033332Y-114526091D02*
X122985713Y-114716567D01*
X122985713Y-114716567D02*
X122938094Y-114811805D01*
X122938094Y-114811805D02*
X122842856Y-114907044D01*
X122842856Y-114907044D02*
X122699999Y-114954663D01*
X122699999Y-114954663D02*
X122604761Y-114954663D01*
X122604761Y-114954663D02*
X122461904Y-114907044D01*
X122461904Y-114907044D02*
X122414285Y-114859424D01*
X122414285Y-114859424D02*
X122414285Y-114526091D01*
X122414285Y-114526091D02*
X122604761Y-114526091D01*
X121985713Y-114954663D02*
X121985713Y-113954663D01*
X121985713Y-113954663D02*
X121414285Y-114954663D01*
X121414285Y-114954663D02*
X121414285Y-113954663D01*
X120938094Y-114954663D02*
X120938094Y-113954663D01*
X120938094Y-113954663D02*
X120699999Y-113954663D01*
X120699999Y-113954663D02*
X120557142Y-114002282D01*
X120557142Y-114002282D02*
X120461904Y-114097520D01*
X120461904Y-114097520D02*
X120414285Y-114192758D01*
X120414285Y-114192758D02*
X120366666Y-114383234D01*
X120366666Y-114383234D02*
X120366666Y-114526091D01*
X120366666Y-114526091D02*
X120414285Y-114716567D01*
X120414285Y-114716567D02*
X120461904Y-114811805D01*
X120461904Y-114811805D02*
X120557142Y-114907044D01*
X120557142Y-114907044D02*
X120699999Y-114954663D01*
X120699999Y-114954663D02*
X120938094Y-114954663D01*
X124452380Y-76854663D02*
X124452380Y-75854663D01*
X124452380Y-75854663D02*
X124071428Y-75854663D01*
X124071428Y-75854663D02*
X123976190Y-75902282D01*
X123976190Y-75902282D02*
X123928571Y-75949901D01*
X123928571Y-75949901D02*
X123880952Y-76045139D01*
X123880952Y-76045139D02*
X123880952Y-76187996D01*
X123880952Y-76187996D02*
X123928571Y-76283234D01*
X123928571Y-76283234D02*
X123976190Y-76330853D01*
X123976190Y-76330853D02*
X124071428Y-76378472D01*
X124071428Y-76378472D02*
X124452380Y-76378472D01*
X123547618Y-75854663D02*
X123309523Y-76854663D01*
X123309523Y-76854663D02*
X123119047Y-76140377D01*
X123119047Y-76140377D02*
X122928571Y-76854663D01*
X122928571Y-76854663D02*
X122690476Y-75854663D01*
X121738095Y-76854663D02*
X122071428Y-76378472D01*
X122309523Y-76854663D02*
X122309523Y-75854663D01*
X122309523Y-75854663D02*
X121928571Y-75854663D01*
X121928571Y-75854663D02*
X121833333Y-75902282D01*
X121833333Y-75902282D02*
X121785714Y-75949901D01*
X121785714Y-75949901D02*
X121738095Y-76045139D01*
X121738095Y-76045139D02*
X121738095Y-76187996D01*
X121738095Y-76187996D02*
X121785714Y-76283234D01*
X121785714Y-76283234D02*
X121833333Y-76330853D01*
X121833333Y-76330853D02*
X121928571Y-76378472D01*
X121928571Y-76378472D02*
X122309523Y-76378472D01*
X121309523Y-76473710D02*
X120547619Y-76473710D01*
X120928571Y-76854663D02*
X120928571Y-76092758D01*
X125042856Y-119654663D02*
X125042856Y-118654663D01*
X125042856Y-118654663D02*
X124661904Y-118654663D01*
X124661904Y-118654663D02*
X124566666Y-118702282D01*
X124566666Y-118702282D02*
X124519047Y-118749901D01*
X124519047Y-118749901D02*
X124471428Y-118845139D01*
X124471428Y-118845139D02*
X124471428Y-118987996D01*
X124471428Y-118987996D02*
X124519047Y-119083234D01*
X124519047Y-119083234D02*
X124566666Y-119130853D01*
X124566666Y-119130853D02*
X124661904Y-119178472D01*
X124661904Y-119178472D02*
X125042856Y-119178472D01*
X124090475Y-119368948D02*
X123614285Y-119368948D01*
X124185713Y-119654663D02*
X123852380Y-118654663D01*
X123852380Y-118654663D02*
X123519047Y-119654663D01*
X122661904Y-119654663D02*
X123233332Y-119654663D01*
X122947618Y-119654663D02*
X122947618Y-118654663D01*
X122947618Y-118654663D02*
X123042856Y-118797520D01*
X123042856Y-118797520D02*
X123138094Y-118892758D01*
X123138094Y-118892758D02*
X123233332Y-118940377D01*
X122042856Y-118654663D02*
X121947618Y-118654663D01*
X121947618Y-118654663D02*
X121852380Y-118702282D01*
X121852380Y-118702282D02*
X121804761Y-118749901D01*
X121804761Y-118749901D02*
X121757142Y-118845139D01*
X121757142Y-118845139D02*
X121709523Y-119035615D01*
X121709523Y-119035615D02*
X121709523Y-119273710D01*
X121709523Y-119273710D02*
X121757142Y-119464186D01*
X121757142Y-119464186D02*
X121804761Y-119559424D01*
X121804761Y-119559424D02*
X121852380Y-119607044D01*
X121852380Y-119607044D02*
X121947618Y-119654663D01*
X121947618Y-119654663D02*
X122042856Y-119654663D01*
X122042856Y-119654663D02*
X122138094Y-119607044D01*
X122138094Y-119607044D02*
X122185713Y-119559424D01*
X122185713Y-119559424D02*
X122233332Y-119464186D01*
X122233332Y-119464186D02*
X122280951Y-119273710D01*
X122280951Y-119273710D02*
X122280951Y-119035615D01*
X122280951Y-119035615D02*
X122233332Y-118845139D01*
X122233332Y-118845139D02*
X122185713Y-118749901D01*
X122185713Y-118749901D02*
X122138094Y-118702282D01*
X122138094Y-118702282D02*
X122042856Y-118654663D01*
X158961904Y-119002282D02*
X159057142Y-118954663D01*
X159057142Y-118954663D02*
X159199999Y-118954663D01*
X159199999Y-118954663D02*
X159342856Y-119002282D01*
X159342856Y-119002282D02*
X159438094Y-119097520D01*
X159438094Y-119097520D02*
X159485713Y-119192758D01*
X159485713Y-119192758D02*
X159533332Y-119383234D01*
X159533332Y-119383234D02*
X159533332Y-119526091D01*
X159533332Y-119526091D02*
X159485713Y-119716567D01*
X159485713Y-119716567D02*
X159438094Y-119811805D01*
X159438094Y-119811805D02*
X159342856Y-119907044D01*
X159342856Y-119907044D02*
X159199999Y-119954663D01*
X159199999Y-119954663D02*
X159104761Y-119954663D01*
X159104761Y-119954663D02*
X158961904Y-119907044D01*
X158961904Y-119907044D02*
X158914285Y-119859424D01*
X158914285Y-119859424D02*
X158914285Y-119526091D01*
X158914285Y-119526091D02*
X159104761Y-119526091D01*
X158485713Y-119954663D02*
X158485713Y-118954663D01*
X158485713Y-118954663D02*
X157914285Y-119954663D01*
X157914285Y-119954663D02*
X157914285Y-118954663D01*
X157438094Y-119954663D02*
X157438094Y-118954663D01*
X157438094Y-118954663D02*
X157199999Y-118954663D01*
X157199999Y-118954663D02*
X157057142Y-119002282D01*
X157057142Y-119002282D02*
X156961904Y-119097520D01*
X156961904Y-119097520D02*
X156914285Y-119192758D01*
X156914285Y-119192758D02*
X156866666Y-119383234D01*
X156866666Y-119383234D02*
X156866666Y-119526091D01*
X156866666Y-119526091D02*
X156914285Y-119716567D01*
X156914285Y-119716567D02*
X156961904Y-119811805D01*
X156961904Y-119811805D02*
X157057142Y-119907044D01*
X157057142Y-119907044D02*
X157199999Y-119954663D01*
X157199999Y-119954663D02*
X157438094Y-119954663D01*
X163195238Y-117859424D02*
X163242857Y-117907044D01*
X163242857Y-117907044D02*
X163385714Y-117954663D01*
X163385714Y-117954663D02*
X163480952Y-117954663D01*
X163480952Y-117954663D02*
X163623809Y-117907044D01*
X163623809Y-117907044D02*
X163719047Y-117811805D01*
X163719047Y-117811805D02*
X163766666Y-117716567D01*
X163766666Y-117716567D02*
X163814285Y-117526091D01*
X163814285Y-117526091D02*
X163814285Y-117383234D01*
X163814285Y-117383234D02*
X163766666Y-117192758D01*
X163766666Y-117192758D02*
X163719047Y-117097520D01*
X163719047Y-117097520D02*
X163623809Y-117002282D01*
X163623809Y-117002282D02*
X163480952Y-116954663D01*
X163480952Y-116954663D02*
X163385714Y-116954663D01*
X163385714Y-116954663D02*
X163242857Y-117002282D01*
X163242857Y-117002282D02*
X163195238Y-117049901D01*
X162290476Y-117954663D02*
X162766666Y-117954663D01*
X162766666Y-117954663D02*
X162766666Y-116954663D01*
X161957142Y-117954663D02*
X161957142Y-116954663D01*
X161385714Y-117954663D02*
X161814285Y-117383234D01*
X161385714Y-116954663D02*
X161957142Y-117526091D01*
X166486666Y-121109424D02*
X166534285Y-121157044D01*
X166534285Y-121157044D02*
X166677142Y-121204663D01*
X166677142Y-121204663D02*
X166772380Y-121204663D01*
X166772380Y-121204663D02*
X166915237Y-121157044D01*
X166915237Y-121157044D02*
X167010475Y-121061805D01*
X167010475Y-121061805D02*
X167058094Y-120966567D01*
X167058094Y-120966567D02*
X167105713Y-120776091D01*
X167105713Y-120776091D02*
X167105713Y-120633234D01*
X167105713Y-120633234D02*
X167058094Y-120442758D01*
X167058094Y-120442758D02*
X167010475Y-120347520D01*
X167010475Y-120347520D02*
X166915237Y-120252282D01*
X166915237Y-120252282D02*
X166772380Y-120204663D01*
X166772380Y-120204663D02*
X166677142Y-120204663D01*
X166677142Y-120204663D02*
X166534285Y-120252282D01*
X166534285Y-120252282D02*
X166486666Y-120299901D01*
X166105713Y-121157044D02*
X165962856Y-121204663D01*
X165962856Y-121204663D02*
X165724761Y-121204663D01*
X165724761Y-121204663D02*
X165629523Y-121157044D01*
X165629523Y-121157044D02*
X165581904Y-121109424D01*
X165581904Y-121109424D02*
X165534285Y-121014186D01*
X165534285Y-121014186D02*
X165534285Y-120918948D01*
X165534285Y-120918948D02*
X165581904Y-120823710D01*
X165581904Y-120823710D02*
X165629523Y-120776091D01*
X165629523Y-120776091D02*
X165724761Y-120728472D01*
X165724761Y-120728472D02*
X165915237Y-120680853D01*
X165915237Y-120680853D02*
X166010475Y-120633234D01*
X166010475Y-120633234D02*
X166058094Y-120585615D01*
X166058094Y-120585615D02*
X166105713Y-120490377D01*
X166105713Y-120490377D02*
X166105713Y-120395139D01*
X166105713Y-120395139D02*
X166058094Y-120299901D01*
X166058094Y-120299901D02*
X166010475Y-120252282D01*
X166010475Y-120252282D02*
X165915237Y-120204663D01*
X165915237Y-120204663D02*
X165677142Y-120204663D01*
X165677142Y-120204663D02*
X165534285Y-120252282D01*
X188361904Y-116502282D02*
X188457142Y-116454663D01*
X188457142Y-116454663D02*
X188599999Y-116454663D01*
X188599999Y-116454663D02*
X188742856Y-116502282D01*
X188742856Y-116502282D02*
X188838094Y-116597520D01*
X188838094Y-116597520D02*
X188885713Y-116692758D01*
X188885713Y-116692758D02*
X188933332Y-116883234D01*
X188933332Y-116883234D02*
X188933332Y-117026091D01*
X188933332Y-117026091D02*
X188885713Y-117216567D01*
X188885713Y-117216567D02*
X188838094Y-117311805D01*
X188838094Y-117311805D02*
X188742856Y-117407044D01*
X188742856Y-117407044D02*
X188599999Y-117454663D01*
X188599999Y-117454663D02*
X188504761Y-117454663D01*
X188504761Y-117454663D02*
X188361904Y-117407044D01*
X188361904Y-117407044D02*
X188314285Y-117359424D01*
X188314285Y-117359424D02*
X188314285Y-117026091D01*
X188314285Y-117026091D02*
X188504761Y-117026091D01*
X187885713Y-117454663D02*
X187885713Y-116454663D01*
X187885713Y-116454663D02*
X187314285Y-117454663D01*
X187314285Y-117454663D02*
X187314285Y-116454663D01*
X186838094Y-117454663D02*
X186838094Y-116454663D01*
X186838094Y-116454663D02*
X186599999Y-116454663D01*
X186599999Y-116454663D02*
X186457142Y-116502282D01*
X186457142Y-116502282D02*
X186361904Y-116597520D01*
X186361904Y-116597520D02*
X186314285Y-116692758D01*
X186314285Y-116692758D02*
X186266666Y-116883234D01*
X186266666Y-116883234D02*
X186266666Y-117026091D01*
X186266666Y-117026091D02*
X186314285Y-117216567D01*
X186314285Y-117216567D02*
X186361904Y-117311805D01*
X186361904Y-117311805D02*
X186457142Y-117407044D01*
X186457142Y-117407044D02*
X186599999Y-117454663D01*
X186599999Y-117454663D02*
X186838094Y-117454663D01*
X103807044Y-77271428D02*
X103854663Y-77414285D01*
X103854663Y-77414285D02*
X103854663Y-77652380D01*
X103854663Y-77652380D02*
X103807044Y-77747618D01*
X103807044Y-77747618D02*
X103759424Y-77795237D01*
X103759424Y-77795237D02*
X103664186Y-77842856D01*
X103664186Y-77842856D02*
X103568948Y-77842856D01*
X103568948Y-77842856D02*
X103473710Y-77795237D01*
X103473710Y-77795237D02*
X103426091Y-77747618D01*
X103426091Y-77747618D02*
X103378472Y-77652380D01*
X103378472Y-77652380D02*
X103330853Y-77461904D01*
X103330853Y-77461904D02*
X103283234Y-77366666D01*
X103283234Y-77366666D02*
X103235615Y-77319047D01*
X103235615Y-77319047D02*
X103140377Y-77271428D01*
X103140377Y-77271428D02*
X103045139Y-77271428D01*
X103045139Y-77271428D02*
X102949901Y-77319047D01*
X102949901Y-77319047D02*
X102902282Y-77366666D01*
X102902282Y-77366666D02*
X102854663Y-77461904D01*
X102854663Y-77461904D02*
X102854663Y-77699999D01*
X102854663Y-77699999D02*
X102902282Y-77842856D01*
X103854663Y-78271428D02*
X102854663Y-78271428D01*
X102854663Y-78271428D02*
X102854663Y-78509523D01*
X102854663Y-78509523D02*
X102902282Y-78652380D01*
X102902282Y-78652380D02*
X102997520Y-78747618D01*
X102997520Y-78747618D02*
X103092758Y-78795237D01*
X103092758Y-78795237D02*
X103283234Y-78842856D01*
X103283234Y-78842856D02*
X103426091Y-78842856D01*
X103426091Y-78842856D02*
X103616567Y-78795237D01*
X103616567Y-78795237D02*
X103711805Y-78747618D01*
X103711805Y-78747618D02*
X103807044Y-78652380D01*
X103807044Y-78652380D02*
X103854663Y-78509523D01*
X103854663Y-78509523D02*
X103854663Y-78271428D01*
X103854663Y-80033333D02*
X102854663Y-80033333D01*
X102854663Y-80033333D02*
X103854663Y-80604761D01*
X103854663Y-80604761D02*
X102854663Y-80604761D01*
X103854663Y-81652380D02*
X103378472Y-81319047D01*
X103854663Y-81080952D02*
X102854663Y-81080952D01*
X102854663Y-81080952D02*
X102854663Y-81461904D01*
X102854663Y-81461904D02*
X102902282Y-81557142D01*
X102902282Y-81557142D02*
X102949901Y-81604761D01*
X102949901Y-81604761D02*
X103045139Y-81652380D01*
X103045139Y-81652380D02*
X103187996Y-81652380D01*
X103187996Y-81652380D02*
X103283234Y-81604761D01*
X103283234Y-81604761D02*
X103330853Y-81557142D01*
X103330853Y-81557142D02*
X103378472Y-81461904D01*
X103378472Y-81461904D02*
X103378472Y-81080952D01*
X103807044Y-82795238D02*
X103854663Y-82938095D01*
X103854663Y-82938095D02*
X103854663Y-83176190D01*
X103854663Y-83176190D02*
X103807044Y-83271428D01*
X103807044Y-83271428D02*
X103759424Y-83319047D01*
X103759424Y-83319047D02*
X103664186Y-83366666D01*
X103664186Y-83366666D02*
X103568948Y-83366666D01*
X103568948Y-83366666D02*
X103473710Y-83319047D01*
X103473710Y-83319047D02*
X103426091Y-83271428D01*
X103426091Y-83271428D02*
X103378472Y-83176190D01*
X103378472Y-83176190D02*
X103330853Y-82985714D01*
X103330853Y-82985714D02*
X103283234Y-82890476D01*
X103283234Y-82890476D02*
X103235615Y-82842857D01*
X103235615Y-82842857D02*
X103140377Y-82795238D01*
X103140377Y-82795238D02*
X103045139Y-82795238D01*
X103045139Y-82795238D02*
X102949901Y-82842857D01*
X102949901Y-82842857D02*
X102902282Y-82890476D01*
X102902282Y-82890476D02*
X102854663Y-82985714D01*
X102854663Y-82985714D02*
X102854663Y-83223809D01*
X102854663Y-83223809D02*
X102902282Y-83366666D01*
X102854663Y-83985714D02*
X102854663Y-84176190D01*
X102854663Y-84176190D02*
X102902282Y-84271428D01*
X102902282Y-84271428D02*
X102997520Y-84366666D01*
X102997520Y-84366666D02*
X103187996Y-84414285D01*
X103187996Y-84414285D02*
X103521329Y-84414285D01*
X103521329Y-84414285D02*
X103711805Y-84366666D01*
X103711805Y-84366666D02*
X103807044Y-84271428D01*
X103807044Y-84271428D02*
X103854663Y-84176190D01*
X103854663Y-84176190D02*
X103854663Y-83985714D01*
X103854663Y-83985714D02*
X103807044Y-83890476D01*
X103807044Y-83890476D02*
X103711805Y-83795238D01*
X103711805Y-83795238D02*
X103521329Y-83747619D01*
X103521329Y-83747619D02*
X103187996Y-83747619D01*
X103187996Y-83747619D02*
X102997520Y-83795238D01*
X102997520Y-83795238D02*
X102902282Y-83890476D01*
X102902282Y-83890476D02*
X102854663Y-83985714D01*
X103807044Y-85557143D02*
X103854663Y-85700000D01*
X103854663Y-85700000D02*
X103854663Y-85938095D01*
X103854663Y-85938095D02*
X103807044Y-86033333D01*
X103807044Y-86033333D02*
X103759424Y-86080952D01*
X103759424Y-86080952D02*
X103664186Y-86128571D01*
X103664186Y-86128571D02*
X103568948Y-86128571D01*
X103568948Y-86128571D02*
X103473710Y-86080952D01*
X103473710Y-86080952D02*
X103426091Y-86033333D01*
X103426091Y-86033333D02*
X103378472Y-85938095D01*
X103378472Y-85938095D02*
X103330853Y-85747619D01*
X103330853Y-85747619D02*
X103283234Y-85652381D01*
X103283234Y-85652381D02*
X103235615Y-85604762D01*
X103235615Y-85604762D02*
X103140377Y-85557143D01*
X103140377Y-85557143D02*
X103045139Y-85557143D01*
X103045139Y-85557143D02*
X102949901Y-85604762D01*
X102949901Y-85604762D02*
X102902282Y-85652381D01*
X102902282Y-85652381D02*
X102854663Y-85747619D01*
X102854663Y-85747619D02*
X102854663Y-85985714D01*
X102854663Y-85985714D02*
X102902282Y-86128571D01*
X103759424Y-87128571D02*
X103807044Y-87080952D01*
X103807044Y-87080952D02*
X103854663Y-86938095D01*
X103854663Y-86938095D02*
X103854663Y-86842857D01*
X103854663Y-86842857D02*
X103807044Y-86700000D01*
X103807044Y-86700000D02*
X103711805Y-86604762D01*
X103711805Y-86604762D02*
X103616567Y-86557143D01*
X103616567Y-86557143D02*
X103426091Y-86509524D01*
X103426091Y-86509524D02*
X103283234Y-86509524D01*
X103283234Y-86509524D02*
X103092758Y-86557143D01*
X103092758Y-86557143D02*
X102997520Y-86604762D01*
X102997520Y-86604762D02*
X102902282Y-86700000D01*
X102902282Y-86700000D02*
X102854663Y-86842857D01*
X102854663Y-86842857D02*
X102854663Y-86938095D01*
X102854663Y-86938095D02*
X102902282Y-87080952D01*
X102902282Y-87080952D02*
X102949901Y-87128571D01*
X132154663Y-112861905D02*
X132154663Y-113480952D01*
X132154663Y-113480952D02*
X132535615Y-113147619D01*
X132535615Y-113147619D02*
X132535615Y-113290476D01*
X132535615Y-113290476D02*
X132583234Y-113385714D01*
X132583234Y-113385714D02*
X132630853Y-113433333D01*
X132630853Y-113433333D02*
X132726091Y-113480952D01*
X132726091Y-113480952D02*
X132964186Y-113480952D01*
X132964186Y-113480952D02*
X133059424Y-113433333D01*
X133059424Y-113433333D02*
X133107044Y-113385714D01*
X133107044Y-113385714D02*
X133154663Y-113290476D01*
X133154663Y-113290476D02*
X133154663Y-113004762D01*
X133154663Y-113004762D02*
X133107044Y-112909524D01*
X133107044Y-112909524D02*
X133059424Y-112861905D01*
X132154663Y-113766667D02*
X133154663Y-114100000D01*
X133154663Y-114100000D02*
X132154663Y-114433333D01*
X132154663Y-114671429D02*
X132154663Y-115290476D01*
X132154663Y-115290476D02*
X132535615Y-114957143D01*
X132535615Y-114957143D02*
X132535615Y-115100000D01*
X132535615Y-115100000D02*
X132583234Y-115195238D01*
X132583234Y-115195238D02*
X132630853Y-115242857D01*
X132630853Y-115242857D02*
X132726091Y-115290476D01*
X132726091Y-115290476D02*
X132964186Y-115290476D01*
X132964186Y-115290476D02*
X133059424Y-115242857D01*
X133059424Y-115242857D02*
X133107044Y-115195238D01*
X133107044Y-115195238D02*
X133154663Y-115100000D01*
X133154663Y-115100000D02*
X133154663Y-114814286D01*
X133154663Y-114814286D02*
X133107044Y-114719048D01*
X133107044Y-114719048D02*
X133059424Y-114671429D01*
X113445336Y-73947619D02*
X113921527Y-74280952D01*
X113445336Y-74519047D02*
X114445336Y-74519047D01*
X114445336Y-74519047D02*
X114445336Y-74138095D01*
X114445336Y-74138095D02*
X114397717Y-74042857D01*
X114397717Y-74042857D02*
X114350098Y-73995238D01*
X114350098Y-73995238D02*
X114254860Y-73947619D01*
X114254860Y-73947619D02*
X114112003Y-73947619D01*
X114112003Y-73947619D02*
X114016765Y-73995238D01*
X114016765Y-73995238D02*
X113969146Y-74042857D01*
X113969146Y-74042857D02*
X113921527Y-74138095D01*
X113921527Y-74138095D02*
X113921527Y-74519047D01*
X113492956Y-73566666D02*
X113445336Y-73423809D01*
X113445336Y-73423809D02*
X113445336Y-73185714D01*
X113445336Y-73185714D02*
X113492956Y-73090476D01*
X113492956Y-73090476D02*
X113540575Y-73042857D01*
X113540575Y-73042857D02*
X113635813Y-72995238D01*
X113635813Y-72995238D02*
X113731051Y-72995238D01*
X113731051Y-72995238D02*
X113826289Y-73042857D01*
X113826289Y-73042857D02*
X113873908Y-73090476D01*
X113873908Y-73090476D02*
X113921527Y-73185714D01*
X113921527Y-73185714D02*
X113969146Y-73376190D01*
X113969146Y-73376190D02*
X114016765Y-73471428D01*
X114016765Y-73471428D02*
X114064384Y-73519047D01*
X114064384Y-73519047D02*
X114159622Y-73566666D01*
X114159622Y-73566666D02*
X114254860Y-73566666D01*
X114254860Y-73566666D02*
X114350098Y-73519047D01*
X114350098Y-73519047D02*
X114397717Y-73471428D01*
X114397717Y-73471428D02*
X114445336Y-73376190D01*
X114445336Y-73376190D02*
X114445336Y-73138095D01*
X114445336Y-73138095D02*
X114397717Y-72995238D01*
X114445336Y-72709523D02*
X114445336Y-72138095D01*
X113445336Y-72423809D02*
X114445336Y-72423809D01*
X116997717Y-74061904D02*
X117045336Y-74157142D01*
X117045336Y-74157142D02*
X117045336Y-74299999D01*
X117045336Y-74299999D02*
X116997717Y-74442856D01*
X116997717Y-74442856D02*
X116902479Y-74538094D01*
X116902479Y-74538094D02*
X116807241Y-74585713D01*
X116807241Y-74585713D02*
X116616765Y-74633332D01*
X116616765Y-74633332D02*
X116473908Y-74633332D01*
X116473908Y-74633332D02*
X116283432Y-74585713D01*
X116283432Y-74585713D02*
X116188194Y-74538094D01*
X116188194Y-74538094D02*
X116092956Y-74442856D01*
X116092956Y-74442856D02*
X116045336Y-74299999D01*
X116045336Y-74299999D02*
X116045336Y-74204761D01*
X116045336Y-74204761D02*
X116092956Y-74061904D01*
X116092956Y-74061904D02*
X116140575Y-74014285D01*
X116140575Y-74014285D02*
X116473908Y-74014285D01*
X116473908Y-74014285D02*
X116473908Y-74204761D01*
X116045336Y-73585713D02*
X117045336Y-73585713D01*
X117045336Y-73585713D02*
X116045336Y-73014285D01*
X116045336Y-73014285D02*
X117045336Y-73014285D01*
X116045336Y-72538094D02*
X117045336Y-72538094D01*
X117045336Y-72538094D02*
X117045336Y-72299999D01*
X117045336Y-72299999D02*
X116997717Y-72157142D01*
X116997717Y-72157142D02*
X116902479Y-72061904D01*
X116902479Y-72061904D02*
X116807241Y-72014285D01*
X116807241Y-72014285D02*
X116616765Y-71966666D01*
X116616765Y-71966666D02*
X116473908Y-71966666D01*
X116473908Y-71966666D02*
X116283432Y-72014285D01*
X116283432Y-72014285D02*
X116188194Y-72061904D01*
X116188194Y-72061904D02*
X116092956Y-72157142D01*
X116092956Y-72157142D02*
X116045336Y-72299999D01*
X116045336Y-72299999D02*
X116045336Y-72538094D01*
X141445336Y-112209523D02*
X141445336Y-111638095D01*
X140445336Y-111923809D02*
X141445336Y-111923809D01*
X141492956Y-110590476D02*
X140207241Y-111447618D01*
X140445336Y-109685714D02*
X140921527Y-110019047D01*
X140445336Y-110257142D02*
X141445336Y-110257142D01*
X141445336Y-110257142D02*
X141445336Y-109876190D01*
X141445336Y-109876190D02*
X141397717Y-109780952D01*
X141397717Y-109780952D02*
X141350098Y-109733333D01*
X141350098Y-109733333D02*
X141254860Y-109685714D01*
X141254860Y-109685714D02*
X141112003Y-109685714D01*
X141112003Y-109685714D02*
X141016765Y-109733333D01*
X141016765Y-109733333D02*
X140969146Y-109780952D01*
X140969146Y-109780952D02*
X140921527Y-109876190D01*
X140921527Y-109876190D02*
X140921527Y-110257142D01*
D12*
X179276666Y-97494819D02*
X179609999Y-97018628D01*
X179848094Y-97494819D02*
X179848094Y-96494819D01*
X179848094Y-96494819D02*
X179467142Y-96494819D01*
X179467142Y-96494819D02*
X179371904Y-96542438D01*
X179371904Y-96542438D02*
X179324285Y-96590057D01*
X179324285Y-96590057D02*
X179276666Y-96685295D01*
X179276666Y-96685295D02*
X179276666Y-96828152D01*
X179276666Y-96828152D02*
X179324285Y-96923390D01*
X179324285Y-96923390D02*
X179371904Y-96971009D01*
X179371904Y-96971009D02*
X179467142Y-97018628D01*
X179467142Y-97018628D02*
X179848094Y-97018628D01*
X178943332Y-96494819D02*
X178276666Y-96494819D01*
X178276666Y-96494819D02*
X178705237Y-97494819D01*
X178574819Y-93753333D02*
X178098628Y-93420000D01*
X178574819Y-93181905D02*
X177574819Y-93181905D01*
X177574819Y-93181905D02*
X177574819Y-93562857D01*
X177574819Y-93562857D02*
X177622438Y-93658095D01*
X177622438Y-93658095D02*
X177670057Y-93705714D01*
X177670057Y-93705714D02*
X177765295Y-93753333D01*
X177765295Y-93753333D02*
X177908152Y-93753333D01*
X177908152Y-93753333D02*
X178003390Y-93705714D01*
X178003390Y-93705714D02*
X178051009Y-93658095D01*
X178051009Y-93658095D02*
X178098628Y-93562857D01*
X178098628Y-93562857D02*
X178098628Y-93181905D01*
X177574819Y-94086667D02*
X177574819Y-94705714D01*
X177574819Y-94705714D02*
X177955771Y-94372381D01*
X177955771Y-94372381D02*
X177955771Y-94515238D01*
X177955771Y-94515238D02*
X178003390Y-94610476D01*
X178003390Y-94610476D02*
X178051009Y-94658095D01*
X178051009Y-94658095D02*
X178146247Y-94705714D01*
X178146247Y-94705714D02*
X178384342Y-94705714D01*
X178384342Y-94705714D02*
X178479580Y-94658095D01*
X178479580Y-94658095D02*
X178527200Y-94610476D01*
X178527200Y-94610476D02*
X178574819Y-94515238D01*
X178574819Y-94515238D02*
X178574819Y-94229524D01*
X178574819Y-94229524D02*
X178527200Y-94134286D01*
X178527200Y-94134286D02*
X178479580Y-94086667D01*
X152849580Y-77497142D02*
X152897200Y-77449523D01*
X152897200Y-77449523D02*
X152944819Y-77306666D01*
X152944819Y-77306666D02*
X152944819Y-77211428D01*
X152944819Y-77211428D02*
X152897200Y-77068571D01*
X152897200Y-77068571D02*
X152801961Y-76973333D01*
X152801961Y-76973333D02*
X152706723Y-76925714D01*
X152706723Y-76925714D02*
X152516247Y-76878095D01*
X152516247Y-76878095D02*
X152373390Y-76878095D01*
X152373390Y-76878095D02*
X152182914Y-76925714D01*
X152182914Y-76925714D02*
X152087676Y-76973333D01*
X152087676Y-76973333D02*
X151992438Y-77068571D01*
X151992438Y-77068571D02*
X151944819Y-77211428D01*
X151944819Y-77211428D02*
X151944819Y-77306666D01*
X151944819Y-77306666D02*
X151992438Y-77449523D01*
X151992438Y-77449523D02*
X152040057Y-77497142D01*
X152040057Y-77878095D02*
X151992438Y-77925714D01*
X151992438Y-77925714D02*
X151944819Y-78020952D01*
X151944819Y-78020952D02*
X151944819Y-78259047D01*
X151944819Y-78259047D02*
X151992438Y-78354285D01*
X151992438Y-78354285D02*
X152040057Y-78401904D01*
X152040057Y-78401904D02*
X152135295Y-78449523D01*
X152135295Y-78449523D02*
X152230533Y-78449523D01*
X152230533Y-78449523D02*
X152373390Y-78401904D01*
X152373390Y-78401904D02*
X152944819Y-77830476D01*
X152944819Y-77830476D02*
X152944819Y-78449523D01*
X151944819Y-79354285D02*
X151944819Y-78878095D01*
X151944819Y-78878095D02*
X152421009Y-78830476D01*
X152421009Y-78830476D02*
X152373390Y-78878095D01*
X152373390Y-78878095D02*
X152325771Y-78973333D01*
X152325771Y-78973333D02*
X152325771Y-79211428D01*
X152325771Y-79211428D02*
X152373390Y-79306666D01*
X152373390Y-79306666D02*
X152421009Y-79354285D01*
X152421009Y-79354285D02*
X152516247Y-79401904D01*
X152516247Y-79401904D02*
X152754342Y-79401904D01*
X152754342Y-79401904D02*
X152849580Y-79354285D01*
X152849580Y-79354285D02*
X152897200Y-79306666D01*
X152897200Y-79306666D02*
X152944819Y-79211428D01*
X152944819Y-79211428D02*
X152944819Y-78973333D01*
X152944819Y-78973333D02*
X152897200Y-78878095D01*
X152897200Y-78878095D02*
X152849580Y-78830476D01*
X156249580Y-77437142D02*
X156297200Y-77389523D01*
X156297200Y-77389523D02*
X156344819Y-77246666D01*
X156344819Y-77246666D02*
X156344819Y-77151428D01*
X156344819Y-77151428D02*
X156297200Y-77008571D01*
X156297200Y-77008571D02*
X156201961Y-76913333D01*
X156201961Y-76913333D02*
X156106723Y-76865714D01*
X156106723Y-76865714D02*
X155916247Y-76818095D01*
X155916247Y-76818095D02*
X155773390Y-76818095D01*
X155773390Y-76818095D02*
X155582914Y-76865714D01*
X155582914Y-76865714D02*
X155487676Y-76913333D01*
X155487676Y-76913333D02*
X155392438Y-77008571D01*
X155392438Y-77008571D02*
X155344819Y-77151428D01*
X155344819Y-77151428D02*
X155344819Y-77246666D01*
X155344819Y-77246666D02*
X155392438Y-77389523D01*
X155392438Y-77389523D02*
X155440057Y-77437142D01*
X155344819Y-77770476D02*
X155344819Y-78389523D01*
X155344819Y-78389523D02*
X155725771Y-78056190D01*
X155725771Y-78056190D02*
X155725771Y-78199047D01*
X155725771Y-78199047D02*
X155773390Y-78294285D01*
X155773390Y-78294285D02*
X155821009Y-78341904D01*
X155821009Y-78341904D02*
X155916247Y-78389523D01*
X155916247Y-78389523D02*
X156154342Y-78389523D01*
X156154342Y-78389523D02*
X156249580Y-78341904D01*
X156249580Y-78341904D02*
X156297200Y-78294285D01*
X156297200Y-78294285D02*
X156344819Y-78199047D01*
X156344819Y-78199047D02*
X156344819Y-77913333D01*
X156344819Y-77913333D02*
X156297200Y-77818095D01*
X156297200Y-77818095D02*
X156249580Y-77770476D01*
X155344819Y-79294285D02*
X155344819Y-78818095D01*
X155344819Y-78818095D02*
X155821009Y-78770476D01*
X155821009Y-78770476D02*
X155773390Y-78818095D01*
X155773390Y-78818095D02*
X155725771Y-78913333D01*
X155725771Y-78913333D02*
X155725771Y-79151428D01*
X155725771Y-79151428D02*
X155773390Y-79246666D01*
X155773390Y-79246666D02*
X155821009Y-79294285D01*
X155821009Y-79294285D02*
X155916247Y-79341904D01*
X155916247Y-79341904D02*
X156154342Y-79341904D01*
X156154342Y-79341904D02*
X156249580Y-79294285D01*
X156249580Y-79294285D02*
X156297200Y-79246666D01*
X156297200Y-79246666D02*
X156344819Y-79151428D01*
X156344819Y-79151428D02*
X156344819Y-78913333D01*
X156344819Y-78913333D02*
X156297200Y-78818095D01*
X156297200Y-78818095D02*
X156249580Y-78770476D01*
X154539580Y-77437142D02*
X154587200Y-77389523D01*
X154587200Y-77389523D02*
X154634819Y-77246666D01*
X154634819Y-77246666D02*
X154634819Y-77151428D01*
X154634819Y-77151428D02*
X154587200Y-77008571D01*
X154587200Y-77008571D02*
X154491961Y-76913333D01*
X154491961Y-76913333D02*
X154396723Y-76865714D01*
X154396723Y-76865714D02*
X154206247Y-76818095D01*
X154206247Y-76818095D02*
X154063390Y-76818095D01*
X154063390Y-76818095D02*
X153872914Y-76865714D01*
X153872914Y-76865714D02*
X153777676Y-76913333D01*
X153777676Y-76913333D02*
X153682438Y-77008571D01*
X153682438Y-77008571D02*
X153634819Y-77151428D01*
X153634819Y-77151428D02*
X153634819Y-77246666D01*
X153634819Y-77246666D02*
X153682438Y-77389523D01*
X153682438Y-77389523D02*
X153730057Y-77437142D01*
X153730057Y-77818095D02*
X153682438Y-77865714D01*
X153682438Y-77865714D02*
X153634819Y-77960952D01*
X153634819Y-77960952D02*
X153634819Y-78199047D01*
X153634819Y-78199047D02*
X153682438Y-78294285D01*
X153682438Y-78294285D02*
X153730057Y-78341904D01*
X153730057Y-78341904D02*
X153825295Y-78389523D01*
X153825295Y-78389523D02*
X153920533Y-78389523D01*
X153920533Y-78389523D02*
X154063390Y-78341904D01*
X154063390Y-78341904D02*
X154634819Y-77770476D01*
X154634819Y-77770476D02*
X154634819Y-78389523D01*
X154063390Y-78960952D02*
X154015771Y-78865714D01*
X154015771Y-78865714D02*
X153968152Y-78818095D01*
X153968152Y-78818095D02*
X153872914Y-78770476D01*
X153872914Y-78770476D02*
X153825295Y-78770476D01*
X153825295Y-78770476D02*
X153730057Y-78818095D01*
X153730057Y-78818095D02*
X153682438Y-78865714D01*
X153682438Y-78865714D02*
X153634819Y-78960952D01*
X153634819Y-78960952D02*
X153634819Y-79151428D01*
X153634819Y-79151428D02*
X153682438Y-79246666D01*
X153682438Y-79246666D02*
X153730057Y-79294285D01*
X153730057Y-79294285D02*
X153825295Y-79341904D01*
X153825295Y-79341904D02*
X153872914Y-79341904D01*
X153872914Y-79341904D02*
X153968152Y-79294285D01*
X153968152Y-79294285D02*
X154015771Y-79246666D01*
X154015771Y-79246666D02*
X154063390Y-79151428D01*
X154063390Y-79151428D02*
X154063390Y-78960952D01*
X154063390Y-78960952D02*
X154111009Y-78865714D01*
X154111009Y-78865714D02*
X154158628Y-78818095D01*
X154158628Y-78818095D02*
X154253866Y-78770476D01*
X154253866Y-78770476D02*
X154444342Y-78770476D01*
X154444342Y-78770476D02*
X154539580Y-78818095D01*
X154539580Y-78818095D02*
X154587200Y-78865714D01*
X154587200Y-78865714D02*
X154634819Y-78960952D01*
X154634819Y-78960952D02*
X154634819Y-79151428D01*
X154634819Y-79151428D02*
X154587200Y-79246666D01*
X154587200Y-79246666D02*
X154539580Y-79294285D01*
X154539580Y-79294285D02*
X154444342Y-79341904D01*
X154444342Y-79341904D02*
X154253866Y-79341904D01*
X154253866Y-79341904D02*
X154158628Y-79294285D01*
X154158628Y-79294285D02*
X154111009Y-79246666D01*
X154111009Y-79246666D02*
X154063390Y-79151428D01*
X167082857Y-95999580D02*
X167130476Y-96047200D01*
X167130476Y-96047200D02*
X167273333Y-96094819D01*
X167273333Y-96094819D02*
X167368571Y-96094819D01*
X167368571Y-96094819D02*
X167511428Y-96047200D01*
X167511428Y-96047200D02*
X167606666Y-95951961D01*
X167606666Y-95951961D02*
X167654285Y-95856723D01*
X167654285Y-95856723D02*
X167701904Y-95666247D01*
X167701904Y-95666247D02*
X167701904Y-95523390D01*
X167701904Y-95523390D02*
X167654285Y-95332914D01*
X167654285Y-95332914D02*
X167606666Y-95237676D01*
X167606666Y-95237676D02*
X167511428Y-95142438D01*
X167511428Y-95142438D02*
X167368571Y-95094819D01*
X167368571Y-95094819D02*
X167273333Y-95094819D01*
X167273333Y-95094819D02*
X167130476Y-95142438D01*
X167130476Y-95142438D02*
X167082857Y-95190057D01*
X166749523Y-95094819D02*
X166082857Y-95094819D01*
X166082857Y-95094819D02*
X166511428Y-96094819D01*
X165797142Y-95094819D02*
X165178095Y-95094819D01*
X165178095Y-95094819D02*
X165511428Y-95475771D01*
X165511428Y-95475771D02*
X165368571Y-95475771D01*
X165368571Y-95475771D02*
X165273333Y-95523390D01*
X165273333Y-95523390D02*
X165225714Y-95571009D01*
X165225714Y-95571009D02*
X165178095Y-95666247D01*
X165178095Y-95666247D02*
X165178095Y-95904342D01*
X165178095Y-95904342D02*
X165225714Y-95999580D01*
X165225714Y-95999580D02*
X165273333Y-96047200D01*
X165273333Y-96047200D02*
X165368571Y-96094819D01*
X165368571Y-96094819D02*
X165654285Y-96094819D01*
X165654285Y-96094819D02*
X165749523Y-96047200D01*
X165749523Y-96047200D02*
X165797142Y-95999580D01*
X161794819Y-120827142D02*
X161318628Y-120493809D01*
X161794819Y-120255714D02*
X160794819Y-120255714D01*
X160794819Y-120255714D02*
X160794819Y-120636666D01*
X160794819Y-120636666D02*
X160842438Y-120731904D01*
X160842438Y-120731904D02*
X160890057Y-120779523D01*
X160890057Y-120779523D02*
X160985295Y-120827142D01*
X160985295Y-120827142D02*
X161128152Y-120827142D01*
X161128152Y-120827142D02*
X161223390Y-120779523D01*
X161223390Y-120779523D02*
X161271009Y-120731904D01*
X161271009Y-120731904D02*
X161318628Y-120636666D01*
X161318628Y-120636666D02*
X161318628Y-120255714D01*
X160794819Y-121160476D02*
X160794819Y-121779523D01*
X160794819Y-121779523D02*
X161175771Y-121446190D01*
X161175771Y-121446190D02*
X161175771Y-121589047D01*
X161175771Y-121589047D02*
X161223390Y-121684285D01*
X161223390Y-121684285D02*
X161271009Y-121731904D01*
X161271009Y-121731904D02*
X161366247Y-121779523D01*
X161366247Y-121779523D02*
X161604342Y-121779523D01*
X161604342Y-121779523D02*
X161699580Y-121731904D01*
X161699580Y-121731904D02*
X161747200Y-121684285D01*
X161747200Y-121684285D02*
X161794819Y-121589047D01*
X161794819Y-121589047D02*
X161794819Y-121303333D01*
X161794819Y-121303333D02*
X161747200Y-121208095D01*
X161747200Y-121208095D02*
X161699580Y-121160476D01*
X160890057Y-122160476D02*
X160842438Y-122208095D01*
X160842438Y-122208095D02*
X160794819Y-122303333D01*
X160794819Y-122303333D02*
X160794819Y-122541428D01*
X160794819Y-122541428D02*
X160842438Y-122636666D01*
X160842438Y-122636666D02*
X160890057Y-122684285D01*
X160890057Y-122684285D02*
X160985295Y-122731904D01*
X160985295Y-122731904D02*
X161080533Y-122731904D01*
X161080533Y-122731904D02*
X161223390Y-122684285D01*
X161223390Y-122684285D02*
X161794819Y-122112857D01*
X161794819Y-122112857D02*
X161794819Y-122731904D01*
X163999580Y-120747142D02*
X164047200Y-120699523D01*
X164047200Y-120699523D02*
X164094819Y-120556666D01*
X164094819Y-120556666D02*
X164094819Y-120461428D01*
X164094819Y-120461428D02*
X164047200Y-120318571D01*
X164047200Y-120318571D02*
X163951961Y-120223333D01*
X163951961Y-120223333D02*
X163856723Y-120175714D01*
X163856723Y-120175714D02*
X163666247Y-120128095D01*
X163666247Y-120128095D02*
X163523390Y-120128095D01*
X163523390Y-120128095D02*
X163332914Y-120175714D01*
X163332914Y-120175714D02*
X163237676Y-120223333D01*
X163237676Y-120223333D02*
X163142438Y-120318571D01*
X163142438Y-120318571D02*
X163094819Y-120461428D01*
X163094819Y-120461428D02*
X163094819Y-120556666D01*
X163094819Y-120556666D02*
X163142438Y-120699523D01*
X163142438Y-120699523D02*
X163190057Y-120747142D01*
X163094819Y-121604285D02*
X163094819Y-121413809D01*
X163094819Y-121413809D02*
X163142438Y-121318571D01*
X163142438Y-121318571D02*
X163190057Y-121270952D01*
X163190057Y-121270952D02*
X163332914Y-121175714D01*
X163332914Y-121175714D02*
X163523390Y-121128095D01*
X163523390Y-121128095D02*
X163904342Y-121128095D01*
X163904342Y-121128095D02*
X163999580Y-121175714D01*
X163999580Y-121175714D02*
X164047200Y-121223333D01*
X164047200Y-121223333D02*
X164094819Y-121318571D01*
X164094819Y-121318571D02*
X164094819Y-121509047D01*
X164094819Y-121509047D02*
X164047200Y-121604285D01*
X164047200Y-121604285D02*
X163999580Y-121651904D01*
X163999580Y-121651904D02*
X163904342Y-121699523D01*
X163904342Y-121699523D02*
X163666247Y-121699523D01*
X163666247Y-121699523D02*
X163571009Y-121651904D01*
X163571009Y-121651904D02*
X163523390Y-121604285D01*
X163523390Y-121604285D02*
X163475771Y-121509047D01*
X163475771Y-121509047D02*
X163475771Y-121318571D01*
X163475771Y-121318571D02*
X163523390Y-121223333D01*
X163523390Y-121223333D02*
X163571009Y-121175714D01*
X163571009Y-121175714D02*
X163666247Y-121128095D01*
X164094819Y-122175714D02*
X164094819Y-122366190D01*
X164094819Y-122366190D02*
X164047200Y-122461428D01*
X164047200Y-122461428D02*
X163999580Y-122509047D01*
X163999580Y-122509047D02*
X163856723Y-122604285D01*
X163856723Y-122604285D02*
X163666247Y-122651904D01*
X163666247Y-122651904D02*
X163285295Y-122651904D01*
X163285295Y-122651904D02*
X163190057Y-122604285D01*
X163190057Y-122604285D02*
X163142438Y-122556666D01*
X163142438Y-122556666D02*
X163094819Y-122461428D01*
X163094819Y-122461428D02*
X163094819Y-122270952D01*
X163094819Y-122270952D02*
X163142438Y-122175714D01*
X163142438Y-122175714D02*
X163190057Y-122128095D01*
X163190057Y-122128095D02*
X163285295Y-122080476D01*
X163285295Y-122080476D02*
X163523390Y-122080476D01*
X163523390Y-122080476D02*
X163618628Y-122128095D01*
X163618628Y-122128095D02*
X163666247Y-122175714D01*
X163666247Y-122175714D02*
X163713866Y-122270952D01*
X163713866Y-122270952D02*
X163713866Y-122461428D01*
X163713866Y-122461428D02*
X163666247Y-122556666D01*
X163666247Y-122556666D02*
X163618628Y-122604285D01*
X163618628Y-122604285D02*
X163523390Y-122651904D01*
X143442857Y-112224819D02*
X143776190Y-111748628D01*
X144014285Y-112224819D02*
X144014285Y-111224819D01*
X144014285Y-111224819D02*
X143633333Y-111224819D01*
X143633333Y-111224819D02*
X143538095Y-111272438D01*
X143538095Y-111272438D02*
X143490476Y-111320057D01*
X143490476Y-111320057D02*
X143442857Y-111415295D01*
X143442857Y-111415295D02*
X143442857Y-111558152D01*
X143442857Y-111558152D02*
X143490476Y-111653390D01*
X143490476Y-111653390D02*
X143538095Y-111701009D01*
X143538095Y-111701009D02*
X143633333Y-111748628D01*
X143633333Y-111748628D02*
X144014285Y-111748628D01*
X142490476Y-112224819D02*
X143061904Y-112224819D01*
X142776190Y-112224819D02*
X142776190Y-111224819D01*
X142776190Y-111224819D02*
X142871428Y-111367676D01*
X142871428Y-111367676D02*
X142966666Y-111462914D01*
X142966666Y-111462914D02*
X143061904Y-111510533D01*
X141633333Y-111558152D02*
X141633333Y-112224819D01*
X141871428Y-111177200D02*
X142109523Y-111891485D01*
X142109523Y-111891485D02*
X141490476Y-111891485D01*
X149889580Y-100257142D02*
X149937200Y-100209523D01*
X149937200Y-100209523D02*
X149984819Y-100066666D01*
X149984819Y-100066666D02*
X149984819Y-99971428D01*
X149984819Y-99971428D02*
X149937200Y-99828571D01*
X149937200Y-99828571D02*
X149841961Y-99733333D01*
X149841961Y-99733333D02*
X149746723Y-99685714D01*
X149746723Y-99685714D02*
X149556247Y-99638095D01*
X149556247Y-99638095D02*
X149413390Y-99638095D01*
X149413390Y-99638095D02*
X149222914Y-99685714D01*
X149222914Y-99685714D02*
X149127676Y-99733333D01*
X149127676Y-99733333D02*
X149032438Y-99828571D01*
X149032438Y-99828571D02*
X148984819Y-99971428D01*
X148984819Y-99971428D02*
X148984819Y-100066666D01*
X148984819Y-100066666D02*
X149032438Y-100209523D01*
X149032438Y-100209523D02*
X149080057Y-100257142D01*
X148984819Y-100590476D02*
X148984819Y-101209523D01*
X148984819Y-101209523D02*
X149365771Y-100876190D01*
X149365771Y-100876190D02*
X149365771Y-101019047D01*
X149365771Y-101019047D02*
X149413390Y-101114285D01*
X149413390Y-101114285D02*
X149461009Y-101161904D01*
X149461009Y-101161904D02*
X149556247Y-101209523D01*
X149556247Y-101209523D02*
X149794342Y-101209523D01*
X149794342Y-101209523D02*
X149889580Y-101161904D01*
X149889580Y-101161904D02*
X149937200Y-101114285D01*
X149937200Y-101114285D02*
X149984819Y-101019047D01*
X149984819Y-101019047D02*
X149984819Y-100733333D01*
X149984819Y-100733333D02*
X149937200Y-100638095D01*
X149937200Y-100638095D02*
X149889580Y-100590476D01*
X148984819Y-101828571D02*
X148984819Y-101923809D01*
X148984819Y-101923809D02*
X149032438Y-102019047D01*
X149032438Y-102019047D02*
X149080057Y-102066666D01*
X149080057Y-102066666D02*
X149175295Y-102114285D01*
X149175295Y-102114285D02*
X149365771Y-102161904D01*
X149365771Y-102161904D02*
X149603866Y-102161904D01*
X149603866Y-102161904D02*
X149794342Y-102114285D01*
X149794342Y-102114285D02*
X149889580Y-102066666D01*
X149889580Y-102066666D02*
X149937200Y-102019047D01*
X149937200Y-102019047D02*
X149984819Y-101923809D01*
X149984819Y-101923809D02*
X149984819Y-101828571D01*
X149984819Y-101828571D02*
X149937200Y-101733333D01*
X149937200Y-101733333D02*
X149889580Y-101685714D01*
X149889580Y-101685714D02*
X149794342Y-101638095D01*
X149794342Y-101638095D02*
X149603866Y-101590476D01*
X149603866Y-101590476D02*
X149365771Y-101590476D01*
X149365771Y-101590476D02*
X149175295Y-101638095D01*
X149175295Y-101638095D02*
X149080057Y-101685714D01*
X149080057Y-101685714D02*
X149032438Y-101733333D01*
X149032438Y-101733333D02*
X148984819Y-101828571D01*
D11*
X165667044Y-89146667D02*
X165714663Y-89289524D01*
X165714663Y-89289524D02*
X165714663Y-89527619D01*
X165714663Y-89527619D02*
X165667044Y-89622857D01*
X165667044Y-89622857D02*
X165619424Y-89670476D01*
X165619424Y-89670476D02*
X165524186Y-89718095D01*
X165524186Y-89718095D02*
X165428948Y-89718095D01*
X165428948Y-89718095D02*
X165333710Y-89670476D01*
X165333710Y-89670476D02*
X165286091Y-89622857D01*
X165286091Y-89622857D02*
X165238472Y-89527619D01*
X165238472Y-89527619D02*
X165190853Y-89337143D01*
X165190853Y-89337143D02*
X165143234Y-89241905D01*
X165143234Y-89241905D02*
X165095615Y-89194286D01*
X165095615Y-89194286D02*
X165000377Y-89146667D01*
X165000377Y-89146667D02*
X164905139Y-89146667D01*
X164905139Y-89146667D02*
X164809901Y-89194286D01*
X164809901Y-89194286D02*
X164762282Y-89241905D01*
X164762282Y-89241905D02*
X164714663Y-89337143D01*
X164714663Y-89337143D02*
X164714663Y-89575238D01*
X164714663Y-89575238D02*
X164762282Y-89718095D01*
X164714663Y-90051429D02*
X165714663Y-90289524D01*
X165714663Y-90289524D02*
X165000377Y-90480000D01*
X165000377Y-90480000D02*
X165714663Y-90670476D01*
X165714663Y-90670476D02*
X164714663Y-90908572D01*
X164714663Y-91194286D02*
X164714663Y-91813333D01*
X164714663Y-91813333D02*
X165095615Y-91480000D01*
X165095615Y-91480000D02*
X165095615Y-91622857D01*
X165095615Y-91622857D02*
X165143234Y-91718095D01*
X165143234Y-91718095D02*
X165190853Y-91765714D01*
X165190853Y-91765714D02*
X165286091Y-91813333D01*
X165286091Y-91813333D02*
X165524186Y-91813333D01*
X165524186Y-91813333D02*
X165619424Y-91765714D01*
X165619424Y-91765714D02*
X165667044Y-91718095D01*
X165667044Y-91718095D02*
X165714663Y-91622857D01*
X165714663Y-91622857D02*
X165714663Y-91337143D01*
X165714663Y-91337143D02*
X165667044Y-91241905D01*
X165667044Y-91241905D02*
X165619424Y-91194286D01*
D12*
X144403333Y-93641009D02*
X144736666Y-93641009D01*
X144736666Y-94164819D02*
X144736666Y-93164819D01*
X144736666Y-93164819D02*
X144260476Y-93164819D01*
X143546190Y-93641009D02*
X143403333Y-93688628D01*
X143403333Y-93688628D02*
X143355714Y-93736247D01*
X143355714Y-93736247D02*
X143308095Y-93831485D01*
X143308095Y-93831485D02*
X143308095Y-93974342D01*
X143308095Y-93974342D02*
X143355714Y-94069580D01*
X143355714Y-94069580D02*
X143403333Y-94117200D01*
X143403333Y-94117200D02*
X143498571Y-94164819D01*
X143498571Y-94164819D02*
X143879523Y-94164819D01*
X143879523Y-94164819D02*
X143879523Y-93164819D01*
X143879523Y-93164819D02*
X143546190Y-93164819D01*
X143546190Y-93164819D02*
X143450952Y-93212438D01*
X143450952Y-93212438D02*
X143403333Y-93260057D01*
X143403333Y-93260057D02*
X143355714Y-93355295D01*
X143355714Y-93355295D02*
X143355714Y-93450533D01*
X143355714Y-93450533D02*
X143403333Y-93545771D01*
X143403333Y-93545771D02*
X143450952Y-93593390D01*
X143450952Y-93593390D02*
X143546190Y-93641009D01*
X143546190Y-93641009D02*
X143879523Y-93641009D01*
X142450952Y-93164819D02*
X142641428Y-93164819D01*
X142641428Y-93164819D02*
X142736666Y-93212438D01*
X142736666Y-93212438D02*
X142784285Y-93260057D01*
X142784285Y-93260057D02*
X142879523Y-93402914D01*
X142879523Y-93402914D02*
X142927142Y-93593390D01*
X142927142Y-93593390D02*
X142927142Y-93974342D01*
X142927142Y-93974342D02*
X142879523Y-94069580D01*
X142879523Y-94069580D02*
X142831904Y-94117200D01*
X142831904Y-94117200D02*
X142736666Y-94164819D01*
X142736666Y-94164819D02*
X142546190Y-94164819D01*
X142546190Y-94164819D02*
X142450952Y-94117200D01*
X142450952Y-94117200D02*
X142403333Y-94069580D01*
X142403333Y-94069580D02*
X142355714Y-93974342D01*
X142355714Y-93974342D02*
X142355714Y-93736247D01*
X142355714Y-93736247D02*
X142403333Y-93641009D01*
X142403333Y-93641009D02*
X142450952Y-93593390D01*
X142450952Y-93593390D02*
X142546190Y-93545771D01*
X142546190Y-93545771D02*
X142736666Y-93545771D01*
X142736666Y-93545771D02*
X142831904Y-93593390D01*
X142831904Y-93593390D02*
X142879523Y-93641009D01*
X142879523Y-93641009D02*
X142927142Y-93736247D01*
X122692857Y-108279580D02*
X122740476Y-108327200D01*
X122740476Y-108327200D02*
X122883333Y-108374819D01*
X122883333Y-108374819D02*
X122978571Y-108374819D01*
X122978571Y-108374819D02*
X123121428Y-108327200D01*
X123121428Y-108327200D02*
X123216666Y-108231961D01*
X123216666Y-108231961D02*
X123264285Y-108136723D01*
X123264285Y-108136723D02*
X123311904Y-107946247D01*
X123311904Y-107946247D02*
X123311904Y-107803390D01*
X123311904Y-107803390D02*
X123264285Y-107612914D01*
X123264285Y-107612914D02*
X123216666Y-107517676D01*
X123216666Y-107517676D02*
X123121428Y-107422438D01*
X123121428Y-107422438D02*
X122978571Y-107374819D01*
X122978571Y-107374819D02*
X122883333Y-107374819D01*
X122883333Y-107374819D02*
X122740476Y-107422438D01*
X122740476Y-107422438D02*
X122692857Y-107470057D01*
X121835714Y-107374819D02*
X122026190Y-107374819D01*
X122026190Y-107374819D02*
X122121428Y-107422438D01*
X122121428Y-107422438D02*
X122169047Y-107470057D01*
X122169047Y-107470057D02*
X122264285Y-107612914D01*
X122264285Y-107612914D02*
X122311904Y-107803390D01*
X122311904Y-107803390D02*
X122311904Y-108184342D01*
X122311904Y-108184342D02*
X122264285Y-108279580D01*
X122264285Y-108279580D02*
X122216666Y-108327200D01*
X122216666Y-108327200D02*
X122121428Y-108374819D01*
X122121428Y-108374819D02*
X121930952Y-108374819D01*
X121930952Y-108374819D02*
X121835714Y-108327200D01*
X121835714Y-108327200D02*
X121788095Y-108279580D01*
X121788095Y-108279580D02*
X121740476Y-108184342D01*
X121740476Y-108184342D02*
X121740476Y-107946247D01*
X121740476Y-107946247D02*
X121788095Y-107851009D01*
X121788095Y-107851009D02*
X121835714Y-107803390D01*
X121835714Y-107803390D02*
X121930952Y-107755771D01*
X121930952Y-107755771D02*
X122121428Y-107755771D01*
X122121428Y-107755771D02*
X122216666Y-107803390D01*
X122216666Y-107803390D02*
X122264285Y-107851009D01*
X122264285Y-107851009D02*
X122311904Y-107946247D01*
X121407142Y-107374819D02*
X120740476Y-107374819D01*
X120740476Y-107374819D02*
X121169047Y-108374819D01*
X155632857Y-87299580D02*
X155680476Y-87347200D01*
X155680476Y-87347200D02*
X155823333Y-87394819D01*
X155823333Y-87394819D02*
X155918571Y-87394819D01*
X155918571Y-87394819D02*
X156061428Y-87347200D01*
X156061428Y-87347200D02*
X156156666Y-87251961D01*
X156156666Y-87251961D02*
X156204285Y-87156723D01*
X156204285Y-87156723D02*
X156251904Y-86966247D01*
X156251904Y-86966247D02*
X156251904Y-86823390D01*
X156251904Y-86823390D02*
X156204285Y-86632914D01*
X156204285Y-86632914D02*
X156156666Y-86537676D01*
X156156666Y-86537676D02*
X156061428Y-86442438D01*
X156061428Y-86442438D02*
X155918571Y-86394819D01*
X155918571Y-86394819D02*
X155823333Y-86394819D01*
X155823333Y-86394819D02*
X155680476Y-86442438D01*
X155680476Y-86442438D02*
X155632857Y-86490057D01*
X154728095Y-86394819D02*
X155204285Y-86394819D01*
X155204285Y-86394819D02*
X155251904Y-86871009D01*
X155251904Y-86871009D02*
X155204285Y-86823390D01*
X155204285Y-86823390D02*
X155109047Y-86775771D01*
X155109047Y-86775771D02*
X154870952Y-86775771D01*
X154870952Y-86775771D02*
X154775714Y-86823390D01*
X154775714Y-86823390D02*
X154728095Y-86871009D01*
X154728095Y-86871009D02*
X154680476Y-86966247D01*
X154680476Y-86966247D02*
X154680476Y-87204342D01*
X154680476Y-87204342D02*
X154728095Y-87299580D01*
X154728095Y-87299580D02*
X154775714Y-87347200D01*
X154775714Y-87347200D02*
X154870952Y-87394819D01*
X154870952Y-87394819D02*
X155109047Y-87394819D01*
X155109047Y-87394819D02*
X155204285Y-87347200D01*
X155204285Y-87347200D02*
X155251904Y-87299580D01*
X154347142Y-86394819D02*
X153680476Y-86394819D01*
X153680476Y-86394819D02*
X154109047Y-87394819D01*
X155612857Y-88999580D02*
X155660476Y-89047200D01*
X155660476Y-89047200D02*
X155803333Y-89094819D01*
X155803333Y-89094819D02*
X155898571Y-89094819D01*
X155898571Y-89094819D02*
X156041428Y-89047200D01*
X156041428Y-89047200D02*
X156136666Y-88951961D01*
X156136666Y-88951961D02*
X156184285Y-88856723D01*
X156184285Y-88856723D02*
X156231904Y-88666247D01*
X156231904Y-88666247D02*
X156231904Y-88523390D01*
X156231904Y-88523390D02*
X156184285Y-88332914D01*
X156184285Y-88332914D02*
X156136666Y-88237676D01*
X156136666Y-88237676D02*
X156041428Y-88142438D01*
X156041428Y-88142438D02*
X155898571Y-88094819D01*
X155898571Y-88094819D02*
X155803333Y-88094819D01*
X155803333Y-88094819D02*
X155660476Y-88142438D01*
X155660476Y-88142438D02*
X155612857Y-88190057D01*
X155279523Y-88094819D02*
X154612857Y-88094819D01*
X154612857Y-88094819D02*
X155041428Y-89094819D01*
X154041428Y-88094819D02*
X153946190Y-88094819D01*
X153946190Y-88094819D02*
X153850952Y-88142438D01*
X153850952Y-88142438D02*
X153803333Y-88190057D01*
X153803333Y-88190057D02*
X153755714Y-88285295D01*
X153755714Y-88285295D02*
X153708095Y-88475771D01*
X153708095Y-88475771D02*
X153708095Y-88713866D01*
X153708095Y-88713866D02*
X153755714Y-88904342D01*
X153755714Y-88904342D02*
X153803333Y-88999580D01*
X153803333Y-88999580D02*
X153850952Y-89047200D01*
X153850952Y-89047200D02*
X153946190Y-89094819D01*
X153946190Y-89094819D02*
X154041428Y-89094819D01*
X154041428Y-89094819D02*
X154136666Y-89047200D01*
X154136666Y-89047200D02*
X154184285Y-88999580D01*
X154184285Y-88999580D02*
X154231904Y-88904342D01*
X154231904Y-88904342D02*
X154279523Y-88713866D01*
X154279523Y-88713866D02*
X154279523Y-88475771D01*
X154279523Y-88475771D02*
X154231904Y-88285295D01*
X154231904Y-88285295D02*
X154184285Y-88190057D01*
X154184285Y-88190057D02*
X154136666Y-88142438D01*
X154136666Y-88142438D02*
X154041428Y-88094819D01*
X151659580Y-96917142D02*
X151707200Y-96869523D01*
X151707200Y-96869523D02*
X151754819Y-96726666D01*
X151754819Y-96726666D02*
X151754819Y-96631428D01*
X151754819Y-96631428D02*
X151707200Y-96488571D01*
X151707200Y-96488571D02*
X151611961Y-96393333D01*
X151611961Y-96393333D02*
X151516723Y-96345714D01*
X151516723Y-96345714D02*
X151326247Y-96298095D01*
X151326247Y-96298095D02*
X151183390Y-96298095D01*
X151183390Y-96298095D02*
X150992914Y-96345714D01*
X150992914Y-96345714D02*
X150897676Y-96393333D01*
X150897676Y-96393333D02*
X150802438Y-96488571D01*
X150802438Y-96488571D02*
X150754819Y-96631428D01*
X150754819Y-96631428D02*
X150754819Y-96726666D01*
X150754819Y-96726666D02*
X150802438Y-96869523D01*
X150802438Y-96869523D02*
X150850057Y-96917142D01*
X151754819Y-97869523D02*
X151754819Y-97298095D01*
X151754819Y-97583809D02*
X150754819Y-97583809D01*
X150754819Y-97583809D02*
X150897676Y-97488571D01*
X150897676Y-97488571D02*
X150992914Y-97393333D01*
X150992914Y-97393333D02*
X151040533Y-97298095D01*
X150754819Y-98202857D02*
X150754819Y-98869523D01*
X150754819Y-98869523D02*
X151754819Y-98440952D01*
X173874819Y-93733333D02*
X173398628Y-93400000D01*
X173874819Y-93161905D02*
X172874819Y-93161905D01*
X172874819Y-93161905D02*
X172874819Y-93542857D01*
X172874819Y-93542857D02*
X172922438Y-93638095D01*
X172922438Y-93638095D02*
X172970057Y-93685714D01*
X172970057Y-93685714D02*
X173065295Y-93733333D01*
X173065295Y-93733333D02*
X173208152Y-93733333D01*
X173208152Y-93733333D02*
X173303390Y-93685714D01*
X173303390Y-93685714D02*
X173351009Y-93638095D01*
X173351009Y-93638095D02*
X173398628Y-93542857D01*
X173398628Y-93542857D02*
X173398628Y-93161905D01*
X172970057Y-94114286D02*
X172922438Y-94161905D01*
X172922438Y-94161905D02*
X172874819Y-94257143D01*
X172874819Y-94257143D02*
X172874819Y-94495238D01*
X172874819Y-94495238D02*
X172922438Y-94590476D01*
X172922438Y-94590476D02*
X172970057Y-94638095D01*
X172970057Y-94638095D02*
X173065295Y-94685714D01*
X173065295Y-94685714D02*
X173160533Y-94685714D01*
X173160533Y-94685714D02*
X173303390Y-94638095D01*
X173303390Y-94638095D02*
X173874819Y-94066667D01*
X173874819Y-94066667D02*
X173874819Y-94685714D01*
X147862857Y-95859580D02*
X147910476Y-95907200D01*
X147910476Y-95907200D02*
X148053333Y-95954819D01*
X148053333Y-95954819D02*
X148148571Y-95954819D01*
X148148571Y-95954819D02*
X148291428Y-95907200D01*
X148291428Y-95907200D02*
X148386666Y-95811961D01*
X148386666Y-95811961D02*
X148434285Y-95716723D01*
X148434285Y-95716723D02*
X148481904Y-95526247D01*
X148481904Y-95526247D02*
X148481904Y-95383390D01*
X148481904Y-95383390D02*
X148434285Y-95192914D01*
X148434285Y-95192914D02*
X148386666Y-95097676D01*
X148386666Y-95097676D02*
X148291428Y-95002438D01*
X148291428Y-95002438D02*
X148148571Y-94954819D01*
X148148571Y-94954819D02*
X148053333Y-94954819D01*
X148053333Y-94954819D02*
X147910476Y-95002438D01*
X147910476Y-95002438D02*
X147862857Y-95050057D01*
X147529523Y-94954819D02*
X146910476Y-94954819D01*
X146910476Y-94954819D02*
X147243809Y-95335771D01*
X147243809Y-95335771D02*
X147100952Y-95335771D01*
X147100952Y-95335771D02*
X147005714Y-95383390D01*
X147005714Y-95383390D02*
X146958095Y-95431009D01*
X146958095Y-95431009D02*
X146910476Y-95526247D01*
X146910476Y-95526247D02*
X146910476Y-95764342D01*
X146910476Y-95764342D02*
X146958095Y-95859580D01*
X146958095Y-95859580D02*
X147005714Y-95907200D01*
X147005714Y-95907200D02*
X147100952Y-95954819D01*
X147100952Y-95954819D02*
X147386666Y-95954819D01*
X147386666Y-95954819D02*
X147481904Y-95907200D01*
X147481904Y-95907200D02*
X147529523Y-95859580D01*
X146053333Y-94954819D02*
X146243809Y-94954819D01*
X146243809Y-94954819D02*
X146339047Y-95002438D01*
X146339047Y-95002438D02*
X146386666Y-95050057D01*
X146386666Y-95050057D02*
X146481904Y-95192914D01*
X146481904Y-95192914D02*
X146529523Y-95383390D01*
X146529523Y-95383390D02*
X146529523Y-95764342D01*
X146529523Y-95764342D02*
X146481904Y-95859580D01*
X146481904Y-95859580D02*
X146434285Y-95907200D01*
X146434285Y-95907200D02*
X146339047Y-95954819D01*
X146339047Y-95954819D02*
X146148571Y-95954819D01*
X146148571Y-95954819D02*
X146053333Y-95907200D01*
X146053333Y-95907200D02*
X146005714Y-95859580D01*
X146005714Y-95859580D02*
X145958095Y-95764342D01*
X145958095Y-95764342D02*
X145958095Y-95526247D01*
X145958095Y-95526247D02*
X146005714Y-95431009D01*
X146005714Y-95431009D02*
X146053333Y-95383390D01*
X146053333Y-95383390D02*
X146148571Y-95335771D01*
X146148571Y-95335771D02*
X146339047Y-95335771D01*
X146339047Y-95335771D02*
X146434285Y-95383390D01*
X146434285Y-95383390D02*
X146481904Y-95431009D01*
X146481904Y-95431009D02*
X146529523Y-95526247D01*
X163059580Y-84397142D02*
X163107200Y-84349523D01*
X163107200Y-84349523D02*
X163154819Y-84206666D01*
X163154819Y-84206666D02*
X163154819Y-84111428D01*
X163154819Y-84111428D02*
X163107200Y-83968571D01*
X163107200Y-83968571D02*
X163011961Y-83873333D01*
X163011961Y-83873333D02*
X162916723Y-83825714D01*
X162916723Y-83825714D02*
X162726247Y-83778095D01*
X162726247Y-83778095D02*
X162583390Y-83778095D01*
X162583390Y-83778095D02*
X162392914Y-83825714D01*
X162392914Y-83825714D02*
X162297676Y-83873333D01*
X162297676Y-83873333D02*
X162202438Y-83968571D01*
X162202438Y-83968571D02*
X162154819Y-84111428D01*
X162154819Y-84111428D02*
X162154819Y-84206666D01*
X162154819Y-84206666D02*
X162202438Y-84349523D01*
X162202438Y-84349523D02*
X162250057Y-84397142D01*
X162154819Y-84730476D02*
X162154819Y-85349523D01*
X162154819Y-85349523D02*
X162535771Y-85016190D01*
X162535771Y-85016190D02*
X162535771Y-85159047D01*
X162535771Y-85159047D02*
X162583390Y-85254285D01*
X162583390Y-85254285D02*
X162631009Y-85301904D01*
X162631009Y-85301904D02*
X162726247Y-85349523D01*
X162726247Y-85349523D02*
X162964342Y-85349523D01*
X162964342Y-85349523D02*
X163059580Y-85301904D01*
X163059580Y-85301904D02*
X163107200Y-85254285D01*
X163107200Y-85254285D02*
X163154819Y-85159047D01*
X163154819Y-85159047D02*
X163154819Y-84873333D01*
X163154819Y-84873333D02*
X163107200Y-84778095D01*
X163107200Y-84778095D02*
X163059580Y-84730476D01*
X162154819Y-85682857D02*
X162154819Y-86349523D01*
X162154819Y-86349523D02*
X163154819Y-85920952D01*
X157862857Y-98329580D02*
X157910476Y-98377200D01*
X157910476Y-98377200D02*
X158053333Y-98424819D01*
X158053333Y-98424819D02*
X158148571Y-98424819D01*
X158148571Y-98424819D02*
X158291428Y-98377200D01*
X158291428Y-98377200D02*
X158386666Y-98281961D01*
X158386666Y-98281961D02*
X158434285Y-98186723D01*
X158434285Y-98186723D02*
X158481904Y-97996247D01*
X158481904Y-97996247D02*
X158481904Y-97853390D01*
X158481904Y-97853390D02*
X158434285Y-97662914D01*
X158434285Y-97662914D02*
X158386666Y-97567676D01*
X158386666Y-97567676D02*
X158291428Y-97472438D01*
X158291428Y-97472438D02*
X158148571Y-97424819D01*
X158148571Y-97424819D02*
X158053333Y-97424819D01*
X158053333Y-97424819D02*
X157910476Y-97472438D01*
X157910476Y-97472438D02*
X157862857Y-97520057D01*
X157481904Y-97520057D02*
X157434285Y-97472438D01*
X157434285Y-97472438D02*
X157339047Y-97424819D01*
X157339047Y-97424819D02*
X157100952Y-97424819D01*
X157100952Y-97424819D02*
X157005714Y-97472438D01*
X157005714Y-97472438D02*
X156958095Y-97520057D01*
X156958095Y-97520057D02*
X156910476Y-97615295D01*
X156910476Y-97615295D02*
X156910476Y-97710533D01*
X156910476Y-97710533D02*
X156958095Y-97853390D01*
X156958095Y-97853390D02*
X157529523Y-98424819D01*
X157529523Y-98424819D02*
X156910476Y-98424819D01*
X156577142Y-97424819D02*
X155958095Y-97424819D01*
X155958095Y-97424819D02*
X156291428Y-97805771D01*
X156291428Y-97805771D02*
X156148571Y-97805771D01*
X156148571Y-97805771D02*
X156053333Y-97853390D01*
X156053333Y-97853390D02*
X156005714Y-97901009D01*
X156005714Y-97901009D02*
X155958095Y-97996247D01*
X155958095Y-97996247D02*
X155958095Y-98234342D01*
X155958095Y-98234342D02*
X156005714Y-98329580D01*
X156005714Y-98329580D02*
X156053333Y-98377200D01*
X156053333Y-98377200D02*
X156148571Y-98424819D01*
X156148571Y-98424819D02*
X156434285Y-98424819D01*
X156434285Y-98424819D02*
X156529523Y-98377200D01*
X156529523Y-98377200D02*
X156577142Y-98329580D01*
X156916666Y-100119580D02*
X156964285Y-100167200D01*
X156964285Y-100167200D02*
X157107142Y-100214819D01*
X157107142Y-100214819D02*
X157202380Y-100214819D01*
X157202380Y-100214819D02*
X157345237Y-100167200D01*
X157345237Y-100167200D02*
X157440475Y-100071961D01*
X157440475Y-100071961D02*
X157488094Y-99976723D01*
X157488094Y-99976723D02*
X157535713Y-99786247D01*
X157535713Y-99786247D02*
X157535713Y-99643390D01*
X157535713Y-99643390D02*
X157488094Y-99452914D01*
X157488094Y-99452914D02*
X157440475Y-99357676D01*
X157440475Y-99357676D02*
X157345237Y-99262438D01*
X157345237Y-99262438D02*
X157202380Y-99214819D01*
X157202380Y-99214819D02*
X157107142Y-99214819D01*
X157107142Y-99214819D02*
X156964285Y-99262438D01*
X156964285Y-99262438D02*
X156916666Y-99310057D01*
X156583332Y-99214819D02*
X155916666Y-99214819D01*
X155916666Y-99214819D02*
X156345237Y-100214819D01*
X171939580Y-88417142D02*
X171987200Y-88369523D01*
X171987200Y-88369523D02*
X172034819Y-88226666D01*
X172034819Y-88226666D02*
X172034819Y-88131428D01*
X172034819Y-88131428D02*
X171987200Y-87988571D01*
X171987200Y-87988571D02*
X171891961Y-87893333D01*
X171891961Y-87893333D02*
X171796723Y-87845714D01*
X171796723Y-87845714D02*
X171606247Y-87798095D01*
X171606247Y-87798095D02*
X171463390Y-87798095D01*
X171463390Y-87798095D02*
X171272914Y-87845714D01*
X171272914Y-87845714D02*
X171177676Y-87893333D01*
X171177676Y-87893333D02*
X171082438Y-87988571D01*
X171082438Y-87988571D02*
X171034819Y-88131428D01*
X171034819Y-88131428D02*
X171034819Y-88226666D01*
X171034819Y-88226666D02*
X171082438Y-88369523D01*
X171082438Y-88369523D02*
X171130057Y-88417142D01*
X172034819Y-89369523D02*
X172034819Y-88798095D01*
X172034819Y-89083809D02*
X171034819Y-89083809D01*
X171034819Y-89083809D02*
X171177676Y-88988571D01*
X171177676Y-88988571D02*
X171272914Y-88893333D01*
X171272914Y-88893333D02*
X171320533Y-88798095D01*
X171034819Y-89988571D02*
X171034819Y-90083809D01*
X171034819Y-90083809D02*
X171082438Y-90179047D01*
X171082438Y-90179047D02*
X171130057Y-90226666D01*
X171130057Y-90226666D02*
X171225295Y-90274285D01*
X171225295Y-90274285D02*
X171415771Y-90321904D01*
X171415771Y-90321904D02*
X171653866Y-90321904D01*
X171653866Y-90321904D02*
X171844342Y-90274285D01*
X171844342Y-90274285D02*
X171939580Y-90226666D01*
X171939580Y-90226666D02*
X171987200Y-90179047D01*
X171987200Y-90179047D02*
X172034819Y-90083809D01*
X172034819Y-90083809D02*
X172034819Y-89988571D01*
X172034819Y-89988571D02*
X171987200Y-89893333D01*
X171987200Y-89893333D02*
X171939580Y-89845714D01*
X171939580Y-89845714D02*
X171844342Y-89798095D01*
X171844342Y-89798095D02*
X171653866Y-89750476D01*
X171653866Y-89750476D02*
X171415771Y-89750476D01*
X171415771Y-89750476D02*
X171225295Y-89798095D01*
X171225295Y-89798095D02*
X171130057Y-89845714D01*
X171130057Y-89845714D02*
X171082438Y-89893333D01*
X171082438Y-89893333D02*
X171034819Y-89988571D01*
X176909580Y-87527142D02*
X176957200Y-87479523D01*
X176957200Y-87479523D02*
X177004819Y-87336666D01*
X177004819Y-87336666D02*
X177004819Y-87241428D01*
X177004819Y-87241428D02*
X176957200Y-87098571D01*
X176957200Y-87098571D02*
X176861961Y-87003333D01*
X176861961Y-87003333D02*
X176766723Y-86955714D01*
X176766723Y-86955714D02*
X176576247Y-86908095D01*
X176576247Y-86908095D02*
X176433390Y-86908095D01*
X176433390Y-86908095D02*
X176242914Y-86955714D01*
X176242914Y-86955714D02*
X176147676Y-87003333D01*
X176147676Y-87003333D02*
X176052438Y-87098571D01*
X176052438Y-87098571D02*
X176004819Y-87241428D01*
X176004819Y-87241428D02*
X176004819Y-87336666D01*
X176004819Y-87336666D02*
X176052438Y-87479523D01*
X176052438Y-87479523D02*
X176100057Y-87527142D01*
X176338152Y-88384285D02*
X177004819Y-88384285D01*
X175957200Y-88146190D02*
X176671485Y-87908095D01*
X176671485Y-87908095D02*
X176671485Y-88527142D01*
X176004819Y-89336666D02*
X176004819Y-89146190D01*
X176004819Y-89146190D02*
X176052438Y-89050952D01*
X176052438Y-89050952D02*
X176100057Y-89003333D01*
X176100057Y-89003333D02*
X176242914Y-88908095D01*
X176242914Y-88908095D02*
X176433390Y-88860476D01*
X176433390Y-88860476D02*
X176814342Y-88860476D01*
X176814342Y-88860476D02*
X176909580Y-88908095D01*
X176909580Y-88908095D02*
X176957200Y-88955714D01*
X176957200Y-88955714D02*
X177004819Y-89050952D01*
X177004819Y-89050952D02*
X177004819Y-89241428D01*
X177004819Y-89241428D02*
X176957200Y-89336666D01*
X176957200Y-89336666D02*
X176909580Y-89384285D01*
X176909580Y-89384285D02*
X176814342Y-89431904D01*
X176814342Y-89431904D02*
X176576247Y-89431904D01*
X176576247Y-89431904D02*
X176481009Y-89384285D01*
X176481009Y-89384285D02*
X176433390Y-89336666D01*
X176433390Y-89336666D02*
X176385771Y-89241428D01*
X176385771Y-89241428D02*
X176385771Y-89050952D01*
X176385771Y-89050952D02*
X176433390Y-88955714D01*
X176433390Y-88955714D02*
X176481009Y-88908095D01*
X176481009Y-88908095D02*
X176576247Y-88860476D01*
X122692857Y-110529580D02*
X122740476Y-110577200D01*
X122740476Y-110577200D02*
X122883333Y-110624819D01*
X122883333Y-110624819D02*
X122978571Y-110624819D01*
X122978571Y-110624819D02*
X123121428Y-110577200D01*
X123121428Y-110577200D02*
X123216666Y-110481961D01*
X123216666Y-110481961D02*
X123264285Y-110386723D01*
X123264285Y-110386723D02*
X123311904Y-110196247D01*
X123311904Y-110196247D02*
X123311904Y-110053390D01*
X123311904Y-110053390D02*
X123264285Y-109862914D01*
X123264285Y-109862914D02*
X123216666Y-109767676D01*
X123216666Y-109767676D02*
X123121428Y-109672438D01*
X123121428Y-109672438D02*
X122978571Y-109624819D01*
X122978571Y-109624819D02*
X122883333Y-109624819D01*
X122883333Y-109624819D02*
X122740476Y-109672438D01*
X122740476Y-109672438D02*
X122692857Y-109720057D01*
X121835714Y-109624819D02*
X122026190Y-109624819D01*
X122026190Y-109624819D02*
X122121428Y-109672438D01*
X122121428Y-109672438D02*
X122169047Y-109720057D01*
X122169047Y-109720057D02*
X122264285Y-109862914D01*
X122264285Y-109862914D02*
X122311904Y-110053390D01*
X122311904Y-110053390D02*
X122311904Y-110434342D01*
X122311904Y-110434342D02*
X122264285Y-110529580D01*
X122264285Y-110529580D02*
X122216666Y-110577200D01*
X122216666Y-110577200D02*
X122121428Y-110624819D01*
X122121428Y-110624819D02*
X121930952Y-110624819D01*
X121930952Y-110624819D02*
X121835714Y-110577200D01*
X121835714Y-110577200D02*
X121788095Y-110529580D01*
X121788095Y-110529580D02*
X121740476Y-110434342D01*
X121740476Y-110434342D02*
X121740476Y-110196247D01*
X121740476Y-110196247D02*
X121788095Y-110101009D01*
X121788095Y-110101009D02*
X121835714Y-110053390D01*
X121835714Y-110053390D02*
X121930952Y-110005771D01*
X121930952Y-110005771D02*
X122121428Y-110005771D01*
X122121428Y-110005771D02*
X122216666Y-110053390D01*
X122216666Y-110053390D02*
X122264285Y-110101009D01*
X122264285Y-110101009D02*
X122311904Y-110196247D01*
X121169047Y-110053390D02*
X121264285Y-110005771D01*
X121264285Y-110005771D02*
X121311904Y-109958152D01*
X121311904Y-109958152D02*
X121359523Y-109862914D01*
X121359523Y-109862914D02*
X121359523Y-109815295D01*
X121359523Y-109815295D02*
X121311904Y-109720057D01*
X121311904Y-109720057D02*
X121264285Y-109672438D01*
X121264285Y-109672438D02*
X121169047Y-109624819D01*
X121169047Y-109624819D02*
X120978571Y-109624819D01*
X120978571Y-109624819D02*
X120883333Y-109672438D01*
X120883333Y-109672438D02*
X120835714Y-109720057D01*
X120835714Y-109720057D02*
X120788095Y-109815295D01*
X120788095Y-109815295D02*
X120788095Y-109862914D01*
X120788095Y-109862914D02*
X120835714Y-109958152D01*
X120835714Y-109958152D02*
X120883333Y-110005771D01*
X120883333Y-110005771D02*
X120978571Y-110053390D01*
X120978571Y-110053390D02*
X121169047Y-110053390D01*
X121169047Y-110053390D02*
X121264285Y-110101009D01*
X121264285Y-110101009D02*
X121311904Y-110148628D01*
X121311904Y-110148628D02*
X121359523Y-110243866D01*
X121359523Y-110243866D02*
X121359523Y-110434342D01*
X121359523Y-110434342D02*
X121311904Y-110529580D01*
X121311904Y-110529580D02*
X121264285Y-110577200D01*
X121264285Y-110577200D02*
X121169047Y-110624819D01*
X121169047Y-110624819D02*
X120978571Y-110624819D01*
X120978571Y-110624819D02*
X120883333Y-110577200D01*
X120883333Y-110577200D02*
X120835714Y-110529580D01*
X120835714Y-110529580D02*
X120788095Y-110434342D01*
X120788095Y-110434342D02*
X120788095Y-110243866D01*
X120788095Y-110243866D02*
X120835714Y-110148628D01*
X120835714Y-110148628D02*
X120883333Y-110101009D01*
X120883333Y-110101009D02*
X120978571Y-110053390D01*
X150459580Y-86367142D02*
X150507200Y-86319523D01*
X150507200Y-86319523D02*
X150554819Y-86176666D01*
X150554819Y-86176666D02*
X150554819Y-86081428D01*
X150554819Y-86081428D02*
X150507200Y-85938571D01*
X150507200Y-85938571D02*
X150411961Y-85843333D01*
X150411961Y-85843333D02*
X150316723Y-85795714D01*
X150316723Y-85795714D02*
X150126247Y-85748095D01*
X150126247Y-85748095D02*
X149983390Y-85748095D01*
X149983390Y-85748095D02*
X149792914Y-85795714D01*
X149792914Y-85795714D02*
X149697676Y-85843333D01*
X149697676Y-85843333D02*
X149602438Y-85938571D01*
X149602438Y-85938571D02*
X149554819Y-86081428D01*
X149554819Y-86081428D02*
X149554819Y-86176666D01*
X149554819Y-86176666D02*
X149602438Y-86319523D01*
X149602438Y-86319523D02*
X149650057Y-86367142D01*
X149554819Y-86700476D02*
X149554819Y-87367142D01*
X149554819Y-87367142D02*
X150554819Y-86938571D01*
X149650057Y-87700476D02*
X149602438Y-87748095D01*
X149602438Y-87748095D02*
X149554819Y-87843333D01*
X149554819Y-87843333D02*
X149554819Y-88081428D01*
X149554819Y-88081428D02*
X149602438Y-88176666D01*
X149602438Y-88176666D02*
X149650057Y-88224285D01*
X149650057Y-88224285D02*
X149745295Y-88271904D01*
X149745295Y-88271904D02*
X149840533Y-88271904D01*
X149840533Y-88271904D02*
X149983390Y-88224285D01*
X149983390Y-88224285D02*
X150554819Y-87652857D01*
X150554819Y-87652857D02*
X150554819Y-88271904D01*
X179316666Y-99114819D02*
X179649999Y-98638628D01*
X179888094Y-99114819D02*
X179888094Y-98114819D01*
X179888094Y-98114819D02*
X179507142Y-98114819D01*
X179507142Y-98114819D02*
X179411904Y-98162438D01*
X179411904Y-98162438D02*
X179364285Y-98210057D01*
X179364285Y-98210057D02*
X179316666Y-98305295D01*
X179316666Y-98305295D02*
X179316666Y-98448152D01*
X179316666Y-98448152D02*
X179364285Y-98543390D01*
X179364285Y-98543390D02*
X179411904Y-98591009D01*
X179411904Y-98591009D02*
X179507142Y-98638628D01*
X179507142Y-98638628D02*
X179888094Y-98638628D01*
X178745237Y-98543390D02*
X178840475Y-98495771D01*
X178840475Y-98495771D02*
X178888094Y-98448152D01*
X178888094Y-98448152D02*
X178935713Y-98352914D01*
X178935713Y-98352914D02*
X178935713Y-98305295D01*
X178935713Y-98305295D02*
X178888094Y-98210057D01*
X178888094Y-98210057D02*
X178840475Y-98162438D01*
X178840475Y-98162438D02*
X178745237Y-98114819D01*
X178745237Y-98114819D02*
X178554761Y-98114819D01*
X178554761Y-98114819D02*
X178459523Y-98162438D01*
X178459523Y-98162438D02*
X178411904Y-98210057D01*
X178411904Y-98210057D02*
X178364285Y-98305295D01*
X178364285Y-98305295D02*
X178364285Y-98352914D01*
X178364285Y-98352914D02*
X178411904Y-98448152D01*
X178411904Y-98448152D02*
X178459523Y-98495771D01*
X178459523Y-98495771D02*
X178554761Y-98543390D01*
X178554761Y-98543390D02*
X178745237Y-98543390D01*
X178745237Y-98543390D02*
X178840475Y-98591009D01*
X178840475Y-98591009D02*
X178888094Y-98638628D01*
X178888094Y-98638628D02*
X178935713Y-98733866D01*
X178935713Y-98733866D02*
X178935713Y-98924342D01*
X178935713Y-98924342D02*
X178888094Y-99019580D01*
X178888094Y-99019580D02*
X178840475Y-99067200D01*
X178840475Y-99067200D02*
X178745237Y-99114819D01*
X178745237Y-99114819D02*
X178554761Y-99114819D01*
X178554761Y-99114819D02*
X178459523Y-99067200D01*
X178459523Y-99067200D02*
X178411904Y-99019580D01*
X178411904Y-99019580D02*
X178364285Y-98924342D01*
X178364285Y-98924342D02*
X178364285Y-98733866D01*
X178364285Y-98733866D02*
X178411904Y-98638628D01*
X178411904Y-98638628D02*
X178459523Y-98591009D01*
X178459523Y-98591009D02*
X178554761Y-98543390D01*
X170219580Y-89353333D02*
X170267200Y-89305714D01*
X170267200Y-89305714D02*
X170314819Y-89162857D01*
X170314819Y-89162857D02*
X170314819Y-89067619D01*
X170314819Y-89067619D02*
X170267200Y-88924762D01*
X170267200Y-88924762D02*
X170171961Y-88829524D01*
X170171961Y-88829524D02*
X170076723Y-88781905D01*
X170076723Y-88781905D02*
X169886247Y-88734286D01*
X169886247Y-88734286D02*
X169743390Y-88734286D01*
X169743390Y-88734286D02*
X169552914Y-88781905D01*
X169552914Y-88781905D02*
X169457676Y-88829524D01*
X169457676Y-88829524D02*
X169362438Y-88924762D01*
X169362438Y-88924762D02*
X169314819Y-89067619D01*
X169314819Y-89067619D02*
X169314819Y-89162857D01*
X169314819Y-89162857D02*
X169362438Y-89305714D01*
X169362438Y-89305714D02*
X169410057Y-89353333D01*
X169314819Y-90210476D02*
X169314819Y-90020000D01*
X169314819Y-90020000D02*
X169362438Y-89924762D01*
X169362438Y-89924762D02*
X169410057Y-89877143D01*
X169410057Y-89877143D02*
X169552914Y-89781905D01*
X169552914Y-89781905D02*
X169743390Y-89734286D01*
X169743390Y-89734286D02*
X170124342Y-89734286D01*
X170124342Y-89734286D02*
X170219580Y-89781905D01*
X170219580Y-89781905D02*
X170267200Y-89829524D01*
X170267200Y-89829524D02*
X170314819Y-89924762D01*
X170314819Y-89924762D02*
X170314819Y-90115238D01*
X170314819Y-90115238D02*
X170267200Y-90210476D01*
X170267200Y-90210476D02*
X170219580Y-90258095D01*
X170219580Y-90258095D02*
X170124342Y-90305714D01*
X170124342Y-90305714D02*
X169886247Y-90305714D01*
X169886247Y-90305714D02*
X169791009Y-90258095D01*
X169791009Y-90258095D02*
X169743390Y-90210476D01*
X169743390Y-90210476D02*
X169695771Y-90115238D01*
X169695771Y-90115238D02*
X169695771Y-89924762D01*
X169695771Y-89924762D02*
X169743390Y-89829524D01*
X169743390Y-89829524D02*
X169791009Y-89781905D01*
X169791009Y-89781905D02*
X169886247Y-89734286D01*
X168459580Y-89343333D02*
X168507200Y-89295714D01*
X168507200Y-89295714D02*
X168554819Y-89152857D01*
X168554819Y-89152857D02*
X168554819Y-89057619D01*
X168554819Y-89057619D02*
X168507200Y-88914762D01*
X168507200Y-88914762D02*
X168411961Y-88819524D01*
X168411961Y-88819524D02*
X168316723Y-88771905D01*
X168316723Y-88771905D02*
X168126247Y-88724286D01*
X168126247Y-88724286D02*
X167983390Y-88724286D01*
X167983390Y-88724286D02*
X167792914Y-88771905D01*
X167792914Y-88771905D02*
X167697676Y-88819524D01*
X167697676Y-88819524D02*
X167602438Y-88914762D01*
X167602438Y-88914762D02*
X167554819Y-89057619D01*
X167554819Y-89057619D02*
X167554819Y-89152857D01*
X167554819Y-89152857D02*
X167602438Y-89295714D01*
X167602438Y-89295714D02*
X167650057Y-89343333D01*
X167888152Y-90200476D02*
X168554819Y-90200476D01*
X167507200Y-89962381D02*
X168221485Y-89724286D01*
X168221485Y-89724286D02*
X168221485Y-90343333D01*
X160779580Y-103547142D02*
X160827200Y-103499523D01*
X160827200Y-103499523D02*
X160874819Y-103356666D01*
X160874819Y-103356666D02*
X160874819Y-103261428D01*
X160874819Y-103261428D02*
X160827200Y-103118571D01*
X160827200Y-103118571D02*
X160731961Y-103023333D01*
X160731961Y-103023333D02*
X160636723Y-102975714D01*
X160636723Y-102975714D02*
X160446247Y-102928095D01*
X160446247Y-102928095D02*
X160303390Y-102928095D01*
X160303390Y-102928095D02*
X160112914Y-102975714D01*
X160112914Y-102975714D02*
X160017676Y-103023333D01*
X160017676Y-103023333D02*
X159922438Y-103118571D01*
X159922438Y-103118571D02*
X159874819Y-103261428D01*
X159874819Y-103261428D02*
X159874819Y-103356666D01*
X159874819Y-103356666D02*
X159922438Y-103499523D01*
X159922438Y-103499523D02*
X159970057Y-103547142D01*
X159970057Y-103928095D02*
X159922438Y-103975714D01*
X159922438Y-103975714D02*
X159874819Y-104070952D01*
X159874819Y-104070952D02*
X159874819Y-104309047D01*
X159874819Y-104309047D02*
X159922438Y-104404285D01*
X159922438Y-104404285D02*
X159970057Y-104451904D01*
X159970057Y-104451904D02*
X160065295Y-104499523D01*
X160065295Y-104499523D02*
X160160533Y-104499523D01*
X160160533Y-104499523D02*
X160303390Y-104451904D01*
X160303390Y-104451904D02*
X160874819Y-103880476D01*
X160874819Y-103880476D02*
X160874819Y-104499523D01*
X159874819Y-104832857D02*
X159874819Y-105499523D01*
X159874819Y-105499523D02*
X160874819Y-105070952D01*
X175179580Y-87417142D02*
X175227200Y-87369523D01*
X175227200Y-87369523D02*
X175274819Y-87226666D01*
X175274819Y-87226666D02*
X175274819Y-87131428D01*
X175274819Y-87131428D02*
X175227200Y-86988571D01*
X175227200Y-86988571D02*
X175131961Y-86893333D01*
X175131961Y-86893333D02*
X175036723Y-86845714D01*
X175036723Y-86845714D02*
X174846247Y-86798095D01*
X174846247Y-86798095D02*
X174703390Y-86798095D01*
X174703390Y-86798095D02*
X174512914Y-86845714D01*
X174512914Y-86845714D02*
X174417676Y-86893333D01*
X174417676Y-86893333D02*
X174322438Y-86988571D01*
X174322438Y-86988571D02*
X174274819Y-87131428D01*
X174274819Y-87131428D02*
X174274819Y-87226666D01*
X174274819Y-87226666D02*
X174322438Y-87369523D01*
X174322438Y-87369523D02*
X174370057Y-87417142D01*
X174608152Y-88274285D02*
X175274819Y-88274285D01*
X174227200Y-88036190D02*
X174941485Y-87798095D01*
X174941485Y-87798095D02*
X174941485Y-88417142D01*
X174274819Y-88702857D02*
X174274819Y-89369523D01*
X174274819Y-89369523D02*
X175274819Y-88940952D01*
%TO.C,R7*%
D13*
X176212742Y-97522500D02*
X176687258Y-97522500D01*
X176212742Y-96477500D02*
X176687258Y-96477500D01*
%TO.C,R3*%
X177072500Y-94687258D02*
X177072500Y-94212742D01*
X176027500Y-94687258D02*
X176027500Y-94212742D01*
%TO.C,C25*%
X152960000Y-81440580D02*
X152960000Y-81159420D01*
X151940000Y-81440580D02*
X151940000Y-81159420D01*
%TO.C,C35*%
X155390000Y-81440580D02*
X155390000Y-81159420D01*
X156410000Y-81440580D02*
X156410000Y-81159420D01*
%TO.C,C28*%
X154710000Y-81440580D02*
X154710000Y-81159420D01*
X153690000Y-81440580D02*
X153690000Y-81159420D01*
%TO.C,C73*%
X169670580Y-95070000D02*
X169389420Y-95070000D01*
X169670580Y-96090000D02*
X169389420Y-96090000D01*
%TO.C,R32*%
X162035000Y-118327064D02*
X162035000Y-117872936D01*
X160565000Y-118327064D02*
X160565000Y-117872936D01*
%TO.C,C69*%
X162765000Y-117838748D02*
X162765000Y-118361252D01*
X164235000Y-117838748D02*
X164235000Y-118361252D01*
%TO.C,R14*%
X143037258Y-112677500D02*
X142562742Y-112677500D01*
X143037258Y-113722500D02*
X142562742Y-113722500D01*
%TO.C,C30*%
X149040000Y-97584420D02*
X149040000Y-97865580D01*
X150060000Y-97584420D02*
X150060000Y-97865580D01*
%TO.C,SW3*%
D10*
X166200000Y-87200000D02*
X166200000Y-87200000D01*
X166200000Y-87100000D02*
X166200000Y-87100000D01*
X165950000Y-88700000D02*
X165650000Y-88700000D01*
X165950000Y-88400000D02*
X165950000Y-88700000D01*
X165950000Y-86700000D02*
X165950000Y-87000000D01*
X165650000Y-86700000D02*
X165950000Y-86700000D01*
X164750000Y-88700000D02*
X164450000Y-88700000D01*
X164450000Y-88700000D02*
X164450000Y-88400000D01*
X164450000Y-87000000D02*
X164450000Y-86700000D01*
X164450000Y-86700000D02*
X164750000Y-86700000D01*
X166200000Y-87200000D02*
G75*
G02*
X166200000Y-87100000I0J50000D01*
G01*
X166200000Y-87100000D02*
G75*
G02*
X166200000Y-87200000I0J-50000D01*
G01*
%TO.C,FB6*%
D13*
X147086252Y-92965000D02*
X146563748Y-92965000D01*
X147086252Y-94435000D02*
X146563748Y-94435000D01*
%TO.C,C67*%
X122311252Y-108865000D02*
X121788748Y-108865000D01*
X122311252Y-110335000D02*
X121788748Y-110335000D01*
%TO.C,C57*%
X158240580Y-86390000D02*
X157959420Y-86390000D01*
X158240580Y-87410000D02*
X157959420Y-87410000D01*
%TO.C,C70*%
X158240580Y-88090000D02*
X157959420Y-88090000D01*
X158240580Y-89110000D02*
X157959420Y-89110000D01*
%TO.C,C17*%
X150765000Y-94334420D02*
X150765000Y-94615580D01*
X151785000Y-94334420D02*
X151785000Y-94615580D01*
%TO.C,R2*%
X175372500Y-94212742D02*
X175372500Y-94687258D01*
X174327500Y-94212742D02*
X174327500Y-94687258D01*
%TO.C,C36*%
X149015000Y-94334420D02*
X149015000Y-94615580D01*
X150035000Y-94334420D02*
X150035000Y-94615580D01*
%TO.C,C37*%
X162190000Y-87959420D02*
X162190000Y-88240580D01*
X163210000Y-87959420D02*
X163210000Y-88240580D01*
%TO.C,C23*%
X153859420Y-97440000D02*
X154140580Y-97440000D01*
X153859420Y-98460000D02*
X154140580Y-98460000D01*
D14*
%TO.C,G\u002A\u002A\u002A*%
G36*
X189096826Y-77005482D02*
G01*
X189096826Y-78610386D01*
X188745067Y-78610386D01*
X188393307Y-78610386D01*
X188393307Y-78120691D01*
X188393307Y-77630996D01*
X187957271Y-77624828D01*
X187918323Y-77624266D01*
X187798028Y-77622274D01*
X187701844Y-77620066D01*
X187625716Y-77617359D01*
X187565589Y-77613875D01*
X187517407Y-77609333D01*
X187477115Y-77603451D01*
X187440659Y-77595950D01*
X187403982Y-77586548D01*
X187333070Y-77565199D01*
X187162348Y-77495431D01*
X187012382Y-77405677D01*
X186883781Y-77296509D01*
X186777152Y-77168500D01*
X186693101Y-77022225D01*
X186632237Y-76858254D01*
X186614838Y-76775313D01*
X186602896Y-76668086D01*
X186597838Y-76550483D01*
X186598305Y-76521812D01*
X187287129Y-76521812D01*
X187288596Y-76595798D01*
X187293551Y-76652210D01*
X187303278Y-76696540D01*
X187319070Y-76737517D01*
X187339041Y-76775652D01*
X187403332Y-76862050D01*
X187485206Y-76937083D01*
X187576427Y-76992591D01*
X187667802Y-77034795D01*
X188030554Y-77039176D01*
X188393307Y-77043556D01*
X188393307Y-76521614D01*
X188393307Y-75999671D01*
X188023226Y-76004250D01*
X187653145Y-76008828D01*
X187574875Y-76050051D01*
X187473584Y-76116201D01*
X187388571Y-76199104D01*
X187327334Y-76292559D01*
X187313597Y-76321802D01*
X187299430Y-76360004D01*
X187291370Y-76399953D01*
X187287806Y-76450829D01*
X187287129Y-76521812D01*
X186598305Y-76521812D01*
X186599771Y-76431871D01*
X186608802Y-76321616D01*
X186625039Y-76229083D01*
X186629620Y-76211228D01*
X186686822Y-76051362D01*
X186768978Y-75902240D01*
X186873118Y-75767215D01*
X186996275Y-75649642D01*
X187135480Y-75552875D01*
X187287764Y-75480268D01*
X187330916Y-75464648D01*
X187376597Y-75450074D01*
X187423548Y-75437871D01*
X187474571Y-75427833D01*
X187532472Y-75419752D01*
X187600056Y-75413421D01*
X187680125Y-75408633D01*
X187775485Y-75405180D01*
X187888939Y-75402855D01*
X188023292Y-75401451D01*
X188181349Y-75400761D01*
X188365913Y-75400577D01*
X189096826Y-75400577D01*
X189096826Y-76521614D01*
X189096826Y-77005482D01*
G37*
G36*
X190459896Y-77342423D02*
G01*
X190459896Y-77978769D01*
X190983872Y-77983124D01*
X191030944Y-77983516D01*
X191159889Y-77984662D01*
X191263601Y-77985846D01*
X191345170Y-77987276D01*
X191407689Y-77989161D01*
X191454247Y-77991709D01*
X191487936Y-77995128D01*
X191511846Y-77999628D01*
X191529069Y-78005415D01*
X191542694Y-78012700D01*
X191555814Y-78021690D01*
X191577841Y-78040211D01*
X191620128Y-78092893D01*
X191650258Y-78153676D01*
X191661743Y-78210967D01*
X191652694Y-78259127D01*
X191627608Y-78317555D01*
X191592754Y-78372327D01*
X191554432Y-78411663D01*
X191543367Y-78419057D01*
X191529557Y-78425609D01*
X191510852Y-78430844D01*
X191484201Y-78434947D01*
X191446551Y-78438104D01*
X191394850Y-78440500D01*
X191326045Y-78442321D01*
X191237085Y-78443753D01*
X191124916Y-78444980D01*
X190986487Y-78446189D01*
X190459896Y-78450544D01*
X190459896Y-79079562D01*
X190459896Y-79708580D01*
X190985035Y-79712772D01*
X191510173Y-79716965D01*
X191562664Y-79757018D01*
X191585696Y-79776973D01*
X191630702Y-79838598D01*
X191652979Y-79908315D01*
X191653080Y-79980213D01*
X191631559Y-80048378D01*
X191588970Y-80106900D01*
X191525866Y-80149867D01*
X191521030Y-80152016D01*
X191502148Y-80159214D01*
X191480103Y-80164959D01*
X191451625Y-80169414D01*
X191413446Y-80172746D01*
X191362298Y-80175119D01*
X191294910Y-80176698D01*
X191208016Y-80177649D01*
X191098345Y-80178138D01*
X190962631Y-80178328D01*
X190461384Y-80178650D01*
X190456976Y-80790565D01*
X190452568Y-81402481D01*
X190413300Y-81509982D01*
X190385341Y-81580599D01*
X190328567Y-81692289D01*
X190257749Y-81793094D01*
X190166139Y-81893479D01*
X190075117Y-81976873D01*
X189982393Y-82044358D01*
X189880835Y-82099259D01*
X189760205Y-82147996D01*
X189631795Y-82193941D01*
X188997894Y-82198457D01*
X188363993Y-82202972D01*
X188363993Y-82720600D01*
X188363818Y-82823533D01*
X188363184Y-82939523D01*
X188362142Y-83044659D01*
X188360751Y-83135249D01*
X188359071Y-83207601D01*
X188357159Y-83258024D01*
X188355074Y-83282826D01*
X188351310Y-83297381D01*
X188320466Y-83355642D01*
X188270679Y-83406294D01*
X188210098Y-83440475D01*
X188181101Y-83449211D01*
X188100296Y-83455421D01*
X188024967Y-83436160D01*
X187960653Y-83393496D01*
X187912893Y-83329497D01*
X187909335Y-83322469D01*
X187901295Y-83305319D01*
X187894895Y-83287298D01*
X187889987Y-83265246D01*
X187886424Y-83236004D01*
X187884057Y-83196410D01*
X187882739Y-83143305D01*
X187882322Y-83073530D01*
X187882660Y-82983922D01*
X187883603Y-82871324D01*
X187885006Y-82732573D01*
X187890504Y-82201269D01*
X187262505Y-82201269D01*
X186634507Y-82201269D01*
X186634507Y-82744150D01*
X186634463Y-82851344D01*
X186634195Y-82973071D01*
X186633554Y-83070820D01*
X186632397Y-83147660D01*
X186630580Y-83206659D01*
X186627961Y-83250884D01*
X186624396Y-83283403D01*
X186619741Y-83307285D01*
X186613853Y-83325598D01*
X186606588Y-83341409D01*
X186599470Y-83354149D01*
X186551718Y-83408082D01*
X186490192Y-83441855D01*
X186420881Y-83455782D01*
X186349776Y-83450176D01*
X186282867Y-83425353D01*
X186226141Y-83381626D01*
X186185590Y-83319311D01*
X186181145Y-83305171D01*
X186176444Y-83277428D01*
X186172717Y-83236282D01*
X186169873Y-83179082D01*
X186167820Y-83103175D01*
X186166466Y-83005911D01*
X186165721Y-82884639D01*
X186165494Y-82736708D01*
X186165494Y-82201269D01*
X185543089Y-82201269D01*
X184920685Y-82201269D01*
X184916517Y-82757168D01*
X184916146Y-82806192D01*
X184915043Y-82939811D01*
X184913878Y-83048030D01*
X184912477Y-83133808D01*
X184910668Y-83200104D01*
X184908275Y-83249876D01*
X184905127Y-83286082D01*
X184901049Y-83311682D01*
X184895868Y-83329634D01*
X184889410Y-83342896D01*
X184881503Y-83354427D01*
X184838805Y-83398841D01*
X184767237Y-83438775D01*
X184685170Y-83452723D01*
X184623877Y-83445072D01*
X184548997Y-83411686D01*
X184488837Y-83354427D01*
X184486117Y-83350715D01*
X184478697Y-83338948D01*
X184472670Y-83324496D01*
X184467864Y-83304400D01*
X184464105Y-83275701D01*
X184461219Y-83235440D01*
X184459034Y-83180660D01*
X184457375Y-83108401D01*
X184456069Y-83015706D01*
X184454944Y-82899614D01*
X184453824Y-82757168D01*
X184449656Y-82201269D01*
X183863275Y-82201269D01*
X183797721Y-82201239D01*
X183652633Y-82200861D01*
X183532537Y-82199972D01*
X183434346Y-82198469D01*
X183354973Y-82196250D01*
X183291331Y-82193214D01*
X183240334Y-82189258D01*
X183198894Y-82184280D01*
X183163924Y-82178180D01*
X183090569Y-82160521D01*
X182927967Y-82100739D01*
X182779675Y-82016634D01*
X182647874Y-81910144D01*
X182534748Y-81783210D01*
X182442481Y-81637770D01*
X182373256Y-81475764D01*
X182333874Y-81358511D01*
X182328627Y-80768580D01*
X182323379Y-80178650D01*
X181825616Y-80178650D01*
X181743144Y-80178623D01*
X181614368Y-80178256D01*
X181510116Y-80177082D01*
X181427300Y-80174639D01*
X181362831Y-80170464D01*
X181313621Y-80164094D01*
X181276581Y-80155064D01*
X181248622Y-80142913D01*
X181226656Y-80127178D01*
X181207594Y-80107394D01*
X181188347Y-80083099D01*
X181173854Y-80061359D01*
X181154880Y-80009055D01*
X182795201Y-80009055D01*
X182795359Y-80208647D01*
X182795752Y-80387753D01*
X182796417Y-80547564D01*
X182797386Y-80689271D01*
X182798696Y-80814065D01*
X182800380Y-80923137D01*
X182802474Y-81017679D01*
X182805012Y-81098880D01*
X182808029Y-81167933D01*
X182811559Y-81226029D01*
X182815638Y-81274357D01*
X182820300Y-81314110D01*
X182825580Y-81346479D01*
X182831512Y-81372654D01*
X182838132Y-81393827D01*
X182845473Y-81411188D01*
X182853571Y-81425929D01*
X182862461Y-81439241D01*
X182872176Y-81452315D01*
X182882752Y-81466341D01*
X182894224Y-81482511D01*
X182906540Y-81500029D01*
X182988934Y-81592173D01*
X183086103Y-81665840D01*
X183191156Y-81715619D01*
X183283822Y-81746913D01*
X186406510Y-81746125D01*
X186685120Y-81746049D01*
X187020346Y-81745936D01*
X187328361Y-81745797D01*
X187610349Y-81745623D01*
X187867496Y-81745403D01*
X188100987Y-81745128D01*
X188312007Y-81744787D01*
X188501742Y-81744372D01*
X188671376Y-81743871D01*
X188822095Y-81743275D01*
X188955085Y-81742574D01*
X189071530Y-81741759D01*
X189172615Y-81740819D01*
X189259526Y-81739744D01*
X189333449Y-81738526D01*
X189395567Y-81737153D01*
X189447067Y-81735616D01*
X189489134Y-81733905D01*
X189522953Y-81732010D01*
X189549709Y-81729922D01*
X189570588Y-81727630D01*
X189586774Y-81725124D01*
X189599453Y-81722395D01*
X189609810Y-81719433D01*
X189706603Y-81679035D01*
X189812310Y-81607948D01*
X189898445Y-81516349D01*
X189962933Y-81406544D01*
X190003702Y-81280842D01*
X190004705Y-81275584D01*
X190009762Y-81231026D01*
X190014035Y-81162959D01*
X190017328Y-81076276D01*
X190019447Y-80975874D01*
X190020196Y-80866647D01*
X190020196Y-80530120D01*
X188638806Y-80531070D01*
X188395872Y-80531387D01*
X188163060Y-80532020D01*
X187952540Y-80532951D01*
X187765191Y-80534171D01*
X187601889Y-80535670D01*
X187463512Y-80537438D01*
X187350937Y-80539467D01*
X187265042Y-80541746D01*
X187206705Y-80544266D01*
X187176803Y-80547018D01*
X187152949Y-80551709D01*
X187102143Y-80564452D01*
X187055914Y-80581740D01*
X187010117Y-80606341D01*
X186960609Y-80641024D01*
X186903245Y-80688558D01*
X186833881Y-80751712D01*
X186748372Y-80833255D01*
X186662891Y-80914525D01*
X186584340Y-80985477D01*
X186517742Y-81040160D01*
X186459031Y-81081405D01*
X186404141Y-81112045D01*
X186349007Y-81134911D01*
X186289563Y-81152835D01*
X186254802Y-81158295D01*
X186192861Y-81163343D01*
X186108719Y-81167621D01*
X186006032Y-81171130D01*
X185888457Y-81173867D01*
X185759652Y-81175834D01*
X185623272Y-81177030D01*
X185482976Y-81177454D01*
X185342420Y-81177106D01*
X185205260Y-81175985D01*
X185075154Y-81174091D01*
X184955759Y-81171424D01*
X184850731Y-81167984D01*
X184763728Y-81163769D01*
X184698406Y-81158779D01*
X184658423Y-81153015D01*
X184612657Y-81141091D01*
X184523545Y-81109069D01*
X184440897Y-81064774D01*
X184357476Y-81003952D01*
X184266045Y-80922348D01*
X184131577Y-80793975D01*
X184038610Y-80817792D01*
X183934228Y-80833428D01*
X183819273Y-80825023D01*
X183711275Y-80790511D01*
X183613846Y-80731597D01*
X183530599Y-80649983D01*
X183465145Y-80547373D01*
X183452703Y-80521543D01*
X183433815Y-80476207D01*
X183423154Y-80434503D01*
X183418434Y-80385460D01*
X183417369Y-80318107D01*
X183417374Y-80317429D01*
X183776457Y-80317429D01*
X183782001Y-80358459D01*
X183808523Y-80413225D01*
X183851866Y-80450897D01*
X183907426Y-80469823D01*
X183961836Y-80463636D01*
X184012091Y-80428940D01*
X184039989Y-80392194D01*
X184057193Y-80333883D01*
X184047275Y-80274453D01*
X184010284Y-80219685D01*
X183979233Y-80192424D01*
X183949990Y-80181194D01*
X183911351Y-80183662D01*
X183868414Y-80198529D01*
X183822718Y-80231563D01*
X183789370Y-80273870D01*
X183776457Y-80317429D01*
X183417374Y-80317429D01*
X183417711Y-80271179D01*
X183420563Y-80219212D01*
X183428287Y-80179160D01*
X183443205Y-80140638D01*
X183467639Y-80093260D01*
X183475703Y-80078862D01*
X183548210Y-79979837D01*
X183635720Y-79903661D01*
X183734521Y-79850947D01*
X183840900Y-79822311D01*
X183951146Y-79818366D01*
X184061545Y-79839727D01*
X184168386Y-79887009D01*
X184267955Y-79960825D01*
X184329421Y-80029766D01*
X184385971Y-80129944D01*
X184418330Y-80240503D01*
X184423796Y-80333883D01*
X184425105Y-80356246D01*
X184404904Y-80471976D01*
X184388406Y-80527044D01*
X184500993Y-80634988D01*
X184532512Y-80665658D01*
X184566353Y-80698797D01*
X184596386Y-80726423D01*
X184625372Y-80749034D01*
X184656069Y-80767129D01*
X184691239Y-80781204D01*
X184733640Y-80791759D01*
X184786032Y-80799291D01*
X184851175Y-80804298D01*
X184931829Y-80807277D01*
X185030754Y-80808728D01*
X185150709Y-80809148D01*
X185294454Y-80809035D01*
X185464750Y-80808886D01*
X185577802Y-80808833D01*
X185731808Y-80808510D01*
X185860364Y-80807839D01*
X185965823Y-80806758D01*
X186050539Y-80805204D01*
X186116867Y-80803114D01*
X186167161Y-80800426D01*
X186203774Y-80797078D01*
X186229062Y-80793007D01*
X186245377Y-80788150D01*
X186247471Y-80787188D01*
X186275432Y-80768510D01*
X186319601Y-80733154D01*
X186375868Y-80684650D01*
X186440124Y-80626527D01*
X186508259Y-80562317D01*
X186540193Y-80531779D01*
X186633324Y-80445531D01*
X186713021Y-80377249D01*
X186783723Y-80323757D01*
X186849871Y-80281877D01*
X186915906Y-80248432D01*
X186986267Y-80220244D01*
X187081535Y-80185978D01*
X188550866Y-80181973D01*
X190020196Y-80177969D01*
X190020196Y-79965544D01*
X190020196Y-79753119D01*
X188353001Y-79757027D01*
X186685805Y-79760935D01*
X186607337Y-79802258D01*
X186591838Y-79811412D01*
X186544555Y-79845241D01*
X186484064Y-79894074D01*
X186415379Y-79953768D01*
X186343517Y-80020180D01*
X186331400Y-80031712D01*
X186249002Y-80109065D01*
X186182124Y-80169009D01*
X186126364Y-80214683D01*
X186077318Y-80249223D01*
X186030585Y-80275767D01*
X185981761Y-80297453D01*
X185926443Y-80317419D01*
X185856374Y-80335944D01*
X185748250Y-80351488D01*
X185634138Y-80356026D01*
X185524965Y-80349262D01*
X185431656Y-80330897D01*
X185422345Y-80328124D01*
X185380629Y-80315192D01*
X185342720Y-80301758D01*
X185306577Y-80286136D01*
X185270154Y-80266640D01*
X185231409Y-80241583D01*
X185188296Y-80209279D01*
X185138773Y-80168042D01*
X185080795Y-80116185D01*
X185012319Y-80052023D01*
X184931300Y-79973868D01*
X184835696Y-79880035D01*
X184723461Y-79768837D01*
X184592552Y-79638587D01*
X184523362Y-79569508D01*
X184416881Y-79462482D01*
X184317055Y-79361288D01*
X184225915Y-79268035D01*
X184145493Y-79184828D01*
X184077820Y-79113774D01*
X184024927Y-79056980D01*
X183988846Y-79016553D01*
X183971607Y-78994599D01*
X183943108Y-78939087D01*
X183909989Y-78851258D01*
X183887404Y-78761683D01*
X183879054Y-78682829D01*
X183879054Y-78611317D01*
X183706838Y-78607187D01*
X183534622Y-78603058D01*
X183534622Y-77005482D01*
X183534622Y-75407905D01*
X183882718Y-75403976D01*
X184230814Y-75400046D01*
X184230814Y-76052533D01*
X184230814Y-76705020D01*
X184846394Y-76705020D01*
X185461974Y-76705020D01*
X185461974Y-76052798D01*
X185461974Y-75400577D01*
X185821062Y-75400577D01*
X186180150Y-75400577D01*
X186180150Y-77005482D01*
X186180150Y-78610386D01*
X185821062Y-78610386D01*
X185461974Y-78610386D01*
X185461974Y-77958165D01*
X185461974Y-77305943D01*
X184846394Y-77305943D01*
X184230814Y-77305943D01*
X184231423Y-77983814D01*
X184231475Y-78033750D01*
X184231772Y-78186859D01*
X184232321Y-78314173D01*
X184233218Y-78418414D01*
X184234556Y-78502307D01*
X184236428Y-78568573D01*
X184238927Y-78619936D01*
X184242148Y-78659120D01*
X184246184Y-78688846D01*
X184251127Y-78711839D01*
X184257072Y-78730820D01*
X184261346Y-78741132D01*
X184272293Y-78760995D01*
X184289380Y-78785566D01*
X184314240Y-78816609D01*
X184348511Y-78855890D01*
X184393828Y-78905173D01*
X184451827Y-78966224D01*
X184524144Y-79040807D01*
X184612415Y-79130688D01*
X184718275Y-79237632D01*
X184843361Y-79363404D01*
X184905828Y-79426036D01*
X185033142Y-79553059D01*
X185141927Y-79660578D01*
X185233398Y-79749746D01*
X185308772Y-79821714D01*
X185369263Y-79877634D01*
X185416088Y-79918658D01*
X185450461Y-79945937D01*
X185473598Y-79960624D01*
X185485281Y-79965959D01*
X185566173Y-79988720D01*
X185658260Y-79996164D01*
X185749654Y-79988159D01*
X185828466Y-79964572D01*
X185842192Y-79957143D01*
X185886372Y-79926276D01*
X185945696Y-79878373D01*
X186016646Y-79816350D01*
X186095704Y-79743122D01*
X186099565Y-79739456D01*
X186182284Y-79662416D01*
X186250034Y-79602988D01*
X186307541Y-79557417D01*
X186359536Y-79521944D01*
X186410747Y-79492814D01*
X186433852Y-79480724D01*
X186461814Y-79466217D01*
X186488429Y-79453292D01*
X186515401Y-79441856D01*
X186544433Y-79431820D01*
X186577228Y-79423091D01*
X186615489Y-79415579D01*
X186660920Y-79409193D01*
X186715225Y-79403841D01*
X186780106Y-79399433D01*
X186857267Y-79395876D01*
X186948411Y-79393081D01*
X187055241Y-79390956D01*
X187179462Y-79389410D01*
X187322776Y-79388352D01*
X187486886Y-79387691D01*
X187673497Y-79387335D01*
X187884310Y-79387193D01*
X188121030Y-79387175D01*
X188385360Y-79387190D01*
X190020196Y-79387190D01*
X190020196Y-77285264D01*
X190020188Y-77030003D01*
X190020146Y-76764283D01*
X190020053Y-76525116D01*
X190019890Y-76311029D01*
X190019638Y-76120548D01*
X190019279Y-75952202D01*
X190018794Y-75804516D01*
X190018164Y-75676019D01*
X190017371Y-75565238D01*
X190016397Y-75470698D01*
X190015223Y-75390929D01*
X190013830Y-75324456D01*
X190012199Y-75269808D01*
X190010313Y-75225510D01*
X190008152Y-75190091D01*
X190005699Y-75162077D01*
X190002934Y-75139995D01*
X189999838Y-75122374D01*
X189996394Y-75107739D01*
X189992583Y-75094618D01*
X189952105Y-74990104D01*
X189894299Y-74895239D01*
X189815769Y-74809117D01*
X189748144Y-74754456D01*
X189632144Y-74690766D01*
X189504921Y-74652778D01*
X189494711Y-74651716D01*
X189453420Y-74649896D01*
X189383118Y-74648245D01*
X189284002Y-74646764D01*
X189156267Y-74645454D01*
X189000109Y-74644316D01*
X188815724Y-74643349D01*
X188603307Y-74642555D01*
X188363055Y-74641935D01*
X188095163Y-74641489D01*
X187799827Y-74641217D01*
X187477243Y-74641121D01*
X187127607Y-74641201D01*
X186751114Y-74641458D01*
X186347961Y-74641892D01*
X183270802Y-74645759D01*
X183171633Y-74692581D01*
X183094747Y-74735865D01*
X182995688Y-74813347D01*
X182911276Y-74905072D01*
X182848843Y-75003967D01*
X182801789Y-75100115D01*
X182797483Y-78163358D01*
X182797266Y-78314596D01*
X182796737Y-78662116D01*
X182796236Y-78982005D01*
X182795797Y-79275452D01*
X182795455Y-79543648D01*
X182795245Y-79787786D01*
X182795201Y-80009055D01*
X181154880Y-80009055D01*
X181148570Y-79991659D01*
X181147267Y-79917779D01*
X181168327Y-79846463D01*
X181210131Y-79784454D01*
X181271061Y-79738494D01*
X181277858Y-79735133D01*
X181295128Y-79727983D01*
X181315750Y-79722306D01*
X181342968Y-79717933D01*
X181380028Y-79714696D01*
X181430175Y-79712425D01*
X181496654Y-79710952D01*
X181582711Y-79710109D01*
X181691590Y-79709726D01*
X181826537Y-79709636D01*
X182325447Y-79709636D01*
X182325447Y-79080098D01*
X182325447Y-78450560D01*
X181806185Y-78446198D01*
X181686243Y-78445144D01*
X181571670Y-78443920D01*
X181480691Y-78442514D01*
X181410236Y-78440735D01*
X181357233Y-78438394D01*
X181318609Y-78435301D01*
X181291293Y-78431267D01*
X181272213Y-78426101D01*
X181258297Y-78419614D01*
X181246473Y-78411616D01*
X181233791Y-78401688D01*
X181176111Y-78338539D01*
X181145889Y-78267602D01*
X181143743Y-78191300D01*
X181170289Y-78112060D01*
X181173038Y-78106820D01*
X181213137Y-78051868D01*
X181269609Y-78013127D01*
X181285038Y-78005605D01*
X181303352Y-77998186D01*
X181324512Y-77992370D01*
X181351827Y-77987960D01*
X181388604Y-77984763D01*
X181438152Y-77982583D01*
X181503780Y-77981227D01*
X181588797Y-77980499D01*
X181696509Y-77980205D01*
X181830226Y-77980150D01*
X182325447Y-77980150D01*
X182325447Y-77342585D01*
X182325447Y-76705020D01*
X181830785Y-76704698D01*
X181824309Y-76704694D01*
X181690404Y-76704478D01*
X181582395Y-76703932D01*
X181497007Y-76702894D01*
X181430965Y-76701200D01*
X181380996Y-76698689D01*
X181343823Y-76695198D01*
X181316173Y-76690565D01*
X181294772Y-76684629D01*
X181276344Y-76677226D01*
X181215404Y-76639501D01*
X181168458Y-76581371D01*
X181144594Y-76505649D01*
X181143109Y-76456278D01*
X181162701Y-76382600D01*
X181205876Y-76318313D01*
X181269168Y-76269976D01*
X181286153Y-76261290D01*
X181303880Y-76253847D01*
X181324544Y-76248030D01*
X181351443Y-76243639D01*
X181387873Y-76240472D01*
X181437132Y-76238331D01*
X181502517Y-76237014D01*
X181587323Y-76236321D01*
X181694849Y-76236052D01*
X181828392Y-76236007D01*
X182323379Y-76236007D01*
X182328757Y-75646076D01*
X182329541Y-75561531D01*
X182330907Y-75428714D01*
X182332346Y-75320319D01*
X182334037Y-75233188D01*
X182336156Y-75164166D01*
X182338884Y-75110096D01*
X182342397Y-75067821D01*
X182346875Y-75034185D01*
X182352496Y-75006032D01*
X182359438Y-74980206D01*
X182367879Y-74953549D01*
X182405451Y-74854574D01*
X182489454Y-74695849D01*
X182596034Y-74554320D01*
X182723296Y-74431982D01*
X182869347Y-74330834D01*
X183032292Y-74252872D01*
X183153549Y-74206218D01*
X183798442Y-74198810D01*
X184443335Y-74191402D01*
X184450664Y-73639162D01*
X184451086Y-73607469D01*
X184452985Y-73471142D01*
X184454791Y-73360543D01*
X184456692Y-73272702D01*
X184458879Y-73204648D01*
X184461542Y-73153413D01*
X184464872Y-73116026D01*
X184469058Y-73089517D01*
X184474290Y-73070918D01*
X184480758Y-73057258D01*
X184488653Y-73045567D01*
X184495802Y-73036191D01*
X184554703Y-72978179D01*
X184620501Y-72947333D01*
X184696771Y-72941872D01*
X184763058Y-72954265D01*
X184826612Y-72987937D01*
X184882130Y-73046478D01*
X184884184Y-73049271D01*
X184891569Y-73060906D01*
X184897578Y-73075270D01*
X184902380Y-73095314D01*
X184906145Y-73123993D01*
X184909045Y-73164262D01*
X184911249Y-73219074D01*
X184912928Y-73291383D01*
X184914252Y-73384143D01*
X184915392Y-73500308D01*
X184916517Y-73642831D01*
X184920685Y-74198730D01*
X185543089Y-74198730D01*
X186165494Y-74198730D01*
X186165494Y-73666868D01*
X186165495Y-73630855D01*
X186165574Y-73498454D01*
X186165903Y-73391447D01*
X186166656Y-73306675D01*
X186168007Y-73240978D01*
X186170132Y-73191197D01*
X186173205Y-73154173D01*
X186177401Y-73126748D01*
X186182894Y-73105761D01*
X186189859Y-73088053D01*
X186198471Y-73070467D01*
X186210060Y-73049267D01*
X186255645Y-72991345D01*
X186313009Y-72957087D01*
X186388400Y-72942276D01*
X186466606Y-72947005D01*
X186539125Y-72976969D01*
X186597393Y-73032401D01*
X186598825Y-73034343D01*
X186606207Y-73045947D01*
X186612256Y-73060413D01*
X186617154Y-73080680D01*
X186621083Y-73109687D01*
X186624226Y-73150372D01*
X186626764Y-73205675D01*
X186628879Y-73278534D01*
X186630753Y-73371888D01*
X186632569Y-73488677D01*
X186634507Y-73631838D01*
X186641835Y-74191402D01*
X187261140Y-74191402D01*
X187880445Y-74191402D01*
X187884048Y-73639175D01*
X187884323Y-73597454D01*
X187885295Y-73463028D01*
X187886349Y-73354130D01*
X187887657Y-73267791D01*
X187889391Y-73201041D01*
X187891723Y-73150909D01*
X187894823Y-73114426D01*
X187898863Y-73088621D01*
X187904016Y-73070525D01*
X187910452Y-73057168D01*
X187918343Y-73045580D01*
X187919082Y-73044588D01*
X187980782Y-72985057D01*
X188056233Y-72950379D01*
X188141087Y-72942564D01*
X188209237Y-72954986D01*
X188271562Y-72988321D01*
X188326446Y-73046478D01*
X188328442Y-73049190D01*
X188335842Y-73060824D01*
X188341863Y-73075166D01*
X188346674Y-73095172D01*
X188350447Y-73123797D01*
X188353351Y-73163999D01*
X188355559Y-73218732D01*
X188357240Y-73290954D01*
X188358566Y-73383621D01*
X188359706Y-73499688D01*
X188360831Y-73642111D01*
X188364997Y-74197290D01*
X188998396Y-74202094D01*
X189631795Y-74206897D01*
X189737985Y-74245887D01*
X189766775Y-74256719D01*
X189895745Y-74313679D01*
X190005560Y-74378714D01*
X190104613Y-74456647D01*
X190161421Y-74510043D01*
X190267924Y-74631622D01*
X190352670Y-74764490D01*
X190420856Y-74916202D01*
X190425419Y-74928704D01*
X190432152Y-74950113D01*
X190437677Y-74974147D01*
X190442147Y-75003771D01*
X190445712Y-75041951D01*
X190448522Y-75091653D01*
X190450731Y-75155841D01*
X190452487Y-75237480D01*
X190453943Y-75339537D01*
X190455250Y-75464976D01*
X190456558Y-75616763D01*
X190461632Y-76236007D01*
X190962755Y-76236329D01*
X191000854Y-76236359D01*
X191129441Y-76236611D01*
X191232836Y-76237204D01*
X191314310Y-76238304D01*
X191377131Y-76240075D01*
X191424568Y-76242683D01*
X191459891Y-76246294D01*
X191486369Y-76251071D01*
X191507271Y-76257182D01*
X191525866Y-76264790D01*
X191552080Y-76278817D01*
X191607500Y-76328355D01*
X191642195Y-76391215D01*
X191655613Y-76461485D01*
X191647200Y-76533253D01*
X191616402Y-76600608D01*
X191562664Y-76657638D01*
X191510173Y-76697692D01*
X190985035Y-76701884D01*
X190459896Y-76706076D01*
X190459896Y-77285264D01*
X190459896Y-77342423D01*
G37*
%TO.C,C7*%
D13*
X153859420Y-99190000D02*
X154140580Y-99190000D01*
X153859420Y-100210000D02*
X154140580Y-100210000D01*
%TO.C,C10*%
X172110000Y-92228080D02*
X172110000Y-91946920D01*
X171090000Y-92228080D02*
X171090000Y-91946920D01*
%TO.C,C46*%
X177060000Y-91390580D02*
X177060000Y-91109420D01*
X176040000Y-91390580D02*
X176040000Y-91109420D01*
%TO.C,C68*%
X122311252Y-111115000D02*
X121788748Y-111115000D01*
X122311252Y-112585000D02*
X121788748Y-112585000D01*
%TO.C,C72*%
X149590000Y-90215580D02*
X149590000Y-89934420D01*
X150610000Y-90215580D02*
X150610000Y-89934420D01*
%TO.C,R8*%
X176687258Y-99222500D02*
X176212742Y-99222500D01*
X176687258Y-98177500D02*
X176212742Y-98177500D01*
%TO.C,C6*%
X169340000Y-92240580D02*
X169340000Y-91959420D01*
X170360000Y-92240580D02*
X170360000Y-91959420D01*
%TO.C,C4*%
X167590000Y-92240580D02*
X167590000Y-91959420D01*
X168610000Y-92240580D02*
X168610000Y-91959420D01*
%TO.C,C27*%
X160860000Y-100984420D02*
X160860000Y-101265580D01*
X159840000Y-100984420D02*
X159840000Y-101265580D01*
%TO.C,C47*%
X175360000Y-91390580D02*
X175360000Y-91109420D01*
X174340000Y-91390580D02*
X174340000Y-91109420D01*
%TD*%
M02*
