G04 #@! TF.GenerationSoftware,KiCad,Pcbnew,8.0.6*
G04 #@! TF.CreationDate,2026-01-15T10:01:28-08:00*
G04 #@! TF.ProjectId,LoRa_Board,4c6f5261-5f42-46f6-9172-642e6b696361,rev?*
G04 #@! TF.SameCoordinates,Original*
G04 #@! TF.FileFunction,Paste,Bot*
G04 #@! TF.FilePolarity,Positive*
%FSLAX46Y46*%
G04 Gerber Fmt 4.6, Leading zero omitted, Abs format (unit mm)*
G04 Created by KiCad (PCBNEW 8.0.6) date 2026-01-15 10:01:28*
%MOMM*%
%LPD*%
G01*
G04 APERTURE LIST*
G04 Aperture macros list*
%AMRoundRect*
0 Rectangle with rounded corners*
0 $1 Rounding radius*
0 $2 $3 $4 $5 $6 $7 $8 $9 X,Y pos of 4 corners*
0 Add a 4 corners polygon primitive as box body*
4,1,4,$2,$3,$4,$5,$6,$7,$8,$9,$2,$3,0*
0 Add four circle primitives for the rounded corners*
1,1,$1+$1,$2,$3*
1,1,$1+$1,$4,$5*
1,1,$1+$1,$6,$7*
1,1,$1+$1,$8,$9*
0 Add four rect primitives between the rounded corners*
20,1,$1+$1,$2,$3,$4,$5,0*
20,1,$1+$1,$4,$5,$6,$7,0*
20,1,$1+$1,$6,$7,$8,$9,0*
20,1,$1+$1,$8,$9,$2,$3,0*%
G04 Aperture macros list end*
%ADD10RoundRect,0.150000X-0.512500X-0.150000X0.512500X-0.150000X0.512500X0.150000X-0.512500X0.150000X0*%
%ADD11RoundRect,0.250000X-0.262500X-0.450000X0.262500X-0.450000X0.262500X0.450000X-0.262500X0.450000X0*%
%ADD12RoundRect,0.250000X-0.475000X0.250000X-0.475000X-0.250000X0.475000X-0.250000X0.475000X0.250000X0*%
%ADD13RoundRect,0.250000X-0.250000X-0.475000X0.250000X-0.475000X0.250000X0.475000X-0.250000X0.475000X0*%
%ADD14RoundRect,0.172500X0.242500X-0.172500X0.242500X0.172500X-0.242500X0.172500X-0.242500X-0.172500X0*%
%ADD15RoundRect,0.075000X0.075000X-0.325000X0.075000X0.325000X-0.075000X0.325000X-0.075000X-0.325000X0*%
%ADD16RoundRect,0.250000X0.250000X0.475000X-0.250000X0.475000X-0.250000X-0.475000X0.250000X-0.475000X0*%
%ADD17RoundRect,0.237500X-0.237500X0.300000X-0.237500X-0.300000X0.237500X-0.300000X0.237500X0.300000X0*%
%ADD18RoundRect,0.250000X-0.450000X0.262500X-0.450000X-0.262500X0.450000X-0.262500X0.450000X0.262500X0*%
%ADD19R,1.300000X0.600000*%
%ADD20RoundRect,0.250000X0.475000X-0.250000X0.475000X0.250000X-0.475000X0.250000X-0.475000X-0.250000X0*%
%ADD21RoundRect,0.250000X0.450000X-0.262500X0.450000X0.262500X-0.450000X0.262500X-0.450000X-0.262500X0*%
%ADD22RoundRect,0.150000X0.150000X-0.587500X0.150000X0.587500X-0.150000X0.587500X-0.150000X-0.587500X0*%
%ADD23RoundRect,0.237500X-0.237500X0.287500X-0.237500X-0.287500X0.237500X-0.287500X0.237500X0.287500X0*%
%ADD24RoundRect,0.237500X0.237500X-0.300000X0.237500X0.300000X-0.237500X0.300000X-0.237500X-0.300000X0*%
%ADD25RoundRect,0.150000X-0.587500X-0.150000X0.587500X-0.150000X0.587500X0.150000X-0.587500X0.150000X0*%
G04 APERTURE END LIST*
D10*
X122600000Y-72200000D03*
X122600000Y-71250000D03*
X122600000Y-70300000D03*
X124875000Y-70300000D03*
X124875000Y-72200000D03*
D11*
X160587500Y-89700000D03*
X162412500Y-89700000D03*
D12*
X165800000Y-91750000D03*
X165800000Y-93650000D03*
D13*
X127450000Y-96200000D03*
X129350000Y-96200000D03*
D12*
X172600000Y-93850000D03*
X172600000Y-95750000D03*
D11*
X160587500Y-94300000D03*
X162412500Y-94300000D03*
D12*
X120300000Y-70350000D03*
X120300000Y-72250000D03*
D14*
X111680000Y-94850000D03*
X112700000Y-94850000D03*
X111680000Y-94000000D03*
X112700000Y-94000000D03*
D15*
X113165000Y-95875000D03*
X112515000Y-95875000D03*
X111865000Y-95875000D03*
X111215000Y-95875000D03*
X111215000Y-92975000D03*
X111865000Y-92975000D03*
X112515000Y-92975000D03*
X113165000Y-92975000D03*
D16*
X111250000Y-97900000D03*
X109350000Y-97900000D03*
D17*
X153300000Y-84462500D03*
X153300000Y-86187500D03*
D18*
X131200000Y-107987500D03*
X131200000Y-109812500D03*
D12*
X170300000Y-93850000D03*
X170300000Y-95750000D03*
X168000000Y-91750000D03*
X168000000Y-93650000D03*
D11*
X160587500Y-92000000D03*
X162412500Y-92000000D03*
X133387500Y-107400000D03*
X135212500Y-107400000D03*
D17*
X155000000Y-84462500D03*
X155000000Y-86187500D03*
D19*
X116050000Y-100830000D03*
X116050000Y-98770000D03*
X118150000Y-99800000D03*
D20*
X170200000Y-90400000D03*
X170200000Y-88500000D03*
D21*
X144000000Y-109512500D03*
X144000000Y-107687500D03*
D22*
X135250000Y-111737500D03*
X133350000Y-111737500D03*
X134300000Y-109862500D03*
D21*
X146100000Y-109512500D03*
X146100000Y-107687500D03*
D12*
X127400000Y-92250000D03*
X127400000Y-94150000D03*
D20*
X127400000Y-90350000D03*
X127400000Y-88450000D03*
D12*
X113700000Y-98800000D03*
X113700000Y-100700000D03*
D23*
X156700000Y-86250000D03*
X156700000Y-88000000D03*
D20*
X172550000Y-90400000D03*
X172550000Y-88500000D03*
D24*
X156700000Y-84387500D03*
X156700000Y-82662500D03*
D25*
X173662500Y-111650000D03*
X173662500Y-109750000D03*
X175537500Y-110700000D03*
D20*
X129800000Y-90350000D03*
X129800000Y-88450000D03*
D16*
X113150000Y-90400000D03*
X111250000Y-90400000D03*
M02*
