%TF.GenerationSoftware,KiCad,Pcbnew,8.0.6*%
%TF.CreationDate,2026-01-02T17:32:49-08:00*%
%TF.ProjectId,LoRa_Board,4c6f5261-5f42-46f6-9172-642e6b696361,rev?*%
%TF.SameCoordinates,PX6052340PY7459280*%
%TF.FileFunction,Soldermask,Bot*%
%TF.FilePolarity,Negative*%
%FSLAX46Y46*%
G04 Gerber Fmt 4.6, Leading zero omitted, Abs format (unit mm)*
G04 Created by KiCad (PCBNEW 8.0.6) date 2026-01-02 17:32:49*
%MOMM*%
%LPD*%
G01*
G04 APERTURE LIST*
G04 Aperture macros list*
%AMRoundRect*
0 Rectangle with rounded corners*
0 $1 Rounding radius*
0 $2 $3 $4 $5 $6 $7 $8 $9 X,Y pos of 4 corners*
0 Add a 4 corners polygon primitive as box body*
4,1,4,$2,$3,$4,$5,$6,$7,$8,$9,$2,$3,0*
0 Add four circle primitives for the rounded corners*
1,1,$1+$1,$2,$3*
1,1,$1+$1,$4,$5*
1,1,$1+$1,$6,$7*
1,1,$1+$1,$8,$9*
0 Add four rect primitives between the rounded corners*
20,1,$1+$1,$2,$3,$4,$5,0*
20,1,$1+$1,$4,$5,$6,$7,0*
20,1,$1+$1,$6,$7,$8,$9,0*
20,1,$1+$1,$8,$9,$2,$3,0*%
G04 Aperture macros list end*
%ADD10C,6.400000*%
%ADD11R,1.650000X1.650000*%
%ADD12C,1.650000*%
%ADD13R,1.700000X1.700000*%
%ADD14O,1.700000X1.700000*%
%ADD15C,0.650000*%
%ADD16O,2.100000X1.000000*%
%ADD17O,1.600000X1.000000*%
%ADD18RoundRect,0.150000X-0.512500X-0.150000X0.512500X-0.150000X0.512500X0.150000X-0.512500X0.150000X0*%
%ADD19RoundRect,0.250000X-0.262500X-0.450000X0.262500X-0.450000X0.262500X0.450000X-0.262500X0.450000X0*%
%ADD20RoundRect,0.250000X-0.475000X0.250000X-0.475000X-0.250000X0.475000X-0.250000X0.475000X0.250000X0*%
%ADD21RoundRect,0.250000X-0.250000X-0.475000X0.250000X-0.475000X0.250000X0.475000X-0.250000X0.475000X0*%
%ADD22RoundRect,0.075000X0.075000X-0.325000X0.075000X0.325000X-0.075000X0.325000X-0.075000X-0.325000X0*%
%ADD23R,2.050000X1.700000*%
%ADD24RoundRect,0.250000X0.250000X0.475000X-0.250000X0.475000X-0.250000X-0.475000X0.250000X-0.475000X0*%
%ADD25RoundRect,0.237500X-0.237500X0.300000X-0.237500X-0.300000X0.237500X-0.300000X0.237500X0.300000X0*%
%ADD26RoundRect,0.250000X-0.450000X0.262500X-0.450000X-0.262500X0.450000X-0.262500X0.450000X0.262500X0*%
%ADD27R,1.300000X0.600000*%
%ADD28RoundRect,0.250000X0.475000X-0.250000X0.475000X0.250000X-0.475000X0.250000X-0.475000X-0.250000X0*%
%ADD29RoundRect,0.250000X0.450000X-0.262500X0.450000X0.262500X-0.450000X0.262500X-0.450000X-0.262500X0*%
%ADD30RoundRect,0.150000X0.150000X-0.587500X0.150000X0.587500X-0.150000X0.587500X-0.150000X-0.587500X0*%
%ADD31RoundRect,0.237500X-0.237500X0.287500X-0.237500X-0.287500X0.237500X-0.287500X0.237500X0.287500X0*%
%ADD32RoundRect,0.237500X0.237500X-0.300000X0.237500X0.300000X-0.237500X0.300000X-0.237500X-0.300000X0*%
%ADD33RoundRect,0.150000X-0.587500X-0.150000X0.587500X-0.150000X0.587500X0.150000X-0.587500X0.150000X0*%
G04 APERTURE END LIST*
D10*
%TO.C,H6*%
X96000000Y50000000D03*
%TD*%
%TO.C,H7*%
X96000000Y7000000D03*
%TD*%
D11*
%TO.C,JST1*%
X18000000Y45500000D03*
D12*
X15500000Y45500000D03*
X13000000Y45500000D03*
%TD*%
D13*
%TO.C,J2*%
X42500000Y7600000D03*
D14*
X42500000Y5060000D03*
X39960000Y7600000D03*
X39960000Y5060000D03*
X37420000Y7600000D03*
X37420000Y5060000D03*
%TD*%
D15*
%TO.C,J4*%
X6340000Y20390000D03*
X6340000Y14610000D03*
D16*
X6870000Y21820000D03*
D17*
X2690000Y21820000D03*
D16*
X6870000Y13180000D03*
D17*
X2690000Y13180000D03*
%TD*%
D13*
%TO.C,J9*%
X56000000Y7600000D03*
D14*
X56000000Y5060000D03*
X53460000Y7600000D03*
X53460000Y5060000D03*
X50920000Y7600000D03*
X50920000Y5060000D03*
%TD*%
D10*
%TO.C,H5*%
X4000000Y50000000D03*
%TD*%
%TO.C,H8*%
X4000000Y7000000D03*
%TD*%
D13*
%TO.C,J8*%
X17525000Y35100000D03*
D14*
X14985000Y35100000D03*
X12445000Y35100000D03*
%TD*%
D13*
%TO.C,J6*%
X23100000Y25875000D03*
D14*
X23100000Y28415000D03*
X23100000Y30955000D03*
%TD*%
D13*
%TO.C,J3*%
X7540000Y35920000D03*
D14*
X5000000Y35920000D03*
X7540000Y38460000D03*
X5000000Y38460000D03*
X7540000Y41000000D03*
X5000000Y41000000D03*
X7540000Y43540000D03*
X5000000Y43540000D03*
%TD*%
D13*
%TO.C,J1*%
X29000000Y7600000D03*
D14*
X29000000Y5060000D03*
X26460000Y7600000D03*
X26460000Y5060000D03*
X23920000Y7600000D03*
X23920000Y5060000D03*
%TD*%
D13*
%TO.C,J7*%
X82000000Y7600000D03*
D14*
X82000000Y5060000D03*
X79460000Y7600000D03*
X79460000Y5060000D03*
X76920000Y7600000D03*
X76920000Y5060000D03*
%TD*%
D18*
%TO.C,U3*%
X21600000Y49800000D03*
X21600000Y50750000D03*
X21600000Y51700000D03*
X23875000Y51700000D03*
X23875000Y49800000D03*
%TD*%
D19*
%TO.C,R1*%
X59587500Y32300000D03*
X61412500Y32300000D03*
%TD*%
D20*
%TO.C,C76*%
X64800000Y30250000D03*
X64800000Y28350000D03*
%TD*%
D21*
%TO.C,C26*%
X26450000Y25800000D03*
X28350000Y25800000D03*
%TD*%
D20*
%TO.C,C80*%
X71600000Y28150000D03*
X71600000Y26250000D03*
%TD*%
D19*
%TO.C,R8*%
X59587500Y27700000D03*
X61412500Y27700000D03*
%TD*%
D20*
%TO.C,C34*%
X19300000Y51650000D03*
X19300000Y49750000D03*
%TD*%
D22*
%TO.C,LDO2*%
X12165000Y26125000D03*
X11515000Y26125000D03*
X10865000Y26125000D03*
X10215000Y26125000D03*
X10215000Y29025000D03*
X10865000Y29025000D03*
X11515000Y29025000D03*
X12165000Y29025000D03*
D23*
X11190000Y27575000D03*
%TD*%
D24*
%TO.C,C17*%
X10250000Y24100000D03*
X8350000Y24100000D03*
%TD*%
D25*
%TO.C,C6*%
X52300000Y37537500D03*
X52300000Y35812500D03*
%TD*%
D26*
%TO.C,R22*%
X30200000Y14012500D03*
X30200000Y12187500D03*
%TD*%
D20*
%TO.C,C81*%
X69300000Y28150000D03*
X69300000Y26250000D03*
%TD*%
%TO.C,C77*%
X67000000Y30250000D03*
X67000000Y28350000D03*
%TD*%
D19*
%TO.C,R2*%
X59587500Y30000000D03*
X61412500Y30000000D03*
%TD*%
%TO.C,R21*%
X32387500Y14600000D03*
X34212500Y14600000D03*
%TD*%
D25*
%TO.C,C4*%
X54000000Y37537500D03*
X54000000Y35812500D03*
%TD*%
D27*
%TO.C,VS1*%
X15050000Y21170000D03*
X15050000Y23230000D03*
X17150000Y22200000D03*
%TD*%
D28*
%TO.C,C74*%
X69200000Y31600000D03*
X69200000Y33500000D03*
%TD*%
D29*
%TO.C,R18*%
X43000000Y12487500D03*
X43000000Y14312500D03*
%TD*%
D30*
%TO.C,DI2*%
X34250000Y10262500D03*
X32350000Y10262500D03*
X33300000Y12137500D03*
%TD*%
D29*
%TO.C,R20*%
X45100000Y12487500D03*
X45100000Y14312500D03*
%TD*%
D20*
%TO.C,FB2*%
X26400000Y29750000D03*
X26400000Y27850000D03*
%TD*%
D28*
%TO.C,C45*%
X26400000Y31650000D03*
X26400000Y33550000D03*
%TD*%
D20*
%TO.C,C33*%
X12700000Y23200000D03*
X12700000Y21300000D03*
%TD*%
D31*
%TO.C,L11*%
X55700000Y35750000D03*
X55700000Y34000000D03*
%TD*%
D28*
%TO.C,C75*%
X71550000Y31600000D03*
X71550000Y33500000D03*
%TD*%
D32*
%TO.C,C10*%
X55700000Y37612500D03*
X55700000Y39337500D03*
%TD*%
D33*
%TO.C,DI1*%
X72662500Y10350000D03*
X72662500Y12250000D03*
X74537500Y11300000D03*
%TD*%
D28*
%TO.C,C39*%
X28800000Y31650000D03*
X28800000Y33550000D03*
%TD*%
D24*
%TO.C,C2*%
X12150000Y31600000D03*
X10250000Y31600000D03*
%TD*%
M02*
